<svg width="24" height="24" viewBox="0 0 24 24" fill="none" xmlns="http://www.w3.org/2000/svg"><path d="M6.847 2.044 C 4.399 2.375,2.253 4.182,1.389 6.640 C 0.766 8.411,0.904 10.335,1.778 12.061 C 2.271 13.033,2.938 13.828,4.936 15.821 C 6.850 17.731,10.303 20.916,10.881 21.304 C 11.357 21.624,11.843 21.731,12.347 21.626 C 12.929 21.504,13.039 21.424,14.659 19.962 C 18.466 16.526,20.785 14.201,21.705 12.900 C 23.136 10.877,23.394 8.298,22.390 6.064 C 21.515 4.116,19.678 2.594,17.675 2.157 C 15.825 1.753,13.802 2.258,12.246 3.511 L 11.993 3.715 11.766 3.530 C 11.106 2.991,10.206 2.513,9.400 2.273 C 8.653 2.051,7.536 1.951,6.847 2.044 M8.239 4.062 C 9.270 4.229,10.108 4.677,10.983 5.528 C 11.249 5.787,11.532 6.026,11.612 6.059 C 11.821 6.147,12.204 6.137,12.411 6.040 C 12.507 5.995,12.744 5.793,12.960 5.573 C 13.457 5.066,13.868 4.766,14.458 4.478 C 15.936 3.758,17.527 3.886,18.860 4.831 C 20.077 5.694,20.824 6.968,20.964 8.417 C 21.092 9.733,20.705 10.970,19.820 12.080 C 18.838 13.310,16.406 15.700,13.199 18.585 C 12.000 19.664,12.015 19.652,11.945 19.613 C 11.914 19.595,11.378 19.119,10.754 18.557 C 6.942 15.117,4.610 12.784,3.857 11.656 C 2.967 10.323,2.768 8.725,3.305 7.220 C 3.724 6.047,4.684 4.975,5.825 4.405 C 6.555 4.041,7.384 3.923,8.239 4.062 M10.581 7.603 C 10.264 7.761,10.178 7.890,9.507 9.230 L 8.860 10.520 8.558 10.520 C 8.312 10.520,8.216 10.540,8.044 10.625 C 7.517 10.888,7.345 11.571,7.682 12.063 C 7.934 12.430,8.296 12.539,9.174 12.514 C 9.654 12.500,9.723 12.488,9.931 12.386 C 10.207 12.251,10.310 12.123,10.601 11.555 L 10.822 11.123 11.436 12.972 C 11.774 13.988,12.083 14.885,12.123 14.964 C 12.424 15.563,13.276 15.671,13.730 15.166 C 13.824 15.061,14.109 14.542,14.500 13.760 L 15.120 12.520 15.273 12.520 C 15.546 12.520,15.888 12.436,16.049 12.330 C 16.668 11.919,16.617 10.955,15.957 10.626 C 15.750 10.523,15.725 10.520,15.000 10.520 C 14.278 10.520,14.249 10.523,14.047 10.624 C 13.792 10.751,13.685 10.887,13.399 11.445 L 13.178 11.877 12.564 10.028 C 12.226 9.012,11.917 8.115,11.877 8.036 C 11.789 7.862,11.568 7.661,11.374 7.580 C 11.168 7.494,10.776 7.505,10.581 7.603 " stroke="none" fill-rule="evenodd" fill="black"></path></svg>