<svg width="24" height="24" viewBox="0 0 24 24" fill="none" xmlns="http://www.w3.org/2000/svg"><path d="M4.920 2.041 C 4.152 2.092,3.672 2.205,3.180 2.451 C 2.089 2.996,1.357 3.961,1.124 5.160 C 1.016 5.716,1.000 6.436,1.000 10.814 C 1.000 15.258,1.002 15.377,1.083 15.773 C 1.357 17.118,2.249 18.195,3.512 18.704 C 4.286 19.016,5.122 19.084,5.495 18.865 C 6.248 18.424,6.121 17.305,5.290 17.055 C 5.189 17.025,5.024 17.000,4.922 17.000 C 4.088 17.000,3.247 16.305,3.059 15.460 C 3.002 15.206,2.997 14.659,3.011 10.477 C 3.027 5.376,3.021 5.513,3.248 5.048 C 3.366 4.806,3.806 4.366,4.048 4.248 C 4.151 4.198,4.367 4.126,4.528 4.088 C 4.798 4.025,5.370 4.020,12.000 4.020 C 18.630 4.020,19.202 4.025,19.472 4.088 C 19.633 4.126,19.849 4.198,19.952 4.248 C 20.194 4.366,20.634 4.806,20.752 5.048 C 20.978 5.513,20.973 5.380,20.989 10.440 C 21.000 13.695,20.992 15.178,20.961 15.360 C 20.896 15.748,20.710 16.097,20.403 16.404 C 20.024 16.784,19.545 17.000,19.078 17.000 C 18.511 17.000,18.066 17.371,18.013 17.888 C 17.971 18.293,18.156 18.661,18.505 18.865 C 18.989 19.148,20.200 18.940,21.064 18.424 C 21.582 18.114,22.113 17.580,22.436 17.044 C 22.635 16.715,22.832 16.190,22.921 15.757 C 22.997 15.382,23.000 15.200,23.000 10.814 C 23.000 5.730,22.989 5.456,22.755 4.680 C 22.424 3.581,21.465 2.622,20.320 2.246 C 19.635 2.021,19.900 2.028,12.340 2.019 C 8.512 2.014,5.173 2.024,4.920 2.041 M11.608 14.342 C 11.157 14.464,11.121 14.501,8.952 17.100 C 7.831 18.442,6.855 19.648,6.782 19.780 C 6.526 20.242,6.502 20.672,6.706 21.127 C 6.816 21.371,7.122 21.697,7.356 21.818 C 7.697 21.994,7.807 21.999,11.983 21.999 C 14.611 22.000,16.023 21.986,16.175 21.958 C 16.518 21.894,16.739 21.784,16.977 21.560 C 17.486 21.078,17.571 20.360,17.193 19.734 C 17.120 19.613,16.149 18.422,15.036 17.087 C 12.865 14.484,12.844 14.463,12.374 14.340 C 12.092 14.267,11.887 14.267,11.608 14.342 M13.442 18.290 L 14.850 19.980 13.425 19.991 C 12.641 19.996,11.359 19.996,10.575 19.991 L 9.150 19.980 10.558 18.290 C 11.333 17.360,11.982 16.600,12.000 16.600 C 12.018 16.600,12.667 17.360,13.442 18.290 " stroke="none" fill-rule="evenodd" fill="black"></path></svg>