<svg width="24" height="24" viewBox="0 0 24 24" fill="none" xmlns="http://www.w3.org/2000/svg"><path d="M5.340 2.562 C 4.145 2.791,3.286 3.232,2.499 4.019 C 1.770 4.748,1.319 5.589,1.093 6.640 C 0.992 7.112,0.991 8.126,1.093 8.600 C 1.182 9.019,1.372 9.581,1.531 9.900 C 2.047 10.933,2.965 11.816,4.020 12.291 C 4.558 12.533,4.990 12.642,5.829 12.744 L 5.998 12.765 6.009 16.072 L 6.020 19.380 6.129 19.700 C 6.398 20.489,7.054 21.128,7.859 21.385 C 8.259 21.512,8.873 21.528,9.279 21.421 C 10.194 21.181,10.928 20.446,11.161 19.536 C 11.238 19.235,11.240 19.072,11.240 13.204 C 11.240 6.527,11.250 6.820,10.977 6.002 C 10.417 4.329,9.080 3.098,7.340 2.654 C 7.003 2.568,6.829 2.549,6.240 2.538 C 5.855 2.530,5.450 2.541,5.340 2.562 M17.200 2.544 C 16.857 2.604,16.308 2.743,16.091 2.825 C 14.642 3.370,13.510 4.543,13.024 6.002 C 12.748 6.832,12.760 6.486,12.760 13.184 C 12.760 19.028,12.763 19.237,12.837 19.530 C 13.072 20.448,13.801 21.180,14.721 21.421 C 15.127 21.528,15.741 21.512,16.141 21.385 C 16.943 21.129,17.603 20.486,17.871 19.700 L 17.980 19.380 17.991 16.072 L 18.003 12.765 18.171 12.744 C 18.755 12.673,18.979 12.632,19.300 12.539 C 22.131 11.720,23.686 8.686,22.698 5.910 C 22.106 4.247,20.704 3.013,18.960 2.620 C 18.671 2.554,17.442 2.502,17.200 2.544 M7.100 4.654 C 7.531 4.794,7.870 5.001,8.245 5.353 C 8.756 5.832,9.051 6.346,9.178 6.982 C 9.235 7.266,9.241 7.931,9.231 13.207 L 9.220 19.114 9.136 19.227 C 8.866 19.589,8.322 19.574,8.101 19.199 C 8.022 19.063,8.020 18.990,8.000 15.480 L 7.980 11.900 7.883 11.660 C 7.751 11.331,7.422 11.005,7.100 10.882 C 6.907 10.809,6.733 10.784,6.220 10.757 C 5.118 10.700,4.607 10.490,3.938 9.822 C 3.486 9.370,3.273 9.018,3.113 8.458 C 2.985 8.007,2.984 7.235,3.112 6.788 C 3.373 5.873,4.051 5.106,4.921 4.739 C 5.347 4.560,5.602 4.520,6.220 4.535 C 6.690 4.547,6.831 4.566,7.100 4.654 M18.563 4.577 C 19.651 4.808,20.573 5.684,20.888 6.788 C 21.016 7.236,21.015 8.007,20.886 8.460 C 20.729 9.011,20.512 9.368,20.060 9.820 C 19.389 10.491,18.881 10.700,17.780 10.757 C 17.267 10.784,17.093 10.809,16.900 10.882 C 16.578 11.005,16.249 11.331,16.117 11.660 L 16.020 11.900 16.000 15.480 C 15.980 18.990,15.978 19.063,15.899 19.199 C 15.671 19.586,15.110 19.588,14.850 19.202 L 14.760 19.068 14.760 13.172 C 14.760 7.937,14.767 7.242,14.824 6.968 C 15.064 5.807,16.023 4.835,17.180 4.579 C 17.499 4.509,18.236 4.508,18.563 4.577 " stroke="none" fill-rule="evenodd" fill="black"></path></svg>