<svg width="24" height="24" viewBox="0 0 24 24" fill="none" xmlns="http://www.w3.org/2000/svg"><path d="M2.670 2.061 C 2.448 2.142,2.250 2.309,2.128 2.516 C 2.036 2.672,2.020 2.745,2.021 3.000 C 2.022 3.354,2.076 3.476,2.372 3.789 L 2.574 4.003 1.872 4.711 C 1.486 5.101,1.136 5.483,1.096 5.560 C 1.043 5.660,1.021 5.787,1.021 6.000 C 1.020 6.258,1.036 6.327,1.133 6.492 C 1.263 6.714,1.502 6.901,1.736 6.965 C 1.939 7.019,2.267 6.989,2.445 6.899 C 2.519 6.861,2.900 6.514,3.291 6.126 L 4.001 5.422 4.718 6.138 L 5.435 6.854 5.231 7.077 C 5.118 7.200,4.906 7.462,4.759 7.660 C 3.235 9.718,2.662 12.387,3.203 14.908 C 3.458 16.095,4.094 17.477,4.827 18.438 L 4.963 18.615 4.066 19.518 C 3.573 20.014,3.136 20.483,3.095 20.560 C 3.043 20.659,3.021 20.787,3.021 21.000 C 3.020 21.258,3.036 21.327,3.133 21.492 C 3.263 21.714,3.502 21.901,3.736 21.965 C 3.939 22.019,4.267 21.989,4.445 21.899 C 4.519 21.861,4.986 21.427,5.482 20.934 L 6.385 20.037 6.562 20.173 C 7.244 20.693,8.271 21.237,9.100 21.516 C 11.378 22.284,13.785 22.131,15.940 21.082 C 16.709 20.708,17.671 20.057,18.038 19.663 L 18.136 19.558 19.278 20.694 C 19.906 21.320,20.483 21.864,20.560 21.905 C 20.659 21.957,20.787 21.979,21.000 21.979 C 21.258 21.980,21.327 21.964,21.492 21.867 C 21.968 21.587,22.139 20.967,21.865 20.508 C 21.810 20.416,17.665 16.243,12.653 11.235 C 4.231 2.820,3.525 2.125,3.343 2.065 C 3.107 1.987,2.874 1.986,2.670 2.061 M18.670 2.061 C 18.448 2.142,18.250 2.309,18.128 2.516 C 18.036 2.672,18.020 2.745,18.021 3.000 C 18.021 3.212,18.043 3.341,18.095 3.440 C 18.196 3.632,21.296 6.739,21.520 6.873 C 21.672 6.964,21.746 6.980,22.000 6.980 C 22.257 6.980,22.327 6.964,22.492 6.867 C 22.968 6.587,23.138 5.968,22.866 5.508 C 22.811 5.416,22.040 4.618,21.153 3.736 C 19.714 2.305,19.519 2.124,19.343 2.066 C 19.108 1.987,18.875 1.986,18.670 2.061 M11.140 4.042 C 10.247 4.134,9.892 4.262,9.693 4.564 C 9.359 5.068,9.488 5.683,9.991 5.985 C 10.268 6.151,10.421 6.169,10.898 6.094 C 11.399 6.015,12.492 6.005,12.980 6.076 C 13.697 6.179,14.281 6.355,14.980 6.681 C 17.096 7.666,18.589 9.686,18.924 12.020 C 18.993 12.499,18.984 13.596,18.906 14.117 C 18.831 14.623,18.862 14.816,19.065 15.094 C 19.352 15.487,19.892 15.609,20.318 15.377 C 20.545 15.253,20.681 15.104,20.780 14.866 C 20.948 14.464,21.047 13.015,20.963 12.180 C 20.647 9.026,18.781 6.315,15.980 4.941 C 15.093 4.506,14.255 4.242,13.320 4.101 C 12.805 4.024,11.628 3.992,11.140 4.042 M16.629 18.233 C 16.498 18.374,15.978 18.765,15.669 18.954 C 12.889 20.656,9.342 20.236,7.054 17.935 C 6.143 17.018,5.503 15.885,5.205 14.660 C 4.959 13.647,4.959 12.353,5.205 11.340 C 5.460 10.294,6.077 9.104,6.715 8.429 L 6.858 8.278 11.788 13.208 L 16.718 18.137 16.629 18.233 " stroke="none" fill-rule="evenodd" fill="black"></path></svg>