<svg width="24" height="24" viewBox="0 0 24 24" fill="none" xmlns="http://www.w3.org/2000/svg"><path d="M4.640 2.069 C 4.488 2.121,4.208 2.381,2.847 3.735 C 1.960 4.618,1.186 5.421,1.127 5.520 C 1.037 5.672,1.020 5.746,1.020 6.000 C 1.020 6.257,1.036 6.327,1.133 6.492 C 1.413 6.968,2.033 7.138,2.492 6.865 C 2.707 6.738,5.807 3.626,5.905 3.440 C 5.957 3.341,5.979 3.212,5.979 3.000 C 5.980 2.745,5.964 2.672,5.872 2.516 C 5.617 2.083,5.121 1.902,4.640 2.069 M18.670 2.061 C 18.448 2.142,18.250 2.309,18.128 2.516 C 18.036 2.672,18.020 2.745,18.021 3.000 C 18.021 3.212,18.043 3.341,18.095 3.440 C 18.196 3.632,21.296 6.739,21.520 6.873 C 21.672 6.964,21.746 6.980,22.000 6.980 C 22.257 6.980,22.327 6.964,22.492 6.867 C 22.968 6.587,23.138 5.968,22.866 5.508 C 22.811 5.416,22.040 4.618,21.153 3.736 C 19.714 2.305,19.519 2.124,19.343 2.066 C 19.108 1.987,18.875 1.986,18.670 2.061 M11.320 4.025 C 9.086 4.230,7.126 5.141,5.600 6.684 C 4.887 7.405,4.397 8.095,3.940 9.020 C 2.695 11.540,2.687 14.419,3.918 16.940 C 4.175 17.467,4.520 18.035,4.827 18.438 L 4.963 18.615 4.066 19.518 C 3.573 20.014,3.136 20.483,3.095 20.560 C 3.043 20.659,3.021 20.787,3.021 21.000 C 3.020 21.258,3.036 21.327,3.133 21.492 C 3.263 21.714,3.502 21.901,3.736 21.965 C 3.939 22.019,4.267 21.989,4.445 21.899 C 4.519 21.861,4.986 21.427,5.482 20.934 L 6.385 20.037 6.562 20.173 C 8.072 21.325,10.080 22.000,12.000 22.000 C 13.920 22.000,15.928 21.325,17.438 20.173 L 17.615 20.037 18.518 20.934 C 19.014 21.427,19.481 21.861,19.555 21.899 C 20.009 22.128,20.601 21.944,20.867 21.492 C 20.964 21.327,20.980 21.258,20.979 21.000 C 20.979 20.787,20.957 20.659,20.905 20.560 C 20.864 20.483,20.427 20.014,19.934 19.518 L 19.037 18.615 19.173 18.438 C 19.903 17.481,20.507 16.177,20.779 14.972 C 21.691 10.930,19.698 6.765,15.980 4.941 C 15.093 4.506,14.255 4.242,13.320 4.101 C 12.908 4.039,11.676 3.992,11.320 4.025 M13.120 6.102 C 16.104 6.559,18.493 8.995,18.924 12.020 C 18.990 12.483,18.990 13.517,18.924 13.980 C 18.478 17.105,16.018 19.526,12.868 19.938 C 9.114 20.430,5.614 17.753,5.076 13.980 C 4.967 13.217,5.022 12.092,5.205 11.340 C 5.701 9.305,7.128 7.561,9.020 6.681 C 9.878 6.282,10.475 6.126,11.540 6.023 C 11.820 5.996,12.727 6.041,13.120 6.102 M11.695 8.057 C 11.466 8.129,11.256 8.299,11.128 8.516 L 11.020 8.700 11.009 10.916 C 10.999 12.900,11.004 13.153,11.064 13.336 C 11.124 13.518,11.249 13.659,12.236 14.653 C 12.843 15.266,13.416 15.811,13.508 15.866 C 13.969 16.138,14.588 15.968,14.867 15.492 C 14.964 15.327,14.980 15.258,14.979 15.000 C 14.979 14.787,14.957 14.659,14.905 14.560 C 14.864 14.483,14.420 14.006,13.917 13.500 L 13.003 12.580 12.991 10.640 L 12.980 8.700 12.872 8.516 C 12.628 8.101,12.150 7.915,11.695 8.057 " stroke="none" fill-rule="evenodd" fill="black"></path></svg>