<svg width="24" height="24" viewBox="0 0 24 24" fill="none" xmlns="http://www.w3.org/2000/svg"><path d="M11.419 1.241 C 11.167 1.321,3.165 5.742,2.836 5.983 C 2.414 6.292,2.159 6.676,2.058 7.155 C 1.974 7.548,1.974 16.452,2.058 16.845 C 2.171 17.381,2.492 17.813,3.018 18.139 C 3.538 18.461,11.086 22.636,11.314 22.729 C 11.504 22.805,11.614 22.820,12.000 22.820 C 12.386 22.820,12.496 22.805,12.686 22.729 C 12.914 22.636,20.462 18.461,20.982 18.139 C 21.322 17.928,21.633 17.609,21.779 17.322 C 22.002 16.881,21.999 16.969,21.999 12.000 C 21.999 7.036,22.002 7.118,21.781 6.681 C 21.657 6.438,21.424 6.173,21.164 5.983 C 20.808 5.722,12.833 1.321,12.568 1.239 C 12.233 1.136,11.748 1.137,11.419 1.241 M16.004 5.370 L 19.980 7.580 19.989 12.000 L 19.999 16.420 16.035 18.620 C 13.854 19.830,12.039 20.820,12.000 20.820 C 11.961 20.820,10.146 19.830,7.965 18.620 L 4.001 16.420 4.011 12.000 L 4.020 7.580 7.996 5.370 C 10.184 4.154,11.985 3.160,12.000 3.160 C 12.015 3.160,13.816 4.154,16.004 5.370 M11.695 7.057 C 11.466 7.129,11.256 7.299,11.128 7.516 L 11.020 7.700 11.020 10.003 L 11.020 12.306 11.141 12.503 C 11.209 12.613,11.346 12.756,11.452 12.828 C 11.923 13.144,12.554 12.999,12.859 12.503 L 12.980 12.306 12.980 10.003 L 12.980 7.700 12.872 7.516 C 12.628 7.101,12.150 6.915,11.695 7.057 M11.695 15.055 C 11.464 15.130,11.255 15.300,11.128 15.516 C 11.037 15.672,11.020 15.746,11.020 16.000 C 11.020 16.257,11.036 16.327,11.133 16.492 C 11.651 17.374,12.998 17.018,12.998 16.000 C 12.998 15.623,12.792 15.281,12.463 15.112 C 12.265 15.010,11.911 14.984,11.695 15.055 " stroke="none" fill-rule="evenodd" fill="black"></path></svg>