<svg width="24" height="24" viewBox="0 0 24 24" fill="none" xmlns="http://www.w3.org/2000/svg"><path d="M11.680 1.519 C 11.404 1.572,11.178 1.663,10.942 1.821 C 10.672 2.000,10.492 2.198,10.221 2.614 C 9.946 3.036,1.280 18.003,1.078 18.405 C 0.773 19.009,0.686 19.440,0.777 19.878 C 0.865 20.299,1.005 20.570,1.286 20.863 C 1.573 21.162,1.872 21.326,2.320 21.430 C 2.601 21.496,3.223 21.500,12.000 21.500 C 20.714 21.500,21.401 21.495,21.673 21.431 C 22.107 21.330,22.375 21.191,22.656 20.921 C 23.055 20.538,23.252 20.082,23.253 19.540 C 23.253 19.185,23.141 18.827,22.863 18.300 C 22.572 17.746,14.042 3.017,13.779 2.614 C 13.508 2.198,13.328 2.000,13.057 1.820 C 12.664 1.559,12.110 1.438,11.680 1.519 M12.136 3.750 C 12.391 4.167,21.015 19.073,21.107 19.254 C 21.161 19.361,21.194 19.460,21.179 19.474 C 21.145 19.508,2.855 19.508,2.821 19.474 C 2.806 19.460,2.839 19.361,2.893 19.254 C 2.985 19.073,11.609 4.167,11.864 3.750 C 11.927 3.646,11.989 3.560,12.000 3.560 C 12.011 3.560,12.073 3.646,12.136 3.750 M11.670 8.061 C 11.448 8.142,11.250 8.309,11.128 8.516 L 11.020 8.700 11.009 10.911 C 11.001 12.337,11.012 13.176,11.039 13.275 C 11.099 13.498,11.289 13.739,11.508 13.867 C 11.673 13.964,11.742 13.980,12.000 13.979 C 12.346 13.978,12.481 13.921,12.720 13.676 C 13.007 13.380,13.004 13.406,12.991 10.916 L 12.980 8.700 12.872 8.516 C 12.624 8.094,12.110 7.899,11.670 8.061 M11.695 16.055 C 11.464 16.130,11.255 16.300,11.128 16.516 C 11.037 16.672,11.020 16.746,11.020 17.000 C 11.020 17.257,11.036 17.327,11.133 17.492 C 11.651 18.374,12.998 18.018,12.998 17.000 C 12.998 16.623,12.792 16.281,12.463 16.112 C 12.265 16.010,11.911 15.984,11.695 16.055 " stroke="none" fill-rule="evenodd" fill="black"></path></svg>