<svg width="24" height="24" viewBox="0 0 24 24" fill="none" xmlns="http://www.w3.org/2000/svg"><path d="M5.665 2.044 C 4.403 2.177,3.433 3.010,3.110 4.240 L 3.020 4.580 3.020 12.000 L 3.020 19.420 3.110 19.760 C 3.395 20.837,4.138 21.585,5.222 21.888 C 5.524 21.973,5.613 21.977,7.000 21.977 C 8.380 21.977,8.477 21.972,8.772 21.890 C 9.860 21.585,10.602 20.837,10.890 19.756 L 10.980 19.420 10.980 12.000 L 10.980 4.580 10.890 4.244 C 10.658 3.373,10.144 2.730,9.371 2.343 C 9.015 2.165,8.742 2.089,8.280 2.041 C 7.833 1.994,6.117 1.996,5.665 2.044 M15.665 2.044 C 14.403 2.177,13.433 3.010,13.110 4.240 L 13.020 4.580 13.020 10.000 L 13.020 15.420 13.110 15.760 C 13.395 16.834,14.146 17.592,15.220 17.889 C 15.523 17.973,15.617 17.977,17.000 17.977 C 18.380 17.977,18.477 17.972,18.772 17.890 C 19.860 17.585,20.602 16.837,20.890 15.756 L 20.980 15.420 20.980 10.000 L 20.980 4.580 20.890 4.244 C 20.660 3.378,20.141 2.729,19.375 2.345 C 19.015 2.165,18.743 2.090,18.280 2.041 C 17.833 1.994,16.117 1.996,15.665 2.044 M8.451 4.120 C 8.674 4.231,8.761 4.319,8.886 4.560 L 8.980 4.740 8.980 12.000 L 8.980 19.260 8.881 19.454 C 8.772 19.667,8.615 19.818,8.400 19.916 C 8.281 19.970,8.069 19.980,7.000 19.980 C 5.762 19.980,5.737 19.978,5.551 19.887 C 5.344 19.785,5.183 19.617,5.084 19.400 C 5.026 19.274,5.019 18.576,5.009 12.290 C 5.002 8.339,5.013 5.164,5.034 4.959 C 5.076 4.543,5.176 4.350,5.443 4.173 C 5.664 4.027,5.920 4.004,7.201 4.016 C 8.225 4.025,8.269 4.029,8.451 4.120 M18.451 4.120 C 18.674 4.231,18.761 4.319,18.886 4.560 L 18.980 4.740 18.980 10.000 L 18.980 15.260 18.881 15.454 C 18.772 15.667,18.615 15.818,18.400 15.916 C 18.281 15.970,18.069 15.980,17.000 15.980 C 15.762 15.980,15.737 15.978,15.551 15.887 C 15.344 15.785,15.183 15.617,15.084 15.400 C 15.027 15.275,15.019 14.743,15.008 10.294 C 15.002 7.490,15.013 5.169,15.033 4.964 C 15.076 4.542,15.175 4.351,15.443 4.173 C 15.664 4.027,15.920 4.004,17.201 4.016 C 18.225 4.025,18.269 4.029,18.451 4.120 " stroke="none" fill-rule="evenodd" fill="black"></path></svg>