<svg width="24" height="24" viewBox="0 0 24 24" fill="none" xmlns="http://www.w3.org/2000/svg"><path d="M2.695 5.057 C 2.466 5.129,2.256 5.299,2.128 5.516 C 2.037 5.672,2.020 5.746,2.020 6.000 C 2.020 6.256,2.036 6.328,2.131 6.489 C 2.256 6.702,2.449 6.864,2.670 6.943 C 2.893 7.023,20.107 7.023,20.330 6.943 C 20.551 6.864,20.744 6.702,20.869 6.489 C 20.964 6.328,20.980 6.256,20.980 6.000 C 20.980 5.746,20.963 5.672,20.872 5.516 C 20.740 5.293,20.533 5.128,20.290 5.055 C 20.027 4.976,2.947 4.978,2.695 5.057 M2.695 9.057 C 2.466 9.129,2.256 9.299,2.128 9.516 C 2.037 9.672,2.020 9.746,2.020 10.000 C 2.020 10.256,2.036 10.328,2.131 10.489 C 2.256 10.702,2.449 10.864,2.670 10.943 C 2.793 10.987,4.021 10.996,9.500 10.996 C 14.979 10.996,16.207 10.987,16.330 10.943 C 16.551 10.864,16.744 10.702,16.869 10.489 C 16.964 10.328,16.980 10.256,16.980 10.000 C 16.980 9.746,16.963 9.672,16.872 9.516 C 16.740 9.293,16.533 9.128,16.290 9.055 C 16.028 8.976,2.947 8.978,2.695 9.057 M2.695 13.057 C 2.466 13.129,2.256 13.299,2.128 13.516 C 2.037 13.672,2.020 13.746,2.020 14.000 C 2.020 14.256,2.036 14.328,2.131 14.489 C 2.256 14.702,2.449 14.864,2.670 14.943 C 2.893 15.023,20.107 15.023,20.330 14.943 C 20.551 14.864,20.744 14.702,20.869 14.489 C 20.964 14.328,20.980 14.256,20.980 14.000 C 20.980 13.746,20.963 13.672,20.872 13.516 C 20.740 13.293,20.533 13.128,20.290 13.055 C 20.027 12.976,2.947 12.978,2.695 13.057 M2.695 17.057 C 2.466 17.129,2.256 17.299,2.128 17.516 C 2.037 17.672,2.020 17.746,2.020 18.000 C 2.020 18.256,2.036 18.328,2.131 18.489 C 2.256 18.702,2.449 18.864,2.670 18.943 C 2.793 18.987,4.021 18.996,9.500 18.996 C 14.979 18.996,16.207 18.987,16.330 18.943 C 16.551 18.864,16.744 18.702,16.869 18.489 C 16.964 18.328,16.980 18.256,16.980 18.000 C 16.980 17.746,16.963 17.672,16.872 17.516 C 16.740 17.293,16.533 17.128,16.290 17.055 C 16.028 16.976,2.947 16.978,2.695 17.057 " stroke="none" fill-rule="evenodd" fill="black"></path></svg>