<svg width="24" height="24" viewBox="0 0 24 24" fill="none" xmlns="http://www.w3.org/2000/svg"><path d="M11.695 2.057 C 11.466 2.129,11.256 2.299,11.128 2.516 L 11.020 2.700 11.009 8.639 L 10.999 14.577 8.269 11.854 C 5.790 9.380,5.522 9.125,5.343 9.065 C 4.862 8.906,4.382 9.084,4.128 9.516 C 4.037 9.672,4.020 9.746,4.020 10.000 C 4.020 10.254,4.036 10.328,4.127 10.480 C 4.263 10.707,11.368 17.805,11.560 17.905 C 11.754 18.007,12.246 18.007,12.440 17.905 C 12.632 17.805,19.737 10.707,19.873 10.480 C 19.964 10.328,19.980 10.254,19.980 10.000 C 19.980 9.746,19.963 9.672,19.872 9.516 C 19.618 9.084,19.138 8.906,18.657 9.065 C 18.478 9.125,18.210 9.380,15.731 11.854 L 13.001 14.577 12.991 8.639 L 12.980 2.700 12.872 2.516 C 12.628 2.101,12.150 1.915,11.695 2.057 M2.695 20.057 C 2.466 20.129,2.256 20.299,2.128 20.516 C 2.037 20.672,2.020 20.746,2.020 21.000 C 2.020 21.256,2.036 21.328,2.131 21.489 C 2.256 21.702,2.449 21.864,2.670 21.943 C 2.893 22.023,21.107 22.023,21.330 21.943 C 21.551 21.864,21.744 21.702,21.869 21.489 C 21.964 21.328,21.980 21.256,21.980 21.000 C 21.980 20.746,21.963 20.672,21.872 20.516 C 21.740 20.293,21.533 20.128,21.290 20.055 C 21.027 19.976,2.947 19.978,2.695 20.057 " stroke="none" fill-rule="evenodd" fill="black"></path></svg>