<svg width="24" height="24" viewBox="0 0 24 24" fill="none" xmlns="http://www.w3.org/2000/svg"><path d="M11.695 2.057 C 11.466 2.129,11.256 2.299,11.128 2.516 L 11.020 2.700 11.020 12.003 L 11.020 21.306 11.141 21.503 C 11.543 22.156,12.457 22.156,12.859 21.503 L 12.980 21.306 12.980 12.003 L 12.980 2.700 12.872 2.516 C 12.628 2.101,12.150 1.915,11.695 2.057 M4.240 7.035 C 3.793 7.181,3.515 7.542,3.511 7.980 C 3.508 8.397,3.512 8.403,4.854 9.750 L 6.098 11.000 3.996 11.000 C 1.713 11.000,1.667 11.004,1.382 11.221 C 1.302 11.282,1.187 11.415,1.128 11.516 C 1.037 11.672,1.020 11.746,1.020 12.000 C 1.020 12.256,1.036 12.328,1.131 12.489 C 1.256 12.702,1.449 12.864,1.670 12.943 C 1.788 12.985,2.277 12.997,3.959 12.998 L 6.098 13.000 4.854 14.250 C 3.512 15.597,3.508 15.603,3.511 16.020 C 3.518 16.727,4.269 17.205,4.900 16.904 C 5.058 16.828,5.547 16.359,7.246 14.654 C 9.545 12.345,9.489 12.412,9.489 12.000 C 9.489 11.588,9.545 11.655,7.246 9.347 C 5.976 8.074,5.036 7.161,4.943 7.113 C 4.772 7.024,4.399 6.983,4.240 7.035 M19.240 7.035 C 19.185 7.053,19.086 7.096,19.020 7.131 C 18.954 7.166,17.934 8.163,16.754 9.347 C 14.455 11.655,14.511 11.588,14.511 12.000 C 14.511 12.412,14.455 12.345,16.754 14.654 C 19.072 16.981,19.093 16.999,19.500 16.999 C 19.874 16.999,20.277 16.730,20.421 16.383 C 20.500 16.194,20.509 15.870,20.441 15.656 C 20.401 15.533,20.128 15.236,19.146 14.250 L 17.902 13.000 20.041 12.998 C 21.723 12.997,22.212 12.985,22.330 12.943 C 22.551 12.864,22.744 12.702,22.869 12.489 C 22.964 12.328,22.980 12.256,22.980 12.000 C 22.980 11.746,22.963 11.672,22.872 11.516 C 22.813 11.415,22.698 11.282,22.618 11.221 C 22.333 11.004,22.287 11.000,20.004 11.000 L 17.902 11.000 19.146 9.750 C 20.488 8.403,20.492 8.397,20.489 7.980 C 20.485 7.610,20.282 7.287,19.943 7.112 C 19.771 7.024,19.399 6.983,19.240 7.035 " stroke="none" fill-rule="evenodd" fill="black"></path></svg>