<svg width="24" height="24" viewBox="0 0 24 24" fill="none" xmlns="http://www.w3.org/2000/svg"><path d="M3.695 5.057 C 3.466 5.129,3.256 5.299,3.128 5.516 C 3.037 5.672,3.020 5.746,3.020 6.000 C 3.020 6.256,3.036 6.328,3.131 6.489 C 3.256 6.702,3.449 6.864,3.670 6.943 C 3.893 7.023,21.107 7.023,21.330 6.943 C 21.551 6.864,21.744 6.702,21.869 6.489 C 21.964 6.328,21.980 6.256,21.980 6.000 C 21.980 5.746,21.963 5.672,21.872 5.516 C 21.740 5.293,21.533 5.128,21.290 5.055 C 21.027 4.976,3.947 4.978,3.695 5.057 M7.695 9.057 C 7.466 9.129,7.256 9.299,7.128 9.516 C 7.037 9.672,7.020 9.746,7.020 10.000 C 7.020 10.256,7.036 10.328,7.131 10.489 C 7.256 10.702,7.449 10.864,7.670 10.943 C 7.793 10.987,9.021 10.996,14.500 10.996 C 19.979 10.996,21.207 10.987,21.330 10.943 C 21.551 10.864,21.744 10.702,21.869 10.489 C 21.964 10.328,21.980 10.256,21.980 10.000 C 21.980 9.746,21.963 9.672,21.872 9.516 C 21.740 9.293,21.533 9.128,21.290 9.055 C 21.028 8.976,7.947 8.978,7.695 9.057 M3.695 13.057 C 3.466 13.129,3.256 13.299,3.128 13.516 C 3.037 13.672,3.020 13.746,3.020 14.000 C 3.020 14.256,3.036 14.328,3.131 14.489 C 3.256 14.702,3.449 14.864,3.670 14.943 C 3.893 15.023,21.107 15.023,21.330 14.943 C 21.551 14.864,21.744 14.702,21.869 14.489 C 21.964 14.328,21.980 14.256,21.980 14.000 C 21.980 13.746,21.963 13.672,21.872 13.516 C 21.740 13.293,21.533 13.128,21.290 13.055 C 21.027 12.976,3.947 12.978,3.695 13.057 M7.695 17.057 C 7.466 17.129,7.256 17.299,7.128 17.516 C 7.037 17.672,7.020 17.746,7.020 18.000 C 7.020 18.256,7.036 18.328,7.131 18.489 C 7.256 18.702,7.449 18.864,7.670 18.943 C 7.793 18.987,9.021 18.996,14.500 18.996 C 19.979 18.996,21.207 18.987,21.330 18.943 C 21.551 18.864,21.744 18.702,21.869 18.489 C 21.964 18.328,21.980 18.256,21.980 18.000 C 21.980 17.746,21.963 17.672,21.872 17.516 C 21.740 17.293,21.533 17.128,21.290 17.055 C 21.028 16.976,7.947 16.978,7.695 17.057 " stroke="none" fill-rule="evenodd" fill="black"></path></svg>