<svg width="24" height="24" viewBox="0 0 24 24" fill="none" xmlns="http://www.w3.org/2000/svg"><path d="M6.665 3.044 C 5.413 3.176,4.448 3.998,4.111 5.220 C 4.027 5.523,4.023 5.617,4.023 7.000 C 4.023 8.386,4.027 8.476,4.112 8.780 C 4.411 9.859,5.162 10.602,6.244 10.890 L 6.580 10.980 12.000 10.980 L 17.420 10.980 17.751 10.892 C 18.835 10.602,19.585 9.861,19.888 8.778 C 19.973 8.476,19.977 8.387,19.977 7.000 C 19.977 5.613,19.973 5.524,19.888 5.222 C 19.648 4.364,19.132 3.724,18.375 3.345 C 18.015 3.165,17.743 3.090,17.280 3.041 C 16.818 2.993,7.126 2.995,6.665 3.044 M17.440 5.114 C 17.680 5.239,17.768 5.325,17.883 5.551 C 17.980 5.739,17.980 5.746,17.980 7.000 L 17.980 8.260 17.881 8.454 C 17.772 8.667,17.615 8.818,17.400 8.916 C 17.274 8.974,16.735 8.980,12.000 8.980 C 7.265 8.980,6.726 8.974,6.600 8.916 C 6.383 8.817,6.215 8.656,6.117 8.454 C 6.034 8.282,6.026 8.201,6.010 7.305 C 5.988 6.112,6.028 5.662,6.175 5.440 C 6.335 5.199,6.556 5.071,6.873 5.038 C 7.020 5.022,9.417 5.012,12.200 5.015 L 17.260 5.020 17.440 5.114 M4.665 13.044 C 3.413 13.176,2.448 13.998,2.111 15.220 C 2.027 15.523,2.023 15.617,2.023 17.000 C 2.023 18.386,2.027 18.476,2.112 18.780 C 2.411 19.859,3.162 20.602,4.244 20.890 L 4.580 20.980 12.000 20.980 L 19.420 20.980 19.756 20.890 C 20.837 20.602,21.585 19.860,21.890 18.772 C 21.972 18.477,21.977 18.380,21.977 17.000 C 21.977 15.613,21.973 15.524,21.888 15.222 C 21.648 14.364,21.132 13.724,20.375 13.345 C 20.015 13.165,19.743 13.090,19.280 13.041 C 18.815 12.993,5.127 12.995,4.665 13.044 M19.449 15.117 C 19.675 15.232,19.761 15.320,19.886 15.560 C 19.979 15.738,19.980 15.756,19.980 17.000 L 19.980 18.260 19.881 18.454 C 19.772 18.667,19.615 18.818,19.400 18.916 C 19.273 18.974,18.567 18.980,12.000 18.980 C 5.433 18.980,4.727 18.974,4.600 18.916 C 4.383 18.817,4.215 18.656,4.117 18.454 C 4.034 18.282,4.026 18.201,4.010 17.305 C 3.988 16.112,4.028 15.662,4.175 15.440 C 4.335 15.199,4.556 15.071,4.873 15.038 C 5.020 15.023,8.317 15.012,12.200 15.015 L 19.260 15.020 19.449 15.117 " stroke="none" fill-rule="evenodd" fill="black"></path></svg>