<svg width="24" height="24" viewBox="0 0 24 24" fill="none" xmlns="http://www.w3.org/2000/svg"><path d="M2.695 2.057 C 2.466 2.129,2.256 2.299,2.128 2.516 C 2.037 2.672,2.020 2.746,2.020 3.000 C 2.020 3.256,2.036 3.328,2.131 3.489 C 2.256 3.702,2.449 3.864,2.670 3.943 C 2.893 4.023,21.107 4.023,21.330 3.943 C 21.551 3.864,21.744 3.702,21.869 3.489 C 21.964 3.328,21.980 3.256,21.980 3.000 C 21.980 2.746,21.963 2.672,21.872 2.516 C 21.740 2.293,21.533 2.128,21.290 2.055 C 21.027 1.976,2.947 1.978,2.695 2.057 M11.660 6.066 C 11.473 6.123,11.232 6.354,7.847 9.733 C 5.860 11.717,4.189 13.416,4.135 13.508 C 3.862 13.967,4.032 14.587,4.508 14.867 C 4.673 14.964,4.742 14.980,5.000 14.979 C 5.212 14.979,5.341 14.957,5.440 14.905 C 5.517 14.865,6.799 13.615,8.289 12.127 L 10.999 9.422 11.009 15.364 L 11.020 21.306 11.141 21.503 C 11.209 21.613,11.346 21.756,11.452 21.828 C 11.923 22.144,12.554 21.999,12.859 21.503 L 12.980 21.306 12.991 15.364 L 13.001 9.422 15.711 12.127 C 17.201 13.615,18.483 14.865,18.560 14.905 C 18.659 14.957,18.788 14.979,19.000 14.979 C 19.258 14.980,19.327 14.964,19.492 14.867 C 19.968 14.587,20.138 13.967,19.865 13.508 C 19.811 13.416,18.140 11.717,16.153 9.733 C 12.639 6.226,12.534 6.125,12.323 6.063 C 12.059 5.986,11.922 5.987,11.660 6.066 " stroke="none" fill-rule="evenodd" fill="black"></path></svg>