<svg width="24" height="24" viewBox="0 0 24 24" fill="none" xmlns="http://www.w3.org/2000/svg"><path d="M5.665 2.044 C 4.403 2.177,3.433 3.010,3.110 4.240 L 3.020 4.580 3.020 12.000 L 3.020 19.420 3.110 19.760 C 3.395 20.837,4.138 21.585,5.222 21.888 C 5.524 21.973,5.613 21.977,7.000 21.977 C 8.380 21.977,8.477 21.972,8.772 21.890 C 9.860 21.585,10.602 20.837,10.890 19.756 L 10.980 19.420 10.980 12.000 L 10.980 4.580 10.890 4.244 C 10.658 3.373,10.144 2.730,9.371 2.343 C 9.015 2.165,8.742 2.089,8.280 2.041 C 7.833 1.994,6.117 1.996,5.665 2.044 M8.451 4.120 C 8.674 4.231,8.761 4.319,8.886 4.560 L 8.980 4.740 8.980 12.000 L 8.980 19.260 8.881 19.454 C 8.772 19.667,8.615 19.818,8.400 19.916 C 8.281 19.970,8.069 19.980,7.000 19.980 C 5.762 19.980,5.737 19.978,5.551 19.887 C 5.344 19.785,5.183 19.617,5.084 19.400 C 5.026 19.274,5.019 18.576,5.009 12.290 C 5.002 8.339,5.013 5.164,5.034 4.959 C 5.076 4.543,5.176 4.350,5.443 4.173 C 5.664 4.027,5.920 4.004,7.201 4.016 C 8.225 4.025,8.269 4.029,8.451 4.120 M15.665 4.044 C 14.403 4.177,13.433 5.010,13.110 6.240 L 13.020 6.580 13.020 12.000 L 13.020 17.420 13.110 17.760 C 13.395 18.834,14.146 19.592,15.220 19.889 C 15.523 19.973,15.617 19.977,17.000 19.977 C 18.380 19.977,18.477 19.972,18.772 19.890 C 19.860 19.585,20.602 18.837,20.890 17.756 L 20.980 17.420 20.980 12.000 L 20.980 6.580 20.890 6.244 C 20.660 5.378,20.141 4.729,19.375 4.345 C 19.015 4.165,18.743 4.090,18.280 4.041 C 17.833 3.994,16.117 3.996,15.665 4.044 M18.451 6.120 C 18.674 6.231,18.761 6.319,18.886 6.560 L 18.980 6.740 18.980 12.000 L 18.980 17.260 18.881 17.454 C 18.772 17.667,18.615 17.818,18.400 17.916 C 18.281 17.970,18.069 17.980,17.000 17.980 C 15.762 17.980,15.737 17.978,15.551 17.887 C 15.344 17.785,15.183 17.617,15.084 17.400 C 15.027 17.275,15.019 16.743,15.008 12.294 C 15.002 9.490,15.013 7.169,15.033 6.964 C 15.076 6.542,15.175 6.351,15.443 6.173 C 15.664 6.027,15.920 6.004,17.201 6.016 C 18.225 6.025,18.269 6.029,18.451 6.120 " stroke="none" fill-rule="evenodd" fill="black"></path></svg>