<svg width="24" height="24" viewBox="0 0 24 24" fill="none" xmlns="http://www.w3.org/2000/svg"><path d="M20.695 2.057 C 20.466 2.129,20.256 2.299,20.128 2.516 L 20.020 2.700 20.020 12.003 L 20.020 21.306 20.141 21.503 C 20.543 22.156,21.457 22.156,21.859 21.503 L 21.980 21.306 21.980 12.003 L 21.980 2.700 21.872 2.516 C 21.628 2.101,21.150 1.915,20.695 2.057 M9.670 4.061 C 9.448 4.142,9.250 4.309,9.128 4.516 C 9.036 4.672,9.020 4.745,9.021 5.000 C 9.021 5.212,9.043 5.341,9.095 5.440 C 9.135 5.517,10.386 6.800,11.874 8.290 L 14.579 11.000 8.736 11.000 C 3.901 11.000,2.861 11.009,2.710 11.055 C 2.467 11.128,2.260 11.293,2.128 11.516 C 2.037 11.672,2.020 11.746,2.020 12.000 C 2.020 12.256,2.036 12.328,2.131 12.489 C 2.256 12.702,2.449 12.864,2.670 12.943 C 2.793 12.987,3.892 12.997,8.700 12.998 L 14.579 13.000 11.874 15.710 C 10.386 17.201,9.135 18.483,9.095 18.560 C 9.043 18.659,9.021 18.788,9.021 19.000 C 9.020 19.258,9.036 19.327,9.133 19.492 C 9.263 19.714,9.502 19.901,9.736 19.965 C 9.938 20.019,10.266 19.989,10.445 19.899 C 10.630 19.807,17.737 12.707,17.873 12.480 C 17.964 12.328,17.980 12.254,17.980 12.000 C 17.980 11.746,17.964 11.672,17.873 11.520 C 17.811 11.417,16.229 9.807,14.153 7.735 C 10.851 4.441,10.523 4.125,10.343 4.065 C 10.107 3.987,9.874 3.986,9.670 4.061 " stroke="none" fill-rule="evenodd" fill="black"></path></svg>