<svg width="24" height="24" viewBox="0 0 24 24" fill="none" xmlns="http://www.w3.org/2000/svg"><path d="M2.695 2.057 C 2.466 2.129,2.256 2.299,2.128 2.516 L 2.020 2.700 2.020 12.003 L 2.020 21.306 2.141 21.503 C 2.543 22.156,3.457 22.156,3.859 21.503 L 3.980 21.306 3.980 12.003 L 3.980 2.700 3.872 2.516 C 3.628 2.101,3.150 1.915,2.695 2.057 M13.640 4.068 C 13.484 4.121,12.978 4.610,9.847 7.735 C 7.771 9.806,6.189 11.417,6.127 11.520 C 6.036 11.672,6.020 11.746,6.020 12.000 C 6.020 12.254,6.036 12.328,6.127 12.480 C 6.263 12.707,13.370 19.807,13.555 19.899 C 14.010 20.128,14.601 19.944,14.867 19.492 C 14.964 19.327,14.980 19.258,14.979 19.000 C 14.979 18.788,14.957 18.659,14.905 18.560 C 14.865 18.483,13.614 17.201,12.126 15.710 L 9.421 13.000 15.300 12.998 C 20.108 12.997,21.207 12.987,21.330 12.943 C 21.551 12.864,21.744 12.702,21.869 12.489 C 21.964 12.328,21.980 12.256,21.980 12.000 C 21.980 11.746,21.963 11.672,21.872 11.516 C 21.740 11.293,21.533 11.128,21.290 11.055 C 21.139 11.009,20.099 11.000,15.264 11.000 L 9.421 11.000 12.126 8.290 C 13.614 6.800,14.865 5.517,14.905 5.440 C 14.957 5.341,14.979 5.212,14.979 5.000 C 14.980 4.745,14.964 4.672,14.872 4.516 C 14.617 4.083,14.122 3.903,13.640 4.068 " stroke="none" fill-rule="evenodd" fill="black"></path></svg>