<svg width="24" height="24" viewBox="0 0 24 24" fill="none" xmlns="http://www.w3.org/2000/svg"><path d="M11.695 1.057 C 11.466 1.129,11.256 1.299,11.128 1.516 L 11.020 1.700 11.000 3.890 L 10.980 6.081 9.780 4.876 C 9.002 4.096,8.524 3.645,8.420 3.597 C 8.221 3.503,7.815 3.496,7.609 3.582 C 7.109 3.791,6.865 4.416,7.096 4.900 C 7.236 5.193,11.428 9.368,11.655 9.440 C 11.852 9.503,12.148 9.503,12.345 9.440 C 12.572 9.368,16.764 5.193,16.904 4.900 C 17.135 4.416,16.891 3.791,16.391 3.582 C 16.185 3.496,15.779 3.503,15.580 3.597 C 15.476 3.645,14.998 4.096,14.220 4.876 L 13.020 6.081 13.000 3.890 L 12.980 1.700 12.872 1.516 C 12.628 1.101,12.150 0.915,11.695 1.057 M2.695 11.057 C 2.466 11.129,2.256 11.299,2.128 11.516 C 2.037 11.672,2.020 11.746,2.020 12.000 C 2.020 12.256,2.036 12.328,2.131 12.489 C 2.256 12.702,2.449 12.864,2.670 12.943 C 2.893 13.023,21.107 13.023,21.330 12.943 C 21.551 12.864,21.744 12.702,21.869 12.489 C 21.964 12.328,21.980 12.256,21.980 12.000 C 21.980 11.746,21.963 11.672,21.872 11.516 C 21.740 11.293,21.533 11.128,21.290 11.055 C 21.027 10.976,2.947 10.978,2.695 11.057 M11.600 14.583 C 11.511 14.621,10.679 15.422,9.326 16.771 C 7.022 19.070,7.001 19.094,7.001 19.500 C 7.001 19.874,7.270 20.277,7.617 20.421 C 7.806 20.500,8.130 20.509,8.344 20.441 C 8.467 20.401,8.764 20.128,9.749 19.148 L 10.997 17.904 11.009 20.105 L 11.020 22.306 11.141 22.503 C 11.543 23.156,12.457 23.156,12.859 22.503 L 12.980 22.306 12.991 20.105 L 13.003 17.904 14.251 19.148 C 15.597 20.487,15.604 20.492,16.020 20.489 C 16.727 20.482,17.205 19.731,16.904 19.100 C 16.828 18.942,16.359 18.452,14.674 16.771 C 13.201 15.302,12.494 14.624,12.391 14.581 C 12.203 14.504,11.783 14.505,11.600 14.583 " stroke="none" fill-rule="evenodd" fill="black"></path></svg>