<svg width="24" height="24" viewBox="0 0 24 24" fill="none" xmlns="http://www.w3.org/2000/svg"><path d="M2.695 5.057 C 2.466 5.129,2.256 5.299,2.128 5.516 C 2.037 5.672,2.020 5.746,2.020 6.000 C 2.020 6.256,2.036 6.328,2.131 6.489 C 2.256 6.702,2.449 6.864,2.670 6.943 C 2.893 7.023,21.107 7.023,21.330 6.943 C 21.551 6.864,21.744 6.702,21.869 6.489 C 21.964 6.328,21.980 6.256,21.980 6.000 C 21.980 5.746,21.963 5.672,21.872 5.516 C 21.740 5.293,21.533 5.128,21.290 5.055 C 21.027 4.976,2.947 4.978,2.695 5.057 M5.695 9.057 C 5.466 9.129,5.256 9.299,5.128 9.516 C 5.037 9.672,5.020 9.746,5.020 10.000 C 5.020 10.256,5.036 10.328,5.131 10.489 C 5.256 10.702,5.449 10.864,5.670 10.943 C 5.793 10.987,6.938 10.996,12.000 10.996 C 17.062 10.996,18.207 10.987,18.330 10.943 C 18.551 10.864,18.744 10.702,18.869 10.489 C 18.964 10.328,18.980 10.256,18.980 10.000 C 18.980 9.746,18.963 9.672,18.872 9.516 C 18.740 9.293,18.533 9.128,18.290 9.055 C 18.028 8.976,5.947 8.978,5.695 9.057 M2.695 13.057 C 2.466 13.129,2.256 13.299,2.128 13.516 C 2.037 13.672,2.020 13.746,2.020 14.000 C 2.020 14.256,2.036 14.328,2.131 14.489 C 2.256 14.702,2.449 14.864,2.670 14.943 C 2.893 15.023,21.107 15.023,21.330 14.943 C 21.551 14.864,21.744 14.702,21.869 14.489 C 21.964 14.328,21.980 14.256,21.980 14.000 C 21.980 13.746,21.963 13.672,21.872 13.516 C 21.740 13.293,21.533 13.128,21.290 13.055 C 21.027 12.976,2.947 12.978,2.695 13.057 M5.695 17.057 C 5.466 17.129,5.256 17.299,5.128 17.516 C 5.037 17.672,5.020 17.746,5.020 18.000 C 5.020 18.256,5.036 18.328,5.131 18.489 C 5.256 18.702,5.449 18.864,5.670 18.943 C 5.793 18.987,6.938 18.996,12.000 18.996 C 17.062 18.996,18.207 18.987,18.330 18.943 C 18.551 18.864,18.744 18.702,18.869 18.489 C 18.964 18.328,18.980 18.256,18.980 18.000 C 18.980 17.746,18.963 17.672,18.872 17.516 C 18.740 17.293,18.533 17.128,18.290 17.055 C 18.028 16.976,5.947 16.978,5.695 17.057 " stroke="none" fill-rule="evenodd" fill="black"></path></svg>