<svg width="24" height="24" viewBox="0 0 24 24" fill="none" xmlns="http://www.w3.org/2000/svg"><path d="M11.358 1.061 C 9.731 1.315,8.417 2.584,8.083 4.227 C 7.700 6.105,8.756 8.031,10.540 8.711 C 10.716 8.778,10.892 8.843,10.930 8.855 C 10.996 8.876,11.000 9.200,11.000 14.912 L 11.000 20.947 10.750 20.914 C 9.235 20.713,7.577 19.993,6.347 19.001 C 4.683 17.659,3.512 15.672,3.140 13.559 C 3.107 13.373,3.080 13.171,3.080 13.110 L 3.080 13.000 4.130 12.998 C 5.259 12.996,5.359 12.982,5.619 12.783 C 5.696 12.725,5.808 12.592,5.869 12.489 C 5.964 12.328,5.980 12.256,5.980 12.000 C 5.980 11.746,5.963 11.672,5.872 11.516 C 5.740 11.293,5.533 11.128,5.290 11.055 C 5.026 10.975,1.974 10.975,1.710 11.055 C 1.467 11.128,1.260 11.293,1.128 11.516 C 1.022 11.697,1.020 11.710,1.025 12.360 C 1.043 14.509,1.838 16.772,3.230 18.637 C 3.684 19.246,4.754 20.316,5.363 20.770 C 6.866 21.892,8.548 22.596,10.420 22.888 C 11.229 23.014,12.771 23.014,13.580 22.888 C 15.452 22.596,17.134 21.892,18.637 20.770 C 19.246 20.316,20.316 19.246,20.770 18.637 C 22.162 16.772,22.957 14.509,22.975 12.360 C 22.980 11.710,22.978 11.697,22.872 11.516 C 22.740 11.293,22.533 11.128,22.290 11.055 C 22.026 10.975,18.974 10.975,18.710 11.055 C 18.467 11.128,18.260 11.293,18.128 11.516 C 18.037 11.672,18.020 11.746,18.020 12.000 C 18.020 12.256,18.036 12.328,18.131 12.489 C 18.192 12.592,18.304 12.725,18.381 12.783 C 18.641 12.982,18.741 12.996,19.870 12.998 L 20.920 13.000 20.920 13.110 C 20.920 13.443,20.674 14.482,20.454 15.080 C 19.784 16.900,18.551 18.452,16.920 19.531 C 15.890 20.213,14.453 20.754,13.250 20.914 L 13.000 20.947 13.000 14.912 C 13.000 9.200,13.004 8.876,13.070 8.855 C 14.342 8.450,15.237 7.646,15.704 6.488 C 16.090 5.530,16.090 4.469,15.705 3.516 C 15.172 2.197,14.001 1.269,12.605 1.058 C 12.144 0.989,11.816 0.990,11.358 1.061 M12.523 3.073 C 13.262 3.266,13.850 3.924,13.967 4.690 C 14.029 5.098,13.967 5.522,13.793 5.880 C 13.638 6.198,13.227 6.625,12.930 6.775 C 12.492 6.997,11.962 7.059,11.508 6.940 C 10.823 6.762,10.249 6.194,10.073 5.523 C 9.683 4.028,11.028 2.683,12.523 3.073 " stroke="none" fill-rule="evenodd" fill="black"></path></svg>