<svg width="24" height="24" viewBox="0 0 24 24" fill="none" xmlns="http://www.w3.org/2000/svg"><path d="M18.120 2.024 C 18.065 2.034,17.867 2.078,17.680 2.121 C 17.493 2.165,14.460 2.722,10.940 3.361 C 7.420 3.999,4.326 4.574,4.063 4.639 C 3.801 4.704,3.454 4.820,3.292 4.898 C 2.187 5.422,1.370 6.446,1.086 7.659 C 0.990 8.072,0.990 10.924,1.087 11.341 C 1.408 12.728,2.430 13.860,3.741 14.280 L 4.021 14.370 4.231 17.295 C 4.351 18.970,4.466 20.327,4.500 20.471 C 4.584 20.825,4.734 21.099,4.994 21.371 C 5.279 21.670,5.613 21.856,6.008 21.937 C 6.445 22.026,9.400 22.028,9.820 21.940 C 10.571 21.781,11.155 21.240,11.337 20.534 C 11.428 20.180,11.415 19.748,11.246 17.590 C 11.164 16.540,11.108 15.680,11.120 15.680 C 11.167 15.680,17.673 16.880,17.960 16.942 C 18.312 17.018,18.886 17.000,19.260 16.902 C 20.763 16.508,22.071 14.794,22.640 12.470 C 23.121 10.511,23.121 8.489,22.640 6.530 C 22.069 4.200,20.774 2.503,19.260 2.102 C 19.019 2.038,18.307 1.989,18.120 2.024 M19.014 4.152 C 19.726 4.539,20.419 5.754,20.737 7.172 C 20.924 8.003,20.975 8.503,20.975 9.500 C 20.975 10.497,20.924 10.997,20.737 11.828 C 20.416 13.261,19.729 14.458,18.997 14.859 C 18.620 15.065,18.176 15.007,17.764 14.697 C 17.146 14.232,16.544 13.081,16.263 11.828 C 16.076 10.997,16.025 10.497,16.025 9.500 C 16.025 8.503,16.076 8.003,16.263 7.172 C 16.544 5.918,17.146 4.768,17.765 4.302 C 17.899 4.202,18.047 4.110,18.094 4.099 C 18.141 4.089,18.252 4.063,18.340 4.042 C 18.564 3.990,18.782 4.025,19.014 4.152 M14.862 5.019 C 14.057 6.893,13.798 9.297,14.164 11.510 C 14.319 12.450,14.592 13.400,14.901 14.070 C 15.030 14.349,15.032 14.359,14.947 14.340 C 14.899 14.329,12.673 13.923,10.000 13.439 C 7.327 12.954,4.942 12.513,4.701 12.459 C 4.459 12.405,4.163 12.311,4.042 12.250 C 3.711 12.084,3.387 11.744,3.216 11.386 C 3.041 11.016,3.003 10.680,3.003 9.500 C 3.003 8.321,3.041 7.983,3.216 7.615 C 3.463 7.094,3.922 6.736,4.540 6.580 C 4.852 6.502,14.972 4.648,14.995 4.665 C 15.002 4.671,14.943 4.830,14.862 5.019 M7.631 15.042 C 8.914 15.274,9.044 15.304,9.059 15.379 C 9.078 15.470,9.401 19.768,9.401 19.910 L 9.400 20.000 7.924 20.000 L 6.448 20.000 6.423 19.770 C 6.387 19.429,6.080 15.081,6.080 14.903 C 6.080 14.778,6.092 14.754,6.150 14.769 C 6.189 14.779,6.855 14.902,7.631 15.042 " stroke="none" fill-rule="evenodd" fill="black"></path></svg>