<svg width="24" height="24" viewBox="0 0 24 24" fill="none" xmlns="http://www.w3.org/2000/svg"><path d="M5.920 2.041 C 4.939 2.106,4.360 2.287,3.700 2.733 C 3.031 3.185,2.467 3.940,2.245 4.680 C 2.003 5.487,1.992 5.763,2.010 10.940 C 2.024 15.376,2.027 15.510,2.107 15.861 C 2.386 17.078,3.127 18.030,4.217 18.571 C 4.895 18.908,5.244 18.963,6.900 18.995 C 8.400 19.024,8.421 19.027,8.690 19.296 C 8.758 19.364,9.267 20.023,9.820 20.760 C 10.373 21.497,10.920 22.185,11.035 22.288 C 11.587 22.784,12.413 22.784,12.965 22.288 C 13.080 22.185,13.627 21.497,14.180 20.760 C 14.733 20.023,15.242 19.364,15.310 19.296 C 15.579 19.027,15.600 19.024,17.100 18.995 C 18.507 18.968,18.834 18.934,19.329 18.764 C 20.537 18.348,21.526 17.286,21.837 16.072 C 21.987 15.486,22.000 15.038,22.000 10.583 C 22.000 5.746,21.988 5.452,21.755 4.680 C 21.424 3.581,20.465 2.622,19.320 2.246 C 18.644 2.024,18.800 2.029,12.340 2.019 C 9.062 2.014,6.173 2.024,5.920 2.041 M18.492 4.091 C 18.894 4.188,19.109 4.309,19.400 4.600 C 19.696 4.896,19.814 5.109,19.912 5.528 C 19.974 5.794,19.980 6.231,19.980 10.520 C 19.980 14.051,19.968 15.277,19.931 15.449 C 19.786 16.135,19.241 16.721,18.580 16.902 C 18.392 16.954,18.034 16.975,16.920 17.001 C 15.433 17.035,15.281 17.052,14.820 17.245 C 14.494 17.382,14.102 17.665,13.827 17.961 C 13.686 18.114,13.221 18.706,12.795 19.278 C 12.369 19.849,12.011 20.317,12.000 20.317 C 11.989 20.317,11.631 19.849,11.205 19.278 C 10.779 18.706,10.314 18.114,10.173 17.961 C 9.898 17.665,9.506 17.382,9.180 17.245 C 8.719 17.052,8.567 17.035,7.080 17.001 C 5.517 16.965,5.357 16.943,4.966 16.708 C 4.693 16.545,4.357 16.184,4.224 15.912 C 4.017 15.488,4.020 15.560,4.020 10.520 C 4.020 6.231,4.026 5.794,4.088 5.528 C 4.175 5.155,4.294 4.918,4.520 4.667 C 4.883 4.262,5.282 4.091,5.980 4.039 C 6.200 4.023,9.044 4.013,12.300 4.018 C 17.643 4.024,18.247 4.032,18.492 4.091 M9.455 6.599 C 8.895 6.746,8.363 7.077,7.894 7.570 C 7.260 8.238,6.958 9.071,7.013 10.000 C 7.050 10.635,7.242 11.171,7.629 11.716 C 7.870 12.058,9.062 13.246,9.990 14.072 C 10.956 14.930,11.198 15.080,11.742 15.157 C 12.387 15.249,12.907 15.040,13.640 14.395 C 15.074 13.134,16.123 12.085,16.461 11.575 C 17.037 10.708,17.153 9.636,16.782 8.614 C 16.634 8.207,16.445 7.927,16.040 7.516 C 15.609 7.079,15.213 6.823,14.700 6.650 C 14.410 6.553,14.323 6.543,13.780 6.542 C 13.095 6.540,12.755 6.613,12.276 6.865 L 12.008 7.006 11.674 6.845 C 11.490 6.756,11.187 6.647,11.000 6.602 C 10.551 6.494,9.859 6.493,9.455 6.599 M10.690 8.600 C 10.829 8.652,11.012 8.777,11.216 8.959 C 11.550 9.258,11.690 9.320,12.020 9.319 C 12.288 9.318,12.528 9.202,12.800 8.943 C 13.096 8.661,13.316 8.553,13.640 8.530 C 13.986 8.505,14.186 8.565,14.471 8.779 C 14.644 8.909,14.744 9.025,14.843 9.209 C 14.965 9.435,14.978 9.492,14.977 9.780 C 14.976 10.292,14.884 10.442,14.063 11.264 C 13.435 11.894,12.056 13.160,11.999 13.160 C 11.939 13.160,10.672 11.998,9.996 11.323 C 9.105 10.433,9.019 10.296,9.022 9.780 C 9.024 9.512,9.042 9.425,9.134 9.249 C 9.450 8.636,10.082 8.372,10.690 8.600 " stroke="none" fill-rule="evenodd" fill="black"></path></svg>