<svg width="24" height="24" viewBox="0 0 24 24" fill="none" xmlns="http://www.w3.org/2000/svg"><path d="M17.253 1.924 C 16.918 1.980,16.548 2.137,15.720 2.577 C 13.512 3.750,12.364 4.205,11.000 4.445 C 10.836 4.474,9.801 4.502,8.200 4.520 C 5.489 4.550,5.464 4.552,4.820 4.767 C 2.891 5.409,1.493 6.993,1.093 8.986 C 0.995 9.475,0.995 10.525,1.093 11.014 C 1.314 12.115,1.806 13.040,2.612 13.868 L 3.048 14.315 3.878 17.628 C 4.334 19.449,4.749 21.039,4.800 21.160 C 5.087 21.838,5.699 22.462,6.344 22.733 C 6.874 22.956,7.012 22.980,7.780 22.980 C 8.604 22.980,8.814 22.939,9.340 22.679 C 9.900 22.401,10.402 21.899,10.679 21.340 C 10.987 20.717,10.976 20.835,10.990 18.051 L 11.003 15.563 11.132 15.585 C 11.803 15.702,12.617 15.955,13.441 16.302 C 14.066 16.565,14.381 16.720,15.613 17.370 C 16.936 18.068,17.401 18.205,17.960 18.064 C 18.352 17.965,18.626 17.814,18.884 17.556 C 19.134 17.306,19.272 17.072,19.377 16.720 C 19.451 16.473,19.518 15.588,19.519 14.850 C 19.520 14.430,19.529 14.360,19.583 14.360 C 19.703 14.360,20.260 14.151,20.580 13.986 C 22.273 13.113,23.247 11.180,22.941 9.300 C 22.682 7.707,21.604 6.380,20.101 5.803 C 19.926 5.735,19.724 5.669,19.651 5.656 L 19.520 5.631 19.519 5.146 C 19.518 4.411,19.450 3.527,19.377 3.280 C 19.214 2.735,18.873 2.327,18.385 2.096 C 17.960 1.895,17.682 1.852,17.253 1.924 M17.480 10.023 L 17.480 16.086 16.930 15.796 C 15.752 15.176,14.678 14.646,14.180 14.442 C 13.136 14.012,12.089 13.700,11.333 13.595 L 11.000 13.548 11.000 10.002 L 11.000 6.456 11.330 6.408 C 12.729 6.206,14.381 5.566,16.660 4.346 C 17.056 4.134,17.402 3.960,17.430 3.960 C 17.470 3.960,17.480 5.199,17.480 10.023 M9.000 10.020 L 9.000 13.520 7.784 13.520 C 6.345 13.520,5.874 13.480,5.380 13.316 C 4.299 12.956,3.413 12.011,3.113 10.900 C 2.989 10.440,2.990 9.556,3.115 9.100 C 3.415 7.997,4.260 7.082,5.335 6.693 C 5.738 6.548,5.999 6.528,7.510 6.524 L 9.000 6.520 9.000 10.020 M20.260 8.255 C 20.794 8.797,20.977 9.243,20.977 10.000 C 20.977 10.719,20.804 11.170,20.333 11.679 C 20.106 11.924,19.754 12.199,19.583 12.264 C 19.526 12.286,19.520 12.069,19.520 10.004 L 19.520 7.719 19.730 7.824 C 19.854 7.887,20.072 8.064,20.260 8.255 M6.133 15.482 C 6.379 15.502,7.125 15.519,7.790 15.519 L 9.000 15.520 9.000 17.813 C 9.000 20.417,9.003 20.386,8.707 20.691 C 8.480 20.924,8.252 21.000,7.780 21.000 C 7.202 21.000,6.860 20.835,6.686 20.470 C 6.616 20.325,5.400 15.564,5.400 15.436 C 5.400 15.406,5.448 15.400,5.543 15.418 C 5.621 15.433,5.887 15.461,6.133 15.482 " stroke="none" fill-rule="evenodd" fill="black"></path></svg>