<svg width="24" height="24" viewBox="0 0 24 24" fill="none" xmlns="http://www.w3.org/2000/svg"><path d="M17.253 1.924 C 16.918 1.980,16.548 2.137,15.720 2.577 C 13.512 3.750,12.372 4.202,11.000 4.446 C 10.829 4.476,9.683 4.502,7.640 4.521 C 4.394 4.551,4.332 4.555,3.697 4.739 C 2.756 5.013,1.822 5.843,1.394 6.787 C 1.049 7.548,0.987 8.216,1.009 10.960 C 1.024 12.879,1.029 12.996,1.111 13.291 C 1.357 14.179,2.040 14.952,2.864 15.274 C 3.117 15.373,3.622 15.480,3.836 15.480 L 3.996 15.480 4.010 17.510 C 4.025 19.777,4.019 19.725,4.320 20.340 C 4.590 20.891,5.099 21.401,5.660 21.679 C 6.195 21.944,6.390 21.980,7.280 21.979 C 8.049 21.978,8.065 21.976,8.422 21.852 C 8.929 21.677,9.249 21.476,9.620 21.102 C 10.135 20.583,10.393 20.039,10.479 19.289 C 10.501 19.097,10.519 18.171,10.520 17.230 L 10.520 15.520 10.633 15.520 C 10.843 15.520,11.627 15.678,12.107 15.818 C 13.041 16.089,13.918 16.475,15.536 17.329 C 16.946 18.072,17.393 18.208,17.960 18.064 C 18.352 17.965,18.626 17.814,18.884 17.556 C 19.291 17.149,19.424 16.784,19.480 15.920 C 19.530 15.164,19.530 4.836,19.480 4.080 C 19.424 3.221,19.291 2.853,18.894 2.456 C 18.642 2.203,18.232 1.986,17.885 1.921 C 17.640 1.875,17.546 1.875,17.253 1.924 M17.480 10.023 L 17.480 16.086 16.930 15.796 C 14.586 14.561,13.447 14.076,12.155 13.760 C 11.410 13.579,10.892 13.520,10.026 13.520 C 9.274 13.520,9.251 13.523,9.044 13.625 C 8.777 13.758,8.584 14.014,8.524 14.315 C 8.495 14.459,8.480 15.340,8.480 16.894 C 8.480 19.205,8.478 19.258,8.397 19.427 C 8.285 19.657,8.003 19.900,7.782 19.955 C 7.511 20.024,6.888 20.012,6.660 19.934 C 6.543 19.894,6.397 19.799,6.295 19.697 C 5.996 19.399,6.000 19.435,6.000 16.703 L 5.999 14.300 5.905 14.100 C 5.794 13.867,5.598 13.668,5.400 13.587 C 5.308 13.549,5.015 13.520,4.540 13.502 C 4.144 13.487,3.751 13.457,3.666 13.435 C 3.457 13.381,3.181 13.117,3.092 12.887 C 3.026 12.715,3.020 12.527,3.020 10.560 C 3.021 7.920,3.039 7.780,3.442 7.257 C 3.604 7.048,3.975 6.758,4.185 6.678 C 4.493 6.560,4.763 6.549,7.780 6.521 C 10.733 6.495,10.925 6.489,11.370 6.407 C 12.976 6.113,14.386 5.564,16.660 4.346 C 17.056 4.134,17.402 3.960,17.430 3.960 C 17.470 3.960,17.480 5.199,17.480 10.023 M21.670 7.061 C 21.448 7.142,21.250 7.309,21.128 7.516 L 21.020 7.700 21.020 10.003 L 21.020 12.306 21.141 12.503 C 21.543 13.156,22.457 13.156,22.859 12.503 L 22.980 12.306 22.980 10.003 L 22.980 7.700 22.872 7.516 C 22.624 7.094,22.110 6.899,21.670 7.061 " stroke="none" fill-rule="evenodd" fill="black"></path></svg>