<svg width="24" height="24" viewBox="0 0 24 24" fill="none" xmlns="http://www.w3.org/2000/svg"><path d="M11.280 1.023 C 11.203 1.032,10.951 1.059,10.720 1.083 C 9.527 1.210,8.337 1.558,7.180 2.120 C 6.045 2.671,5.193 3.285,4.238 4.239 C 3.277 5.198,2.643 6.080,2.097 7.220 C 0.301 10.968,0.728 15.286,3.226 18.633 C 3.701 19.269,4.753 20.316,5.400 20.797 C 9.364 23.745,14.666 23.734,18.637 20.770 C 19.246 20.316,20.316 19.246,20.770 18.637 C 23.744 14.652,23.744 9.348,20.770 5.363 C 20.316 4.755,19.247 3.686,18.640 3.235 C 17.045 2.049,15.365 1.360,13.423 1.096 C 13.000 1.038,11.574 0.990,11.280 1.023 M13.320 3.101 C 15.883 3.488,18.124 4.931,19.560 7.120 C 19.863 7.583,20.303 8.479,20.492 9.020 C 20.838 10.013,20.977 10.865,20.977 12.000 C 20.977 13.493,20.720 14.621,20.080 15.940 C 19.375 17.394,18.311 18.607,16.927 19.532 C 16.138 20.060,14.876 20.588,13.908 20.797 C 11.266 21.366,8.479 20.708,6.370 19.019 C 4.857 17.807,3.722 16.029,3.267 14.160 C 3.081 13.397,3.023 12.888,3.023 12.000 C 3.023 10.507,3.280 9.379,3.920 8.060 C 4.971 5.891,6.877 4.221,9.160 3.466 C 9.865 3.233,10.432 3.118,11.340 3.024 C 11.662 2.991,12.911 3.039,13.320 3.101 M8.670 8.061 C 8.448 8.142,8.250 8.309,8.128 8.516 C 8.036 8.672,8.020 8.745,8.021 9.000 C 8.021 9.212,8.043 9.341,8.095 9.440 C 8.135 9.517,9.161 10.575,10.374 11.790 L 12.579 14.000 10.736 14.000 C 8.735 14.000,8.663 14.007,8.382 14.221 C 8.302 14.282,8.187 14.415,8.128 14.516 C 8.037 14.672,8.020 14.746,8.020 15.000 C 8.020 15.256,8.036 15.328,8.131 15.489 C 8.256 15.702,8.449 15.864,8.670 15.943 C 8.891 16.022,15.109 16.022,15.330 15.943 C 15.551 15.864,15.744 15.702,15.869 15.489 L 15.980 15.300 15.980 12.000 L 15.980 8.700 15.871 8.514 C 15.648 8.134,15.208 7.941,14.786 8.035 C 14.515 8.096,14.270 8.275,14.129 8.514 L 14.020 8.700 14.009 10.637 L 13.997 12.575 11.769 10.353 C 9.755 8.346,9.521 8.124,9.343 8.065 C 9.107 7.987,8.874 7.986,8.670 8.061 " stroke="none" fill-rule="evenodd" fill="black"></path></svg>