<svg width="24" height="24" viewBox="0 0 24 24" fill="none" xmlns="http://www.w3.org/2000/svg"><path d="M5.920 2.041 C 5.151 2.092,4.672 2.205,4.180 2.451 C 3.089 2.996,2.357 3.961,2.124 5.160 C 2.013 5.729,2.000 6.455,2.000 12.000 C 2.000 18.358,2.006 18.526,2.245 19.320 C 2.577 20.422,3.578 21.423,4.680 21.755 C 5.474 21.994,5.642 22.000,12.000 22.000 C 18.358 22.000,18.526 21.994,19.320 21.755 C 20.422 21.423,21.423 20.422,21.755 19.320 C 21.994 18.526,22.000 18.358,22.000 12.000 C 22.000 5.642,21.994 5.474,21.755 4.680 C 21.424 3.581,20.465 2.622,19.320 2.246 C 18.644 2.024,18.800 2.029,12.340 2.019 C 9.062 2.014,6.173 2.024,5.920 2.041 M18.492 4.091 C 18.894 4.188,19.109 4.309,19.400 4.600 C 19.696 4.895,19.814 5.109,19.912 5.528 C 19.975 5.797,19.980 6.313,19.980 12.000 C 19.980 17.687,19.975 18.203,19.912 18.472 C 19.814 18.891,19.696 19.104,19.400 19.401 C 19.101 19.701,18.820 19.851,18.418 19.928 C 18.010 20.005,5.990 20.005,5.582 19.927 C 5.170 19.850,4.898 19.704,4.600 19.403 C 4.303 19.104,4.186 18.890,4.088 18.472 C 4.025 18.203,4.020 17.687,4.020 12.000 C 4.020 6.313,4.025 5.797,4.088 5.528 C 4.175 5.155,4.294 4.918,4.520 4.667 C 4.883 4.262,5.282 4.091,5.980 4.039 C 6.200 4.023,9.044 4.013,12.300 4.018 C 17.643 4.024,18.247 4.032,18.492 4.091 M11.640 7.068 C 11.486 7.121,11.151 7.438,9.347 9.235 C 8.185 10.393,7.189 11.416,7.134 11.508 C 6.862 11.968,7.032 12.587,7.508 12.867 C 7.673 12.964,7.742 12.980,8.000 12.979 C 8.213 12.979,8.341 12.957,8.440 12.905 C 8.517 12.864,9.124 12.290,9.789 11.628 L 10.998 10.424 11.009 13.365 L 11.020 16.306 11.141 16.503 C 11.209 16.613,11.346 16.756,11.452 16.828 C 11.923 17.144,12.554 16.999,12.859 16.503 L 12.980 16.306 12.991 13.365 L 13.002 10.424 14.211 11.628 C 14.876 12.290,15.483 12.864,15.560 12.905 C 15.659 12.957,15.787 12.979,16.000 12.979 C 16.258 12.980,16.327 12.964,16.492 12.867 C 16.968 12.587,17.138 11.968,16.866 11.508 C 16.811 11.416,15.815 10.393,14.653 9.235 C 12.748 7.338,12.521 7.124,12.343 7.065 C 12.102 6.985,11.878 6.986,11.640 7.068 " stroke="none" fill-rule="evenodd" fill="black"></path></svg>