<svg width="24" height="24" viewBox="0 0 24 24" fill="none" xmlns="http://www.w3.org/2000/svg"><path d="M9.640 5.068 C 9.485 5.121,9.036 5.553,6.347 8.235 C 4.570 10.008,3.188 11.417,3.127 11.520 C 3.036 11.672,3.020 11.746,3.020 12.000 C 3.020 12.254,3.036 12.328,3.127 12.480 C 3.263 12.707,9.370 18.807,9.555 18.899 C 10.010 19.128,10.601 18.944,10.867 18.492 C 10.964 18.327,10.980 18.258,10.979 18.000 C 10.979 17.788,10.957 17.659,10.905 17.560 C 10.865 17.483,9.839 16.425,8.626 15.210 L 6.421 13.000 13.300 12.998 C 18.943 12.997,20.207 12.987,20.330 12.943 C 20.551 12.864,20.744 12.702,20.869 12.489 C 20.964 12.328,20.980 12.256,20.980 12.000 C 20.980 11.746,20.963 11.672,20.872 11.516 C 20.740 11.293,20.533 11.128,20.290 11.055 C 20.138 11.009,18.947 11.000,13.264 11.000 L 6.421 11.000 8.626 8.790 C 9.839 7.575,10.865 6.517,10.905 6.440 C 10.957 6.341,10.979 6.212,10.979 6.000 C 10.980 5.745,10.964 5.672,10.872 5.516 C 10.617 5.083,10.122 4.903,9.640 5.068 " stroke="none" fill-rule="evenodd" fill="black"></path></svg>