<svg width="24" height="24" viewBox="0 0 24 24" fill="none" xmlns="http://www.w3.org/2000/svg"><path d="M11.400 1.902 C 10.560 2.082,9.987 2.534,9.296 3.561 C 8.769 4.343,7.370 6.641,7.300 6.840 C 7.225 7.053,7.225 7.174,7.299 7.423 C 7.512 8.138,8.439 8.370,8.950 7.836 C 9.022 7.761,9.385 7.202,9.757 6.593 C 10.863 4.782,11.087 4.441,11.360 4.157 C 11.590 3.917,11.642 3.882,11.810 3.858 C 11.914 3.843,12.085 3.843,12.190 3.858 C 12.358 3.882,12.410 3.917,12.640 4.157 C 12.783 4.306,13.047 4.661,13.227 4.946 C 13.917 6.041,14.766 7.447,14.748 7.465 C 14.738 7.475,14.326 7.375,13.833 7.242 C 13.340 7.109,12.881 7.000,12.813 7.000 C 12.581 7.000,12.279 7.128,12.099 7.303 C 11.918 7.479,11.800 7.763,11.800 8.022 C 11.800 8.345,12.045 8.738,12.331 8.875 C 12.614 9.010,16.673 10.086,16.903 10.086 C 17.283 10.087,17.634 9.871,17.782 9.544 C 17.833 9.432,18.130 8.386,18.442 7.220 C 18.937 5.371,19.006 5.073,18.987 4.888 C 18.947 4.495,18.678 4.172,18.295 4.057 C 18.053 3.984,17.926 3.985,17.691 4.065 C 17.435 4.152,17.224 4.325,17.125 4.531 C 17.080 4.624,16.936 5.102,16.804 5.594 C 16.672 6.086,16.559 6.494,16.552 6.501 C 16.546 6.507,16.243 6.024,15.880 5.427 C 14.348 2.909,13.894 2.363,13.057 2.031 C 12.598 1.849,11.900 1.795,11.400 1.902 M3.940 10.040 C 1.554 10.681,1.583 10.672,1.398 10.806 C 0.925 11.149,0.875 11.878,1.295 12.296 C 1.472 12.472,1.769 12.601,1.997 12.600 C 2.102 12.600,3.700 12.198,3.991 12.099 C 4.058 12.076,4.085 12.029,3.234 13.427 C 1.809 15.765,1.586 16.261,1.584 17.080 C 1.583 17.783,1.865 18.481,2.368 19.020 C 2.715 19.392,3.029 19.603,3.439 19.740 C 4.070 19.950,4.257 19.965,6.533 19.988 C 8.901 20.011,8.848 20.016,9.173 19.724 C 9.381 19.536,9.488 19.292,9.488 19.003 C 9.488 18.615,9.294 18.298,8.940 18.106 C 8.784 18.022,8.733 18.019,6.680 17.996 C 4.550 17.972,4.216 17.949,4.003 17.811 C 3.747 17.647,3.595 17.376,3.589 17.073 C 3.582 16.753,3.828 16.301,5.575 13.431 C 5.665 13.283,5.751 13.175,5.766 13.191 C 5.781 13.207,5.886 13.571,5.999 14.000 C 6.263 14.998,6.304 15.106,6.502 15.304 C 6.892 15.695,7.518 15.691,7.901 15.297 C 8.101 15.091,8.222 14.758,8.187 14.506 C 8.147 14.215,7.046 10.168,6.962 10.003 C 6.872 9.828,6.693 9.675,6.469 9.581 C 6.177 9.459,5.958 9.499,3.940 10.040 M18.617 11.596 C 18.234 11.770,18.019 12.138,18.047 12.573 C 18.065 12.860,17.944 12.638,19.280 14.840 C 20.131 16.244,20.417 16.808,20.411 17.073 C 20.409 17.176,20.379 17.326,20.344 17.408 C 20.258 17.609,20.019 17.832,19.837 17.881 C 19.505 17.970,18.812 17.998,16.901 17.999 L 14.903 18.000 15.646 17.250 C 16.448 16.441,16.492 16.375,16.489 15.980 C 16.485 15.610,16.285 15.292,15.940 15.108 C 15.716 14.988,15.283 14.988,15.060 15.108 C 14.970 15.157,14.185 15.913,13.255 16.847 C 11.493 18.617,11.511 18.595,11.511 19.000 C 11.511 19.405,11.493 19.383,13.255 21.154 C 15.035 22.944,15.102 22.999,15.500 22.999 C 15.874 22.999,16.277 22.730,16.421 22.383 C 16.457 22.297,16.488 22.133,16.489 22.020 C 16.492 21.625,16.448 21.558,15.650 20.754 L 14.911 20.008 17.245 19.988 C 19.766 19.967,19.901 19.957,20.571 19.735 C 21.614 19.391,22.412 18.242,22.416 17.080 C 22.418 16.234,22.184 15.738,20.415 12.848 C 20.095 12.327,19.795 11.857,19.747 11.805 C 19.507 11.542,18.959 11.441,18.617 11.596 " stroke="none" fill-rule="evenodd" fill="black"></path></svg>