<svg width="24" height="24" viewBox="0 0 24 24" fill="none" xmlns="http://www.w3.org/2000/svg"><path d="M9.640 4.068 C 9.484 4.121,8.978 4.610,5.847 7.735 C 3.771 9.806,2.189 11.417,2.127 11.520 C 2.036 11.672,2.020 11.746,2.020 12.000 C 2.020 12.254,2.036 12.328,2.127 12.480 C 2.189 12.583,3.771 14.194,5.847 16.265 C 9.287 19.698,9.470 19.874,9.675 19.940 C 10.205 20.112,10.759 19.845,10.943 19.330 C 10.984 19.215,10.997 18.813,10.998 17.591 L 11.000 16.002 15.930 15.991 L 20.860 15.980 21.120 15.856 C 21.263 15.788,21.459 15.653,21.556 15.556 C 21.653 15.459,21.788 15.263,21.856 15.120 L 21.980 14.860 21.980 12.000 L 21.980 9.140 21.856 8.880 C 21.643 8.433,21.251 8.132,20.765 8.041 C 20.627 8.015,18.833 8.000,15.775 8.000 L 11.000 8.000 11.000 6.427 C 11.000 4.633,10.996 4.602,10.697 4.303 C 10.412 4.019,10.032 3.934,9.640 4.068 M9.131 9.489 C 9.256 9.702,9.449 9.864,9.670 9.943 C 9.792 9.987,10.762 9.997,14.910 9.998 L 20.000 10.000 20.000 12.000 L 20.000 14.000 14.946 14.000 C 10.780 14.000,9.861 14.010,9.710 14.055 C 9.467 14.128,9.260 14.293,9.128 14.516 C 9.021 14.698,9.020 14.708,9.000 15.630 L 8.980 16.561 6.700 14.280 L 4.420 12.000 6.700 9.720 L 8.980 7.439 9.000 8.370 C 9.020 9.298,9.020 9.300,9.131 9.489 " stroke="none" fill-rule="evenodd" fill="black"></path></svg>