<svg width="24" height="24" viewBox="0 0 24 24" fill="none" xmlns="http://www.w3.org/2000/svg"><path d="M11.640 2.068 C 11.484 2.121,10.980 2.609,7.794 5.795 C 4.298 9.291,4.126 9.470,4.059 9.675 C 3.889 10.206,4.155 10.759,4.670 10.943 C 4.785 10.984,5.187 10.997,6.409 10.998 L 7.998 11.000 8.009 15.930 L 8.020 20.860 8.144 21.120 C 8.301 21.450,8.550 21.699,8.880 21.856 L 9.140 21.980 12.000 21.980 L 14.860 21.980 15.120 21.856 C 15.450 21.699,15.699 21.450,15.856 21.120 L 15.980 20.860 15.991 15.930 L 16.002 11.000 17.576 11.000 C 19.283 11.000,19.336 10.994,19.623 10.775 C 19.700 10.716,19.813 10.585,19.872 10.484 C 19.963 10.328,19.980 10.254,19.980 10.000 C 19.980 9.746,19.964 9.672,19.873 9.520 C 19.811 9.417,18.229 7.807,16.153 5.735 C 12.851 2.441,12.523 2.125,12.343 2.065 C 12.102 1.986,11.878 1.986,11.640 2.068 M14.300 6.720 L 16.580 9.000 15.736 9.000 C 14.812 9.000,14.634 9.029,14.382 9.221 C 14.302 9.282,14.187 9.415,14.128 9.516 L 14.020 9.700 14.009 14.850 L 13.999 20.000 12.000 20.000 L 10.001 20.000 9.991 14.850 L 9.980 9.700 9.872 9.516 C 9.813 9.415,9.698 9.282,9.618 9.221 C 9.366 9.029,9.188 9.000,8.264 9.000 L 7.420 9.000 9.700 6.720 C 10.954 5.466,11.989 4.440,12.000 4.440 C 12.011 4.440,13.046 5.466,14.300 6.720 " stroke="none" fill-rule="evenodd" fill="black"></path></svg>