<svg width="24" height="24" viewBox="0 0 24 24" fill="none" xmlns="http://www.w3.org/2000/svg"><path d="M5.670 5.061 C 5.448 5.142,5.250 5.309,5.128 5.516 L 5.020 5.700 5.020 10.003 L 5.020 14.306 5.141 14.503 C 5.543 15.156,6.457 15.156,6.859 14.503 L 6.980 14.306 6.991 11.364 L 7.002 8.422 12.211 13.627 C 15.076 16.490,17.483 18.865,17.560 18.905 C 17.659 18.957,17.788 18.979,18.000 18.979 C 18.258 18.980,18.327 18.964,18.492 18.867 C 18.714 18.737,18.901 18.498,18.965 18.264 C 19.019 18.062,18.989 17.734,18.899 17.555 C 18.862 17.481,16.489 15.076,13.626 12.210 L 8.420 7.000 11.300 6.998 C 13.601 6.997,14.210 6.986,14.330 6.943 C 14.551 6.864,14.744 6.702,14.869 6.489 C 14.964 6.328,14.980 6.256,14.980 6.000 C 14.980 5.746,14.963 5.672,14.872 5.516 C 14.740 5.293,14.533 5.128,14.290 5.055 C 14.019 4.974,5.892 4.979,5.670 5.061 " stroke="none" fill-rule="evenodd" fill="black"></path></svg>