<svg width="24" height="24" viewBox="0 0 24 24" fill="none" xmlns="http://www.w3.org/2000/svg"><path d="M17.640 5.068 C 17.483 5.121,16.793 5.795,12.231 10.353 L 7.002 15.577 6.991 12.638 L 6.980 9.700 6.871 9.514 C 6.479 8.848,5.521 8.848,5.129 9.514 L 5.020 9.700 5.020 14.000 L 5.020 18.300 5.131 18.489 C 5.256 18.702,5.449 18.864,5.670 18.943 C 5.892 19.022,14.108 19.022,14.330 18.943 C 14.551 18.864,14.744 18.702,14.869 18.489 C 14.964 18.328,14.980 18.256,14.980 18.000 C 14.980 17.746,14.963 17.672,14.872 17.516 C 14.813 17.415,14.698 17.282,14.618 17.221 C 14.326 16.998,14.349 17.000,11.264 17.000 L 8.420 17.000 13.626 11.790 C 16.489 8.925,18.865 6.517,18.905 6.440 C 18.957 6.341,18.979 6.212,18.979 6.000 C 18.980 5.745,18.964 5.672,18.872 5.516 C 18.617 5.083,18.122 4.903,17.640 5.068 " stroke="none" fill-rule="evenodd" fill="black"></path></svg>