<svg width="24" height="24" viewBox="0 0 24 24" fill="none" xmlns="http://www.w3.org/2000/svg"><path d="M6.640 3.068 C 6.486 3.121,6.151 3.438,4.347 5.235 C 3.185 6.393,2.189 7.416,2.134 7.508 C 1.862 7.968,2.032 8.587,2.508 8.867 C 2.673 8.964,2.742 8.980,3.000 8.979 C 3.213 8.979,3.341 8.957,3.440 8.905 C 3.517 8.864,4.124 8.289,4.790 7.627 L 5.999 6.423 6.010 13.364 L 6.020 20.306 6.141 20.503 C 6.543 21.156,7.457 21.156,7.859 20.503 L 7.980 20.306 7.990 13.364 L 8.001 6.423 9.210 7.627 C 9.876 8.289,10.483 8.864,10.560 8.905 C 10.659 8.957,10.787 8.979,11.000 8.979 C 11.258 8.980,11.327 8.964,11.492 8.867 C 11.968 8.587,12.138 7.968,11.866 7.508 C 11.811 7.416,10.815 6.393,9.653 5.235 C 7.748 3.338,7.521 3.124,7.343 3.065 C 7.102 2.985,6.878 2.986,6.640 3.068 M16.640 8.068 C 16.486 8.121,16.151 8.438,14.347 10.235 C 13.185 11.393,12.189 12.416,12.134 12.508 C 11.862 12.968,12.032 13.587,12.508 13.867 C 12.673 13.964,12.742 13.980,13.000 13.979 C 13.213 13.979,13.341 13.957,13.440 13.905 C 13.517 13.864,14.124 13.289,14.789 12.627 L 15.999 11.423 16.009 15.865 L 16.020 20.306 16.141 20.503 C 16.543 21.156,17.457 21.156,17.859 20.503 L 17.980 20.306 17.991 15.865 L 18.001 11.423 19.211 12.627 C 19.876 13.289,20.483 13.864,20.560 13.905 C 20.659 13.957,20.787 13.979,21.000 13.979 C 21.258 13.980,21.327 13.964,21.492 13.867 C 21.968 13.587,22.138 12.968,21.866 12.508 C 21.811 12.416,20.815 11.393,19.653 10.235 C 17.748 8.338,17.521 8.124,17.343 8.065 C 17.102 7.985,16.878 7.986,16.640 8.068 " stroke="none" fill-rule="evenodd" fill="black"></path></svg>