<svg width="24" height="24" viewBox="0 0 24 24" fill="none" xmlns="http://www.w3.org/2000/svg"><path d="M11.000 1.045 C 10.241 1.121,9.227 1.326,8.941 1.462 C 8.742 1.557,8.530 1.818,8.459 2.056 C 8.385 2.304,8.385 2.376,8.459 2.623 C 8.535 2.877,8.720 3.099,8.954 3.216 C 9.240 3.359,9.389 3.365,9.868 3.257 C 10.701 3.069,11.131 3.022,12.000 3.022 C 13.486 3.022,14.665 3.293,15.980 3.939 C 17.780 4.823,19.194 6.245,20.079 8.060 C 20.719 9.372,20.977 10.504,20.977 12.000 C 20.977 13.496,20.719 14.628,20.079 15.940 C 19.193 17.758,17.790 19.169,15.980 20.062 C 12.845 21.609,9.156 21.216,6.399 19.042 C 5.730 18.514,4.978 17.690,4.462 16.920 C 3.976 16.196,3.461 14.992,3.247 14.080 C 3.070 13.327,3.022 12.890,3.022 12.020 C 3.021 11.126,3.067 10.709,3.260 9.859 C 3.367 9.387,3.362 9.255,3.230 8.970 C 3.074 8.633,2.735 8.427,2.340 8.429 C 1.889 8.431,1.519 8.703,1.385 9.131 C 1.272 9.493,1.125 10.274,1.056 10.878 C 0.976 11.577,0.998 12.860,1.100 13.520 C 1.416 15.559,2.206 17.372,3.455 18.922 C 4.140 19.773,5.230 20.739,6.180 21.338 C 6.638 21.626,7.624 22.112,8.133 22.299 C 10.665 23.231,13.335 23.231,15.867 22.299 C 16.376 22.112,17.362 21.626,17.820 21.338 C 19.169 20.488,20.488 19.169,21.338 17.820 C 21.626 17.362,22.112 16.376,22.299 15.867 C 23.231 13.335,23.231 10.665,22.299 8.133 C 22.112 7.624,21.626 6.638,21.338 6.180 C 20.057 4.148,18.083 2.531,15.880 1.710 C 14.353 1.141,12.526 0.892,11.000 1.045 M4.695 4.057 C 4.466 4.129,4.256 4.299,4.128 4.516 C 4.036 4.672,4.020 4.745,4.021 5.000 C 4.021 5.212,4.043 5.341,4.095 5.440 C 4.135 5.517,6.061 7.474,8.374 9.790 L 12.579 14.000 10.736 14.000 C 8.735 14.000,8.663 14.007,8.382 14.221 C 8.302 14.282,8.187 14.415,8.128 14.516 C 8.037 14.672,8.020 14.746,8.020 15.000 C 8.020 15.256,8.036 15.328,8.131 15.489 C 8.256 15.702,8.449 15.864,8.670 15.943 C 8.891 16.022,15.109 16.022,15.330 15.943 C 15.551 15.864,15.744 15.702,15.869 15.489 L 15.980 15.300 15.980 12.000 L 15.980 8.700 15.871 8.514 C 15.479 7.848,14.521 7.848,14.129 8.514 L 14.020 8.700 14.009 10.638 L 13.997 12.576 9.769 8.351 C 5.646 4.232,5.535 4.125,5.323 4.063 C 5.066 3.988,4.919 3.987,4.695 4.057 " stroke="none" fill-rule="evenodd" fill="black"></path></svg>