<svg width="24" height="24" viewBox="0 0 24 24" fill="none" xmlns="http://www.w3.org/2000/svg"><path d="M11.052 1.041 C 8.937 1.246,7.045 1.974,5.363 3.230 C 5.084 3.438,4.636 3.839,4.238 4.238 C 3.277 5.198,2.707 5.987,2.141 7.140 C 1.667 8.104,1.362 9.022,1.180 10.038 C 0.757 12.388,1.084 14.711,2.141 16.860 C 2.672 17.941,3.257 18.767,4.116 19.651 C 5.844 21.428,7.966 22.511,10.480 22.900 C 11.139 23.002,12.383 23.023,13.100 22.945 C 13.719 22.877,14.494 22.732,14.880 22.612 C 15.180 22.518,15.451 22.249,15.537 21.958 C 15.615 21.696,15.615 21.626,15.541 21.377 C 15.464 21.118,15.280 20.901,15.029 20.775 C 14.853 20.685,14.791 20.674,14.543 20.691 C 14.388 20.701,14.044 20.756,13.780 20.813 C 11.766 21.245,9.566 20.918,7.707 19.911 C 6.081 19.031,4.733 17.617,3.920 15.940 C 3.280 14.621,3.023 13.493,3.023 12.000 C 3.023 10.507,3.280 9.379,3.920 8.060 C 4.799 6.247,6.247 4.799,8.060 3.920 C 8.953 3.487,9.729 3.246,10.720 3.094 C 11.354 2.997,12.646 2.997,13.280 3.094 C 15.875 3.491,18.071 4.890,19.538 7.080 C 19.856 7.553,20.324 8.525,20.522 9.120 C 21.065 10.755,21.136 12.376,20.740 14.145 C 20.633 14.622,20.637 14.742,20.771 15.031 C 20.934 15.384,21.402 15.640,21.771 15.578 C 22.186 15.509,22.497 15.248,22.615 14.869 C 22.728 14.507,22.875 13.726,22.944 13.122 C 23.030 12.374,23.002 11.134,22.885 10.399 C 22.563 8.391,21.780 6.610,20.546 5.080 C 20.171 4.615,19.333 3.777,18.900 3.435 C 17.311 2.178,15.545 1.410,13.580 1.120 C 12.938 1.025,11.634 0.984,11.052 1.041 M8.695 8.057 C 8.466 8.129,8.256 8.299,8.128 8.516 L 8.020 8.700 8.020 12.003 L 8.020 15.306 8.141 15.503 C 8.543 16.156,9.457 16.156,9.859 15.503 L 9.980 15.306 9.991 13.365 L 10.003 11.423 14.211 15.628 C 16.526 17.940,18.483 19.865,18.560 19.905 C 18.659 19.957,18.788 19.979,19.000 19.979 C 19.258 19.980,19.327 19.964,19.492 19.867 C 19.714 19.737,19.901 19.498,19.965 19.264 C 20.019 19.062,19.989 18.734,19.899 18.555 C 19.862 18.481,17.939 16.526,15.626 14.210 L 11.421 10.000 13.300 9.998 C 14.766 9.997,15.213 9.985,15.330 9.943 C 15.551 9.864,15.744 9.702,15.869 9.489 C 15.964 9.328,15.980 9.256,15.980 9.000 C 15.980 8.746,15.963 8.672,15.872 8.516 C 15.740 8.293,15.533 8.128,15.290 8.055 C 15.030 7.977,8.945 7.979,8.695 8.057 " stroke="none" fill-rule="evenodd" fill="black"></path></svg>