<svg width="24" height="24" viewBox="0 0 24 24" fill="none" xmlns="http://www.w3.org/2000/svg"><path d="M11.695 1.057 C 11.466 1.129,11.256 1.299,11.128 1.516 L 11.020 1.700 11.009 7.637 L 10.999 13.575 9.769 12.352 C 8.610 11.199,8.528 11.125,8.323 11.064 C 8.057 10.986,7.946 10.984,7.710 11.055 C 7.467 11.128,7.260 11.293,7.128 11.516 C 7.036 11.672,7.020 11.745,7.021 12.000 C 7.021 12.212,7.043 12.341,7.095 12.440 C 7.195 12.632,11.295 16.739,11.520 16.873 C 11.672 16.964,11.746 16.980,12.000 16.980 C 12.254 16.980,12.328 16.964,12.480 16.873 C 12.705 16.739,16.805 12.632,16.905 12.440 C 16.957 12.341,16.979 12.212,16.979 12.000 C 16.980 11.745,16.964 11.672,16.872 11.516 C 16.740 11.293,16.533 11.128,16.290 11.055 C 16.054 10.984,15.943 10.986,15.677 11.064 C 15.472 11.125,15.390 11.199,14.231 12.352 L 13.001 13.575 12.991 7.637 L 12.980 1.700 12.872 1.516 C 12.628 1.101,12.150 0.915,11.695 1.057 M6.600 2.427 C 6.376 2.525,5.473 3.135,5.048 3.477 C 4.562 3.869,3.816 4.620,3.418 5.120 C 0.265 9.081,0.187 14.561,3.226 18.633 C 3.701 19.269,4.753 20.316,5.400 20.797 C 9.364 23.745,14.666 23.734,18.637 20.770 C 19.246 20.316,20.316 19.246,20.770 18.637 C 23.600 14.845,23.750 9.815,21.149 5.900 C 20.574 5.034,19.730 4.103,18.952 3.477 C 18.506 3.118,17.615 2.520,17.385 2.424 C 17.194 2.345,16.803 2.341,16.623 2.416 C 16.411 2.505,16.177 2.742,16.080 2.969 C 15.936 3.303,16.008 3.722,16.255 3.994 C 16.302 4.046,16.594 4.257,16.905 4.463 C 19.114 5.931,20.514 8.120,20.906 10.720 C 21.002 11.359,21.003 12.653,20.906 13.280 C 20.601 15.272,19.721 17.011,18.316 18.400 C 17.596 19.112,16.908 19.601,15.980 20.061 C 13.447 21.317,10.485 21.310,7.980 20.042 C 7.044 19.569,6.380 19.093,5.665 18.382 C 4.497 17.221,3.649 15.728,3.267 14.160 C 3.080 13.393,3.023 12.888,3.024 12.000 C 3.025 10.492,3.284 9.352,3.920 8.057 C 4.648 6.575,5.687 5.399,7.095 4.463 C 7.691 4.067,7.786 3.985,7.904 3.760 C 8.012 3.555,8.005 3.112,7.891 2.896 C 7.791 2.706,7.563 2.494,7.374 2.415 C 7.203 2.343,6.778 2.350,6.600 2.427 " stroke="none" fill-rule="evenodd" fill="black"></path></svg>