<svg width="24" height="24" viewBox="0 0 24 24" fill="none" xmlns="http://www.w3.org/2000/svg"><path d="M10.860 1.061 C 8.945 1.271,7.077 1.982,5.580 3.071 C 4.449 3.894,3.396 5.016,2.662 6.180 C 2.374 6.638,1.888 7.624,1.701 8.133 C 1.001 10.035,0.826 11.994,1.180 13.962 C 1.362 14.978,1.667 15.896,2.141 16.860 C 2.707 18.013,3.277 18.802,4.238 19.762 C 5.198 20.723,5.987 21.293,7.140 21.859 C 9.890 23.211,12.967 23.366,15.867 22.299 C 16.376 22.112,17.362 21.626,17.820 21.338 C 18.770 20.739,19.860 19.773,20.545 18.922 C 21.782 17.386,22.563 15.610,22.885 13.601 C 23.002 12.866,23.030 11.626,22.944 10.878 C 22.875 10.274,22.728 9.493,22.615 9.131 C 22.481 8.703,22.111 8.431,21.660 8.429 C 21.265 8.427,20.926 8.633,20.770 8.970 C 20.637 9.258,20.633 9.379,20.740 9.855 C 21.229 12.038,21.005 14.058,20.061 15.980 C 19.182 17.770,17.776 19.176,15.980 20.062 C 14.416 20.834,12.685 21.139,10.992 20.941 C 7.911 20.580,5.261 18.707,3.920 15.940 C 3.487 15.047,3.246 14.271,3.094 13.280 C 2.997 12.646,2.997 11.354,3.094 10.720 C 3.491 8.125,4.890 5.929,7.080 4.462 C 7.549 4.147,8.524 3.676,9.100 3.486 C 10.155 3.137,10.875 3.022,12.000 3.022 C 12.869 3.022,13.299 3.069,14.132 3.257 C 14.398 3.317,14.619 3.346,14.711 3.332 C 14.937 3.297,15.217 3.140,15.357 2.971 C 15.480 2.823,15.600 2.510,15.600 2.340 C 15.600 2.160,15.476 1.850,15.342 1.693 C 15.169 1.491,15.019 1.419,14.527 1.301 C 13.350 1.019,12.032 0.933,10.860 1.061 M18.660 4.066 C 18.472 4.123,18.204 4.382,14.231 8.351 L 10.003 12.576 9.991 10.638 L 9.980 8.700 9.871 8.514 C 9.479 7.848,8.521 7.848,8.129 8.514 L 8.020 8.700 8.020 12.000 L 8.020 15.300 8.131 15.489 C 8.256 15.702,8.449 15.864,8.670 15.943 C 8.891 16.022,15.109 16.022,15.330 15.943 C 15.551 15.864,15.744 15.702,15.869 15.489 C 15.964 15.328,15.980 15.256,15.980 15.000 C 15.980 14.746,15.963 14.672,15.872 14.516 C 15.813 14.415,15.698 14.282,15.618 14.221 C 15.337 14.007,15.265 14.000,13.264 14.000 L 11.421 14.000 15.626 9.790 C 17.939 7.474,19.865 5.517,19.905 5.440 C 19.957 5.341,19.979 5.212,19.979 5.000 C 19.980 4.745,19.964 4.672,19.872 4.516 C 19.740 4.293,19.533 4.128,19.290 4.055 C 19.062 3.986,18.915 3.989,18.660 4.066 " stroke="none" fill-rule="evenodd" fill="black"></path></svg>