<svg width="24" height="24" viewBox="0 0 24 24" fill="none" xmlns="http://www.w3.org/2000/svg"><path d="M11.695 3.057 C 11.466 3.129,11.256 3.299,11.128 3.516 L 11.020 3.700 11.010 10.638 L 10.999 17.577 8.770 15.354 C 6.755 13.346,6.521 13.124,6.343 13.065 C 5.862 12.906,5.382 13.084,5.128 13.516 C 5.037 13.672,5.020 13.746,5.020 14.000 C 5.020 14.254,5.036 14.328,5.127 14.480 C 5.262 14.706,11.368 20.805,11.560 20.905 C 11.659 20.957,11.787 20.978,12.000 20.978 C 12.213 20.978,12.341 20.957,12.440 20.905 C 12.632 20.805,18.738 14.706,18.873 14.480 C 18.964 14.328,18.980 14.254,18.980 14.000 C 18.980 13.746,18.963 13.672,18.872 13.516 C 18.618 13.084,18.138 12.906,17.657 13.065 C 17.479 13.124,17.245 13.346,15.230 15.354 L 13.001 17.577 12.990 10.638 L 12.980 3.700 12.872 3.516 C 12.628 3.101,12.150 2.915,11.695 3.057 " stroke="none" fill-rule="evenodd" fill="black"></path></svg>