<svg width="24" height="24" viewBox="0 0 24 24" fill="none" xmlns="http://www.w3.org/2000/svg"><path d="M9.202 2.044 C 8.745 2.133,8.350 2.445,8.144 2.880 L 8.020 3.140 8.009 8.070 L 7.998 13.000 6.449 13.000 C 5.442 13.000,4.844 13.016,4.741 13.045 C 4.502 13.111,4.255 13.300,4.131 13.511 C 4.036 13.672,4.020 13.744,4.020 14.000 C 4.020 14.254,4.036 14.328,4.127 14.480 C 4.263 14.707,11.368 21.805,11.560 21.905 C 11.659 21.957,11.788 21.979,12.000 21.979 C 12.255 21.980,12.327 21.964,12.480 21.873 C 12.583 21.811,14.194 20.229,16.265 18.153 C 19.698 14.713,19.874 14.530,19.940 14.325 C 20.073 13.914,19.943 13.469,19.618 13.221 C 19.342 13.011,19.242 13.000,17.555 13.000 L 16.002 13.000 15.991 8.070 L 15.980 3.140 15.856 2.880 C 15.643 2.433,15.251 2.132,14.765 2.041 C 14.499 1.990,9.459 1.993,9.202 2.044 M14.002 9.090 C 14.003 13.238,14.013 14.208,14.057 14.330 C 14.136 14.551,14.298 14.744,14.511 14.869 C 14.700 14.980,14.702 14.980,15.630 15.000 L 16.561 15.020 14.280 17.300 L 12.000 19.580 9.720 17.300 L 7.439 15.020 8.370 15.000 C 9.298 14.980,9.300 14.980,9.489 14.869 C 9.702 14.744,9.864 14.551,9.943 14.330 C 9.987 14.208,9.997 13.238,9.998 9.090 L 10.000 4.000 12.000 4.000 L 14.000 4.000 14.002 9.090 " stroke="none" fill-rule="evenodd" fill="black"></path></svg>