<svg width="24" height="24" viewBox="0 0 24 24" fill="none" xmlns="http://www.w3.org/2000/svg"><path d="M12.640 2.068 C 12.486 2.121,12.151 2.438,10.347 4.235 C 9.166 5.411,8.187 6.419,8.127 6.520 C 8.037 6.672,8.020 6.746,8.020 7.000 C 8.020 7.254,8.036 7.328,8.127 7.480 C 8.261 7.705,12.368 11.805,12.560 11.905 C 12.659 11.957,12.788 11.979,13.000 11.979 C 13.258 11.980,13.327 11.964,13.492 11.867 C 13.714 11.737,13.901 11.498,13.965 11.264 C 14.019 11.061,13.989 10.733,13.899 10.555 C 13.862 10.481,13.289 9.876,12.626 9.210 L 11.422 8.000 15.801 7.998 C 19.355 7.997,20.208 7.986,20.330 7.943 C 20.551 7.864,20.744 7.702,20.869 7.489 C 20.964 7.328,20.980 7.256,20.980 7.000 C 20.980 6.746,20.963 6.672,20.872 6.516 C 20.813 6.415,20.698 6.282,20.618 6.221 C 20.318 5.993,20.479 6.000,15.765 6.000 L 11.422 6.000 12.626 4.790 C 13.289 4.125,13.864 3.517,13.905 3.440 C 13.957 3.341,13.979 3.213,13.979 3.000 C 13.980 2.745,13.964 2.672,13.872 2.516 C 13.617 2.083,13.121 1.903,12.640 2.068 M7.640 12.068 C 7.486 12.121,7.151 12.438,5.347 14.235 C 4.166 15.411,3.187 16.419,3.127 16.520 C 3.037 16.672,3.020 16.746,3.020 17.000 C 3.020 17.254,3.036 17.328,3.127 17.480 C 3.261 17.705,7.368 21.805,7.560 21.905 C 7.659 21.957,7.788 21.979,8.000 21.979 C 8.258 21.980,8.327 21.964,8.492 21.867 C 8.714 21.737,8.901 21.498,8.965 21.264 C 9.019 21.061,8.989 20.733,8.899 20.555 C 8.862 20.481,8.289 19.875,7.626 19.210 L 6.422 18.000 13.301 17.998 C 18.943 17.997,20.207 17.987,20.330 17.943 C 20.551 17.864,20.744 17.702,20.869 17.489 C 20.964 17.328,20.980 17.256,20.980 17.000 C 20.980 16.746,20.963 16.672,20.872 16.516 C 20.740 16.293,20.533 16.128,20.290 16.055 C 20.138 16.009,18.947 16.000,13.265 16.000 L 6.422 16.000 7.626 14.790 C 8.289 14.125,8.864 13.517,8.905 13.440 C 8.957 13.341,8.979 13.213,8.979 13.000 C 8.980 12.745,8.964 12.672,8.872 12.516 C 8.617 12.083,8.121 11.903,7.640 12.068 " stroke="none" fill-rule="evenodd" fill="black"></path></svg>