<svg width="24" height="24" viewBox="0 0 24 24" fill="none" xmlns="http://www.w3.org/2000/svg"><path d="M11.280 1.026 C 9.300 1.209,7.814 1.677,6.303 2.595 C 4.894 3.450,3.555 4.769,2.661 6.180 C 2.377 6.629,1.893 7.614,1.701 8.133 C 0.382 11.710,0.943 15.573,3.226 18.633 C 3.686 19.248,4.752 20.314,5.367 20.774 C 7.865 22.638,10.934 23.369,13.980 22.824 C 15.704 22.516,17.455 21.715,18.880 20.582 C 19.892 19.777,21.037 18.435,21.534 17.471 C 21.736 17.079,21.690 16.664,21.408 16.352 C 21.193 16.114,20.992 16.026,20.660 16.023 C 20.182 16.020,20.062 16.114,19.537 16.905 C 18.599 18.316,17.421 19.356,15.940 20.082 C 14.753 20.664,13.632 20.943,12.300 20.989 C 10.159 21.063,8.046 20.361,6.370 19.019 C 4.857 17.807,3.722 16.029,3.267 14.160 C 3.081 13.397,3.023 12.888,3.023 12.000 C 3.023 10.507,3.280 9.379,3.920 8.060 C 4.799 6.247,6.247 4.799,8.060 3.920 C 9.380 3.279,10.510 3.022,12.000 3.024 C 13.508 3.025,14.648 3.284,15.943 3.920 C 17.425 4.648,18.601 5.687,19.537 7.095 C 20.061 7.884,20.180 7.978,20.660 7.978 C 20.991 7.978,21.189 7.890,21.408 7.648 C 21.579 7.459,21.655 7.252,21.656 6.974 C 21.657 6.729,21.545 6.491,21.148 5.895 C 19.479 3.392,16.810 1.659,13.860 1.164 C 13.081 1.033,11.890 0.969,11.280 1.026 M11.640 7.068 C 11.486 7.121,11.151 7.438,9.347 9.235 C 8.166 10.411,7.187 11.419,7.127 11.520 C 7.037 11.672,7.020 11.746,7.020 12.000 C 7.020 12.254,7.036 12.328,7.127 12.480 C 7.262 12.705,11.371 16.807,11.555 16.899 C 11.733 16.989,12.061 17.019,12.261 16.965 C 12.488 16.904,12.743 16.704,12.871 16.486 C 12.964 16.327,12.980 16.256,12.979 16.000 C 12.979 15.787,12.957 15.659,12.905 15.560 C 12.864 15.483,12.289 14.876,11.626 14.210 L 10.422 13.000 16.301 12.998 C 20.981 12.997,22.209 12.986,22.324 12.945 C 22.539 12.868,22.751 12.690,22.872 12.484 C 22.963 12.328,22.980 12.254,22.980 12.000 C 22.980 11.746,22.963 11.672,22.872 11.516 C 22.740 11.293,22.533 11.128,22.290 11.055 C 22.139 11.009,21.100 11.000,16.265 11.000 L 10.422 11.000 11.626 9.790 C 12.289 9.125,12.864 8.517,12.905 8.440 C 12.957 8.341,12.979 8.213,12.979 8.000 C 12.980 7.745,12.964 7.672,12.872 7.516 C 12.620 7.087,12.117 6.904,11.640 7.068 " stroke="none" fill-rule="evenodd" fill="black"></path></svg>