<svg width="24" height="24" viewBox="0 0 24 24" fill="none" xmlns="http://www.w3.org/2000/svg"><path d="M6.695 6.057 C 6.466 6.129,6.256 6.299,6.128 6.516 L 6.020 6.700 6.020 12.000 L 6.020 17.300 6.131 17.489 C 6.256 17.702,6.449 17.864,6.670 17.943 C 6.892 18.022,17.108 18.022,17.330 17.943 C 17.551 17.864,17.744 17.702,17.869 17.489 C 17.964 17.328,17.980 17.256,17.980 17.000 C 17.980 16.746,17.963 16.672,17.872 16.516 C 17.813 16.415,17.698 16.282,17.618 16.221 C 17.320 15.994,17.435 16.000,13.264 16.000 L 9.421 16.000 13.626 11.790 C 15.939 9.474,17.865 7.517,17.905 7.440 C 17.957 7.341,17.979 7.212,17.979 7.000 C 17.980 6.745,17.964 6.672,17.872 6.516 C 17.740 6.293,17.533 6.128,17.290 6.055 C 17.055 5.984,16.943 5.986,16.677 6.063 C 16.465 6.125,16.354 6.232,12.231 10.352 L 8.002 14.577 7.991 10.639 L 7.980 6.700 7.872 6.516 C 7.628 6.101,7.150 5.915,6.695 6.057 " stroke="none" fill-rule="evenodd" fill="black"></path></svg>