<svg width="24" height="24" viewBox="0 0 24 24" fill="none" xmlns="http://www.w3.org/2000/svg"><path d="M11.280 1.023 C 11.203 1.032,10.951 1.059,10.720 1.083 C 9.527 1.210,8.337 1.558,7.180 2.120 C 6.045 2.671,5.193 3.285,4.238 4.239 C 3.277 5.198,2.643 6.080,2.097 7.220 C 0.301 10.968,0.728 15.286,3.226 18.633 C 3.701 19.269,4.753 20.316,5.400 20.797 C 9.364 23.745,14.666 23.734,18.637 20.770 C 19.246 20.316,20.316 19.246,20.770 18.637 C 23.744 14.652,23.744 9.348,20.770 5.363 C 20.316 4.755,19.247 3.686,18.640 3.235 C 17.045 2.049,15.365 1.360,13.423 1.096 C 13.000 1.038,11.574 0.990,11.280 1.023 M13.320 3.101 C 15.883 3.488,18.124 4.931,19.560 7.120 C 19.863 7.583,20.303 8.479,20.492 9.020 C 20.838 10.013,20.977 10.865,20.977 12.000 C 20.977 13.493,20.720 14.621,20.080 15.940 C 19.375 17.394,18.311 18.607,16.927 19.532 C 16.138 20.060,14.876 20.588,13.908 20.797 C 11.266 21.366,8.479 20.708,6.370 19.019 C 4.857 17.807,3.722 16.029,3.267 14.160 C 3.081 13.397,3.023 12.888,3.023 12.000 C 3.023 10.507,3.280 9.379,3.920 8.060 C 4.971 5.891,6.877 4.221,9.160 3.466 C 9.865 3.233,10.432 3.118,11.340 3.024 C 11.662 2.991,12.911 3.039,13.320 3.101 M11.695 7.057 C 11.466 7.129,11.256 7.299,11.128 7.516 L 11.020 7.700 11.009 10.637 L 10.998 13.574 9.769 12.351 C 8.610 11.199,8.528 11.125,8.323 11.064 C 8.057 10.986,7.946 10.984,7.710 11.055 C 7.467 11.128,7.260 11.293,7.128 11.516 C 7.037 11.672,7.020 11.746,7.020 12.000 C 7.020 12.254,7.036 12.328,7.127 12.480 C 7.261 12.705,11.368 16.805,11.560 16.905 C 11.754 17.007,12.246 17.007,12.440 16.905 C 12.632 16.805,16.739 12.705,16.873 12.480 C 16.964 12.328,16.980 12.254,16.980 12.000 C 16.980 11.746,16.963 11.672,16.872 11.516 C 16.740 11.293,16.533 11.128,16.290 11.055 C 16.054 10.984,15.943 10.986,15.677 11.064 C 15.472 11.125,15.390 11.199,14.231 12.351 L 13.002 13.574 12.991 10.637 L 12.980 7.700 12.872 7.516 C 12.628 7.101,12.150 6.915,11.695 7.057 " stroke="none" fill-rule="evenodd" fill="black"></path></svg>