<svg width="24" height="24" viewBox="0 0 24 24" fill="none" xmlns="http://www.w3.org/2000/svg"><path d="M5.670 5.061 C 5.448 5.142,5.250 5.309,5.128 5.516 C 5.036 5.672,5.020 5.745,5.021 6.000 C 5.021 6.212,5.043 6.341,5.095 6.440 C 5.135 6.517,7.511 8.925,10.374 11.790 L 15.580 17.000 12.736 17.000 C 9.651 17.000,9.674 16.998,9.382 17.221 C 9.302 17.282,9.187 17.415,9.128 17.516 C 9.037 17.672,9.020 17.746,9.020 18.000 C 9.020 18.256,9.036 18.328,9.131 18.489 C 9.256 18.702,9.449 18.864,9.670 18.943 C 9.892 19.022,18.108 19.022,18.330 18.943 C 18.551 18.864,18.744 18.702,18.869 18.489 L 18.980 18.300 18.980 14.000 L 18.980 9.700 18.871 9.514 C 18.479 8.848,17.521 8.848,17.129 9.514 L 17.020 9.700 17.009 12.638 L 16.998 15.577 11.769 10.353 C 6.962 5.551,6.524 5.125,6.343 5.065 C 6.107 4.987,5.874 4.986,5.670 5.061 " stroke="none" fill-rule="evenodd" fill="black"></path></svg>