<svg width="24" height="24" viewBox="0 0 24 24" fill="none" xmlns="http://www.w3.org/2000/svg"><path d="M10.670 2.061 C 10.448 2.142,10.250 2.309,10.128 2.516 C 10.036 2.672,10.020 2.745,10.021 3.000 C 10.021 3.213,10.043 3.341,10.095 3.440 C 10.136 3.517,10.711 4.124,11.374 4.790 L 12.578 6.000 8.235 6.000 C 3.521 6.000,3.682 5.993,3.382 6.221 C 3.302 6.282,3.187 6.415,3.128 6.516 C 3.037 6.672,3.020 6.746,3.020 7.000 C 3.020 7.256,3.036 7.328,3.131 7.489 C 3.256 7.702,3.449 7.864,3.670 7.943 C 3.792 7.986,4.645 7.997,8.199 7.998 L 12.578 8.000 11.374 9.210 C 10.711 9.876,10.138 10.481,10.101 10.555 C 9.872 11.009,10.056 11.601,10.508 11.867 C 10.673 11.964,10.743 11.980,11.000 11.980 C 11.254 11.980,11.328 11.964,11.480 11.873 C 11.705 11.739,15.805 7.632,15.905 7.440 C 15.957 7.341,15.979 7.212,15.979 7.000 C 15.980 6.745,15.964 6.673,15.873 6.520 C 15.813 6.419,14.834 5.412,13.653 4.235 C 11.748 2.338,11.521 2.124,11.343 2.065 C 11.107 1.987,10.874 1.986,10.670 2.061 M15.670 12.061 C 15.448 12.142,15.250 12.309,15.128 12.516 C 15.036 12.672,15.020 12.745,15.021 13.000 C 15.021 13.213,15.043 13.341,15.095 13.440 C 15.136 13.517,15.711 14.125,16.374 14.790 L 17.578 16.000 10.735 16.000 C 5.053 16.000,3.862 16.009,3.710 16.055 C 3.467 16.128,3.260 16.293,3.128 16.516 C 3.037 16.672,3.020 16.746,3.020 17.000 C 3.020 17.256,3.036 17.328,3.131 17.489 C 3.256 17.702,3.449 17.864,3.670 17.943 C 3.793 17.987,5.057 17.997,10.699 17.998 L 17.578 18.000 16.374 19.210 C 15.711 19.875,15.138 20.481,15.101 20.555 C 14.872 21.009,15.056 21.601,15.508 21.867 C 15.673 21.964,15.743 21.980,16.000 21.980 C 16.254 21.980,16.328 21.964,16.480 21.873 C 16.705 21.739,20.805 17.632,20.905 17.440 C 20.957 17.341,20.979 17.212,20.979 17.000 C 20.980 16.745,20.964 16.673,20.873 16.520 C 20.813 16.419,19.834 15.412,18.653 14.235 C 16.748 12.338,16.521 12.124,16.343 12.065 C 16.107 11.987,15.874 11.986,15.670 12.061 " stroke="none" fill-rule="evenodd" fill="black"></path></svg>