<svg width="24" height="24" viewBox="0 0 24 24" fill="none" xmlns="http://www.w3.org/2000/svg"><path d="M11.695 4.057 C 11.466 4.129,11.256 4.299,11.128 4.516 L 11.020 4.700 11.009 10.639 L 10.999 16.577 8.269 13.852 C 5.628 11.215,5.533 11.125,5.323 11.064 C 5.057 10.986,4.945 10.984,4.710 11.055 C 4.467 11.128,4.260 11.293,4.128 11.516 C 4.037 11.672,4.020 11.746,4.020 12.000 C 4.020 12.254,4.036 12.328,4.127 12.480 C 4.263 12.707,11.368 19.805,11.560 19.905 C 11.754 20.007,12.246 20.007,12.440 19.905 C 12.632 19.805,19.737 12.707,19.873 12.480 C 19.964 12.328,19.980 12.254,19.980 12.000 C 19.980 11.746,19.963 11.672,19.872 11.516 C 19.740 11.293,19.533 11.128,19.290 11.055 C 19.055 10.984,18.943 10.986,18.677 11.064 C 18.467 11.125,18.372 11.215,15.731 13.852 L 13.001 16.577 12.991 10.639 L 12.980 4.700 12.872 4.516 C 12.628 4.101,12.150 3.915,11.695 4.057 " stroke="none" fill-rule="evenodd" fill="black"></path></svg>