<svg width="24" height="24" viewBox="0 0 24 24" fill="none" xmlns="http://www.w3.org/2000/svg"><path d="M11.280 1.023 C 11.203 1.032,10.951 1.059,10.720 1.083 C 9.216 1.243,7.644 1.781,6.303 2.595 C 5.532 3.063,4.956 3.521,4.238 4.239 C 3.277 5.198,2.698 5.998,2.140 7.140 C 1.086 9.295,0.756 11.637,1.176 13.980 C 1.591 16.293,2.820 18.506,4.592 20.129 C 5.341 20.816,6.442 21.562,6.825 21.641 C 7.236 21.726,7.681 21.502,7.892 21.103 C 8.011 20.876,8.012 20.444,7.892 20.220 C 7.778 20.006,7.657 19.899,7.160 19.580 C 5.740 18.668,4.667 17.464,3.920 15.943 C 3.284 14.648,3.025 13.508,3.024 12.000 C 3.022 10.510,3.279 9.380,3.920 8.060 C 4.799 6.247,6.247 4.799,8.060 3.920 C 9.379 3.280,10.507 3.023,12.000 3.023 C 13.493 3.023,14.621 3.280,15.940 3.920 C 17.753 4.799,19.201 6.247,20.080 8.060 C 20.721 9.380,20.978 10.510,20.976 12.000 C 20.975 13.527,20.695 14.729,20.037 16.030 C 19.307 17.476,18.273 18.633,16.900 19.541 C 16.309 19.932,16.212 20.017,16.100 20.236 C 15.748 20.933,16.410 21.800,17.175 21.641 C 17.431 21.588,17.982 21.259,18.620 20.780 C 21.352 18.725,22.998 15.447,22.999 12.060 C 23.001 9.609,22.246 7.345,20.767 5.360 C 20.317 4.755,19.247 3.686,18.640 3.235 C 17.045 2.049,15.365 1.360,13.423 1.096 C 13.000 1.038,11.574 0.990,11.280 1.023 M11.640 7.068 C 11.486 7.121,11.151 7.438,9.347 9.235 C 8.185 10.393,7.189 11.416,7.134 11.508 C 6.862 11.968,7.032 12.587,7.508 12.867 C 7.673 12.964,7.742 12.980,8.000 12.979 C 8.213 12.979,8.341 12.957,8.440 12.905 C 8.517 12.864,9.125 12.289,9.790 11.626 L 11.000 10.422 11.002 16.301 C 11.003 21.108,11.013 22.207,11.057 22.330 C 11.136 22.551,11.298 22.744,11.511 22.869 C 11.672 22.964,11.744 22.980,12.000 22.980 C 12.254 22.980,12.328 22.963,12.484 22.872 C 12.585 22.813,12.716 22.700,12.775 22.623 C 13.013 22.311,13.000 22.677,13.000 16.286 L 13.000 10.422 14.210 11.626 C 14.876 12.289,15.483 12.864,15.560 12.905 C 15.659 12.957,15.787 12.979,16.000 12.979 C 16.258 12.980,16.327 12.964,16.492 12.867 C 16.968 12.587,17.138 11.968,16.866 11.508 C 16.811 11.416,15.815 10.393,14.653 9.235 C 12.748 7.338,12.521 7.124,12.343 7.065 C 12.102 6.985,11.878 6.986,11.640 7.068 " stroke="none" fill-rule="evenodd" fill="black"></path></svg>