<svg width="24" height="24" viewBox="0 0 24 24" fill="none" xmlns="http://www.w3.org/2000/svg"><path d="M9.695 5.057 C 9.466 5.129,9.256 5.299,9.128 5.516 C 9.037 5.672,9.020 5.746,9.020 6.000 C 9.020 6.256,9.036 6.328,9.131 6.489 C 9.256 6.702,9.449 6.864,9.670 6.943 C 9.790 6.986,10.399 6.997,12.700 6.998 L 15.580 7.000 10.374 12.210 C 7.511 15.076,5.135 17.483,5.095 17.560 C 5.043 17.659,5.021 17.788,5.021 18.000 C 5.020 18.258,5.036 18.327,5.133 18.492 C 5.263 18.714,5.502 18.901,5.736 18.965 C 5.938 19.019,6.266 18.989,6.445 18.899 C 6.519 18.862,8.924 16.490,11.789 13.627 L 16.998 8.422 17.009 11.364 L 17.020 14.306 17.141 14.503 C 17.543 15.156,18.457 15.156,18.859 14.503 L 18.980 14.306 18.980 10.003 L 18.980 5.700 18.872 5.516 C 18.813 5.415,18.700 5.284,18.623 5.225 C 18.315 4.990,18.518 5.000,14.005 5.003 C 10.733 5.005,9.825 5.016,9.695 5.057 " stroke="none" fill-rule="evenodd" fill="black"></path></svg>