<svg width="24" height="24" viewBox="0 0 24 24" fill="none" xmlns="http://www.w3.org/2000/svg"><path d="M5.920 2.041 C 5.151 2.092,4.672 2.205,4.180 2.451 C 3.089 2.996,2.357 3.961,2.124 5.160 C 2.013 5.729,2.000 6.455,2.000 12.000 C 2.000 18.358,2.006 18.526,2.245 19.320 C 2.577 20.422,3.578 21.423,4.680 21.755 C 5.474 21.994,5.642 22.000,12.000 22.000 C 18.358 22.000,18.526 21.994,19.320 21.755 C 20.422 21.423,21.423 20.422,21.755 19.320 C 21.994 18.526,22.000 18.358,22.000 12.000 C 22.000 5.642,21.994 5.474,21.755 4.680 C 21.424 3.581,20.465 2.622,19.320 2.246 C 18.644 2.024,18.800 2.029,12.340 2.019 C 9.062 2.014,6.173 2.024,5.920 2.041 M18.492 4.091 C 18.894 4.188,19.109 4.309,19.400 4.600 C 19.696 4.895,19.814 5.109,19.912 5.528 C 19.975 5.797,19.980 6.313,19.980 12.000 C 19.980 17.687,19.975 18.203,19.912 18.472 C 19.814 18.891,19.696 19.104,19.400 19.401 C 19.101 19.701,18.820 19.851,18.418 19.928 C 18.010 20.005,5.990 20.005,5.582 19.927 C 5.170 19.850,4.898 19.704,4.600 19.403 C 4.303 19.104,4.186 18.890,4.088 18.472 C 4.025 18.203,4.020 17.687,4.020 12.000 C 4.020 6.313,4.025 5.797,4.088 5.528 C 4.175 5.155,4.294 4.918,4.520 4.667 C 4.883 4.262,5.282 4.091,5.980 4.039 C 6.200 4.023,9.044 4.013,12.300 4.018 C 17.643 4.024,18.247 4.032,18.492 4.091 M8.670 8.061 C 8.448 8.142,8.250 8.309,8.128 8.516 C 8.036 8.672,8.020 8.745,8.021 9.000 C 8.021 9.212,8.043 9.341,8.095 9.440 C 8.135 9.517,9.161 10.575,10.374 11.790 L 12.579 14.000 10.736 14.000 C 8.735 14.000,8.663 14.007,8.382 14.221 C 8.302 14.282,8.187 14.415,8.128 14.516 C 8.037 14.672,8.020 14.746,8.020 15.000 C 8.020 15.256,8.036 15.328,8.131 15.489 C 8.256 15.702,8.449 15.864,8.670 15.943 C 8.891 16.022,15.109 16.022,15.330 15.943 C 15.551 15.864,15.744 15.702,15.869 15.489 L 15.980 15.300 15.980 12.000 L 15.980 8.700 15.871 8.514 C 15.648 8.134,15.208 7.941,14.786 8.035 C 14.515 8.096,14.270 8.275,14.129 8.514 L 14.020 8.700 14.009 10.637 L 13.997 12.575 11.769 10.353 C 9.755 8.346,9.521 8.124,9.343 8.065 C 9.107 7.987,8.874 7.986,8.670 8.061 " stroke="none" fill-rule="evenodd" fill="black"></path></svg>