<svg width="24" height="24" viewBox="0 0 24 24" fill="none" xmlns="http://www.w3.org/2000/svg"><path d="M5.920 2.041 C 5.151 2.092,4.672 2.205,4.180 2.451 C 3.089 2.996,2.357 3.961,2.124 5.160 C 2.013 5.729,2.000 6.455,2.000 12.000 C 2.000 18.358,2.006 18.526,2.245 19.320 C 2.577 20.422,3.578 21.423,4.680 21.755 C 5.474 21.994,5.642 22.000,12.000 22.000 C 18.358 22.000,18.526 21.994,19.320 21.755 C 20.422 21.423,21.423 20.422,21.755 19.320 C 21.994 18.526,22.000 18.358,22.000 12.000 C 22.000 5.642,21.994 5.474,21.755 4.680 C 21.424 3.581,20.465 2.622,19.320 2.246 C 18.644 2.024,18.800 2.029,12.340 2.019 C 9.062 2.014,6.173 2.024,5.920 2.041 M18.492 4.091 C 18.894 4.188,19.109 4.309,19.400 4.600 C 19.696 4.895,19.814 5.109,19.912 5.528 C 19.975 5.797,19.980 6.313,19.980 12.000 C 19.980 17.687,19.975 18.203,19.912 18.472 C 19.814 18.891,19.696 19.104,19.400 19.401 C 19.101 19.701,18.820 19.851,18.418 19.928 C 18.010 20.005,5.990 20.005,5.582 19.927 C 5.170 19.850,4.898 19.704,4.600 19.403 C 4.303 19.104,4.186 18.890,4.088 18.472 C 4.025 18.203,4.020 17.687,4.020 12.000 C 4.020 6.313,4.025 5.797,4.088 5.528 C 4.175 5.155,4.294 4.918,4.520 4.667 C 4.883 4.262,5.282 4.091,5.980 4.039 C 6.200 4.023,9.044 4.013,12.300 4.018 C 17.643 4.024,18.247 4.032,18.492 4.091 M8.695 8.057 C 8.466 8.129,8.256 8.299,8.128 8.516 C 8.037 8.672,8.020 8.746,8.020 9.000 C 8.020 9.256,8.036 9.328,8.131 9.489 C 8.256 9.702,8.449 9.864,8.670 9.943 C 8.787 9.985,9.234 9.997,10.700 9.998 L 12.579 10.000 10.374 12.210 C 9.161 13.425,8.138 14.481,8.101 14.555 C 7.872 15.010,8.056 15.601,8.508 15.867 C 8.673 15.964,8.742 15.980,9.000 15.979 C 9.212 15.979,9.341 15.957,9.440 15.905 C 9.517 15.865,10.574 14.840,11.789 13.628 L 13.997 11.424 14.009 13.365 L 14.020 15.306 14.141 15.503 C 14.543 16.156,15.457 16.156,15.859 15.503 L 15.980 15.306 15.980 12.003 L 15.980 8.700 15.872 8.516 C 15.740 8.293,15.533 8.128,15.290 8.055 C 15.030 7.977,8.945 7.979,8.695 8.057 " stroke="none" fill-rule="evenodd" fill="black"></path></svg>