<svg width="24" height="24" viewBox="0 0 24 24" fill="none" xmlns="http://www.w3.org/2000/svg"><path d="M11.052 1.041 C 8.453 1.293,6.178 2.337,4.349 4.116 C 2.571 5.846,1.491 7.962,1.100 10.480 C 0.998 11.140,0.976 12.423,1.056 13.122 C 1.125 13.726,1.272 14.507,1.385 14.869 C 1.601 15.559,2.442 15.808,2.986 15.343 C 3.324 15.053,3.395 14.740,3.258 14.135 C 3.069 13.299,3.022 12.870,3.022 12.000 C 3.022 10.875,3.137 10.155,3.486 9.100 C 3.676 8.524,4.147 7.549,4.462 7.080 C 5.389 5.696,6.612 4.622,8.060 3.920 C 9.379 3.280,10.507 3.023,12.000 3.023 C 13.493 3.023,14.621 3.280,15.940 3.920 C 17.756 4.800,19.189 6.234,20.079 8.060 C 20.719 9.372,20.977 10.504,20.977 12.000 C 20.977 13.496,20.719 14.628,20.079 15.940 C 18.845 18.472,16.545 20.255,13.789 20.816 C 12.557 21.067,11.399 21.066,10.220 20.813 C 9.956 20.756,9.612 20.701,9.457 20.691 C 9.209 20.674,9.147 20.685,8.971 20.775 C 8.720 20.901,8.536 21.118,8.459 21.377 C 8.385 21.626,8.385 21.696,8.463 21.958 C 8.508 22.109,8.580 22.223,8.713 22.356 C 8.926 22.569,9.074 22.626,9.821 22.780 C 13.004 23.436,16.353 22.613,18.922 20.545 C 19.773 19.860,20.739 18.770,21.338 17.820 C 21.626 17.362,22.112 16.376,22.299 15.867 C 23.231 13.335,23.231 10.665,22.299 8.133 C 22.112 7.624,21.626 6.638,21.338 6.180 C 20.598 5.006,19.481 3.827,18.336 3.011 C 16.973 2.040,15.296 1.373,13.580 1.120 C 12.938 1.025,11.634 0.984,11.052 1.041 M8.695 8.057 C 8.466 8.129,8.256 8.299,8.128 8.516 C 8.037 8.672,8.020 8.746,8.020 9.000 C 8.020 9.256,8.036 9.328,8.131 9.489 C 8.256 9.702,8.449 9.864,8.670 9.943 C 8.787 9.985,9.234 9.997,10.700 9.998 L 12.579 10.000 8.374 14.210 C 6.061 16.526,4.135 18.483,4.095 18.560 C 4.043 18.659,4.021 18.788,4.021 19.000 C 4.020 19.258,4.036 19.327,4.133 19.492 C 4.263 19.714,4.502 19.901,4.736 19.965 C 4.938 20.019,5.266 19.989,5.445 19.899 C 5.519 19.862,7.474 17.940,9.789 15.628 L 13.997 11.423 14.009 13.365 L 14.020 15.306 14.141 15.503 C 14.543 16.156,15.457 16.156,15.859 15.503 L 15.980 15.306 15.980 12.003 L 15.980 8.700 15.872 8.516 C 15.740 8.293,15.533 8.128,15.290 8.055 C 15.030 7.977,8.945 7.979,8.695 8.057 " stroke="none" fill-rule="evenodd" fill="black"></path></svg>