<svg width="24" height="24" viewBox="0 0 24 24" fill="none" xmlns="http://www.w3.org/2000/svg"><path d="M6.695 3.057 C 6.466 3.129,6.256 3.299,6.128 3.516 L 6.020 3.700 6.010 10.638 L 5.999 17.575 4.770 16.354 C 3.688 15.279,3.516 15.124,3.343 15.066 C 2.863 14.905,2.382 15.084,2.128 15.516 C 2.037 15.672,2.020 15.746,2.020 16.000 C 2.020 16.254,2.036 16.328,2.127 16.480 C 2.261 16.705,6.368 20.805,6.560 20.905 C 6.660 20.957,6.787 20.978,7.000 20.978 C 7.213 20.978,7.340 20.957,7.440 20.905 C 7.632 20.805,11.739 16.705,11.873 16.480 C 11.964 16.328,11.980 16.254,11.980 16.000 C 11.980 15.746,11.963 15.672,11.872 15.516 C 11.618 15.084,11.137 14.905,10.657 15.066 C 10.484 15.124,10.312 15.279,9.230 16.354 L 8.001 17.575 7.990 10.638 L 7.980 3.700 7.872 3.516 C 7.628 3.101,7.150 2.915,6.695 3.057 M16.695 3.057 C 16.466 3.129,16.256 3.299,16.128 3.516 L 16.020 3.700 16.009 8.137 L 15.999 12.575 14.769 11.353 C 13.688 10.279,13.516 10.124,13.343 10.066 C 12.863 9.905,12.382 10.084,12.128 10.516 C 12.036 10.672,12.020 10.745,12.021 11.000 C 12.021 11.212,12.043 11.341,12.095 11.440 C 12.195 11.632,16.295 15.739,16.520 15.873 C 16.672 15.964,16.746 15.980,17.000 15.980 C 17.254 15.980,17.328 15.964,17.480 15.873 C 17.705 15.739,21.805 11.632,21.905 11.440 C 21.957 11.341,21.979 11.212,21.979 11.000 C 21.980 10.745,21.964 10.672,21.872 10.516 C 21.618 10.084,21.137 9.905,20.657 10.066 C 20.484 10.124,20.312 10.279,19.231 11.353 L 18.001 12.575 17.991 8.137 L 17.980 3.700 17.872 3.516 C 17.628 3.101,17.150 2.915,16.695 3.057 " stroke="none" fill-rule="evenodd" fill="black"></path></svg>