<svg width="24" height="24" viewBox="0 0 24 24" fill="none" xmlns="http://www.w3.org/2000/svg"><path d="M5.920 2.041 C 5.151 2.092,4.672 2.205,4.180 2.451 C 3.089 2.996,2.357 3.961,2.124 5.160 C 2.013 5.729,2.000 6.455,2.000 12.000 C 2.000 18.358,2.006 18.526,2.245 19.320 C 2.577 20.422,3.578 21.423,4.680 21.755 C 5.474 21.994,5.642 22.000,12.000 22.000 C 18.358 22.000,18.526 21.994,19.320 21.755 C 20.422 21.423,21.423 20.422,21.755 19.320 C 21.994 18.526,22.000 18.358,22.000 12.000 C 22.000 5.642,21.994 5.474,21.755 4.680 C 21.424 3.581,20.465 2.622,19.320 2.246 C 18.644 2.024,18.800 2.029,12.340 2.019 C 9.062 2.014,6.173 2.024,5.920 2.041 M18.492 4.091 C 18.894 4.188,19.109 4.309,19.400 4.600 C 19.696 4.895,19.814 5.109,19.912 5.528 C 19.975 5.797,19.980 6.313,19.980 12.000 C 19.980 17.687,19.975 18.203,19.912 18.472 C 19.814 18.891,19.696 19.104,19.400 19.401 C 19.101 19.701,18.820 19.851,18.418 19.928 C 18.010 20.005,5.990 20.005,5.582 19.927 C 5.170 19.850,4.898 19.704,4.600 19.403 C 4.303 19.104,4.186 18.890,4.088 18.472 C 4.025 18.203,4.020 17.687,4.020 12.000 C 4.020 6.313,4.025 5.797,4.088 5.528 C 4.175 5.155,4.294 4.918,4.520 4.667 C 4.883 4.262,5.282 4.091,5.980 4.039 C 6.200 4.023,9.044 4.013,12.300 4.018 C 17.643 4.024,18.247 4.032,18.492 4.091 M8.695 8.057 C 8.466 8.129,8.256 8.299,8.128 8.516 L 8.020 8.700 8.020 12.003 L 8.020 15.306 8.141 15.503 C 8.543 16.156,9.457 16.156,9.859 15.503 L 9.980 15.306 9.991 13.365 L 10.003 11.424 12.211 13.628 C 13.426 14.840,14.481 15.862,14.555 15.899 C 15.010 16.128,15.601 15.944,15.867 15.492 C 15.964 15.327,15.980 15.258,15.979 15.000 C 15.979 14.788,15.957 14.659,15.905 14.560 C 15.865 14.483,14.839 13.425,13.626 12.210 L 11.421 10.000 13.300 9.998 C 14.766 9.997,15.213 9.985,15.330 9.943 C 15.551 9.864,15.744 9.702,15.869 9.489 C 15.964 9.328,15.980 9.256,15.980 9.000 C 15.980 8.746,15.963 8.672,15.872 8.516 C 15.740 8.293,15.533 8.128,15.290 8.055 C 15.030 7.977,8.945 7.979,8.695 8.057 " stroke="none" fill-rule="evenodd" fill="black"></path></svg>