<svg width="24" height="24" viewBox="0 0 24 24" fill="none" xmlns="http://www.w3.org/2000/svg"><path d="M11.280 1.023 C 11.203 1.032,10.951 1.059,10.720 1.083 C 9.527 1.210,8.337 1.558,7.180 2.120 C 6.045 2.671,5.193 3.285,4.238 4.239 C 3.277 5.198,2.643 6.080,2.097 7.220 C 0.301 10.968,0.728 15.286,3.226 18.633 C 3.701 19.269,4.753 20.316,5.400 20.797 C 9.364 23.745,14.666 23.734,18.637 20.770 C 19.246 20.316,20.316 19.246,20.770 18.637 C 23.744 14.652,23.744 9.348,20.770 5.363 C 20.316 4.755,19.247 3.686,18.640 3.235 C 17.045 2.049,15.365 1.360,13.423 1.096 C 13.000 1.038,11.574 0.990,11.280 1.023 M13.320 3.101 C 15.883 3.488,18.124 4.931,19.560 7.120 C 19.863 7.583,20.303 8.479,20.492 9.020 C 20.838 10.013,20.977 10.865,20.977 12.000 C 20.977 13.493,20.720 14.621,20.080 15.940 C 19.375 17.394,18.311 18.607,16.927 19.532 C 16.138 20.060,14.876 20.588,13.908 20.797 C 11.266 21.366,8.479 20.708,6.370 19.019 C 4.857 17.807,3.722 16.029,3.267 14.160 C 3.081 13.397,3.023 12.888,3.023 12.000 C 3.023 10.507,3.280 9.379,3.920 8.060 C 4.971 5.891,6.877 4.221,9.160 3.466 C 9.865 3.233,10.432 3.118,11.340 3.024 C 11.662 2.991,12.911 3.039,13.320 3.101 M8.695 8.057 C 8.466 8.129,8.256 8.299,8.128 8.516 C 8.037 8.672,8.020 8.746,8.020 9.000 C 8.020 9.256,8.036 9.328,8.131 9.489 C 8.256 9.702,8.449 9.864,8.670 9.943 C 8.787 9.985,9.234 9.997,10.700 9.998 L 12.579 10.000 10.374 12.210 C 9.161 13.425,8.138 14.481,8.101 14.555 C 7.872 15.010,8.056 15.601,8.508 15.867 C 8.673 15.964,8.742 15.980,9.000 15.979 C 9.212 15.979,9.341 15.957,9.440 15.905 C 9.517 15.865,10.574 14.840,11.789 13.628 L 13.997 11.424 14.009 13.365 L 14.020 15.306 14.141 15.503 C 14.543 16.156,15.457 16.156,15.859 15.503 L 15.980 15.306 15.980 12.003 L 15.980 8.700 15.872 8.516 C 15.740 8.293,15.533 8.128,15.290 8.055 C 15.030 7.977,8.945 7.979,8.695 8.057 " stroke="none" fill-rule="evenodd" fill="black"></path></svg>