<svg width="24" height="24" viewBox="0 0 24 24" fill="none" xmlns="http://www.w3.org/2000/svg"><path d="M6.695 6.057 C 6.466 6.129,6.256 6.299,6.128 6.516 C 6.036 6.672,6.020 6.745,6.021 7.000 C 6.021 7.212,6.043 7.341,6.095 7.440 C 6.135 7.517,8.061 9.474,10.374 11.790 L 14.579 16.000 10.736 16.000 C 6.565 16.000,6.680 15.994,6.382 16.221 C 6.302 16.282,6.187 16.415,6.128 16.516 C 6.037 16.672,6.020 16.746,6.020 17.000 C 6.020 17.256,6.036 17.328,6.131 17.489 C 6.256 17.702,6.449 17.864,6.670 17.943 C 6.892 18.022,17.108 18.022,17.330 17.943 C 17.551 17.864,17.744 17.702,17.869 17.489 L 17.980 17.300 17.980 12.000 L 17.980 6.700 17.871 6.514 C 17.479 5.848,16.521 5.848,16.129 6.514 L 16.020 6.700 16.009 10.639 L 15.998 14.577 11.769 10.352 C 7.646 6.232,7.535 6.125,7.323 6.063 C 7.066 5.988,6.919 5.987,6.695 6.057 " stroke="none" fill-rule="evenodd" fill="black"></path></svg>