<svg width="24" height="24" viewBox="0 0 24 24" fill="none" xmlns="http://www.w3.org/2000/svg"><path d="M5.920 2.041 C 5.151 2.092,4.672 2.205,4.180 2.451 C 3.089 2.996,2.357 3.961,2.124 5.160 C 2.013 5.729,2.000 6.455,2.000 12.000 C 2.000 18.358,2.006 18.526,2.245 19.320 C 2.577 20.422,3.578 21.423,4.680 21.755 C 5.474 21.994,5.642 22.000,12.000 22.000 C 18.358 22.000,18.526 21.994,19.320 21.755 C 20.422 21.423,21.423 20.422,21.755 19.320 C 21.994 18.526,22.000 18.358,22.000 12.000 C 22.000 5.642,21.994 5.474,21.755 4.680 C 21.424 3.581,20.465 2.622,19.320 2.246 C 18.644 2.024,18.800 2.029,12.340 2.019 C 9.062 2.014,6.173 2.024,5.920 2.041 M18.492 4.091 C 18.894 4.188,19.109 4.309,19.400 4.600 C 19.696 4.895,19.814 5.109,19.912 5.528 C 19.975 5.797,19.980 6.313,19.980 12.000 C 19.980 17.687,19.975 18.203,19.912 18.472 C 19.814 18.891,19.696 19.104,19.400 19.401 C 19.101 19.701,18.820 19.851,18.418 19.928 C 18.010 20.005,5.990 20.005,5.582 19.927 C 5.170 19.850,4.898 19.704,4.600 19.403 C 4.303 19.104,4.186 18.890,4.088 18.472 C 4.025 18.203,4.020 17.687,4.020 12.000 C 4.020 6.313,4.025 5.797,4.088 5.528 C 4.175 5.155,4.294 4.918,4.520 4.667 C 4.883 4.262,5.282 4.091,5.980 4.039 C 6.200 4.023,9.044 4.013,12.300 4.018 C 17.643 4.024,18.247 4.032,18.492 4.091 M11.695 7.057 C 11.466 7.129,11.256 7.299,11.128 7.516 L 11.020 7.700 11.009 10.637 L 10.998 13.574 9.769 12.351 C 8.610 11.199,8.528 11.125,8.323 11.064 C 8.057 10.986,7.946 10.984,7.710 11.055 C 7.467 11.128,7.260 11.293,7.128 11.516 C 7.037 11.672,7.020 11.746,7.020 12.000 C 7.020 12.254,7.036 12.328,7.127 12.480 C 7.261 12.705,11.368 16.805,11.560 16.905 C 11.754 17.007,12.246 17.007,12.440 16.905 C 12.632 16.805,16.739 12.705,16.873 12.480 C 16.964 12.328,16.980 12.254,16.980 12.000 C 16.980 11.746,16.963 11.672,16.872 11.516 C 16.740 11.293,16.533 11.128,16.290 11.055 C 16.054 10.984,15.943 10.986,15.677 11.064 C 15.472 11.125,15.390 11.199,14.231 12.351 L 13.002 13.574 12.991 10.637 L 12.980 7.700 12.872 7.516 C 12.628 7.101,12.150 6.915,11.695 7.057 " stroke="none" fill-rule="evenodd" fill="black"></path></svg>