<svg width="24" height="24" viewBox="0 0 24 24" fill="none" xmlns="http://www.w3.org/2000/svg"><path d="M11.100 1.041 C 8.337 1.267,5.756 2.535,3.871 4.592 C 3.221 5.300,2.450 6.427,2.361 6.794 C 2.285 7.115,2.396 7.469,2.647 7.706 C 2.869 7.915,3.029 7.978,3.340 7.978 C 3.820 7.978,3.939 7.884,4.463 7.095 C 5.399 5.687,6.575 4.648,8.057 3.920 C 9.352 3.284,10.492 3.025,12.000 3.024 C 13.490 3.022,14.620 3.279,15.940 3.920 C 17.753 4.799,19.201 6.247,20.080 8.060 C 20.720 9.379,20.977 10.507,20.977 12.000 C 20.977 13.493,20.720 14.621,20.080 15.940 C 18.711 18.765,15.992 20.645,12.820 20.963 C 12.235 21.022,11.222 20.993,10.640 20.900 C 9.718 20.754,8.906 20.497,8.060 20.082 C 6.579 19.356,5.401 18.316,4.463 16.905 C 3.938 16.114,3.818 16.020,3.340 16.023 C 3.008 16.026,2.807 16.114,2.592 16.352 C 2.310 16.664,2.264 17.079,2.466 17.471 C 2.814 18.147,3.553 19.107,4.264 19.810 C 7.584 23.088,12.530 23.926,16.740 21.923 C 17.881 21.380,18.805 20.719,19.762 19.762 C 20.719 18.805,21.380 17.881,21.923 16.740 C 23.698 13.010,23.261 8.707,20.767 5.360 C 20.317 4.755,19.247 3.686,18.640 3.235 C 17.045 2.049,15.360 1.358,13.423 1.096 C 12.872 1.022,11.684 0.994,11.100 1.041 M11.670 7.061 C 11.448 7.142,11.250 7.309,11.128 7.516 C 11.036 7.672,11.020 7.745,11.021 8.000 C 11.021 8.213,11.043 8.341,11.095 8.440 C 11.136 8.517,11.711 9.125,12.374 9.790 L 13.578 11.000 7.735 11.000 C 2.900 11.000,1.861 11.009,1.710 11.055 C 1.467 11.128,1.260 11.293,1.128 11.516 C 1.037 11.672,1.020 11.746,1.020 12.000 C 1.020 12.256,1.036 12.328,1.131 12.489 C 1.256 12.702,1.449 12.864,1.670 12.943 C 1.793 12.987,2.892 12.997,7.699 12.998 L 13.578 13.000 12.374 14.210 C 11.711 14.876,11.138 15.481,11.101 15.555 C 10.872 16.009,11.056 16.601,11.508 16.867 C 11.673 16.964,11.743 16.980,12.000 16.980 C 12.254 16.980,12.328 16.964,12.480 16.873 C 12.705 16.739,16.805 12.632,16.905 12.440 C 16.957 12.341,16.979 12.212,16.979 12.000 C 16.980 11.745,16.964 11.673,16.873 11.520 C 16.813 11.419,15.834 10.412,14.653 9.235 C 12.748 7.338,12.521 7.124,12.343 7.065 C 12.107 6.987,11.874 6.986,11.670 7.061 " stroke="none" fill-rule="evenodd" fill="black"></path></svg>