<svg width="24" height="24" viewBox="0 0 24 24" fill="none" xmlns="http://www.w3.org/2000/svg"><path d="M6.695 6.057 C 6.466 6.129,6.256 6.299,6.128 6.516 L 6.020 6.700 6.020 12.003 L 6.020 17.306 6.141 17.503 C 6.543 18.156,7.457 18.156,7.859 17.503 L 7.980 17.306 7.991 13.364 L 8.002 9.422 12.211 13.627 C 14.526 15.940,16.483 17.865,16.560 17.905 C 16.659 17.957,16.788 17.979,17.000 17.979 C 17.258 17.980,17.327 17.964,17.492 17.867 C 17.714 17.737,17.901 17.498,17.965 17.264 C 18.019 17.062,17.989 16.734,17.899 16.555 C 17.862 16.481,15.939 14.526,13.626 12.210 L 9.421 8.000 13.300 7.998 C 16.437 7.997,17.209 7.986,17.330 7.943 C 17.551 7.864,17.744 7.702,17.869 7.489 C 17.964 7.328,17.980 7.256,17.980 7.000 C 17.980 6.746,17.963 6.672,17.872 6.516 C 17.740 6.293,17.533 6.128,17.290 6.055 C 17.028 5.976,6.946 5.978,6.695 6.057 " stroke="none" fill-rule="evenodd" fill="black"></path></svg>