<svg width="24" height="24" viewBox="0 0 24 24" fill="none" xmlns="http://www.w3.org/2000/svg"><path d="M13.670 5.061 C 13.448 5.142,13.250 5.309,13.128 5.516 C 13.036 5.672,13.020 5.745,13.021 6.000 C 13.021 6.212,13.043 6.341,13.095 6.440 C 13.135 6.517,14.161 7.575,15.374 8.790 L 17.579 11.000 10.736 11.000 C 5.053 11.000,3.862 11.009,3.710 11.055 C 3.467 11.128,3.260 11.293,3.128 11.516 C 3.037 11.672,3.020 11.746,3.020 12.000 C 3.020 12.256,3.036 12.328,3.131 12.489 C 3.256 12.702,3.449 12.864,3.670 12.943 C 3.793 12.987,5.057 12.997,10.700 12.998 L 17.579 13.000 15.374 15.210 C 14.161 16.426,13.135 17.483,13.095 17.560 C 13.043 17.659,13.021 17.788,13.021 18.000 C 13.020 18.258,13.036 18.327,13.133 18.492 C 13.263 18.714,13.502 18.901,13.736 18.965 C 13.938 19.019,14.266 18.989,14.445 18.899 C 14.630 18.807,20.737 12.707,20.873 12.480 C 20.964 12.328,20.980 12.254,20.980 12.000 C 20.980 11.746,20.964 11.672,20.873 11.520 C 20.812 11.417,19.431 10.008,17.653 8.235 C 14.817 5.407,14.522 5.125,14.343 5.065 C 14.107 4.987,13.874 4.986,13.670 5.061 " stroke="none" fill-rule="evenodd" fill="black"></path></svg>