<svg width="24" height="24" viewBox="0 0 24 24" fill="none" xmlns="http://www.w3.org/2000/svg"><path d="M11.640 3.068 C 11.485 3.121,11.036 3.553,8.347 6.235 C 6.570 8.008,5.188 9.417,5.127 9.520 C 5.036 9.672,5.020 9.746,5.020 10.000 C 5.020 10.257,5.036 10.327,5.133 10.492 C 5.263 10.714,5.502 10.901,5.736 10.965 C 5.939 11.019,6.267 10.989,6.445 10.899 C 6.519 10.862,7.574 9.840,8.790 8.627 L 10.999 6.422 11.010 13.364 L 11.020 20.306 11.141 20.503 C 11.543 21.156,12.457 21.156,12.859 20.503 L 12.980 20.306 12.990 13.364 L 13.001 6.422 15.210 8.627 C 16.426 9.840,17.481 10.862,17.555 10.899 C 18.010 11.128,18.601 10.944,18.867 10.492 C 18.964 10.327,18.980 10.257,18.980 10.000 C 18.980 9.746,18.964 9.672,18.873 9.520 C 18.812 9.417,17.431 8.008,15.653 6.235 C 12.817 3.407,12.522 3.125,12.343 3.065 C 12.102 2.986,11.878 2.986,11.640 3.068 " stroke="none" fill-rule="evenodd" fill="black"></path></svg>