<svg width="24" height="24" viewBox="0 0 24 24" fill="none" xmlns="http://www.w3.org/2000/svg"><path d="M13.650 4.067 C 13.556 4.100,13.400 4.206,13.304 4.303 C 13.004 4.602,13.000 4.632,13.000 6.427 L 13.000 8.000 8.225 8.000 C 5.167 8.000,3.373 8.015,3.235 8.041 C 2.744 8.133,2.357 8.431,2.144 8.880 L 2.020 9.140 2.020 12.000 L 2.020 14.860 2.144 15.120 C 2.301 15.450,2.550 15.699,2.880 15.856 L 3.140 15.980 8.070 15.991 L 13.000 16.002 13.002 17.591 C 13.003 18.813,13.016 19.215,13.057 19.330 C 13.241 19.845,13.795 20.112,14.325 19.940 C 14.530 19.874,14.713 19.698,18.153 16.265 C 20.229 14.194,21.811 12.583,21.873 12.480 C 21.964 12.328,21.980 12.254,21.980 12.000 C 21.980 11.746,21.964 11.672,21.873 11.520 C 21.811 11.417,20.229 9.807,18.153 7.735 C 14.851 4.441,14.523 4.125,14.343 4.065 C 14.103 3.986,13.876 3.986,13.650 4.067 M17.300 14.280 L 15.020 16.561 15.000 15.630 C 14.980 14.708,14.979 14.698,14.872 14.516 C 14.740 14.293,14.533 14.128,14.290 14.055 C 14.139 14.010,13.220 14.000,9.054 14.000 L 4.000 14.000 4.000 12.000 L 4.000 10.000 9.090 9.998 C 13.238 9.997,14.208 9.987,14.330 9.943 C 14.551 9.864,14.744 9.702,14.869 9.489 L 14.980 9.300 14.993 8.363 L 15.005 7.426 17.293 9.713 L 19.580 12.000 17.300 14.280 " stroke="none" fill-rule="evenodd" fill="black"></path></svg>