<svg width="24" height="24" viewBox="0 0 24 24" fill="none" xmlns="http://www.w3.org/2000/svg"><path d="M11.640 4.068 C 11.484 4.121,10.978 4.610,7.847 7.735 C 5.860 9.718,4.189 11.416,4.135 11.508 C 3.862 11.967,4.032 12.587,4.508 12.867 C 4.673 12.964,4.742 12.980,5.000 12.979 C 5.212 12.979,5.341 12.957,5.440 12.905 C 5.517 12.865,6.799 11.615,8.289 10.127 L 10.999 7.422 11.009 13.364 L 11.020 19.306 11.141 19.503 C 11.543 20.156,12.457 20.156,12.859 19.503 L 12.980 19.306 12.991 13.364 L 13.001 7.422 15.711 10.127 C 17.201 11.615,18.483 12.865,18.560 12.905 C 18.659 12.957,18.788 12.979,19.000 12.979 C 19.258 12.980,19.327 12.964,19.492 12.867 C 19.968 12.587,20.138 11.967,19.865 11.508 C 19.811 11.416,18.140 9.718,16.153 7.735 C 12.851 4.441,12.523 4.125,12.343 4.065 C 12.102 3.986,11.878 3.986,11.640 4.068 " stroke="none" fill-rule="evenodd" fill="black"></path></svg>