<svg width="24" height="24" viewBox="0 0 24 24" fill="none" xmlns="http://www.w3.org/2000/svg"><path d="M11.695 1.057 C 11.466 1.129,11.256 1.299,11.128 1.516 L 11.020 1.700 11.009 5.639 L 10.998 9.577 8.249 6.835 C 6.377 4.968,5.450 4.070,5.343 4.021 C 5.140 3.929,4.751 3.926,4.540 4.016 C 4.069 4.217,3.834 4.721,3.979 5.224 C 4.046 5.460,4.051 5.464,6.812 8.230 L 9.578 11.000 5.735 11.000 C 1.565 11.000,1.680 10.994,1.382 11.221 C 1.302 11.282,1.187 11.415,1.128 11.516 C 1.037 11.672,1.020 11.746,1.020 12.000 C 1.020 12.256,1.036 12.328,1.131 12.489 C 1.256 12.702,1.449 12.864,1.670 12.943 C 1.791 12.986,2.563 12.997,5.699 12.998 L 9.578 13.000 6.812 15.770 C 4.051 18.536,4.046 18.540,3.979 18.776 C 3.867 19.164,3.961 19.517,4.246 19.786 C 4.532 20.054,4.846 20.130,5.224 20.021 C 5.460 19.954,5.464 19.949,8.229 17.188 L 10.998 14.423 11.009 18.365 L 11.020 22.306 11.141 22.503 C 11.543 23.156,12.457 23.156,12.859 22.503 L 12.980 22.306 12.991 18.365 L 13.002 14.423 15.771 17.188 C 18.536 19.949,18.540 19.954,18.776 20.021 C 19.154 20.130,19.468 20.054,19.754 19.786 C 20.039 19.517,20.133 19.164,20.021 18.776 C 19.954 18.540,19.949 18.536,17.188 15.770 L 14.422 13.000 18.301 12.998 C 21.437 12.997,22.209 12.986,22.330 12.943 C 22.551 12.864,22.744 12.702,22.869 12.489 C 22.964 12.328,22.980 12.256,22.980 12.000 C 22.980 11.746,22.963 11.672,22.872 11.516 C 22.813 11.415,22.698 11.282,22.618 11.221 C 22.320 10.994,22.435 11.000,18.265 11.000 L 14.422 11.000 17.188 8.230 C 19.949 5.464,19.954 5.460,20.021 5.224 C 20.166 4.721,19.931 4.217,19.460 4.016 C 19.249 3.926,18.860 3.929,18.657 4.021 C 18.550 4.070,17.623 4.968,15.751 6.835 L 13.002 9.577 12.991 5.639 L 12.980 1.700 12.872 1.516 C 12.628 1.101,12.150 0.915,11.695 1.057 " stroke="none" fill-rule="evenodd" fill="black"></path></svg>