<svg width="24" height="24" viewBox="0 0 24 24" fill="none" xmlns="http://www.w3.org/2000/svg"><path d="M11.695 3.057 C 11.466 3.129,11.256 3.299,11.128 3.516 L 11.020 3.700 11.009 6.638 L 10.998 9.576 8.769 7.353 C 6.755 5.346,6.521 5.124,6.343 5.065 C 5.862 4.906,5.382 5.084,5.128 5.516 C 5.036 5.672,5.020 5.745,5.021 6.000 C 5.021 6.212,5.043 6.341,5.095 6.440 C 5.135 6.517,6.161 7.574,7.374 8.790 L 9.579 11.000 6.736 11.000 C 3.651 11.000,3.674 10.998,3.382 11.221 C 3.302 11.282,3.187 11.415,3.128 11.516 C 3.037 11.672,3.020 11.746,3.020 12.000 C 3.020 12.256,3.036 12.328,3.131 12.489 C 3.256 12.702,3.449 12.864,3.670 12.943 C 3.790 12.986,4.399 12.997,6.700 12.998 L 9.579 13.000 7.374 15.210 C 6.161 16.425,5.135 17.483,5.095 17.560 C 5.043 17.659,5.021 17.788,5.021 18.000 C 5.020 18.258,5.036 18.327,5.133 18.492 C 5.263 18.714,5.502 18.901,5.736 18.965 C 5.939 19.019,6.267 18.989,6.445 18.899 C 6.519 18.862,7.574 17.840,8.789 16.627 L 10.998 14.423 11.009 17.365 L 11.020 20.306 11.141 20.503 C 11.543 21.156,12.457 21.156,12.859 20.503 L 12.980 20.306 12.991 17.365 L 13.002 14.423 15.211 16.627 C 16.426 17.840,17.481 18.862,17.555 18.899 C 18.010 19.128,18.601 18.944,18.867 18.492 C 18.964 18.327,18.980 18.258,18.979 18.000 C 18.979 17.788,18.957 17.659,18.905 17.560 C 18.865 17.483,17.839 16.425,16.626 15.210 L 14.421 13.000 17.300 12.998 C 19.601 12.997,20.210 12.986,20.330 12.943 C 20.551 12.864,20.744 12.702,20.869 12.489 C 20.964 12.328,20.980 12.256,20.980 12.000 C 20.980 11.746,20.963 11.672,20.872 11.516 C 20.813 11.415,20.698 11.282,20.618 11.221 C 20.326 10.998,20.349 11.000,17.264 11.000 L 14.421 11.000 16.626 8.790 C 17.839 7.575,18.865 6.517,18.905 6.440 C 18.957 6.341,18.979 6.212,18.979 6.000 C 18.980 5.745,18.964 5.672,18.872 5.516 C 18.618 5.084,18.138 4.906,17.657 5.065 C 17.479 5.124,17.245 5.346,15.231 7.353 L 13.002 9.576 12.991 6.638 L 12.980 3.700 12.872 3.516 C 12.628 3.101,12.150 2.915,11.695 3.057 " stroke="none" fill-rule="evenodd" fill="black"></path></svg>