<svg width="24" height="24" viewBox="0 0 24 24" fill="none" xmlns="http://www.w3.org/2000/svg"><path d="M5.100 1.827 C 3.054 2.001,1.806 3.401,1.801 5.528 C 1.797 7.148,2.579 9.321,3.960 11.531 C 4.114 11.778,4.231 12.004,4.220 12.034 C 4.209 12.064,4.084 12.272,3.943 12.497 C 2.589 14.654,1.797 16.863,1.801 18.472 C 1.804 19.822,2.334 20.940,3.271 21.573 C 4.757 22.576,7.096 22.355,9.920 20.943 C 10.578 20.614,11.295 20.205,11.728 19.914 C 11.853 19.829,11.974 19.760,11.996 19.760 C 12.019 19.760,12.186 19.857,12.369 19.976 C 13.969 21.017,15.829 21.811,17.316 22.088 C 17.874 22.192,18.951 22.212,19.340 22.126 C 20.525 21.865,21.307 21.303,21.777 20.376 C 22.074 19.791,22.178 19.284,22.176 18.440 C 22.175 17.687,22.098 17.184,21.858 16.356 C 21.506 15.144,20.680 13.408,19.914 12.272 C 19.829 12.147,19.760 12.024,19.760 12.000 C 19.760 11.976,19.829 11.853,19.914 11.728 C 20.680 10.592,21.506 8.856,21.858 7.644 C 22.098 6.816,22.175 6.313,22.176 5.560 C 22.179 4.506,21.966 3.777,21.466 3.127 C 20.454 1.813,18.630 1.474,16.280 2.164 C 15.156 2.494,13.591 3.239,12.369 4.027 C 12.186 4.144,12.020 4.240,12.000 4.240 C 11.980 4.240,11.814 4.144,11.631 4.027 C 9.271 2.507,6.818 1.681,5.100 1.827 M6.536 3.925 C 7.476 4.120,8.851 4.692,9.914 5.330 C 10.184 5.492,10.237 5.539,10.194 5.579 C 10.164 5.606,9.978 5.761,9.780 5.923 C 8.461 7.007,6.925 8.547,5.858 9.854 C 5.686 10.064,5.533 10.228,5.517 10.218 C 5.502 10.209,5.390 10.025,5.269 9.810 C 4.178 7.869,3.669 6.203,3.837 5.120 C 3.952 4.383,4.343 3.967,5.042 3.843 C 5.349 3.788,6.064 3.828,6.536 3.925 M18.897 3.842 C 19.248 3.892,19.590 4.045,19.773 4.233 C 20.345 4.821,20.320 6.140,19.706 7.769 C 19.459 8.426,19.029 9.314,18.670 9.914 C 18.508 10.184,18.461 10.237,18.421 10.194 C 18.394 10.164,18.239 9.978,18.077 9.780 C 16.992 8.459,15.247 6.729,14.030 5.766 C 13.881 5.649,13.769 5.538,13.779 5.521 C 13.799 5.489,14.363 5.165,14.820 4.923 C 15.255 4.692,16.095 4.330,16.537 4.182 C 17.504 3.858,18.259 3.749,18.897 3.842 M12.584 7.167 C 14.114 8.397,15.610 9.893,16.833 11.417 C 17.079 11.724,17.280 11.986,17.280 12.000 C 17.280 12.046,16.389 13.136,15.923 13.660 C 15.326 14.330,14.321 15.336,13.660 15.924 C 13.118 16.407,12.049 17.280,12.000 17.280 C 11.955 17.280,10.905 16.426,10.381 15.963 C 9.751 15.407,8.653 14.310,8.076 13.660 C 7.593 13.116,6.720 12.048,6.720 12.000 C 6.720 11.985,6.921 11.722,7.167 11.416 C 8.400 9.881,9.881 8.400,11.416 7.167 C 11.722 6.921,11.985 6.720,12.000 6.720 C 12.015 6.720,12.278 6.921,12.584 7.167 M11.516 10.577 C 10.981 10.782,10.595 11.250,10.523 11.782 C 10.363 12.963,11.527 13.835,12.632 13.360 C 12.918 13.237,13.283 12.843,13.399 12.533 C 13.518 12.217,13.518 11.784,13.400 11.469 C 13.287 11.167,12.963 10.815,12.655 10.659 C 12.455 10.558,12.372 10.541,12.042 10.532 C 11.789 10.525,11.611 10.540,11.516 10.577 M5.903 14.200 C 6.984 15.514,8.486 17.016,9.800 18.097 C 10.009 18.269,10.196 18.424,10.215 18.441 C 10.257 18.480,10.046 18.616,9.420 18.951 C 8.413 19.491,7.341 19.909,6.505 20.087 C 5.910 20.214,5.120 20.214,4.751 20.087 C 3.907 19.796,3.631 18.916,3.927 17.460 C 4.129 16.459,4.742 15.024,5.469 13.846 C 5.501 13.794,5.542 13.767,5.559 13.786 C 5.576 13.805,5.731 13.991,5.903 14.200 M18.672 14.090 C 19.030 14.686,19.459 15.576,19.706 16.231 C 19.969 16.928,20.097 17.444,20.163 18.071 C 20.276 19.158,19.968 19.839,19.249 20.087 C 18.876 20.215,18.091 20.214,17.482 20.084 C 16.653 19.908,15.558 19.480,14.572 18.948 C 13.850 18.559,13.739 18.483,13.805 18.423 C 13.835 18.395,14.022 18.239,14.220 18.077 C 15.537 16.995,17.193 15.326,18.237 14.029 C 18.356 13.881,18.459 13.760,18.464 13.760 C 18.470 13.760,18.564 13.909,18.672 14.090 " stroke="none" fill-rule="evenodd" fill="black"></path></svg>