<svg width="24" height="24" viewBox="0 0 24 24" fill="none" xmlns="http://www.w3.org/2000/svg"><path d="M15.760 1.482 C 15.059 1.545,14.318 1.811,13.687 2.224 C 13.388 2.420,12.669 3.123,8.516 7.276 C 5.407 10.384,3.607 12.214,3.453 12.420 C 1.907 14.498,1.759 17.224,3.073 19.420 C 3.907 20.815,5.339 21.875,6.905 22.257 C 7.495 22.401,7.818 22.440,8.418 22.440 C 9.818 22.440,11.099 22.011,12.220 21.168 C 12.352 21.069,14.607 18.844,17.231 16.224 C 21.612 11.849,22.008 11.443,22.081 11.248 C 22.181 10.981,22.181 10.818,22.080 10.549 C 21.992 10.315,21.826 10.133,21.581 10.004 C 21.366 9.891,20.969 9.890,20.720 10.003 C 20.580 10.066,19.480 11.142,15.780 14.835 C 12.718 17.892,10.939 19.639,10.792 19.734 C 10.457 19.951,9.950 20.182,9.540 20.306 C 9.211 20.405,9.121 20.414,8.480 20.417 C 7.765 20.420,7.613 20.400,7.080 20.231 C 6.325 19.992,5.528 19.418,5.044 18.766 C 4.395 17.890,4.120 16.918,4.208 15.810 C 4.268 15.059,4.574 14.262,5.039 13.650 C 5.176 13.469,7.241 11.377,10.007 8.617 C 15.023 3.612,14.846 3.777,15.407 3.577 C 15.675 3.481,16.160 3.439,16.518 3.480 C 17.504 3.592,18.369 4.349,18.621 5.320 C 18.672 5.519,18.684 5.692,18.670 6.060 C 18.650 6.594,18.564 6.895,18.319 7.287 C 18.131 7.589,9.317 16.415,9.097 16.521 C 8.532 16.795,7.940 16.301,8.058 15.653 C 8.083 15.516,8.494 15.091,12.021 11.560 C 16.318 7.258,16.135 7.461,16.131 6.995 C 16.127 6.596,15.891 6.244,15.523 6.090 C 15.311 6.001,14.922 6.013,14.713 6.114 C 14.589 6.174,13.407 7.333,10.538 10.209 C 6.252 14.506,6.347 14.402,6.154 15.000 C 6.048 15.329,6.010 16.020,6.078 16.370 C 6.194 16.964,6.455 17.420,6.943 17.875 C 7.789 18.665,9.027 18.820,10.100 18.269 C 10.306 18.163,11.004 17.483,15.011 13.483 C 18.224 10.276,19.743 8.733,19.876 8.540 C 21.051 6.841,20.960 4.670,19.648 3.066 C 19.096 2.390,18.252 1.851,17.381 1.616 C 17.095 1.540,16.216 1.421,16.120 1.446 C 16.109 1.449,15.947 1.465,15.760 1.482 " stroke="none" fill-rule="evenodd" fill="black"></path></svg>