<svg width="24" height="24" viewBox="0 0 24 24" fill="none" xmlns="http://www.w3.org/2000/svg"><path d="M9.476 1.058 C 7.719 1.311,6.189 2.640,5.701 4.337 C 5.494 5.057,5.500 4.865,5.500 11.140 C 5.500 17.364,5.497 17.239,5.686 18.020 C 6.320 20.642,8.494 22.591,11.172 22.939 C 13.171 23.198,15.153 22.523,16.578 21.098 C 17.575 20.102,18.149 18.981,18.431 17.481 C 18.487 17.180,18.497 16.444,18.510 11.240 C 18.521 6.926,18.513 5.277,18.479 5.104 C 18.421 4.803,18.292 4.600,18.051 4.433 C 17.869 4.306,17.843 4.300,17.500 4.300 C 17.157 4.300,17.131 4.306,16.949 4.433 C 16.717 4.594,16.585 4.792,16.525 5.073 C 16.493 5.225,16.480 6.926,16.480 11.117 C 16.480 16.188,16.472 16.996,16.418 17.303 C 16.095 19.159,14.588 20.635,12.705 20.940 C 10.311 21.329,7.997 19.686,7.582 17.303 C 7.528 16.996,7.520 16.188,7.520 11.117 C 7.520 7.083,7.533 5.219,7.563 5.072 C 7.587 4.955,7.688 4.691,7.787 4.484 C 7.936 4.175,8.023 4.053,8.275 3.804 C 8.444 3.637,8.682 3.441,8.804 3.370 C 9.576 2.915,10.543 2.884,11.360 3.286 C 11.815 3.510,12.311 3.998,12.532 4.440 C 12.840 5.054,12.816 4.533,12.831 10.800 C 12.841 14.768,12.832 16.479,12.801 16.622 C 12.630 17.413,11.562 17.508,11.226 16.762 C 11.192 16.688,11.175 15.269,11.160 11.500 C 11.138 5.772,11.162 6.248,10.877 5.963 C 10.676 5.762,10.457 5.670,10.182 5.670 C 9.777 5.670,9.461 5.861,9.266 6.220 L 9.180 6.380 9.180 11.680 L 9.180 16.980 9.289 17.300 C 9.444 17.754,9.654 18.090,10.002 18.438 C 10.351 18.788,10.689 18.998,11.140 19.149 C 11.423 19.243,11.522 19.255,12.000 19.255 C 12.478 19.255,12.577 19.243,12.860 19.149 C 13.313 18.998,13.650 18.787,13.998 18.436 C 14.348 18.084,14.558 17.750,14.711 17.300 L 14.820 16.980 14.820 11.060 C 14.820 4.651,14.829 4.921,14.599 4.231 C 14.351 3.489,14.000 2.918,13.461 2.380 C 12.802 1.724,11.997 1.286,11.110 1.103 C 10.668 1.012,9.936 0.992,9.476 1.058 " stroke="none" fill-rule="evenodd" fill="black"></path></svg>