<svg width="24" height="24" viewBox="0 0 24 24" fill="none" xmlns="http://www.w3.org/2000/svg"><path d="M11.207 1.043 C 9.656 1.193,8.096 1.846,6.900 2.847 C 5.985 3.612,5.307 4.477,4.800 5.529 C 3.734 7.734,3.735 10.267,4.801 12.474 C 5.227 13.357,5.727 14.044,6.462 14.759 L 6.894 15.178 6.438 18.609 C 5.935 22.404,5.946 22.223,6.192 22.579 C 6.419 22.907,6.901 23.078,7.264 22.959 C 7.350 22.931,8.440 22.299,9.686 21.554 C 10.933 20.809,11.974 20.200,12.000 20.200 C 12.026 20.200,13.058 20.807,14.294 21.548 C 15.529 22.290,16.603 22.919,16.680 22.946 C 17.018 23.067,17.435 22.967,17.701 22.701 C 17.868 22.534,17.999 22.246,18.001 22.043 C 18.001 21.986,17.800 20.418,17.554 18.559 L 17.107 15.178 17.538 14.759 C 18.273 14.044,18.773 13.357,19.199 12.474 C 20.265 10.267,20.266 7.734,19.200 5.529 C 18.693 4.477,18.015 3.612,17.100 2.847 C 15.483 1.494,13.337 0.837,11.207 1.043 M12.564 3.039 C 14.921 3.269,16.913 4.837,17.671 7.060 C 18.168 8.517,18.068 10.251,17.410 11.580 C 16.550 13.316,15.056 14.478,13.160 14.885 C 12.554 15.015,11.446 15.015,10.840 14.885 C 8.941 14.478,7.451 13.319,6.590 11.580 C 5.932 10.251,5.832 8.517,6.329 7.060 C 6.618 6.212,7.080 5.470,7.731 4.805 C 9.008 3.503,10.757 2.864,12.564 3.039 M9.586 16.622 C 10.461 16.905,11.331 17.023,12.280 16.987 C 13.216 16.952,13.980 16.800,14.816 16.484 C 15.038 16.400,15.224 16.334,15.229 16.338 C 15.250 16.353,15.722 20.012,15.705 20.029 C 15.694 20.039,15.036 19.658,14.243 19.182 C 12.450 18.106,12.442 18.102,12.000 18.102 C 11.558 18.102,11.550 18.106,9.757 19.182 C 8.964 19.658,8.306 20.039,8.295 20.029 C 8.285 20.018,8.385 19.191,8.518 18.191 C 8.651 17.190,8.760 16.360,8.760 16.346 C 8.760 16.332,8.854 16.359,8.970 16.406 C 9.085 16.453,9.363 16.550,9.586 16.622 " stroke="none" fill-rule="evenodd" fill="black"></path></svg>