<svg width="24" height="24" viewBox="0 0 24 24" fill="none" xmlns="http://www.w3.org/2000/svg"><path d="M5.749 1.045 C 4.967 1.120,4.402 1.371,3.890 1.870 C 3.491 2.260,3.236 2.731,3.094 3.340 C 3.029 3.623,3.020 3.841,3.020 5.240 C 3.020 6.974,3.019 6.964,3.284 7.553 C 3.437 7.894,3.429 7.883,5.613 10.614 L 7.527 13.008 7.430 13.114 C 7.074 13.503,6.589 14.335,6.375 14.924 C 5.685 16.828,5.973 18.903,7.152 20.526 C 7.462 20.953,8.080 21.566,8.514 21.877 C 10.602 23.375,13.440 23.364,15.526 21.848 C 15.953 21.538,16.566 20.920,16.877 20.486 C 17.901 19.059,18.252 17.175,17.807 15.500 C 17.579 14.646,17.066 13.655,16.570 13.114 L 16.473 13.008 18.308 10.714 C 20.490 7.987,20.564 7.890,20.716 7.555 C 20.974 6.986,20.980 6.935,20.980 5.220 C 20.980 3.841,20.971 3.623,20.906 3.340 C 20.688 2.404,20.167 1.737,19.329 1.321 C 19.019 1.168,18.706 1.091,18.180 1.042 C 17.646 0.991,6.275 0.994,5.749 1.045 M17.653 3.099 C 17.333 3.530,12.015 10.355,12.000 10.355 C 11.985 10.355,6.667 3.530,6.347 3.099 L 6.273 3.000 12.000 3.000 L 17.727 3.000 17.653 3.099 M10.138 11.283 C 10.130 11.297,10.009 11.349,9.871 11.399 C 9.733 11.449,9.500 11.551,9.353 11.624 L 9.086 11.758 7.159 9.349 C 6.099 8.024,5.185 6.859,5.126 6.760 C 5.020 6.580,5.020 6.578,5.007 5.602 L 4.995 4.625 7.574 7.941 C 8.993 9.765,10.147 11.269,10.138 11.283 M18.980 6.470 C 18.966 6.565,18.893 6.731,18.814 6.849 C 18.736 6.964,17.828 8.115,16.795 9.406 L 14.917 11.754 14.549 11.580 C 14.346 11.485,14.103 11.384,14.009 11.357 C 13.915 11.329,13.843 11.292,13.849 11.273 C 13.855 11.255,15.012 9.759,16.420 7.948 L 18.980 4.657 18.992 5.478 C 18.998 5.930,18.993 6.376,18.980 6.470 M12.605 13.058 C 13.631 13.213,14.548 13.755,15.161 14.568 C 15.588 15.134,15.841 15.726,15.942 16.395 C 16.014 16.879,16.014 17.121,15.942 17.605 C 15.697 19.229,14.485 20.524,12.854 20.906 C 12.422 21.008,11.578 21.008,11.146 20.906 C 9.512 20.523,8.304 19.232,8.059 17.606 C 7.986 17.121,7.985 16.879,8.058 16.395 C 8.349 14.469,10.003 13.032,11.960 13.004 C 12.103 13.002,12.393 13.027,12.605 13.058 " stroke="none" fill-rule="evenodd" fill="black"></path></svg>