<svg width="24" height="24" viewBox="0 0 24 24" fill="none" xmlns="http://www.w3.org/2000/svg"><path d="M9.060 1.041 C 8.823 1.088,8.394 1.258,8.195 1.383 C 7.617 1.746,7.413 2.033,6.955 3.130 C 6.763 3.591,6.577 3.999,6.543 4.037 C 6.509 4.074,6.137 4.246,5.717 4.419 C 4.701 4.837,4.438 5.001,4.052 5.461 C 3.860 5.688,3.634 6.155,3.559 6.480 C 3.489 6.776,3.497 7.325,3.575 7.622 C 3.609 7.755,3.777 8.196,3.946 8.602 C 4.154 9.100,4.255 9.392,4.255 9.500 C 4.255 9.610,4.163 9.881,3.962 10.360 C 3.614 11.189,3.533 11.441,3.497 11.801 C 3.435 12.435,3.748 13.265,4.233 13.750 C 4.553 14.070,4.784 14.199,5.760 14.599 C 6.145 14.757,6.491 14.914,6.528 14.948 C 6.566 14.982,6.651 15.140,6.718 15.301 L 6.839 15.593 6.411 18.815 C 5.937 22.381,5.947 22.223,6.192 22.579 C 6.419 22.907,6.901 23.078,7.264 22.959 C 7.350 22.931,8.440 22.299,9.686 21.554 C 10.933 20.809,11.974 20.200,12.000 20.200 C 12.026 20.200,13.058 20.807,14.294 21.548 C 15.529 22.290,16.603 22.919,16.680 22.946 C 17.285 23.163,18.001 22.662,18.000 22.023 C 18.000 21.955,17.811 20.481,17.580 18.746 L 17.161 15.592 17.284 15.296 C 17.360 15.113,17.448 14.972,17.514 14.926 C 17.572 14.886,17.917 14.731,18.280 14.582 C 19.168 14.219,19.371 14.106,19.700 13.794 C 20.214 13.307,20.484 12.692,20.487 12.000 C 20.490 11.513,20.433 11.306,20.053 10.396 C 19.842 9.893,19.744 9.609,19.744 9.500 C 19.744 9.392,19.839 9.115,20.038 8.640 C 20.386 7.811,20.467 7.559,20.503 7.199 C 20.564 6.578,20.253 5.739,19.789 5.274 C 19.458 4.942,19.241 4.818,18.313 4.434 C 17.888 4.258,17.508 4.083,17.468 4.044 C 17.429 4.006,17.244 3.607,17.057 3.157 C 16.700 2.298,16.546 2.024,16.258 1.736 C 15.709 1.187,14.821 0.905,14.059 1.037 C 13.897 1.065,13.440 1.225,12.953 1.423 C 12.485 1.613,12.066 1.760,11.990 1.760 C 11.914 1.760,11.524 1.622,11.078 1.436 C 10.650 1.259,10.183 1.088,10.040 1.057 C 9.759 0.997,9.316 0.989,9.060 1.041 M10.401 3.320 C 11.315 3.700,11.555 3.769,11.980 3.772 C 12.396 3.775,12.618 3.719,13.320 3.431 C 14.318 3.022,14.422 2.988,14.574 3.016 C 14.830 3.064,14.889 3.151,15.239 4.000 C 15.837 5.448,16.034 5.651,17.400 6.220 C 18.327 6.606,18.346 6.616,18.419 6.759 C 18.530 6.973,18.494 7.138,18.157 7.956 C 17.799 8.828,17.721 9.098,17.721 9.480 C 17.721 9.887,17.809 10.201,18.157 11.044 C 18.494 11.863,18.530 12.027,18.419 12.242 C 18.348 12.380,18.244 12.436,17.500 12.740 C 16.661 13.082,16.336 13.263,16.055 13.544 C 15.736 13.863,15.647 14.020,15.240 14.996 C 14.752 16.165,14.757 16.163,13.653 15.705 C 12.583 15.261,12.578 15.260,12.000 15.260 C 11.422 15.260,11.417 15.261,10.347 15.705 C 9.243 16.163,9.248 16.165,8.758 14.996 C 8.351 14.026,8.336 13.996,8.104 13.711 C 7.787 13.322,7.499 13.148,6.500 12.739 C 5.753 12.434,5.652 12.380,5.581 12.242 C 5.470 12.027,5.506 11.863,5.843 11.044 C 6.427 9.629,6.427 9.371,5.843 7.956 C 5.506 7.137,5.470 6.973,5.581 6.758 C 5.652 6.620,5.752 6.566,6.499 6.261 C 7.280 5.941,7.517 5.820,7.792 5.597 C 8.144 5.312,8.375 4.936,8.735 4.059 C 8.907 3.642,9.074 3.258,9.107 3.207 C 9.175 3.100,9.371 3.004,9.525 3.002 C 9.583 3.001,9.977 3.144,10.401 3.320 M12.916 17.563 C 13.347 17.740,13.817 17.913,13.960 17.947 C 14.305 18.028,14.896 18.001,15.210 17.888 C 15.344 17.841,15.440 17.824,15.440 17.848 C 15.440 17.871,15.504 18.366,15.582 18.949 C 15.661 19.532,15.716 20.017,15.705 20.028 C 15.694 20.039,15.036 19.658,14.243 19.182 C 12.450 18.106,12.442 18.102,12.000 18.102 C 11.558 18.102,11.550 18.106,9.757 19.182 C 8.964 19.658,8.306 20.039,8.295 20.028 C 8.284 20.017,8.339 19.532,8.418 18.949 C 8.496 18.366,8.560 17.871,8.560 17.848 C 8.560 17.824,8.656 17.841,8.790 17.888 C 9.104 18.001,9.695 18.028,10.040 17.946 C 10.183 17.912,10.651 17.740,11.080 17.564 C 11.513 17.386,11.921 17.242,11.996 17.242 C 12.078 17.241,12.446 17.369,12.916 17.563 " stroke="none" fill-rule="evenodd" fill="black"></path></svg>