<svg width="24" height="24" viewBox="0 0 24 24" fill="none" xmlns="http://www.w3.org/2000/svg"><path d="M3.749 4.045 C 2.967 4.120,2.402 4.371,1.890 4.870 C 1.491 5.260,1.236 5.731,1.094 6.340 C 1.024 6.643,1.020 6.936,1.020 12.020 L 1.020 17.380 1.111 17.735 C 1.281 18.406,1.637 18.962,2.142 19.350 C 2.495 19.621,2.816 19.775,3.265 19.889 L 3.620 19.980 11.980 19.980 C 19.988 19.980,20.353 19.977,20.660 19.906 C 21.459 19.720,22.041 19.327,22.486 18.671 C 22.685 18.378,22.807 18.084,22.906 17.660 C 22.976 17.357,22.980 17.064,22.980 12.000 C 22.980 6.936,22.976 6.643,22.906 6.340 C 22.688 5.404,22.167 4.737,21.329 4.321 C 21.019 4.168,20.706 4.091,20.180 4.042 C 19.643 3.991,4.277 3.994,3.749 4.045 M20.374 6.074 C 20.586 6.146,20.863 6.432,20.928 6.646 C 21.005 6.902,21.005 17.098,20.928 17.354 C 20.863 17.567,20.591 17.849,20.376 17.925 C 20.143 18.007,3.857 18.007,3.624 17.925 C 3.422 17.854,3.140 17.571,3.074 17.374 C 3.008 17.176,2.974 7.516,3.037 6.947 C 3.102 6.365,3.341 6.104,3.866 6.042 C 4.017 6.024,7.758 6.012,12.180 6.016 C 18.671 6.021,20.250 6.032,20.374 6.074 M11.440 8.545 C 9.952 8.831,8.819 9.939,8.559 11.364 C 8.499 11.692,8.499 12.308,8.559 12.636 C 8.813 14.027,9.972 15.186,11.364 15.441 C 11.717 15.506,12.362 15.498,12.710 15.425 C 14.055 15.142,15.142 14.055,15.425 12.710 C 15.498 12.362,15.506 11.717,15.441 11.364 C 15.206 10.085,14.222 9.006,12.953 8.637 C 12.731 8.572,12.524 8.549,12.100 8.539 C 11.792 8.532,11.495 8.535,11.440 8.545 M5.695 9.057 C 5.466 9.129,5.256 9.299,5.128 9.516 L 5.020 9.700 5.020 12.003 L 5.020 14.306 5.141 14.503 C 5.209 14.613,5.346 14.756,5.452 14.828 C 5.923 15.144,6.554 14.999,6.859 14.503 L 6.980 14.306 6.980 12.003 L 6.980 9.700 6.872 9.516 C 6.628 9.101,6.150 8.915,5.695 9.057 M17.695 9.057 C 17.466 9.129,17.256 9.299,17.128 9.516 L 17.020 9.700 17.020 12.003 L 17.020 14.306 17.141 14.503 C 17.209 14.613,17.346 14.756,17.452 14.828 C 17.923 15.144,18.554 14.999,18.859 14.503 L 18.980 14.306 18.980 12.003 L 18.980 9.700 18.872 9.516 C 18.628 9.101,18.150 8.915,17.695 9.057 M12.653 10.658 C 12.925 10.796,13.226 11.103,13.362 11.380 C 13.447 11.554,13.460 11.635,13.460 12.000 C 13.460 12.384,13.450 12.440,13.344 12.648 C 13.115 13.100,12.691 13.413,12.218 13.477 C 11.563 13.566,10.958 13.245,10.656 12.648 C 10.550 12.440,10.540 12.384,10.540 12.000 C 10.540 11.635,10.553 11.554,10.638 11.380 C 10.811 11.028,11.153 10.716,11.516 10.577 C 11.611 10.540,11.789 10.525,12.042 10.532 C 12.371 10.541,12.455 10.558,12.653 10.658 " stroke="none" fill-rule="evenodd" fill="black"></path></svg>