<svg width="24" height="24" viewBox="0 0 24 24" fill="none" xmlns="http://www.w3.org/2000/svg"><path d="M3.749 4.045 C 2.967 4.120,2.402 4.371,1.890 4.870 C 1.491 5.260,1.236 5.731,1.094 6.340 C 1.024 6.643,1.020 6.936,1.020 12.020 L 1.020 17.380 1.111 17.735 C 1.281 18.406,1.637 18.962,2.142 19.350 C 2.495 19.621,2.816 19.775,3.265 19.889 L 3.620 19.980 11.980 19.980 C 19.988 19.980,20.353 19.977,20.660 19.906 C 21.459 19.720,22.041 19.327,22.486 18.671 C 22.685 18.378,22.807 18.084,22.906 17.660 C 22.976 17.357,22.980 17.064,22.980 12.000 C 22.980 6.936,22.976 6.643,22.906 6.340 C 22.688 5.404,22.167 4.737,21.329 4.321 C 21.019 4.168,20.706 4.091,20.180 4.042 C 19.643 3.991,4.277 3.994,3.749 4.045 M20.374 6.074 C 20.586 6.146,20.863 6.432,20.928 6.646 C 21.005 6.902,21.005 17.098,20.928 17.354 C 20.863 17.567,20.591 17.849,20.376 17.925 C 20.143 18.007,3.857 18.007,3.624 17.925 C 3.422 17.854,3.140 17.571,3.074 17.374 C 3.008 17.176,2.974 7.516,3.037 6.947 C 3.102 6.365,3.341 6.104,3.866 6.042 C 4.017 6.024,7.758 6.012,12.180 6.016 C 18.671 6.021,20.250 6.032,20.374 6.074 M11.695 7.057 C 11.342 7.168,11.095 7.451,11.019 7.835 L 10.976 8.050 10.757 8.118 C 10.003 8.351,9.361 8.980,9.118 9.722 C 9.034 9.976,9.020 10.094,9.022 10.520 C 9.024 10.960,9.038 11.056,9.133 11.320 C 9.394 12.039,9.964 12.609,10.680 12.867 C 10.961 12.968,11.033 12.976,11.800 12.992 C 12.702 13.010,12.786 13.030,12.922 13.252 C 13.021 13.415,13.021 13.585,12.922 13.748 C 12.770 13.996,12.746 14.000,11.248 14.000 C 9.774 14.000,9.653 14.014,9.382 14.221 C 9.302 14.282,9.187 14.415,9.128 14.516 C 9.037 14.672,9.020 14.746,9.020 15.000 C 9.020 15.256,9.036 15.328,9.131 15.489 C 9.256 15.702,9.449 15.864,9.670 15.943 C 9.768 15.978,10.022 15.997,10.405 15.998 L 10.991 16.000 11.018 16.179 C 11.054 16.422,11.258 16.712,11.497 16.859 C 11.671 16.966,11.729 16.980,12.000 16.980 C 12.271 16.980,12.329 16.966,12.503 16.859 C 12.752 16.706,12.949 16.419,12.984 16.160 L 13.010 15.966 13.294 15.873 C 14.001 15.642,14.605 15.046,14.868 14.320 C 14.965 14.052,14.976 13.965,14.976 13.500 C 14.976 13.035,14.965 12.948,14.868 12.680 C 14.646 12.068,14.195 11.561,13.620 11.277 C 13.172 11.055,12.869 11.002,12.068 11.001 C 11.319 11.000,11.216 10.974,11.078 10.748 C 10.932 10.508,11.023 10.193,11.276 10.062 C 11.377 10.010,11.612 10.000,12.788 9.998 C 14.285 9.996,14.350 9.989,14.619 9.783 C 14.696 9.725,14.808 9.592,14.869 9.489 C 14.964 9.328,14.980 9.256,14.980 9.000 C 14.980 8.746,14.963 8.672,14.872 8.516 C 14.634 8.111,14.351 8.000,13.559 8.000 L 13.010 8.000 12.983 7.830 C 12.926 7.473,12.648 7.163,12.290 7.055 C 12.068 6.988,11.913 6.989,11.695 7.057 M5.516 10.577 C 4.466 10.979,4.167 12.277,4.945 13.055 C 5.807 13.918,7.314 13.420,7.477 12.218 C 7.566 11.564,7.245 10.958,6.650 10.657 C 6.455 10.558,6.370 10.541,6.042 10.532 C 5.789 10.525,5.611 10.540,5.516 10.577 M17.516 10.577 C 16.466 10.979,16.167 12.277,16.945 13.055 C 17.807 13.918,19.314 13.420,19.477 12.218 C 19.566 11.564,19.245 10.958,18.650 10.657 C 18.455 10.558,18.370 10.541,18.042 10.532 C 17.789 10.525,17.611 10.540,17.516 10.577 " stroke="none" fill-rule="evenodd" fill="black"></path></svg>