<svg width="24" height="24" viewBox="0 0 24 24" fill="none" xmlns="http://www.w3.org/2000/svg"><path d="M7.540 2.966 C 3.037 3.970,3.070 3.961,2.650 4.339 C 2.410 4.555,2.232 4.820,2.113 5.143 C 2.030 5.366,2.024 5.460,2.010 6.740 C 1.993 8.237,2.018 8.489,2.227 8.919 C 2.368 9.209,2.794 9.634,3.088 9.777 C 3.214 9.838,3.470 9.917,3.658 9.952 L 4.000 10.017 4.000 13.007 L 4.000 15.996 3.850 16.019 C 3.241 16.111,2.956 16.244,2.597 16.599 C 2.075 17.117,2.001 17.415,2.001 19.000 C 2.001 20.584,2.075 20.881,2.597 21.403 C 2.896 21.702,3.173 21.853,3.581 21.939 C 4.001 22.029,19.998 22.029,20.419 21.940 C 20.818 21.855,21.102 21.699,21.401 21.401 C 21.925 20.876,21.999 20.582,21.999 19.000 C 21.999 17.415,21.925 17.117,21.403 16.599 C 21.044 16.244,20.759 16.111,20.150 16.019 L 20.000 15.996 20.000 13.007 L 20.000 10.017 20.342 9.952 C 20.530 9.917,20.786 9.838,20.912 9.777 C 21.201 9.636,21.625 9.212,21.771 8.919 C 21.982 8.493,22.007 8.241,21.990 6.740 C 21.976 5.460,21.970 5.366,21.887 5.143 C 21.768 4.820,21.590 4.555,21.350 4.339 C 20.929 3.960,20.967 3.971,16.431 2.962 C 12.883 2.174,12.237 2.040,11.971 2.043 C 11.719 2.046,10.876 2.221,7.540 2.966 M16.020 4.920 C 18.197 5.404,19.983 5.800,19.989 5.800 C 19.995 5.800,20.000 6.295,20.000 6.900 L 20.000 8.000 12.000 8.000 L 4.000 8.000 4.000 6.903 L 4.000 5.805 4.310 5.736 C 4.480 5.698,6.249 5.303,8.240 4.858 C 10.231 4.413,11.905 4.047,11.961 4.044 C 12.016 4.042,13.843 4.436,16.020 4.920 M8.480 13.000 L 8.480 16.000 7.240 16.000 L 6.000 16.000 6.000 13.000 L 6.000 10.000 7.240 10.000 L 8.480 10.000 8.480 13.000 M13.480 13.000 L 13.480 16.000 12.000 16.000 L 10.520 16.000 10.520 13.000 L 10.520 10.000 12.000 10.000 L 13.480 10.000 13.480 13.000 M18.000 13.000 L 18.000 16.000 16.760 16.000 L 15.520 16.000 15.520 13.000 L 15.520 10.000 16.760 10.000 L 18.000 10.000 18.000 13.000 M20.000 19.000 L 20.000 20.000 12.000 20.000 L 4.000 20.000 4.000 19.000 L 4.000 18.000 12.000 18.000 L 20.000 18.000 20.000 19.000 " stroke="none" fill-rule="evenodd" fill="black"></path></svg>