<svg width="24" height="24" viewBox="0 0 24 24" fill="none" xmlns="http://www.w3.org/2000/svg"><path d="M4.695 1.057 C 4.466 1.129,4.256 1.299,4.128 1.516 L 4.020 1.700 4.009 3.635 L 3.997 5.571 3.269 4.852 C 2.655 4.247,2.509 4.123,2.343 4.067 C 1.865 3.905,1.383 4.083,1.128 4.516 C 1.037 4.672,1.020 4.746,1.020 5.000 C 1.020 5.254,1.036 5.328,1.127 5.480 C 1.261 5.704,4.368 8.804,4.560 8.905 C 4.754 9.007,5.246 9.007,5.440 8.905 C 5.632 8.804,8.739 5.704,8.873 5.480 C 8.964 5.328,8.980 5.254,8.980 5.000 C 8.980 4.746,8.963 4.672,8.872 4.516 C 8.617 4.083,8.135 3.905,7.657 4.067 C 7.491 4.123,7.345 4.247,6.731 4.852 L 6.003 5.571 5.991 3.635 L 5.980 1.700 5.872 1.516 C 5.628 1.101,5.150 0.915,4.695 1.057 M11.695 2.055 C 11.049 2.264,10.799 3.040,11.198 3.591 C 11.263 3.681,11.403 3.805,11.508 3.867 L 11.700 3.980 14.960 4.004 C 18.473 4.031,18.511 4.033,18.952 4.248 C 19.194 4.366,19.634 4.806,19.752 5.048 C 19.802 5.151,19.874 5.367,19.912 5.528 C 19.975 5.797,19.980 6.313,19.980 12.000 C 19.980 17.687,19.975 18.203,19.912 18.472 C 19.874 18.633,19.802 18.849,19.752 18.952 C 19.626 19.211,19.190 19.638,18.918 19.768 C 18.466 19.985,18.627 19.980,12.000 19.980 C 5.383 19.980,5.538 19.985,5.082 19.771 C 4.812 19.643,4.377 19.217,4.248 18.952 C 4.033 18.511,4.031 18.473,4.004 14.960 L 3.980 11.700 3.871 11.514 C 3.479 10.848,2.521 10.848,2.129 11.514 L 2.020 11.700 2.008 14.660 C 1.993 18.110,2.016 18.557,2.245 19.320 C 2.575 20.421,3.578 21.423,4.680 21.755 C 5.474 21.994,5.642 22.000,12.000 22.000 C 18.358 22.000,18.526 21.994,19.320 21.755 C 20.422 21.423,21.423 20.422,21.755 19.320 C 21.994 18.526,22.000 18.358,22.000 12.000 C 22.000 5.642,21.994 5.474,21.755 4.680 C 21.424 3.581,20.464 2.621,19.320 2.246 C 18.690 2.039,18.496 2.029,15.060 2.015 C 12.470 2.004,11.828 2.012,11.695 2.055 M11.695 6.057 C 11.466 6.129,11.256 6.299,11.128 6.516 L 11.020 6.700 11.020 12.003 L 11.020 17.306 11.141 17.503 C 11.543 18.156,12.457 18.156,12.859 17.503 L 12.980 17.306 12.980 12.003 L 12.980 6.700 12.872 6.516 C 12.628 6.101,12.150 5.915,11.695 6.057 M15.695 10.057 C 15.466 10.129,15.256 10.299,15.128 10.516 L 15.020 10.700 15.020 14.003 L 15.020 17.306 15.141 17.503 C 15.543 18.156,16.457 18.156,16.859 17.503 L 16.980 17.306 16.980 14.003 L 16.980 10.700 16.872 10.516 C 16.628 10.101,16.150 9.915,15.695 10.057 M7.695 12.057 C 7.466 12.129,7.256 12.299,7.128 12.516 L 7.020 12.700 7.020 15.003 L 7.020 17.306 7.141 17.503 C 7.209 17.613,7.346 17.756,7.452 17.828 C 7.923 18.144,8.554 17.999,8.859 17.503 L 8.980 17.306 8.980 15.003 L 8.980 12.700 8.872 12.516 C 8.628 12.101,8.150 11.915,7.695 12.057 " stroke="none" fill-rule="evenodd" fill="black"></path></svg>