<svg width="24" height="24" viewBox="0 0 24 24" fill="none" xmlns="http://www.w3.org/2000/svg"><path d="M2.695 2.057 C 2.466 2.129,2.256 2.299,2.128 2.516 L 2.020 2.700 2.020 11.040 L 2.020 19.380 2.111 19.735 C 2.225 20.184,2.379 20.505,2.650 20.858 C 3.031 21.354,3.584 21.712,4.244 21.888 L 4.580 21.978 12.852 21.990 C 18.387 21.998,21.175 21.988,21.276 21.961 C 21.498 21.901,21.739 21.710,21.867 21.492 C 21.964 21.327,21.980 21.257,21.980 21.000 C 21.980 20.746,21.963 20.672,21.872 20.516 C 21.761 20.328,21.572 20.158,21.373 20.070 C 21.284 20.031,19.490 20.016,13.000 20.000 L 4.740 19.980 4.550 19.886 C 4.336 19.781,4.142 19.568,4.070 19.360 C 4.034 19.253,4.017 17.249,4.001 10.960 L 3.980 2.700 3.872 2.516 C 3.628 2.101,3.150 1.915,2.695 2.057 M6.600 4.584 C 6.399 4.671,6.205 4.869,6.095 5.100 L 6.001 5.300 6.001 11.500 L 6.001 17.700 6.095 17.900 C 6.276 18.281,6.595 18.488,7.000 18.488 C 7.405 18.488,7.724 18.281,7.905 17.900 L 7.999 17.700 7.999 11.500 L 7.999 5.300 7.905 5.100 C 7.793 4.865,7.599 4.669,7.391 4.582 C 7.203 4.503,6.783 4.504,6.600 4.584 M11.044 7.625 C 10.777 7.758,10.584 8.014,10.524 8.315 C 10.461 8.627,10.462 17.394,10.525 17.688 C 10.724 18.618,11.968 18.783,12.385 17.934 L 12.500 17.700 12.511 13.160 C 12.519 10.017,12.509 8.540,12.479 8.360 C 12.394 7.849,12.010 7.520,11.500 7.520 C 11.316 7.520,11.203 7.546,11.044 7.625 M15.600 10.584 C 15.399 10.671,15.205 10.869,15.095 11.100 L 15.001 11.300 15.001 14.500 L 15.001 17.700 15.095 17.900 C 15.276 18.281,15.595 18.488,16.000 18.488 C 16.405 18.488,16.724 18.281,16.905 17.900 L 16.999 17.700 16.999 14.500 L 16.999 11.300 16.905 11.100 C 16.793 10.865,16.599 10.669,16.391 10.582 C 16.203 10.503,15.783 10.504,15.600 10.584 M20.044 13.625 C 19.777 13.758,19.584 14.014,19.524 14.315 C 19.464 14.615,19.465 17.405,19.525 17.688 C 19.611 18.092,19.920 18.401,20.305 18.469 C 20.875 18.570,21.372 18.227,21.477 17.661 C 21.534 17.352,21.534 14.669,21.478 14.343 C 21.391 13.848,21.001 13.520,20.500 13.520 C 20.316 13.520,20.203 13.546,20.044 13.625 " stroke="none" fill-rule="evenodd" fill="black"></path></svg>