<svg width="24" height="24" viewBox="0 0 24 24" fill="none" xmlns="http://www.w3.org/2000/svg"><path d="M11.280 1.023 C 11.203 1.032,10.951 1.059,10.720 1.083 C 9.527 1.210,8.337 1.558,7.180 2.120 C 6.045 2.671,5.193 3.285,4.238 4.239 C 3.277 5.198,2.643 6.080,2.097 7.220 C 0.301 10.968,0.728 15.286,3.226 18.633 C 3.701 19.269,4.753 20.316,5.400 20.797 C 9.364 23.745,14.666 23.734,18.637 20.770 C 19.246 20.316,20.316 19.246,20.770 18.637 C 23.744 14.652,23.744 9.348,20.770 5.363 C 20.316 4.755,19.247 3.686,18.640 3.235 C 17.045 2.049,15.365 1.360,13.423 1.096 C 13.000 1.038,11.574 0.990,11.280 1.023 M13.320 3.101 C 15.883 3.488,18.124 4.931,19.560 7.120 C 19.863 7.583,20.303 8.479,20.492 9.020 C 20.838 10.013,20.977 10.865,20.977 12.000 C 20.977 13.493,20.720 14.621,20.080 15.940 C 19.375 17.394,18.311 18.607,16.927 19.532 C 16.138 20.060,14.876 20.588,13.908 20.797 C 11.266 21.366,8.479 20.708,6.370 19.019 C 4.857 17.807,3.722 16.029,3.267 14.160 C 3.081 13.397,3.023 12.888,3.023 12.000 C 3.023 10.507,3.280 9.379,3.920 8.060 C 4.971 5.891,6.877 4.221,9.160 3.466 C 9.865 3.233,10.432 3.118,11.340 3.024 C 11.662 2.991,12.911 3.039,13.320 3.101 M11.695 6.057 C 11.466 6.129,11.256 6.299,11.128 6.516 L 11.020 6.700 11.020 12.003 L 11.020 17.306 11.141 17.503 C 11.543 18.156,12.457 18.156,12.859 17.503 L 12.980 17.306 12.980 12.003 L 12.980 6.700 12.872 6.516 C 12.628 6.101,12.150 5.915,11.695 6.057 M15.695 10.057 C 15.466 10.129,15.256 10.299,15.128 10.516 L 15.020 10.700 15.020 14.003 L 15.020 17.306 15.141 17.503 C 15.543 18.156,16.457 18.156,16.859 17.503 L 16.980 17.306 16.980 14.003 L 16.980 10.700 16.872 10.516 C 16.628 10.101,16.150 9.915,15.695 10.057 M7.695 12.057 C 7.466 12.129,7.256 12.299,7.128 12.516 L 7.020 12.700 7.020 15.003 L 7.020 17.306 7.141 17.503 C 7.209 17.613,7.346 17.756,7.452 17.828 C 7.923 18.144,8.554 17.999,8.859 17.503 L 8.980 17.306 8.980 15.003 L 8.980 12.700 8.872 12.516 C 8.628 12.101,8.150 11.915,7.695 12.057 " stroke="none" fill-rule="evenodd" fill="black"></path></svg>