<svg width="24" height="24" viewBox="0 0 24 24" fill="none" xmlns="http://www.w3.org/2000/svg"><path d="M20.695 2.057 C 20.466 2.129,20.256 2.299,20.128 2.516 L 20.020 2.700 20.020 12.003 L 20.020 21.306 20.141 21.503 C 20.543 22.156,21.457 22.156,21.859 21.503 L 21.980 21.306 21.980 12.003 L 21.980 2.700 21.872 2.516 C 21.628 2.101,21.150 1.915,20.695 2.057 M14.695 7.057 C 14.466 7.129,14.256 7.299,14.128 7.516 L 14.020 7.700 14.020 14.503 L 14.020 21.306 14.141 21.503 C 14.543 22.156,15.457 22.156,15.859 21.503 L 15.980 21.306 15.980 14.503 L 15.980 7.700 15.872 7.516 C 15.628 7.101,15.150 6.915,14.695 7.057 M8.695 12.057 C 8.466 12.129,8.256 12.299,8.128 12.516 L 8.020 12.700 8.020 17.003 L 8.020 21.306 8.141 21.503 C 8.543 22.156,9.457 22.156,9.859 21.503 L 9.980 21.306 9.980 17.003 L 9.980 12.700 9.872 12.516 C 9.628 12.101,9.150 11.915,8.695 12.057 M2.695 16.057 C 2.466 16.129,2.256 16.299,2.128 16.516 L 2.020 16.700 2.020 19.003 L 2.020 21.306 2.141 21.503 C 2.209 21.613,2.346 21.756,2.452 21.828 C 2.923 22.144,3.554 21.999,3.859 21.503 L 3.980 21.306 3.980 19.003 L 3.980 16.700 3.872 16.516 C 3.628 16.101,3.150 15.915,2.695 16.057 " stroke="none" fill-rule="evenodd" fill="black"></path></svg>