<svg width="24" height="24" viewBox="0 0 24 24" fill="none" xmlns="http://www.w3.org/2000/svg"><path d="M15.686 2.040 C 15.068 2.133,14.487 2.551,14.222 3.093 C 14.037 3.471,14.001 3.764,14.001 4.928 L 14.000 5.995 11.810 6.008 C 9.643 6.021,9.617 6.022,9.365 6.113 C 8.860 6.294,8.434 6.660,8.222 7.093 C 8.023 7.499,8.001 7.727,8.001 9.428 L 8.000 10.995 5.810 11.008 C 3.643 11.021,3.617 11.022,3.365 11.113 C 2.669 11.363,2.209 11.881,2.061 12.581 C 1.972 12.997,1.972 20.003,2.061 20.419 C 2.147 20.827,2.298 21.104,2.597 21.403 C 2.896 21.702,3.173 21.853,3.581 21.939 C 4.001 22.029,19.998 22.029,20.419 21.940 C 20.818 21.855,21.102 21.699,21.401 21.401 C 21.699 21.102,21.855 20.818,21.940 20.419 C 22.029 19.998,22.029 4.001,21.939 3.581 C 21.791 2.881,21.331 2.363,20.635 2.113 C 20.381 2.021,20.368 2.021,18.140 2.014 C 16.908 2.011,15.804 2.022,15.686 2.040 M20.000 12.000 L 20.000 20.000 18.000 20.000 L 16.000 20.000 16.000 12.000 L 16.000 4.000 18.000 4.000 L 20.000 4.000 20.000 12.000 M14.000 14.000 L 14.000 20.000 12.000 20.000 L 10.000 20.000 10.000 14.000 L 10.000 8.000 12.000 8.000 L 14.000 8.000 14.000 14.000 M8.000 16.500 L 8.000 20.000 6.000 20.000 L 4.000 20.000 4.000 16.500 L 4.000 13.000 6.000 13.000 L 8.000 13.000 8.000 16.500 " stroke="none" fill-rule="evenodd" fill="black"></path></svg>