<svg width="24" height="24" viewBox="0 0 24 24" fill="none" xmlns="http://www.w3.org/2000/svg"><path d="M2.695 2.057 C 2.466 2.129,2.256 2.299,2.128 2.516 L 2.020 2.700 2.020 11.040 L 2.020 19.380 2.111 19.735 C 2.225 20.184,2.379 20.505,2.650 20.858 C 3.031 21.354,3.584 21.712,4.244 21.888 L 4.580 21.978 12.852 21.990 C 18.387 21.998,21.175 21.988,21.276 21.961 C 21.498 21.901,21.739 21.710,21.867 21.492 C 21.964 21.327,21.980 21.257,21.980 21.000 C 21.980 20.746,21.963 20.672,21.872 20.516 C 21.761 20.328,21.572 20.158,21.373 20.070 C 21.284 20.031,19.490 20.016,13.000 20.000 L 4.740 19.980 4.550 19.886 C 4.336 19.781,4.142 19.568,4.070 19.360 C 4.034 19.253,4.017 17.249,4.001 10.960 L 3.980 2.700 3.872 2.516 C 3.628 2.101,3.150 1.915,2.695 2.057 M11.044 4.625 C 10.777 4.758,10.584 5.014,10.524 5.315 C 10.461 5.628,10.462 17.393,10.525 17.688 C 10.724 18.618,11.968 18.783,12.385 17.934 L 12.500 17.700 12.511 11.660 C 12.519 7.446,12.510 5.541,12.479 5.360 C 12.394 4.849,12.010 4.520,11.500 4.520 C 11.316 4.520,11.203 4.546,11.044 4.625 M20.044 4.625 C 19.777 4.758,19.584 5.014,19.524 5.315 C 19.461 5.628,19.462 17.393,19.525 17.688 C 19.642 18.237,20.138 18.568,20.695 18.469 C 21.093 18.399,21.399 18.082,21.477 17.661 C 21.537 17.336,21.538 5.687,21.478 5.343 C 21.391 4.848,21.001 4.520,20.500 4.520 C 20.316 4.520,20.203 4.546,20.044 4.625 M6.600 9.584 C 6.399 9.671,6.205 9.869,6.095 10.100 L 6.001 10.300 6.001 14.000 L 6.001 17.700 6.095 17.900 C 6.276 18.281,6.595 18.488,7.000 18.488 C 7.405 18.488,7.724 18.281,7.905 17.900 L 7.999 17.700 7.999 14.000 L 7.999 10.300 7.905 10.100 C 7.793 9.865,7.599 9.669,7.391 9.582 C 7.203 9.503,6.783 9.504,6.600 9.584 M15.600 9.584 C 15.399 9.671,15.205 9.869,15.095 10.100 L 15.001 10.300 15.001 14.000 L 15.001 17.700 15.095 17.900 C 15.276 18.281,15.595 18.488,16.000 18.488 C 16.405 18.488,16.724 18.281,16.905 17.900 L 16.999 17.700 16.999 14.000 L 16.999 10.300 16.905 10.100 C 16.793 9.865,16.599 9.669,16.391 9.582 C 16.203 9.503,15.783 9.504,15.600 9.584 " stroke="none" fill-rule="evenodd" fill="black"></path></svg>