<svg width="24" height="24" viewBox="0 0 24 24" fill="none" xmlns="http://www.w3.org/2000/svg"><path d="M3.686 2.040 C 2.868 2.163,2.233 2.765,2.061 3.581 C 1.971 4.002,1.971 19.998,2.061 20.419 C 2.147 20.827,2.298 21.104,2.597 21.403 C 2.896 21.702,3.173 21.853,3.581 21.939 C 4.001 22.029,19.998 22.029,20.419 21.940 C 20.818 21.855,21.102 21.699,21.401 21.401 C 21.699 21.102,21.855 20.818,21.940 20.419 C 22.028 20.002,22.028 11.998,21.940 11.581 C 21.792 10.885,21.327 10.361,20.635 10.113 C 20.383 10.022,20.357 10.021,18.190 10.008 L 16.000 9.995 15.999 8.928 C 15.999 7.764,15.963 7.471,15.778 7.093 C 15.566 6.660,15.140 6.294,14.635 6.113 C 14.383 6.022,14.357 6.021,12.190 6.008 L 10.000 5.995 9.999 4.928 C 9.999 4.141,9.983 3.787,9.940 3.581 C 9.792 2.885,9.328 2.362,8.635 2.113 C 8.381 2.021,8.368 2.021,6.140 2.014 C 4.908 2.011,3.804 2.022,3.686 2.040 M8.000 12.000 L 8.000 20.000 6.000 20.000 L 4.000 20.000 4.000 12.000 L 4.000 4.000 6.000 4.000 L 8.000 4.000 8.000 12.000 M14.000 14.000 L 14.000 20.000 12.000 20.000 L 10.000 20.000 10.000 14.000 L 10.000 8.000 12.000 8.000 L 14.000 8.000 14.000 14.000 M20.000 16.000 L 20.000 20.000 18.000 20.000 L 16.000 20.000 16.000 16.000 L 16.000 12.000 18.000 12.000 L 20.000 12.000 20.000 16.000 " stroke="none" fill-rule="evenodd" fill="black"></path></svg>