<svg width="24" height="24" viewBox="0 0 24 24" fill="none" xmlns="http://www.w3.org/2000/svg"><path d="M8.695 2.057 C 8.466 2.129,8.256 2.299,8.128 2.516 L 8.020 2.700 8.020 12.003 L 8.020 21.306 8.141 21.503 C 8.543 22.156,9.457 22.156,9.859 21.503 L 9.980 21.306 9.980 12.003 L 9.980 2.700 9.872 2.516 C 9.628 2.101,9.150 1.915,8.695 2.057 M20.695 2.057 C 20.466 2.129,20.256 2.299,20.128 2.516 L 20.020 2.700 20.020 12.003 L 20.020 21.306 20.141 21.503 C 20.543 22.156,21.457 22.156,21.859 21.503 L 21.980 21.306 21.980 12.003 L 21.980 2.700 21.872 2.516 C 21.628 2.101,21.150 1.915,20.695 2.057 M2.695 10.057 C 2.466 10.129,2.256 10.299,2.128 10.516 L 2.020 10.700 2.020 16.003 L 2.020 21.306 2.141 21.503 C 2.543 22.156,3.457 22.156,3.859 21.503 L 3.980 21.306 3.980 16.003 L 3.980 10.700 3.872 10.516 C 3.628 10.101,3.150 9.915,2.695 10.057 M14.695 10.057 C 14.466 10.129,14.256 10.299,14.128 10.516 L 14.020 10.700 14.020 16.003 L 14.020 21.306 14.141 21.503 C 14.543 22.156,15.457 22.156,15.859 21.503 L 15.980 21.306 15.980 16.003 L 15.980 10.700 15.872 10.516 C 15.628 10.101,15.150 9.915,14.695 10.057 " stroke="none" fill-rule="evenodd" fill="black"></path></svg>