<svg width="24" height="24" viewBox="0 0 24 24" fill="none" xmlns="http://www.w3.org/2000/svg"><path d="M11.534 2.041 C 10.623 2.205,9.805 2.973,9.575 3.880 C 9.509 4.142,9.486 4.829,9.538 4.992 C 9.561 5.066,9.299 5.275,7.402 6.699 L 5.239 8.321 5.088 8.244 C 4.772 8.083,4.478 8.023,4.000 8.023 C 3.281 8.023,2.830 8.196,2.319 8.669 C 1.755 9.192,1.513 9.741,1.513 10.500 C 1.513 11.258,1.749 11.796,2.317 12.331 C 3.068 13.040,4.169 13.198,5.120 12.735 C 5.351 12.622,5.499 12.509,5.761 12.244 C 6.132 11.868,6.308 11.571,6.424 11.117 C 6.492 10.851,6.513 10.276,6.463 10.052 L 6.435 9.925 8.595 8.304 L 10.756 6.683 10.975 6.783 C 11.814 7.167,12.933 7.012,13.591 6.420 L 13.790 6.241 15.645 6.937 L 17.500 7.632 17.527 7.866 C 17.588 8.399,17.857 8.898,18.319 9.333 C 19.068 10.040,20.170 10.198,21.120 9.735 C 21.351 9.622,21.499 9.509,21.761 9.244 C 22.279 8.720,22.490 8.215,22.490 7.500 C 22.490 6.782,22.278 6.276,21.761 5.759 C 21.207 5.206,20.770 5.023,20.000 5.022 C 19.322 5.021,18.855 5.189,18.393 5.597 L 18.206 5.762 16.353 5.067 L 14.500 4.373 14.469 4.124 C 14.402 3.589,14.137 3.095,13.696 2.682 C 13.220 2.237,12.769 2.047,12.120 2.020 C 11.911 2.011,11.647 2.021,11.534 2.041 M12.226 4.065 C 12.388 4.142,12.480 4.300,12.480 4.500 C 12.480 4.700,12.388 4.858,12.226 4.935 C 12.052 5.017,11.948 5.017,11.774 4.935 C 11.435 4.774,11.431 4.233,11.768 4.067 C 11.936 3.984,12.053 3.984,12.226 4.065 M20.226 7.065 C 20.388 7.142,20.480 7.300,20.480 7.500 C 20.480 7.579,20.454 7.695,20.422 7.757 C 20.360 7.876,20.146 8.000,20.000 8.000 C 19.952 8.000,19.850 7.971,19.774 7.935 C 19.435 7.774,19.431 7.233,19.768 7.067 C 19.936 6.984,20.053 6.984,20.226 7.065 M11.695 9.057 C 11.466 9.129,11.256 9.299,11.128 9.516 L 11.020 9.700 11.020 15.003 L 11.020 20.306 11.141 20.503 C 11.543 21.156,12.457 21.156,12.859 20.503 L 12.980 20.306 12.980 15.003 L 12.980 9.700 12.872 9.516 C 12.628 9.101,12.150 8.915,11.695 9.057 M4.226 10.065 C 4.568 10.228,4.568 10.772,4.226 10.935 C 4.052 11.017,3.948 11.017,3.774 10.935 C 3.435 10.774,3.431 10.233,3.768 10.067 C 3.936 9.984,4.053 9.984,4.226 10.065 M19.695 12.057 C 19.466 12.129,19.256 12.299,19.128 12.516 L 19.020 12.700 19.020 16.503 L 19.020 20.306 19.141 20.503 C 19.209 20.613,19.346 20.756,19.452 20.828 C 19.923 21.144,20.554 20.999,20.859 20.503 L 20.980 20.306 20.980 16.503 L 20.980 12.700 20.872 12.516 C 20.628 12.101,20.150 11.915,19.695 12.057 M3.695 15.057 C 3.466 15.129,3.256 15.299,3.128 15.516 L 3.020 15.700 3.020 18.003 L 3.020 20.306 3.141 20.503 C 3.209 20.613,3.346 20.756,3.452 20.828 C 3.923 21.144,4.554 20.999,4.859 20.503 L 4.980 20.306 4.980 18.003 L 4.980 15.700 4.872 15.516 C 4.628 15.101,4.150 14.915,3.695 15.057 " stroke="none" fill-rule="evenodd" fill="black"></path></svg>