<svg width="24" height="24" viewBox="0 0 24 24" fill="none" xmlns="http://www.w3.org/2000/svg"><path d="M4.920 5.041 C 4.151 5.092,3.672 5.205,3.180 5.451 C 2.089 5.996,1.357 6.961,1.124 8.160 C 1.023 8.677,1.000 9.401,1.000 12.000 C 1.000 15.144,1.025 15.591,1.245 16.320 C 1.577 17.422,2.578 18.423,3.680 18.755 C 4.467 18.992,4.679 19.000,10.500 19.000 C 16.321 19.000,16.533 18.992,17.320 18.755 C 18.422 18.423,19.423 17.422,19.755 16.320 C 19.975 15.591,20.000 15.144,20.000 12.000 C 20.000 8.856,19.975 8.409,19.755 7.680 C 19.424 6.581,18.465 5.622,17.320 5.246 C 16.650 5.026,16.750 5.029,10.840 5.019 C 7.837 5.014,5.173 5.024,4.920 5.041 M16.492 7.091 C 16.894 7.188,17.109 7.309,17.400 7.600 C 17.696 7.896,17.814 8.110,17.911 8.528 C 17.972 8.790,17.979 9.150,17.979 12.000 C 17.979 15.456,17.977 15.489,17.752 15.952 C 17.626 16.211,17.190 16.638,16.918 16.768 C 16.468 16.984,16.587 16.980,10.500 16.980 C 4.422 16.980,4.536 16.984,4.082 16.771 C 3.812 16.643,3.377 16.217,3.248 15.952 C 3.023 15.489,3.021 15.456,3.021 12.000 C 3.021 9.150,3.028 8.790,3.089 8.528 C 3.175 8.155,3.294 7.918,3.520 7.667 C 3.883 7.262,4.281 7.091,4.980 7.039 C 5.200 7.023,7.819 7.013,10.800 7.018 C 15.672 7.025,16.248 7.032,16.492 7.091 M9.891 8.045 C 9.673 8.107,9.483 8.241,9.365 8.415 C 9.112 8.786,7.581 11.594,7.534 11.773 C 7.446 12.106,7.551 12.465,7.807 12.706 C 8.098 12.980,8.088 12.978,9.504 13.000 L 10.789 13.020 10.530 13.480 C 9.926 14.552,9.840 14.741,9.840 14.990 C 9.842 15.863,10.912 16.331,11.516 15.723 C 11.689 15.549,13.411 12.464,13.479 12.206 C 13.560 11.901,13.443 11.529,13.193 11.294 C 12.902 11.020,12.912 11.022,11.496 11.000 L 10.211 10.980 10.470 10.520 C 11.074 9.448,11.160 9.259,11.160 9.010 C 11.158 8.345,10.523 7.862,9.891 8.045 M21.695 10.057 C 21.466 10.129,21.256 10.299,21.128 10.516 L 21.020 10.700 21.020 12.003 L 21.020 13.306 21.141 13.503 C 21.543 14.156,22.457 14.156,22.859 13.503 L 22.980 13.306 22.980 12.003 L 22.980 10.700 22.872 10.516 C 22.628 10.101,22.150 9.915,21.695 10.057 " stroke="none" fill-rule="evenodd" fill="black"></path></svg>