<svg width="24" height="24" viewBox="0 0 24 24" fill="none" xmlns="http://www.w3.org/2000/svg"><path d="M4.920 5.042 C 4.667 5.058,4.343 5.092,4.200 5.118 C 3.027 5.326,1.999 6.086,1.465 7.141 C 1.225 7.613,1.109 8.072,1.041 8.820 C 0.988 9.396,0.988 15.026,1.041 15.489 C 1.190 16.795,2.019 17.966,3.220 18.570 C 3.606 18.764,4.097 18.912,4.511 18.959 C 5.026 19.018,6.147 19.008,6.330 18.943 C 6.551 18.864,6.744 18.702,6.869 18.489 C 6.964 18.328,6.980 18.256,6.980 18.000 C 6.980 17.746,6.963 17.672,6.872 17.516 C 6.759 17.325,6.565 17.153,6.373 17.074 C 6.310 17.048,5.888 17.014,5.420 16.997 C 4.729 16.972,4.538 16.951,4.346 16.884 C 3.772 16.682,3.366 16.284,3.128 15.690 L 3.020 15.420 3.020 12.120 C 3.021 9.160,3.028 8.790,3.089 8.528 C 3.186 8.110,3.304 7.896,3.600 7.600 C 4.096 7.104,4.342 7.044,6.060 7.007 L 7.300 6.980 7.492 6.867 C 8.248 6.423,8.123 5.306,7.290 5.055 C 7.089 4.994,5.763 4.987,4.920 5.042 M11.240 5.035 C 11.055 5.096,10.901 5.192,10.775 5.327 C 10.614 5.497,6.649 11.448,6.571 11.636 C 6.493 11.823,6.496 12.186,6.578 12.382 C 6.668 12.598,6.861 12.791,7.100 12.905 L 7.300 12.999 9.450 13.000 C 10.633 13.000,11.600 13.009,11.600 13.020 C 11.600 13.031,10.918 14.063,10.085 15.314 C 8.450 17.766,8.447 17.773,8.522 18.169 C 8.571 18.432,8.648 18.565,8.858 18.750 C 9.259 19.103,9.853 19.070,10.225 18.674 C 10.386 18.503,14.351 12.551,14.429 12.364 C 14.507 12.177,14.504 11.814,14.422 11.618 C 14.340 11.422,14.150 11.220,13.940 11.106 C 13.782 11.021,13.748 11.020,11.590 11.009 C 10.386 11.002,9.400 10.989,9.400 10.978 C 9.400 10.968,10.068 9.957,10.885 8.732 C 11.702 7.507,12.397 6.442,12.429 6.364 C 12.507 6.177,12.504 5.815,12.422 5.618 C 12.339 5.420,12.147 5.217,11.943 5.112 C 11.771 5.024,11.399 4.983,11.240 5.035 M14.695 5.057 C 14.051 5.258,13.799 6.040,14.198 6.591 C 14.263 6.681,14.402 6.805,14.506 6.866 C 14.691 6.974,14.713 6.977,15.566 7.008 C 16.352 7.037,16.463 7.050,16.702 7.139 C 17.260 7.349,17.638 7.728,17.872 8.310 L 17.980 8.580 17.980 11.880 C 17.979 15.467,17.978 15.488,17.752 15.952 C 17.627 16.210,17.190 16.638,16.920 16.767 C 16.571 16.934,16.299 16.966,14.980 16.997 C 14.176 17.015,13.700 17.042,13.627 17.073 C 13.433 17.155,13.240 17.326,13.128 17.516 C 13.037 17.672,13.020 17.746,13.020 18.000 C 13.020 18.256,13.036 18.328,13.131 18.489 C 13.256 18.702,13.449 18.864,13.670 18.943 C 13.975 19.052,16.174 19.005,16.840 18.876 C 17.806 18.689,18.623 18.178,19.199 17.401 C 19.662 16.777,19.868 16.175,19.959 15.180 C 20.012 14.604,20.012 8.974,19.959 8.511 C 19.860 7.648,19.452 6.814,18.819 6.181 C 18.157 5.519,17.332 5.128,16.411 5.041 C 15.816 4.985,14.899 4.993,14.695 5.057 M21.695 10.057 C 21.466 10.129,21.256 10.299,21.128 10.516 L 21.020 10.700 21.020 12.003 L 21.020 13.306 21.141 13.503 C 21.543 14.156,22.457 14.156,22.859 13.503 L 22.980 13.306 22.980 12.003 L 22.980 10.700 22.872 10.516 C 22.628 10.101,22.150 9.915,21.695 10.057 " stroke="none" fill-rule="evenodd" fill="black"></path></svg>