<svg width="24" height="24" viewBox="0 0 24 24" fill="none" xmlns="http://www.w3.org/2000/svg"><path d="M7.696 1.041 C 7.081 1.165,6.625 1.661,6.521 2.320 C 6.468 2.662,6.468 5.345,6.522 5.680 C 6.635 6.379,7.078 6.843,7.755 6.968 L 8.004 7.015 7.992 9.177 C 7.978 11.691,8.014 11.483,7.512 11.928 C 7.351 12.071,6.293 12.959,5.160 13.902 C 4.027 14.845,2.972 15.747,2.815 15.907 C 2.602 16.125,2.484 16.290,2.345 16.569 C 2.026 17.207,2.020 17.250,2.020 18.960 C 2.020 20.307,2.028 20.489,2.096 20.740 C 2.387 21.815,3.185 22.613,4.260 22.904 C 4.530 22.977,4.804 22.980,12.000 22.980 C 19.236 22.980,19.468 22.978,19.740 22.903 C 20.839 22.601,21.601 21.839,21.903 20.740 C 21.973 20.487,21.980 20.316,21.980 18.960 C 21.980 17.250,21.974 17.207,21.655 16.569 C 21.516 16.290,21.398 16.125,21.185 15.907 C 21.028 15.747,19.973 14.845,18.840 13.902 C 17.707 12.959,16.649 12.071,16.488 11.928 C 15.986 11.483,16.022 11.691,16.008 9.177 L 15.996 7.015 16.245 6.968 C 16.749 6.875,17.145 6.578,17.344 6.143 C 17.501 5.799,17.528 5.420,17.510 3.774 C 17.497 2.493,17.484 2.228,17.427 2.054 C 17.287 1.628,16.956 1.275,16.531 1.099 C 16.345 1.022,16.226 1.020,12.100 1.014 C 9.768 1.010,7.786 1.023,7.696 1.041 M15.480 4.000 L 15.480 5.000 12.000 5.000 L 8.520 5.000 8.520 4.000 L 8.520 3.000 12.000 3.000 L 15.480 3.000 15.480 4.000 M14.010 9.290 C 14.027 11.873,14.016 11.772,14.345 12.431 C 14.598 12.938,14.793 13.128,16.658 14.682 L 18.215 15.980 15.108 15.990 C 13.398 15.996,10.602 15.996,8.892 15.990 L 5.785 15.980 7.342 14.682 C 9.207 13.128,9.402 12.938,9.655 12.431 C 9.984 11.772,9.973 11.873,9.990 9.290 L 10.005 7.000 12.000 7.000 L 13.995 7.000 14.010 9.290 M19.316 18.063 C 19.613 18.151,19.854 18.398,19.944 18.707 C 20.000 18.902,20.008 19.045,19.987 19.580 C 19.974 19.932,19.943 20.289,19.918 20.374 C 19.863 20.568,19.583 20.852,19.376 20.925 C 19.143 21.007,4.857 21.007,4.624 20.925 C 4.417 20.852,4.137 20.568,4.082 20.374 C 4.057 20.289,4.026 19.932,4.013 19.580 C 3.982 18.782,4.030 18.567,4.299 18.299 C 4.615 17.982,4.008 18.006,11.983 18.003 C 18.337 18.000,19.128 18.007,19.316 18.063 " stroke="none" fill-rule="evenodd" fill="black"></path></svg>