<svg width="24" height="24" viewBox="0 0 24 24" fill="none" xmlns="http://www.w3.org/2000/svg"><path d="M11.540 1.023 C 10.472 1.127,9.878 1.282,9.020 1.681 C 7.126 2.562,5.714 4.286,5.203 6.340 C 5.093 6.782,5.000 7.532,5.000 7.973 C 5.000 8.914,4.860 10.270,4.679 11.085 C 4.397 12.356,4.037 13.198,3.176 14.600 C 2.576 15.577,2.429 15.844,2.339 16.118 C 2.098 16.858,2.517 17.645,3.294 17.910 C 3.487 17.976,4.002 17.981,11.760 17.991 C 17.147 17.999,20.136 17.989,20.354 17.962 C 20.933 17.892,21.317 17.651,21.551 17.211 C 21.701 16.927,21.765 16.603,21.720 16.359 C 21.648 15.977,21.542 15.773,20.680 14.360 C 20.067 13.354,19.807 12.790,19.520 11.840 C 19.283 11.056,19.167 10.417,19.060 9.311 C 18.997 8.667,18.945 8.514,18.714 8.292 C 18.495 8.083,18.228 7.986,17.953 8.014 C 17.658 8.045,17.447 8.152,17.269 8.360 C 17.067 8.596,17.023 8.798,17.054 9.342 C 17.131 10.690,17.490 12.315,17.962 13.460 C 18.291 14.256,18.487 14.631,19.051 15.540 L 19.324 15.980 15.662 15.990 C 13.648 15.996,10.354 15.996,8.342 15.990 L 4.683 15.980 5.104 15.280 C 5.920 13.923,6.364 12.805,6.678 11.320 C 6.856 10.478,6.999 9.134,6.999 8.288 C 7.000 7.761,7.060 7.160,7.145 6.820 C 7.446 5.622,8.209 4.528,9.200 3.873 C 10.253 3.178,11.274 2.924,12.548 3.041 C 13.192 3.100,13.317 3.081,13.591 2.882 C 14.036 2.559,14.124 1.914,13.783 1.467 C 13.636 1.275,13.342 1.128,13.006 1.081 C 12.684 1.035,11.783 1.000,11.540 1.023 M14.695 4.057 C 14.466 4.129,14.256 4.299,14.128 4.516 C 14.037 4.672,14.020 4.746,14.020 5.000 C 14.020 5.256,14.036 5.328,14.131 5.489 C 14.256 5.702,14.449 5.864,14.670 5.943 C 14.891 6.022,21.109 6.022,21.330 5.943 C 21.551 5.864,21.744 5.702,21.869 5.489 C 21.964 5.328,21.980 5.256,21.980 5.000 C 21.980 4.746,21.963 4.672,21.872 4.516 C 21.740 4.293,21.533 4.128,21.290 4.055 C 21.030 3.977,14.945 3.979,14.695 4.057 M9.040 20.061 C 8.484 20.234,8.204 20.884,8.455 21.422 C 8.659 21.861,9.590 22.471,10.490 22.756 C 11.507 23.078,12.494 23.078,13.510 22.756 C 14.409 22.471,15.341 21.860,15.545 21.422 C 15.799 20.876,15.514 20.229,14.943 20.059 C 14.535 19.937,14.323 19.994,13.853 20.352 C 13.242 20.818,12.769 20.978,12.000 20.978 C 11.234 20.978,10.757 20.818,10.154 20.358 C 9.688 20.002,9.442 19.937,9.040 20.061 " stroke="none" fill-rule="evenodd" fill="black"></path></svg>