<svg width="24" height="24" viewBox="0 0 24 24" fill="none" xmlns="http://www.w3.org/2000/svg"><path d="M11.405 1.058 C 10.175 1.292,9.187 2.098,8.745 3.227 C 8.472 3.925,8.430 4.814,8.637 5.481 L 8.711 5.719 8.406 5.887 C 6.795 6.773,5.722 8.035,5.238 9.613 C 5.089 10.100,5.041 10.444,5.000 11.330 C 4.904 13.381,4.592 14.588,3.813 15.920 C 2.745 17.747,2.640 17.949,2.563 18.322 C 2.477 18.743,2.636 19.203,2.993 19.559 C 3.183 19.750,3.277 19.809,3.503 19.884 C 3.776 19.975,3.812 19.977,5.952 19.991 C 7.944 20.004,8.126 20.011,8.146 20.073 C 8.545 21.336,9.356 22.238,10.512 22.704 C 11.231 22.994,12.023 23.070,12.757 22.921 C 14.127 22.641,15.230 21.723,15.711 20.460 C 15.778 20.284,15.842 20.110,15.854 20.073 C 15.874 20.011,16.056 20.004,18.048 19.991 C 20.188 19.977,20.224 19.975,20.497 19.884 C 21.125 19.676,21.568 18.938,21.436 18.318 C 21.367 17.990,21.228 17.712,20.559 16.559 C 19.896 15.416,19.716 15.056,19.505 14.447 C 19.210 13.600,19.064 12.700,19.000 11.330 C 18.959 10.444,18.911 10.100,18.762 9.613 C 18.278 8.035,17.205 6.773,15.594 5.887 L 15.289 5.719 15.363 5.481 C 15.565 4.830,15.532 3.986,15.275 3.280 C 14.901 2.250,13.960 1.401,12.880 1.118 C 12.480 1.013,11.788 0.985,11.405 1.058 M12.367 3.055 C 12.820 3.161,13.228 3.528,13.397 3.981 C 13.493 4.238,13.506 4.732,13.423 4.960 C 13.364 5.120,13.444 5.113,12.570 5.039 C 12.127 5.002,11.873 5.002,11.430 5.039 C 10.556 5.113,10.636 5.120,10.577 4.960 C 10.494 4.732,10.507 4.238,10.603 3.981 C 10.871 3.265,11.611 2.877,12.367 3.055 M4.259 3.872 C 3.871 4.006,3.226 4.499,2.792 4.992 C 2.022 5.866,1.560 7.047,1.560 8.135 C 1.561 8.592,1.602 8.741,1.788 8.958 C 2.161 9.395,2.818 9.438,3.215 9.051 C 3.456 8.817,3.520 8.650,3.561 8.145 C 3.598 7.690,3.702 7.272,3.850 6.980 C 4.088 6.510,4.469 6.077,4.891 5.795 C 5.358 5.483,5.485 5.326,5.563 4.963 C 5.655 4.533,5.373 4.045,4.937 3.882 C 4.671 3.783,4.524 3.781,4.259 3.872 M19.063 3.881 C 18.678 4.031,18.426 4.394,18.428 4.796 C 18.429 5.208,18.576 5.430,19.068 5.764 C 19.915 6.339,20.354 7.101,20.439 8.145 C 20.480 8.650,20.544 8.817,20.785 9.051 C 21.182 9.438,21.839 9.395,22.212 8.958 C 22.398 8.741,22.439 8.592,22.440 8.135 C 22.441 6.603,21.566 5.022,20.224 4.130 C 19.736 3.805,19.427 3.739,19.063 3.881 M12.603 7.042 C 13.855 7.171,14.974 7.677,15.794 8.487 C 16.637 9.319,16.998 10.214,17.001 11.473 C 17.002 11.955,17.086 12.858,17.182 13.410 C 17.427 14.826,17.815 15.839,18.672 17.300 L 19.071 17.980 15.536 17.990 C 13.591 17.996,10.409 17.996,8.464 17.990 L 4.929 17.980 5.328 17.300 C 6.095 15.991,6.452 15.126,6.716 13.940 C 6.879 13.203,6.998 12.170,6.999 11.473 C 7.002 10.214,7.363 9.319,8.206 8.487 C 9.301 7.405,10.929 6.870,12.603 7.042 M13.652 20.124 C 13.546 20.306,13.143 20.667,12.917 20.781 C 12.809 20.836,12.618 20.908,12.492 20.940 C 12.043 21.057,11.508 20.997,11.083 20.781 C 10.857 20.667,10.454 20.306,10.348 20.124 L 10.275 20.000 12.000 20.000 L 13.725 20.000 13.652 20.124 " stroke="none" fill-rule="evenodd" fill="black"></path></svg>