<svg width="24" height="24" viewBox="0 0 24 24" fill="none" xmlns="http://www.w3.org/2000/svg"><path d="M11.540 1.023 C 10.475 1.126,9.878 1.282,9.020 1.681 C 7.126 2.562,5.714 4.286,5.203 6.340 C 5.093 6.782,5.000 7.532,5.000 7.973 C 5.000 8.913,4.861 10.267,4.679 11.085 C 4.410 12.302,4.065 13.131,3.311 14.372 C 2.386 15.894,2.274 16.125,2.270 16.522 C 2.263 17.140,2.675 17.698,3.294 17.910 C 3.487 17.976,4.002 17.981,11.760 17.991 C 17.147 17.999,20.136 17.989,20.354 17.962 C 20.933 17.892,21.317 17.651,21.551 17.211 C 21.701 16.927,21.766 16.603,21.719 16.360 C 21.644 15.965,21.568 15.818,20.688 14.369 C 19.934 13.130,19.593 12.309,19.321 11.085 C 19.140 10.270,19.000 8.914,19.000 7.973 C 19.000 7.230,18.845 6.374,18.573 5.620 C 17.718 3.244,15.589 1.480,13.120 1.102 C 12.727 1.041,11.820 0.996,11.540 1.023 M3.869 1.420 C 3.309 1.708,2.547 2.399,2.172 2.960 C 1.612 3.796,1.314 4.720,1.306 5.640 C 1.301 6.107,1.342 6.246,1.557 6.490 C 1.928 6.912,2.607 6.918,3.011 6.501 C 3.205 6.301,3.270 6.106,3.318 5.580 C 3.339 5.338,3.387 5.041,3.423 4.920 C 3.616 4.278,4.107 3.628,4.669 3.272 C 5.109 2.993,5.320 2.678,5.320 2.300 C 5.320 1.939,5.067 1.543,4.742 1.395 C 4.499 1.285,4.110 1.296,3.869 1.420 M19.259 1.395 C 19.054 1.488,18.848 1.694,18.755 1.899 C 18.609 2.220,18.685 2.691,18.927 2.966 C 18.978 3.024,19.155 3.161,19.320 3.271 C 20.156 3.829,20.591 4.576,20.682 5.612 C 20.736 6.219,20.855 6.472,21.176 6.660 C 21.801 7.026,22.553 6.683,22.685 5.973 C 22.760 5.565,22.619 4.650,22.383 4.024 C 21.981 2.957,21.070 1.899,20.153 1.436 C 19.872 1.295,19.516 1.278,19.259 1.395 M12.552 3.042 C 14.626 3.269,16.341 4.775,16.855 6.820 C 16.940 7.160,17.000 7.761,17.001 8.288 C 17.001 9.134,17.144 10.478,17.322 11.320 C 17.636 12.805,18.080 13.923,18.896 15.280 L 19.317 15.980 15.658 15.990 C 13.646 15.996,10.354 15.996,8.342 15.990 L 4.683 15.980 5.104 15.280 C 5.920 13.923,6.364 12.805,6.678 11.320 C 6.856 10.478,6.999 9.134,6.999 8.288 C 7.000 7.761,7.060 7.160,7.145 6.820 C 7.602 5.002,9.026 3.585,10.840 3.141 C 11.374 3.011,11.954 2.977,12.552 3.042 M9.040 20.061 C 8.646 20.184,8.360 20.579,8.360 20.998 C 8.361 21.311,8.495 21.579,8.765 21.806 C 10.641 23.388,13.359 23.388,15.235 21.806 C 15.372 21.691,15.485 21.551,15.545 21.422 C 15.799 20.876,15.514 20.229,14.943 20.059 C 14.541 19.939,14.314 20.001,13.846 20.358 C 13.243 20.818,12.766 20.978,12.000 20.978 C 11.234 20.978,10.757 20.818,10.154 20.358 C 9.688 20.002,9.442 19.937,9.040 20.061 " stroke="none" fill-rule="evenodd" fill="black"></path></svg>