<svg width="24" height="24" viewBox="0 0 24 24" fill="none" xmlns="http://www.w3.org/2000/svg"><path d="M11.420 1.024 C 10.269 1.145,9.205 1.496,8.325 2.045 C 7.965 2.269,7.847 2.385,7.735 2.620 C 7.480 3.160,7.758 3.793,8.334 3.985 C 8.599 4.073,8.866 4.037,9.153 3.875 C 10.253 3.255,10.770 3.080,11.695 3.016 C 12.095 2.988,12.801 3.049,13.180 3.145 C 14.993 3.603,16.400 5.010,16.855 6.820 C 16.942 7.165,17.000 7.764,17.000 8.309 C 17.000 9.347,17.148 10.886,17.345 11.880 C 17.477 12.553,17.674 13.309,17.762 13.480 C 17.978 13.904,18.471 14.118,18.926 13.985 C 19.202 13.905,19.407 13.733,19.536 13.472 C 19.676 13.192,19.670 12.999,19.500 12.332 C 19.183 11.082,19.068 10.146,19.000 8.240 C 18.953 6.930,18.877 6.465,18.573 5.620 C 17.717 3.240,15.583 1.476,13.100 1.097 C 12.725 1.040,11.698 0.995,11.420 1.024 M2.670 2.061 C 2.448 2.142,2.250 2.309,2.128 2.516 C 2.037 2.672,2.020 2.746,2.020 3.000 C 2.020 3.254,2.036 3.327,2.127 3.480 C 2.187 3.579,2.890 4.314,3.691 5.113 L 5.147 6.567 5.094 6.853 C 5.065 7.011,5.024 7.563,5.002 8.080 C 4.952 9.256,4.931 9.530,4.837 10.187 C 4.595 11.882,4.198 12.934,3.176 14.600 C 2.576 15.577,2.429 15.844,2.339 16.118 C 2.098 16.858,2.518 17.645,3.294 17.909 C 3.486 17.975,3.931 17.980,10.040 17.991 L 16.580 18.002 18.500 19.917 C 19.556 20.970,20.483 21.865,20.560 21.905 C 20.659 21.957,20.788 21.979,21.000 21.979 C 21.258 21.980,21.327 21.964,21.492 21.867 C 21.968 21.587,22.139 20.967,21.865 20.508 C 21.810 20.416,17.665 16.243,12.653 11.235 C 4.231 2.820,3.525 2.125,3.343 2.065 C 3.107 1.987,2.874 1.986,2.670 2.061 M12.077 15.990 C 10.711 15.996,8.489 15.996,7.139 15.990 L 4.683 15.980 5.104 15.280 C 5.591 14.471,5.897 13.855,6.143 13.187 C 6.600 11.948,6.852 10.703,6.964 9.127 L 7.014 8.434 10.787 12.207 L 14.560 15.980 12.077 15.990 M9.040 20.061 C 8.484 20.234,8.204 20.884,8.455 21.422 C 8.659 21.861,9.590 22.471,10.490 22.756 C 11.507 23.078,12.494 23.078,13.510 22.756 C 14.409 22.471,15.341 21.860,15.545 21.422 C 15.799 20.876,15.514 20.229,14.943 20.059 C 14.535 19.937,14.323 19.994,13.853 20.352 C 13.242 20.818,12.769 20.978,12.000 20.978 C 11.234 20.978,10.757 20.818,10.154 20.358 C 9.688 20.002,9.442 19.937,9.040 20.061 " stroke="none" fill-rule="evenodd" fill="black"></path></svg>