<svg width="24" height="24" viewBox="0 0 24 24" fill="none" xmlns="http://www.w3.org/2000/svg"><path d="M11.540 1.023 C 10.475 1.126,9.878 1.282,9.020 1.681 C 7.126 2.562,5.714 4.286,5.203 6.340 C 5.093 6.782,5.000 7.532,5.000 7.973 C 5.000 8.913,4.861 10.267,4.679 11.085 C 4.410 12.302,4.065 13.131,3.311 14.372 C 2.386 15.894,2.274 16.125,2.270 16.522 C 2.263 17.151,2.688 17.716,3.315 17.910 C 3.526 17.976,4.072 17.980,12.000 17.980 C 19.928 17.980,20.474 17.976,20.685 17.910 C 21.506 17.656,21.927 16.822,21.628 16.040 C 21.511 15.733,21.405 15.544,20.800 14.560 C 19.970 13.210,19.597 12.334,19.321 11.085 C 19.139 10.267,19.000 8.913,19.000 7.973 C 19.000 7.230,18.845 6.374,18.573 5.620 C 17.718 3.244,15.589 1.480,13.120 1.102 C 12.727 1.041,11.820 0.996,11.540 1.023 M3.869 1.420 C 3.309 1.708,2.547 2.399,2.172 2.960 C 1.612 3.796,1.314 4.720,1.306 5.640 C 1.301 6.107,1.342 6.246,1.557 6.490 C 1.928 6.912,2.607 6.918,3.011 6.501 C 3.205 6.301,3.270 6.106,3.318 5.580 C 3.339 5.338,3.387 5.041,3.423 4.920 C 3.616 4.278,4.107 3.628,4.669 3.272 C 5.109 2.993,5.320 2.678,5.320 2.300 C 5.320 1.939,5.067 1.543,4.742 1.395 C 4.499 1.285,4.110 1.296,3.869 1.420 M19.259 1.395 C 19.054 1.488,18.848 1.694,18.755 1.899 C 18.609 2.220,18.685 2.691,18.927 2.966 C 18.978 3.024,19.155 3.161,19.320 3.271 C 20.156 3.829,20.591 4.576,20.682 5.612 C 20.736 6.219,20.855 6.472,21.176 6.660 C 21.801 7.026,22.553 6.683,22.685 5.973 C 22.760 5.565,22.619 4.650,22.383 4.024 C 21.981 2.957,21.070 1.899,20.153 1.436 C 19.872 1.295,19.516 1.278,19.259 1.395 M12.552 3.042 C 14.626 3.269,16.341 4.775,16.855 6.820 C 16.940 7.160,17.000 7.761,17.001 8.288 C 17.001 9.134,17.144 10.478,17.322 11.320 C 17.636 12.805,18.080 13.923,18.896 15.280 L 19.317 15.980 15.658 15.990 C 13.646 15.996,10.354 15.996,8.342 15.990 L 4.683 15.980 5.104 15.280 C 5.920 13.923,6.364 12.805,6.678 11.320 C 6.856 10.478,6.999 9.134,6.999 8.288 C 7.000 7.761,7.060 7.160,7.145 6.820 C 7.602 5.002,9.026 3.585,10.840 3.141 C 11.374 3.011,11.954 2.977,12.552 3.042 M9.695 20.057 C 9.466 20.129,9.256 20.299,9.128 20.516 C 9.037 20.672,9.020 20.746,9.020 21.000 C 9.020 21.256,9.036 21.328,9.131 21.489 C 9.256 21.702,9.449 21.864,9.670 21.943 C 9.889 22.021,14.111 22.021,14.330 21.943 C 14.551 21.864,14.744 21.702,14.869 21.489 C 14.964 21.328,14.980 21.256,14.980 21.000 C 14.980 20.746,14.963 20.672,14.872 20.516 C 14.740 20.293,14.533 20.128,14.290 20.055 C 14.033 19.978,9.943 19.979,9.695 20.057 " stroke="none" fill-rule="evenodd" fill="black"></path></svg>