<svg width="24" height="24" viewBox="0 0 24 24" fill="none" xmlns="http://www.w3.org/2000/svg"><path d="M8.180 1.067 C 7.500 1.217,7.042 1.408,6.626 1.716 C 6.332 1.932,5.887 2.423,5.709 2.724 C 5.403 3.243,5.200 3.960,5.200 4.520 C 5.200 5.067,5.419 5.858,5.700 6.331 L 5.840 6.565 5.505 6.882 C 4.580 7.757,3.928 8.884,3.643 10.100 C 3.432 11.000,3.443 11.773,3.679 12.800 C 3.961 14.022,4.040 14.604,4.040 15.458 C 4.039 16.477,3.969 16.903,3.546 18.445 C 3.213 19.662,3.145 19.996,3.171 20.310 C 3.210 20.800,3.520 21.228,4.000 21.456 C 4.233 21.567,4.296 21.579,4.600 21.573 C 4.966 21.566,5.279 21.496,7.036 21.022 C 7.573 20.878,8.014 20.764,8.017 20.770 C 8.079 20.921,8.480 21.426,8.715 21.650 C 9.272 22.183,9.824 22.488,10.580 22.683 C 10.998 22.791,11.808 22.812,12.220 22.725 C 13.293 22.500,14.157 21.941,14.773 21.074 C 15.154 20.537,15.429 19.770,15.469 19.131 L 15.492 18.762 15.696 18.704 C 15.808 18.672,16.775 18.411,17.844 18.124 C 20.569 17.394,20.807 17.313,21.116 17.004 C 21.200 16.920,21.320 16.745,21.383 16.616 C 21.483 16.408,21.497 16.334,21.499 16.000 C 21.501 15.397,21.466 15.348,20.060 13.920 C 18.952 12.796,18.844 12.673,18.481 12.120 C 17.984 11.362,17.544 10.361,17.218 9.246 C 17.139 8.974,17.016 8.614,16.945 8.446 C 16.455 7.287,15.498 6.262,14.280 5.592 C 13.749 5.299,12.893 4.991,12.350 4.897 L 12.200 4.871 12.200 4.514 C 12.200 2.859,10.998 1.408,9.369 1.097 C 9.095 1.044,8.365 1.026,8.180 1.067 M9.328 3.172 C 9.660 3.335,9.887 3.556,10.039 3.865 C 10.155 4.099,10.173 4.177,10.176 4.457 L 10.180 4.780 10.040 4.792 C 9.451 4.840,8.443 5.099,7.843 5.355 C 7.680 5.425,7.533 5.468,7.516 5.451 C 7.427 5.359,7.268 4.963,7.231 4.739 C 7.119 4.063,7.539 3.365,8.205 3.118 C 8.522 3.000,9.026 3.025,9.328 3.172 M12.208 6.914 C 13.325 7.209,14.215 7.813,14.779 8.660 C 15.025 9.029,15.141 9.293,15.318 9.880 C 15.829 11.584,16.487 12.902,17.373 14.000 C 17.507 14.165,17.930 14.619,18.315 15.010 C 18.700 15.400,19.007 15.726,18.997 15.735 C 18.988 15.744,16.010 16.546,12.380 17.518 C 8.750 18.489,5.691 19.309,5.581 19.340 C 5.472 19.371,5.379 19.392,5.373 19.387 C 5.368 19.381,5.462 19.018,5.583 18.579 C 5.878 17.506,5.996 16.846,6.035 16.040 C 6.091 14.913,6.005 14.035,5.714 12.740 C 5.506 11.817,5.477 11.555,5.523 11.052 C 5.714 9.003,7.492 7.274,9.860 6.835 C 10.182 6.776,10.404 6.764,11.000 6.776 C 11.672 6.789,11.783 6.802,12.208 6.914 M13.382 19.430 C 13.293 19.788,12.812 20.370,12.452 20.554 C 12.208 20.678,11.731 20.800,11.487 20.800 C 11.235 20.800,10.852 20.708,10.622 20.592 C 10.431 20.496,10.069 20.238,10.092 20.214 C 10.108 20.198,13.309 19.329,13.374 19.323 C 13.393 19.321,13.396 19.370,13.382 19.430 " stroke="none" fill-rule="evenodd" fill="black"></path></svg>