<svg width="24" height="24" viewBox="0 0 24 24" fill="none" xmlns="http://www.w3.org/2000/svg"><path d="M9.260 1.098 C 7.895 1.413,6.876 2.408,6.556 3.740 C 6.355 4.573,6.522 5.643,6.960 6.333 C 7.026 6.437,7.080 6.533,7.080 6.546 C 7.080 6.558,6.904 6.743,6.688 6.956 C 5.727 7.906,5.133 8.984,4.852 10.285 C 4.796 10.546,4.780 10.792,4.782 11.400 C 4.784 12.160,4.788 12.197,4.935 12.820 C 5.335 14.509,5.404 15.660,5.182 16.920 C 5.149 17.107,4.998 17.719,4.846 18.280 C 4.484 19.613,4.425 19.884,4.424 20.220 C 4.423 20.732,4.732 21.203,5.231 21.449 C 5.467 21.565,5.526 21.577,5.836 21.573 C 6.203 21.569,6.535 21.494,8.360 21.002 C 9.174 20.783,9.264 20.766,9.300 20.826 C 9.441 21.060,9.835 21.544,10.026 21.719 C 11.642 23.196,14.115 23.130,15.606 21.570 C 16.279 20.865,16.608 20.155,16.732 19.143 L 16.780 18.747 18.822 18.199 C 21.340 17.525,21.675 17.427,21.993 17.271 C 22.543 17.000,22.840 16.427,22.754 15.797 C 22.695 15.372,22.584 15.226,21.419 14.040 C 20.103 12.702,19.880 12.427,19.384 11.530 C 19.005 10.847,18.845 10.437,18.385 8.971 C 17.760 6.981,16.049 5.468,13.830 4.943 L 13.479 4.860 13.463 4.460 C 13.418 3.361,12.912 2.372,12.069 1.738 C 11.769 1.513,11.190 1.231,10.840 1.140 C 10.487 1.048,9.581 1.024,9.260 1.098 M17.193 2.877 C 16.747 3.021,16.441 3.422,16.440 3.863 C 16.440 4.234,16.739 4.651,17.100 4.780 C 17.894 5.065,18.173 5.223,18.555 5.605 C 18.924 5.974,19.119 6.294,19.318 6.859 C 19.466 7.279,19.577 7.440,19.819 7.582 C 20.442 7.947,21.243 7.531,21.309 6.809 C 21.345 6.409,21.024 5.569,20.588 4.923 C 20.324 4.531,19.822 4.012,19.404 3.698 C 18.675 3.151,17.591 2.748,17.193 2.877 M10.595 3.176 C 11.115 3.443,11.402 3.872,11.432 4.429 C 11.453 4.807,11.493 4.770,10.986 4.837 C 10.370 4.918,9.604 5.132,8.990 5.396 L 8.799 5.477 8.703 5.329 C 8.444 4.932,8.405 4.298,8.613 3.891 C 8.914 3.304,9.382 3.029,10.040 3.053 C 10.317 3.064,10.420 3.086,10.595 3.176 M2.833 6.735 C 2.600 6.799,2.432 6.926,2.150 7.248 C 1.541 7.948,1.151 8.776,0.980 9.731 C 0.849 10.464,0.949 11.624,1.183 12.085 C 1.536 12.782,2.587 12.772,2.938 12.069 C 3.058 11.828,3.070 11.563,2.981 11.140 C 2.791 10.246,3.064 9.237,3.682 8.544 C 3.963 8.230,4.038 8.104,4.085 7.868 C 4.121 7.690,4.117 7.610,4.063 7.424 C 3.908 6.891,3.366 6.588,2.833 6.735 M13.320 6.873 C 14.361 7.116,15.313 7.689,15.863 8.404 C 16.154 8.782,16.381 9.255,16.580 9.900 C 16.940 11.065,17.193 11.696,17.600 12.444 C 18.138 13.434,18.650 14.097,19.613 15.051 C 19.986 15.421,20.284 15.728,20.275 15.735 C 20.219 15.780,6.657 19.382,6.647 19.355 C 6.640 19.337,6.714 19.028,6.813 18.671 C 7.218 17.195,7.298 16.677,7.296 15.520 C 7.295 14.387,7.200 13.643,6.908 12.480 C 6.794 12.027,6.782 11.922,6.782 11.360 C 6.782 10.834,6.796 10.692,6.873 10.421 C 7.316 8.874,8.538 7.652,10.223 7.068 C 10.564 6.951,10.761 6.903,11.400 6.784 C 11.455 6.774,11.833 6.772,12.240 6.780 C 12.796 6.791,13.065 6.814,13.320 6.873 M14.680 19.347 C 14.680 19.362,14.613 19.509,14.531 19.675 C 14.265 20.214,13.794 20.589,13.197 20.735 C 12.739 20.848,12.307 20.798,11.860 20.580 C 11.647 20.476,11.343 20.244,11.376 20.211 C 11.398 20.189,14.548 19.330,14.630 19.324 C 14.658 19.322,14.680 19.332,14.680 19.347 " stroke="none" fill-rule="evenodd" fill="black"></path></svg>