<svg width="24" height="24" viewBox="0 0 24 24" fill="none" xmlns="http://www.w3.org/2000/svg"><path d="M11.580 1.024 C 10.701 1.153,9.814 1.642,9.294 2.286 C 8.774 2.929,8.512 3.671,8.512 4.500 C 8.512 5.524,8.899 6.376,9.556 6.797 C 9.999 7.082,10.399 7.145,11.193 7.057 C 12.691 6.890,14.043 7.196,15.148 7.954 C 16.063 8.583,16.724 9.522,16.923 10.480 C 16.944 10.579,16.977 11.048,16.996 11.522 C 17.037 12.508,17.074 12.642,17.382 12.914 C 17.935 13.400,18.800 13.125,19.000 12.399 C 19.052 12.208,18.982 10.591,18.905 10.193 C 18.550 8.376,17.401 6.880,15.594 5.887 L 15.289 5.719 15.363 5.481 C 15.518 4.982,15.532 4.199,15.396 3.660 C 15.210 2.923,14.765 2.235,14.165 1.759 C 13.842 1.502,13.187 1.186,12.800 1.099 C 12.503 1.033,11.811 0.990,11.580 1.024 M2.689 3.056 C 2.452 3.134,2.262 3.289,2.131 3.511 C 2.038 3.669,2.020 3.746,2.020 3.980 C 2.020 4.477,1.976 4.428,4.100 6.315 L 5.998 8.002 5.833 8.271 C 5.512 8.792,5.249 9.464,5.114 10.100 C 5.065 10.331,5.024 10.769,4.999 11.320 C 4.937 12.695,4.791 13.598,4.494 14.453 C 4.290 15.039,4.072 15.477,3.519 16.420 C 2.610 17.970,2.469 18.316,2.564 18.763 C 2.640 19.114,2.747 19.313,2.993 19.559 C 3.183 19.750,3.277 19.809,3.503 19.884 C 3.776 19.975,3.812 19.977,5.952 19.991 C 7.945 20.004,8.126 20.011,8.145 20.073 C 8.436 21.057,9.096 21.918,9.956 22.436 C 10.762 22.923,11.837 23.108,12.757 22.921 C 14.127 22.641,15.230 21.723,15.711 20.460 C 15.778 20.284,15.843 20.108,15.855 20.070 C 15.876 20.005,15.998 20.000,17.689 20.001 L 19.500 20.002 19.970 20.420 C 20.507 20.897,20.607 20.958,20.900 20.989 C 21.291 21.029,21.665 20.836,21.869 20.489 C 22.017 20.236,22.026 19.834,21.889 19.556 C 21.813 19.402,20.381 18.112,13.051 11.596 C 2.936 2.605,3.577 3.171,3.425 3.092 C 3.261 3.007,2.894 2.989,2.689 3.056 M12.344 3.053 C 13.012 3.193,13.484 3.800,13.477 4.512 C 13.473 4.910,13.407 5.102,13.276 5.095 C 13.223 5.092,12.915 5.066,12.592 5.037 C 12.040 4.987,11.613 5.000,10.705 5.092 C 10.520 5.111,10.453 4.382,10.603 3.981 C 10.769 3.538,11.179 3.162,11.614 3.057 C 11.883 2.991,12.047 2.991,12.344 3.053 M12.385 13.680 L 17.245 18.000 11.080 18.000 C 7.689 18.000,4.924 17.987,4.934 17.970 C 6.438 15.536,6.887 14.121,7.000 11.460 C 7.040 10.515,7.103 10.191,7.347 9.670 C 7.427 9.500,7.500 9.360,7.509 9.360 C 7.518 9.360,9.712 11.304,12.385 13.680 M13.652 20.124 C 13.546 20.306,13.143 20.667,12.917 20.781 C 12.809 20.836,12.618 20.908,12.492 20.940 C 12.043 21.057,11.508 20.997,11.083 20.781 C 10.857 20.667,10.454 20.306,10.348 20.124 L 10.275 20.000 12.000 20.000 L 13.725 20.000 13.652 20.124 " stroke="none" fill-rule="evenodd" fill="black"></path></svg>