<svg width="24" height="24" viewBox="0 0 24 24" fill="none" xmlns="http://www.w3.org/2000/svg"><path d="M11.540 1.023 C 10.472 1.127,9.878 1.282,9.020 1.681 C 7.126 2.562,5.714 4.286,5.203 6.340 C 5.093 6.782,5.000 7.532,5.000 7.973 C 5.000 8.914,4.860 10.270,4.679 11.085 C 4.397 12.356,4.037 13.198,3.176 14.600 C 2.576 15.577,2.429 15.844,2.339 16.118 C 2.098 16.858,2.517 17.645,3.294 17.910 C 3.487 17.976,4.002 17.981,11.760 17.991 C 17.147 17.999,20.136 17.989,20.354 17.962 C 20.933 17.892,21.317 17.651,21.551 17.211 C 21.703 16.923,21.765 16.604,21.718 16.350 C 21.650 15.988,21.525 15.748,20.687 14.368 C 20.029 13.286,19.788 12.748,19.464 11.642 C 19.265 10.961,19.182 10.821,18.867 10.638 C 18.678 10.527,18.633 10.517,18.357 10.528 C 18.101 10.538,18.023 10.559,17.858 10.661 C 17.435 10.922,17.314 11.352,17.480 12.000 C 17.791 13.218,18.246 14.245,19.038 15.520 L 19.324 15.980 15.662 15.990 C 13.648 15.996,10.354 15.996,8.342 15.990 L 4.683 15.980 5.104 15.280 C 5.920 13.923,6.364 12.805,6.678 11.320 C 6.856 10.478,6.999 9.134,6.999 8.288 C 7.000 7.761,7.060 7.160,7.145 6.820 C 7.446 5.622,8.209 4.528,9.200 3.873 C 10.253 3.178,11.274 2.924,12.548 3.041 C 13.192 3.100,13.317 3.081,13.591 2.882 C 14.036 2.559,14.124 1.914,13.783 1.467 C 13.636 1.275,13.342 1.128,13.006 1.081 C 12.684 1.035,11.783 1.000,11.540 1.023 M17.695 1.057 C 17.466 1.129,17.256 1.299,17.128 1.516 L 17.020 1.700 17.008 2.850 L 16.995 4.000 15.944 4.000 C 14.797 4.000,14.643 4.022,14.382 4.221 C 14.302 4.282,14.187 4.415,14.128 4.516 C 14.037 4.672,14.020 4.746,14.020 5.000 C 14.020 5.256,14.036 5.328,14.131 5.489 C 14.192 5.592,14.304 5.725,14.381 5.783 C 14.642 5.983,14.738 5.996,15.908 5.998 L 16.995 6.000 17.008 7.153 L 17.020 8.307 17.141 8.503 C 17.543 9.156,18.457 9.156,18.859 8.503 L 18.980 8.307 18.992 7.153 L 19.005 6.000 20.092 5.998 C 21.262 5.996,21.358 5.983,21.619 5.783 C 21.696 5.725,21.808 5.592,21.869 5.489 C 21.964 5.328,21.980 5.256,21.980 5.000 C 21.980 4.746,21.963 4.672,21.872 4.516 C 21.813 4.415,21.698 4.282,21.618 4.221 C 21.357 4.022,21.203 4.000,20.056 4.000 L 19.005 4.000 18.992 2.850 L 18.980 1.700 18.872 1.516 C 18.628 1.101,18.150 0.915,17.695 1.057 M9.040 20.061 C 8.484 20.234,8.204 20.884,8.455 21.422 C 8.659 21.861,9.590 22.471,10.490 22.756 C 11.507 23.078,12.494 23.078,13.510 22.756 C 14.409 22.471,15.341 21.860,15.545 21.422 C 15.799 20.876,15.514 20.229,14.943 20.059 C 14.535 19.937,14.323 19.994,13.853 20.352 C 13.242 20.818,12.769 20.978,12.000 20.978 C 11.234 20.978,10.757 20.818,10.154 20.358 C 9.688 20.002,9.442 19.937,9.040 20.061 " stroke="none" fill-rule="evenodd" fill="black"></path></svg>