<svg width="24" height="24" viewBox="0 0 24 24" fill="none" xmlns="http://www.w3.org/2000/svg"><path d="M11.580 1.024 C 10.692 1.155,9.818 1.638,9.294 2.286 C 8.973 2.684,8.732 3.165,8.599 3.677 C 8.467 4.184,8.484 4.990,8.637 5.481 L 8.711 5.719 8.406 5.887 C 7.672 6.291,7.160 6.679,6.644 7.225 C 5.843 8.071,5.315 9.075,5.100 10.164 C 5.067 10.327,5.023 10.847,5.000 11.320 C 4.935 12.693,4.813 13.470,4.521 14.360 C 4.316 14.987,4.099 15.433,3.519 16.420 C 2.610 17.970,2.469 18.316,2.564 18.763 C 2.640 19.114,2.747 19.313,2.993 19.559 C 3.183 19.750,3.277 19.809,3.503 19.884 C 3.776 19.975,3.812 19.977,5.952 19.991 C 7.945 20.004,8.126 20.011,8.145 20.073 C 8.436 21.057,9.096 21.918,9.956 22.436 C 10.762 22.923,11.837 23.108,12.757 22.921 C 14.195 22.628,15.299 21.665,15.782 20.281 L 15.874 20.020 18.047 19.998 C 20.177 19.977,20.226 19.974,20.497 19.884 C 21.125 19.676,21.567 18.939,21.437 18.318 C 21.370 17.998,21.194 17.645,20.604 16.640 C 19.764 15.210,19.482 14.569,19.265 13.595 C 19.119 12.942,19.046 12.318,19.002 11.349 C 18.961 10.444,18.931 10.218,18.776 9.676 C 18.323 8.089,17.230 6.786,15.594 5.887 L 15.289 5.719 15.363 5.480 C 15.515 4.991,15.529 4.219,15.396 3.664 C 15.224 2.945,14.766 2.236,14.169 1.762 C 13.853 1.511,13.272 1.221,12.880 1.118 C 12.588 1.041,11.832 0.987,11.580 1.024 M12.367 3.055 C 12.820 3.161,13.228 3.528,13.397 3.981 C 13.493 4.238,13.506 4.732,13.423 4.960 C 13.364 5.120,13.444 5.113,12.570 5.039 C 12.127 5.002,11.873 5.002,11.430 5.039 C 10.556 5.113,10.636 5.120,10.577 4.960 C 10.494 4.732,10.507 4.238,10.603 3.981 C 10.872 3.263,11.608 2.876,12.367 3.055 M12.603 7.042 C 14.378 7.224,15.879 8.175,16.591 9.567 C 16.881 10.135,17.000 10.683,17.000 11.457 C 17.000 12.238,17.142 13.365,17.346 14.200 C 17.618 15.314,17.967 16.116,18.763 17.456 L 19.075 17.980 15.538 17.990 C 13.592 17.996,10.409 17.996,8.464 17.990 L 4.929 17.980 5.328 17.300 C 6.187 15.836,6.573 14.827,6.820 13.401 C 6.912 12.868,6.998 11.934,6.999 11.453 C 7.001 10.523,7.177 9.880,7.612 9.209 C 8.602 7.682,10.558 6.832,12.603 7.042 M13.652 20.124 C 13.547 20.304,13.144 20.667,12.924 20.778 C 12.351 21.068,11.651 21.070,11.083 20.781 C 10.857 20.667,10.454 20.306,10.348 20.124 L 10.275 20.000 12.000 20.000 L 13.725 20.000 13.652 20.124 " stroke="none" fill-rule="evenodd" fill="black"></path></svg>