<svg width="24" height="24" viewBox="0 0 24 24" fill="none" xmlns="http://www.w3.org/2000/svg"><path d="M10.686 2.039 C 10.065 2.135,9.487 2.551,9.222 3.093 C 9.022 3.501,8.993 3.780,9.009 5.140 C 9.026 6.544,9.052 6.696,9.352 7.124 L 9.506 7.344 7.039 11.662 L 4.571 15.980 3.596 16.003 C 2.728 16.024,2.592 16.037,2.365 16.116 C 1.675 16.355,1.209 16.879,1.061 17.581 C 0.976 17.978,0.976 20.022,1.061 20.419 C 1.147 20.827,1.298 21.104,1.597 21.403 C 2.119 21.925,2.416 21.999,4.000 21.999 C 5.582 21.999,5.873 21.926,6.403 21.401 C 6.719 21.087,6.864 20.808,6.952 20.342 L 7.017 20.000 12.000 20.000 L 16.983 20.000 17.048 20.342 C 17.136 20.806,17.281 21.087,17.597 21.403 C 18.119 21.925,18.416 21.999,20.000 21.999 C 21.582 21.999,21.876 21.925,22.401 21.401 C 22.925 20.876,22.999 20.582,22.999 19.000 C 22.999 18.147,22.984 17.790,22.940 17.581 C 22.792 16.883,22.321 16.354,21.635 16.116 C 21.408 16.037,21.272 16.024,20.404 16.003 L 19.429 15.980 16.962 11.663 L 14.495 7.347 14.652 7.111 C 14.954 6.659,14.974 6.542,14.991 5.140 C 15.003 4.127,14.994 3.845,14.943 3.601 C 14.792 2.881,14.336 2.361,13.635 2.114 C 13.394 2.029,13.312 2.024,12.140 2.015 C 11.458 2.010,10.804 2.021,10.686 2.039 M13.000 5.000 L 13.000 6.000 12.000 6.000 L 11.000 6.000 11.000 5.000 L 11.000 4.000 12.000 4.000 L 13.000 4.000 13.000 5.000 M15.039 12.338 L 17.506 16.656 17.352 16.876 C 17.189 17.108,17.068 17.443,17.021 17.790 L 16.992 18.000 12.000 18.000 L 7.008 18.000 6.979 17.790 C 6.933 17.451,6.821 17.141,6.653 16.889 L 6.495 16.653 8.848 12.537 C 10.143 10.273,11.256 8.325,11.322 8.209 L 11.442 7.998 12.007 8.009 L 12.571 8.020 15.039 12.338 M5.000 19.000 L 5.000 20.000 4.000 20.000 L 3.000 20.000 3.000 19.000 L 3.000 18.000 4.000 18.000 L 5.000 18.000 5.000 19.000 M21.000 19.000 L 21.000 20.000 20.000 20.000 L 19.000 20.000 19.000 19.000 L 19.000 18.000 20.000 18.000 L 21.000 18.000 21.000 19.000 " stroke="none" fill-rule="evenodd" fill="black"></path></svg>