<svg width="24" height="24" viewBox="0 0 24 24" fill="none" xmlns="http://www.w3.org/2000/svg"><path d="M10.686 4.039 C 10.233 4.109,9.820 4.333,9.512 4.676 C 9.263 4.952,9.127 5.241,9.048 5.658 L 8.983 6.000 6.862 6.000 L 4.740 5.999 4.652 5.870 C 4.072 5.018,2.863 4.751,1.983 5.281 C 1.068 5.831,0.741 6.975,1.225 7.930 C 1.361 8.199,1.801 8.639,2.070 8.775 C 2.653 9.070,3.342 9.073,3.915 8.782 C 4.138 8.670,4.503 8.349,4.644 8.142 L 4.740 8.001 5.533 8.000 L 6.326 8.000 5.876 8.430 C 5.040 9.230,4.462 9.984,4.009 10.867 C 3.548 11.765,3.179 12.926,3.095 13.743 L 3.069 13.996 2.845 14.020 C 1.922 14.119,1.245 14.711,1.061 15.581 C 0.976 15.978,0.976 18.022,1.061 18.419 C 1.147 18.827,1.298 19.104,1.597 19.403 C 2.119 19.925,2.416 19.999,4.000 19.999 C 5.582 19.999,5.873 19.926,6.403 19.401 C 6.702 19.104,6.853 18.829,6.939 18.419 C 7.024 18.022,7.024 15.978,6.940 15.581 C 6.792 14.886,6.314 14.347,5.647 14.122 C 5.512 14.077,5.338 14.040,5.260 14.040 C 5.171 14.040,5.109 14.018,5.095 13.981 C 5.066 13.905,5.209 13.234,5.343 12.819 C 5.467 12.434,5.821 11.682,6.048 11.322 C 6.590 10.463,7.293 9.734,8.108 9.190 C 8.428 8.976,9.076 8.619,9.096 8.646 C 9.101 8.654,9.157 8.768,9.220 8.900 C 9.365 9.205,9.782 9.628,10.081 9.773 C 10.479 9.967,10.751 9.999,12.000 9.999 C 13.253 9.999,13.525 9.966,13.919 9.771 C 14.215 9.624,14.631 9.203,14.778 8.900 C 14.842 8.768,14.899 8.654,14.904 8.646 C 14.923 8.619,15.573 8.977,15.892 9.190 C 17.391 10.192,18.468 11.776,18.844 13.530 C 18.890 13.745,18.918 13.948,18.905 13.981 C 18.891 14.018,18.829 14.040,18.740 14.040 C 18.376 14.040,17.828 14.323,17.512 14.676 C 17.070 15.167,17.001 15.480,17.001 17.000 C 17.001 18.584,17.075 18.881,17.597 19.403 C 18.119 19.925,18.416 19.999,20.000 19.999 C 21.582 19.999,21.876 19.925,22.401 19.401 C 22.925 18.876,22.999 18.582,22.999 17.000 C 22.999 16.147,22.984 15.790,22.940 15.581 C 22.756 14.714,22.075 14.119,21.155 14.020 L 20.931 13.996 20.905 13.743 C 20.821 12.926,20.452 11.765,19.991 10.867 C 19.538 9.984,18.960 9.230,18.124 8.430 L 17.674 8.000 18.467 8.000 L 19.260 8.001 19.356 8.142 C 19.497 8.349,19.862 8.670,20.085 8.782 C 20.658 9.073,21.347 9.070,21.930 8.775 C 22.196 8.640,22.638 8.200,22.771 7.937 C 23.065 7.358,23.068 6.649,22.781 6.083 C 22.646 5.816,22.297 5.449,22.017 5.281 C 21.137 4.751,19.928 5.018,19.348 5.870 L 19.260 5.999 17.138 6.000 L 15.017 6.000 14.952 5.658 C 14.873 5.241,14.737 4.952,14.488 4.676 C 14.260 4.421,13.976 4.234,13.635 4.114 C 13.394 4.029,13.312 4.024,12.140 4.015 C 11.458 4.010,10.804 4.021,10.686 4.039 M13.000 7.000 L 13.000 8.000 12.000 8.000 L 11.000 8.000 11.000 7.000 L 11.000 6.000 12.000 6.000 L 13.000 6.000 13.000 7.000 M5.000 17.000 L 5.000 18.000 4.000 18.000 L 3.000 18.000 3.000 17.000 L 3.000 16.000 4.000 16.000 L 5.000 16.000 5.000 17.000 M21.000 17.000 L 21.000 18.000 20.000 18.000 L 19.000 18.000 19.000 17.000 L 19.000 16.000 20.000 16.000 L 21.000 16.000 21.000 17.000 " stroke="none" fill-rule="evenodd" fill="black"></path></svg>