<svg width="24" height="24" viewBox="0 0 24 24" fill="none" xmlns="http://www.w3.org/2000/svg"><path d="M11.695 1.055 C 11.464 1.130,11.255 1.300,11.128 1.516 L 11.020 1.700 11.020 4.503 L 11.020 7.306 11.141 7.503 C 11.543 8.156,12.457 8.156,12.859 7.503 L 12.980 7.306 13.000 5.728 L 13.020 4.150 14.710 5.558 C 15.639 6.333,16.400 6.982,16.400 7.000 C 16.400 7.018,15.932 7.424,15.359 7.900 C 14.242 8.831,14.136 8.950,14.093 9.315 C 14.060 9.596,14.139 9.845,14.330 10.062 C 14.527 10.285,14.747 10.401,15.015 10.424 C 15.401 10.456,15.479 10.405,17.186 8.981 C 18.975 7.488,18.980 7.483,18.980 7.020 C 18.980 6.489,19.166 6.672,15.687 3.771 C 13.978 2.347,12.510 1.146,12.424 1.103 C 12.228 1.006,11.910 0.985,11.695 1.055 M2.670 2.061 C 2.448 2.142,2.250 2.309,2.128 2.516 C 2.036 2.672,2.020 2.745,2.021 3.000 C 2.021 3.212,2.043 3.341,2.095 3.440 C 2.135 3.517,4.046 5.461,6.342 7.760 L 10.516 11.940 7.862 14.150 C 4.883 16.630,5.020 16.492,5.020 17.020 C 5.020 17.254,5.038 17.331,5.131 17.489 C 5.264 17.715,5.442 17.858,5.699 17.946 C 5.916 18.020,6.243 18.002,6.428 17.906 C 6.493 17.873,7.544 17.014,8.763 15.998 L 10.980 14.150 11.000 18.225 L 11.020 22.300 11.133 22.492 C 11.400 22.947,11.967 23.124,12.426 22.896 C 12.511 22.853,13.662 21.917,14.984 20.814 L 17.389 18.808 18.864 20.287 C 19.676 21.100,20.421 21.813,20.520 21.873 C 20.673 21.964,20.746 21.980,21.000 21.980 C 21.257 21.980,21.327 21.964,21.492 21.867 C 21.968 21.587,22.139 20.967,21.865 20.508 C 21.810 20.416,17.665 16.243,12.653 11.235 C 4.231 2.820,3.525 2.125,3.343 2.065 C 3.107 1.987,2.874 1.986,2.670 2.061 M14.495 15.915 L 15.970 17.390 14.535 18.587 C 13.746 19.245,13.078 19.797,13.050 19.814 C 13.010 19.839,13.000 19.294,13.000 17.142 C 13.000 15.656,13.005 14.440,13.010 14.440 C 13.016 14.440,13.684 15.104,14.495 15.915 " stroke="none" fill-rule="evenodd" fill="black"></path></svg>