<svg width="24" height="24" viewBox="0 0 24 24" fill="none" xmlns="http://www.w3.org/2000/svg"><path d="M11.695 1.055 C 11.464 1.130,11.255 1.300,11.128 1.516 L 11.020 1.700 11.000 5.775 L 10.980 9.850 8.763 8.002 C 7.544 6.986,6.495 6.129,6.434 6.097 C 6.147 5.948,5.689 5.995,5.403 6.202 C 5.316 6.265,5.195 6.403,5.133 6.508 C 5.038 6.669,5.020 6.745,5.020 6.980 C 5.020 7.507,4.890 7.375,7.803 9.803 C 9.231 10.993,10.400 11.982,10.400 12.000 C 10.400 12.018,9.231 13.007,7.803 14.197 C 4.890 16.625,5.020 16.493,5.020 17.020 C 5.020 17.254,5.038 17.331,5.131 17.489 C 5.264 17.715,5.442 17.858,5.699 17.946 C 5.916 18.020,6.243 18.002,6.428 17.906 C 6.493 17.873,7.544 17.014,8.763 15.998 L 10.980 14.150 11.000 18.205 L 11.020 22.260 11.114 22.450 C 11.350 22.929,12.018 23.146,12.458 22.887 C 12.531 22.844,13.983 21.647,15.685 20.229 C 18.086 18.228,18.802 17.610,18.879 17.475 C 18.959 17.335,18.979 17.244,18.979 17.020 C 18.980 16.493,19.111 16.626,16.197 14.197 C 14.769 13.007,13.600 12.018,13.600 12.000 C 13.600 11.982,14.765 10.995,16.190 9.808 C 18.188 8.143,18.803 7.610,18.879 7.475 C 18.959 7.335,18.979 7.244,18.979 7.020 C 18.980 6.489,19.167 6.673,15.687 3.771 C 13.978 2.347,12.510 1.146,12.424 1.103 C 12.228 1.006,11.910 0.985,11.695 1.055 M14.750 5.592 C 15.658 6.348,16.400 6.982,16.400 7.000 C 16.400 7.029,13.178 9.736,13.050 9.814 C 13.010 9.838,13.000 9.265,13.000 7.000 C 13.000 4.735,13.010 4.162,13.050 4.186 C 13.078 4.203,13.843 4.835,14.750 5.592 M14.750 15.592 C 15.658 16.348,16.400 16.982,16.400 17.000 C 16.400 17.029,13.178 19.736,13.050 19.814 C 13.010 19.838,13.000 19.265,13.000 17.000 C 13.000 14.735,13.010 14.162,13.050 14.186 C 13.078 14.203,13.843 14.835,14.750 15.592 " stroke="none" fill-rule="evenodd" fill="black"></path></svg>