<svg width="24" height="24" viewBox="0 0 24 24" fill="none" xmlns="http://www.w3.org/2000/svg"><path d="M7.695 1.055 C 7.464 1.130,7.255 1.300,7.128 1.516 L 7.020 1.700 7.000 5.775 L 6.980 9.850 4.763 8.002 C 3.544 6.986,2.495 6.129,2.434 6.097 C 2.147 5.948,1.689 5.995,1.403 6.202 C 1.316 6.265,1.195 6.403,1.133 6.508 C 1.038 6.669,1.020 6.745,1.020 6.980 C 1.020 7.507,0.890 7.375,3.803 9.803 C 5.231 10.993,6.400 11.982,6.400 12.000 C 6.400 12.018,5.231 13.007,3.803 14.197 C 0.890 16.625,1.020 16.493,1.020 17.020 C 1.020 17.254,1.038 17.331,1.131 17.489 C 1.264 17.715,1.442 17.858,1.699 17.946 C 1.916 18.020,2.243 18.002,2.428 17.906 C 2.493 17.873,3.544 17.014,4.763 15.998 L 6.980 14.150 7.000 18.205 L 7.020 22.260 7.114 22.450 C 7.350 22.929,8.018 23.146,8.458 22.887 C 8.531 22.844,9.983 21.647,11.685 20.229 C 14.086 18.228,14.802 17.610,14.879 17.475 C 14.959 17.335,14.979 17.244,14.979 17.020 C 14.980 16.493,15.111 16.626,12.197 14.197 C 10.769 13.007,9.600 12.018,9.600 12.000 C 9.600 11.982,10.765 10.995,12.190 9.808 C 14.188 8.143,14.803 7.610,14.879 7.475 C 14.959 7.335,14.979 7.244,14.979 7.020 C 14.980 6.489,15.167 6.673,11.687 3.771 C 9.978 2.347,8.510 1.146,8.424 1.103 C 8.228 1.006,7.910 0.985,7.695 1.055 M10.750 5.592 C 11.658 6.348,12.400 6.982,12.400 7.000 C 12.400 7.029,9.178 9.736,9.050 9.814 C 9.010 9.838,9.000 9.265,9.000 7.000 C 9.000 4.735,9.010 4.162,9.050 4.186 C 9.078 4.203,9.842 4.835,10.750 5.592 M19.770 5.578 C 19.384 5.751,19.160 6.086,19.160 6.489 C 19.160 6.769,19.211 6.901,19.470 7.287 C 20.334 8.577,20.767 9.847,20.879 11.430 C 21.014 13.322,20.532 15.128,19.470 16.713 C 19.211 17.099,19.160 17.231,19.160 17.511 C 19.160 18.007,19.521 18.417,20.024 18.494 C 20.229 18.525,20.570 18.430,20.754 18.291 C 21.075 18.049,21.936 16.527,22.256 15.636 C 22.714 14.363,22.896 13.329,22.896 12.000 C 22.896 10.672,22.716 9.646,22.257 8.364 C 22.059 7.812,21.484 6.689,21.148 6.201 C 20.782 5.669,20.606 5.546,20.184 5.530 C 19.999 5.523,19.855 5.539,19.770 5.578 M16.600 7.944 C 16.286 8.079,16.049 8.417,16.011 8.781 C 15.984 9.043,16.024 9.159,16.300 9.621 C 16.837 10.522,17.031 11.347,16.952 12.407 C 16.899 13.117,16.709 13.693,16.300 14.379 C 16.024 14.841,15.984 14.957,16.011 15.219 C 16.054 15.633,16.338 15.983,16.725 16.098 C 16.984 16.175,17.016 16.175,17.273 16.098 C 17.539 16.019,17.725 15.855,17.971 15.480 C 19.315 13.430,19.314 10.554,17.969 8.520 C 17.737 8.169,17.596 8.028,17.391 7.942 C 17.203 7.863,16.784 7.864,16.600 7.944 M10.750 15.592 C 11.658 16.348,12.400 16.982,12.400 17.000 C 12.400 17.029,9.178 19.736,9.050 19.814 C 9.010 19.838,9.000 19.265,9.000 17.000 C 9.000 14.735,9.010 14.162,9.050 14.186 C 9.078 14.203,9.842 14.835,10.750 15.592 " stroke="none" fill-rule="evenodd" fill="black"></path></svg>