<svg width="24" height="24" viewBox="0 0 24 24" fill="none" xmlns="http://www.w3.org/2000/svg"><path d="M8.695 1.055 C 8.464 1.130,8.255 1.300,8.128 1.516 L 8.020 1.700 8.000 5.775 L 7.980 9.850 5.763 8.002 C 4.544 6.986,3.495 6.129,3.434 6.097 C 3.147 5.948,2.689 5.995,2.403 6.202 C 2.316 6.265,2.195 6.403,2.133 6.508 C 2.038 6.669,2.020 6.745,2.020 6.980 C 2.020 7.507,1.890 7.375,4.803 9.803 C 6.231 10.993,7.400 11.982,7.400 12.000 C 7.400 12.018,6.231 13.007,4.803 14.197 C 1.890 16.625,2.020 16.493,2.020 17.020 C 2.020 17.254,2.038 17.331,2.131 17.489 C 2.264 17.715,2.442 17.858,2.699 17.946 C 2.916 18.020,3.243 18.002,3.428 17.906 C 3.493 17.873,4.544 17.014,5.763 15.998 L 7.980 14.150 8.000 18.205 L 8.020 22.260 8.114 22.450 C 8.350 22.929,9.018 23.146,9.458 22.887 C 9.531 22.844,10.983 21.647,12.685 20.229 C 15.086 18.228,15.802 17.610,15.879 17.475 C 15.959 17.335,15.979 17.244,15.979 17.020 C 15.980 16.493,16.111 16.626,13.197 14.197 C 11.769 13.007,10.600 12.018,10.600 12.000 C 10.600 11.982,11.765 10.995,13.190 9.808 C 15.188 8.143,15.803 7.610,15.879 7.475 C 15.959 7.335,15.979 7.244,15.979 7.020 C 15.980 6.489,16.167 6.673,12.687 3.771 C 10.978 2.347,9.510 1.146,9.424 1.103 C 9.228 1.006,8.910 0.985,8.695 1.055 M11.750 5.592 C 12.658 6.348,13.400 6.982,13.400 7.000 C 13.400 7.029,10.178 9.736,10.050 9.814 C 10.010 9.838,10.000 9.265,10.000 7.000 C 10.000 4.735,10.010 4.162,10.050 4.186 C 10.078 4.203,10.842 4.835,11.750 5.592 M14.695 11.055 C 14.464 11.130,14.255 11.300,14.128 11.516 C 14.037 11.672,14.020 11.746,14.020 12.000 C 14.020 12.257,14.036 12.327,14.133 12.492 C 14.651 13.374,15.998 13.018,15.998 12.000 C 15.998 11.623,15.792 11.281,15.463 11.112 C 15.265 11.010,14.911 10.984,14.695 11.055 M17.695 11.055 C 17.464 11.130,17.255 11.300,17.128 11.516 C 17.037 11.672,17.020 11.746,17.020 12.000 C 17.020 12.257,17.036 12.327,17.133 12.492 C 17.651 13.374,18.998 13.018,18.998 12.000 C 18.998 11.623,18.792 11.281,18.463 11.112 C 18.265 11.010,17.911 10.984,17.695 11.055 M20.695 11.055 C 20.464 11.130,20.255 11.300,20.128 11.516 C 20.037 11.672,20.020 11.746,20.020 12.000 C 20.020 12.257,20.036 12.327,20.133 12.492 C 20.651 13.374,21.998 13.018,21.998 12.000 C 21.998 11.623,21.792 11.281,21.463 11.112 C 21.265 11.010,20.911 10.984,20.695 11.055 M11.750 15.592 C 12.658 16.348,13.400 16.982,13.400 17.000 C 13.400 17.029,10.178 19.736,10.050 19.814 C 10.010 19.838,10.000 19.265,10.000 17.000 C 10.000 14.735,10.010 14.162,10.050 14.186 C 10.078 14.203,10.842 14.835,11.750 15.592 " stroke="none" fill-rule="evenodd" fill="black"></path></svg>