<svg width="24" height="24" viewBox="0 0 24 24" fill="none" xmlns="http://www.w3.org/2000/svg"><path d="M3.695 3.057 C 3.466 3.129,3.256 3.299,3.128 3.516 C 3.037 3.672,3.020 3.746,3.020 4.000 C 3.020 4.256,3.036 4.328,3.131 4.489 C 3.256 4.702,3.449 4.864,3.670 4.943 C 3.768 4.978,4.023 4.997,4.410 4.998 L 5.000 5.000 5.000 12.000 L 5.000 19.000 4.446 19.000 C 3.648 19.000,3.367 19.110,3.128 19.516 C 3.037 19.672,3.020 19.746,3.020 20.000 C 3.020 20.256,3.036 20.328,3.131 20.489 C 3.256 20.702,3.449 20.864,3.670 20.943 C 3.902 21.026,16.747 21.024,17.253 20.941 C 20.609 20.391,22.459 16.835,20.977 13.787 C 20.594 13.001,19.849 12.180,19.140 11.761 C 19.052 11.709,18.973 11.660,18.964 11.654 C 18.955 11.647,19.056 11.519,19.188 11.370 C 20.049 10.402,20.486 9.266,20.486 8.000 C 20.486 5.449,18.597 3.332,16.059 3.042 C 15.486 2.976,3.907 2.990,3.695 3.057 M8.480 12.000 L 8.480 19.000 7.740 19.000 L 7.000 19.000 7.000 12.000 L 7.000 5.000 7.740 5.000 L 8.480 5.000 8.480 12.000 M16.271 5.089 C 17.369 5.425,18.204 6.292,18.421 7.323 C 18.499 7.695,18.496 8.332,18.415 8.692 C 18.210 9.602,17.508 10.430,16.643 10.782 C 16.124 10.993,16.011 11.000,13.162 11.000 L 10.520 11.000 10.520 7.998 L 10.520 4.996 13.290 5.010 C 15.698 5.022,16.088 5.033,16.271 5.089 M17.271 13.088 C 18.371 13.427,19.204 14.292,19.421 15.323 C 19.499 15.695,19.496 16.332,19.415 16.692 C 19.210 17.602,18.508 18.430,17.643 18.782 C 17.114 18.997,17.056 19.000,13.662 19.000 L 10.520 19.000 10.520 15.998 L 10.520 12.997 13.790 13.010 C 16.665 13.022,17.085 13.031,17.271 13.088 " stroke="none" fill-rule="evenodd" fill="black"></path></svg>