<svg width="24" height="24" viewBox="0 0 24 24" fill="none" xmlns="http://www.w3.org/2000/svg"><path d="M6.920 1.042 C 6.667 1.058,6.343 1.092,6.200 1.118 C 5.027 1.326,3.999 2.086,3.465 3.141 C 3.225 3.613,3.109 4.072,3.041 4.820 C 2.987 5.399,2.985 19.022,3.038 19.323 C 3.059 19.442,3.096 19.657,3.121 19.800 C 3.358 21.180,4.385 22.366,5.680 22.755 C 6.499 23.001,6.685 23.007,12.900 22.991 C 18.393 22.977,18.422 22.977,18.740 22.892 C 19.159 22.779,19.386 22.679,19.690 22.473 C 20.324 22.044,20.722 21.449,20.906 20.660 C 20.977 20.353,20.980 19.988,20.980 12.000 C 20.980 4.012,20.977 3.647,20.906 3.340 C 20.688 2.404,20.167 1.737,19.329 1.321 C 19.019 1.168,18.706 1.091,18.180 1.042 C 17.673 0.994,7.660 0.994,6.920 1.042 M18.374 3.074 C 18.572 3.141,18.859 3.428,18.926 3.626 C 18.967 3.748,18.980 4.934,18.990 9.390 L 19.003 15.000 12.891 15.000 C 7.757 15.000,6.718 15.010,6.395 15.058 C 5.972 15.122,5.621 15.231,5.271 15.406 C 5.145 15.469,5.032 15.520,5.019 15.520 C 5.006 15.520,5.002 13.103,5.011 10.150 C 5.024 5.341,5.032 4.752,5.091 4.508 C 5.177 4.152,5.299 3.913,5.520 3.667 C 5.884 3.262,6.282 3.090,6.980 3.040 C 7.200 3.024,9.819 3.013,12.800 3.017 C 17.112 3.021,18.252 3.033,18.374 3.074 M18.990 18.610 C 18.977 19.719,18.956 20.268,18.923 20.374 C 18.861 20.569,18.579 20.853,18.376 20.925 C 18.246 20.971,17.265 20.980,12.540 20.980 C 6.419 20.980,6.536 20.984,6.082 20.771 C 5.812 20.643,5.377 20.217,5.248 19.952 C 5.105 19.658,5.031 19.232,5.048 18.797 C 5.060 18.461,5.078 18.381,5.194 18.146 C 5.449 17.628,5.947 17.212,6.477 17.073 C 6.720 17.010,7.209 17.004,12.874 17.002 L 19.008 17.000 18.990 18.610 " stroke="none" fill-rule="evenodd" fill="black"></path></svg>