<svg width="24" height="24" viewBox="0 0 24 24" fill="none" xmlns="http://www.w3.org/2000/svg"><path d="M7.920 2.040 C 7.150 2.093,6.672 2.205,6.180 2.451 C 5.089 2.996,4.357 3.961,4.124 5.160 C 4.011 5.743,4.000 6.475,4.002 13.720 C 4.004 21.783,3.991 21.324,4.217 21.619 C 4.444 21.917,4.918 22.071,5.264 21.960 C 5.350 21.933,6.901 21.065,8.710 20.032 L 12.000 18.154 15.268 20.022 C 17.065 21.049,18.606 21.914,18.693 21.944 C 19.036 22.065,19.432 21.970,19.701 21.701 C 20.026 21.377,20.000 22.059,20.000 13.703 C 20.000 6.480,19.989 5.742,19.876 5.160 C 19.608 3.780,18.643 2.680,17.320 2.246 C 16.667 2.032,16.571 2.027,12.320 2.018 C 10.153 2.013,8.173 2.023,7.920 2.040 M16.492 4.092 C 16.892 4.187,17.109 4.308,17.400 4.600 C 17.691 4.890,17.812 5.106,17.909 5.508 C 17.969 5.754,17.977 6.420,17.989 12.534 L 18.003 19.289 17.872 19.209 C 17.562 19.021,12.642 16.218,12.460 16.126 C 12.307 16.048,12.199 16.025,12.000 16.025 C 11.801 16.025,11.693 16.048,11.540 16.126 C 11.358 16.218,6.438 19.021,6.128 19.209 L 5.997 19.289 6.011 12.534 C 6.023 6.420,6.031 5.754,6.091 5.508 C 6.177 5.151,6.299 4.913,6.520 4.667 C 6.883 4.262,7.281 4.091,7.980 4.039 C 8.200 4.023,10.144 4.013,12.300 4.018 C 15.757 4.026,16.252 4.035,16.492 4.092 M11.695 6.057 C 11.466 6.129,11.256 6.299,11.128 6.516 L 11.020 6.700 11.008 7.850 L 10.995 9.000 9.944 9.000 C 8.797 9.000,8.643 9.022,8.382 9.221 C 8.302 9.282,8.187 9.415,8.128 9.516 C 8.037 9.672,8.020 9.746,8.020 10.000 C 8.020 10.256,8.036 10.328,8.131 10.489 C 8.192 10.592,8.304 10.725,8.381 10.783 C 8.642 10.983,8.738 10.996,9.908 10.998 L 10.995 11.000 11.008 12.153 L 11.020 13.307 11.141 13.503 C 11.543 14.156,12.457 14.156,12.859 13.503 L 12.980 13.307 12.992 12.153 L 13.005 11.000 14.092 10.998 C 15.262 10.996,15.358 10.983,15.619 10.783 C 15.696 10.725,15.808 10.592,15.869 10.489 C 15.964 10.328,15.980 10.256,15.980 10.000 C 15.980 9.746,15.963 9.672,15.872 9.516 C 15.813 9.415,15.698 9.282,15.618 9.221 C 15.357 9.022,15.203 9.000,14.056 9.000 L 13.005 9.000 12.992 7.850 L 12.980 6.700 12.872 6.516 C 12.628 6.101,12.150 5.915,11.695 6.057 " stroke="none" fill-rule="evenodd" fill="black"></path></svg>