<svg width="24" height="24" viewBox="0 0 24 24" fill="none" xmlns="http://www.w3.org/2000/svg"><path d="M7.920 2.040 C 7.150 2.093,6.672 2.205,6.180 2.451 C 5.089 2.996,4.357 3.961,4.124 5.160 C 4.011 5.743,4.000 6.475,4.002 13.720 C 4.004 21.783,3.991 21.324,4.217 21.619 C 4.444 21.917,4.918 22.071,5.264 21.960 C 5.350 21.933,6.901 21.065,8.710 20.032 L 12.000 18.154 15.268 20.022 C 17.065 21.049,18.606 21.914,18.693 21.944 C 19.036 22.065,19.432 21.970,19.701 21.701 C 20.026 21.377,20.000 22.059,20.000 13.703 C 20.000 6.480,19.989 5.742,19.876 5.160 C 19.608 3.780,18.643 2.680,17.320 2.246 C 16.667 2.032,16.571 2.027,12.320 2.018 C 10.153 2.013,8.173 2.023,7.920 2.040 M16.492 4.092 C 16.892 4.187,17.109 4.308,17.400 4.600 C 17.691 4.890,17.812 5.106,17.909 5.508 C 17.969 5.754,17.977 6.420,17.989 12.534 L 18.003 19.289 17.872 19.209 C 17.562 19.021,12.642 16.218,12.460 16.126 C 12.307 16.048,12.199 16.025,12.000 16.025 C 11.801 16.025,11.693 16.048,11.540 16.126 C 11.358 16.218,6.438 19.021,6.128 19.209 L 5.997 19.289 6.011 12.534 C 6.023 6.420,6.031 5.754,6.091 5.508 C 6.177 5.151,6.299 4.913,6.520 4.667 C 6.883 4.262,7.281 4.091,7.980 4.039 C 8.200 4.023,10.144 4.013,12.300 4.018 C 15.757 4.026,16.252 4.035,16.492 4.092 M9.044 6.625 C 8.787 6.753,8.583 7.016,8.529 7.289 C 8.482 7.527,8.535 7.851,8.649 8.019 C 8.694 8.085,9.147 8.559,9.655 9.070 L 10.579 10.000 9.655 10.930 C 9.147 11.442,8.695 11.914,8.651 11.980 C 8.376 12.389,8.513 13.026,8.940 13.320 C 9.238 13.525,9.740 13.540,10.017 13.352 C 10.085 13.306,10.558 12.853,11.070 12.345 L 12.000 11.421 12.930 12.345 C 13.442 12.853,13.915 13.306,13.981 13.351 C 14.262 13.541,14.762 13.525,15.065 13.317 C 15.478 13.033,15.618 12.376,15.351 11.981 C 15.306 11.915,14.853 11.442,14.345 10.930 L 13.421 10.001 14.369 9.050 C 15.074 8.343,15.337 8.052,15.398 7.914 C 15.695 7.241,15.230 6.518,14.502 6.521 C 14.089 6.522,13.997 6.588,12.950 7.631 L 12.000 8.578 11.050 7.631 C 10.371 6.954,10.049 6.661,9.920 6.603 C 9.654 6.483,9.313 6.492,9.044 6.625 " stroke="none" fill-rule="evenodd" fill="black"></path></svg>