<svg width="24" height="24" viewBox="0 0 24 24" fill="none" xmlns="http://www.w3.org/2000/svg"><path d="M7.920 2.040 C 7.150 2.093,6.672 2.205,6.180 2.451 C 5.089 2.996,4.357 3.961,4.124 5.160 C 4.011 5.742,4.000 6.480,4.000 13.703 C 4.000 22.059,3.974 21.377,4.299 21.701 C 4.568 21.970,4.964 22.065,5.307 21.944 C 5.394 21.914,6.935 21.049,8.732 20.022 L 12.000 18.154 15.290 20.032 C 17.099 21.065,18.650 21.933,18.736 21.960 C 19.082 22.071,19.556 21.917,19.783 21.619 C 20.009 21.324,19.996 21.783,19.998 13.720 C 20.000 6.475,19.989 5.743,19.876 5.160 C 19.608 3.780,18.643 2.680,17.320 2.246 C 16.667 2.032,16.571 2.027,12.320 2.018 C 10.153 2.013,8.173 2.023,7.920 2.040 M16.492 4.092 C 16.892 4.187,17.109 4.308,17.400 4.600 C 17.691 4.890,17.812 5.106,17.909 5.508 C 17.969 5.754,17.977 6.420,17.989 12.534 L 18.003 19.289 17.872 19.209 C 17.562 19.021,12.642 16.218,12.460 16.126 C 12.307 16.048,12.199 16.025,12.000 16.025 C 11.801 16.025,11.693 16.048,11.540 16.126 C 11.358 16.218,6.438 19.021,6.128 19.209 L 5.997 19.289 6.011 12.534 C 6.023 6.420,6.031 5.754,6.091 5.508 C 6.177 5.151,6.299 4.913,6.520 4.667 C 6.883 4.262,7.281 4.091,7.980 4.039 C 8.200 4.023,10.144 4.013,12.300 4.018 C 15.757 4.026,16.252 4.035,16.492 4.092 " stroke="none" fill-rule="evenodd" fill="black"></path></svg>