<svg width="24" height="24" viewBox="0 0 24 24" fill="none" xmlns="http://www.w3.org/2000/svg"><path d="M7.920 2.040 C 7.150 2.093,6.672 2.205,6.180 2.451 C 5.089 2.996,4.357 3.961,4.124 5.160 C 4.011 5.743,4.000 6.475,4.002 13.720 C 4.004 21.783,3.991 21.324,4.217 21.619 C 4.444 21.917,4.918 22.071,5.264 21.960 C 5.350 21.933,6.901 21.065,8.710 20.032 L 12.000 18.154 15.268 20.022 C 17.065 21.049,18.606 21.914,18.693 21.944 C 19.036 22.065,19.432 21.970,19.701 21.701 C 20.026 21.377,20.000 22.059,20.000 13.703 C 20.000 6.480,19.989 5.742,19.876 5.160 C 19.608 3.780,18.643 2.680,17.320 2.246 C 16.667 2.032,16.571 2.027,12.320 2.018 C 10.153 2.013,8.173 2.023,7.920 2.040 M16.492 4.092 C 16.892 4.187,17.109 4.308,17.400 4.600 C 17.691 4.890,17.812 5.106,17.909 5.508 C 17.969 5.754,17.977 6.420,17.989 12.534 L 18.003 19.289 17.872 19.209 C 17.562 19.021,12.642 16.218,12.460 16.126 C 12.307 16.048,12.199 16.025,12.000 16.025 C 11.801 16.025,11.693 16.048,11.540 16.126 C 11.358 16.218,6.438 19.021,6.128 19.209 L 5.997 19.289 6.011 12.534 C 6.023 6.420,6.031 5.754,6.091 5.508 C 6.177 5.151,6.299 4.913,6.520 4.667 C 6.883 4.262,7.281 4.091,7.980 4.039 C 8.200 4.023,10.144 4.013,12.300 4.018 C 15.757 4.026,16.252 4.035,16.492 4.092 M15.180 7.059 C 15.092 7.092,15.011 7.119,15.001 7.119 C 14.990 7.120,14.086 8.015,12.991 9.110 L 11.000 11.099 10.270 10.371 C 9.809 9.911,9.485 9.620,9.391 9.581 C 9.200 9.502,8.799 9.503,8.609 9.582 C 8.270 9.723,8.001 10.130,8.001 10.500 C 8.001 10.883,8.091 11.001,9.346 12.245 C 10.580 13.470,10.606 13.489,11.000 13.489 C 11.414 13.489,11.326 13.565,13.914 10.986 C 15.716 9.191,16.349 8.536,16.408 8.405 C 16.567 8.057,16.491 7.601,16.228 7.326 C 15.960 7.047,15.514 6.933,15.180 7.059 " stroke="none" fill-rule="evenodd" fill="black"></path></svg>