<svg width="24" height="24" viewBox="0 0 24 24" fill="none" xmlns="http://www.w3.org/2000/svg"><path d="M3.749 2.042 C 2.957 2.124,2.400 2.373,1.890 2.870 C 1.491 3.260,1.236 3.731,1.094 4.340 C 1.024 4.644,1.020 4.949,1.020 10.520 L 1.020 16.380 1.111 16.735 C 1.225 17.184,1.379 17.505,1.650 17.858 C 2.033 18.357,2.593 18.718,3.244 18.884 C 3.562 18.966,3.707 18.972,5.960 19.000 C 8.193 19.027,8.359 19.034,8.646 19.112 C 9.190 19.259,9.719 19.582,10.046 19.966 C 10.146 20.084,10.421 20.459,10.656 20.800 C 10.891 21.141,11.135 21.495,11.198 21.586 C 11.261 21.678,11.400 21.804,11.507 21.866 C 11.673 21.964,11.742 21.980,12.003 21.980 C 12.488 21.980,12.591 21.897,13.190 21.020 C 13.459 20.626,13.774 20.187,13.890 20.044 C 14.247 19.604,14.773 19.269,15.354 19.112 C 15.641 19.034,15.808 19.027,18.040 19.000 C 20.258 18.973,20.442 18.965,20.740 18.888 C 21.154 18.782,21.383 18.682,21.690 18.473 C 22.324 18.044,22.722 17.449,22.906 16.660 C 22.976 16.356,22.980 16.051,22.980 10.500 C 22.980 4.949,22.976 4.644,22.906 4.340 C 22.688 3.404,22.167 2.737,21.329 2.321 C 20.742 2.030,20.185 1.983,17.720 2.014 C 15.809 2.038,15.293 2.072,14.676 2.215 C 13.832 2.411,13.045 2.873,12.382 3.564 L 12.000 3.962 11.618 3.564 C 10.955 2.873,10.168 2.411,9.324 2.215 C 8.680 2.065,8.213 2.037,6.140 2.021 C 5.018 2.012,3.942 2.022,3.749 2.042 M7.760 4.039 C 8.781 4.094,9.145 4.183,9.642 4.501 C 9.976 4.714,10.286 5.024,10.499 5.358 C 10.819 5.859,10.907 6.222,10.961 7.260 C 11.005 8.117,11.013 18.093,10.970 18.073 C 10.954 18.066,10.782 17.955,10.588 17.826 C 10.030 17.456,9.382 17.201,8.680 17.077 C 8.516 17.048,7.553 17.021,6.080 17.005 L 3.740 16.980 3.550 16.886 C 3.335 16.781,3.142 16.568,3.070 16.360 C 3.008 16.177,2.977 5.489,3.037 4.946 C 3.102 4.365,3.342 4.103,3.866 4.042 C 4.256 3.997,6.929 3.995,7.760 4.039 M20.374 4.077 C 20.584 4.144,20.862 4.430,20.928 4.646 C 21.002 4.892,21.005 16.098,20.931 16.340 C 20.863 16.562,20.675 16.776,20.450 16.886 L 20.260 16.980 17.920 17.005 C 15.595 17.031,15.375 17.043,14.820 17.185 C 14.316 17.315,13.571 17.672,13.194 17.966 C 13.114 18.029,13.038 18.080,13.024 18.080 C 12.985 18.080,12.999 8.002,13.039 7.240 C 13.094 6.219,13.183 5.855,13.501 5.358 C 13.714 5.024,14.024 4.714,14.358 4.501 C 15.047 4.061,15.542 4.002,18.460 4.018 C 19.717 4.025,20.264 4.042,20.374 4.077 " stroke="none" fill-rule="evenodd" fill="black"></path></svg>