<svg width="24" height="24" viewBox="0 0 24 24" fill="none" xmlns="http://www.w3.org/2000/svg"><path d="M3.749 3.042 C 2.957 3.124,2.400 3.373,1.890 3.870 C 1.491 4.260,1.236 4.731,1.094 5.340 C 1.024 5.645,1.020 5.962,1.020 12.020 L 1.020 18.380 1.111 18.735 C 1.225 19.184,1.379 19.505,1.650 19.858 C 2.038 20.363,2.594 20.719,3.265 20.889 L 3.620 20.980 11.980 20.980 C 19.988 20.980,20.353 20.977,20.660 20.906 C 21.459 20.720,22.041 20.327,22.486 19.671 C 22.685 19.378,22.807 19.084,22.906 18.660 C 22.976 18.355,22.980 18.039,22.980 12.000 C 22.980 5.961,22.976 5.645,22.906 5.340 C 22.688 4.404,22.167 3.737,21.329 3.321 C 20.742 3.030,20.185 2.983,17.720 3.014 C 15.809 3.038,15.293 3.072,14.676 3.215 C 13.832 3.411,13.045 3.873,12.382 4.564 L 12.000 4.962 11.618 4.564 C 10.955 3.873,10.168 3.411,9.324 3.215 C 8.680 3.065,8.213 3.037,6.140 3.021 C 5.018 3.012,3.942 3.022,3.749 3.042 M7.760 5.039 C 8.781 5.094,9.145 5.183,9.642 5.501 C 10.107 5.798,10.551 6.323,10.735 6.795 C 10.976 7.411,10.998 8.007,10.999 13.991 L 11.000 19.003 7.370 18.991 L 3.740 18.980 3.550 18.886 C 3.336 18.781,3.142 18.568,3.070 18.360 C 3.008 18.177,2.977 6.490,3.037 5.945 C 3.102 5.365,3.342 5.103,3.866 5.042 C 4.256 4.997,6.929 4.995,7.760 5.039 M20.374 5.077 C 20.584 5.144,20.862 5.430,20.928 5.646 C 21.002 5.892,21.005 18.098,20.931 18.340 C 20.863 18.562,20.675 18.776,20.450 18.886 L 20.260 18.980 16.630 18.991 L 13.000 19.003 13.001 13.971 C 13.001 11.204,13.019 8.625,13.039 8.240 C 13.094 7.219,13.183 6.855,13.501 6.358 C 13.714 6.024,14.024 5.714,14.358 5.501 C 15.047 5.061,15.542 5.002,18.460 5.018 C 19.717 5.025,20.264 5.042,20.374 5.077 " stroke="none" fill-rule="evenodd" fill="black"></path></svg>