<svg width="24" height="24" viewBox="0 0 24 24" fill="none" xmlns="http://www.w3.org/2000/svg"><path d="M2.686 2.041 C 2.071 2.131,1.487 2.551,1.222 3.093 C 1.021 3.502,1.001 3.721,1.001 5.500 C 1.001 7.281,1.021 7.497,1.223 7.909 C 1.422 8.317,1.877 8.722,2.294 8.864 L 2.480 8.928 2.482 12.854 C 2.483 16.971,2.513 18.285,2.618 18.826 C 2.775 19.635,3.120 20.278,3.709 20.859 C 4.389 21.530,5.165 21.860,6.293 21.956 C 6.997 22.016,17.003 22.016,17.707 21.956 C 18.686 21.873,19.415 21.602,20.024 21.096 C 20.856 20.403,21.278 19.620,21.443 18.460 C 21.474 18.243,21.495 16.656,21.508 13.532 L 21.528 8.924 21.674 8.877 C 22.091 8.743,22.561 8.332,22.770 7.916 C 22.979 7.503,22.999 7.293,22.999 5.500 C 22.999 3.721,22.979 3.502,22.778 3.093 C 22.567 2.660,22.141 2.295,21.635 2.112 L 21.380 2.020 12.140 2.015 C 7.058 2.012,2.804 2.023,2.686 2.041 M21.000 5.500 L 21.000 7.000 12.000 7.000 L 3.000 7.000 3.000 5.500 L 3.000 4.000 12.000 4.000 L 21.000 4.000 21.000 5.500 M19.480 13.490 C 19.479 18.820,19.490 18.664,19.085 19.199 C 18.797 19.580,18.481 19.790,18.011 19.910 C 17.760 19.975,17.324 19.980,12.000 19.980 C 6.676 19.980,6.240 19.975,5.989 19.910 C 5.519 19.790,5.203 19.580,4.915 19.199 C 4.510 18.664,4.521 18.820,4.520 13.490 L 4.520 9.000 12.000 9.000 L 19.480 9.000 19.480 13.490 M8.500 10.577 C 8.204 10.654,8.095 10.705,7.836 10.886 C 7.421 11.177,7.124 11.655,7.042 12.160 C 6.989 12.493,6.988 14.499,7.041 14.840 C 7.160 15.605,7.770 16.250,8.560 16.445 C 8.883 16.526,15.117 16.526,15.440 16.445 C 16.133 16.274,16.654 15.800,16.894 15.124 C 16.966 14.924,16.976 14.771,16.991 13.693 C 17.001 12.931,16.991 12.377,16.963 12.193 C 16.858 11.492,16.359 10.880,15.687 10.626 C 15.462 10.541,15.431 10.540,12.080 10.533 C 9.430 10.527,8.657 10.537,8.500 10.577 M15.000 13.495 L 15.000 14.470 14.875 14.495 C 14.806 14.509,13.513 14.520,12.000 14.520 C 10.487 14.520,9.194 14.509,9.125 14.495 L 9.000 14.470 9.000 13.495 L 9.000 12.520 12.000 12.520 L 15.000 12.520 15.000 13.495 " stroke="none" fill-rule="evenodd" fill="black"></path></svg>