<svg width="24" height="24" viewBox="0 0 24 24" fill="none" xmlns="http://www.w3.org/2000/svg"><path d="M4.781 3.062 C 3.753 3.255,2.770 4.068,2.384 5.043 C 2.149 5.636,2.150 5.627,2.131 8.140 L 2.114 10.460 1.642 10.940 C 1.383 11.204,1.137 11.483,1.096 11.560 C 0.993 11.754,0.993 12.246,1.096 12.440 C 1.137 12.517,1.383 12.796,1.642 13.060 L 2.114 13.540 2.131 15.860 C 2.150 18.372,2.149 18.365,2.382 18.954 C 2.742 19.864,3.647 20.658,4.598 20.900 C 5.004 21.004,5.508 21.024,5.745 20.945 C 6.144 20.812,6.414 20.431,6.414 20.000 C 6.414 19.429,6.051 19.074,5.390 18.999 C 4.853 18.938,4.507 18.713,4.272 18.272 L 4.180 18.100 4.160 15.520 C 4.137 12.533,4.171 12.771,3.694 12.277 L 3.427 12.000 3.694 11.723 C 4.171 11.229,4.137 11.467,4.160 8.480 L 4.180 5.900 4.299 5.686 C 4.523 5.281,4.870 5.064,5.383 5.007 C 5.561 4.987,5.769 4.940,5.847 4.903 C 6.466 4.610,6.614 3.785,6.135 3.305 C 5.853 3.023,5.411 2.944,4.781 3.062 M18.269 3.057 C 17.677 3.269,17.405 3.901,17.676 4.433 C 17.861 4.794,18.161 4.969,18.678 5.017 C 19.119 5.057,19.486 5.297,19.701 5.686 L 19.820 5.900 19.840 8.480 C 19.863 11.467,19.829 11.229,20.306 11.723 L 20.573 12.000 20.306 12.277 C 19.829 12.771,19.863 12.533,19.840 15.520 L 19.820 18.100 19.728 18.272 C 19.493 18.713,19.147 18.938,18.610 18.999 C 18.127 19.054,17.856 19.221,17.667 19.579 C 17.550 19.802,17.551 20.199,17.668 20.423 C 17.794 20.660,18.029 20.870,18.255 20.945 C 18.653 21.077,19.394 20.962,19.988 20.677 C 20.804 20.285,21.446 19.537,21.718 18.660 C 21.852 18.227,21.877 17.739,21.879 15.564 L 21.880 13.548 22.374 13.041 C 22.938 12.463,23.029 12.293,22.988 11.893 C 22.957 11.590,22.835 11.409,22.323 10.901 L 21.880 10.461 21.879 8.441 C 21.877 6.109,21.855 5.761,21.677 5.224 C 21.314 4.130,20.309 3.257,19.185 3.062 C 18.754 2.987,18.470 2.986,18.269 3.057 M7.695 11.057 C 7.466 11.129,7.256 11.299,7.128 11.516 C 7.037 11.672,7.020 11.746,7.020 12.000 C 7.020 12.256,7.036 12.328,7.131 12.489 C 7.256 12.702,7.449 12.864,7.670 12.943 C 7.892 13.022,16.108 13.022,16.330 12.943 C 16.551 12.864,16.744 12.702,16.869 12.489 C 16.964 12.328,16.980 12.256,16.980 12.000 C 16.980 11.746,16.963 11.672,16.872 11.516 C 16.740 11.293,16.533 11.128,16.290 11.055 C 16.029 10.976,7.946 10.979,7.695 11.057 " stroke="none" fill-rule="evenodd" fill="black"></path></svg>