<svg width="24" height="24" viewBox="0 0 24 24" fill="none" xmlns="http://www.w3.org/2000/svg"><path d="M4.781 3.062 C 3.753 3.255,2.770 4.068,2.384 5.043 C 2.149 5.636,2.150 5.627,2.131 8.140 L 2.114 10.460 1.642 10.940 C 1.383 11.204,1.137 11.483,1.096 11.560 C 0.993 11.754,0.993 12.246,1.096 12.440 C 1.137 12.517,1.383 12.796,1.642 13.060 L 2.114 13.540 2.131 15.860 C 2.150 18.372,2.149 18.365,2.382 18.954 C 2.742 19.864,3.647 20.658,4.598 20.900 C 5.004 21.004,5.508 21.024,5.745 20.945 C 6.144 20.812,6.414 20.431,6.414 20.000 C 6.414 19.429,6.051 19.074,5.390 18.999 C 4.853 18.938,4.507 18.713,4.272 18.272 L 4.180 18.100 4.160 15.520 C 4.137 12.533,4.171 12.771,3.694 12.277 L 3.427 12.000 3.694 11.723 C 4.171 11.229,4.137 11.467,4.160 8.480 L 4.180 5.900 4.299 5.686 C 4.523 5.281,4.870 5.064,5.383 5.007 C 5.561 4.987,5.769 4.940,5.847 4.903 C 6.466 4.610,6.614 3.785,6.135 3.305 C 5.853 3.023,5.411 2.944,4.781 3.062 M18.269 3.057 C 17.677 3.269,17.405 3.901,17.676 4.433 C 17.861 4.794,18.161 4.969,18.678 5.017 C 19.119 5.057,19.486 5.297,19.701 5.686 L 19.820 5.900 19.840 8.480 C 19.863 11.467,19.829 11.229,20.306 11.723 L 20.573 12.000 20.306 12.277 C 19.829 12.771,19.863 12.533,19.840 15.520 L 19.820 18.100 19.728 18.272 C 19.493 18.713,19.147 18.938,18.610 18.999 C 18.127 19.054,17.856 19.221,17.667 19.579 C 17.550 19.802,17.551 20.199,17.668 20.423 C 17.794 20.660,18.029 20.870,18.255 20.945 C 18.653 21.077,19.394 20.962,19.988 20.677 C 20.804 20.285,21.446 19.537,21.718 18.660 C 21.852 18.227,21.877 17.739,21.879 15.564 L 21.880 13.548 22.374 13.041 C 22.938 12.463,23.029 12.293,22.988 11.893 C 22.957 11.590,22.835 11.409,22.323 10.901 L 21.880 10.461 21.879 8.441 C 21.877 6.109,21.855 5.761,21.677 5.224 C 21.314 4.130,20.309 3.257,19.185 3.062 C 18.754 2.987,18.470 2.986,18.269 3.057 M8.670 8.061 C 8.448 8.142,8.250 8.309,8.128 8.516 C 8.036 8.672,8.020 8.745,8.021 9.000 C 8.021 9.213,8.043 9.341,8.095 9.440 C 8.136 9.517,8.711 10.125,9.374 10.790 L 10.578 12.000 9.374 13.210 C 8.711 13.876,8.138 14.481,8.101 14.555 C 7.872 15.009,8.056 15.601,8.508 15.867 C 8.673 15.964,8.742 15.980,9.000 15.979 C 9.213 15.979,9.341 15.957,9.440 15.905 C 9.517 15.864,10.125 15.289,10.790 14.626 L 12.000 13.422 13.210 14.626 C 13.876 15.289,14.481 15.862,14.555 15.899 C 15.009 16.128,15.601 15.944,15.867 15.492 C 15.964 15.327,15.980 15.258,15.979 15.000 C 15.979 14.787,15.957 14.659,15.905 14.560 C 15.864 14.483,15.289 13.876,14.626 13.210 L 13.422 12.000 14.626 10.790 C 15.289 10.125,15.864 9.517,15.905 9.440 C 15.957 9.341,15.979 9.213,15.979 9.000 C 15.980 8.745,15.964 8.672,15.872 8.516 C 15.618 8.084,15.137 7.905,14.657 8.066 C 14.484 8.124,14.312 8.279,13.230 9.354 L 12.000 10.576 10.770 9.354 C 9.688 8.279,9.516 8.124,9.343 8.066 C 9.108 7.987,8.875 7.985,8.670 8.061 " stroke="none" fill-rule="evenodd" fill="black"></path></svg>