<svg width="24" height="24" viewBox="0 0 24 24" fill="none" xmlns="http://www.w3.org/2000/svg"><path d="M10.516 2.044 C 9.239 2.168,8.035 3.016,7.430 4.220 C 7.186 4.705,7.003 5.436,7.000 5.930 C 7.000 5.995,6.908 6.000,5.630 6.000 C 3.742 6.000,3.200 6.059,2.671 6.321 C 2.187 6.561,1.816 6.882,1.523 7.315 C 1.315 7.621,1.194 7.912,1.094 8.340 C 1.024 8.643,1.020 8.936,1.020 14.020 L 1.020 19.380 1.111 19.735 C 1.225 20.184,1.379 20.505,1.650 20.858 C 2.038 21.363,2.594 21.719,3.265 21.889 L 3.620 21.980 11.980 21.980 C 19.988 21.980,20.353 21.977,20.660 21.906 C 21.459 21.720,22.041 21.327,22.486 20.671 C 22.685 20.378,22.807 20.084,22.906 19.660 C 22.976 19.357,22.980 19.064,22.980 14.000 C 22.980 8.936,22.976 8.643,22.906 8.340 C 22.688 7.404,22.167 6.737,21.329 6.321 C 20.800 6.059,20.258 6.000,18.370 6.000 C 17.092 6.000,17.000 5.995,17.000 5.930 C 16.998 5.677,16.903 5.111,16.815 4.831 C 16.610 4.182,16.290 3.651,15.819 3.181 C 15.157 2.519,14.332 2.128,13.411 2.041 C 12.910 1.993,11.018 1.995,10.516 2.044 M13.693 4.134 C 13.996 4.250,14.146 4.343,14.374 4.556 C 14.716 4.876,14.960 5.386,14.960 5.781 L 14.960 6.000 12.000 6.000 L 9.040 6.000 9.040 5.781 C 9.040 5.139,9.563 4.433,10.245 4.155 C 10.553 4.030,10.909 4.005,12.240 4.018 C 13.402 4.030,13.424 4.032,13.693 4.134 M20.374 8.074 C 20.586 8.146,20.863 8.432,20.928 8.646 C 21.005 8.902,21.005 19.098,20.928 19.354 C 20.863 19.567,20.591 19.849,20.376 19.925 C 20.143 20.007,3.857 20.007,3.624 19.925 C 3.422 19.854,3.140 19.571,3.074 19.374 C 3.008 19.176,2.974 9.516,3.037 8.947 C 3.102 8.365,3.341 8.104,3.866 8.042 C 4.017 8.024,7.758 8.012,12.180 8.016 C 18.671 8.021,20.250 8.032,20.374 8.074 " stroke="none" fill-rule="evenodd" fill="black"></path></svg>