<svg width="24" height="24" viewBox="0 0 24 24" fill="none" xmlns="http://www.w3.org/2000/svg"><path d="M10.516 2.044 C 9.239 2.168,8.035 3.016,7.430 4.220 C 7.186 4.705,7.003 5.436,7.000 5.930 C 7.000 5.995,6.908 6.000,5.630 6.000 C 3.742 6.000,3.200 6.059,2.671 6.321 C 2.187 6.561,1.816 6.882,1.523 7.315 C 1.315 7.621,1.194 7.912,1.094 8.340 C 1.024 8.643,1.020 8.936,1.020 14.020 L 1.020 19.380 1.111 19.735 C 1.225 20.184,1.379 20.505,1.650 20.858 C 2.038 21.363,2.594 21.719,3.265 21.889 L 3.620 21.980 11.980 21.980 C 19.988 21.980,20.353 21.977,20.660 21.906 C 21.459 21.720,22.041 21.327,22.486 20.671 C 22.685 20.378,22.807 20.084,22.906 19.660 C 22.976 19.357,22.980 19.064,22.980 14.000 C 22.980 8.936,22.976 8.643,22.906 8.340 C 22.688 7.404,22.167 6.737,21.329 6.321 C 20.800 6.059,20.258 6.000,18.370 6.000 C 17.092 6.000,17.000 5.995,17.000 5.930 C 16.998 5.677,16.903 5.111,16.815 4.831 C 16.610 4.182,16.290 3.651,15.819 3.181 C 15.157 2.519,14.332 2.128,13.411 2.041 C 12.910 1.993,11.018 1.995,10.516 2.044 M13.693 4.134 C 13.996 4.250,14.146 4.343,14.374 4.556 C 14.711 4.871,14.960 5.391,14.960 5.777 L 14.960 6.000 12.000 6.000 L 9.040 6.000 9.040 5.781 C 9.040 5.139,9.563 4.433,10.245 4.155 C 10.553 4.030,10.909 4.005,12.240 4.018 C 13.402 4.030,13.424 4.032,13.693 4.134 M7.000 14.003 L 7.000 20.006 5.370 19.993 C 3.754 19.980,3.738 19.979,3.550 19.886 C 3.335 19.781,3.141 19.568,3.071 19.360 C 3.008 19.176,2.977 9.488,3.037 8.947 C 3.083 8.535,3.181 8.347,3.437 8.177 C 3.657 8.032,3.910 8.011,5.570 8.005 L 7.000 8.000 7.000 14.003 M15.000 14.000 L 15.000 20.000 12.000 20.000 L 9.000 20.000 9.000 14.000 L 9.000 8.000 12.000 8.000 L 15.000 8.000 15.000 14.000 M20.374 8.077 C 20.584 8.144,20.862 8.430,20.928 8.646 C 21.002 8.892,21.005 19.098,20.931 19.340 C 20.863 19.562,20.675 19.776,20.450 19.886 C 20.262 19.979,20.246 19.980,18.630 19.993 L 17.000 20.006 17.000 13.999 L 17.000 7.992 18.610 8.010 C 19.719 8.023,20.268 8.044,20.374 8.077 " stroke="none" fill-rule="evenodd" fill="black"></path></svg>