<svg width="24" height="24" viewBox="0 0 24 24" fill="none" xmlns="http://www.w3.org/2000/svg"><path d="M18.800 1.418 C 18.315 1.522,17.883 1.720,17.516 2.006 C 17.047 2.372,6.656 12.034,6.484 12.264 C 6.168 12.688,5.959 13.231,5.898 13.780 L 5.872 14.020 5.632 14.006 C 5.500 13.999,5.211 14.014,4.990 14.039 C 3.461 14.217,2.080 15.188,1.639 16.395 C 1.398 17.055,1.386 17.181,1.383 19.040 C 1.380 20.908,1.383 20.877,1.114 21.548 C 1.010 21.809,0.994 21.893,1.011 22.089 C 1.049 22.501,1.343 22.857,1.736 22.966 C 1.845 22.996,2.473 23.013,3.620 23.016 C 5.098 23.019,5.405 23.010,5.800 22.948 C 7.180 22.731,8.010 22.353,8.733 21.613 C 9.534 20.794,10.000 19.648,10.000 18.499 L 10.000 18.129 10.230 18.102 C 10.602 18.057,10.919 17.965,11.260 17.801 C 11.577 17.648,12.074 17.263,12.303 16.991 C 12.368 16.915,14.444 14.667,16.918 11.996 C 19.392 9.325,21.549 6.996,21.711 6.820 C 22.312 6.168,22.595 5.529,22.631 4.737 C 22.679 3.667,22.301 2.787,21.505 2.115 C 21.192 1.851,20.635 1.556,20.260 1.457 C 19.929 1.369,19.129 1.348,18.800 1.418 M19.995 3.501 C 20.230 3.629,20.396 3.799,20.529 4.051 C 20.602 4.188,20.619 4.285,20.620 4.560 C 20.620 4.865,20.608 4.921,20.500 5.109 C 20.427 5.236,18.884 6.933,16.564 9.439 C 14.465 11.706,12.746 13.560,12.744 13.560 C 12.741 13.560,12.221 13.042,11.588 12.408 L 10.436 11.256 14.557 7.440 C 16.824 5.342,18.734 3.590,18.802 3.547 C 19.158 3.321,19.632 3.303,19.995 3.501 M10.195 13.815 C 10.841 14.462,11.363 15.010,11.355 15.035 C 11.347 15.059,11.161 15.271,10.942 15.505 C 10.498 15.980,10.275 16.119,9.953 16.120 C 9.597 16.120,9.436 16.011,8.696 15.268 C 8.090 14.659,8.003 14.555,7.941 14.365 C 7.857 14.110,7.877 13.842,7.996 13.608 C 8.075 13.452,8.901 12.640,8.980 12.640 C 9.002 12.640,9.549 13.169,10.195 13.815 M6.020 16.060 C 7.355 16.339,8.222 17.675,7.940 19.020 C 7.811 19.635,7.389 20.253,6.900 20.541 C 6.348 20.867,5.676 20.995,4.340 21.028 L 3.380 21.052 3.387 19.305 C 3.392 18.231,3.411 17.478,3.438 17.349 C 3.535 16.883,3.859 16.522,4.423 16.253 C 4.929 16.011,5.473 15.946,6.020 16.060 " stroke="none" fill-rule="evenodd" fill="black"></path></svg>