<svg width="24" height="24" viewBox="0 0 24 24" fill="none" xmlns="http://www.w3.org/2000/svg"><path d="M4.686 1.041 C 4.070 1.131,3.487 1.551,3.222 2.093 C 2.999 2.549,3.001 2.480,3.001 7.300 C 3.000 11.568,3.016 12.285,3.124 12.840 C 3.280 13.644,3.659 14.346,4.228 14.883 C 5.115 15.721,6.025 16.000,7.867 16.000 L 8.473 16.000 8.490 17.990 C 8.509 20.137,8.514 20.184,8.749 20.788 C 9.261 22.096,10.589 23.000,12.000 23.000 C 13.411 23.000,14.739 22.096,15.251 20.788 C 15.486 20.184,15.491 20.137,15.510 17.990 L 15.527 16.000 16.133 16.000 C 17.975 16.000,18.885 15.721,19.772 14.883 C 20.341 14.346,20.720 13.644,20.876 12.840 C 20.984 12.285,21.000 11.568,20.999 7.300 C 20.999 2.480,21.001 2.549,20.778 2.093 C 20.567 1.660,20.141 1.295,19.635 1.112 L 19.380 1.020 12.140 1.015 C 8.158 1.012,4.804 1.023,4.686 1.041 M19.000 6.000 L 19.000 9.000 12.000 9.000 L 5.000 9.000 5.000 6.000 L 5.000 3.000 12.000 3.000 L 19.000 3.000 19.000 6.000 M18.982 11.610 C 18.934 12.655,18.833 12.968,18.400 13.401 C 18.101 13.701,17.820 13.851,17.418 13.928 C 17.011 14.004,6.989 14.004,6.582 13.927 C 6.170 13.850,5.898 13.704,5.600 13.403 C 5.167 12.966,5.066 12.655,5.018 11.610 L 4.990 11.000 12.000 11.000 L 19.010 11.000 18.982 11.610 M13.480 17.898 C 13.480 19.721,13.477 19.806,13.397 20.019 C 13.242 20.434,12.853 20.813,12.462 20.930 C 12.373 20.956,12.165 20.978,12.000 20.978 C 11.835 20.978,11.627 20.956,11.538 20.930 C 11.147 20.813,10.758 20.434,10.603 20.019 C 10.523 19.806,10.520 19.721,10.520 17.898 L 10.520 16.000 12.000 16.000 L 13.480 16.000 13.480 17.898 " stroke="none" fill-rule="evenodd" fill="black"></path></svg>