<svg width="24" height="24" viewBox="0 0 24 24" fill="none" xmlns="http://www.w3.org/2000/svg"><path d="M6.686 1.041 C 6.070 1.132,5.487 1.551,5.222 2.093 C 4.999 2.549,5.001 2.480,5.001 7.300 C 5.000 11.568,5.016 12.285,5.124 12.840 C 5.280 13.644,5.659 14.346,6.228 14.883 C 6.810 15.433,7.419 15.741,8.207 15.884 L 8.473 15.933 8.490 17.956 C 8.509 20.141,8.513 20.182,8.749 20.788 C 9.261 22.096,10.589 23.000,12.000 23.000 C 13.411 23.000,14.739 22.096,15.251 20.788 C 15.487 20.182,15.491 20.141,15.510 17.956 L 15.527 15.933 15.793 15.884 C 16.620 15.734,17.333 15.354,17.883 14.772 C 18.420 14.203,18.728 13.605,18.876 12.840 C 18.984 12.285,19.000 11.568,18.999 7.300 C 18.999 2.480,19.001 2.549,18.778 2.093 C 18.567 1.660,18.141 1.295,17.635 1.112 L 17.380 1.020 12.140 1.014 C 9.258 1.011,6.804 1.023,6.686 1.041 M17.000 6.000 L 17.000 9.000 12.000 9.000 L 7.000 9.000 7.000 6.000 L 7.000 3.000 12.000 3.000 L 17.000 3.000 17.000 6.000 M16.982 11.610 C 16.934 12.655,16.833 12.968,16.400 13.401 C 16.101 13.701,15.820 13.851,15.418 13.928 C 15.015 14.004,8.984 14.004,8.582 13.927 C 8.170 13.850,7.898 13.704,7.600 13.403 C 7.167 12.966,7.066 12.655,7.018 11.610 L 6.990 11.000 12.000 11.000 L 17.010 11.000 16.982 11.610 M13.480 17.898 C 13.480 19.721,13.477 19.806,13.397 20.019 C 13.242 20.434,12.853 20.813,12.462 20.930 C 12.373 20.956,12.165 20.978,12.000 20.978 C 11.835 20.978,11.627 20.956,11.538 20.930 C 11.147 20.813,10.758 20.434,10.603 20.019 C 10.523 19.806,10.520 19.721,10.520 17.898 L 10.520 16.000 12.000 16.000 L 13.480 16.000 13.480 17.898 " stroke="none" fill-rule="evenodd" fill="black"></path></svg>