<svg width="24" height="24" viewBox="0 0 24 24" fill="none" xmlns="http://www.w3.org/2000/svg"><path d="M4.749 2.045 C 3.967 2.120,3.402 2.371,2.890 2.870 C 2.491 3.260,2.236 3.731,2.094 4.340 C 2.023 4.646,2.020 4.987,2.020 12.020 L 2.020 19.380 2.111 19.735 C 2.225 20.184,2.379 20.505,2.650 20.858 C 3.038 21.363,3.594 21.719,4.265 21.889 L 4.620 21.980 11.980 21.980 C 19.013 21.980,19.354 21.977,19.660 21.906 C 20.459 21.720,21.041 21.327,21.486 20.671 C 21.685 20.378,21.807 20.084,21.906 19.660 C 21.977 19.354,21.980 19.014,21.980 12.000 C 21.980 4.986,21.977 4.646,21.906 4.340 C 21.688 3.404,21.167 2.737,20.329 2.321 C 20.019 2.168,19.706 2.091,19.180 2.042 C 18.644 1.991,5.276 1.994,4.749 2.045 M19.374 4.074 C 19.575 4.142,19.861 4.431,19.921 4.626 C 19.990 4.848,20.023 6.993,19.963 7.346 C 19.896 7.748,19.713 8.094,19.403 8.404 C 19.002 8.807,18.547 9.000,18.000 9.000 C 17.317 9.000,16.695 8.654,16.312 8.063 C 16.122 7.769,16.047 7.525,16.001 7.048 C 15.974 6.766,15.941 6.635,15.863 6.502 C 15.568 5.999,14.878 5.858,14.405 6.205 C 14.146 6.396,14.042 6.610,13.997 7.047 C 13.947 7.537,13.875 7.773,13.688 8.062 C 13.006 9.117,11.599 9.318,10.681 8.493 C 10.423 8.262,10.181 7.901,10.098 7.623 C 10.065 7.511,10.021 7.253,10.001 7.048 C 9.974 6.766,9.941 6.635,9.863 6.502 C 9.568 5.999,8.878 5.858,8.405 6.205 C 8.146 6.396,8.042 6.610,7.997 7.047 C 7.976 7.252,7.933 7.511,7.901 7.622 C 7.778 8.048,7.333 8.571,6.912 8.784 C 6.347 9.070,5.651 9.069,5.083 8.781 C 4.816 8.646,4.449 8.297,4.281 8.017 C 4.041 7.618,4.005 7.392,4.003 6.260 C 4.000 5.042,4.038 4.647,4.179 4.434 C 4.333 4.201,4.547 4.080,4.866 4.042 C 5.017 4.024,8.308 4.012,12.180 4.016 C 17.839 4.021,19.250 4.032,19.374 4.074 M9.123 9.783 C 9.275 9.946,9.718 10.293,9.956 10.436 C 10.512 10.771,11.341 11.000,12.000 11.000 C 12.459 11.000,13.040 10.884,13.488 10.704 C 14.005 10.495,14.351 10.271,14.810 9.845 L 15.000 9.669 15.190 9.845 C 15.649 10.271,15.995 10.495,16.512 10.704 C 17.231 10.994,18.023 11.070,18.757 10.921 C 19.120 10.847,19.811 10.602,19.898 10.517 C 19.919 10.497,19.951 10.480,19.970 10.480 C 20.025 10.480,19.986 19.194,19.929 19.360 C 19.859 19.568,19.665 19.781,19.450 19.886 C 19.262 19.979,19.246 19.980,17.630 19.993 L 16.000 20.006 15.999 17.433 C 15.999 15.318,15.988 14.810,15.940 14.581 C 15.792 13.885,15.328 13.363,14.635 13.112 L 14.380 13.020 12.000 13.020 L 9.620 13.020 9.365 13.112 C 8.859 13.295,8.433 13.660,8.222 14.093 C 8.009 14.527,8.001 14.645,8.001 17.433 L 8.000 20.006 6.370 19.993 C 4.754 19.980,4.738 19.979,4.550 19.886 C 4.335 19.781,4.141 19.568,4.071 19.360 C 4.014 19.194,3.975 10.480,4.030 10.480 C 4.049 10.480,4.081 10.497,4.102 10.517 C 4.189 10.602,4.880 10.847,5.243 10.921 C 6.163 11.108,7.238 10.923,8.044 10.436 C 8.282 10.293,8.725 9.946,8.877 9.783 C 8.930 9.727,8.986 9.680,9.000 9.680 C 9.014 9.680,9.070 9.727,9.123 9.783 M14.000 17.500 L 14.000 20.000 12.000 20.000 L 10.000 20.000 10.000 17.500 L 10.000 15.000 12.000 15.000 L 14.000 15.000 14.000 17.500 " stroke="none" fill-rule="evenodd" fill="black"></path></svg>