<svg width="24" height="24" viewBox="0 0 24 24" fill="none" xmlns="http://www.w3.org/2000/svg"><path d="M11.736 1.120 C 11.646 1.138,11.502 1.183,11.416 1.219 C 11.148 1.330,3.429 6.172,3.275 6.325 C 3.086 6.514,2.982 6.818,3.012 7.101 C 3.039 7.361,3.118 7.520,3.324 7.719 C 3.638 8.024,2.912 8.000,12.017 7.998 C 18.732 7.997,20.207 7.987,20.330 7.943 C 21.014 7.699,21.219 6.814,20.707 6.318 C 20.507 6.124,12.875 1.346,12.560 1.217 C 12.302 1.111,11.967 1.072,11.736 1.120 M14.273 4.600 L 16.480 5.980 14.240 5.990 C 13.008 5.996,10.992 5.996,9.760 5.990 L 7.520 5.980 9.730 4.593 C 10.946 3.830,11.968 3.209,12.003 3.213 C 12.038 3.217,13.059 3.841,14.273 4.600 M5.670 9.061 C 5.448 9.142,5.250 9.309,5.128 9.516 L 5.020 9.700 5.020 14.003 L 5.020 18.306 5.141 18.503 C 5.543 19.156,6.457 19.156,6.859 18.503 L 6.980 18.306 6.980 14.003 L 6.980 9.700 6.872 9.516 C 6.624 9.094,6.110 8.899,5.670 9.061 M9.670 9.061 C 9.448 9.142,9.250 9.309,9.128 9.516 L 9.020 9.700 9.020 14.003 L 9.020 18.306 9.141 18.503 C 9.543 19.156,10.457 19.156,10.859 18.503 L 10.980 18.306 10.980 14.003 L 10.980 9.700 10.872 9.516 C 10.624 9.094,10.110 8.899,9.670 9.061 M13.670 9.061 C 13.448 9.142,13.250 9.309,13.128 9.516 L 13.020 9.700 13.020 14.003 L 13.020 18.306 13.141 18.503 C 13.543 19.156,14.457 19.156,14.859 18.503 L 14.980 18.306 14.980 14.003 L 14.980 9.700 14.872 9.516 C 14.624 9.094,14.110 8.899,13.670 9.061 M17.670 9.061 C 17.448 9.142,17.250 9.309,17.128 9.516 L 17.020 9.700 17.020 14.003 L 17.020 18.306 17.141 18.503 C 17.543 19.156,18.457 19.156,18.859 18.503 L 18.980 18.306 18.980 14.003 L 18.980 9.700 18.872 9.516 C 18.624 9.094,18.110 8.899,17.670 9.061 M2.695 20.057 C 2.466 20.129,2.256 20.299,2.128 20.516 C 2.037 20.672,2.020 20.746,2.020 21.000 C 2.020 21.256,2.036 21.328,2.131 21.489 C 2.256 21.702,2.449 21.864,2.670 21.943 C 2.893 22.023,21.107 22.023,21.330 21.943 C 21.551 21.864,21.744 21.702,21.869 21.489 C 21.964 21.328,21.980 21.256,21.980 21.000 C 21.980 20.746,21.963 20.672,21.872 20.516 C 21.740 20.293,21.533 20.128,21.290 20.055 C 21.027 19.976,2.947 19.978,2.695 20.057 " stroke="none" fill-rule="evenodd" fill="black"></path></svg>