<svg width="24" height="24" viewBox="0 0 24 24" fill="none" xmlns="http://www.w3.org/2000/svg"><path d="M4.749 2.045 C 3.967 2.120,3.402 2.371,2.890 2.870 C 2.508 3.243,2.266 3.674,2.108 4.260 L 2.022 4.580 2.010 12.284 L 1.998 19.988 1.785 20.035 C 1.515 20.096,1.270 20.275,1.129 20.514 C 1.036 20.672,1.020 20.745,1.020 21.000 C 1.020 21.256,1.036 21.328,1.131 21.489 C 1.256 21.702,1.449 21.864,1.670 21.943 C 1.893 22.023,22.107 22.023,22.330 21.943 C 22.551 21.864,22.744 21.702,22.869 21.489 C 22.964 21.328,22.980 21.256,22.980 21.000 C 22.980 20.745,22.964 20.672,22.871 20.514 C 22.730 20.275,22.485 20.096,22.216 20.036 L 22.004 19.988 21.990 16.284 C 21.976 12.657,21.974 12.573,21.891 12.260 C 21.780 11.842,21.680 11.614,21.473 11.310 C 21.090 10.744,20.483 10.306,19.859 10.145 C 19.405 10.028,18.744 10.000,16.373 10.000 L 14.005 10.000 13.990 7.290 C 13.975 4.688,13.971 4.567,13.890 4.260 C 13.780 3.843,13.680 3.615,13.473 3.310 C 13.184 2.882,12.811 2.560,12.329 2.321 C 12.019 2.168,11.706 2.091,11.180 2.042 C 10.655 1.992,5.269 1.995,4.749 2.045 M11.374 4.075 C 11.571 4.140,11.859 4.427,11.926 4.626 C 11.968 4.750,11.981 6.269,11.990 12.390 L 12.002 20.000 8.001 20.000 L 4.000 20.000 4.000 12.630 C 4.000 8.144,4.016 5.128,4.039 4.923 C 4.103 4.366,4.350 4.103,4.866 4.041 C 5.017 4.023,6.508 4.012,8.180 4.016 C 10.507 4.023,11.256 4.037,11.374 4.075 M6.240 6.037 C 5.791 6.177,5.512 6.546,5.512 7.000 C 5.512 7.405,5.719 7.724,6.100 7.905 L 6.300 7.999 8.000 7.999 L 9.700 7.999 9.900 7.905 C 10.281 7.724,10.488 7.405,10.488 7.000 C 10.488 6.615,10.293 6.297,9.940 6.106 C 9.784 6.022,9.740 6.020,8.060 6.013 C 7.114 6.009,6.295 6.019,6.240 6.037 M6.240 10.037 C 5.791 10.177,5.512 10.546,5.512 11.000 C 5.512 11.405,5.719 11.724,6.100 11.905 L 6.300 11.999 8.000 11.999 L 9.700 11.999 9.900 11.905 C 10.281 11.724,10.488 11.405,10.488 11.000 C 10.488 10.615,10.293 10.297,9.940 10.106 C 9.784 10.022,9.740 10.020,8.060 10.013 C 7.114 10.009,6.295 10.019,6.240 10.037 M19.374 12.076 C 19.572 12.140,19.859 12.428,19.925 12.626 C 19.964 12.745,19.979 13.602,19.990 16.390 L 20.004 20.000 17.002 20.000 L 14.000 20.000 14.000 15.997 L 14.000 11.995 16.610 12.010 C 18.562 12.022,19.259 12.038,19.374 12.076 M6.240 14.037 C 5.791 14.177,5.512 14.546,5.512 15.000 C 5.512 15.405,5.719 15.724,6.100 15.905 L 6.300 15.999 8.000 15.999 L 9.700 15.999 9.900 15.905 C 10.281 15.724,10.488 15.405,10.488 15.000 C 10.488 14.615,10.293 14.297,9.940 14.106 C 9.784 14.022,9.740 14.020,8.060 14.013 C 7.114 14.009,6.295 14.019,6.240 14.037 " stroke="none" fill-rule="evenodd" fill="black"></path></svg>