<svg width="24" height="24" viewBox="0 0 24 24" fill="none" xmlns="http://www.w3.org/2000/svg"><path d="M12.749 2.045 C 11.967 2.120,11.402 2.371,10.890 2.870 C 10.507 3.244,10.263 3.678,10.110 4.260 C 10.028 4.568,10.024 4.684,10.010 7.290 L 9.995 10.000 7.628 10.000 C 5.256 10.000,4.595 10.028,4.141 10.145 C 3.517 10.306,2.910 10.744,2.527 11.310 C 2.320 11.614,2.220 11.841,2.109 12.260 C 2.025 12.574,2.023 12.654,2.010 16.284 L 1.997 19.988 1.784 20.036 C 1.515 20.096,1.270 20.275,1.129 20.514 C 1.036 20.672,1.020 20.745,1.020 21.000 C 1.020 21.256,1.036 21.328,1.131 21.489 C 1.256 21.702,1.449 21.864,1.670 21.943 C 1.893 22.023,22.107 22.023,22.330 21.943 C 22.551 21.864,22.744 21.702,22.869 21.489 C 22.964 21.328,22.980 21.256,22.980 21.000 C 22.980 20.745,22.964 20.672,22.871 20.514 C 22.730 20.275,22.485 20.096,22.215 20.035 L 22.002 19.988 21.990 12.284 L 21.978 4.580 21.892 4.260 C 21.779 3.840,21.679 3.613,21.473 3.310 C 21.184 2.882,20.811 2.560,20.329 2.321 C 20.019 2.168,19.706 2.091,19.180 2.042 C 18.655 1.992,13.269 1.995,12.749 2.045 M19.374 4.075 C 19.571 4.140,19.859 4.427,19.926 4.626 C 19.968 4.750,19.981 6.269,19.990 12.390 L 20.002 20.000 16.001 20.000 L 12.000 20.000 12.000 12.630 C 12.000 8.144,12.016 5.128,12.039 4.923 C 12.103 4.366,12.350 4.103,12.866 4.041 C 13.017 4.023,14.508 4.012,16.180 4.016 C 18.507 4.023,19.256 4.037,19.374 4.075 M14.240 6.037 C 13.791 6.177,13.512 6.546,13.512 7.000 C 13.512 7.405,13.719 7.724,14.100 7.905 L 14.300 7.999 16.000 7.999 L 17.700 7.999 17.900 7.905 C 18.281 7.724,18.488 7.405,18.488 7.000 C 18.488 6.615,18.293 6.297,17.940 6.106 C 17.784 6.022,17.740 6.020,16.060 6.013 C 15.114 6.009,14.295 6.019,14.240 6.037 M14.240 10.037 C 13.791 10.177,13.512 10.546,13.512 11.000 C 13.512 11.405,13.719 11.724,14.100 11.905 L 14.300 11.999 16.000 11.999 L 17.700 11.999 17.900 11.905 C 18.281 11.724,18.488 11.405,18.488 11.000 C 18.488 10.615,18.293 10.297,17.940 10.106 C 17.784 10.022,17.740 10.020,16.060 10.013 C 15.114 10.009,14.295 10.019,14.240 10.037 M10.000 16.000 L 10.000 20.000 7.000 20.000 L 4.000 20.000 4.000 16.630 C 4.000 14.720,4.017 13.114,4.039 12.923 C 4.103 12.365,4.350 12.102,4.866 12.042 C 5.017 12.025,6.233 12.008,7.570 12.005 L 10.000 12.000 10.000 16.000 M14.240 14.037 C 13.791 14.177,13.512 14.546,13.512 15.000 C 13.512 15.405,13.719 15.724,14.100 15.905 L 14.300 15.999 16.000 15.999 L 17.700 15.999 17.900 15.905 C 18.281 15.724,18.488 15.405,18.488 15.000 C 18.488 14.615,18.293 14.297,17.940 14.106 C 17.784 14.022,17.740 14.020,16.060 14.013 C 15.114 14.009,14.295 14.019,14.240 14.037 " stroke="none" fill-rule="evenodd" fill="black"></path></svg>