<svg width="24" height="24" viewBox="0 0 24 24" fill="none" xmlns="http://www.w3.org/2000/svg"><path d="M7.749 2.045 C 6.967 2.120,6.402 2.371,5.890 2.870 C 5.508 3.243,5.266 3.674,5.108 4.260 L 5.022 4.580 5.010 12.290 L 4.998 20.000 4.445 20.000 C 3.648 20.000,3.367 20.110,3.128 20.516 C 3.037 20.672,3.020 20.746,3.020 21.000 C 3.020 21.256,3.036 21.328,3.131 21.489 C 3.256 21.702,3.449 21.864,3.670 21.943 C 3.893 22.022,20.107 22.022,20.330 21.943 C 20.551 21.864,20.744 21.702,20.869 21.489 C 20.964 21.328,20.980 21.256,20.980 21.000 C 20.980 20.746,20.963 20.672,20.872 20.516 C 20.633 20.110,20.352 20.000,19.555 20.000 L 19.002 20.000 18.990 12.290 L 18.978 4.580 18.892 4.260 C 18.779 3.840,18.679 3.613,18.473 3.310 C 18.184 2.882,17.811 2.560,17.329 2.321 C 17.019 2.168,16.706 2.091,16.180 2.042 C 15.650 1.992,8.272 1.994,7.749 2.045 M16.374 4.075 C 16.571 4.140,16.859 4.428,16.926 4.626 C 16.968 4.750,16.981 6.269,16.990 12.390 L 17.002 20.000 12.001 20.000 L 7.000 20.000 7.000 12.630 C 7.000 8.144,7.016 5.128,7.039 4.923 C 7.103 4.366,7.350 4.103,7.866 4.041 C 8.017 4.023,9.958 4.012,12.180 4.016 C 15.341 4.022,16.254 4.035,16.374 4.075 M9.240 6.037 C 8.792 6.175,8.512 6.546,8.512 7.000 C 8.512 7.405,8.719 7.724,9.100 7.905 L 9.300 7.999 12.000 7.999 L 14.700 7.999 14.900 7.905 C 15.281 7.724,15.488 7.405,15.488 7.000 C 15.488 6.615,15.293 6.297,14.940 6.106 C 14.781 6.020,14.765 6.020,12.060 6.013 C 10.564 6.009,9.295 6.020,9.240 6.037 M9.240 10.037 C 8.792 10.175,8.512 10.546,8.512 11.000 C 8.512 11.405,8.719 11.724,9.100 11.905 L 9.300 11.999 12.000 11.999 L 14.700 11.999 14.900 11.905 C 15.281 11.724,15.488 11.405,15.488 11.000 C 15.488 10.615,15.293 10.297,14.940 10.106 C 14.781 10.020,14.765 10.020,12.060 10.013 C 10.564 10.009,9.295 10.020,9.240 10.037 M9.240 14.037 C 8.792 14.175,8.512 14.546,8.512 15.000 C 8.512 15.405,8.719 15.724,9.100 15.905 L 9.300 15.999 12.000 15.999 L 14.700 15.999 14.900 15.905 C 15.281 15.724,15.488 15.405,15.488 15.000 C 15.488 14.615,15.293 14.297,14.940 14.106 C 14.781 14.020,14.765 14.020,12.060 14.013 C 10.564 14.009,9.295 14.020,9.240 14.037 " stroke="none" fill-rule="evenodd" fill="black"></path></svg>