<svg width="24" height="24" viewBox="0 0 24 24" fill="none" xmlns="http://www.w3.org/2000/svg"><path d="M5.749 2.045 C 4.967 2.120,4.402 2.371,3.890 2.870 C 3.508 3.243,3.266 3.674,3.108 4.260 L 3.022 4.580 3.010 12.290 L 2.998 20.000 2.445 20.000 C 1.648 20.000,1.367 20.110,1.128 20.516 C 1.037 20.672,1.020 20.746,1.020 21.000 C 1.020 21.256,1.036 21.328,1.131 21.489 C 1.256 21.702,1.449 21.864,1.670 21.943 C 1.893 22.023,22.107 22.023,22.330 21.943 C 22.551 21.864,22.744 21.702,22.869 21.489 C 22.964 21.328,22.980 21.256,22.980 21.000 C 22.980 20.746,22.963 20.672,22.872 20.516 C 22.633 20.110,22.352 20.000,21.555 20.000 L 21.002 20.000 20.990 12.290 L 20.978 4.580 20.892 4.260 C 20.779 3.840,20.679 3.613,20.473 3.310 C 20.184 2.882,19.811 2.560,19.329 2.321 C 19.019 2.168,18.706 2.091,18.180 2.042 C 17.646 1.991,6.275 1.994,5.749 2.045 M18.374 4.074 C 18.572 4.141,18.859 4.428,18.926 4.626 C 18.968 4.750,18.981 6.269,18.990 12.390 L 19.002 20.000 12.001 20.000 L 5.000 20.000 5.000 12.630 C 5.000 8.144,5.016 5.128,5.039 4.923 C 5.103 4.366,5.350 4.103,5.866 4.042 C 6.017 4.024,8.858 4.012,12.180 4.016 C 17.006 4.021,18.251 4.033,18.374 4.074 M7.240 6.037 C 6.790 6.177,6.512 6.546,6.512 7.003 C 6.512 7.292,6.619 7.536,6.827 7.724 C 7.137 8.003,7.150 8.005,8.940 7.992 C 10.491 7.980,10.545 7.977,10.700 7.894 C 11.036 7.712,11.238 7.377,11.238 7.000 C 11.238 6.623,11.036 6.288,10.700 6.106 C 10.544 6.022,10.496 6.020,8.940 6.013 C 8.060 6.008,7.295 6.019,7.240 6.037 M13.480 6.037 C 12.614 6.307,12.502 7.463,13.300 7.894 C 13.455 7.977,13.509 7.980,15.060 7.992 C 16.850 8.005,16.863 8.003,17.173 7.724 C 17.381 7.536,17.488 7.292,17.488 7.003 C 17.488 6.615,17.294 6.298,16.940 6.106 C 16.784 6.022,16.737 6.020,15.180 6.013 C 14.300 6.008,13.535 6.019,13.480 6.037 M7.240 10.037 C 6.790 10.177,6.512 10.546,6.512 11.003 C 6.512 11.292,6.619 11.536,6.827 11.724 C 7.137 12.003,7.150 12.005,8.940 11.992 C 10.491 11.980,10.545 11.977,10.700 11.894 C 11.036 11.712,11.238 11.377,11.238 11.000 C 11.238 10.623,11.036 10.288,10.700 10.106 C 10.544 10.022,10.496 10.020,8.940 10.013 C 8.060 10.008,7.295 10.019,7.240 10.037 M13.480 10.037 C 12.614 10.307,12.502 11.463,13.300 11.894 C 13.455 11.977,13.509 11.980,15.060 11.992 C 16.850 12.005,16.863 12.003,17.173 11.724 C 17.381 11.536,17.488 11.292,17.488 11.003 C 17.488 10.615,17.294 10.298,16.940 10.106 C 16.784 10.022,16.737 10.020,15.180 10.013 C 14.300 10.008,13.535 10.019,13.480 10.037 M7.240 14.037 C 6.790 14.177,6.512 14.546,6.512 15.003 C 6.512 15.292,6.619 15.536,6.827 15.724 C 7.137 16.003,7.150 16.005,8.940 15.992 C 10.491 15.980,10.545 15.977,10.700 15.894 C 11.036 15.712,11.238 15.377,11.238 15.000 C 11.238 14.623,11.036 14.288,10.700 14.106 C 10.544 14.022,10.496 14.020,8.940 14.013 C 8.060 14.008,7.295 14.019,7.240 14.037 M13.480 14.037 C 12.614 14.307,12.502 15.463,13.300 15.894 C 13.455 15.977,13.509 15.980,15.060 15.992 C 16.850 16.005,16.863 16.003,17.173 15.724 C 17.381 15.536,17.488 15.292,17.488 15.003 C 17.488 14.615,17.294 14.298,16.940 14.106 C 16.784 14.022,16.737 14.020,15.180 14.013 C 14.300 14.008,13.535 14.019,13.480 14.037 " stroke="none" fill-rule="evenodd" fill="black"></path></svg>