<svg width="24" height="24" viewBox="0 0 24 24" fill="none" xmlns="http://www.w3.org/2000/svg"><path d="M9.252 2.041 C 8.624 2.105,8.186 2.260,7.745 2.575 C 7.285 2.904,6.926 3.363,6.733 3.872 C 6.523 4.427,6.515 4.542,6.492 7.367 L 6.471 9.993 5.045 10.008 C 3.687 10.023,3.608 10.028,3.365 10.114 C 2.862 10.292,2.434 10.659,2.222 11.093 C 2.000 11.546,2.001 11.514,2.001 15.924 L 2.000 19.987 1.786 20.035 C 1.515 20.096,1.270 20.275,1.129 20.514 C 1.036 20.672,1.020 20.745,1.020 21.000 C 1.020 21.256,1.036 21.328,1.131 21.489 C 1.256 21.702,1.449 21.864,1.670 21.943 C 1.893 22.023,22.107 22.023,22.330 21.943 C 22.551 21.864,22.744 21.702,22.869 21.489 C 22.964 21.328,22.980 21.256,22.980 21.000 C 22.980 20.745,22.964 20.672,22.871 20.514 C 22.730 20.275,22.485 20.096,22.214 20.035 L 22.000 19.987 21.999 15.924 C 21.999 12.493,21.989 11.817,21.940 11.581 C 21.792 10.884,21.325 10.358,20.635 10.114 C 20.392 10.028,20.313 10.023,18.954 10.008 L 17.529 9.993 17.509 7.407 C 17.496 5.792,17.472 4.717,17.444 4.546 C 17.236 3.272,16.386 2.367,15.140 2.091 C 14.906 2.039,14.429 2.027,12.220 2.018 C 10.768 2.013,9.432 2.023,9.252 2.041 M14.911 4.095 C 15.152 4.200,15.384 4.477,15.437 4.724 C 15.467 4.862,15.480 7.260,15.480 12.462 L 15.480 20.000 12.000 20.000 L 8.520 20.000 8.520 12.462 C 8.520 7.307,8.533 4.861,8.562 4.726 C 8.610 4.504,8.813 4.237,9.014 4.132 C 9.083 4.096,9.248 4.054,9.380 4.038 C 9.512 4.021,10.772 4.011,12.180 4.015 C 14.575 4.021,14.751 4.026,14.911 4.095 M10.695 6.057 C 10.466 6.129,10.256 6.299,10.128 6.516 C 10.037 6.672,10.020 6.746,10.020 7.000 C 10.020 7.256,10.036 7.328,10.131 7.489 C 10.256 7.702,10.449 7.864,10.670 7.943 C 10.885 8.020,13.115 8.020,13.330 7.943 C 13.551 7.864,13.744 7.702,13.869 7.489 C 13.964 7.328,13.980 7.256,13.980 7.000 C 13.980 6.746,13.963 6.672,13.872 6.516 C 13.740 6.293,13.533 6.128,13.290 6.055 C 13.039 5.979,10.937 5.981,10.695 6.057 M10.695 10.057 C 10.466 10.129,10.256 10.299,10.128 10.516 C 10.037 10.672,10.020 10.746,10.020 11.000 C 10.020 11.256,10.036 11.328,10.131 11.489 C 10.256 11.702,10.449 11.864,10.670 11.943 C 10.885 12.020,13.115 12.020,13.330 11.943 C 13.551 11.864,13.744 11.702,13.869 11.489 C 13.964 11.328,13.980 11.256,13.980 11.000 C 13.980 10.746,13.963 10.672,13.872 10.516 C 13.740 10.293,13.533 10.128,13.290 10.055 C 13.039 9.979,10.937 9.981,10.695 10.057 M6.480 16.000 L 6.480 20.000 5.240 20.000 L 4.000 20.000 4.000 16.000 L 4.000 12.000 5.240 12.000 L 6.480 12.000 6.480 16.000 M20.000 16.000 L 20.000 20.000 18.760 20.000 L 17.520 20.000 17.520 16.000 L 17.520 12.000 18.760 12.000 L 20.000 12.000 20.000 16.000 M10.695 14.057 C 10.466 14.129,10.256 14.299,10.128 14.516 C 10.037 14.672,10.020 14.746,10.020 15.000 C 10.020 15.256,10.036 15.328,10.131 15.489 C 10.256 15.702,10.449 15.864,10.670 15.943 C 10.885 16.020,13.115 16.020,13.330 15.943 C 13.551 15.864,13.744 15.702,13.869 15.489 C 13.964 15.328,13.980 15.256,13.980 15.000 C 13.980 14.746,13.963 14.672,13.872 14.516 C 13.740 14.293,13.533 14.128,13.290 14.055 C 13.039 13.979,10.937 13.981,10.695 14.057 " stroke="none" fill-rule="evenodd" fill="black"></path></svg>