<svg width="24" height="24" viewBox="0 0 24 24" fill="none" xmlns="http://www.w3.org/2000/svg"><path d="M5.920 1.041 C 5.151 1.092,4.672 1.205,4.180 1.451 C 3.089 1.996,2.357 2.961,2.124 4.160 C 2.014 4.724,2.000 5.447,2.000 10.500 C 2.000 16.321,2.008 16.533,2.245 17.320 C 2.473 18.078,3.092 18.889,3.771 19.320 L 3.992 19.460 4.006 20.660 L 4.021 21.860 4.144 22.120 C 4.300 22.450,4.549 22.699,4.880 22.856 L 5.140 22.980 6.629 22.993 C 7.877 23.003,8.157 22.995,8.361 22.943 C 8.990 22.782,9.381 22.332,9.478 21.659 C 9.500 21.505,9.519 21.069,9.519 20.690 L 9.520 20.000 12.000 20.000 L 14.480 20.000 14.480 20.710 C 14.480 21.101,14.499 21.537,14.522 21.680 C 14.629 22.343,15.019 22.784,15.639 22.943 C 15.843 22.995,16.123 23.003,17.371 22.993 L 18.860 22.980 19.120 22.856 C 19.451 22.699,19.700 22.450,19.856 22.120 L 19.979 21.860 19.994 20.660 L 20.008 19.460 20.229 19.320 C 20.908 18.889,21.527 18.078,21.755 17.320 C 21.992 16.533,22.000 16.321,22.000 10.500 C 22.000 4.679,21.992 4.467,21.755 3.680 C 21.424 2.581,20.465 1.622,19.320 1.246 C 18.644 1.024,18.800 1.029,12.340 1.019 C 9.062 1.014,6.173 1.024,5.920 1.041 M18.492 3.091 C 18.894 3.188,19.109 3.309,19.400 3.600 C 19.669 3.868,19.828 4.133,19.868 4.379 L 19.890 4.520 12.000 4.520 L 4.110 4.520 4.132 4.379 C 4.188 4.037,4.528 3.576,4.903 3.336 C 5.173 3.163,5.494 3.075,5.980 3.039 C 6.200 3.023,9.044 3.013,12.300 3.018 C 17.643 3.024,18.247 3.032,18.492 3.091 M20.000 8.760 L 20.000 11.000 12.000 11.000 L 4.000 11.000 4.000 8.760 L 4.000 6.520 12.000 6.520 L 20.000 6.520 20.000 8.760 M19.988 14.610 C 19.959 16.706,19.923 16.877,19.400 17.401 C 19.101 17.701,18.820 17.851,18.418 17.928 C 18.010 18.005,5.990 18.005,5.582 17.927 C 5.170 17.850,4.898 17.704,4.600 17.403 C 4.076 16.874,4.041 16.706,4.012 14.610 L 3.989 13.000 12.000 13.000 L 20.011 13.000 19.988 14.610 M6.044 14.625 C 5.379 14.957,5.322 15.895,5.941 16.321 C 6.187 16.490,6.506 16.531,7.430 16.512 C 8.068 16.499,8.251 16.482,8.380 16.426 C 8.733 16.272,8.999 15.874,8.999 15.500 C 8.999 15.130,8.730 14.723,8.391 14.582 C 8.270 14.532,8.056 14.520,7.249 14.520 C 6.256 14.520,6.256 14.520,6.044 14.625 M15.600 14.584 C 15.267 14.728,15.001 15.135,15.001 15.500 C 15.001 15.874,15.267 16.272,15.620 16.426 C 15.749 16.482,15.931 16.499,16.567 16.512 C 17.533 16.532,17.823 16.492,18.086 16.301 C 18.673 15.873,18.601 14.947,17.956 14.625 L 17.744 14.520 16.742 14.522 C 15.938 14.523,15.712 14.535,15.600 14.584 M6.803 20.000 L 7.480 20.000 7.480 20.500 L 7.480 21.000 6.740 21.000 L 6.000 21.000 6.000 20.476 C 6.000 20.014,6.008 19.954,6.063 19.976 C 6.098 19.989,6.431 20.000,6.803 20.000 M18.000 20.480 L 18.000 21.000 17.260 21.000 L 16.520 21.000 16.520 20.501 L 16.520 20.002 17.230 19.990 C 17.620 19.983,17.953 19.974,17.970 19.969 C 17.987 19.964,18.000 20.194,18.000 20.480 " stroke="none" fill-rule="evenodd" fill="black"></path></svg>