<svg width="24" height="24" viewBox="0 0 24 24" fill="none" xmlns="http://www.w3.org/2000/svg"><path d="M5.920 2.041 C 5.151 2.092,4.672 2.205,4.180 2.451 C 3.089 2.996,2.357 3.961,2.124 5.160 C 2.013 5.729,2.000 6.455,2.000 12.000 C 2.000 18.358,2.006 18.526,2.245 19.320 C 2.577 20.422,3.578 21.423,4.680 21.755 C 5.474 21.994,5.642 22.000,12.000 22.000 C 18.358 22.000,18.526 21.994,19.320 21.755 C 20.422 21.423,21.423 20.422,21.755 19.320 C 21.994 18.526,22.000 18.358,22.000 12.000 C 22.000 5.642,21.994 5.474,21.755 4.680 C 21.424 3.581,20.465 2.622,19.320 2.246 C 18.644 2.024,18.800 2.029,12.340 2.019 C 9.062 2.014,6.173 2.024,5.920 2.041 M18.492 4.091 C 18.894 4.188,19.109 4.309,19.400 4.600 C 19.696 4.895,19.814 5.109,19.912 5.528 C 19.975 5.797,19.980 6.313,19.980 12.000 C 19.980 17.687,19.975 18.203,19.912 18.472 C 19.814 18.891,19.696 19.104,19.400 19.401 C 19.101 19.701,18.820 19.851,18.418 19.928 C 18.010 20.005,5.990 20.005,5.582 19.927 C 5.170 19.850,4.898 19.704,4.600 19.403 C 4.303 19.104,4.186 18.890,4.088 18.472 C 4.025 18.203,4.020 17.687,4.020 12.000 C 4.020 6.313,4.025 5.797,4.088 5.528 C 4.175 5.155,4.294 4.918,4.520 4.667 C 4.883 4.262,5.282 4.091,5.980 4.039 C 6.200 4.023,9.044 4.013,12.300 4.018 C 17.643 4.024,18.247 4.032,18.492 4.091 M8.044 5.625 C 7.777 5.758,7.584 6.014,7.524 6.315 C 7.500 6.435,7.480 6.755,7.480 7.027 L 7.480 7.520 6.868 7.520 C 6.287 7.520,6.245 7.525,6.044 7.625 C 5.517 7.888,5.345 8.571,5.682 9.063 C 5.921 9.411,6.241 9.520,7.027 9.520 L 7.480 9.520 7.480 9.998 C 7.480 10.558,7.531 10.838,7.673 11.052 C 8.087 11.679,9.052 11.614,9.383 10.937 C 9.488 10.722,9.497 10.665,9.513 10.113 L 9.530 9.520 9.978 9.520 C 10.533 9.520,10.844 9.465,11.049 9.330 C 11.668 8.919,11.617 7.955,10.957 7.626 C 10.755 7.525,10.714 7.520,10.132 7.520 L 9.520 7.520 9.520 7.053 C 9.520 6.797,9.501 6.477,9.478 6.343 C 9.391 5.848,9.001 5.520,8.500 5.520 C 8.316 5.520,8.203 5.546,8.044 5.625 M17.080 5.603 C 16.939 5.666,15.691 6.891,11.347 11.232 C 8.293 14.283,5.744 16.852,5.682 16.940 C 5.281 17.515,5.620 18.348,6.305 18.469 C 6.548 18.512,6.855 18.462,7.017 18.352 C 7.196 18.231,18.185 7.250,18.320 7.057 C 18.547 6.733,18.536 6.246,18.295 5.908 C 18.041 5.551,17.498 5.415,17.080 5.603 M13.044 14.625 C 12.197 15.048,12.397 16.302,13.339 16.477 C 13.659 16.536,17.341 16.536,17.661 16.477 C 18.594 16.304,18.796 15.044,17.957 14.626 L 17.744 14.520 15.500 14.520 L 13.256 14.520 13.044 14.625 " stroke="none" fill-rule="evenodd" fill="black"></path></svg>