<svg width="24" height="24" viewBox="0 0 24 24" fill="none" xmlns="http://www.w3.org/2000/svg"><path d="M7.695 1.057 C 7.466 1.129,7.256 1.299,7.128 1.516 C 7.025 1.692,7.019 1.728,7.007 2.345 L 6.993 2.991 6.367 3.018 C 5.290 3.065,4.711 3.181,4.160 3.460 C 3.083 4.005,2.355 4.970,2.124 6.160 C 2.013 6.729,2.000 7.455,2.000 13.000 C 2.000 19.358,2.006 19.526,2.245 20.320 C 2.577 21.422,3.578 22.423,4.680 22.755 C 5.474 22.994,5.642 23.000,12.000 23.000 C 18.358 23.000,18.526 22.994,19.320 22.755 C 20.422 22.423,21.423 21.422,21.755 20.320 C 21.994 19.526,22.000 19.358,22.000 13.000 C 22.000 7.455,21.987 6.729,21.876 6.160 C 21.680 5.147,21.120 4.290,20.287 3.725 C 19.573 3.241,18.954 3.076,17.633 3.018 L 17.007 2.991 16.993 2.345 C 16.981 1.726,16.976 1.693,16.871 1.514 C 16.479 0.848,15.521 0.848,15.129 1.514 C 15.024 1.693,15.019 1.726,15.007 2.350 L 14.993 3.000 12.000 3.000 L 9.007 3.000 8.993 2.350 C 8.981 1.728,8.975 1.692,8.872 1.516 C 8.628 1.101,8.150 0.915,7.695 1.057 M7.007 5.653 C 7.020 6.300,7.021 6.308,7.141 6.503 C 7.543 7.156,8.457 7.156,8.859 6.503 C 8.979 6.308,8.980 6.300,8.993 5.653 L 9.007 5.000 12.000 5.000 L 14.993 5.000 15.007 5.653 C 15.020 6.300,15.021 6.308,15.141 6.503 C 15.543 7.156,16.457 7.156,16.859 6.503 C 16.979 6.308,16.980 6.301,16.994 5.648 L 17.007 4.990 17.614 5.018 C 18.655 5.066,18.968 5.168,19.400 5.600 C 19.887 6.086,19.952 6.340,19.987 7.890 L 20.012 9.000 12.000 9.000 L 3.988 9.000 4.013 7.890 C 4.047 6.409,4.112 6.120,4.520 5.667 C 4.966 5.169,5.422 5.030,6.687 5.006 L 6.993 5.000 7.007 5.653 M19.989 15.110 C 19.972 19.564,19.975 19.493,19.752 19.952 C 19.626 20.211,19.190 20.638,18.918 20.768 C 18.466 20.985,18.627 20.980,12.000 20.980 C 5.383 20.980,5.538 20.985,5.082 20.771 C 4.812 20.643,4.377 20.217,4.248 19.952 C 4.025 19.493,4.028 19.564,4.011 15.110 L 3.995 11.000 12.000 11.000 L 20.005 11.000 19.989 15.110 " stroke="none" fill-rule="evenodd" fill="black"></path></svg>