<svg width="24" height="24" viewBox="0 0 24 24" fill="none" xmlns="http://www.w3.org/2000/svg"><path d="M7.695 1.057 C 7.466 1.129,7.256 1.299,7.128 1.516 C 7.025 1.692,7.019 1.728,7.007 2.345 L 6.993 2.991 6.367 3.018 C 5.290 3.065,4.711 3.181,4.160 3.460 C 3.083 4.005,2.355 4.970,2.124 6.160 C 2.013 6.729,2.000 7.455,2.000 13.000 C 2.000 19.358,2.006 19.526,2.245 20.320 C 2.577 21.422,3.578 22.423,4.680 22.755 C 5.474 22.994,5.642 23.000,12.000 23.000 C 18.358 23.000,18.526 22.994,19.320 22.755 C 20.422 22.423,21.423 21.422,21.755 20.320 C 21.994 19.526,22.000 19.358,22.000 13.000 C 22.000 7.455,21.987 6.729,21.876 6.160 C 21.680 5.147,21.120 4.290,20.287 3.725 C 19.573 3.241,18.954 3.076,17.633 3.018 L 17.007 2.991 16.993 2.345 C 16.981 1.726,16.976 1.693,16.871 1.514 C 16.479 0.848,15.521 0.848,15.129 1.514 C 15.024 1.693,15.019 1.726,15.007 2.350 L 14.993 3.000 12.000 3.000 L 9.007 3.000 8.993 2.350 C 8.981 1.728,8.975 1.692,8.872 1.516 C 8.628 1.101,8.150 0.915,7.695 1.057 M7.018 5.179 C 7.054 5.422,7.258 5.712,7.497 5.859 C 7.671 5.966,7.729 5.980,8.000 5.980 C 8.271 5.980,8.329 5.966,8.503 5.859 C 8.742 5.712,8.946 5.422,8.982 5.179 L 9.009 5.000 12.000 5.000 L 14.991 5.000 15.018 5.179 C 15.054 5.422,15.258 5.712,15.497 5.859 C 15.671 5.966,15.729 5.980,16.000 5.980 C 16.271 5.980,16.329 5.966,16.503 5.859 C 16.744 5.711,16.946 5.423,16.983 5.174 L 17.011 4.990 17.615 5.018 C 18.591 5.063,18.937 5.164,19.333 5.520 C 19.694 5.844,19.883 6.228,19.943 6.761 L 19.970 7.000 12.005 7.000 L 4.040 7.000 4.041 6.890 C 4.042 6.694,4.154 6.240,4.248 6.051 C 4.454 5.639,4.900 5.266,5.343 5.137 C 5.579 5.069,6.107 5.017,6.685 5.006 L 6.991 5.000 7.018 5.179 M19.989 14.110 C 19.973 19.665,19.980 19.483,19.752 19.952 C 19.626 20.211,19.190 20.638,18.918 20.768 C 18.466 20.985,18.627 20.980,12.000 20.980 C 5.383 20.980,5.538 20.985,5.082 20.771 C 4.812 20.643,4.377 20.217,4.248 19.952 C 4.020 19.483,4.027 19.665,4.011 14.110 L 3.996 9.000 12.000 9.000 L 20.004 9.000 19.989 14.110 M8.695 14.057 C 8.466 14.129,8.256 14.299,8.128 14.516 C 8.037 14.672,8.020 14.746,8.020 15.000 C 8.020 15.256,8.036 15.328,8.131 15.489 C 8.256 15.702,8.449 15.864,8.670 15.943 C 8.891 16.022,15.109 16.022,15.330 15.943 C 15.551 15.864,15.744 15.702,15.869 15.489 C 15.964 15.328,15.980 15.256,15.980 15.000 C 15.980 14.746,15.963 14.672,15.872 14.516 C 15.740 14.293,15.533 14.128,15.290 14.055 C 15.030 13.977,8.945 13.979,8.695 14.057 " stroke="none" fill-rule="evenodd" fill="black"></path></svg>