<svg width="24" height="24" viewBox="0 0 24 24" fill="none" xmlns="http://www.w3.org/2000/svg"><path d="M7.695 1.057 C 7.466 1.129,7.256 1.299,7.128 1.516 C 7.025 1.692,7.019 1.728,7.007 2.345 L 6.993 2.991 6.367 3.018 C 5.290 3.065,4.711 3.181,4.160 3.460 C 3.083 4.005,2.355 4.970,2.124 6.160 C 2.013 6.729,2.000 7.455,2.000 13.000 C 2.000 19.358,2.006 19.526,2.245 20.320 C 2.577 21.422,3.578 22.423,4.680 22.755 C 5.418 22.978,5.841 23.000,9.220 22.998 C 11.588 22.997,12.210 22.986,12.330 22.943 C 12.551 22.864,12.744 22.702,12.869 22.489 C 12.964 22.328,12.980 22.256,12.980 22.000 C 12.980 21.746,12.963 21.672,12.872 21.516 C 12.761 21.328,12.572 21.158,12.373 21.070 C 12.287 21.032,11.482 21.015,9.020 20.998 C 5.561 20.974,5.510 20.971,5.080 20.769 C 4.812 20.644,4.376 20.216,4.248 19.952 C 4.025 19.493,4.028 19.564,4.011 15.110 L 3.995 11.000 11.997 11.000 L 20.000 11.000 20.000 11.850 C 20.001 12.661,20.005 12.709,20.095 12.900 C 20.276 13.281,20.595 13.488,21.000 13.488 C 21.405 13.488,21.724 13.281,21.905 12.900 L 21.999 12.700 22.000 9.980 C 22.000 6.857,21.974 6.408,21.755 5.680 C 21.531 4.934,20.971 4.189,20.287 3.725 C 19.573 3.241,18.954 3.076,17.633 3.018 L 17.007 2.991 16.993 2.345 C 16.981 1.726,16.976 1.693,16.871 1.514 C 16.479 0.848,15.521 0.848,15.129 1.514 C 15.024 1.693,15.019 1.726,15.007 2.350 L 14.993 3.000 12.000 3.000 L 9.007 3.000 8.993 2.350 C 8.981 1.728,8.975 1.692,8.872 1.516 C 8.628 1.101,8.150 0.915,7.695 1.057 M7.007 5.653 C 7.020 6.300,7.021 6.308,7.141 6.503 C 7.543 7.156,8.457 7.156,8.859 6.503 C 8.979 6.308,8.980 6.300,8.993 5.653 L 9.007 5.000 12.000 5.000 L 14.993 5.000 15.007 5.653 C 15.020 6.300,15.021 6.308,15.141 6.503 C 15.543 7.156,16.457 7.156,16.859 6.503 C 16.979 6.308,16.980 6.301,16.994 5.648 L 17.007 4.990 17.614 5.018 C 18.655 5.066,18.968 5.168,19.400 5.600 C 19.887 6.086,19.952 6.340,19.987 7.890 L 20.012 9.000 12.000 9.000 L 3.988 9.000 4.013 7.890 C 4.047 6.409,4.112 6.120,4.520 5.667 C 4.966 5.169,5.422 5.030,6.687 5.006 L 6.993 5.000 7.007 5.653 M20.580 15.597 C 20.473 15.647,19.779 16.314,18.480 17.616 C 17.413 18.685,16.522 19.560,16.500 19.560 C 16.477 19.560,16.153 19.253,15.780 18.877 C 15.406 18.502,15.028 18.156,14.940 18.108 C 14.717 17.988,14.284 17.988,14.060 18.108 C 13.606 18.349,13.403 18.852,13.559 19.344 C 13.632 19.570,15.811 21.766,16.100 21.904 C 16.364 22.030,16.636 22.030,16.900 21.904 C 17.183 21.768,21.797 17.149,21.917 16.880 C 22.130 16.407,21.878 15.785,21.391 15.582 C 21.185 15.496,20.779 15.503,20.580 15.597 " stroke="none" fill-rule="evenodd" fill="black"></path></svg>