<svg width="24" height="24" viewBox="0 0 24 24" fill="none" xmlns="http://www.w3.org/2000/svg"><path d="M7.695 1.057 C 7.466 1.129,7.256 1.299,7.128 1.516 C 7.025 1.692,7.019 1.728,7.007 2.345 L 6.993 2.991 6.367 3.018 C 5.290 3.065,4.711 3.181,4.160 3.460 C 3.083 4.005,2.355 4.970,2.124 6.160 C 2.013 6.729,2.000 7.455,2.000 13.000 C 2.000 19.358,2.006 19.526,2.245 20.320 C 2.577 21.422,3.578 22.423,4.680 22.755 C 5.426 22.980,5.824 23.000,9.480 23.000 L 12.700 22.999 12.900 22.905 C 13.281 22.724,13.488 22.405,13.488 22.000 C 13.488 21.615,13.293 21.297,12.940 21.106 C 12.780 21.020,12.771 21.020,9.280 20.998 C 5.540 20.974,5.514 20.973,5.080 20.769 C 4.812 20.644,4.376 20.216,4.248 19.952 C 4.025 19.493,4.028 19.564,4.011 15.110 L 3.995 11.000 11.997 11.000 L 20.000 11.000 20.000 11.350 C 20.001 11.635,20.018 11.737,20.095 11.900 C 20.276 12.281,20.595 12.488,21.000 12.488 C 21.405 12.488,21.724 12.281,21.905 11.900 L 21.999 11.700 22.000 9.480 C 22.000 6.881,21.968 6.387,21.755 5.680 C 21.531 4.934,20.971 4.189,20.287 3.725 C 19.573 3.241,18.954 3.076,17.633 3.018 L 17.007 2.991 16.993 2.345 C 16.981 1.726,16.976 1.693,16.871 1.514 C 16.479 0.848,15.521 0.848,15.129 1.514 C 15.024 1.693,15.019 1.726,15.007 2.350 L 14.993 3.000 12.000 3.000 L 9.007 3.000 8.993 2.350 C 8.981 1.728,8.975 1.692,8.872 1.516 C 8.628 1.101,8.150 0.915,7.695 1.057 M7.007 5.653 C 7.020 6.300,7.021 6.308,7.141 6.503 C 7.543 7.156,8.457 7.156,8.859 6.503 C 8.979 6.308,8.980 6.300,8.993 5.653 L 9.007 5.000 12.000 5.000 L 14.993 5.000 15.007 5.653 C 15.020 6.300,15.021 6.308,15.141 6.503 C 15.543 7.156,16.457 7.156,16.859 6.503 C 16.979 6.308,16.980 6.301,16.994 5.648 L 17.007 4.990 17.614 5.018 C 18.655 5.066,18.968 5.168,19.400 5.600 C 19.887 6.086,19.952 6.340,19.987 7.890 L 20.012 9.000 12.000 9.000 L 3.988 9.000 4.013 7.890 C 4.047 6.409,4.112 6.120,4.520 5.667 C 4.966 5.169,5.422 5.030,6.687 5.006 L 6.993 5.000 7.007 5.653 M15.344 14.066 C 14.531 14.240,13.701 14.885,13.321 15.638 C 13.032 16.211,12.929 16.962,13.056 17.559 C 13.125 17.883,13.321 18.329,13.526 18.630 C 13.807 19.042,14.904 20.097,16.280 21.279 C 17.008 21.905,17.216 22.021,17.558 21.990 C 17.865 21.962,17.981 21.896,18.518 21.445 C 19.768 20.393,20.927 19.305,21.332 18.800 C 22.038 17.921,22.195 16.759,21.742 15.775 C 21.570 15.403,21.453 15.235,21.151 14.928 C 20.216 13.975,18.916 13.744,17.709 14.317 C 17.525 14.405,17.465 14.417,17.409 14.381 C 17.234 14.265,16.802 14.114,16.491 14.060 C 16.070 13.986,15.706 13.988,15.344 14.066 M16.401 16.120 C 16.495 16.168,16.654 16.284,16.756 16.378 C 17.248 16.836,17.728 16.830,18.259 16.361 C 18.737 15.939,19.127 15.894,19.589 16.208 C 19.846 16.382,19.980 16.640,19.980 16.960 C 19.980 17.307,19.874 17.483,19.349 18.006 C 18.968 18.385,17.721 19.516,17.557 19.631 C 17.492 19.676,17.410 19.617,16.803 19.080 C 15.898 18.280,15.280 17.665,15.137 17.420 C 14.973 17.140,14.970 16.784,15.131 16.511 C 15.404 16.047,15.936 15.883,16.401 16.120 " stroke="none" fill-rule="evenodd" fill="black"></path></svg>