<svg width="24" height="24" viewBox="0 0 24 24" fill="none" xmlns="http://www.w3.org/2000/svg"><path d="M7.695 1.057 C 7.466 1.129,7.256 1.299,7.128 1.516 C 7.025 1.692,7.019 1.728,7.007 2.345 L 6.993 2.991 6.367 3.018 C 5.290 3.065,4.711 3.181,4.160 3.460 C 3.083 4.005,2.355 4.970,2.124 6.160 C 2.013 6.729,2.000 7.455,2.000 13.000 C 2.000 19.358,2.006 19.526,2.245 20.320 C 2.577 21.422,3.578 22.423,4.680 22.755 C 5.426 22.980,5.824 23.000,9.480 23.000 L 12.700 22.999 12.900 22.905 C 13.281 22.724,13.488 22.405,13.488 22.000 C 13.488 21.615,13.293 21.297,12.940 21.106 C 12.780 21.020,12.771 21.020,9.280 20.998 C 5.540 20.974,5.514 20.973,5.080 20.769 C 4.812 20.644,4.376 20.216,4.248 19.952 C 4.025 19.493,4.028 19.564,4.011 15.110 L 3.995 11.000 11.997 11.000 L 20.000 11.000 20.000 11.350 C 20.001 11.635,20.018 11.737,20.095 11.900 C 20.276 12.281,20.595 12.488,21.000 12.488 C 21.405 12.488,21.724 12.281,21.905 11.900 L 21.999 11.700 22.000 9.480 C 22.000 6.881,21.968 6.387,21.755 5.680 C 21.531 4.934,20.971 4.189,20.287 3.725 C 19.573 3.241,18.954 3.076,17.633 3.018 L 17.007 2.991 16.993 2.345 C 16.981 1.726,16.976 1.693,16.871 1.514 C 16.479 0.848,15.521 0.848,15.129 1.514 C 15.024 1.693,15.019 1.726,15.007 2.350 L 14.993 3.000 12.000 3.000 L 9.007 3.000 8.993 2.350 C 8.981 1.728,8.975 1.692,8.872 1.516 C 8.628 1.101,8.150 0.915,7.695 1.057 M7.007 5.653 C 7.020 6.300,7.021 6.308,7.141 6.503 C 7.543 7.156,8.457 7.156,8.859 6.503 C 8.979 6.308,8.980 6.300,8.993 5.653 L 9.007 5.000 12.000 5.000 L 14.993 5.000 15.007 5.653 C 15.020 6.300,15.021 6.308,15.141 6.503 C 15.543 7.156,16.457 7.156,16.859 6.503 C 16.979 6.308,16.980 6.301,16.994 5.648 L 17.007 4.990 17.614 5.018 C 18.655 5.066,18.968 5.168,19.400 5.600 C 19.887 6.086,19.952 6.340,19.987 7.890 L 20.012 9.000 12.000 9.000 L 3.988 9.000 4.013 7.890 C 4.047 6.409,4.112 6.120,4.520 5.667 C 4.966 5.169,5.422 5.030,6.687 5.006 L 6.993 5.000 7.007 5.653 M17.695 14.057 C 17.466 14.129,17.256 14.299,17.128 14.516 L 17.020 14.700 17.008 15.850 L 16.995 17.000 15.944 17.000 C 14.797 17.000,14.643 17.022,14.382 17.221 C 14.302 17.282,14.187 17.415,14.128 17.516 C 14.037 17.672,14.020 17.746,14.020 18.000 C 14.020 18.256,14.036 18.328,14.131 18.489 C 14.192 18.592,14.304 18.725,14.381 18.783 C 14.642 18.983,14.738 18.996,15.908 18.998 L 16.995 19.000 17.008 20.153 L 17.020 21.307 17.141 21.503 C 17.543 22.156,18.457 22.156,18.859 21.503 L 18.980 21.307 18.992 20.153 L 19.005 19.000 20.092 18.998 C 21.262 18.996,21.358 18.983,21.619 18.783 C 21.696 18.725,21.808 18.592,21.869 18.489 C 21.964 18.328,21.980 18.256,21.980 18.000 C 21.980 17.746,21.963 17.672,21.872 17.516 C 21.813 17.415,21.698 17.282,21.618 17.221 C 21.357 17.022,21.203 17.000,20.056 17.000 L 19.005 17.000 18.992 15.850 L 18.980 14.700 18.872 14.516 C 18.628 14.101,18.150 13.915,17.695 14.057 " stroke="none" fill-rule="evenodd" fill="black"></path></svg>