<svg width="24" height="24" viewBox="0 0 24 24" fill="none" xmlns="http://www.w3.org/2000/svg"><path d="M4.920 2.041 C 4.152 2.092,3.672 2.205,3.180 2.451 C 2.089 2.996,1.357 3.961,1.124 5.160 C 1.013 5.729,1.000 6.455,1.000 12.000 C 1.000 18.358,1.006 18.526,1.245 19.320 C 1.577 20.422,2.578 21.423,3.680 21.755 C 4.485 21.998,4.567 22.000,12.000 22.000 C 19.433 22.000,19.515 21.998,20.320 21.755 C 21.422 21.423,22.423 20.422,22.755 19.320 C 22.994 18.526,23.000 18.358,23.000 12.000 C 23.000 5.642,22.994 5.474,22.755 4.680 C 22.424 3.581,21.465 2.622,20.320 2.246 C 19.635 2.021,19.900 2.028,12.340 2.019 C 8.512 2.014,5.173 2.024,4.920 2.041 M19.492 4.091 C 19.894 4.188,20.110 4.309,20.400 4.600 C 20.696 4.895,20.814 5.109,20.912 5.528 C 20.975 5.797,20.980 6.313,20.980 12.000 C 20.980 17.687,20.975 18.203,20.912 18.472 C 20.814 18.891,20.696 19.104,20.400 19.401 C 20.101 19.701,19.820 19.851,19.418 19.928 C 19.009 20.005,4.991 20.005,4.582 19.927 C 4.170 19.850,3.898 19.704,3.600 19.403 C 3.303 19.104,3.186 18.890,3.088 18.472 C 3.025 18.203,3.020 17.687,3.020 12.000 C 3.020 6.313,3.025 5.797,3.088 5.528 C 3.175 5.155,3.294 4.918,3.520 4.667 C 3.883 4.262,4.282 4.090,4.980 4.039 C 5.200 4.023,8.494 4.013,12.300 4.017 C 18.585 4.024,19.245 4.031,19.492 4.091 M11.400 7.044 C 9.761 7.229,8.261 8.290,7.526 9.785 C 7.158 10.533,7.020 11.136,7.020 12.000 C 7.020 12.670,7.078 13.044,7.268 13.600 C 7.846 15.291,9.253 16.525,11.040 16.907 C 11.511 17.008,12.489 17.008,12.960 16.907 C 14.488 16.580,15.748 15.630,16.433 14.288 C 16.838 13.494,16.980 12.899,16.980 12.000 C 16.980 11.101,16.838 10.506,16.433 9.713 C 15.794 8.461,14.604 7.510,13.240 7.162 C 12.669 7.016,12.019 6.974,11.400 7.044 M12.861 9.129 C 13.804 9.405,14.584 10.183,14.875 11.139 C 14.958 11.412,14.973 11.542,14.973 12.000 C 14.973 12.458,14.958 12.588,14.875 12.861 C 14.582 13.822,13.819 14.581,12.840 14.886 C 12.406 15.021,11.594 15.021,11.160 14.886 C 10.181 14.581,9.418 13.822,9.125 12.861 C 9.042 12.588,9.027 12.458,9.027 12.000 C 9.027 11.542,9.042 11.412,9.125 11.139 C 9.456 10.054,10.371 9.245,11.499 9.040 C 11.832 8.980,12.500 9.023,12.861 9.129 " stroke="none" fill-rule="evenodd" fill="black"></path></svg>