<svg width="24" height="24" viewBox="0 0 24 24" fill="none" xmlns="http://www.w3.org/2000/svg"><path d="M11.052 1.041 C 8.937 1.246,7.045 1.974,5.363 3.230 C 5.084 3.438,4.636 3.839,4.238 4.238 C 3.277 5.198,2.707 5.987,2.141 7.140 C 1.667 8.104,1.362 9.022,1.180 10.038 C 0.757 12.388,1.084 14.711,2.141 16.860 C 2.707 18.013,3.277 18.802,4.238 19.762 C 5.198 20.723,5.987 21.293,7.140 21.859 C 9.890 23.211,12.967 23.366,15.867 22.299 C 16.376 22.112,17.362 21.626,17.820 21.338 C 19.169 20.488,20.488 19.169,21.338 17.820 C 21.626 17.362,22.112 16.376,22.299 15.867 C 23.231 13.335,23.231 10.665,22.299 8.133 C 22.112 7.624,21.626 6.638,21.338 6.180 C 20.598 5.006,19.481 3.827,18.336 3.011 C 16.973 2.040,15.296 1.373,13.580 1.120 C 12.938 1.025,11.634 0.984,11.052 1.041 M13.892 3.204 C 14.835 3.397,16.067 3.907,16.880 4.440 C 17.373 4.764,17.896 5.185,18.316 5.596 L 18.652 5.925 18.629 6.592 C 18.594 7.586,18.448 8.355,18.134 9.195 C 17.889 9.849,17.445 10.686,17.094 11.154 C 16.971 11.317,16.962 11.321,16.944 11.234 C 16.862 10.832,16.773 10.511,16.672 10.248 C 16.541 9.909,16.511 9.773,16.441 9.180 C 16.317 8.141,16.034 7.178,15.562 6.180 C 15.075 5.152,14.481 4.297,13.610 3.370 C 13.481 3.232,13.400 3.120,13.430 3.120 C 13.460 3.120,13.668 3.158,13.892 3.204 M10.356 3.386 C 11.572 4.060,12.623 5.080,13.361 6.301 C 13.591 6.682,13.900 7.313,13.871 7.343 C 13.860 7.354,13.754 7.327,13.635 7.284 C 13.331 7.172,12.983 7.089,12.680 7.057 C 12.537 7.042,12.352 6.995,12.270 6.954 C 11.968 6.802,11.129 6.484,10.720 6.367 C 9.018 5.878,7.258 5.844,5.466 6.264 C 5.227 6.320,5.025 6.358,5.017 6.350 C 5.008 6.342,5.150 6.170,5.331 5.968 C 6.227 4.970,7.376 4.164,8.622 3.660 C 9.081 3.474,9.826 3.244,9.976 3.242 C 10.040 3.241,10.211 3.306,10.356 3.386 M8.862 8.026 C 8.899 8.040,8.806 8.153,8.579 8.368 C 8.393 8.544,8.159 8.797,8.059 8.929 C 7.959 9.062,7.775 9.244,7.649 9.333 C 6.865 9.889,5.980 10.739,5.448 11.448 C 4.633 12.535,4.078 13.671,3.676 15.071 C 3.615 15.281,3.598 15.259,3.438 14.764 C 3.282 14.282,3.183 13.856,3.094 13.280 C 2.997 12.647,2.996 11.357,3.094 10.720 C 3.168 10.238,3.342 9.469,3.405 9.351 C 3.454 9.258,4.044 8.914,4.516 8.702 C 5.417 8.298,6.152 8.106,7.200 8.000 C 7.537 7.966,8.754 7.985,8.862 8.026 M20.581 9.292 C 20.865 10.189,20.976 10.942,20.977 11.980 C 20.978 12.936,20.881 13.694,20.658 14.461 C 20.598 14.669,20.573 14.699,20.348 14.845 C 19.461 15.418,18.231 15.836,16.992 15.984 C 16.479 16.046,15.221 16.042,15.118 15.979 C 15.097 15.966,15.233 15.810,15.419 15.634 C 15.606 15.457,15.840 15.205,15.938 15.074 C 16.044 14.933,16.244 14.745,16.428 14.613 C 16.926 14.256,17.307 13.923,17.800 13.415 C 18.980 12.198,19.814 10.723,20.302 8.993 L 20.377 8.725 20.428 8.844 C 20.455 8.910,20.524 9.111,20.581 9.292 M12.861 9.129 C 13.818 9.409,14.611 10.216,14.891 11.197 C 15.014 11.630,15.013 12.374,14.888 12.813 C 14.612 13.779,13.865 14.548,12.887 14.872 C 12.620 14.961,12.508 14.974,12.020 14.977 C 11.539 14.980,11.418 14.967,11.160 14.886 C 10.180 14.580,9.418 13.822,9.125 12.861 C 9.042 12.588,9.027 12.458,9.027 12.000 C 9.027 11.542,9.042 11.412,9.125 11.139 C 9.456 10.054,10.371 9.245,11.499 9.040 C 11.832 8.980,12.500 9.023,12.861 9.129 M7.140 13.140 C 7.179 13.316,7.270 13.614,7.344 13.803 C 7.438 14.041,7.491 14.262,7.519 14.523 C 7.756 16.797,8.693 18.819,10.304 20.535 C 10.677 20.933,10.681 20.929,10.032 20.782 C 9.363 20.630,8.673 20.383,8.020 20.062 C 7.122 19.619,6.447 19.143,5.723 18.441 L 5.348 18.077 5.371 17.408 C 5.406 16.416,5.551 15.651,5.865 14.805 C 6.049 14.311,6.476 13.479,6.779 13.025 C 7.046 12.625,7.028 12.620,7.140 13.140 M10.368 16.718 C 10.643 16.818,10.989 16.903,11.344 16.956 C 11.500 16.980,11.761 17.060,11.925 17.135 C 13.991 18.076,16.242 18.280,18.555 17.735 C 18.784 17.681,18.977 17.644,18.984 17.651 C 19.012 17.679,18.363 18.376,18.036 18.670 C 16.979 19.620,15.812 20.266,14.443 20.659 L 13.981 20.792 13.788 20.694 C 12.669 20.127,11.607 19.160,10.841 18.010 C 10.486 17.478,10.055 16.640,10.136 16.640 C 10.147 16.640,10.252 16.675,10.368 16.718 " stroke="none" fill-rule="evenodd" fill="black"></path></svg>