<svg width="24" height="24" viewBox="0 0 24 24" fill="none" xmlns="http://www.w3.org/2000/svg"><path d="M18.695 1.057 C 18.466 1.129,18.256 1.299,18.128 1.516 L 18.020 1.700 18.008 2.850 L 17.995 4.000 16.944 4.000 C 15.797 4.000,15.643 4.022,15.382 4.221 C 15.302 4.282,15.187 4.415,15.128 4.516 C 15.037 4.672,15.020 4.746,15.020 5.000 C 15.020 5.256,15.036 5.328,15.131 5.489 C 15.192 5.592,15.304 5.725,15.381 5.783 C 15.642 5.983,15.738 5.996,16.908 5.998 L 17.995 6.000 18.008 7.153 L 18.020 8.307 18.141 8.503 C 18.543 9.156,19.457 9.156,19.859 8.503 L 19.980 8.307 19.992 7.153 L 20.005 6.000 21.092 5.998 C 22.262 5.996,22.358 5.983,22.619 5.783 C 22.696 5.725,22.808 5.592,22.869 5.489 C 22.964 5.328,22.980 5.256,22.980 5.000 C 22.980 4.746,22.963 4.672,22.872 4.516 C 22.813 4.415,22.698 4.282,22.618 4.221 C 22.357 4.022,22.203 4.000,21.056 4.000 L 20.005 4.000 19.992 2.850 L 19.980 1.700 19.872 1.516 C 19.628 1.101,19.150 0.915,18.695 1.057 M6.120 2.040 C 5.497 2.071,5.317 2.091,4.820 2.187 C 3.943 2.357,3.102 2.823,2.436 3.508 C 1.507 4.465,1.144 5.375,1.038 7.015 C 0.991 7.751,0.991 16.249,1.038 16.985 C 1.144 18.622,1.507 19.536,2.430 20.486 C 3.370 21.453,4.344 21.854,6.015 21.962 C 6.751 22.009,17.249 22.009,17.985 21.962 C 19.622 21.856,20.536 21.493,21.486 20.570 C 22.251 19.826,22.678 19.010,22.858 17.945 C 22.972 17.275,22.998 16.512,22.999 13.860 L 22.999 11.300 22.905 11.100 C 22.722 10.714,22.419 10.520,22.000 10.520 C 21.581 10.520,21.278 10.714,21.095 11.100 L 21.001 11.300 20.999 13.660 C 20.997 17.476,20.951 17.936,20.499 18.642 C 20.185 19.134,19.681 19.553,19.173 19.744 C 18.533 19.985,18.679 19.980,12.060 19.980 C 5.578 19.980,5.559 19.979,4.920 19.777 C 4.384 19.607,3.838 19.170,3.499 18.640 C 3.020 17.891,3.002 17.643,3.002 12.000 C 3.002 6.354,3.020 6.110,3.501 5.358 C 3.714 5.024,4.024 4.714,4.358 4.501 C 5.081 4.039,5.474 4.003,9.820 4.001 L 12.700 3.999 12.900 3.905 C 13.281 3.724,13.488 3.405,13.488 3.000 C 13.488 2.615,13.293 2.297,12.940 2.106 C 12.780 2.020,12.776 2.020,9.740 2.016 C 8.068 2.014,6.439 2.025,6.120 2.040 M11.400 7.044 C 9.761 7.229,8.261 8.290,7.526 9.785 C 7.158 10.533,7.020 11.136,7.020 12.000 C 7.020 12.670,7.078 13.044,7.268 13.600 C 7.846 15.291,9.253 16.525,11.040 16.907 C 11.511 17.008,12.489 17.008,12.960 16.907 C 14.488 16.580,15.748 15.630,16.433 14.288 C 16.838 13.494,16.980 12.899,16.980 12.000 C 16.980 11.101,16.838 10.506,16.433 9.713 C 15.794 8.461,14.604 7.510,13.240 7.162 C 12.669 7.016,12.019 6.974,11.400 7.044 M12.861 9.129 C 13.804 9.405,14.584 10.183,14.875 11.139 C 14.958 11.412,14.973 11.542,14.973 12.000 C 14.973 12.458,14.958 12.588,14.875 12.861 C 14.588 13.803,13.845 14.555,12.887 14.872 C 12.620 14.961,12.508 14.974,12.020 14.977 C 11.539 14.980,11.418 14.967,11.160 14.886 C 10.180 14.580,9.418 13.822,9.125 12.861 C 9.042 12.588,9.027 12.458,9.027 12.000 C 9.027 11.542,9.042 11.412,9.125 11.139 C 9.456 10.054,10.371 9.245,11.499 9.040 C 11.832 8.980,12.500 9.023,12.861 9.129 " stroke="none" fill-rule="evenodd" fill="black"></path></svg>