<svg width="24" height="24" viewBox="0 0 24 24" fill="none" xmlns="http://www.w3.org/2000/svg"><path d="M1.670 1.061 C 1.448 1.142,1.250 1.309,1.128 1.516 C 1.037 1.672,1.020 1.746,1.020 2.000 C 1.020 2.254,1.036 2.327,1.127 2.480 C 1.264 2.709,21.367 22.805,21.560 22.905 C 21.659 22.957,21.788 22.979,22.000 22.979 C 22.258 22.980,22.327 22.964,22.492 22.867 C 22.842 22.662,23.029 22.295,22.988 21.895 C 22.957 21.597,22.875 21.467,22.432 21.015 L 22.034 20.609 22.197 20.395 C 22.571 19.904,22.876 19.150,22.960 18.515 C 22.990 18.282,23.000 16.534,22.990 12.760 L 22.977 7.340 22.890 7.031 C 22.675 6.268,22.353 5.710,21.821 5.179 C 21.287 4.645,20.717 4.317,20.000 4.132 C 19.698 4.054,19.468 4.028,18.878 4.006 C 18.167 3.978,18.128 3.972,17.949 3.868 C 17.706 3.725,17.589 3.566,17.458 3.200 C 17.345 2.886,17.140 2.462,17.005 2.263 C 16.961 2.199,16.823 2.042,16.696 1.913 C 16.315 1.524,15.825 1.237,15.300 1.096 C 15.037 1.025,14.835 1.020,12.000 1.020 C 9.165 1.020,8.963 1.025,8.700 1.096 C 8.175 1.237,7.685 1.524,7.304 1.913 C 7.177 2.042,7.039 2.199,6.995 2.263 C 6.860 2.462,6.655 2.886,6.542 3.200 C 6.483 3.364,6.390 3.558,6.336 3.629 C 6.192 3.818,5.921 3.962,5.659 3.989 L 5.435 4.012 3.988 2.572 C 2.702 1.293,2.518 1.124,2.343 1.066 C 2.108 0.987,1.875 0.986,1.670 1.061 M14.870 3.061 C 15.182 3.153,15.396 3.385,15.535 3.780 C 15.857 4.691,16.378 5.322,17.109 5.681 C 17.571 5.909,17.831 5.962,18.660 5.999 C 19.511 6.036,19.712 6.084,20.100 6.342 C 20.521 6.621,20.797 7.014,20.923 7.513 C 21.000 7.816,21.001 7.965,20.991 13.122 L 20.980 18.420 20.863 18.707 C 20.798 18.864,20.713 19.035,20.674 19.087 L 20.603 19.180 18.486 17.065 L 16.370 14.950 16.548 14.574 C 17.258 13.075,17.112 11.177,16.178 9.761 C 15.415 8.604,14.194 7.810,12.822 7.577 C 12.247 7.479,11.287 7.516,10.760 7.655 C 10.372 7.757,9.896 7.939,9.679 8.067 L 9.559 8.138 8.299 6.879 C 7.176 5.756,7.047 5.615,7.110 5.571 C 7.820 5.074,8.173 4.606,8.465 3.780 C 8.602 3.390,8.813 3.155,9.107 3.065 C 9.399 2.975,14.569 2.971,14.870 3.061 M1.600 6.584 C 1.399 6.671,1.205 6.869,1.095 7.100 L 1.001 7.300 1.000 12.520 C 1.000 18.320,1.008 18.533,1.245 19.320 C 1.577 20.422,2.578 21.423,3.680 21.755 C 4.467 21.992,4.680 22.000,10.480 22.000 L 15.700 21.999 15.900 21.905 C 16.281 21.724,16.488 21.405,16.488 21.000 C 16.488 20.615,16.293 20.297,15.940 20.106 L 15.780 20.020 10.260 19.997 C 4.364 19.972,4.523 19.977,4.080 19.769 C 3.812 19.643,3.376 19.216,3.248 18.952 C 3.019 18.482,3.028 18.698,3.003 12.720 L 2.980 7.220 2.894 7.060 C 2.782 6.853,2.579 6.660,2.391 6.582 C 2.203 6.503,1.783 6.504,1.600 6.584 M12.677 9.579 C 13.547 9.762,14.322 10.396,14.723 11.254 C 14.895 11.621,14.958 11.878,14.984 12.320 C 15.005 12.673,14.930 13.323,14.861 13.392 C 14.848 13.406,13.992 12.572,12.960 11.540 C 11.928 10.508,11.091 9.656,11.100 9.646 C 11.110 9.637,11.213 9.606,11.329 9.578 C 11.621 9.507,12.337 9.508,12.677 9.579 M7.600 11.584 C 7.232 11.743,7.001 12.130,7.000 12.590 C 7.000 13.209,7.227 14.139,7.522 14.723 C 8.349 16.362,10.062 17.461,11.827 17.486 C 12.410 17.494,12.697 17.338,12.905 16.900 C 13.082 16.525,12.989 16.070,12.675 15.772 C 12.485 15.592,12.314 15.532,11.900 15.501 C 11.432 15.465,11.102 15.389,10.783 15.244 C 10.112 14.940,9.594 14.424,9.282 13.749 C 9.098 13.351,9.046 13.140,9.005 12.618 C 8.970 12.175,8.895 11.984,8.674 11.772 C 8.600 11.702,8.473 11.616,8.391 11.582 C 8.203 11.503,7.783 11.504,7.600 11.584 " stroke="none" fill-rule="evenodd" fill="black"></path></svg>