<svg width="24" height="24" viewBox="0 0 24 24" fill="none" xmlns="http://www.w3.org/2000/svg"><path d="M9.080 1.025 C 8.349 1.142,7.781 1.426,7.304 1.913 C 7.177 2.042,7.039 2.199,6.995 2.263 C 6.860 2.462,6.655 2.886,6.542 3.200 C 6.411 3.566,6.294 3.725,6.051 3.868 C 5.872 3.972,5.833 3.978,5.122 4.006 C 4.523 4.029,4.304 4.054,3.985 4.136 C 2.582 4.498,1.523 5.564,1.110 7.031 C 1.023 7.340,1.023 7.344,1.009 12.480 C 0.993 18.284,1.001 18.507,1.245 19.320 C 1.575 20.421,2.578 21.423,3.680 21.755 C 4.485 21.998,4.567 22.000,12.000 22.000 C 19.433 22.000,19.515 21.998,20.320 21.755 C 21.422 21.423,22.425 20.421,22.755 19.320 C 22.999 18.507,23.007 18.284,22.991 12.480 C 22.977 7.344,22.977 7.340,22.890 7.031 C 22.675 6.268,22.353 5.710,21.821 5.179 C 21.287 4.645,20.717 4.317,20.000 4.132 C 19.698 4.054,19.468 4.028,18.878 4.006 C 18.167 3.978,18.128 3.972,17.949 3.868 C 17.706 3.725,17.589 3.566,17.458 3.200 C 17.345 2.886,17.140 2.462,17.005 2.263 C 16.761 1.904,16.196 1.451,15.740 1.249 C 15.217 1.017,15.312 1.023,12.120 1.016 C 10.503 1.012,9.135 1.016,9.080 1.025 M14.870 3.061 C 15.182 3.153,15.396 3.385,15.535 3.780 C 15.857 4.691,16.378 5.322,17.109 5.681 C 17.571 5.909,17.831 5.962,18.660 5.999 C 19.511 6.036,19.712 6.084,20.100 6.342 C 20.522 6.622,20.797 7.014,20.924 7.518 C 21.003 7.828,21.004 7.939,20.989 13.027 C 20.973 18.674,20.981 18.482,20.752 18.952 C 20.626 19.211,20.190 19.638,19.918 19.768 C 19.463 19.987,19.707 19.980,12.000 19.980 C 4.304 19.980,4.541 19.986,4.082 19.771 C 3.812 19.643,3.377 19.217,3.248 18.952 C 3.198 18.849,3.126 18.633,3.089 18.472 C 3.026 18.205,3.020 17.729,3.020 12.880 L 3.020 7.580 3.106 7.356 C 3.271 6.924,3.541 6.580,3.903 6.340 C 4.287 6.085,4.491 6.036,5.340 5.999 C 6.169 5.962,6.429 5.909,6.891 5.681 C 7.622 5.322,8.143 4.691,8.465 3.780 C 8.602 3.390,8.813 3.155,9.107 3.065 C 9.399 2.975,14.569 2.971,14.870 3.061 M11.100 7.586 C 9.789 7.823,8.565 8.635,7.822 9.761 C 7.150 10.780,6.870 12.071,7.061 13.262 C 7.599 16.603,11.169 18.457,14.213 16.977 C 15.037 16.576,15.807 15.864,16.294 15.053 C 17.267 13.432,17.221 11.343,16.178 9.761 C 15.424 8.618,14.200 7.815,12.860 7.583 C 12.414 7.505,11.539 7.507,11.100 7.586 M12.677 9.579 C 13.730 9.801,14.655 10.714,14.925 11.800 C 14.996 12.086,14.996 12.914,14.925 13.200 C 14.657 14.278,13.754 15.176,12.689 15.424 C 12.340 15.506,11.660 15.506,11.311 15.424 C 10.425 15.218,9.674 14.598,9.282 13.749 C 9.070 13.291,9.021 13.056,9.021 12.500 C 9.021 11.944,9.070 11.709,9.282 11.251 C 9.671 10.409,10.443 9.769,11.293 9.582 C 11.630 9.508,12.332 9.507,12.677 9.579 " stroke="none" fill-rule="evenodd" fill="black"></path></svg>