<svg width="24" height="24" viewBox="0 0 24 24" fill="none" xmlns="http://www.w3.org/2000/svg"><path d="M8.080 1.025 C 7.355 1.140,6.781 1.427,6.307 1.910 C 6.183 2.036,6.033 2.210,5.975 2.295 C 5.837 2.500,5.587 3.040,5.496 3.332 C 5.405 3.624,5.211 3.855,4.990 3.934 C 4.896 3.967,4.667 4.005,4.480 4.017 C 3.502 4.083,2.629 4.502,1.958 5.230 C 1.522 5.703,1.212 6.316,1.077 6.972 C 1.005 7.322,1.001 7.588,1.001 12.540 C 1.000 18.318,1.008 18.533,1.245 19.320 C 1.577 20.422,2.578 21.423,3.680 21.755 C 4.485 21.998,4.567 22.000,12.000 22.000 C 19.433 22.000,19.515 21.998,20.320 21.755 C 21.422 21.423,22.425 20.421,22.755 19.320 C 22.999 18.507,23.006 18.293,22.992 12.360 L 22.979 7.100 22.891 6.789 C 22.842 6.617,22.730 6.323,22.642 6.135 C 22.067 4.907,20.890 4.109,19.520 4.017 C 19.333 4.005,19.104 3.967,19.010 3.934 C 18.789 3.855,18.595 3.624,18.504 3.332 C 18.413 3.040,18.163 2.500,18.025 2.295 C 17.756 1.900,17.216 1.460,16.740 1.249 C 16.205 1.012,16.417 1.022,12.120 1.016 C 9.953 1.012,8.135 1.017,8.080 1.025 M15.870 3.061 C 16.200 3.159,16.396 3.381,16.555 3.840 C 16.821 4.607,17.114 5.047,17.605 5.419 C 18.057 5.761,18.718 6.000,19.211 6.000 C 20.097 6.000,20.816 6.578,20.960 7.405 C 20.992 7.586,21.000 9.191,20.989 12.940 C 20.973 18.683,20.981 18.482,20.752 18.952 C 20.626 19.211,20.190 19.638,19.918 19.768 C 19.463 19.987,19.707 19.980,12.000 19.980 C 4.304 19.980,4.541 19.986,4.082 19.771 C 3.812 19.643,3.377 19.217,3.248 18.952 C 3.019 18.482,3.027 18.683,3.011 12.940 C 3.000 9.191,3.008 7.586,3.040 7.405 C 3.126 6.907,3.470 6.430,3.900 6.211 C 4.175 6.070,4.276 6.046,4.778 5.998 C 5.344 5.945,5.511 5.903,5.903 5.714 C 6.667 5.346,7.105 4.814,7.444 3.841 C 7.603 3.387,7.796 3.161,8.107 3.065 C 8.401 2.975,15.567 2.971,15.870 3.061 M11.081 6.583 C 9.032 6.957,7.417 8.353,6.778 10.304 C 6.422 11.391,6.422 12.609,6.778 13.696 C 7.327 15.374,8.626 16.673,10.304 17.222 C 11.391 17.578,12.609 17.578,13.696 17.222 C 15.374 16.673,16.673 15.374,17.222 13.696 C 17.861 11.747,17.338 9.568,15.884 8.120 C 15.053 7.294,14.069 6.788,12.890 6.582 C 12.459 6.506,11.499 6.507,11.081 6.583 M12.752 8.583 C 13.393 8.713,13.945 9.022,14.462 9.538 C 15.172 10.248,15.480 10.993,15.480 12.000 C 15.480 12.979,15.186 13.712,14.504 14.431 C 13.840 15.131,12.995 15.487,12.000 15.487 C 10.994 15.487,10.153 15.129,9.479 14.414 C 8.813 13.707,8.520 12.970,8.520 12.000 C 8.520 10.993,8.828 10.248,9.538 9.538 C 10.045 9.032,10.601 8.717,11.220 8.586 C 11.598 8.506,12.366 8.504,12.752 8.583 " stroke="none" fill-rule="evenodd" fill="black"></path></svg>