<svg width="24" height="24" viewBox="0 0 24 24" fill="none" xmlns="http://www.w3.org/2000/svg"><path d="M6.749 2.045 C 5.771 2.139,5.037 2.557,4.527 3.310 C 4.319 3.616,4.219 3.844,4.111 4.260 C 4.034 4.554,4.026 4.719,4.010 6.290 L 3.993 8.000 3.502 8.000 L 3.010 8.000 2.983 7.830 C 2.922 7.448,2.608 7.123,2.214 7.035 C 1.792 6.941,1.352 7.134,1.129 7.514 C 1.023 7.695,1.020 7.720,1.007 8.404 C 0.992 9.183,1.018 9.342,1.198 9.591 C 1.385 9.849,1.630 9.970,2.006 9.992 L 2.322 10.010 2.110 10.235 C 1.586 10.791,1.282 11.379,1.126 12.142 C 1.016 12.677,0.995 13.452,1.009 16.420 C 1.022 19.412,1.024 19.465,1.111 19.780 C 1.406 20.846,2.152 21.589,3.228 21.889 C 3.522 21.971,3.626 21.976,5.020 21.978 C 6.686 21.980,6.740 21.973,7.340 21.678 C 8.257 21.226,8.891 20.295,8.988 19.258 L 9.012 19.000 12.000 19.000 L 14.988 19.000 15.012 19.258 C 15.109 20.295,15.743 21.226,16.660 21.678 C 17.260 21.973,17.314 21.980,18.980 21.978 C 20.381 21.976,20.477 21.972,20.778 21.888 C 21.849 21.590,22.587 20.850,22.890 19.772 C 22.976 19.466,22.978 19.404,22.991 16.420 C 23.005 13.452,22.984 12.677,22.874 12.142 C 22.718 11.379,22.414 10.791,21.890 10.235 L 21.678 10.010 21.994 9.992 C 22.370 9.970,22.615 9.849,22.802 9.591 C 22.982 9.342,23.008 9.183,22.993 8.404 C 22.980 7.720,22.977 7.695,22.871 7.514 C 22.648 7.134,22.208 6.941,21.786 7.035 C 21.392 7.123,21.078 7.448,21.017 7.830 L 20.990 8.000 20.499 8.000 L 20.007 8.000 19.990 6.290 C 19.973 4.724,19.965 4.553,19.889 4.260 C 19.781 3.845,19.681 3.617,19.473 3.310 C 19.184 2.882,18.811 2.560,18.329 2.321 C 18.019 2.168,17.706 2.091,17.180 2.042 C 16.648 1.991,7.274 1.994,6.749 2.045 M17.374 4.074 C 17.573 4.141,17.860 4.429,17.924 4.626 C 17.960 4.738,17.978 5.358,17.990 6.890 L 18.006 9.000 12.003 9.000 L 6.000 9.000 6.000 7.130 C 6.001 5.041,6.026 4.666,6.179 4.434 C 6.333 4.202,6.547 4.080,6.866 4.042 C 7.017 4.024,9.408 4.012,12.180 4.016 C 16.174 4.021,17.252 4.034,17.374 4.074 M19.492 11.091 C 19.894 11.188,20.110 11.309,20.400 11.600 C 20.697 11.896,20.814 12.110,20.911 12.528 C 20.971 12.789,20.979 13.161,20.979 16.040 L 20.980 19.260 20.881 19.454 C 20.771 19.668,20.613 19.820,20.400 19.914 C 20.219 19.995,17.998 20.035,17.730 19.963 C 17.492 19.899,17.241 19.691,17.122 19.461 C 17.031 19.284,17.018 19.200,16.998 18.701 C 16.978 18.197,16.965 18.115,16.863 17.891 C 16.725 17.586,16.414 17.280,16.090 17.128 L 15.860 17.020 12.000 17.020 L 8.140 17.020 7.910 17.128 C 7.586 17.280,7.275 17.586,7.137 17.891 C 7.035 18.115,7.022 18.197,7.002 18.701 C 6.982 19.200,6.969 19.284,6.878 19.461 C 6.759 19.691,6.508 19.899,6.270 19.963 C 6.002 20.035,3.781 19.995,3.600 19.914 C 3.385 19.819,3.216 19.657,3.113 19.449 L 3.020 19.260 3.021 16.040 C 3.021 13.161,3.029 12.789,3.089 12.528 C 3.175 12.156,3.294 11.919,3.520 11.667 C 3.883 11.262,4.282 11.090,4.980 11.039 C 5.200 11.023,8.494 11.013,12.300 11.017 C 18.585 11.024,19.245 11.031,19.492 11.091 M5.637 12.055 C 4.808 12.233,4.294 13.202,4.599 14.010 C 4.759 14.435,5.144 14.812,5.538 14.930 C 5.747 14.992,6.253 14.992,6.462 14.930 C 6.855 14.812,7.242 14.434,7.399 14.013 C 7.707 13.190,7.190 12.230,6.344 12.053 C 6.051 11.991,5.930 11.992,5.637 12.055 M17.637 12.055 C 16.808 12.233,16.294 13.202,16.599 14.010 C 16.759 14.435,17.144 14.812,17.538 14.930 C 17.747 14.992,18.253 14.992,18.462 14.930 C 18.855 14.812,19.242 14.434,19.399 14.013 C 19.707 13.190,19.190 12.230,18.344 12.053 C 18.051 11.991,17.930 11.992,17.637 12.055 " stroke="none" fill-rule="evenodd" fill="black"></path></svg>