<svg width="24" height="24" viewBox="0 0 24 24" fill="none" xmlns="http://www.w3.org/2000/svg"><path d="M7.072 3.041 C 6.383 3.123,5.855 3.384,5.335 3.899 C 5.020 4.210,4.945 4.312,4.787 4.640 C 4.687 4.849,4.340 5.812,4.016 6.780 C 3.692 7.748,3.420 8.548,3.413 8.557 C 3.405 8.567,3.151 8.454,2.849 8.306 C 2.212 7.995,2.006 7.952,1.679 8.060 C 1.162 8.232,0.883 8.803,1.061 9.325 C 1.159 9.613,1.322 9.772,1.729 9.981 C 1.933 10.086,2.106 10.176,2.113 10.182 C 2.120 10.188,2.033 10.307,1.920 10.446 C 1.582 10.863,1.384 11.228,1.240 11.700 C 1.020 12.424,0.992 12.937,1.009 15.960 C 1.023 18.447,1.027 18.549,1.108 18.800 C 1.291 19.370,1.510 19.739,1.885 20.115 C 2.276 20.506,2.701 20.750,3.260 20.903 C 3.502 20.969,3.677 20.980,4.540 20.980 C 5.477 20.980,5.559 20.974,5.840 20.886 C 6.840 20.574,7.635 19.765,7.899 18.789 L 7.972 18.520 12.000 18.520 L 16.028 18.520 16.101 18.789 C 16.365 19.765,17.160 20.574,18.160 20.886 C 18.441 20.974,18.523 20.980,19.460 20.980 C 20.323 20.980,20.498 20.969,20.740 20.903 C 21.299 20.750,21.724 20.506,22.115 20.115 C 22.490 19.739,22.709 19.370,22.892 18.800 C 22.973 18.549,22.977 18.447,22.991 15.960 C 23.008 12.937,22.980 12.424,22.760 11.700 C 22.616 11.228,22.418 10.863,22.080 10.446 C 21.967 10.307,21.880 10.188,21.887 10.182 C 21.894 10.176,22.067 10.086,22.271 9.981 C 22.678 9.772,22.841 9.613,22.939 9.325 C 23.117 8.803,22.838 8.232,22.321 8.060 C 21.994 7.952,21.788 7.995,21.151 8.306 C 20.849 8.454,20.595 8.567,20.587 8.557 C 20.580 8.548,20.308 7.748,19.984 6.780 C 19.660 5.812,19.313 4.849,19.213 4.640 C 19.055 4.312,18.980 4.210,18.665 3.899 C 18.252 3.490,17.862 3.259,17.331 3.110 L 17.020 3.022 12.180 3.015 C 9.518 3.012,7.220 3.023,7.072 3.041 M16.980 5.106 C 17.215 5.232,17.351 5.374,17.445 5.589 C 17.512 5.742,18.600 8.945,18.600 8.988 C 18.600 8.995,15.630 9.000,12.000 9.000 C 8.370 9.000,5.400 8.995,5.400 8.988 C 5.400 8.915,6.507 5.695,6.589 5.528 C 6.730 5.245,6.984 5.072,7.317 5.035 C 7.440 5.021,9.628 5.012,12.180 5.015 L 16.820 5.020 16.980 5.106 M19.492 11.091 C 19.642 11.127,19.849 11.198,19.952 11.248 C 20.194 11.366,20.634 11.806,20.752 12.048 C 20.962 12.478,20.969 12.582,20.989 15.400 C 21.003 17.298,20.995 18.077,20.962 18.227 C 20.902 18.495,20.732 18.726,20.492 18.867 L 20.300 18.980 19.500 18.980 C 18.703 18.980,18.699 18.980,18.516 18.872 C 18.324 18.759,18.151 18.563,18.076 18.373 C 18.051 18.311,18.017 18.125,17.999 17.960 C 17.981 17.795,17.940 17.583,17.907 17.488 C 17.774 17.103,17.424 16.755,17.017 16.602 C 16.795 16.519,16.775 16.519,11.947 16.530 L 7.100 16.540 6.871 16.648 C 6.610 16.770,6.286 17.073,6.167 17.307 C 6.123 17.393,6.066 17.580,6.041 17.722 C 6.016 17.864,5.979 18.079,5.958 18.200 C 5.911 18.474,5.752 18.701,5.498 18.860 L 5.306 18.980 4.503 18.980 L 3.700 18.980 3.508 18.867 C 3.268 18.726,3.098 18.495,3.038 18.227 C 3.005 18.077,2.997 17.298,3.011 15.400 C 3.031 12.581,3.039 12.472,3.248 12.051 C 3.371 11.805,3.654 11.496,3.903 11.336 C 4.173 11.163,4.494 11.075,4.980 11.039 C 5.200 11.023,8.494 11.013,12.300 11.017 C 18.585 11.024,19.245 11.031,19.492 11.091 M4.695 12.057 C 4.466 12.129,4.256 12.299,4.128 12.516 C 4.037 12.672,4.020 12.746,4.020 13.000 C 4.020 13.256,4.036 13.328,4.131 13.489 C 4.256 13.702,4.449 13.864,4.670 13.943 C 4.888 14.021,8.112 14.021,8.330 13.943 C 8.551 13.864,8.744 13.702,8.869 13.489 C 8.964 13.328,8.980 13.256,8.980 13.000 C 8.980 12.746,8.963 12.672,8.872 12.516 C 8.740 12.293,8.533 12.128,8.290 12.055 C 8.035 11.978,4.941 11.980,4.695 12.057 M15.695 12.057 C 15.466 12.129,15.256 12.299,15.128 12.516 C 15.037 12.672,15.020 12.746,15.020 13.000 C 15.020 13.256,15.036 13.328,15.131 13.489 C 15.256 13.702,15.449 13.864,15.670 13.943 C 15.888 14.021,19.112 14.021,19.330 13.943 C 19.551 13.864,19.744 13.702,19.869 13.489 C 19.964 13.328,19.980 13.256,19.980 13.000 C 19.980 12.746,19.963 12.672,19.872 12.516 C 19.740 12.293,19.533 12.128,19.290 12.055 C 19.035 11.978,15.941 11.980,15.695 12.057 " stroke="none" fill-rule="evenodd" fill="black"></path></svg>