<svg width="24" height="24" viewBox="0 0 24 24" fill="none" xmlns="http://www.w3.org/2000/svg"><path d="M4.499 1.043 C 3.380 1.232,2.461 2.048,2.114 3.160 L 2.020 3.460 2.020 11.000 L 2.020 18.540 2.114 18.840 C 2.419 19.818,3.164 20.568,4.140 20.882 C 4.387 20.962,4.526 20.974,5.320 20.990 L 6.220 21.007 7.260 22.038 C 8.208 22.978,8.319 23.076,8.515 23.140 C 8.760 23.220,9.036 23.204,9.248 23.098 C 9.321 23.062,9.969 22.445,10.689 21.727 L 11.998 20.422 13.329 21.746 C 14.558 22.967,14.677 23.074,14.875 23.139 C 15.120 23.220,15.396 23.204,15.608 23.098 C 15.681 23.062,16.199 22.576,16.760 22.019 L 17.780 21.006 18.680 20.989 C 19.475 20.974,19.613 20.962,19.860 20.882 C 20.836 20.568,21.581 19.818,21.886 18.840 L 21.980 18.540 21.980 11.000 L 21.980 3.460 21.886 3.160 C 21.581 2.182,20.832 1.428,19.861 1.121 L 19.540 1.020 12.120 1.014 C 8.039 1.011,4.609 1.024,4.499 1.043 M19.310 3.061 C 19.589 3.144,19.856 3.411,19.939 3.690 C 19.993 3.870,20.000 4.755,20.000 11.001 C 20.000 16.907,19.991 18.138,19.945 18.290 C 19.835 18.656,19.517 18.935,19.150 18.985 C 18.978 19.008,18.963 19.003,18.906 18.895 C 18.873 18.832,18.205 18.141,17.423 17.360 C 16.045 15.985,16.000 15.936,16.000 15.786 C 16.000 15.525,15.848 14.869,15.705 14.516 C 15.172 13.197,14.001 12.269,12.605 12.058 C 12.121 11.986,11.879 11.986,11.395 12.058 C 10.002 12.269,8.833 13.195,8.289 14.521 C 8.158 14.840,8.000 15.530,8.000 15.785 C 8.000 15.931,7.947 15.990,6.565 17.378 C 5.776 18.171,5.117 18.863,5.101 18.915 C 5.074 19.003,5.057 19.008,4.872 18.986 C 4.628 18.958,4.369 18.812,4.225 18.623 C 3.986 18.309,4.000 18.795,4.000 11.022 C 4.000 4.758,4.007 3.870,4.061 3.690 C 4.140 3.421,4.412 3.143,4.673 3.063 C 4.964 2.974,19.009 2.971,19.310 3.061 M8.695 5.057 C 8.466 5.129,8.256 5.299,8.128 5.516 C 8.037 5.672,8.020 5.746,8.020 6.000 C 8.020 6.256,8.036 6.328,8.131 6.489 C 8.256 6.702,8.449 6.864,8.670 6.943 C 8.891 7.022,15.109 7.022,15.330 6.943 C 15.551 6.864,15.744 6.702,15.869 6.489 C 15.964 6.328,15.980 6.256,15.980 6.000 C 15.980 5.746,15.963 5.672,15.872 5.516 C 15.740 5.293,15.533 5.128,15.290 5.055 C 15.030 4.977,8.945 4.979,8.695 5.057 M6.600 8.584 C 6.267 8.728,6.001 9.135,6.001 9.500 C 6.001 9.886,6.304 10.318,6.665 10.445 C 6.896 10.527,17.104 10.527,17.335 10.445 C 17.696 10.318,17.999 9.886,17.999 9.500 C 17.999 9.255,17.864 8.951,17.675 8.772 C 17.391 8.502,17.788 8.520,11.991 8.522 C 7.393 8.523,6.723 8.531,6.600 8.584 M12.523 14.073 C 13.262 14.266,13.850 14.924,13.967 15.690 C 14.067 16.343,13.873 16.933,13.403 17.404 C 13.002 17.807,12.547 18.000,12.000 18.000 C 11.485 18.000,11.038 17.822,10.653 17.465 C 9.323 16.229,10.189 14.005,12.000 14.005 C 12.143 14.005,12.378 14.036,12.523 14.073 M8.989 18.625 C 9.214 18.890,9.688 19.290,9.931 19.419 C 10.013 19.463,10.080 19.508,10.080 19.520 C 10.080 19.531,9.801 19.820,9.460 20.160 L 8.840 20.779 8.130 20.070 L 7.421 19.360 8.020 18.760 L 8.620 18.159 8.700 18.269 C 8.744 18.329,8.874 18.490,8.989 18.625 M16.020 18.760 L 16.619 19.360 15.910 20.070 L 15.200 20.779 14.580 20.160 C 14.239 19.820,13.960 19.529,13.960 19.514 C 13.960 19.499,14.048 19.433,14.155 19.367 C 14.469 19.174,14.882 18.797,15.140 18.467 C 15.272 18.299,15.389 18.161,15.401 18.160 C 15.412 18.160,15.691 18.430,16.020 18.760 " stroke="none" fill-rule="evenodd" fill="black"></path></svg>