<svg width="24" height="24" viewBox="0 0 24 24" fill="none" xmlns="http://www.w3.org/2000/svg"><path d="M4.620 1.028 C 4.332 1.069,3.998 1.178,3.720 1.323 C 2.795 1.804,2.189 2.667,2.040 3.711 C 2.009 3.930,2.000 6.413,2.008 12.200 C 2.020 19.911,2.024 20.394,2.092 20.618 C 2.291 21.283,2.507 21.659,2.940 22.100 C 3.303 22.469,3.667 22.702,4.140 22.868 L 4.460 22.980 12.000 22.980 L 19.540 22.980 19.855 22.869 C 20.335 22.699,20.700 22.466,21.060 22.100 C 21.493 21.659,21.709 21.283,21.908 20.618 C 21.976 20.394,21.980 19.911,21.992 12.200 C 22.000 6.413,21.991 3.930,21.960 3.711 C 21.811 2.667,21.204 1.804,20.280 1.323 C 19.647 0.994,20.410 1.023,12.120 1.017 C 8.061 1.014,4.686 1.019,4.620 1.028 M19.245 3.041 C 19.456 3.099,19.738 3.367,19.868 3.631 L 19.980 3.860 19.980 12.000 L 19.980 20.140 19.895 20.325 C 19.780 20.572,19.553 20.817,19.345 20.918 C 19.175 21.000,19.161 21.000,12.000 21.000 C 4.839 21.000,4.825 21.000,4.655 20.918 C 4.447 20.817,4.220 20.572,4.105 20.325 L 4.020 20.140 4.020 12.000 L 4.020 3.860 4.132 3.631 C 4.257 3.378,4.543 3.099,4.736 3.043 C 4.914 2.992,19.059 2.989,19.245 3.041 M9.747 4.583 C 9.272 4.698,8.738 5.025,8.320 5.455 C 7.770 6.023,7.511 6.675,7.509 7.500 C 7.507 8.158,7.705 8.717,8.139 9.277 C 8.601 9.877,11.201 12.232,11.595 12.409 C 11.833 12.516,12.185 12.514,12.409 12.404 C 12.917 12.155,15.658 9.618,16.020 9.061 C 16.346 8.562,16.495 8.054,16.490 7.460 C 16.483 6.686,16.234 6.053,15.724 5.511 C 15.083 4.829,14.405 4.520,13.551 4.520 C 13.077 4.520,12.683 4.602,12.289 4.782 L 11.999 4.915 11.749 4.799 C 11.181 4.532,10.333 4.441,9.747 4.583 M10.863 6.596 C 10.952 6.636,11.138 6.770,11.277 6.894 C 11.541 7.130,11.705 7.199,11.995 7.200 C 12.280 7.200,12.471 7.119,12.731 6.887 C 13.037 6.614,13.236 6.522,13.522 6.521 C 13.908 6.519,14.274 6.765,14.432 7.132 C 14.497 7.284,14.493 7.641,14.423 7.805 C 14.341 7.997,14.011 8.370,13.491 8.855 C 12.839 9.463,12.044 10.160,12.000 10.160 C 11.915 10.160,10.152 8.560,9.857 8.215 C 9.588 7.899,9.520 7.747,9.520 7.460 C 9.520 6.948,9.949 6.519,10.458 6.521 C 10.606 6.521,10.763 6.550,10.863 6.596 M6.695 14.057 C 6.466 14.129,6.256 14.299,6.128 14.516 C 6.037 14.672,6.020 14.746,6.020 15.000 C 6.020 15.256,6.036 15.328,6.131 15.489 C 6.256 15.702,6.449 15.864,6.670 15.943 C 6.892 16.022,17.108 16.022,17.330 15.943 C 17.551 15.864,17.744 15.702,17.869 15.489 C 17.964 15.328,17.980 15.256,17.980 15.000 C 17.980 14.746,17.963 14.672,17.872 14.516 C 17.740 14.293,17.533 14.128,17.290 14.055 C 17.028 13.976,6.946 13.978,6.695 14.057 M8.600 17.584 C 8.267 17.728,8.001 18.135,8.001 18.500 C 8.001 18.886,8.304 19.318,8.665 19.445 C 8.791 19.490,9.409 19.500,12.000 19.500 C 15.507 19.500,15.357 19.510,15.652 19.245 C 16.096 18.844,16.107 18.182,15.675 17.772 C 15.396 17.508,15.577 17.520,11.991 17.522 C 9.179 17.523,8.721 17.531,8.600 17.584 " stroke="none" fill-rule="evenodd" fill="black"></path></svg>