<svg width="24" height="24" viewBox="0 0 24 24" fill="none" xmlns="http://www.w3.org/2000/svg"><path d="M15.240 1.035 C 14.940 1.133,14.691 1.352,14.574 1.620 C 14.484 1.826,14.445 3.273,14.519 3.651 C 14.604 4.084,14.906 4.398,15.303 4.469 C 15.891 4.573,16.378 4.225,16.482 3.623 C 16.554 3.211,16.515 1.824,16.426 1.620 C 16.338 1.418,16.146 1.217,15.943 1.112 C 15.771 1.024,15.399 0.983,15.240 1.035 M10.400 1.121 C 8.696 1.384,7.273 1.937,5.861 2.883 C 4.098 4.064,2.660 5.811,1.855 7.748 C 0.343 11.389,0.855 15.456,3.226 18.633 C 3.701 19.269,4.753 20.316,5.400 20.797 C 8.559 23.145,12.627 23.651,16.252 22.145 C 17.071 21.805,17.860 21.350,18.633 20.774 C 19.256 20.308,20.313 19.249,20.789 18.613 C 21.928 17.092,22.644 15.344,22.901 13.463 C 22.993 12.791,22.931 12.557,22.578 12.247 C 22.157 11.876,21.491 11.950,21.150 12.406 C 21.019 12.581,20.978 12.724,20.900 13.280 C 20.766 14.236,20.518 15.040,20.079 15.940 C 18.262 19.668,14.144 21.671,10.092 20.797 C 9.099 20.582,7.861 20.061,7.040 19.511 C 6.018 18.826,5.121 17.918,4.441 16.880 C 4.035 16.261,3.596 15.314,3.385 14.604 L 3.322 14.393 3.471 14.418 C 3.553 14.431,3.929 14.457,4.307 14.476 C 8.175 14.666,11.876 13.287,14.687 10.607 L 14.995 10.314 15.007 11.310 L 15.020 12.307 15.141 12.503 C 15.543 13.156,16.457 13.156,16.859 12.503 L 16.980 12.306 16.980 10.003 L 16.980 7.700 16.872 7.516 C 16.740 7.293,16.533 7.128,16.290 7.055 C 16.023 6.975,11.977 6.975,11.710 7.055 C 11.467 7.128,11.260 7.293,11.128 7.516 C 11.037 7.672,11.020 7.746,11.020 8.000 C 11.020 8.256,11.036 8.328,11.131 8.489 C 11.192 8.592,11.304 8.725,11.381 8.783 C 11.631 8.975,11.758 8.996,12.640 8.999 L 13.460 9.002 13.160 9.291 C 12.597 9.833,11.696 10.497,10.940 10.928 C 9.314 11.853,7.530 12.376,5.668 12.475 C 4.960 12.512,3.956 12.474,3.360 12.387 L 3.020 12.338 3.026 11.756 C 3.045 9.839,3.745 7.916,4.989 6.366 C 6.412 4.592,8.479 3.414,10.720 3.100 C 11.276 3.022,11.419 2.981,11.594 2.850 C 12.053 2.507,12.126 1.821,11.748 1.411 C 11.423 1.059,11.163 1.003,10.400 1.121 M20.081 2.603 C 19.868 2.700,18.728 3.808,18.574 4.068 C 18.302 4.528,18.472 5.147,18.948 5.427 C 19.113 5.524,19.183 5.540,19.440 5.540 C 19.694 5.540,19.768 5.523,19.920 5.433 C 20.198 5.268,21.300 4.135,21.399 3.913 C 21.695 3.242,21.229 2.518,20.502 2.521 C 20.346 2.521,20.196 2.551,20.081 2.603 M20.099 7.595 C 19.740 7.758,19.522 8.100,19.522 8.500 C 19.522 8.908,19.739 9.240,20.120 9.416 C 20.287 9.494,20.371 9.500,21.260 9.500 C 22.149 9.500,22.233 9.494,22.400 9.416 C 22.781 9.240,22.998 8.908,22.998 8.500 C 22.998 8.216,22.909 7.995,22.717 7.803 C 22.450 7.536,22.375 7.522,21.260 7.522 C 20.377 7.522,20.241 7.530,20.099 7.595 " stroke="none" fill-rule="evenodd" fill="black"></path></svg>