<svg width="24" height="24" viewBox="0 0 24 24" fill="none" xmlns="http://www.w3.org/2000/svg"><path d="M15.240 1.035 C 14.940 1.133,14.691 1.352,14.574 1.620 C 14.484 1.826,14.445 3.273,14.519 3.651 C 14.604 4.084,14.906 4.398,15.303 4.469 C 15.891 4.573,16.378 4.225,16.482 3.623 C 16.554 3.211,16.515 1.824,16.426 1.620 C 16.338 1.418,16.146 1.217,15.943 1.112 C 15.771 1.024,15.399 0.983,15.240 1.035 M5.920 2.042 C 5.155 2.091,4.674 2.204,4.180 2.451 C 3.089 2.996,2.357 3.961,2.124 5.160 C 2.013 5.729,2.000 6.455,2.000 12.000 C 2.000 18.358,2.006 18.526,2.245 19.320 C 2.577 20.422,3.578 21.423,4.680 21.755 C 5.474 21.994,5.642 22.000,12.000 22.000 C 18.358 22.000,18.526 21.994,19.320 21.755 C 20.422 21.423,21.425 20.421,21.755 19.320 C 21.978 18.576,22.007 18.072,21.992 15.160 L 21.980 12.700 21.871 12.514 C 21.479 11.848,20.521 11.848,20.129 12.514 L 20.020 12.700 19.995 15.460 C 19.968 18.425,19.961 18.523,19.752 18.952 C 19.626 19.211,19.190 19.638,18.918 19.768 C 18.466 19.985,18.627 19.980,12.000 19.980 C 5.383 19.980,5.538 19.985,5.082 19.771 C 4.812 19.643,4.377 19.217,4.248 18.952 C 4.052 18.550,4.034 18.349,4.011 16.344 L 3.990 14.469 4.485 14.489 C 5.533 14.533,6.915 14.412,7.976 14.182 C 10.482 13.639,12.804 12.402,14.687 10.607 L 14.995 10.314 15.007 11.310 L 15.020 12.307 15.141 12.503 C 15.543 13.156,16.457 13.156,16.859 12.503 L 16.980 12.306 16.980 10.003 L 16.980 7.700 16.872 7.516 C 16.740 7.293,16.533 7.128,16.290 7.055 C 16.023 6.975,11.977 6.975,11.710 7.055 C 11.467 7.128,11.260 7.293,11.128 7.516 C 11.037 7.672,11.020 7.746,11.020 8.000 C 11.020 8.256,11.036 8.328,11.131 8.489 C 11.192 8.592,11.304 8.725,11.381 8.783 C 11.631 8.975,11.758 8.996,12.640 8.999 L 13.460 9.002 13.160 9.291 C 11.951 10.455,10.206 11.462,8.502 11.978 C 7.231 12.364,5.802 12.546,4.487 12.490 L 3.994 12.469 4.011 9.124 C 4.029 5.512,4.030 5.495,4.248 5.048 C 4.366 4.806,4.806 4.366,5.048 4.248 C 5.477 4.039,5.575 4.032,8.540 4.005 L 11.300 3.980 11.492 3.867 C 12.248 3.423,12.123 2.306,11.290 2.055 C 11.143 2.011,10.644 2.001,8.744 2.006 C 7.444 2.009,6.173 2.025,5.920 2.042 M20.081 2.603 C 19.868 2.700,18.728 3.808,18.574 4.068 C 18.302 4.528,18.472 5.147,18.948 5.427 C 19.113 5.524,19.183 5.540,19.440 5.540 C 19.694 5.540,19.768 5.523,19.920 5.433 C 20.198 5.268,21.300 4.135,21.399 3.913 C 21.695 3.242,21.229 2.518,20.502 2.521 C 20.346 2.521,20.196 2.551,20.081 2.603 M20.099 7.595 C 19.740 7.758,19.522 8.100,19.522 8.500 C 19.522 8.908,19.739 9.240,20.120 9.416 C 20.287 9.494,20.371 9.500,21.260 9.500 C 22.149 9.500,22.233 9.494,22.400 9.416 C 22.781 9.240,22.998 8.908,22.998 8.500 C 22.998 8.216,22.909 7.995,22.717 7.803 C 22.450 7.536,22.375 7.522,21.260 7.522 C 20.377 7.522,20.241 7.530,20.099 7.595 " stroke="none" fill-rule="evenodd" fill="black"></path></svg>