<svg width="24" height="24" viewBox="0 0 24 24" fill="none" xmlns="http://www.w3.org/2000/svg"><path d="M6.847 2.044 C 4.399 2.375,2.253 4.182,1.389 6.640 C 0.766 8.411,0.904 10.335,1.778 12.061 C 2.271 13.033,2.938 13.828,4.936 15.821 C 6.850 17.731,10.303 20.916,10.881 21.304 C 11.357 21.624,11.843 21.731,12.347 21.626 C 12.929 21.504,13.039 21.424,14.659 19.962 C 18.466 16.526,20.785 14.201,21.705 12.900 C 23.136 10.877,23.394 8.298,22.390 6.064 C 21.515 4.116,19.678 2.594,17.675 2.157 C 15.825 1.753,13.802 2.258,12.246 3.511 L 11.993 3.715 11.766 3.530 C 11.106 2.991,10.206 2.513,9.400 2.273 C 8.653 2.051,7.536 1.951,6.847 2.044 M8.239 4.062 C 9.270 4.229,10.108 4.677,10.983 5.528 C 11.249 5.787,11.532 6.026,11.612 6.059 C 11.821 6.147,12.204 6.137,12.411 6.040 C 12.507 5.995,12.744 5.793,12.960 5.573 C 13.457 5.066,13.868 4.766,14.458 4.478 C 15.936 3.758,17.527 3.886,18.860 4.831 C 20.077 5.694,20.824 6.968,20.964 8.417 C 21.092 9.733,20.705 10.970,19.820 12.080 C 18.838 13.310,16.406 15.700,13.199 18.585 C 12.000 19.664,12.015 19.652,11.945 19.613 C 11.914 19.595,11.378 19.119,10.754 18.557 C 6.942 15.117,4.610 12.784,3.857 11.656 C 2.967 10.323,2.768 8.725,3.305 7.220 C 3.724 6.047,4.684 4.975,5.825 4.405 C 6.555 4.041,7.384 3.923,8.239 4.062 M15.080 7.603 C 14.944 7.664,14.427 8.156,12.951 9.630 L 11.003 11.576 10.271 10.855 C 9.655 10.247,9.509 10.123,9.343 10.067 C 8.865 9.905,8.383 10.083,8.128 10.516 C 8.037 10.672,8.020 10.746,8.020 11.000 C 8.020 11.254,8.036 11.328,8.127 11.480 C 8.260 11.703,10.367 13.803,10.560 13.905 C 10.754 14.007,11.246 14.007,11.440 13.905 C 11.600 13.821,16.147 9.304,16.320 9.057 C 16.547 8.733,16.536 8.246,16.295 7.908 C 16.041 7.551,15.498 7.415,15.080 7.603 " stroke="none" fill-rule="evenodd" fill="black"></path></svg>