<svg width="24" height="24" viewBox="0 0 24 24" fill="none" xmlns="http://www.w3.org/2000/svg"><path d="M8.163 1.041 C 7.459 1.189,6.756 1.601,6.358 2.100 C 6.105 2.417,5.992 2.639,5.579 3.640 C 5.124 4.741,5.104 4.785,4.965 4.934 C 4.832 5.078,4.734 5.127,3.880 5.479 C 3.495 5.638,3.054 5.822,2.900 5.889 C 2.029 6.265,1.398 6.968,1.114 7.880 C 1.037 8.129,1.021 8.268,1.021 8.700 C 1.021 9.336,1.042 9.410,1.605 10.761 C 2.149 12.069,2.150 11.928,1.589 13.280 C 1.030 14.629,1.021 14.663,1.020 15.300 C 1.020 15.734,1.036 15.870,1.114 16.120 C 1.305 16.731,1.650 17.266,2.086 17.626 C 2.408 17.892,2.541 17.960,3.630 18.415 C 4.801 18.905,4.827 18.917,4.965 19.066 C 5.104 19.215,5.124 19.259,5.579 20.360 C 5.792 20.877,6.019 21.390,6.082 21.500 C 6.462 22.158,7.085 22.638,7.880 22.886 C 8.130 22.964,8.267 22.980,8.700 22.980 C 9.335 22.980,9.406 22.960,10.761 22.395 C 12.066 21.852,11.934 21.852,13.239 22.395 C 14.594 22.960,14.665 22.980,15.300 22.980 C 15.733 22.980,15.870 22.964,16.120 22.886 C 16.731 22.695,17.266 22.350,17.626 21.914 C 17.892 21.592,17.960 21.459,18.417 20.366 C 18.904 19.200,18.897 19.216,19.035 19.066 C 19.174 18.916,19.218 18.894,20.370 18.417 C 20.973 18.167,21.469 17.934,21.638 17.822 C 22.216 17.437,22.668 16.821,22.886 16.120 C 22.964 15.870,22.979 15.733,22.979 15.300 C 22.978 14.661,22.967 14.621,22.411 13.280 C 21.848 11.924,21.848 12.076,22.411 10.720 C 22.970 9.371,22.979 9.337,22.980 8.700 C 22.980 8.266,22.964 8.130,22.886 7.880 C 22.623 7.036,22.092 6.383,21.380 6.027 C 21.226 5.950,20.722 5.731,20.261 5.540 C 19.262 5.126,19.172 5.081,19.035 4.934 C 18.896 4.785,18.876 4.741,18.421 3.640 C 18.208 3.123,17.981 2.610,17.918 2.500 C 17.545 1.850,16.908 1.359,16.120 1.114 C 15.870 1.036,15.733 1.021,15.300 1.021 C 14.661 1.022,14.622 1.033,13.280 1.591 C 11.924 2.156,12.076 2.156,10.720 1.592 C 10.159 1.358,9.601 1.137,9.480 1.100 C 9.222 1.021,8.426 0.985,8.163 1.041 M9.959 3.437 C 11.312 3.998,11.389 4.020,12.000 4.019 C 12.614 4.018,12.710 3.990,14.046 3.432 C 14.959 3.050,15.038 3.025,15.300 3.023 C 15.538 3.021,15.612 3.038,15.794 3.139 C 15.918 3.208,16.054 3.325,16.119 3.418 C 16.180 3.507,16.413 4.023,16.637 4.565 C 17.128 5.751,17.251 5.971,17.640 6.360 C 18.029 6.749,18.249 6.872,19.435 7.363 C 19.977 7.587,20.493 7.820,20.582 7.881 C 20.675 7.946,20.792 8.082,20.861 8.206 C 20.962 8.388,20.979 8.462,20.977 8.700 C 20.975 8.963,20.950 9.041,20.566 9.959 C 20.004 11.303,19.980 11.387,19.980 12.000 C 19.980 12.613,20.004 12.697,20.566 14.041 C 20.951 14.962,20.975 15.037,20.976 15.300 C 20.977 15.513,20.957 15.620,20.889 15.748 C 20.711 16.086,20.589 16.162,19.477 16.622 C 18.905 16.859,18.326 17.117,18.189 17.196 C 17.867 17.384,17.378 17.873,17.192 18.194 C 17.112 18.334,16.862 18.892,16.637 19.434 C 16.412 19.976,16.177 20.495,16.114 20.588 C 16.032 20.707,15.925 20.792,15.741 20.883 C 15.340 21.080,15.224 21.058,14.000 20.550 C 12.728 20.022,12.591 19.983,12.000 19.983 C 11.410 19.983,11.274 20.022,10.000 20.550 C 8.731 21.076,8.553 21.101,8.113 20.811 C 7.893 20.665,7.806 20.505,7.362 19.432 C 7.138 18.892,6.889 18.335,6.808 18.195 C 6.621 17.872,6.133 17.384,5.806 17.194 C 5.668 17.113,5.088 16.854,4.518 16.618 C 3.409 16.159,3.289 16.085,3.111 15.748 C 3.043 15.620,3.023 15.513,3.024 15.300 C 3.025 15.037,3.049 14.962,3.434 14.041 C 3.997 12.694,4.020 12.613,4.019 12.000 C 4.017 11.385,4.004 11.338,3.448 10.000 C 3.049 9.039,3.024 8.964,3.023 8.700 C 3.023 8.487,3.043 8.380,3.111 8.252 C 3.289 7.914,3.411 7.838,4.523 7.378 C 5.095 7.141,5.675 6.883,5.811 6.804 C 6.132 6.618,6.620 6.129,6.808 5.805 C 6.889 5.664,7.138 5.108,7.362 4.568 C 7.805 3.498,7.900 3.324,8.111 3.193 C 8.573 2.908,8.733 2.929,9.959 3.437 M15.080 8.603 C 14.944 8.664,14.427 9.156,12.951 10.630 L 11.003 12.576 10.269 11.852 C 9.603 11.195,9.515 11.122,9.320 11.064 C 9.057 10.986,8.946 10.984,8.710 11.055 C 8.467 11.128,8.260 11.293,8.128 11.516 C 8.037 11.672,8.020 11.746,8.020 12.000 C 8.020 12.254,8.036 12.328,8.127 12.480 C 8.260 12.703,10.367 14.803,10.560 14.905 C 10.754 15.007,11.246 15.007,11.440 14.905 C 11.600 14.821,16.147 10.304,16.320 10.057 C 16.547 9.733,16.536 9.246,16.295 8.908 C 16.041 8.551,15.498 8.415,15.080 8.603 " stroke="none" fill-rule="evenodd" fill="black"></path></svg>