<svg width="24" height="24" viewBox="0 0 24 24" fill="none" xmlns="http://www.w3.org/2000/svg"><path d="M11.280 1.024 C 11.203 1.033,10.960 1.059,10.740 1.082 C 9.359 1.227,7.802 1.735,6.579 2.438 C 5.614 2.994,5.002 3.468,4.179 4.296 C 2.813 5.671,1.899 7.254,1.384 9.140 C 0.917 10.849,0.885 12.716,1.293 14.500 C 1.833 16.861,3.224 19.058,5.170 20.619 C 7.558 22.535,10.843 23.372,13.860 22.834 C 16.097 22.435,18.007 21.465,19.626 19.906 C 21.002 18.580,21.956 17.033,22.500 15.246 C 22.847 14.107,22.955 13.386,22.987 11.997 C 23.008 11.103,23.003 10.948,22.944 10.771 C 22.753 10.197,22.063 9.928,21.530 10.218 C 21.414 10.281,21.273 10.393,21.217 10.467 C 21.035 10.706,21.008 10.875,20.984 11.900 C 20.972 12.431,20.935 13.048,20.901 13.280 C 20.468 16.224,18.627 18.761,15.980 20.059 C 13.837 21.109,11.564 21.280,9.260 20.563 C 6.876 19.821,4.823 17.990,3.801 15.693 C 2.424 12.597,2.873 9.023,4.970 6.395 C 6.391 4.613,8.403 3.459,10.720 3.095 C 11.286 3.007,12.601 2.995,13.140 3.075 C 13.960 3.195,14.690 3.390,15.460 3.692 C 15.951 3.884,16.067 3.901,16.346 3.820 C 16.661 3.729,16.925 3.469,17.016 3.163 C 17.095 2.895,17.096 2.827,17.020 2.572 C 16.925 2.254,16.725 2.065,16.280 1.874 C 15.033 1.338,13.637 1.046,12.200 1.021 C 11.771 1.013,11.357 1.015,11.280 1.024 M21.660 3.066 C 21.472 3.123,21.180 3.405,16.730 7.852 L 12.001 12.578 10.810 11.394 C 10.021 10.608,9.559 10.179,9.440 10.119 C 9.198 9.997,8.808 9.994,8.577 10.111 C 8.067 10.372,7.860 10.977,8.114 11.465 C 8.160 11.553,8.893 12.316,9.807 13.228 C 11.552 14.968,11.589 14.998,12.000 14.999 C 12.448 15.000,12.189 15.240,17.726 9.694 C 20.534 6.881,22.865 4.517,22.905 4.440 C 22.957 4.341,22.979 4.212,22.979 4.000 C 22.980 3.745,22.964 3.672,22.872 3.516 C 22.747 3.303,22.550 3.141,22.316 3.058 C 22.110 2.986,21.918 2.988,21.660 3.066 " stroke="none" fill-rule="evenodd" fill="black"></path></svg>