<svg width="24" height="24" viewBox="0 0 24 24" fill="none" xmlns="http://www.w3.org/2000/svg"><path d="M5.920 2.042 C 5.155 2.091,4.674 2.204,4.180 2.451 C 3.089 2.996,2.357 3.961,2.124 5.160 C 2.013 5.729,2.000 6.455,2.000 12.000 C 2.000 18.358,2.006 18.526,2.245 19.320 C 2.577 20.422,3.578 21.423,4.680 21.755 C 5.474 21.994,5.642 22.000,12.000 22.000 C 18.358 22.000,18.526 21.994,19.320 21.755 C 20.422 21.423,21.425 20.421,21.755 19.320 C 21.984 18.557,22.007 18.110,21.992 14.660 L 21.980 11.700 21.871 11.514 C 21.479 10.848,20.521 10.848,20.129 11.514 L 20.020 11.700 19.996 14.960 C 19.969 18.473,19.967 18.511,19.752 18.952 C 19.626 19.211,19.190 19.638,18.918 19.768 C 18.466 19.985,18.627 19.980,12.000 19.980 C 5.383 19.980,5.538 19.985,5.082 19.771 C 4.812 19.643,4.377 19.217,4.248 18.952 C 4.198 18.849,4.126 18.633,4.088 18.472 C 4.025 18.203,4.020 17.687,4.020 12.000 C 4.020 6.313,4.025 5.797,4.088 5.528 C 4.126 5.367,4.198 5.151,4.248 5.048 C 4.366 4.806,4.806 4.366,5.048 4.248 C 5.515 4.020,5.327 4.028,11.040 4.003 L 16.300 3.980 16.492 3.867 C 17.248 3.423,17.123 2.306,16.290 2.055 C 16.139 2.010,15.262 2.001,11.244 2.006 C 8.569 2.009,6.173 2.025,5.920 2.042 M21.640 3.068 C 21.483 3.121,20.851 3.738,16.731 7.853 L 12.001 12.577 10.771 11.355 C 9.688 10.279,9.516 10.124,9.343 10.066 C 8.863 9.905,8.382 10.084,8.128 10.516 C 8.037 10.672,8.020 10.746,8.020 11.000 C 8.020 11.254,8.036 11.328,8.127 11.480 C 8.261 11.704,11.368 14.804,11.560 14.905 C 11.754 15.006,12.246 15.007,12.440 14.905 C 12.633 14.805,22.737 4.708,22.873 4.480 C 22.964 4.327,22.980 4.254,22.980 4.000 C 22.980 3.746,22.963 3.672,22.872 3.516 C 22.617 3.083,22.122 2.903,21.640 3.068 " stroke="none" fill-rule="evenodd" fill="black"></path></svg>