<svg width="24" height="24" viewBox="0 0 24 24" fill="none" xmlns="http://www.w3.org/2000/svg"><path d="M4.920 2.041 C 4.667 2.058,4.343 2.092,4.200 2.118 C 3.027 2.326,1.999 3.086,1.465 4.141 C 1.101 4.858,0.984 5.676,1.007 7.343 L 1.020 8.307 1.141 8.503 C 1.543 9.156,2.457 9.156,2.859 8.503 L 2.980 8.306 3.007 7.063 C 3.044 5.342,3.104 5.096,3.600 4.600 C 3.895 4.304,4.109 4.186,4.528 4.088 C 4.798 4.025,5.370 4.020,12.000 4.020 C 18.630 4.020,19.202 4.025,19.472 4.088 C 19.891 4.186,20.105 4.304,20.400 4.600 C 20.696 4.895,20.814 5.109,20.912 5.528 C 20.975 5.797,20.980 6.313,20.980 12.000 C 20.980 17.687,20.975 18.203,20.912 18.472 C 20.874 18.633,20.802 18.849,20.752 18.952 C 20.627 19.210,20.190 19.638,19.920 19.767 C 19.504 19.966,19.407 19.973,16.480 19.998 C 14.430 20.015,13.712 20.033,13.627 20.070 C 13.429 20.158,13.239 20.327,13.128 20.516 C 13.037 20.672,13.020 20.746,13.020 21.000 C 13.020 21.256,13.036 21.328,13.131 21.489 C 13.256 21.702,13.449 21.864,13.670 21.943 C 13.789 21.985,14.330 21.997,16.280 21.998 C 19.127 22.000,19.601 21.972,20.320 21.755 C 21.422 21.423,22.423 20.422,22.755 19.320 C 22.994 18.526,23.000 18.358,23.000 12.000 C 23.000 5.642,22.994 5.474,22.755 4.680 C 22.424 3.581,21.465 2.622,20.320 2.246 C 19.635 2.021,19.900 2.028,12.340 2.019 C 8.512 2.014,5.173 2.024,4.920 2.041 M1.800 11.077 C 1.139 11.211,0.797 11.987,1.149 12.554 C 1.378 12.922,1.495 12.973,2.540 13.161 C 4.030 13.428,5.539 14.229,6.655 15.345 C 7.771 16.461,8.572 17.970,8.839 19.460 C 9.026 20.498,9.077 20.618,9.430 20.843 C 9.797 21.075,10.276 21.036,10.589 20.748 C 10.932 20.432,10.995 20.194,10.900 19.576 C 10.470 16.780,8.985 14.371,6.716 12.790 C 5.749 12.116,4.524 11.564,3.400 11.297 C 3.016 11.205,2.043 11.034,1.971 11.045 C 1.954 11.047,1.877 11.062,1.800 11.077 M1.617 15.177 C 1.415 15.265,1.193 15.486,1.094 15.700 C 0.841 16.244,1.155 16.899,1.748 17.060 C 2.596 17.290,3.044 17.505,3.549 17.922 C 4.254 18.504,4.641 19.152,4.940 20.252 C 5.102 20.846,5.759 21.161,6.300 20.905 C 6.673 20.728,6.886 20.408,6.888 20.023 C 6.890 19.632,6.591 18.701,6.291 18.160 C 5.482 16.701,4.136 15.634,2.580 15.217 C 2.182 15.110,1.806 15.094,1.617 15.177 M1.695 19.055 C 1.464 19.130,1.255 19.300,1.128 19.516 C 1.037 19.672,1.020 19.746,1.020 20.000 C 1.020 20.257,1.036 20.327,1.133 20.492 C 1.651 21.374,2.998 21.018,2.998 20.000 C 2.998 19.623,2.792 19.281,2.463 19.112 C 2.265 19.010,1.911 18.984,1.695 19.055 " stroke="none" fill-rule="evenodd" fill="black"></path></svg>