<svg width="24" height="24" viewBox="0 0 24 24" fill="none" xmlns="http://www.w3.org/2000/svg"><path d="M11.280 1.023 C 11.203 1.032,10.951 1.059,10.720 1.083 C 9.527 1.210,8.337 1.558,7.180 2.120 C 6.045 2.671,5.193 3.285,4.238 4.239 C 3.277 5.198,2.643 6.080,2.097 7.220 C 0.301 10.968,0.728 15.286,3.226 18.633 C 3.701 19.269,4.753 20.316,5.400 20.797 C 9.364 23.745,14.666 23.734,18.637 20.770 C 19.246 20.316,20.316 19.246,20.770 18.637 C 23.744 14.652,23.744 9.348,20.770 5.363 C 20.316 4.755,19.247 3.686,18.640 3.235 C 17.045 2.049,15.365 1.360,13.423 1.096 C 13.000 1.038,11.574 0.990,11.280 1.023 M13.320 3.101 C 15.883 3.488,18.124 4.931,19.560 7.120 C 19.863 7.583,20.303 8.479,20.492 9.020 C 20.838 10.013,20.977 10.865,20.977 12.000 C 20.977 13.493,20.720 14.621,20.080 15.940 C 19.205 17.746,17.798 19.160,15.980 20.061 C 13.944 21.071,11.667 21.271,9.469 20.634 C 9.231 20.565,9.042 20.495,9.049 20.477 C 9.055 20.460,9.217 20.303,9.408 20.128 C 12.590 17.226,13.787 12.741,12.474 8.640 C 11.899 6.843,10.813 5.153,9.408 3.872 C 9.217 3.697,9.055 3.540,9.049 3.523 C 9.035 3.485,9.771 3.269,10.200 3.184 C 10.472 3.130,10.915 3.068,11.340 3.024 C 11.662 2.991,12.911 3.039,13.320 3.101 M7.305 4.735 C 8.970 5.935,10.266 7.869,10.741 9.860 C 10.919 10.606,10.976 11.122,10.976 12.000 C 10.976 12.878,10.919 13.394,10.741 14.140 C 10.266 16.133,8.974 18.058,7.297 19.274 L 7.001 19.488 6.733 19.296 C 5.568 18.465,4.562 17.266,3.920 15.940 C 3.280 14.621,3.023 13.493,3.023 12.000 C 3.023 11.112,3.081 10.603,3.267 9.840 C 3.684 8.126,4.691 6.452,5.997 5.303 C 6.305 5.031,6.956 4.520,6.994 4.520 C 7.001 4.520,7.141 4.617,7.305 4.735 " stroke="none" fill-rule="evenodd" fill="black"></path></svg>