<svg width="24" height="24" viewBox="0 0 24 24" fill="none" xmlns="http://www.w3.org/2000/svg"><path d="M4.920 2.041 C 4.152 2.092,3.672 2.205,3.180 2.451 C 2.089 2.996,1.357 3.961,1.124 5.160 C 1.013 5.729,1.000 6.455,1.000 12.000 C 1.000 18.358,1.006 18.526,1.245 19.320 C 1.577 20.422,2.578 21.423,3.680 21.755 C 4.485 21.998,4.567 22.000,12.000 22.000 C 19.433 22.000,19.515 21.998,20.320 21.755 C 21.422 21.423,22.423 20.422,22.755 19.320 C 22.994 18.526,23.000 18.358,23.000 12.000 C 23.000 5.642,22.994 5.474,22.755 4.680 C 22.424 3.581,21.465 2.622,20.320 2.246 C 19.635 2.021,19.900 2.028,12.340 2.019 C 8.512 2.014,5.173 2.024,4.920 2.041 M7.762 4.030 C 7.763 4.046,7.633 4.721,7.472 5.530 L 7.181 7.000 5.086 7.000 L 2.990 7.000 3.018 6.390 C 3.063 5.409,3.164 5.064,3.520 4.667 C 3.884 4.261,4.283 4.090,4.980 4.040 C 5.530 4.001,7.760 3.993,7.762 4.030 M14.762 4.030 C 14.763 4.046,14.633 4.721,14.472 5.530 L 14.181 7.000 11.711 7.000 C 10.352 7.000,9.239 6.986,9.238 6.970 C 9.237 6.954,9.367 6.279,9.528 5.470 L 9.819 4.000 12.289 4.000 C 13.648 4.000,14.761 4.014,14.762 4.030 M19.492 4.097 C 19.886 4.183,20.106 4.305,20.400 4.600 C 20.832 5.032,20.934 5.344,20.982 6.390 L 21.010 7.000 18.625 7.000 C 17.313 7.000,16.239 6.986,16.238 6.970 C 16.237 6.954,16.368 6.276,16.528 5.464 L 16.820 3.988 18.020 4.013 C 18.856 4.030,19.303 4.055,19.492 4.097 M20.989 13.610 C 20.972 18.615,20.978 18.488,20.752 18.952 C 20.626 19.211,20.190 19.638,19.918 19.768 C 19.463 19.987,19.707 19.980,12.000 19.980 C 4.304 19.980,4.541 19.986,4.082 19.771 C 3.812 19.643,3.377 19.217,3.248 18.952 C 3.022 18.488,3.028 18.615,3.011 13.610 L 2.995 9.000 12.000 9.000 L 21.005 9.000 20.989 13.610 " stroke="none" fill-rule="evenodd" fill="black"></path></svg>