<svg width="24" height="24" viewBox="0 0 24 24" fill="none" xmlns="http://www.w3.org/2000/svg"><path d="M8.686 1.040 C 8.236 1.108,7.820 1.332,7.512 1.676 C 7.265 1.950,7.130 2.234,7.051 2.645 C 7.016 2.829,6.983 2.986,6.977 2.993 C 6.972 3.000,6.786 3.023,6.564 3.043 C 5.234 3.169,4.047 3.993,3.430 5.220 C 3.236 5.606,3.088 6.097,3.041 6.511 C 2.986 6.987,2.986 18.588,3.041 19.180 C 3.109 19.928,3.225 20.387,3.464 20.858 C 3.915 21.749,4.772 22.482,5.680 22.755 C 6.460 22.990,6.716 23.000,12.000 23.000 C 17.284 23.000,17.540 22.990,18.320 22.755 C 19.228 22.482,20.085 21.749,20.536 20.858 C 20.775 20.387,20.891 19.928,20.959 19.180 C 21.014 18.588,21.014 6.987,20.959 6.511 C 20.860 5.648,20.452 4.814,19.819 4.181 C 19.165 3.526,18.329 3.127,17.436 3.043 C 17.214 3.023,17.028 3.000,17.023 2.993 C 17.017 2.986,16.984 2.829,16.949 2.645 C 16.870 2.234,16.735 1.950,16.488 1.676 C 16.261 1.423,15.978 1.236,15.635 1.112 L 15.380 1.020 12.140 1.014 C 10.358 1.011,8.804 1.023,8.686 1.040 M15.000 4.000 L 15.000 5.000 12.000 5.000 L 9.000 5.000 9.000 4.000 L 9.000 3.000 12.000 3.000 L 15.000 3.000 15.000 4.000 M7.051 5.365 C 7.140 5.814,7.286 6.092,7.597 6.403 C 7.896 6.702,8.173 6.853,8.581 6.939 C 8.995 7.027,15.005 7.027,15.419 6.940 C 15.818 6.855,16.102 6.699,16.401 6.401 C 16.712 6.090,16.862 5.806,16.949 5.365 L 17.013 5.040 17.225 5.040 C 17.614 5.040,18.126 5.287,18.444 5.626 C 18.647 5.843,18.732 5.980,18.864 6.300 L 18.980 6.580 18.980 12.880 C 18.980 18.680,18.975 19.203,18.912 19.472 C 18.814 19.891,18.696 20.104,18.400 20.401 C 18.101 20.701,17.820 20.851,17.418 20.928 C 17.011 21.004,6.989 21.004,6.582 20.927 C 6.170 20.850,5.898 20.704,5.600 20.403 C 5.303 20.104,5.186 19.890,5.088 19.472 C 5.025 19.203,5.020 18.680,5.020 12.880 L 5.020 6.580 5.128 6.310 C 5.297 5.890,5.550 5.570,5.907 5.325 C 6.126 5.176,6.524 5.044,6.764 5.042 L 6.987 5.040 7.051 5.365 M9.240 11.035 C 8.784 11.184,8.512 11.546,8.512 12.003 C 8.512 12.394,8.584 12.493,9.616 13.520 C 10.135 14.037,10.560 14.478,10.560 14.500 C 10.560 14.522,10.135 14.963,9.616 15.480 C 8.954 16.139,8.648 16.472,8.592 16.595 C 8.493 16.811,8.487 17.164,8.578 17.382 C 8.723 17.730,9.126 18.000,9.500 17.999 C 9.868 17.998,9.986 17.911,11.030 16.869 L 12.000 15.901 12.970 16.869 C 14.014 17.911,14.132 17.998,14.500 17.999 C 14.874 18.000,15.277 17.730,15.422 17.382 C 15.513 17.164,15.507 16.811,15.408 16.595 C 15.352 16.472,15.046 16.139,14.384 15.480 C 13.865 14.963,13.440 14.522,13.440 14.500 C 13.440 14.478,13.865 14.037,14.384 13.520 C 15.416 12.493,15.488 12.394,15.488 12.003 C 15.488 11.615,15.293 11.296,14.940 11.108 C 14.729 10.995,14.284 10.989,14.080 11.095 C 14.003 11.135,13.503 11.602,12.970 12.134 L 12.000 13.099 11.030 12.134 C 10.497 11.602,9.999 11.137,9.924 11.100 C 9.768 11.022,9.389 10.986,9.240 11.035 " stroke="none" fill-rule="evenodd" fill="black"></path></svg>