<svg width="24" height="24" viewBox="0 0 24 24" fill="none" xmlns="http://www.w3.org/2000/svg"><path d="M11.080 2.042 C 9.165 2.226,7.360 2.948,5.800 4.154 C 5.005 4.769,4.015 5.884,3.470 6.780 C 2.106 9.020,1.666 11.743,2.260 14.260 C 2.697 16.112,3.581 17.701,4.919 19.042 C 6.094 20.220,7.404 21.026,8.947 21.520 C 10.023 21.865,10.778 21.978,12.000 21.978 C 13.222 21.978,13.977 21.865,15.053 21.520 C 16.596 21.026,17.906 20.220,19.081 19.042 C 19.892 18.229,20.473 17.419,20.960 16.420 C 21.285 15.754,21.479 15.242,21.647 14.608 C 21.715 14.350,21.778 14.115,21.786 14.083 C 21.798 14.042,21.837 14.059,21.931 14.147 C 22.148 14.349,22.294 14.432,22.501 14.468 C 23.216 14.595,23.793 14.021,23.670 13.305 C 23.651 13.197,23.585 13.035,23.521 12.945 C 23.458 12.854,22.933 12.309,22.353 11.732 C 21.196 10.581,21.115 10.522,20.700 10.522 C 20.285 10.522,20.204 10.581,19.047 11.732 C 18.467 12.309,17.943 12.852,17.882 12.940 C 17.479 13.518,17.817 14.347,18.505 14.469 C 18.749 14.512,19.055 14.462,19.217 14.352 C 19.285 14.306,19.434 14.177,19.550 14.065 C 19.694 13.927,19.760 13.884,19.760 13.930 C 19.760 14.089,19.418 15.019,19.183 15.499 C 18.749 16.387,18.223 17.105,17.496 17.801 C 16.876 18.394,16.262 18.819,15.471 19.200 C 13.267 20.265,10.733 20.265,8.529 19.200 C 7.738 18.819,7.124 18.394,6.504 17.801 C 4.495 15.878,3.630 13.155,4.161 10.422 C 4.403 9.176,5.023 7.881,5.848 6.900 C 6.622 5.980,7.440 5.337,8.500 4.816 C 10.082 4.039,11.891 3.816,13.663 4.179 C 14.846 4.421,16.114 5.031,17.086 5.825 C 17.232 5.945,17.541 6.238,17.772 6.478 C 18.142 6.860,18.366 7.150,18.940 7.990 C 19.369 8.618,20.293 8.551,20.646 7.867 C 20.750 7.665,20.782 7.369,20.720 7.176 C 20.592 6.771,19.831 5.717,19.187 5.053 C 17.617 3.430,15.481 2.363,13.240 2.081 C 12.761 2.020,11.532 1.998,11.080 2.042 M11.695 6.057 C 11.466 6.129,11.256 6.299,11.128 6.516 L 11.020 6.700 11.008 9.400 C 10.999 11.329,11.009 12.146,11.041 12.260 C 11.141 12.613,11.218 12.676,12.919 13.812 C 13.810 14.408,14.603 14.918,14.680 14.946 C 15.017 15.067,15.435 14.967,15.701 14.701 C 16.052 14.350,16.092 13.809,15.797 13.396 C 15.750 13.330,15.109 12.874,14.358 12.373 L 13.002 11.468 12.991 9.084 L 12.980 6.700 12.872 6.516 C 12.628 6.101,12.150 5.915,11.695 6.057 " stroke="none" fill-rule="evenodd" fill="black"></path></svg>