<svg width="24" height="24" viewBox="0 0 24 24" fill="none" xmlns="http://www.w3.org/2000/svg"><path d="M9.695 1.057 C 9.466 1.129,9.256 1.299,9.128 1.516 C 9.037 1.672,9.020 1.746,9.020 2.000 C 9.020 2.256,9.036 2.328,9.131 2.489 C 9.256 2.702,9.449 2.864,9.670 2.943 C 9.768 2.978,10.023 2.997,10.411 2.998 L 11.002 3.000 10.991 3.528 L 10.980 4.057 10.580 4.112 C 9.660 4.241,8.724 4.537,7.780 5.001 C 6.150 5.800,4.779 7.070,3.824 8.666 C 3.180 9.743,2.726 11.082,2.559 12.400 C 2.497 12.887,2.497 14.064,2.558 14.580 C 2.714 15.883,3.174 17.248,3.824 18.334 C 4.787 19.943,6.168 21.218,7.820 22.021 C 8.759 22.477,9.627 22.750,10.640 22.907 C 11.283 23.006,12.717 23.006,13.360 22.907 C 16.976 22.346,19.890 19.895,21.022 16.460 C 21.350 15.465,21.489 14.582,21.489 13.500 C 21.489 13.126,21.468 12.640,21.442 12.420 C 21.190 10.307,20.235 8.320,18.760 6.838 C 17.960 6.033,17.189 5.476,16.220 5.001 C 15.276 4.537,14.340 4.241,13.420 4.112 L 13.020 4.057 13.009 3.528 L 12.998 3.000 13.589 2.998 C 13.977 2.997,14.232 2.978,14.330 2.943 C 14.551 2.864,14.744 2.702,14.869 2.489 C 14.964 2.328,14.980 2.256,14.980 2.000 C 14.980 1.746,14.963 1.672,14.872 1.516 C 14.740 1.293,14.533 1.128,14.290 1.055 C 14.033 0.978,9.943 0.979,9.695 1.057 M4.973 3.124 C 4.881 3.141,4.755 3.181,4.693 3.214 C 4.631 3.247,4.174 3.684,3.677 4.187 C 2.703 5.172,2.680 5.206,2.680 5.627 C 2.680 6.327,3.486 6.808,4.114 6.482 C 4.194 6.440,4.668 5.995,5.166 5.493 C 6.142 4.510,6.159 4.485,6.160 4.069 C 6.160 3.463,5.593 3.012,4.973 3.124 M18.653 3.119 C 18.233 3.183,17.879 3.569,17.848 3.994 C 17.815 4.458,17.831 4.484,18.833 5.493 C 19.332 5.995,19.806 6.440,19.886 6.482 C 20.514 6.808,21.320 6.327,21.320 5.627 C 21.320 5.205,21.299 5.174,20.305 4.170 C 19.365 3.221,19.281 3.156,18.940 3.109 C 18.874 3.101,18.745 3.105,18.653 3.119 M13.280 6.116 C 14.794 6.380,16.174 7.094,17.261 8.178 C 18.460 9.374,19.187 10.812,19.420 12.445 C 19.495 12.977,19.495 14.023,19.420 14.555 C 19.189 16.174,18.460 17.623,17.282 18.802 C 16.301 19.782,15.140 20.443,13.820 20.774 C 13.152 20.941,12.823 20.978,12.000 20.978 C 10.965 20.978,10.280 20.860,9.400 20.532 C 7.858 19.956,6.483 18.833,5.639 17.459 C 4.872 16.212,4.521 14.968,4.521 13.500 C 4.521 12.031,4.872 10.790,5.639 9.540 C 6.818 7.619,8.914 6.302,11.204 6.043 C 11.706 5.986,12.744 6.023,13.280 6.116 M11.580 8.595 C 11.377 8.687,11.151 8.937,11.064 9.164 C 11.004 9.322,10.998 9.561,11.009 11.560 C 11.020 13.757,11.021 13.782,11.108 13.944 C 11.156 14.034,11.258 14.162,11.334 14.229 C 11.487 14.363,13.853 15.795,14.128 15.920 C 14.746 16.201,15.494 15.699,15.493 15.004 C 15.493 14.719,15.381 14.463,15.176 14.280 C 15.090 14.203,14.566 13.870,14.011 13.540 L 13.002 12.940 13.001 11.120 L 12.999 9.300 12.905 9.100 C 12.793 8.865,12.599 8.669,12.391 8.582 C 12.188 8.497,11.780 8.503,11.580 8.595 " stroke="none" fill-rule="evenodd" fill="black"></path></svg>