<svg width="24" height="24" viewBox="0 0 24 24" fill="none" xmlns="http://www.w3.org/2000/svg"><path d="M11.280 1.023 C 11.203 1.032,10.951 1.059,10.720 1.083 C 8.832 1.283,6.991 2.023,5.360 3.235 C 4.751 3.688,3.684 4.755,3.226 5.367 C 0.728 8.714,0.301 13.032,2.097 16.780 C 2.642 17.918,3.276 18.800,4.238 19.763 C 5.632 21.158,7.126 22.041,9.011 22.583 C 10.229 22.934,11.822 23.086,12.933 22.959 C 13.352 22.911,13.535 22.827,13.750 22.582 C 14.197 22.074,14.019 21.326,13.380 21.035 C 13.236 20.969,13.143 20.964,12.440 20.987 C 11.203 21.026,10.259 20.896,9.150 20.533 C 8.513 20.324,7.578 19.871,7.040 19.511 C 5.157 18.249,3.791 16.312,3.267 14.160 C 3.081 13.397,3.023 12.888,3.023 12.000 C 3.023 10.507,3.280 9.379,3.920 8.060 C 4.799 6.247,6.247 4.799,8.060 3.920 C 9.379 3.280,10.507 3.023,12.000 3.023 C 13.493 3.023,14.621 3.280,15.940 3.920 C 18.328 5.077,20.110 7.279,20.733 9.840 C 20.935 10.667,20.975 11.060,20.978 12.220 C 20.981 13.245,20.985 13.308,21.067 13.460 C 21.291 13.878,21.775 14.086,22.234 13.962 C 22.438 13.907,22.732 13.652,22.844 13.433 C 22.939 13.245,22.998 12.709,22.999 12.020 C 23.002 9.622,22.231 7.321,20.770 5.363 C 20.316 4.755,19.247 3.686,18.640 3.235 C 17.045 2.049,15.365 1.360,13.423 1.096 C 13.000 1.038,11.574 0.990,11.280 1.023 M11.695 5.057 C 11.466 5.129,11.256 5.299,11.128 5.516 L 11.020 5.700 11.009 8.917 C 10.999 11.798,11.005 12.154,11.063 12.329 C 11.189 12.707,11.250 12.746,13.425 13.832 C 14.744 14.491,15.492 14.843,15.611 14.861 C 15.731 14.879,15.864 14.867,16.006 14.825 C 16.614 14.647,16.902 13.992,16.622 13.421 C 16.478 13.125,16.352 13.049,14.528 12.141 L 13.002 11.382 12.991 8.541 L 12.980 5.700 12.872 5.516 C 12.628 5.101,12.150 4.915,11.695 5.057 M16.240 16.037 C 15.792 16.175,15.512 16.546,15.512 17.000 C 15.512 17.405,15.719 17.724,16.100 17.905 C 16.298 17.998,16.311 17.999,17.699 18.000 L 19.099 18.000 17.354 19.750 C 15.472 21.637,15.508 21.594,15.511 22.020 C 15.515 22.389,15.714 22.706,16.060 22.894 C 16.219 22.979,16.239 22.980,18.940 22.991 C 21.977 23.004,21.850 23.014,22.173 22.724 C 22.381 22.536,22.488 22.292,22.488 22.003 C 22.488 21.615,22.294 21.298,21.940 21.106 C 21.786 21.023,21.728 21.020,20.343 21.008 L 18.905 20.996 20.648 19.248 C 22.528 17.363,22.492 17.406,22.489 16.980 C 22.485 16.611,22.286 16.294,21.940 16.106 C 21.781 16.020,21.765 16.020,19.060 16.013 C 17.564 16.009,16.295 16.020,16.240 16.037 " stroke="none" fill-rule="evenodd" fill="black"></path></svg>