<svg width="24" height="24" viewBox="0 0 24 24" fill="none" xmlns="http://www.w3.org/2000/svg"><path d="M10.920 2.565 C 8.860 2.800,6.911 3.720,5.424 5.158 C 3.987 6.549,3.078 8.210,2.677 10.177 C 2.632 10.399,2.585 10.743,2.572 10.942 C 2.553 11.249,2.561 11.331,2.628 11.482 C 2.786 11.836,3.042 12.034,3.429 12.098 C 3.797 12.160,4.263 11.906,4.435 11.550 C 4.480 11.456,4.545 11.191,4.580 10.960 C 4.705 10.125,4.889 9.505,5.218 8.816 C 6.257 6.636,8.133 5.162,10.520 4.650 C 10.985 4.550,11.088 4.543,12.000 4.543 C 12.860 4.543,13.031 4.554,13.400 4.632 C 14.484 4.862,15.522 5.311,16.379 5.923 C 16.837 6.249,17.636 6.977,17.589 7.025 C 17.576 7.038,17.497 7.025,17.413 6.998 C 17.203 6.929,16.850 6.938,16.659 7.018 C 16.461 7.100,16.259 7.291,16.148 7.500 C 16.015 7.748,16.026 8.161,16.170 8.407 C 16.230 8.510,16.344 8.647,16.423 8.712 C 16.586 8.847,16.665 8.872,18.420 9.341 C 19.485 9.626,19.730 9.679,19.879 9.658 C 20.199 9.612,20.515 9.406,20.639 9.161 C 20.711 9.021,21.438 6.382,21.501 6.033 C 21.564 5.685,21.297 5.213,20.937 5.039 C 20.706 4.927,20.319 4.918,20.118 5.020 C 19.754 5.204,19.628 5.368,19.500 5.826 L 19.432 6.072 19.201 5.806 C 17.634 3.996,15.396 2.819,13.032 2.562 C 12.581 2.513,11.357 2.515,10.920 2.565 M11.600 6.584 C 11.399 6.671,11.205 6.869,11.095 7.100 L 11.001 7.300 11.000 9.723 C 11.000 12.432,10.995 12.382,11.278 12.673 C 11.412 12.811,13.580 14.148,14.080 14.401 C 14.709 14.720,15.490 14.221,15.491 13.500 C 15.491 13.252,15.351 12.913,15.193 12.781 C 15.129 12.727,14.610 12.402,14.039 12.059 L 13.000 11.435 13.000 9.368 L 12.999 7.300 12.905 7.100 C 12.793 6.865,12.599 6.669,12.391 6.582 C 12.203 6.503,11.783 6.504,11.600 6.584 M20.243 11.924 C 19.938 11.983,19.634 12.241,19.522 12.534 C 19.498 12.597,19.451 12.831,19.418 13.054 C 19.254 14.147,18.905 15.095,18.333 16.006 C 16.879 18.319,14.195 19.686,11.510 19.481 C 9.814 19.351,8.246 18.690,6.979 17.570 C 6.666 17.294,6.357 16.960,6.415 16.960 C 6.425 16.960,6.544 16.988,6.679 17.023 C 7.061 17.121,7.410 17.025,7.666 16.753 C 8.019 16.378,8.051 15.871,7.747 15.472 C 7.675 15.377,7.544 15.260,7.456 15.212 C 7.205 15.072,4.466 14.349,4.196 14.350 C 3.857 14.352,3.503 14.560,3.359 14.842 C 3.286 14.985,2.560 17.622,2.498 17.967 C 2.425 18.378,2.775 18.892,3.215 19.020 C 3.502 19.104,3.733 19.070,4.008 18.906 C 4.265 18.751,4.378 18.589,4.486 18.217 L 4.570 17.929 4.800 18.195 C 5.110 18.551,5.756 19.175,6.100 19.448 C 7.436 20.510,9.146 21.214,10.940 21.442 C 11.477 21.511,12.616 21.501,13.200 21.424 C 14.684 21.227,16.033 20.721,17.267 19.896 C 17.883 19.485,18.263 19.167,18.803 18.614 C 19.698 17.696,20.343 16.707,20.819 15.523 C 21.134 14.738,21.386 13.717,21.428 13.052 C 21.450 12.709,21.444 12.669,21.344 12.464 C 21.139 12.045,20.706 11.833,20.243 11.924 " stroke="none" fill-rule="evenodd" fill="black"></path></svg>