<svg width="24" height="24" viewBox="0 0 24 24" fill="none" xmlns="http://www.w3.org/2000/svg"><path d="M11.280 1.023 C 11.203 1.032,10.951 1.059,10.720 1.083 C 8.832 1.283,6.991 2.023,5.360 3.235 C 4.751 3.688,3.684 4.755,3.226 5.367 C 0.728 8.714,0.301 13.032,2.097 16.780 C 2.642 17.918,3.276 18.800,4.238 19.763 C 5.202 20.728,6.132 21.391,7.290 21.938 C 9.095 22.792,11.190 23.154,13.092 22.942 C 13.678 22.877,13.881 22.789,14.080 22.514 C 14.243 22.289,14.294 22.107,14.269 21.834 C 14.243 21.545,14.096 21.281,13.871 21.118 C 13.612 20.930,13.451 20.903,12.900 20.956 C 10.534 21.179,8.205 20.488,6.370 19.019 C 4.857 17.807,3.722 16.029,3.267 14.160 C 3.081 13.397,3.023 12.888,3.023 12.000 C 3.023 10.507,3.280 9.379,3.920 8.060 C 4.799 6.247,6.247 4.799,8.060 3.920 C 9.379 3.280,10.507 3.023,12.000 3.023 C 13.493 3.023,14.621 3.280,15.940 3.920 C 17.753 4.799,19.201 6.247,20.080 8.060 C 20.804 9.552,21.091 11.068,20.960 12.715 C 20.897 13.519,20.923 13.642,21.218 13.945 C 21.543 14.279,21.970 14.359,22.360 14.159 C 22.539 14.067,22.782 13.815,22.841 13.660 C 22.918 13.459,22.997 12.651,22.999 12.060 C 23.003 9.624,22.241 7.334,20.770 5.363 C 20.316 4.755,19.247 3.686,18.640 3.235 C 17.045 2.049,15.365 1.360,13.423 1.096 C 13.000 1.038,11.574 0.990,11.280 1.023 M11.695 5.057 C 11.466 5.129,11.256 5.299,11.128 5.516 L 11.020 5.700 11.009 8.917 C 10.999 11.798,11.005 12.154,11.063 12.329 C 11.189 12.707,11.250 12.746,13.425 13.832 C 14.744 14.491,15.492 14.843,15.611 14.861 C 15.731 14.879,15.864 14.867,16.006 14.825 C 16.614 14.647,16.902 13.992,16.622 13.421 C 16.478 13.125,16.352 13.049,14.528 12.141 L 13.002 11.382 12.991 8.541 L 12.980 5.700 12.872 5.516 C 12.628 5.101,12.150 4.915,11.695 5.057 M18.695 15.057 C 18.466 15.129,18.256 15.299,18.128 15.516 L 18.020 15.700 18.008 16.850 L 17.995 18.000 16.944 18.000 C 15.797 18.000,15.643 18.022,15.382 18.221 C 15.302 18.282,15.187 18.415,15.128 18.516 C 15.037 18.672,15.020 18.746,15.020 19.000 C 15.020 19.256,15.036 19.328,15.131 19.489 C 15.192 19.592,15.304 19.725,15.381 19.783 C 15.642 19.983,15.738 19.996,16.908 19.998 L 17.995 20.000 18.008 21.153 L 18.020 22.307 18.141 22.503 C 18.543 23.156,19.457 23.156,19.859 22.503 L 19.980 22.307 19.992 21.153 L 20.005 20.000 21.092 19.998 C 22.262 19.996,22.358 19.983,22.619 19.783 C 22.696 19.725,22.808 19.592,22.869 19.489 C 22.964 19.328,22.980 19.256,22.980 19.000 C 22.980 18.746,22.963 18.672,22.872 18.516 C 22.813 18.415,22.698 18.282,22.618 18.221 C 22.357 18.022,22.203 18.000,21.056 18.000 L 20.005 18.000 19.992 16.850 L 19.980 15.700 19.872 15.516 C 19.628 15.101,19.150 14.915,18.695 15.057 " stroke="none" fill-rule="evenodd" fill="black"></path></svg>