<svg width="24" height="24" viewBox="0 0 24 24" fill="none" xmlns="http://www.w3.org/2000/svg"><path d="M11.280 1.023 C 11.203 1.032,10.951 1.059,10.720 1.083 C 8.832 1.283,6.991 2.023,5.360 3.235 C 4.751 3.688,3.684 4.755,3.226 5.367 C 0.944 8.425,0.383 12.286,1.701 15.867 C 1.888 16.376,2.374 17.362,2.662 17.820 C 3.103 18.520,3.567 19.092,4.238 19.762 C 5.355 20.880,6.448 21.614,7.834 22.178 C 9.048 22.672,10.402 22.965,11.520 22.975 C 12.089 22.981,12.236 22.932,12.479 22.655 C 12.658 22.451,12.727 22.269,12.725 21.997 C 12.724 21.723,12.642 21.508,12.468 21.326 C 12.246 21.095,12.075 21.033,11.542 20.995 C 10.222 20.900,9.190 20.630,8.060 20.084 C 5.683 18.935,3.890 16.720,3.267 14.160 C 3.081 13.397,3.023 12.888,3.023 12.000 C 3.023 10.507,3.280 9.379,3.920 8.060 C 4.799 6.247,6.247 4.799,8.060 3.920 C 9.379 3.280,10.507 3.023,12.000 3.023 C 13.493 3.023,14.621 3.280,15.940 3.920 C 17.753 4.799,19.201 6.247,20.080 8.060 C 20.703 9.345,20.943 10.379,20.993 12.003 L 21.020 12.866 21.141 13.062 C 21.295 13.311,21.519 13.468,21.808 13.528 C 22.005 13.569,22.068 13.566,22.261 13.505 C 22.533 13.419,22.763 13.222,22.887 12.967 C 22.965 12.806,22.980 12.702,22.994 12.224 C 23.062 9.812,22.273 7.376,20.770 5.363 C 20.316 4.755,19.247 3.686,18.640 3.235 C 17.045 2.049,15.365 1.360,13.423 1.096 C 13.000 1.038,11.574 0.990,11.280 1.023 M11.695 5.057 C 11.466 5.129,11.256 5.299,11.128 5.516 L 11.020 5.700 11.009 8.917 C 10.999 11.798,11.005 12.154,11.063 12.329 C 11.189 12.707,11.250 12.746,13.425 13.832 C 14.744 14.491,15.492 14.843,15.611 14.861 C 15.731 14.879,15.864 14.867,16.006 14.825 C 16.614 14.647,16.902 13.992,16.622 13.421 C 16.478 13.125,16.352 13.049,14.528 12.141 L 13.002 11.382 12.991 8.541 L 12.980 5.700 12.872 5.516 C 12.628 5.101,12.150 4.915,11.695 5.057 M20.580 15.597 C 20.473 15.647,19.779 16.314,18.480 17.616 C 17.413 18.685,16.522 19.560,16.500 19.560 C 16.477 19.560,16.153 19.253,15.780 18.877 C 15.406 18.502,15.028 18.156,14.940 18.108 C 14.717 17.988,14.284 17.988,14.060 18.108 C 13.606 18.349,13.403 18.852,13.559 19.344 C 13.632 19.570,15.811 21.766,16.100 21.904 C 16.364 22.030,16.636 22.030,16.900 21.904 C 17.183 21.768,21.797 17.149,21.917 16.880 C 22.130 16.407,21.878 15.785,21.391 15.582 C 21.185 15.496,20.779 15.503,20.580 15.597 " stroke="none" fill-rule="evenodd" fill="black"></path></svg>