<svg width="24" height="24" viewBox="0 0 24 24" fill="none" xmlns="http://www.w3.org/2000/svg"><path d="M11.080 2.045 C 9.507 2.184,7.883 2.751,6.540 3.630 C 5.905 4.045,5.499 4.378,4.919 4.958 C 2.953 6.926,1.919 9.544,2.013 12.320 C 2.084 14.439,2.752 16.328,4.033 18.040 C 4.430 18.570,5.305 19.464,5.800 19.847 C 7.242 20.961,8.790 21.625,10.600 21.906 C 11.172 21.995,12.702 22.007,13.280 21.927 C 15.729 21.587,18.034 20.344,19.557 18.542 C 19.929 18.102,19.978 18.000,19.978 17.660 C 19.978 17.331,19.888 17.126,19.655 16.921 C 19.450 16.741,19.285 16.680,19.002 16.680 C 18.610 16.680,18.509 16.744,17.906 17.379 C 17.606 17.695,17.221 18.066,17.050 18.204 C 14.619 20.165,11.324 20.551,8.529 19.200 C 7.477 18.693,6.612 18.015,5.847 17.100 C 4.102 15.014,3.551 12.113,4.403 9.502 C 4.953 7.820,6.121 6.296,7.620 5.309 C 9.618 3.993,12.199 3.653,14.498 4.403 C 16.180 4.953,17.704 6.121,18.691 7.620 C 19.345 8.612,19.818 9.920,19.942 11.080 L 19.970 11.340 19.631 11.010 C 19.232 10.624,19.038 10.522,18.698 10.521 C 17.900 10.518,17.428 11.408,17.882 12.060 C 17.943 12.148,18.467 12.692,19.047 13.268 C 20.166 14.381,20.295 14.479,20.651 14.486 C 20.906 14.491,21.080 14.443,21.260 14.318 C 21.447 14.187,23.430 12.197,23.551 12.019 C 23.668 11.846,23.714 11.545,23.662 11.291 C 23.516 10.572,22.662 10.278,22.057 10.739 L 21.931 10.836 21.904 10.609 C 21.860 10.236,21.721 9.610,21.573 9.120 C 21.210 7.921,20.643 6.829,19.847 5.800 C 19.510 5.365,18.639 4.494,18.200 4.154 C 16.133 2.555,13.646 1.818,11.080 2.045 M11.695 6.057 C 11.466 6.129,11.256 6.299,11.128 6.516 L 11.020 6.700 11.008 9.400 C 10.999 11.329,11.009 12.146,11.041 12.260 C 11.141 12.613,11.218 12.676,12.919 13.812 C 13.810 14.408,14.603 14.918,14.680 14.946 C 15.017 15.067,15.435 14.967,15.701 14.701 C 16.052 14.350,16.092 13.809,15.797 13.396 C 15.750 13.330,15.109 12.874,14.358 12.373 L 13.002 11.468 12.991 9.084 L 12.980 6.700 12.872 6.516 C 12.628 6.101,12.150 5.915,11.695 6.057 " stroke="none" fill-rule="evenodd" fill="black"></path></svg>