<svg width="24" height="24" viewBox="0 0 24 24" fill="none" xmlns="http://www.w3.org/2000/svg"><path d="M2.670 2.061 C 2.448 2.142,2.250 2.309,2.128 2.516 C 2.036 2.672,2.020 2.745,2.021 3.000 C 2.021 3.212,2.043 3.341,2.095 3.440 C 2.135 3.517,3.025 4.439,4.072 5.488 L 5.976 7.397 5.747 7.858 C 5.621 8.112,5.457 8.503,5.381 8.728 L 5.244 9.136 4.852 9.261 C 3.083 9.825,1.733 11.207,1.221 12.979 C 0.670 14.885,1.184 16.918,2.573 18.333 C 3.443 19.220,4.496 19.756,5.729 19.941 C 6.059 19.991,7.035 20.000,11.997 20.000 C 15.967 20.000,17.974 19.986,18.183 19.957 L 18.492 19.914 19.456 20.873 C 19.986 21.400,20.483 21.864,20.560 21.905 C 20.659 21.957,20.787 21.979,21.000 21.979 C 21.258 21.980,21.327 21.964,21.492 21.867 C 21.968 21.587,22.139 20.967,21.865 20.508 C 21.810 20.416,17.665 16.243,12.653 11.235 C 4.231 2.820,3.525 2.125,3.343 2.065 C 3.107 1.987,2.874 1.986,2.670 2.061 M11.261 4.044 C 10.443 4.130,10.078 4.274,9.879 4.587 C 9.536 5.130,9.717 5.762,10.300 6.050 C 10.500 6.149,10.685 6.163,11.023 6.103 C 12.810 5.789,14.423 6.306,15.642 7.585 C 16.280 8.254,16.665 8.987,16.880 9.940 C 16.984 10.401,17.060 10.569,17.246 10.748 C 17.420 10.914,17.588 10.981,17.979 11.040 C 19.165 11.219,20.108 11.902,20.645 12.971 C 21.040 13.755,21.100 14.716,20.810 15.619 C 20.643 16.142,20.683 16.470,20.952 16.768 C 21.233 17.079,21.668 17.197,22.027 17.059 C 22.300 16.955,22.541 16.716,22.640 16.452 C 23.398 14.425,22.917 12.159,21.407 10.647 C 20.751 9.990,20.002 9.531,19.144 9.259 L 18.749 9.134 18.633 8.777 C 18.490 8.338,18.158 7.640,17.901 7.241 C 16.468 5.011,13.886 3.768,11.261 4.044 M12.040 13.461 L 16.580 18.001 11.220 17.990 L 5.860 17.979 5.580 17.892 C 4.563 17.576,3.811 16.942,3.342 16.005 C 3.099 15.521,3.029 15.190,3.027 14.520 C 3.024 13.836,3.100 13.477,3.355 12.971 C 3.892 11.902,4.835 11.219,6.021 11.040 C 6.412 10.981,6.580 10.914,6.754 10.748 C 6.938 10.571,7.014 10.404,7.118 9.940 C 7.210 9.534,7.423 8.920,7.473 8.920 C 7.488 8.920,9.543 10.963,12.040 13.461 " stroke="none" fill-rule="evenodd" fill="black"></path></svg>