<svg width="24" height="24" viewBox="0 0 24 24" fill="none" xmlns="http://www.w3.org/2000/svg"><path d="M11.267 1.042 C 9.834 1.209,8.481 1.858,7.438 2.880 C 7.224 3.089,6.923 3.433,6.767 3.644 L 6.485 4.028 6.254 4.055 C 3.723 4.353,1.670 6.264,1.114 8.840 C 0.984 9.446,0.984 10.554,1.114 11.160 C 1.636 13.578,3.381 15.331,5.820 15.886 L 6.220 15.977 12.000 15.991 C 16.201 16.002,17.878 15.993,18.140 15.959 C 19.385 15.800,20.456 15.285,21.340 14.420 C 22.959 12.835,23.435 10.495,22.570 8.376 C 21.861 6.640,20.079 5.270,18.260 5.061 L 18.020 5.034 17.846 4.661 C 17.188 3.248,15.899 2.065,14.322 1.424 C 13.511 1.094,12.213 0.932,11.267 1.042 M12.680 3.058 C 13.173 3.133,13.536 3.247,13.974 3.463 C 15.075 4.008,15.860 4.907,16.278 6.100 C 16.538 6.841,16.734 6.975,17.620 7.015 C 18.387 7.050,18.946 7.237,19.540 7.660 C 19.817 7.857,20.205 8.253,20.396 8.533 C 20.595 8.824,20.826 9.344,20.906 9.680 C 21.004 10.091,21.004 10.909,20.906 11.320 C 20.760 11.933,20.388 12.571,19.915 13.023 C 19.466 13.450,19.034 13.701,18.420 13.892 L 18.140 13.979 12.391 13.990 C 6.696 14.002,6.638 14.001,6.232 13.918 C 4.565 13.579,3.309 12.267,3.058 10.605 C 2.986 10.121,2.986 9.879,3.058 9.395 C 3.280 7.926,4.324 6.690,5.755 6.203 C 6.062 6.099,6.682 6.001,7.040 6.000 C 7.517 5.999,7.794 5.804,8.119 5.240 C 8.583 4.437,9.220 3.854,10.086 3.442 C 10.917 3.046,11.768 2.920,12.680 3.058 M7.580 17.595 C 7.377 17.687,7.151 17.937,7.064 18.165 C 7.004 18.321,6.998 18.510,7.008 19.824 L 7.020 21.306 7.141 21.503 C 7.209 21.613,7.346 21.756,7.452 21.828 C 7.923 22.144,8.554 21.999,8.859 21.503 L 8.980 21.306 8.992 19.824 C 9.005 18.163,9.001 18.135,8.724 17.828 C 8.528 17.609,8.320 17.522,8.000 17.522 C 7.834 17.522,7.682 17.548,7.580 17.595 M15.580 17.595 C 15.377 17.687,15.151 17.937,15.064 18.165 C 15.004 18.321,14.998 18.510,15.008 19.824 L 15.020 21.306 15.141 21.503 C 15.446 21.999,16.077 22.144,16.548 21.828 C 16.654 21.756,16.791 21.613,16.859 21.503 L 16.980 21.306 16.992 19.824 C 17.005 18.163,17.001 18.135,16.724 17.828 C 16.528 17.609,16.320 17.522,16.000 17.522 C 15.834 17.522,15.682 17.548,15.580 17.595 M11.580 18.595 C 11.377 18.687,11.151 18.937,11.064 19.165 C 11.004 19.321,10.998 19.510,11.008 20.824 L 11.020 22.306 11.141 22.503 C 11.446 22.999,12.077 23.144,12.548 22.828 C 12.654 22.756,12.791 22.613,12.859 22.503 L 12.980 22.306 12.992 20.824 C 13.005 19.163,13.001 19.135,12.724 18.828 C 12.528 18.609,12.320 18.522,12.000 18.522 C 11.834 18.522,11.682 18.548,11.580 18.595 " stroke="none" fill-rule="evenodd" fill="black"></path></svg>