<svg width="24" height="24" viewBox="0 0 24 24" fill="none" xmlns="http://www.w3.org/2000/svg"><path d="M10.044 0.625 C 9.777 0.758,9.584 1.014,9.524 1.315 C 9.466 1.601,9.467 3.017,9.525 3.287 C 9.643 3.835,10.136 4.166,10.693 4.070 C 11.089 4.002,11.399 3.682,11.477 3.261 C 11.532 2.959,11.533 1.661,11.478 1.343 C 11.361 0.673,10.656 0.320,10.044 0.625 M3.920 2.904 C 3.439 3.111,3.192 3.731,3.403 4.200 C 3.500 4.416,4.777 5.723,5.010 5.844 C 5.231 5.958,5.472 5.980,5.724 5.906 C 6.269 5.746,6.554 5.201,6.396 4.620 C 6.361 4.491,6.213 4.319,5.626 3.729 C 5.190 3.289,4.836 2.966,4.738 2.919 C 4.539 2.823,4.125 2.815,3.920 2.904 M16.257 2.921 C 16.161 2.968,15.796 3.302,15.371 3.731 C 14.592 4.518,14.561 4.566,14.560 4.982 C 14.559 5.687,15.361 6.171,15.990 5.844 C 16.223 5.723,17.500 4.416,17.597 4.200 C 17.810 3.727,17.558 3.105,17.071 2.902 C 16.856 2.812,16.457 2.822,16.257 2.921 M9.891 5.041 C 7.986 5.282,6.391 6.587,5.759 8.422 C 5.533 9.080,5.441 10.061,5.576 10.380 C 5.725 10.731,6.125 10.999,6.500 10.999 C 6.870 10.999,7.277 10.730,7.418 10.392 C 7.452 10.311,7.497 10.050,7.519 9.812 C 7.569 9.282,7.609 9.107,7.757 8.780 C 8.063 8.106,8.592 7.581,9.286 7.264 C 9.718 7.067,9.956 7.020,10.500 7.023 C 11.035 7.026,11.344 7.090,11.756 7.282 C 12.289 7.530,12.661 7.859,13.029 8.404 C 13.289 8.788,13.466 8.942,13.741 9.022 C 14.091 9.124,14.452 9.023,14.706 8.753 C 14.915 8.530,14.978 8.371,14.978 8.060 C 14.977 7.740,14.910 7.584,14.556 7.080 C 14.144 6.494,13.404 5.865,12.723 5.522 C 12.395 5.356,11.851 5.173,11.473 5.100 C 11.064 5.021,10.280 4.992,9.891 5.041 M1.695 9.057 C 1.466 9.129,1.256 9.299,1.128 9.516 C 1.037 9.672,1.020 9.746,1.020 10.000 C 1.020 10.256,1.036 10.328,1.131 10.489 C 1.256 10.702,1.449 10.864,1.670 10.943 C 1.883 11.019,3.717 11.019,3.930 10.943 C 4.151 10.864,4.344 10.702,4.469 10.489 C 4.564 10.328,4.580 10.256,4.580 10.000 C 4.580 9.746,4.563 9.672,4.472 9.516 C 4.340 9.293,4.133 9.128,3.890 9.055 C 3.642 8.980,1.934 8.982,1.695 9.057 M17.095 9.057 C 16.866 9.129,16.656 9.299,16.528 9.516 C 16.437 9.672,16.420 9.746,16.420 10.000 C 16.420 10.256,16.436 10.328,16.531 10.489 C 16.656 10.702,16.849 10.864,17.070 10.943 C 17.283 11.019,19.117 11.019,19.330 10.943 C 19.551 10.864,19.744 10.702,19.869 10.489 C 19.964 10.328,19.980 10.256,19.980 10.000 C 19.980 9.746,19.963 9.672,19.872 9.516 C 19.740 9.293,19.533 9.128,19.290 9.055 C 19.042 8.980,17.334 8.982,17.095 9.057 M11.420 10.025 C 9.574 10.226,7.907 11.247,6.944 12.767 L 6.757 13.063 6.428 13.024 C 6.035 12.978,5.203 13.044,4.780 13.154 C 3.363 13.523,2.160 14.495,1.526 15.785 C 1.333 16.177,1.187 16.599,1.093 17.040 C 0.992 17.511,0.992 18.489,1.093 18.960 C 1.526 20.984,3.016 22.474,5.040 22.907 C 5.361 22.976,5.750 22.980,12.000 22.980 C 18.250 22.980,18.639 22.976,18.960 22.907 C 20.488 22.580,21.748 21.630,22.433 20.288 C 22.838 19.494,22.980 18.899,22.980 18.000 C 22.980 17.101,22.838 16.506,22.433 15.713 C 21.792 14.456,20.612 13.516,19.220 13.154 C 18.802 13.045,17.966 12.980,17.572 13.026 L 17.244 13.064 17.064 12.782 C 16.174 11.385,14.726 10.409,13.080 10.100 C 12.745 10.037,11.733 9.991,11.420 10.025 M13.011 12.136 C 14.226 12.447,15.236 13.340,15.715 14.528 C 15.867 14.904,16.121 15.118,16.516 15.203 C 16.692 15.241,16.762 15.233,17.108 15.135 C 17.449 15.038,17.568 15.024,18.020 15.026 C 18.452 15.027,18.594 15.044,18.861 15.125 C 19.814 15.415,20.584 16.185,20.875 17.139 C 20.958 17.412,20.973 17.542,20.973 18.000 C 20.973 18.458,20.958 18.588,20.875 18.861 C 20.582 19.822,19.820 20.580,18.840 20.886 L 18.540 20.980 12.000 20.980 L 5.460 20.980 5.160 20.886 C 4.180 20.580,3.418 19.822,3.125 18.861 C 3.042 18.588,3.027 18.458,3.027 18.000 C 3.027 17.542,3.042 17.412,3.125 17.139 C 3.416 16.185,4.186 15.415,5.139 15.125 C 5.406 15.044,5.548 15.027,5.980 15.026 C 6.432 15.024,6.551 15.038,6.891 15.134 C 7.244 15.234,7.304 15.241,7.499 15.200 C 7.886 15.120,8.132 14.900,8.301 14.485 C 8.826 13.192,10.012 12.264,11.423 12.041 C 11.822 11.979,12.570 12.023,13.011 12.136 " stroke="none" fill-rule="evenodd" fill="black"></path></svg>