<svg width="24" height="24" viewBox="0 0 24 24" fill="none" xmlns="http://www.w3.org/2000/svg"><path d="M11.267 1.042 C 9.834 1.209,8.481 1.858,7.438 2.880 C 7.224 3.089,6.923 3.433,6.767 3.644 L 6.485 4.028 6.254 4.055 C 3.723 4.353,1.670 6.264,1.114 8.840 C 0.984 9.446,0.984 10.554,1.114 11.160 C 1.636 13.578,3.381 15.331,5.820 15.886 L 6.220 15.977 12.000 15.991 C 16.201 16.002,17.878 15.993,18.140 15.959 C 19.385 15.800,20.456 15.285,21.340 14.420 C 22.959 12.835,23.435 10.495,22.570 8.376 C 21.861 6.640,20.079 5.270,18.260 5.061 L 18.020 5.034 17.846 4.661 C 17.188 3.248,15.899 2.065,14.322 1.424 C 13.511 1.094,12.213 0.932,11.267 1.042 M12.680 3.058 C 13.173 3.133,13.536 3.247,13.974 3.463 C 15.075 4.008,15.860 4.907,16.278 6.100 C 16.538 6.841,16.734 6.975,17.620 7.015 C 18.387 7.050,18.946 7.237,19.540 7.660 C 19.817 7.857,20.205 8.253,20.396 8.533 C 20.595 8.824,20.826 9.344,20.906 9.680 C 21.004 10.091,21.004 10.909,20.906 11.320 C 20.760 11.933,20.388 12.571,19.915 13.023 C 19.466 13.450,19.034 13.701,18.420 13.892 L 18.140 13.979 12.391 13.990 C 6.696 14.002,6.638 14.001,6.232 13.918 C 4.565 13.579,3.309 12.267,3.058 10.605 C 2.986 10.121,2.986 9.879,3.058 9.395 C 3.280 7.926,4.324 6.690,5.755 6.203 C 6.062 6.099,6.682 6.001,7.040 6.000 C 7.517 5.999,7.794 5.804,8.119 5.240 C 8.583 4.437,9.220 3.854,10.086 3.442 C 10.917 3.046,11.768 2.920,12.680 3.058 M4.695 17.057 C 4.466 17.129,4.256 17.299,4.128 17.516 C 4.037 17.672,4.020 17.746,4.020 18.000 C 4.020 18.256,4.036 18.328,4.131 18.489 C 4.256 18.702,4.449 18.864,4.670 18.943 C 4.885 19.020,7.115 19.020,7.330 18.943 C 7.551 18.864,7.744 18.702,7.869 18.489 C 7.964 18.328,7.980 18.256,7.980 18.000 C 7.980 17.746,7.963 17.672,7.872 17.516 C 7.740 17.293,7.533 17.128,7.290 17.055 C 7.039 16.979,4.937 16.981,4.695 17.057 M9.695 17.057 C 9.466 17.129,9.256 17.299,9.128 17.516 C 9.037 17.672,9.020 17.746,9.020 18.000 C 9.020 18.256,9.036 18.328,9.131 18.489 C 9.256 18.702,9.449 18.864,9.670 18.943 C 9.892 19.022,19.108 19.022,19.330 18.943 C 19.551 18.864,19.744 18.702,19.869 18.489 C 19.964 18.328,19.980 18.256,19.980 18.000 C 19.980 17.746,19.963 17.672,19.872 17.516 C 19.740 17.293,19.533 17.128,19.290 17.055 C 19.029 16.976,9.946 16.978,9.695 17.057 M5.695 20.057 C 5.466 20.129,5.256 20.299,5.128 20.516 C 5.037 20.672,5.020 20.746,5.020 21.000 C 5.020 21.256,5.036 21.328,5.131 21.489 C 5.256 21.702,5.449 21.864,5.670 21.943 C 5.891 22.022,13.109 22.022,13.330 21.943 C 13.551 21.864,13.744 21.702,13.869 21.489 C 13.964 21.328,13.980 21.256,13.980 21.000 C 13.980 20.746,13.963 20.672,13.872 20.516 C 13.740 20.293,13.533 20.128,13.290 20.055 C 13.030 19.977,5.945 19.979,5.695 20.057 M15.695 20.057 C 15.466 20.129,15.256 20.299,15.128 20.516 C 15.037 20.672,15.020 20.746,15.020 21.000 C 15.020 21.256,15.036 21.328,15.131 21.489 C 15.256 21.702,15.449 21.864,15.670 21.943 C 15.885 22.020,18.115 22.020,18.330 21.943 C 18.551 21.864,18.744 21.702,18.869 21.489 C 18.964 21.328,18.980 21.256,18.980 21.000 C 18.980 20.746,18.963 20.672,18.872 20.516 C 18.740 20.293,18.533 20.128,18.290 20.055 C 18.039 19.979,15.937 19.981,15.695 20.057 " stroke="none" fill-rule="evenodd" fill="black"></path></svg>