<svg width="24" height="24" viewBox="0 0 24 24" fill="none" xmlns="http://www.w3.org/2000/svg"><path d="M11.300 1.045 C 9.210 1.241,7.256 2.442,6.099 4.241 C 5.842 4.640,5.510 5.338,5.367 5.777 L 5.251 6.134 4.856 6.260 C 2.481 7.017,0.911 9.239,1.012 11.700 C 1.057 12.787,1.343 13.665,1.949 14.578 C 2.446 15.324,3.394 16.158,3.820 16.222 C 4.243 16.285,4.637 16.104,4.859 15.743 C 4.964 15.573,4.980 15.508,4.980 15.263 C 4.980 14.847,4.877 14.665,4.459 14.338 C 3.747 13.782,3.328 13.168,3.112 12.364 C 2.993 11.920,2.992 11.064,3.110 10.614 C 3.207 10.244,3.443 9.749,3.661 9.457 C 4.262 8.656,5.042 8.188,6.021 8.040 C 6.412 7.981,6.580 7.914,6.754 7.748 C 6.940 7.569,7.016 7.401,7.120 6.940 C 7.231 6.446,7.393 5.993,7.583 5.645 C 8.295 4.344,9.605 3.369,11.001 3.102 C 12.739 2.770,14.426 3.309,15.642 4.585 C 16.280 5.254,16.665 5.987,16.880 6.940 C 16.984 7.401,17.060 7.569,17.246 7.748 C 17.420 7.914,17.588 7.981,17.979 8.040 C 18.958 8.188,19.738 8.656,20.339 9.457 C 20.557 9.749,20.793 10.244,20.890 10.614 C 21.008 11.064,21.007 11.920,20.888 12.364 C 20.672 13.168,20.253 13.782,19.541 14.338 C 19.123 14.665,19.020 14.847,19.020 15.263 C 19.020 15.508,19.036 15.573,19.141 15.743 C 19.363 16.104,19.757 16.285,20.180 16.222 C 20.606 16.158,21.554 15.324,22.051 14.578 C 22.657 13.665,22.943 12.787,22.988 11.700 C 23.050 10.194,22.473 8.715,21.407 7.647 C 20.751 6.990,20.002 6.531,19.144 6.259 L 18.749 6.134 18.633 5.777 C 18.490 5.338,18.158 4.640,17.901 4.241 C 16.470 2.014,13.954 0.796,11.300 1.045 M8.748 12.055 C 8.487 12.153,8.303 12.301,8.193 12.504 C 7.995 12.869,5.275 19.729,5.253 19.917 C 5.225 20.168,5.356 20.507,5.563 20.714 C 6.039 21.190,6.847 21.040,7.150 20.420 C 7.193 20.332,7.860 18.676,8.634 16.739 C 9.889 13.597,10.040 13.194,10.039 12.999 C 10.038 12.622,9.831 12.281,9.503 12.112 C 9.301 12.008,8.946 11.981,8.748 12.055 M16.748 12.055 C 16.487 12.153,16.303 12.301,16.193 12.504 C 15.995 12.869,13.275 19.729,13.253 19.917 C 13.225 20.168,13.356 20.507,13.563 20.714 C 14.039 21.190,14.847 21.040,15.150 20.420 C 15.193 20.332,15.860 18.676,16.634 16.739 C 17.889 13.597,18.040 13.194,18.039 12.999 C 18.038 12.622,17.831 12.281,17.503 12.112 C 17.301 12.008,16.946 11.981,16.748 12.055 M11.948 14.055 C 11.687 14.153,11.503 14.301,11.393 14.504 C 11.195 14.869,8.475 21.729,8.453 21.917 C 8.425 22.168,8.556 22.507,8.763 22.714 C 9.239 23.190,10.047 23.040,10.350 22.420 C 10.393 22.332,11.060 20.676,11.834 18.739 C 13.089 15.597,13.240 15.194,13.239 14.999 C 13.238 14.622,13.031 14.281,12.703 14.112 C 12.501 14.008,12.146 13.981,11.948 14.055 " stroke="none" fill-rule="evenodd" fill="black"></path></svg>