<svg width="24" height="24" viewBox="0 0 24 24" fill="none" xmlns="http://www.w3.org/2000/svg"><path d="M11.300 1.045 C 9.210 1.241,7.256 2.442,6.099 4.241 C 5.842 4.640,5.510 5.338,5.367 5.777 L 5.251 6.134 4.856 6.260 C 2.481 7.017,0.911 9.239,1.012 11.700 C 1.057 12.787,1.343 13.665,1.949 14.578 C 2.446 15.324,3.394 16.158,3.820 16.222 C 4.243 16.285,4.637 16.104,4.859 15.743 C 4.964 15.573,4.980 15.508,4.980 15.263 C 4.980 14.847,4.877 14.665,4.459 14.338 C 3.747 13.782,3.328 13.168,3.112 12.364 C 2.993 11.920,2.992 11.064,3.110 10.614 C 3.207 10.244,3.443 9.749,3.661 9.457 C 4.262 8.656,5.042 8.188,6.021 8.040 C 6.412 7.981,6.580 7.914,6.754 7.748 C 6.940 7.569,7.016 7.401,7.120 6.940 C 7.231 6.446,7.393 5.993,7.583 5.645 C 8.295 4.344,9.605 3.369,11.001 3.102 C 12.739 2.770,14.426 3.309,15.642 4.585 C 16.280 5.254,16.665 5.987,16.880 6.940 C 16.984 7.401,17.060 7.569,17.246 7.748 C 17.420 7.914,17.588 7.981,17.979 8.040 C 18.958 8.188,19.738 8.656,20.339 9.457 C 20.557 9.749,20.793 10.244,20.890 10.614 C 21.008 11.064,21.007 11.920,20.888 12.364 C 20.672 13.168,20.253 13.782,19.541 14.338 C 19.123 14.665,19.020 14.847,19.020 15.263 C 19.020 15.508,19.036 15.573,19.141 15.743 C 19.363 16.104,19.757 16.285,20.180 16.222 C 20.606 16.158,21.554 15.324,22.051 14.578 C 22.657 13.665,22.943 12.787,22.988 11.700 C 23.050 10.194,22.473 8.715,21.407 7.647 C 20.751 6.990,20.002 6.531,19.144 6.259 L 18.749 6.134 18.633 5.777 C 18.490 5.338,18.158 4.640,17.901 4.241 C 16.470 2.014,13.954 0.796,11.300 1.045 M7.695 14.055 C 7.464 14.130,7.255 14.300,7.128 14.516 C 7.037 14.672,7.020 14.746,7.020 15.000 C 7.020 15.257,7.036 15.327,7.133 15.492 C 7.651 16.374,8.998 16.018,8.998 15.000 C 8.998 14.623,8.792 14.281,8.463 14.112 C 8.265 14.010,7.911 13.984,7.695 14.055 M15.695 14.055 C 15.464 14.130,15.255 14.300,15.128 14.516 C 15.037 14.672,15.020 14.746,15.020 15.000 C 15.020 15.257,15.036 15.327,15.133 15.492 C 15.651 16.374,16.998 16.018,16.998 15.000 C 16.998 14.623,16.792 14.281,16.463 14.112 C 16.265 14.010,15.911 13.984,15.695 14.055 M11.695 16.055 C 11.464 16.130,11.255 16.300,11.128 16.516 C 11.037 16.672,11.020 16.746,11.020 17.000 C 11.020 17.257,11.036 17.327,11.133 17.492 C 11.651 18.374,12.998 18.018,12.998 17.000 C 12.998 16.623,12.792 16.281,12.463 16.112 C 12.265 16.010,11.911 15.984,11.695 16.055 M7.695 18.055 C 7.464 18.130,7.255 18.300,7.128 18.516 C 7.037 18.672,7.020 18.746,7.020 19.000 C 7.020 19.257,7.036 19.327,7.133 19.492 C 7.651 20.374,8.998 20.018,8.998 19.000 C 8.998 18.623,8.792 18.281,8.463 18.112 C 8.265 18.010,7.911 17.984,7.695 18.055 M15.695 18.055 C 15.464 18.130,15.255 18.300,15.128 18.516 C 15.037 18.672,15.020 18.746,15.020 19.000 C 15.020 19.257,15.036 19.327,15.133 19.492 C 15.651 20.374,16.998 20.018,16.998 19.000 C 16.998 18.623,16.792 18.281,16.463 18.112 C 16.265 18.010,15.911 17.984,15.695 18.055 M11.695 20.055 C 11.464 20.130,11.255 20.300,11.128 20.516 C 11.037 20.672,11.020 20.746,11.020 21.000 C 11.020 21.257,11.036 21.327,11.133 21.492 C 11.651 22.374,12.998 22.018,12.998 21.000 C 12.998 20.623,12.792 20.281,12.463 20.112 C 12.265 20.010,11.911 19.984,11.695 20.055 " stroke="none" fill-rule="evenodd" fill="black"></path></svg>