<svg width="24" height="24" viewBox="0 0 24 24" fill="none" xmlns="http://www.w3.org/2000/svg"><path d="M14.680 1.262 C 13.615 1.583,12.725 2.114,11.935 2.898 C 11.458 3.372,11.163 3.748,10.864 4.264 C 10.151 5.493,9.862 6.982,10.066 8.380 C 10.170 9.100,10.181 9.054,9.900 9.089 C 9.768 9.106,9.480 9.164,9.260 9.219 C 7.358 9.695,5.580 11.123,4.757 12.838 L 4.587 13.192 4.197 13.339 C 3.513 13.598,2.943 13.979,2.415 14.529 C 1.716 15.258,1.307 16.024,1.096 17.000 C 0.993 17.475,0.992 18.488,1.093 18.960 C 1.523 20.968,2.959 22.418,5.000 22.905 C 5.280 22.972,5.712 22.978,11.540 22.991 C 16.074 23.001,17.878 22.993,18.140 22.959 C 19.384 22.801,20.456 22.285,21.340 21.420 C 22.959 19.835,23.435 17.495,22.570 15.376 C 22.164 14.381,21.365 13.448,20.376 12.811 C 20.304 12.765,20.304 12.760,20.370 12.719 C 20.535 12.618,20.971 12.221,21.273 11.898 C 21.875 11.254,22.355 10.451,22.638 9.613 C 22.729 9.345,22.814 9.037,22.827 8.928 C 22.878 8.490,22.588 8.042,22.161 7.900 C 21.935 7.825,21.859 7.828,21.160 7.939 C 20.673 8.016,20.223 8.016,19.775 7.938 C 18.586 7.731,17.598 7.120,16.871 6.143 C 16.135 5.154,15.848 3.825,16.104 2.587 C 16.204 2.100,16.165 1.836,15.948 1.555 C 15.668 1.192,15.241 1.093,14.680 1.262 M4.695 2.057 C 4.466 2.129,4.256 2.299,4.128 2.516 C 4.025 2.692,4.019 2.728,4.007 3.350 L 3.993 4.000 3.443 4.000 C 2.648 4.000,2.366 4.111,2.128 4.516 C 2.037 4.672,2.020 4.746,2.020 5.000 C 2.020 5.256,2.036 5.328,2.131 5.489 C 2.256 5.702,2.449 5.864,2.670 5.943 C 2.768 5.978,3.022 5.997,3.407 5.998 L 3.993 6.000 4.007 6.653 C 4.020 7.300,4.021 7.308,4.141 7.503 C 4.543 8.156,5.457 8.156,5.859 7.503 C 5.979 7.308,5.980 7.300,5.993 6.653 L 6.007 6.000 6.593 5.998 C 6.978 5.997,7.232 5.978,7.330 5.943 C 7.551 5.864,7.744 5.702,7.869 5.489 C 7.964 5.328,7.980 5.256,7.980 5.000 C 7.980 4.746,7.963 4.672,7.872 4.516 C 7.634 4.111,7.352 4.000,6.557 4.000 L 6.007 4.000 5.993 3.350 C 5.981 2.728,5.975 2.692,5.872 2.516 C 5.628 2.101,5.150 1.915,4.695 2.057 M14.100 4.580 C 14.340 6.111,15.226 7.613,16.460 8.580 C 17.501 9.396,18.610 9.836,19.990 9.982 L 20.239 10.008 20.110 10.192 C 19.910 10.475,19.408 10.957,19.067 11.193 C 18.468 11.606,17.662 11.910,16.980 11.978 L 16.740 12.002 16.573 11.771 C 15.709 10.573,14.133 9.539,12.646 9.197 L 12.293 9.116 12.228 8.908 C 11.886 7.819,11.951 6.611,12.403 5.645 C 12.712 4.984,13.271 4.280,13.780 3.910 L 13.980 3.764 14.012 3.992 C 14.029 4.117,14.069 4.382,14.100 4.580 M11.601 11.042 C 13.058 11.220,14.372 12.039,15.160 13.260 C 15.532 13.837,15.695 14.010,15.945 14.095 C 16.183 14.177,16.390 14.176,16.720 14.094 C 17.118 13.995,18.011 14.004,18.405 14.111 C 19.169 14.319,19.947 14.874,20.396 15.533 C 20.595 15.824,20.826 16.344,20.906 16.680 C 21.004 17.091,21.004 17.909,20.906 18.320 C 20.613 19.547,19.628 20.548,18.360 20.906 C 18.113 20.976,17.793 20.980,11.780 20.980 L 5.460 20.980 5.160 20.886 C 4.180 20.580,3.404 19.808,3.131 18.865 C 2.643 17.179,3.632 15.483,5.341 15.078 C 5.537 15.031,5.744 14.969,5.799 14.940 C 6.006 14.831,6.159 14.614,6.362 14.144 C 6.699 13.358,6.983 12.939,7.535 12.409 C 8.634 11.354,10.108 10.858,11.601 11.042 " stroke="none" fill-rule="evenodd" fill="black"></path></svg>