<svg width="24" height="24" viewBox="0 0 24 24" fill="none" xmlns="http://www.w3.org/2000/svg"><path d="M11.267 1.042 C 9.834 1.209,8.481 1.858,7.438 2.880 C 7.224 3.089,6.923 3.433,6.767 3.644 L 6.485 4.028 6.254 4.055 C 3.723 4.353,1.670 6.264,1.114 8.840 C 0.984 9.446,0.984 10.554,1.114 11.160 C 1.636 13.578,3.381 15.331,5.820 15.886 L 6.220 15.977 12.000 15.991 C 16.201 16.002,17.878 15.993,18.140 15.959 C 19.385 15.800,20.456 15.285,21.340 14.420 C 22.959 12.835,23.435 10.495,22.570 8.376 C 21.861 6.640,20.079 5.270,18.260 5.061 L 18.020 5.034 17.846 4.661 C 17.188 3.248,15.899 2.065,14.322 1.424 C 13.511 1.094,12.213 0.932,11.267 1.042 M12.680 3.058 C 13.173 3.133,13.536 3.247,13.974 3.463 C 15.075 4.008,15.860 4.907,16.278 6.100 C 16.538 6.841,16.734 6.975,17.620 7.015 C 18.387 7.050,18.946 7.237,19.540 7.660 C 19.817 7.857,20.205 8.253,20.396 8.533 C 20.595 8.824,20.826 9.344,20.906 9.680 C 21.004 10.091,21.004 10.909,20.906 11.320 C 20.760 11.933,20.388 12.571,19.915 13.023 C 19.466 13.450,19.034 13.701,18.420 13.892 L 18.140 13.979 12.391 13.990 C 6.696 14.002,6.638 14.001,6.232 13.918 C 4.565 13.579,3.309 12.267,3.058 10.605 C 2.986 10.121,2.986 9.879,3.058 9.395 C 3.280 7.926,4.324 6.690,5.755 6.203 C 6.062 6.099,6.682 6.001,7.040 6.000 C 7.517 5.999,7.794 5.804,8.119 5.240 C 8.583 4.437,9.220 3.854,10.086 3.442 C 10.917 3.046,11.768 2.920,12.680 3.058 M7.617 17.577 C 7.424 17.661,7.203 17.875,7.103 18.076 C 6.885 18.515,6.025 20.753,6.009 20.925 C 5.956 21.476,6.439 22.000,7.000 22.000 C 7.241 22.000,7.521 21.881,7.700 21.702 C 7.847 21.555,7.925 21.388,8.417 20.159 C 9.038 18.607,9.070 18.478,8.920 18.129 C 8.823 17.902,8.589 17.665,8.377 17.576 C 8.208 17.506,7.779 17.506,7.617 17.577 M11.617 17.577 C 11.424 17.661,11.203 17.875,11.103 18.076 C 10.885 18.515,10.025 20.753,10.009 20.925 C 9.956 21.476,10.439 22.000,11.000 22.000 C 11.241 22.000,11.521 21.881,11.700 21.702 C 11.847 21.555,11.925 21.388,12.417 20.159 C 13.038 18.607,13.070 18.478,12.920 18.129 C 12.823 17.902,12.589 17.665,12.377 17.576 C 12.208 17.506,11.779 17.506,11.617 17.577 M15.617 17.577 C 15.424 17.661,15.203 17.875,15.103 18.076 C 14.885 18.515,14.025 20.753,14.009 20.925 C 13.956 21.476,14.439 22.000,15.000 22.000 C 15.241 22.000,15.521 21.881,15.700 21.702 C 15.847 21.555,15.925 21.388,16.417 20.159 C 17.038 18.607,17.070 18.478,16.920 18.129 C 16.823 17.902,16.589 17.665,16.377 17.576 C 16.208 17.506,15.779 17.506,15.617 17.577 " stroke="none" fill-rule="evenodd" fill="black"></path></svg>