<svg width="24" height="24" viewBox="0 0 24 24" fill="none" xmlns="http://www.w3.org/2000/svg"><path d="M9.840 1.025 C 7.747 1.216,5.948 2.050,4.499 3.499 C 3.077 4.920,2.242 6.684,2.037 8.700 C 1.945 9.612,2.067 11.065,2.270 11.460 C 2.638 12.175,3.671 12.168,4.035 11.448 C 4.157 11.207,4.169 11.068,4.105 10.612 C 3.901 9.168,4.045 8.031,4.585 6.828 C 5.702 4.342,8.309 2.801,11.004 3.034 C 11.639 3.089,12.018 3.165,12.559 3.345 C 14.459 3.976,15.961 5.462,16.638 7.382 C 16.705 7.572,16.814 7.988,16.879 8.306 C 16.947 8.643,17.032 8.943,17.081 9.021 C 17.509 9.715,18.544 9.622,18.862 8.861 C 18.970 8.603,18.912 8.054,18.695 7.260 C 17.803 4.007,15.053 1.575,11.729 1.100 C 11.310 1.041,10.167 0.995,9.840 1.025 M11.240 9.045 C 10.467 9.123,9.768 9.319,9.049 9.662 C 7.639 10.332,6.486 11.422,5.813 12.719 L 5.658 13.017 5.299 13.063 C 4.491 13.167,3.785 13.451,3.068 13.963 C 2.067 14.677,1.364 15.771,1.093 17.040 C 0.992 17.511,0.992 18.489,1.093 18.960 C 1.523 20.968,2.959 22.418,5.000 22.905 C 5.280 22.972,5.712 22.978,11.540 22.991 C 16.074 23.001,17.878 22.993,18.140 22.959 C 19.384 22.801,20.456 22.285,21.340 21.420 C 23.309 19.492,23.553 16.446,21.915 14.237 C 21.002 13.006,19.614 12.207,18.107 12.046 C 17.813 12.015,17.743 11.994,17.692 11.921 C 17.343 11.422,16.732 10.797,16.232 10.428 C 14.749 9.331,13.056 8.862,11.240 9.045 M13.060 11.116 C 13.669 11.247,14.261 11.505,14.840 11.891 C 15.262 12.173,15.887 12.818,16.205 13.300 C 16.508 13.758,16.557 13.808,16.801 13.914 C 16.938 13.973,17.113 13.996,17.540 14.013 C 18.191 14.038,18.568 14.123,19.005 14.342 C 19.562 14.621,20.071 15.056,20.396 15.533 C 20.595 15.824,20.826 16.344,20.906 16.680 C 21.004 17.091,21.004 17.909,20.906 18.320 C 20.613 19.547,19.628 20.548,18.360 20.906 C 18.113 20.976,17.793 20.980,11.780 20.980 L 5.460 20.980 5.160 20.886 C 4.180 20.580,3.418 19.822,3.125 18.861 C 3.042 18.588,3.027 18.458,3.027 18.000 C 3.027 17.542,3.042 17.412,3.125 17.139 C 3.416 16.183,4.195 15.406,5.139 15.128 C 5.378 15.058,5.613 15.027,6.060 15.005 C 6.721 14.973,6.815 14.944,7.054 14.698 C 7.130 14.619,7.233 14.453,7.283 14.328 C 7.431 13.954,7.706 13.417,7.885 13.150 C 8.120 12.801,8.799 12.134,9.178 11.879 C 9.914 11.387,10.505 11.169,11.500 11.024 C 11.764 10.985,12.713 11.041,13.060 11.116 " stroke="none" fill-rule="evenodd" fill="black"></path></svg>