<svg width="24" height="24" viewBox="0 0 24 24" fill="none" xmlns="http://www.w3.org/2000/svg"><path d="M11.300 4.045 C 9.210 4.241,7.256 5.442,6.099 7.241 C 5.842 7.640,5.510 8.338,5.367 8.777 L 5.251 9.134 4.856 9.260 C 3.083 9.825,1.733 11.206,1.221 12.979 C 0.670 14.885,1.184 16.918,2.573 18.333 C 3.443 19.220,4.496 19.756,5.729 19.941 C 6.059 19.991,7.036 20.000,12.000 20.000 C 18.363 20.000,18.246 20.004,19.001 19.784 C 19.694 19.583,20.199 19.333,20.763 18.915 C 23.125 17.164,23.695 13.914,22.072 11.456 C 21.400 10.439,20.328 9.634,19.144 9.259 L 18.749 9.134 18.633 8.777 C 18.490 8.338,18.158 7.640,17.901 7.241 C 16.470 5.014,13.954 3.796,11.300 4.045 M12.620 6.044 C 13.781 6.187,14.808 6.710,15.642 7.585 C 16.280 8.254,16.665 8.987,16.880 9.940 C 16.984 10.401,17.060 10.569,17.246 10.748 C 17.420 10.914,17.588 10.981,17.979 11.040 C 19.165 11.219,20.108 11.902,20.645 12.971 C 20.891 13.458,20.974 13.839,20.976 14.480 C 20.979 15.120,20.910 15.458,20.678 15.954 C 20.223 16.924,19.409 17.610,18.360 17.906 C 18.113 17.976,17.800 17.980,12.000 17.980 C 6.200 17.980,5.887 17.976,5.640 17.906 C 4.613 17.616,3.820 16.960,3.342 16.005 C 3.099 15.521,3.029 15.190,3.027 14.520 C 3.024 13.836,3.100 13.477,3.355 12.971 C 3.892 11.902,4.835 11.219,6.021 11.040 C 6.412 10.981,6.580 10.914,6.754 10.748 C 6.940 10.569,7.016 10.401,7.120 9.940 C 7.337 8.974,7.720 8.251,8.378 7.566 C 9.507 6.390,11.019 5.848,12.620 6.044 " stroke="none" fill-rule="evenodd" fill="black"></path></svg>