<svg width="24" height="24" viewBox="0 0 24 24" fill="none" xmlns="http://www.w3.org/2000/svg"><path d="M11.300 1.045 C 9.210 1.241,7.256 2.442,6.099 4.241 C 5.842 4.640,5.510 5.338,5.367 5.777 L 5.251 6.134 4.856 6.260 C 3.611 6.657,2.582 7.443,1.874 8.537 C 0.973 9.929,0.758 11.720,1.302 13.305 C 1.826 14.830,3.149 16.167,4.624 16.663 C 4.950 16.772,5.116 16.770,5.400 16.653 C 5.851 16.468,6.113 15.868,5.941 15.416 C 5.823 15.107,5.666 14.969,5.166 14.734 C 4.485 14.414,4.066 14.083,3.662 13.543 C 2.926 12.561,2.798 11.077,3.355 9.971 C 3.892 8.902,4.835 8.219,6.021 8.040 C 6.412 7.981,6.580 7.914,6.754 7.748 C 6.940 7.569,7.016 7.401,7.120 6.940 C 7.231 6.446,7.393 5.993,7.583 5.645 C 8.295 4.344,9.605 3.369,11.001 3.102 C 12.739 2.770,14.426 3.309,15.642 4.585 C 16.280 5.254,16.665 5.987,16.880 6.940 C 16.984 7.401,17.060 7.569,17.246 7.748 C 17.420 7.914,17.588 7.981,17.979 8.040 C 19.165 8.219,20.108 8.902,20.645 9.971 C 21.202 11.077,21.074 12.561,20.338 13.543 C 19.934 14.083,19.515 14.414,18.834 14.734 C 18.334 14.969,18.177 15.107,18.059 15.416 C 17.887 15.868,18.149 16.468,18.600 16.653 C 18.884 16.770,19.050 16.772,19.376 16.663 C 20.240 16.372,21.115 15.761,21.715 15.026 C 22.529 14.030,22.932 12.989,22.986 11.740 C 23.052 10.196,22.486 8.728,21.407 7.647 C 20.751 6.990,20.002 6.531,19.144 6.259 L 18.749 6.134 18.633 5.777 C 18.490 5.338,18.158 4.640,17.901 4.241 C 16.470 2.014,13.954 0.796,11.300 1.045 M12.668 9.061 C 12.585 9.092,12.462 9.156,12.395 9.204 C 12.259 9.300,8.138 15.450,8.054 15.680 C 7.893 16.126,8.117 16.673,8.550 16.886 L 8.740 16.980 10.930 17.000 L 13.120 17.020 11.599 19.300 C 10.763 20.554,10.061 21.643,10.040 21.720 C 9.917 22.158,10.108 22.632,10.499 22.862 C 10.713 22.987,11.045 23.030,11.264 22.961 C 11.643 22.841,11.610 22.884,13.805 19.592 C 14.952 17.873,15.917 16.386,15.950 16.289 C 16.109 15.823,15.853 15.283,15.373 15.070 C 15.289 15.033,14.699 15.015,13.070 15.000 L 10.880 14.980 12.384 12.725 C 13.211 11.484,13.913 10.398,13.944 10.310 C 14.212 9.550,13.428 8.783,12.668 9.061 " stroke="none" fill-rule="evenodd" fill="black"></path></svg>