<svg width="24" height="24" viewBox="0 0 24 24" fill="none" xmlns="http://www.w3.org/2000/svg"><path d="M11.267 1.042 C 9.834 1.209,8.481 1.858,7.438 2.880 C 7.224 3.089,6.923 3.433,6.767 3.644 L 6.485 4.028 6.254 4.055 C 3.723 4.353,1.670 6.264,1.114 8.840 C 0.984 9.446,0.984 10.554,1.114 11.160 C 1.636 13.578,3.381 15.331,5.820 15.886 L 6.220 15.977 12.000 15.991 C 16.201 16.002,17.878 15.993,18.140 15.959 C 19.385 15.800,20.456 15.285,21.340 14.420 C 22.959 12.835,23.435 10.495,22.570 8.376 C 21.861 6.640,20.079 5.270,18.260 5.061 L 18.020 5.034 17.846 4.661 C 17.188 3.248,15.899 2.065,14.322 1.424 C 13.511 1.094,12.213 0.932,11.267 1.042 M12.680 3.058 C 13.173 3.133,13.536 3.247,13.974 3.463 C 15.075 4.008,15.860 4.907,16.278 6.100 C 16.538 6.841,16.734 6.975,17.620 7.015 C 18.387 7.050,18.946 7.237,19.540 7.660 C 19.817 7.857,20.205 8.253,20.396 8.533 C 20.595 8.824,20.826 9.344,20.906 9.680 C 21.004 10.091,21.004 10.909,20.906 11.320 C 20.760 11.933,20.388 12.571,19.915 13.023 C 19.466 13.450,19.034 13.701,18.420 13.892 L 18.140 13.979 12.391 13.990 C 6.696 14.002,6.638 14.001,6.232 13.918 C 4.565 13.579,3.309 12.267,3.058 10.605 C 2.986 10.121,2.986 9.879,3.058 9.395 C 3.280 7.926,4.324 6.690,5.755 6.203 C 6.062 6.099,6.682 6.001,7.040 6.000 C 7.517 5.999,7.794 5.804,8.119 5.240 C 8.583 4.437,9.220 3.854,10.086 3.442 C 10.917 3.046,11.768 2.920,12.680 3.058 M7.695 17.055 C 7.464 17.130,7.255 17.300,7.128 17.516 C 7.037 17.672,7.020 17.746,7.020 18.000 C 7.020 18.257,7.036 18.327,7.133 18.492 C 7.651 19.374,8.998 19.018,8.998 18.000 C 8.998 17.623,8.792 17.281,8.463 17.112 C 8.265 17.010,7.911 16.984,7.695 17.055 M15.695 17.055 C 15.464 17.130,15.255 17.300,15.128 17.516 C 15.037 17.672,15.020 17.746,15.020 18.000 C 15.020 18.257,15.036 18.327,15.133 18.492 C 15.651 19.374,16.998 19.018,16.998 18.000 C 16.998 17.623,16.792 17.281,16.463 17.112 C 16.265 17.010,15.911 16.984,15.695 17.055 M11.600 17.584 C 11.267 17.728,11.001 18.135,11.001 18.500 C 11.001 18.745,11.136 19.049,11.325 19.228 C 11.704 19.587,12.339 19.575,12.712 19.202 C 12.898 19.015,12.968 18.859,12.991 18.572 C 13.025 18.144,12.808 17.771,12.423 17.596 C 12.222 17.504,11.798 17.498,11.600 17.584 M7.695 20.055 C 7.464 20.130,7.255 20.300,7.128 20.516 C 7.037 20.672,7.020 20.746,7.020 21.000 C 7.020 21.257,7.036 21.327,7.133 21.492 C 7.651 22.374,8.998 22.018,8.998 21.000 C 8.998 20.623,8.792 20.281,8.463 20.112 C 8.265 20.010,7.911 19.984,7.695 20.055 M15.695 20.055 C 15.464 20.130,15.255 20.300,15.128 20.516 C 15.037 20.672,15.020 20.746,15.020 21.000 C 15.020 21.257,15.036 21.327,15.133 21.492 C 15.651 22.374,16.998 22.018,16.998 21.000 C 16.998 20.623,16.792 20.281,16.463 20.112 C 16.265 20.010,15.911 19.984,15.695 20.055 M11.600 20.584 C 11.267 20.728,11.001 21.135,11.001 21.500 C 11.001 21.745,11.136 22.049,11.325 22.228 C 11.704 22.587,12.339 22.575,12.712 22.202 C 12.898 22.015,12.968 21.859,12.991 21.572 C 13.025 21.144,12.808 20.771,12.423 20.596 C 12.222 20.504,11.798 20.498,11.600 20.584 " stroke="none" fill-rule="evenodd" fill="black"></path></svg>