<svg width="24" height="24" viewBox="0 0 24 24" fill="none" xmlns="http://www.w3.org/2000/svg"><path d="M11.571 1.239 C 11.478 1.259,11.280 1.336,11.131 1.411 C 10.804 1.574,2.081 7.240,1.741 7.510 C 1.447 7.745,1.232 8.046,1.112 8.394 L 1.020 8.660 1.020 12.000 L 1.020 15.340 1.112 15.606 C 1.231 15.951,1.444 16.251,1.735 16.486 C 1.969 16.674,10.511 22.244,11.000 22.527 C 11.632 22.892,12.368 22.892,13.000 22.527 C 13.489 22.244,22.031 16.674,22.265 16.486 C 22.546 16.259,22.763 15.960,22.887 15.627 L 22.978 15.380 22.991 12.180 C 22.998 10.295,22.988 8.882,22.965 8.740 C 22.877 8.178,22.640 7.796,22.159 7.437 C 21.617 7.033,12.985 1.456,12.728 1.344 C 12.527 1.256,12.399 1.230,12.108 1.218 C 11.905 1.210,11.664 1.220,11.571 1.239 M11.000 6.150 L 11.000 8.460 9.213 9.620 C 8.230 10.258,7.406 10.780,7.382 10.780 C 7.331 10.780,4.134 8.708,3.969 8.568 C 3.909 8.517,3.878 8.467,3.900 8.456 C 3.922 8.446,5.524 7.404,7.460 6.142 C 9.396 4.880,10.985 3.845,10.990 3.843 C 10.995 3.842,11.000 4.880,11.000 6.150 M17.520 6.780 C 18.939 7.701,20.108 8.460,20.118 8.468 C 20.127 8.476,20.109 8.507,20.078 8.538 C 19.980 8.633,16.628 10.803,16.597 10.791 C 16.581 10.785,15.765 10.258,14.784 9.620 L 13.000 8.460 13.000 6.152 L 13.000 3.843 13.970 4.474 C 14.503 4.821,16.101 5.859,17.520 6.780 M13.384 11.090 C 14.139 11.580,14.758 11.989,14.758 12.000 C 14.758 12.011,14.137 12.422,13.378 12.914 L 11.998 13.809 10.974 13.143 C 10.411 12.776,9.790 12.374,9.595 12.248 C 9.400 12.123,9.241 12.011,9.242 12.000 C 9.243 11.981,11.963 10.204,11.995 10.201 C 12.003 10.201,12.628 10.601,13.384 11.090 M4.292 11.180 C 4.967 11.620,5.519 11.989,5.519 12.000 C 5.519 12.018,3.107 13.603,3.033 13.633 C 3.015 13.641,3.000 12.906,3.000 12.000 C 3.000 11.094,3.015 10.359,3.032 10.367 C 3.050 10.374,3.617 10.740,4.292 11.180 M21.000 12.000 C 21.000 12.902,20.992 13.640,20.983 13.640 C 20.951 13.640,18.500 12.034,18.491 12.007 C 18.482 11.981,20.909 10.372,20.970 10.364 C 20.987 10.362,21.000 11.098,21.000 12.000 M9.213 14.380 L 10.999 15.540 10.999 17.849 L 11.000 20.158 10.584 19.889 C 6.320 17.130,3.885 15.532,3.894 15.500 C 3.908 15.452,7.365 13.194,7.402 13.209 C 7.416 13.215,8.231 13.742,9.213 14.380 M18.360 14.330 C 19.314 14.952,20.100 15.478,20.106 15.500 C 20.112 15.522,18.757 16.422,17.095 17.500 C 15.433 18.578,13.832 19.617,13.537 19.809 L 13.000 20.158 13.001 17.849 L 13.001 15.540 14.791 14.374 C 15.775 13.732,16.590 13.205,16.603 13.204 C 16.615 13.202,17.406 13.708,18.360 14.330 " stroke="none" fill-rule="evenodd" fill="black"></path></svg>