<svg width="24" height="24" viewBox="0 0 24 24" fill="none" xmlns="http://www.w3.org/2000/svg"><path d="M11.280 1.023 C 11.203 1.032,10.951 1.059,10.720 1.083 C 9.527 1.210,8.337 1.558,7.180 2.120 C 6.045 2.671,5.193 3.285,4.238 4.239 C 3.277 5.198,2.643 6.080,2.097 7.220 C 0.301 10.968,0.728 15.286,3.226 18.633 C 3.701 19.269,4.753 20.316,5.400 20.797 C 9.364 23.745,14.666 23.734,18.637 20.770 C 19.246 20.316,20.316 19.246,20.770 18.637 C 23.744 14.652,23.744 9.348,20.770 5.363 C 20.316 4.755,19.247 3.686,18.640 3.235 C 17.045 2.049,15.365 1.360,13.423 1.096 C 13.000 1.038,11.574 0.990,11.280 1.023 M13.320 3.101 C 15.883 3.488,18.124 4.931,19.560 7.120 C 19.863 7.583,20.303 8.479,20.492 9.020 C 20.838 10.013,20.977 10.865,20.977 12.000 C 20.977 13.493,20.720 14.621,20.080 15.940 C 19.375 17.394,18.311 18.607,16.927 19.532 C 16.138 20.060,14.876 20.588,13.908 20.797 C 11.266 21.366,8.479 20.708,6.370 19.019 C 4.857 17.807,3.722 16.029,3.267 14.160 C 3.081 13.397,3.023 12.888,3.023 12.000 C 3.023 10.507,3.280 9.379,3.920 8.060 C 4.971 5.891,6.877 4.221,9.160 3.466 C 9.865 3.233,10.432 3.118,11.340 3.024 C 11.662 2.991,12.911 3.039,13.320 3.101 M12.667 6.062 C 12.441 6.145,12.217 6.339,12.122 6.535 C 12.067 6.648,11.686 8.468,11.017 11.804 C 9.906 17.345,9.935 17.155,10.138 17.501 C 10.551 18.206,11.631 18.133,11.921 17.380 C 11.984 17.215,14.000 7.131,14.000 6.978 C 14.000 6.328,13.283 5.836,12.667 6.062 M8.240 8.035 C 7.996 8.115,7.811 8.284,6.255 9.847 C 4.493 11.617,4.511 11.595,4.511 12.000 C 4.511 12.405,4.493 12.383,6.255 14.154 C 8.035 15.944,8.102 15.999,8.500 15.999 C 8.874 15.999,9.277 15.730,9.421 15.383 C 9.500 15.194,9.509 14.870,9.441 14.656 C 9.401 14.533,9.128 14.236,8.146 13.250 L 6.902 12.000 8.146 10.750 C 9.488 9.403,9.492 9.397,9.489 8.980 C 9.485 8.610,9.282 8.287,8.943 8.112 C 8.771 8.024,8.399 7.983,8.240 8.035 M15.240 8.035 C 14.793 8.181,14.515 8.542,14.511 8.980 C 14.508 9.397,14.512 9.403,15.854 10.750 L 17.098 12.000 15.854 13.250 C 14.512 14.597,14.508 14.603,14.511 15.020 C 14.518 15.727,15.269 16.205,15.900 15.904 C 16.056 15.829,16.458 15.448,17.745 14.154 C 19.507 12.383,19.489 12.405,19.489 12.000 C 19.489 11.595,19.507 11.617,17.745 9.847 C 16.788 8.886,16.034 8.160,15.943 8.113 C 15.772 8.024,15.399 7.983,15.240 8.035 " stroke="none" fill-rule="evenodd" fill="black"></path></svg>