<svg width="24" height="24" viewBox="0 0 24 24" fill="none" xmlns="http://www.w3.org/2000/svg"><path d="M5.920 2.041 C 5.151 2.092,4.672 2.205,4.180 2.451 C 3.089 2.996,2.357 3.961,2.124 5.160 C 2.013 5.729,2.000 6.455,2.000 12.000 C 2.000 18.358,2.006 18.526,2.245 19.320 C 2.577 20.422,3.578 21.423,4.680 21.755 C 5.474 21.994,5.642 22.000,12.000 22.000 C 18.358 22.000,18.526 21.994,19.320 21.755 C 20.422 21.423,21.423 20.422,21.755 19.320 C 21.994 18.526,22.000 18.358,22.000 12.000 C 22.000 5.642,21.994 5.474,21.755 4.680 C 21.424 3.581,20.465 2.622,19.320 2.246 C 18.644 2.024,18.800 2.029,12.340 2.019 C 9.062 2.014,6.173 2.024,5.920 2.041 M18.492 4.091 C 18.894 4.188,19.109 4.309,19.400 4.600 C 19.696 4.895,19.814 5.109,19.912 5.528 C 19.975 5.797,19.980 6.313,19.980 12.000 C 19.980 17.687,19.975 18.203,19.912 18.472 C 19.814 18.891,19.696 19.104,19.400 19.401 C 19.101 19.701,18.820 19.851,18.418 19.928 C 18.010 20.005,5.990 20.005,5.582 19.927 C 5.170 19.850,4.898 19.704,4.600 19.403 C 4.303 19.104,4.186 18.890,4.088 18.472 C 4.025 18.203,4.020 17.687,4.020 12.000 C 4.020 6.313,4.025 5.797,4.088 5.528 C 4.175 5.155,4.294 4.918,4.520 4.667 C 4.883 4.262,5.282 4.091,5.980 4.039 C 6.200 4.023,9.044 4.013,12.300 4.018 C 17.643 4.024,18.247 4.032,18.492 4.091 M9.660 6.067 C 9.477 6.122,9.326 6.261,7.847 7.734 C 6.960 8.617,6.186 9.421,6.127 9.520 C 6.037 9.672,6.020 9.746,6.020 10.000 C 6.020 10.254,6.036 10.328,6.127 10.480 C 6.261 10.704,9.371 13.807,9.555 13.899 C 10.009 14.128,10.601 13.944,10.867 13.492 C 10.964 13.327,10.980 13.258,10.979 13.000 C 10.979 12.787,10.957 12.659,10.905 12.560 C 10.864 12.483,10.289 11.876,9.626 11.210 L 8.422 10.000 9.626 8.790 C 10.289 8.125,10.864 7.517,10.905 7.440 C 10.957 7.341,10.979 7.213,10.979 7.000 C 10.980 6.745,10.964 6.672,10.872 6.516 C 10.740 6.293,10.533 6.128,10.290 6.055 C 10.062 5.986,9.914 5.989,9.660 6.067 M13.670 10.061 C 13.448 10.142,13.250 10.309,13.128 10.516 C 13.036 10.672,13.020 10.745,13.021 11.000 C 13.021 11.213,13.043 11.341,13.095 11.440 C 13.136 11.517,13.711 12.125,14.374 12.790 L 15.578 14.000 14.374 15.210 C 13.711 15.876,13.138 16.481,13.101 16.555 C 12.872 17.009,13.056 17.601,13.508 17.867 C 13.673 17.964,13.742 17.980,14.000 17.979 C 14.212 17.979,14.341 17.957,14.440 17.905 C 14.632 17.804,17.739 14.704,17.873 14.480 C 17.964 14.328,17.980 14.254,17.980 14.000 C 17.980 13.746,17.963 13.672,17.873 13.520 C 17.814 13.421,17.040 12.618,16.153 11.736 C 14.714 10.305,14.519 10.124,14.343 10.066 C 14.108 9.987,13.875 9.986,13.670 10.061 " stroke="none" fill-rule="evenodd" fill="black"></path></svg>