<svg width="24" height="24" viewBox="0 0 24 24" fill="none" xmlns="http://www.w3.org/2000/svg"><path d="M11.280 1.023 C 11.203 1.032,10.951 1.059,10.720 1.083 C 9.527 1.210,8.337 1.558,7.180 2.120 C 6.045 2.671,5.193 3.285,4.238 4.239 C 3.277 5.198,2.643 6.080,2.097 7.220 C 0.301 10.968,0.728 15.286,3.226 18.633 C 3.701 19.269,4.753 20.316,5.400 20.797 C 9.364 23.745,14.666 23.734,18.637 20.770 C 19.246 20.316,20.316 19.246,20.770 18.637 C 23.744 14.652,23.744 9.348,20.770 5.363 C 20.316 4.755,19.247 3.686,18.640 3.235 C 17.045 2.049,15.365 1.360,13.423 1.096 C 13.000 1.038,11.574 0.990,11.280 1.023 M13.320 3.101 C 15.883 3.488,18.124 4.931,19.560 7.120 C 19.863 7.583,20.303 8.479,20.492 9.020 C 20.838 10.013,20.977 10.865,20.977 12.000 C 20.977 13.493,20.720 14.621,20.080 15.940 C 19.375 17.394,18.311 18.607,16.927 19.532 C 16.138 20.060,14.876 20.588,13.908 20.797 C 11.266 21.366,8.479 20.708,6.370 19.019 C 4.857 17.807,3.722 16.029,3.267 14.160 C 3.081 13.397,3.023 12.888,3.023 12.000 C 3.023 10.507,3.280 9.379,3.920 8.060 C 4.971 5.891,6.877 4.221,9.160 3.466 C 9.865 3.233,10.432 3.118,11.340 3.024 C 11.662 2.991,12.911 3.039,13.320 3.101 M9.240 8.035 C 8.996 8.115,8.811 8.284,7.255 9.847 C 5.493 11.617,5.511 11.595,5.511 12.000 C 5.511 12.405,5.493 12.383,7.255 14.154 C 9.035 15.944,9.102 15.999,9.500 15.999 C 9.874 15.999,10.277 15.730,10.421 15.383 C 10.500 15.194,10.509 14.870,10.441 14.656 C 10.401 14.533,10.128 14.236,9.146 13.250 L 7.902 12.000 9.146 10.750 C 10.488 9.403,10.492 9.397,10.489 8.980 C 10.485 8.610,10.282 8.287,9.943 8.112 C 9.771 8.024,9.399 7.983,9.240 8.035 M14.240 8.035 C 13.793 8.181,13.515 8.542,13.511 8.980 C 13.508 9.397,13.512 9.403,14.854 10.750 L 16.098 12.000 14.854 13.250 C 13.512 14.597,13.508 14.603,13.511 15.020 C 13.518 15.727,14.269 16.205,14.900 15.904 C 15.056 15.829,15.458 15.448,16.745 14.154 C 18.507 12.383,18.489 12.405,18.489 12.000 C 18.489 11.595,18.507 11.617,16.745 9.847 C 15.788 8.886,15.034 8.160,14.943 8.113 C 14.772 8.024,14.399 7.983,14.240 8.035 " stroke="none" fill-rule="evenodd" fill="black"></path></svg>