<svg width="24" height="24" viewBox="0 0 24 24" fill="none" xmlns="http://www.w3.org/2000/svg"><path d="M5.920 2.041 C 5.151 2.092,4.672 2.205,4.180 2.451 C 3.089 2.996,2.357 3.961,2.124 5.160 C 2.013 5.729,2.000 6.455,2.000 12.000 C 2.000 18.358,2.006 18.526,2.245 19.320 C 2.577 20.422,3.578 21.423,4.680 21.755 C 5.474 21.994,5.642 22.000,12.000 22.000 C 18.358 22.000,18.526 21.994,19.320 21.755 C 20.422 21.423,21.423 20.422,21.755 19.320 C 21.994 18.526,22.000 18.358,22.000 12.000 C 22.000 5.642,21.994 5.474,21.755 4.680 C 21.424 3.581,20.465 2.622,19.320 2.246 C 18.644 2.024,18.800 2.029,12.340 2.019 C 9.062 2.014,6.173 2.024,5.920 2.041 M18.492 4.091 C 18.894 4.188,19.109 4.309,19.400 4.600 C 19.696 4.895,19.814 5.109,19.912 5.528 C 19.975 5.797,19.980 6.313,19.980 12.000 C 19.980 17.687,19.975 18.203,19.912 18.472 C 19.814 18.891,19.696 19.104,19.400 19.401 C 19.101 19.701,18.820 19.851,18.418 19.928 C 18.010 20.005,5.990 20.005,5.582 19.927 C 5.170 19.850,4.898 19.704,4.600 19.403 C 4.303 19.104,4.186 18.890,4.088 18.472 C 4.025 18.203,4.020 17.687,4.020 12.000 C 4.020 6.313,4.025 5.797,4.088 5.528 C 4.175 5.155,4.294 4.918,4.520 4.667 C 4.883 4.262,5.282 4.091,5.980 4.039 C 6.200 4.023,9.044 4.013,12.300 4.018 C 17.643 4.024,18.247 4.032,18.492 4.091 M9.240 8.035 C 8.996 8.115,8.811 8.284,7.255 9.847 C 5.493 11.617,5.511 11.595,5.511 12.000 C 5.511 12.405,5.493 12.383,7.255 14.154 C 9.035 15.944,9.102 15.999,9.500 15.999 C 9.874 15.999,10.277 15.730,10.421 15.383 C 10.500 15.194,10.509 14.870,10.441 14.656 C 10.401 14.533,10.128 14.236,9.146 13.250 L 7.902 12.000 9.146 10.750 C 10.488 9.403,10.492 9.397,10.489 8.980 C 10.485 8.610,10.282 8.287,9.943 8.112 C 9.771 8.024,9.399 7.983,9.240 8.035 M14.240 8.035 C 13.793 8.181,13.515 8.542,13.511 8.980 C 13.508 9.397,13.512 9.403,14.854 10.750 L 16.098 12.000 14.854 13.250 C 13.512 14.597,13.508 14.603,13.511 15.020 C 13.518 15.727,14.269 16.205,14.900 15.904 C 15.056 15.829,15.458 15.448,16.745 14.154 C 18.507 12.383,18.489 12.405,18.489 12.000 C 18.489 11.595,18.507 11.617,16.745 9.847 C 15.788 8.886,15.034 8.160,14.943 8.113 C 14.772 8.024,14.399 7.983,14.240 8.035 " stroke="none" fill-rule="evenodd" fill="black"></path></svg>