<svg width="24" height="24" viewBox="0 0 24 24" fill="none" xmlns="http://www.w3.org/2000/svg"><path d="M13.650 2.066 C 13.410 2.151,13.145 2.422,13.067 2.663 C 13.031 2.771,12.100 6.919,10.998 11.880 C 8.808 21.734,8.924 21.135,9.138 21.501 C 9.570 22.237,10.670 22.124,10.940 21.315 C 10.972 21.219,11.900 17.081,13.002 12.120 C 14.695 4.504,15.004 3.067,14.986 2.888 C 14.924 2.252,14.267 1.848,13.650 2.066 M6.660 6.066 C 6.474 6.122,6.279 6.307,3.847 8.733 C 2.371 10.206,1.188 11.418,1.127 11.520 C 1.036 11.673,1.020 11.745,1.021 12.000 C 1.021 12.212,1.043 12.341,1.095 12.440 C 1.192 12.625,6.292 17.737,6.508 17.865 C 6.967 18.139,7.587 17.968,7.867 17.492 C 7.964 17.327,7.980 17.258,7.979 17.000 C 7.979 16.788,7.957 16.659,7.905 16.560 C 7.865 16.483,6.839 15.425,5.626 14.210 L 3.421 12.000 5.626 9.790 C 6.839 8.574,7.865 7.517,7.905 7.440 C 7.957 7.341,7.979 7.212,7.979 7.000 C 7.980 6.745,7.964 6.672,7.872 6.516 C 7.740 6.293,7.533 6.128,7.290 6.055 C 7.062 5.986,6.915 5.989,6.660 6.066 M16.695 6.057 C 16.466 6.129,16.256 6.299,16.128 6.516 C 16.036 6.672,16.020 6.745,16.021 7.000 C 16.021 7.212,16.043 7.341,16.095 7.440 C 16.135 7.517,17.161 8.574,18.374 9.790 L 20.579 12.000 18.374 14.210 C 17.161 15.425,16.135 16.483,16.095 16.560 C 16.043 16.659,16.021 16.788,16.021 17.000 C 16.020 17.258,16.036 17.327,16.133 17.492 C 16.413 17.968,17.033 18.139,17.492 17.865 C 17.708 17.737,22.808 12.625,22.905 12.440 C 22.957 12.341,22.979 12.212,22.979 12.000 C 22.980 11.745,22.964 11.673,22.873 11.520 C 22.812 11.418,21.630 10.207,20.153 8.734 C 17.627 6.214,17.533 6.125,17.323 6.064 C 17.066 5.988,16.919 5.987,16.695 6.057 " stroke="none" fill-rule="evenodd" fill="black"></path></svg>