<svg width="24" height="24" viewBox="0 0 24 24" fill="none" xmlns="http://www.w3.org/2000/svg"><path d="M4.920 2.041 C 4.152 2.092,3.672 2.205,3.180 2.451 C 2.089 2.996,1.357 3.961,1.124 5.160 C 1.013 5.729,1.000 6.455,1.000 12.000 C 1.000 18.358,1.006 18.526,1.245 19.320 C 1.577 20.422,2.578 21.423,3.680 21.755 C 4.485 21.998,4.567 22.000,12.000 22.000 C 19.433 22.000,19.515 21.998,20.320 21.755 C 21.422 21.423,22.423 20.422,22.755 19.320 C 22.994 18.526,23.000 18.358,23.000 12.000 C 23.000 5.642,22.994 5.474,22.755 4.680 C 22.424 3.581,21.465 2.622,20.320 2.246 C 19.635 2.021,19.900 2.028,12.340 2.019 C 8.512 2.014,5.173 2.024,4.920 2.041 M19.492 4.091 C 19.894 4.188,20.110 4.309,20.400 4.600 C 20.887 5.086,20.952 5.340,20.987 6.890 L 21.012 8.000 12.000 8.000 L 2.988 8.000 3.013 6.890 C 3.047 5.409,3.112 5.120,3.520 4.667 C 3.883 4.262,4.282 4.090,4.980 4.039 C 5.200 4.023,8.494 4.013,12.300 4.017 C 18.585 4.024,19.245 4.031,19.492 4.091 M20.989 14.110 C 20.972 18.564,20.975 18.493,20.752 18.952 C 20.626 19.211,20.190 19.638,19.918 19.768 C 19.463 19.987,19.707 19.980,12.000 19.980 C 4.304 19.980,4.541 19.986,4.082 19.771 C 3.812 19.643,3.377 19.217,3.248 18.952 C 3.025 18.493,3.028 18.564,3.011 14.110 L 2.995 10.000 12.000 10.000 L 21.005 10.000 20.989 14.110 M9.580 11.597 C 9.474 11.646,8.943 12.151,8.015 13.086 C 6.511 14.599,6.511 14.599,6.511 15.000 C 6.511 15.401,6.511 15.401,8.015 16.914 C 9.038 17.945,9.468 18.351,9.595 18.408 C 9.811 18.507,10.164 18.513,10.382 18.422 C 10.730 18.277,11.000 17.874,10.999 17.500 C 10.998 17.132,10.911 17.014,9.869 15.970 L 8.901 15.000 9.869 14.030 C 10.911 12.986,10.998 12.868,10.999 12.500 C 11.000 12.131,10.730 11.723,10.391 11.582 C 10.185 11.496,9.779 11.503,9.580 11.597 M13.600 11.584 C 13.267 11.728,13.000 12.136,13.001 12.500 C 13.002 12.868,13.089 12.986,14.131 14.030 L 15.099 15.000 14.131 15.970 C 13.089 17.014,13.002 17.132,13.001 17.500 C 13.000 17.874,13.270 18.277,13.618 18.422 C 13.836 18.513,14.189 18.507,14.405 18.408 C 14.532 18.351,14.962 17.945,15.985 16.914 C 17.489 15.401,17.489 15.401,17.489 15.000 C 17.489 14.599,17.489 14.599,15.985 13.086 C 15.057 12.151,14.526 11.646,14.420 11.597 C 14.222 11.504,13.799 11.498,13.600 11.584 " stroke="none" fill-rule="evenodd" fill="black"></path></svg>