<svg width="24" height="24" viewBox="0 0 24 24" fill="none" xmlns="http://www.w3.org/2000/svg"><path d="M5.670 1.061 C 5.448 1.142,5.250 1.309,5.128 1.516 C 5.037 1.672,5.020 1.746,5.020 2.000 C 5.020 2.345,5.110 2.541,5.397 2.818 C 5.487 2.905,5.560 2.988,5.560 3.003 C 5.560 3.018,5.447 3.042,5.310 3.057 C 4.278 3.171,3.162 3.746,2.384 4.563 C 1.516 5.475,1.024 6.659,1.021 7.843 C 1.020 8.289,1.024 8.313,1.141 8.503 C 1.539 9.150,2.457 9.156,2.852 8.514 C 2.949 8.356,2.972 8.264,3.004 7.894 C 3.052 7.330,3.124 7.052,3.320 6.660 C 3.730 5.843,4.496 5.253,5.400 5.060 L 5.540 5.030 5.354 5.229 C 5.119 5.481,5.039 5.637,5.012 5.895 C 4.971 6.295,5.158 6.662,5.508 6.867 C 5.673 6.964,5.742 6.980,6.000 6.979 C 6.213 6.979,6.341 6.957,6.440 6.905 C 6.633 6.803,8.740 4.703,8.873 4.480 C 8.964 4.328,8.980 4.254,8.980 4.000 C 8.980 3.747,8.963 3.672,8.873 3.520 C 8.815 3.421,8.266 2.843,7.653 2.236 C 6.680 1.271,6.515 1.124,6.343 1.066 C 6.108 0.987,5.875 0.985,5.670 1.061 M15.300 1.042 C 12.872 1.288,10.753 2.775,9.696 4.976 C 9.413 5.566,9.200 6.229,9.201 6.517 C 9.204 7.420,10.351 7.838,10.939 7.150 C 11.039 7.034,11.119 6.863,11.219 6.551 C 11.508 5.657,11.904 5.013,12.538 4.408 C 13.638 3.359,15.025 2.879,16.500 3.037 C 17.417 3.136,18.168 3.418,18.900 3.939 C 20.495 5.075,21.270 7.035,20.899 8.994 C 20.722 9.924,20.259 10.775,19.520 11.525 C 18.898 12.157,18.380 12.475,17.506 12.763 C 17.146 12.881,16.962 12.965,16.848 13.063 C 16.164 13.648,16.583 14.796,17.483 14.799 C 17.953 14.801,19.145 14.313,19.887 13.814 C 21.896 12.464,23.090 10.142,22.987 7.784 C 22.950 6.933,22.842 6.368,22.573 5.620 C 21.716 3.237,19.582 1.473,17.100 1.097 C 16.616 1.024,15.742 0.997,15.300 1.042 M7.540 9.023 C 6.478 9.125,5.692 9.335,4.910 9.726 C 2.838 10.762,1.448 12.666,1.074 14.980 C 1.008 15.393,1.008 16.607,1.074 17.020 C 1.574 20.112,3.888 22.426,6.980 22.926 C 7.392 22.992,8.607 22.992,9.020 22.926 C 12.109 22.428,14.428 20.109,14.926 17.020 C 14.954 16.844,14.977 16.385,14.977 16.000 C 14.977 15.056,14.876 14.462,14.573 13.620 C 13.715 11.237,11.581 9.473,9.102 9.098 C 8.726 9.041,7.813 8.997,7.540 9.023 M8.552 11.043 C 10.413 11.246,12.001 12.479,12.680 14.248 C 13.092 15.320,13.085 16.720,12.663 17.793 C 12.120 19.174,10.991 20.256,9.600 20.732 C 9.044 20.922,8.670 20.980,8.000 20.980 C 7.330 20.980,6.956 20.922,6.400 20.732 C 4.808 20.188,3.580 18.864,3.161 17.240 C 2.920 16.307,2.983 15.125,3.320 14.248 C 4.146 12.096,6.274 10.793,8.552 11.043 M21.695 15.057 C 21.469 15.128,21.256 15.298,21.134 15.506 C 21.052 15.646,21.025 15.764,20.995 16.121 C 20.974 16.363,20.916 16.701,20.867 16.871 C 20.599 17.798,19.811 18.587,18.866 18.876 C 18.466 18.998,18.444 18.987,18.650 18.766 C 18.925 18.473,18.978 18.348,18.979 18.000 C 18.980 17.745,18.964 17.672,18.872 17.516 C 18.618 17.084,18.136 16.905,17.657 17.066 C 17.485 17.124,17.320 17.271,16.347 18.236 C 15.734 18.843,15.185 19.421,15.127 19.520 C 15.036 19.672,15.020 19.746,15.021 20.000 C 15.021 20.213,15.043 20.341,15.095 20.440 C 15.194 20.627,17.294 22.739,17.508 22.866 C 17.968 23.138,18.587 22.968,18.867 22.492 C 18.964 22.327,18.980 22.257,18.980 22.000 C 18.980 21.656,18.890 21.459,18.605 21.183 C 18.432 21.016,18.426 20.960,18.584 20.960 C 18.946 20.960,19.729 20.718,20.286 20.433 C 21.896 19.612,22.975 17.900,22.979 16.160 C 22.980 15.731,22.973 15.688,22.872 15.516 C 22.628 15.101,22.150 14.915,21.695 15.057 " stroke="none" fill-rule="evenodd" fill="black"></path></svg>