<svg width="24" height="24" viewBox="0 0 24 24" fill="none" xmlns="http://www.w3.org/2000/svg"><path d="M10.920 1.023 C 7.955 1.217,5.941 1.749,4.419 2.739 C 4.039 2.987,3.443 3.611,3.274 3.940 C 2.980 4.509,3.000 3.925,3.000 12.004 C 3.000 20.052,2.980 19.451,3.268 20.040 C 3.533 20.583,4.306 21.270,5.104 21.672 C 6.122 22.184,7.641 22.615,9.140 22.818 C 10.142 22.953,10.611 22.979,12.000 22.979 C 13.389 22.979,13.858 22.953,14.860 22.818 C 16.359 22.615,17.878 22.184,18.896 21.672 C 19.694 21.270,20.467 20.583,20.732 20.040 C 21.020 19.451,21.000 20.052,21.000 12.000 C 21.000 3.948,21.020 4.549,20.732 3.960 C 20.617 3.725,20.503 3.577,20.203 3.277 C 19.992 3.067,19.712 2.825,19.581 2.739 C 18.248 1.872,16.465 1.340,14.080 1.098 C 13.533 1.042,11.398 0.992,10.920 1.023 M13.993 3.098 C 15.623 3.269,16.937 3.603,17.940 4.102 C 18.442 4.352,18.824 4.639,18.939 4.853 C 19.018 4.999,19.018 5.001,18.940 5.146 C 18.598 5.780,16.682 6.543,14.740 6.817 C 13.773 6.953,13.353 6.978,12.000 6.978 C 10.647 6.978,10.227 6.953,9.260 6.817 C 7.318 6.543,5.402 5.780,5.060 5.146 C 4.982 5.001,4.982 4.999,5.061 4.853 C 5.313 4.384,6.529 3.787,7.936 3.441 C 8.751 3.240,9.579 3.127,10.980 3.023 C 11.416 2.991,13.453 3.042,13.993 3.098 M5.510 7.855 C 6.726 8.390,8.195 8.735,10.080 8.928 C 10.745 8.996,13.255 8.996,13.920 8.928 C 15.805 8.735,17.274 8.390,18.490 7.855 C 18.715 7.756,18.922 7.665,18.950 7.653 C 18.989 7.636,19.000 7.861,19.000 8.705 L 19.000 9.779 18.729 10.039 C 18.268 10.482,17.263 10.933,16.112 11.216 C 13.647 11.821,10.353 11.821,7.888 11.216 C 6.737 10.933,5.732 10.482,5.271 10.039 L 5.000 9.779 5.000 8.705 C 5.000 7.861,5.011 7.636,5.050 7.653 C 5.077 7.665,5.285 7.756,5.510 7.855 M6.347 12.841 C 8.849 13.694,12.352 13.908,15.440 13.397 C 16.522 13.218,17.821 12.837,18.619 12.464 L 19.000 12.285 19.000 13.325 C 19.000 14.510,19.005 14.489,18.671 14.769 C 17.835 15.472,16.126 16.009,13.960 16.248 C 13.340 16.317,10.660 16.317,10.040 16.248 C 8.561 16.085,7.279 15.778,6.304 15.355 C 5.891 15.176,5.624 15.016,5.329 14.769 C 4.995 14.489,5.000 14.510,5.000 13.325 L 5.000 12.285 5.381 12.464 C 5.591 12.562,6.026 12.731,6.347 12.841 M5.410 17.139 C 6.672 17.728,8.466 18.136,10.420 18.279 C 11.619 18.366,13.450 18.322,14.640 18.177 C 16.091 18.000,17.588 17.606,18.590 17.139 C 18.800 17.040,18.978 16.960,18.986 16.960 C 18.994 16.960,19.000 17.433,19.000 18.011 C 19.000 19.061,19.000 19.062,18.902 19.206 C 18.476 19.832,16.617 20.552,14.740 20.817 C 13.773 20.953,13.353 20.978,12.000 20.978 C 10.647 20.978,10.227 20.953,9.260 20.817 C 7.383 20.552,5.524 19.832,5.098 19.206 C 5.000 19.062,5.000 19.061,5.000 18.011 C 5.000 17.433,5.006 16.960,5.014 16.960 C 5.022 16.960,5.200 17.040,5.410 17.139 " stroke="none" fill-rule="evenodd" fill="black"></path></svg>