<svg width="24" height="24" viewBox="0 0 24 24" fill="none" xmlns="http://www.w3.org/2000/svg"><path d="M14.480 1.026 C 12.458 1.164,10.574 2.053,9.183 3.525 C 8.275 4.486,7.660 5.579,7.280 6.909 C 7.198 7.194,7.195 7.198,7.029 7.242 C 5.913 7.534,4.766 8.122,3.900 8.847 C 2.985 9.612,2.307 10.477,1.800 11.529 C 0.481 14.259,0.816 17.467,2.674 19.900 C 2.933 20.239,3.606 20.925,3.960 21.211 C 5.378 22.357,7.190 23.000,9.000 23.000 C 10.810 23.000,12.622 22.357,14.040 21.211 C 14.394 20.925,15.067 20.239,15.326 19.900 C 15.968 19.060,16.492 17.987,16.758 16.971 C 16.802 16.805,16.806 16.802,17.091 16.720 C 18.727 16.253,20.095 15.371,21.154 14.100 C 22.050 13.025,22.686 11.616,22.905 10.220 C 23.095 9.003,22.986 7.697,22.595 6.500 C 22.229 5.382,21.612 4.352,20.801 3.504 C 19.134 1.762,16.845 0.865,14.480 1.026 M15.564 3.039 C 17.009 3.180,18.260 3.776,19.269 4.805 C 20.859 6.427,21.397 8.742,20.681 10.884 C 20.161 12.443,19.060 13.697,17.600 14.394 C 16.975 14.693,17.012 14.694,16.980 14.372 C 16.794 12.459,16.059 10.819,14.801 9.504 C 14.105 8.777,13.386 8.250,12.500 7.817 C 11.672 7.413,10.686 7.125,9.907 7.060 C 9.387 7.017,9.353 7.007,9.381 6.908 C 9.395 6.860,9.478 6.668,9.565 6.482 C 10.659 4.156,13.033 2.793,15.564 3.039 M9.564 9.039 C 11.921 9.269,13.913 10.837,14.671 13.060 C 15.168 14.517,15.068 16.251,14.410 17.580 C 13.550 19.316,12.056 20.478,10.160 20.885 C 9.810 20.960,9.617 20.975,9.000 20.975 C 8.383 20.975,8.190 20.960,7.840 20.885 C 5.941 20.478,4.451 19.319,3.590 17.580 C 2.826 16.037,2.826 13.963,3.590 12.420 C 3.913 11.768,4.237 11.309,4.731 10.805 C 6.008 9.503,7.757 8.864,9.564 9.039 " stroke="none" fill-rule="evenodd" fill="black"></path></svg>