<svg width="24" height="24" viewBox="0 0 24 24" fill="none" xmlns="http://www.w3.org/2000/svg"><path d="M5.670 1.061 C 5.448 1.142,5.250 1.309,5.128 1.516 C 5.037 1.672,5.020 1.746,5.020 2.000 C 5.020 2.345,5.110 2.541,5.397 2.818 C 5.487 2.905,5.560 2.988,5.560 3.003 C 5.560 3.018,5.447 3.042,5.310 3.057 C 4.278 3.171,3.162 3.746,2.384 4.563 C 1.516 5.475,1.024 6.659,1.021 7.843 C 1.020 8.289,1.024 8.313,1.141 8.503 C 1.539 9.150,2.457 9.156,2.852 8.514 C 2.949 8.356,2.972 8.264,3.004 7.894 C 3.052 7.330,3.124 7.052,3.320 6.660 C 3.730 5.843,4.496 5.253,5.400 5.060 L 5.540 5.030 5.354 5.229 C 5.119 5.481,5.039 5.637,5.012 5.895 C 4.971 6.295,5.158 6.662,5.508 6.867 C 5.673 6.964,5.742 6.980,6.000 6.979 C 6.213 6.979,6.341 6.957,6.440 6.905 C 6.633 6.803,8.740 4.703,8.873 4.480 C 8.964 4.328,8.980 4.254,8.980 4.000 C 8.980 3.747,8.963 3.672,8.873 3.520 C 8.815 3.421,8.266 2.843,7.653 2.236 C 6.680 1.271,6.515 1.124,6.343 1.066 C 6.108 0.987,5.875 0.985,5.670 1.061 M15.540 1.023 C 14.715 1.102,14.250 1.200,13.620 1.427 C 11.204 2.297,9.460 4.434,9.074 7.000 C 9.018 7.376,9.003 8.439,9.050 8.832 L 9.079 9.085 8.790 9.053 C 8.369 9.006,7.437 9.019,7.020 9.077 C 3.962 9.505,1.576 11.874,1.074 14.980 C 1.008 15.393,1.008 16.607,1.074 17.020 C 1.574 20.112,3.888 22.426,6.980 22.926 C 7.392 22.992,8.607 22.992,9.020 22.926 C 12.115 22.427,14.467 20.067,14.925 17.000 C 14.983 16.618,14.996 15.650,14.950 15.211 L 14.920 14.921 15.170 14.951 C 15.561 14.997,16.625 14.982,17.000 14.926 C 19.563 14.541,21.704 12.795,22.573 10.380 C 22.876 9.538,22.977 8.944,22.977 8.000 C 22.977 7.056,22.876 6.462,22.573 5.620 C 21.715 3.237,19.581 1.473,17.102 1.098 C 16.726 1.041,15.813 0.997,15.540 1.023 M16.552 3.043 C 18.413 3.246,20.001 4.479,20.680 6.248 C 21.092 7.320,21.085 8.720,20.663 9.793 C 20.206 10.955,19.310 11.936,18.212 12.476 C 17.100 13.023,15.889 13.140,14.688 12.816 C 14.177 12.679,14.153 12.665,14.002 12.407 C 13.474 11.507,12.493 10.526,11.592 9.998 C 11.339 9.849,11.304 9.786,11.160 9.222 C 10.922 8.287,10.984 7.121,11.320 6.248 C 12.146 4.096,14.274 2.793,16.552 3.043 M8.552 11.043 C 10.413 11.246,12.001 12.479,12.680 14.248 C 13.092 15.320,13.085 16.720,12.663 17.793 C 12.120 19.174,10.991 20.256,9.600 20.732 C 9.044 20.922,8.670 20.980,8.000 20.980 C 7.330 20.980,6.956 20.922,6.400 20.732 C 4.808 20.188,3.580 18.864,3.161 17.240 C 2.920 16.307,2.983 15.125,3.320 14.248 C 4.146 12.096,6.274 10.793,8.552 11.043 M21.695 15.057 C 21.469 15.128,21.256 15.298,21.134 15.506 C 21.052 15.646,21.025 15.764,20.995 16.121 C 20.974 16.363,20.916 16.701,20.867 16.871 C 20.599 17.798,19.811 18.587,18.866 18.876 C 18.466 18.998,18.444 18.987,18.650 18.766 C 18.925 18.473,18.978 18.348,18.979 18.000 C 18.980 17.745,18.964 17.672,18.872 17.516 C 18.618 17.084,18.136 16.905,17.657 17.066 C 17.485 17.124,17.320 17.271,16.347 18.236 C 15.734 18.843,15.185 19.421,15.127 19.520 C 15.036 19.672,15.020 19.746,15.021 20.000 C 15.021 20.213,15.043 20.341,15.095 20.440 C 15.194 20.627,17.294 22.739,17.508 22.866 C 17.968 23.138,18.587 22.968,18.867 22.492 C 18.964 22.327,18.980 22.257,18.980 22.000 C 18.980 21.656,18.890 21.459,18.605 21.183 C 18.432 21.016,18.426 20.960,18.584 20.960 C 18.946 20.960,19.729 20.718,20.286 20.433 C 21.896 19.612,22.975 17.900,22.979 16.160 C 22.980 15.731,22.973 15.688,22.872 15.516 C 22.628 15.101,22.150 14.915,21.695 15.057 " stroke="none" fill-rule="evenodd" fill="black"></path></svg>