<svg width="24" height="24" viewBox="0 0 24 24" fill="none" xmlns="http://www.w3.org/2000/svg"><path d="M10.900 1.045 C 10.211 1.131,9.422 1.450,8.857 1.871 C 7.610 2.799,6.937 4.202,7.012 5.717 C 7.126 8.046,8.986 9.890,11.320 9.987 C 11.909 10.012,12.409 9.943,12.933 9.765 L 13.277 9.648 13.548 9.888 C 14.067 10.346,14.690 10.670,15.437 10.871 C 15.778 10.963,15.895 10.974,16.500 10.974 C 17.105 10.974,17.222 10.963,17.563 10.871 C 18.758 10.550,19.713 9.855,20.323 8.864 C 21.560 6.854,21.057 4.295,19.143 2.871 C 17.983 2.007,16.363 1.771,14.992 2.266 C 14.755 2.351,14.706 2.358,14.667 2.310 C 14.574 2.198,14.134 1.851,13.880 1.689 C 13.020 1.142,11.960 0.913,10.900 1.045 M11.980 3.059 C 12.319 3.124,12.623 3.249,12.897 3.438 L 13.076 3.561 12.854 3.870 C 12.105 4.914,11.823 6.312,12.118 7.513 C 12.163 7.695,12.200 7.860,12.200 7.878 C 12.200 7.944,11.669 8.011,11.323 7.989 C 10.443 7.932,9.669 7.414,9.277 6.620 C 8.790 5.636,8.971 4.505,9.738 3.738 C 10.335 3.141,11.138 2.898,11.980 3.059 M17.020 4.060 C 17.741 4.211,18.395 4.713,18.715 5.362 C 19.087 6.118,19.090 6.878,18.723 7.620 C 18.439 8.195,17.932 8.646,17.320 8.868 C 17.052 8.965,16.965 8.976,16.500 8.976 C 16.035 8.976,15.948 8.965,15.680 8.868 C 15.068 8.646,14.561 8.195,14.277 7.620 C 13.347 5.740,14.972 3.631,17.020 4.060 M2.686 12.039 C 1.865 12.166,1.233 12.765,1.061 13.581 C 0.972 13.997,0.972 21.003,1.061 21.419 C 1.147 21.827,1.298 22.104,1.597 22.403 C 1.896 22.702,2.173 22.853,2.581 22.939 C 2.978 23.024,5.022 23.024,5.419 22.940 C 6.266 22.760,6.822 22.150,6.978 21.230 L 7.004 21.080 7.812 21.080 C 8.256 21.081,8.773 21.098,8.960 21.120 C 9.147 21.141,9.966 21.322,10.780 21.521 C 11.594 21.721,12.431 21.910,12.640 21.942 C 13.090 22.010,13.653 22.016,14.052 21.957 C 14.793 21.848,17.819 21.229,18.130 21.124 C 18.577 20.972,19.039 20.740,19.428 20.472 C 19.725 20.268,21.816 18.284,22.352 17.699 C 23.044 16.944,23.193 15.860,22.735 14.920 C 22.552 14.544,22.029 14.007,21.653 13.809 C 21.297 13.621,20.862 13.520,20.409 13.520 C 19.678 13.520,19.379 13.652,18.240 14.477 L 17.420 15.071 17.375 14.805 C 17.276 14.233,17.018 13.771,16.570 13.359 C 16.124 12.951,15.865 12.850,14.260 12.460 C 12.687 12.077,12.091 11.980,11.520 12.014 C 10.648 12.065,9.970 12.276,7.975 13.114 C 7.444 13.337,6.992 13.520,6.971 13.520 C 6.950 13.520,6.910 13.444,6.882 13.350 C 6.771 12.973,6.423 12.534,6.053 12.306 C 5.961 12.249,5.772 12.163,5.633 12.114 C 5.395 12.029,5.308 12.024,4.140 12.015 C 3.458 12.010,2.804 12.021,2.686 12.039 M5.000 17.500 L 5.000 21.000 4.000 21.000 L 3.000 21.000 3.000 17.500 L 3.000 14.000 4.000 14.000 L 5.000 14.000 5.000 17.500 M12.121 14.042 C 12.448 14.082,14.830 14.638,15.045 14.724 C 15.103 14.747,15.202 14.820,15.265 14.885 C 15.368 14.992,15.381 15.038,15.394 15.317 C 15.410 15.668,15.353 15.831,15.171 15.950 C 15.078 16.011,14.927 16.023,14.042 16.041 C 13.100 16.061,13.007 16.070,12.860 16.148 C 12.236 16.480,12.098 17.260,12.578 17.740 C 12.884 18.046,12.888 18.047,14.722 18.031 C 16.903 18.012,16.676 18.093,18.721 16.601 C 19.437 16.078,20.080 15.622,20.149 15.586 C 20.453 15.428,20.864 15.568,20.961 15.862 C 21.060 16.164,21.027 16.213,20.088 17.134 C 18.394 18.796,18.226 18.936,17.649 19.167 C 17.261 19.322,14.107 19.954,13.552 19.988 C 13.079 20.017,13.061 20.013,11.100 19.540 C 9.329 19.112,9.101 19.080,7.856 19.080 L 7.000 19.080 7.000 17.385 L 7.000 15.691 8.510 15.059 C 10.090 14.399,10.716 14.166,11.181 14.066 C 11.525 13.993,11.688 13.988,12.121 14.042 " stroke="none" fill-rule="evenodd" fill="black"></path></svg>