<svg width="24" height="24" viewBox="0 0 24 24" fill="none" xmlns="http://www.w3.org/2000/svg"><path d="M6.332 2.044 C 4.062 2.198,2.129 2.909,1.417 3.851 C 1.213 4.121,1.138 4.272,1.055 4.580 C 0.975 4.876,0.975 17.124,1.055 17.420 C 1.138 17.727,1.213 17.879,1.412 18.143 C 2.200 19.185,4.316 19.895,6.908 19.987 C 7.738 20.016,7.882 19.986,8.173 19.724 C 8.574 19.362,8.600 18.715,8.228 18.326 C 7.974 18.062,7.859 18.029,7.040 17.994 C 6.633 17.977,6.138 17.943,5.940 17.919 C 4.784 17.780,3.648 17.438,3.170 17.085 L 3.000 16.959 3.000 16.109 L 3.000 15.258 3.570 15.446 C 4.552 15.769,5.617 15.941,6.908 15.987 C 7.738 16.016,7.882 15.986,8.173 15.724 C 8.574 15.362,8.600 14.715,8.228 14.326 C 7.974 14.062,7.859 14.029,7.040 13.994 C 6.633 13.977,6.138 13.943,5.940 13.919 C 4.784 13.780,3.648 13.438,3.170 13.085 L 3.000 12.959 3.000 12.104 L 3.000 11.248 3.210 11.328 C 4.191 11.704,5.499 11.936,6.928 11.987 C 7.736 12.016,7.883 11.985,8.173 11.724 C 8.574 11.362,8.600 10.715,8.228 10.326 C 7.975 10.062,7.858 10.030,7.041 9.994 C 5.772 9.938,4.881 9.791,4.037 9.497 C 3.566 9.333,3.411 9.259,3.170 9.083 L 3.000 8.959 3.000 8.109 L 3.000 7.258 3.570 7.446 C 4.212 7.657,4.876 7.800,5.700 7.906 C 6.495 8.008,8.505 8.008,9.300 7.906 C 10.320 7.775,11.043 7.603,11.874 7.293 L 12.249 7.153 12.354 7.255 C 12.509 7.402,12.746 7.488,13.000 7.488 C 13.405 7.488,13.724 7.281,13.905 6.900 C 13.996 6.707,13.999 6.667,13.999 5.740 C 13.999 4.536,13.957 4.347,13.583 3.851 C 12.613 2.568,9.620 1.822,6.332 2.044 M9.160 4.100 C 10.276 4.240,11.415 4.589,11.840 4.922 L 11.940 5.000 11.840 5.081 C 11.431 5.411,10.236 5.772,9.040 5.926 C 8.476 5.998,6.524 5.998,5.960 5.926 C 4.764 5.772,3.569 5.411,3.160 5.081 L 3.060 5.000 3.160 4.922 C 3.328 4.791,3.799 4.577,4.209 4.445 C 4.860 4.237,5.664 4.099,6.660 4.023 C 7.086 3.991,8.684 4.040,9.160 4.100 M15.060 8.562 C 12.881 8.781,11.291 9.368,10.504 10.244 C 10.281 10.492,10.143 10.748,10.060 11.068 C 9.975 11.393,9.971 19.108,10.055 19.420 C 10.138 19.727,10.213 19.879,10.412 20.143 C 11.059 20.998,12.615 21.638,14.700 21.906 C 15.133 21.961,15.541 21.978,16.500 21.978 C 18.228 21.978,19.225 21.842,20.440 21.442 C 21.453 21.109,22.197 20.659,22.583 20.149 C 22.787 19.879,22.862 19.728,22.945 19.420 C 23.029 19.108,23.025 11.393,22.940 11.068 C 22.619 9.833,21.029 8.970,18.424 8.614 C 17.896 8.542,15.611 8.507,15.060 8.562 M18.420 10.632 C 19.325 10.774,19.965 10.960,20.542 11.251 C 20.889 11.426,20.947 11.485,20.850 11.567 C 20.490 11.874,19.404 12.226,18.348 12.379 C 17.287 12.533,15.713 12.533,14.652 12.379 C 13.596 12.226,12.510 11.874,12.150 11.567 C 12.053 11.485,12.111 11.426,12.458 11.251 C 13.182 10.886,13.907 10.707,15.320 10.544 C 15.397 10.536,16.009 10.533,16.680 10.540 C 17.668 10.549,17.999 10.566,18.420 10.632 M12.292 13.859 C 14.091 14.536,17.072 14.697,19.327 14.239 C 19.824 14.138,20.352 13.993,20.708 13.859 C 20.852 13.804,20.976 13.760,20.985 13.760 C 20.993 13.760,21.000 14.082,21.000 14.476 L 21.000 15.193 20.874 15.299 C 20.477 15.633,19.422 15.975,18.260 16.148 C 17.569 16.250,15.431 16.250,14.740 16.148 C 13.578 15.975,12.523 15.633,12.126 15.299 L 12.000 15.193 12.000 14.476 C 12.000 14.082,12.007 13.760,12.015 13.760 C 12.024 13.760,12.148 13.804,12.292 13.859 M12.393 17.642 C 12.820 17.793,13.540 17.976,14.020 18.056 C 14.851 18.194,15.238 18.220,16.500 18.220 C 17.762 18.220,18.149 18.194,18.980 18.056 C 19.460 17.976,20.180 17.793,20.607 17.642 C 20.798 17.575,20.964 17.520,20.977 17.520 C 20.990 17.520,21.000 17.844,21.000 18.240 L 21.000 18.959 20.830 19.085 C 20.350 19.439,19.253 19.770,18.040 19.926 C 17.775 19.960,17.206 19.980,16.500 19.980 C 15.794 19.980,15.225 19.960,14.960 19.926 C 13.747 19.770,12.650 19.439,12.170 19.085 L 12.000 18.959 12.000 18.240 C 12.000 17.844,12.010 17.520,12.023 17.520 C 12.036 17.520,12.202 17.575,12.393 17.642 " stroke="none" fill-rule="evenodd" fill="black"></path></svg>