<svg width="24" height="24" viewBox="0 0 24 24" fill="none" xmlns="http://www.w3.org/2000/svg"><path d="M6.332 2.044 C 4.062 2.198,2.129 2.909,1.417 3.851 C 1.213 4.121,1.138 4.272,1.055 4.580 C 0.975 4.876,0.975 17.124,1.055 17.420 C 1.138 17.727,1.213 17.879,1.412 18.143 C 2.059 18.998,3.614 19.638,5.700 19.906 C 6.137 19.962,6.537 19.978,7.520 19.977 C 8.739 19.976,9.253 19.940,9.969 19.806 C 10.147 19.773,10.162 19.777,10.224 19.875 C 10.677 20.587,11.406 21.073,12.596 21.456 C 13.807 21.846,14.793 21.978,16.500 21.978 C 18.228 21.978,19.225 21.842,20.440 21.442 C 21.453 21.109,22.197 20.659,22.583 20.149 C 22.787 19.879,22.862 19.728,22.945 19.420 C 23.025 19.125,23.025 10.875,22.945 10.580 C 22.862 10.272,22.787 10.121,22.583 9.851 C 21.689 8.667,19.025 7.920,16.039 8.015 C 15.344 8.037,14.418 8.118,14.110 8.183 L 14.000 8.206 14.000 6.493 C 13.999 4.449,13.989 4.389,13.583 3.851 C 12.613 2.568,9.620 1.822,6.332 2.044 M9.160 4.100 C 10.276 4.240,11.415 4.589,11.840 4.922 L 11.940 5.000 11.840 5.081 C 11.431 5.411,10.236 5.772,9.040 5.926 C 8.476 5.998,6.524 5.998,5.960 5.926 C 4.764 5.772,3.569 5.411,3.160 5.081 L 3.060 5.000 3.160 4.922 C 3.328 4.791,3.799 4.577,4.209 4.445 C 4.860 4.237,5.664 4.099,6.660 4.023 C 7.086 3.991,8.684 4.040,9.160 4.100 M4.640 7.733 C 5.628 7.932,6.162 7.978,7.500 7.978 C 9.222 7.978,10.223 7.842,11.430 7.446 L 12.000 7.258 12.000 8.002 L 12.000 8.745 11.713 8.882 C 11.370 9.047,11.007 9.274,10.759 9.481 C 10.603 9.611,10.516 9.646,10.119 9.734 C 9.236 9.932,8.752 9.977,7.520 9.979 C 6.789 9.979,6.229 9.960,5.960 9.926 C 4.746 9.770,3.650 9.439,3.170 9.085 L 3.000 8.959 3.000 8.109 L 3.000 7.258 3.570 7.446 C 3.884 7.549,4.365 7.678,4.640 7.733 M18.160 10.100 C 19.276 10.240,20.415 10.589,20.840 10.922 L 20.940 11.000 20.840 11.081 C 20.551 11.315,19.708 11.621,18.920 11.779 C 18.094 11.945,17.676 11.980,16.500 11.980 C 15.323 11.980,14.909 11.945,14.073 11.779 C 13.197 11.604,12.100 11.169,12.100 10.997 C 12.100 10.914,12.698 10.614,13.166 10.461 C 13.844 10.240,14.638 10.101,15.660 10.023 C 16.086 9.991,17.684 10.040,18.160 10.100 M4.640 11.733 C 5.636 11.933,6.160 11.978,7.520 11.977 C 8.487 11.976,8.901 11.960,9.299 11.906 C 9.585 11.868,9.859 11.827,9.909 11.814 L 10.000 11.791 10.000 12.773 C 10.000 13.673,9.994 13.756,9.930 13.776 C 9.780 13.823,9.074 13.919,8.560 13.964 C 7.908 14.021,6.411 13.988,5.795 13.902 C 4.653 13.744,3.633 13.427,3.170 13.085 L 3.000 12.959 3.000 12.109 L 3.000 11.258 3.570 11.446 C 3.884 11.549,4.365 11.678,4.640 11.733 M13.640 13.733 C 14.628 13.932,15.162 13.978,16.500 13.978 C 18.222 13.978,19.223 13.842,20.430 13.446 L 21.000 13.258 21.000 14.109 L 21.000 14.959 20.830 15.085 C 20.350 15.439,19.253 15.770,18.040 15.926 C 17.775 15.960,17.206 15.980,16.500 15.980 C 15.794 15.980,15.225 15.960,14.960 15.926 C 13.747 15.770,12.650 15.439,12.170 15.085 L 12.000 14.959 12.000 14.109 L 12.000 13.258 12.570 13.446 C 12.883 13.549,13.365 13.678,13.640 13.733 M4.640 15.733 C 5.636 15.933,6.160 15.978,7.520 15.977 C 8.487 15.976,8.901 15.960,9.299 15.906 C 9.585 15.868,9.859 15.827,9.909 15.814 L 10.000 15.791 10.000 16.773 C 10.000 17.673,9.994 17.756,9.930 17.776 C 9.780 17.823,9.074 17.919,8.560 17.964 C 7.908 18.021,6.411 17.988,5.795 17.902 C 4.653 17.744,3.633 17.427,3.170 17.085 L 3.000 16.959 3.000 16.109 L 3.000 15.258 3.570 15.446 C 3.884 15.549,4.365 15.678,4.640 15.733 M13.640 17.733 C 14.628 17.932,15.162 17.978,16.500 17.978 C 18.222 17.978,19.223 17.842,20.430 17.446 L 21.000 17.258 21.000 18.109 L 21.000 18.959 20.830 19.085 C 20.350 19.439,19.253 19.770,18.040 19.926 C 17.775 19.960,17.206 19.980,16.500 19.980 C 15.794 19.980,15.225 19.960,14.960 19.926 C 13.747 19.770,12.650 19.439,12.170 19.085 L 12.000 18.959 12.000 18.109 L 12.000 17.258 12.570 17.446 C 12.883 17.549,13.365 17.678,13.640 17.733 " stroke="none" fill-rule="evenodd" fill="black"></path></svg>