<svg width="24" height="24" viewBox="0 0 24 24" fill="none" xmlns="http://www.w3.org/2000/svg"><path d="M14.207 1.043 C 12.493 1.209,10.805 1.973,9.552 3.152 C 9.219 3.466,9.112 3.670,9.112 3.997 C 9.112 4.405,9.318 4.724,9.700 4.905 C 10.104 5.096,10.491 4.999,10.940 4.593 C 12.409 3.265,14.318 2.744,16.260 3.141 C 18.264 3.550,20.000 5.093,20.671 7.060 C 21.168 8.517,21.068 10.251,20.410 11.580 C 20.123 12.158,19.828 12.594,19.407 13.060 C 19.001 13.509,18.904 13.896,19.095 14.300 C 19.336 14.808,19.909 15.031,20.405 14.810 C 20.844 14.614,21.710 13.487,22.200 12.471 C 23.265 10.267,23.265 7.733,22.200 5.529 C 21.693 4.477,21.015 3.612,20.100 2.847 C 18.483 1.494,16.337 0.837,14.207 1.043 M8.207 7.043 C 6.656 7.193,5.096 7.846,3.900 8.847 C 2.985 9.612,2.307 10.477,1.800 11.529 C 0.734 13.734,0.735 16.267,1.801 18.474 C 2.225 19.352,2.730 20.049,3.446 20.741 C 4.114 21.389,4.706 21.803,5.529 22.200 C 8.259 23.519,11.467 23.184,13.900 21.326 C 14.239 21.067,14.925 20.394,15.211 20.040 C 17.163 17.625,17.547 14.317,16.200 11.529 C 15.693 10.477,15.015 9.612,14.100 8.847 C 12.483 7.494,10.337 6.837,8.207 7.043 M9.564 9.039 C 11.921 9.269,13.913 10.837,14.671 13.060 C 15.168 14.517,15.068 16.251,14.410 17.580 C 13.550 19.316,12.056 20.478,10.160 20.885 C 9.810 20.960,9.617 20.975,9.000 20.975 C 8.383 20.975,8.190 20.960,7.840 20.885 C 5.941 20.478,4.451 19.319,3.590 17.580 C 2.826 16.037,2.826 13.963,3.590 12.420 C 3.913 11.768,4.237 11.309,4.731 10.805 C 6.008 9.503,7.757 8.864,9.564 9.039 " stroke="none" fill-rule="evenodd" fill="black"></path></svg>