<svg width="24" height="24" viewBox="0 0 24 24" fill="none" xmlns="http://www.w3.org/2000/svg"><path d="M6.332 2.044 C 4.908 2.141,3.489 2.484,2.581 2.953 C 1.906 3.300,1.357 3.801,1.169 4.240 C 0.996 4.643,1.001 4.430,1.000 11.742 C 1.000 19.307,0.988 18.903,1.218 19.355 C 1.637 20.183,2.920 20.883,4.673 21.239 C 6.457 21.601,8.801 21.577,10.589 21.178 C 11.114 21.060,11.712 20.878,12.028 20.738 L 12.236 20.646 12.382 20.824 C 13.220 21.847,14.467 22.590,15.840 22.885 C 16.446 23.015,17.554 23.015,18.160 22.885 C 19.397 22.620,20.412 22.068,21.269 21.195 C 22.109 20.340,22.626 19.369,22.885 18.160 C 22.960 17.810,22.975 17.617,22.975 17.000 C 22.975 16.178,22.909 15.752,22.672 15.060 C 22.077 13.323,20.673 11.920,18.940 11.329 C 17.449 10.820,15.744 10.931,14.350 11.626 L 14.000 11.801 14.000 8.290 C 13.999 4.631,13.999 4.632,13.831 4.240 C 13.643 3.801,13.094 3.300,12.419 2.953 C 11.015 2.229,8.703 1.884,6.332 2.044 M9.160 4.100 C 10.276 4.240,11.415 4.589,11.840 4.922 L 11.940 5.000 11.840 5.081 C 11.431 5.411,10.236 5.772,9.040 5.926 C 8.476 5.998,6.524 5.998,5.960 5.926 C 4.764 5.772,3.569 5.411,3.160 5.081 L 3.060 5.000 3.160 4.922 C 3.328 4.791,3.799 4.577,4.209 4.445 C 4.860 4.237,5.664 4.099,6.660 4.023 C 7.086 3.991,8.684 4.040,9.160 4.100 M4.640 7.733 C 5.628 7.932,6.162 7.978,7.500 7.978 C 9.222 7.978,10.223 7.842,11.430 7.446 L 12.000 7.258 12.000 8.342 L 12.000 9.425 11.890 9.526 C 11.523 9.864,10.472 10.216,9.348 10.379 C 8.287 10.533,6.713 10.533,5.652 10.379 C 4.528 10.216,3.477 9.864,3.110 9.526 L 3.000 9.425 3.000 8.342 L 3.000 7.258 3.570 7.446 C 3.884 7.549,4.365 7.678,4.640 7.733 M3.292 11.859 C 5.091 12.536,8.072 12.697,10.327 12.239 C 10.824 12.138,11.352 11.993,11.708 11.859 C 11.852 11.804,11.976 11.760,11.985 11.760 C 11.993 11.760,12.000 12.192,12.000 12.719 L 12.000 13.679 11.873 13.889 C 11.686 14.201,11.658 14.225,11.325 14.364 C 10.635 14.652,9.607 14.874,8.537 14.964 C 7.860 15.021,6.444 14.989,5.814 14.904 C 4.661 14.747,3.637 14.430,3.170 14.085 L 3.000 13.959 3.000 12.860 C 3.000 12.255,3.007 11.760,3.015 11.760 C 3.024 11.760,3.148 11.804,3.292 11.859 M17.605 13.058 C 18.855 13.247,19.964 14.042,20.536 15.160 C 20.767 15.611,20.871 15.930,20.942 16.395 C 21.014 16.879,21.014 17.121,20.942 17.605 C 20.604 19.845,18.437 21.368,16.227 20.917 C 14.148 20.494,12.750 18.532,13.050 16.459 C 13.125 15.942,13.225 15.626,13.464 15.160 C 14.028 14.059,15.142 13.251,16.358 13.061 C 16.816 12.990,17.144 12.989,17.605 13.058 M4.640 16.733 C 5.612 16.929,6.166 16.977,7.460 16.978 C 8.792 16.979,9.376 16.927,10.385 16.717 C 10.696 16.653,10.962 16.600,10.975 16.600 C 10.989 16.600,11.000 16.776,11.000 16.990 C 11.000 17.495,11.064 18.007,11.185 18.473 C 11.238 18.678,11.271 18.862,11.259 18.881 C 11.227 18.933,10.562 19.139,10.113 19.236 C 8.794 19.520,7.016 19.577,5.653 19.380 C 4.528 19.216,3.477 18.864,3.110 18.526 L 3.000 18.425 3.000 17.342 L 3.000 16.258 3.570 16.446 C 3.884 16.549,4.365 16.678,4.640 16.733 " stroke="none" fill-rule="evenodd" fill="black"></path></svg>