<svg width="24" height="24" viewBox="0 0 24 24" fill="none" xmlns="http://www.w3.org/2000/svg"><path d="M11.540 1.023 C 10.715 1.102,10.250 1.200,9.620 1.427 C 7.241 2.283,5.513 4.366,5.095 6.880 C 4.969 7.640,4.985 8.621,5.134 9.348 L 5.185 9.593 4.984 9.687 C 3.502 10.376,2.185 11.758,1.538 13.300 C 0.860 14.918,0.830 16.829,1.456 18.470 C 2.364 20.848,4.428 22.514,6.980 22.926 C 7.392 22.992,8.607 22.992,9.020 22.926 C 9.981 22.771,10.822 22.462,11.669 21.953 L 11.998 21.756 12.291 21.933 C 14.178 23.079,16.342 23.306,18.380 22.573 C 20.069 21.965,21.457 20.724,22.274 19.090 C 23.159 17.320,23.230 15.134,22.462 13.300 C 21.815 11.758,20.498 10.376,19.016 9.687 L 18.815 9.593 18.866 9.348 C 19.058 8.415,19.026 7.243,18.783 6.280 C 18.104 3.594,15.818 1.509,13.102 1.098 C 12.726 1.041,11.813 0.997,11.540 1.023 M12.552 3.043 C 14.413 3.246,16.001 4.479,16.680 6.248 C 17.092 7.320,17.085 8.720,16.663 9.793 C 16.120 11.174,14.991 12.256,13.600 12.732 C 13.044 12.922,12.670 12.980,12.000 12.980 C 11.330 12.980,10.956 12.922,10.400 12.732 C 8.808 12.188,7.580 10.864,7.161 9.240 C 6.920 8.307,6.983 7.125,7.320 6.248 C 8.146 4.096,10.274 2.793,12.552 3.043 M6.021 11.630 C 6.224 11.983,6.693 12.577,7.058 12.940 C 8.125 14.006,9.416 14.663,10.960 14.924 C 11.130 14.953,11.610 14.976,12.067 14.978 C 12.510 14.979,12.882 14.989,12.893 15.000 C 12.904 15.011,12.935 15.241,12.962 15.511 C 13.040 16.284,12.931 17.112,12.663 17.793 C 12.120 19.174,10.991 20.256,9.600 20.732 C 9.044 20.922,8.670 20.980,8.000 20.980 C 7.330 20.980,6.956 20.922,6.400 20.732 C 4.993 20.251,3.858 19.153,3.320 17.752 C 3.012 16.950,2.929 15.914,3.101 15.006 C 3.363 13.627,4.299 12.351,5.590 11.616 C 5.759 11.519,5.901 11.440,5.905 11.440 C 5.909 11.440,5.961 11.525,6.021 11.630 M18.935 11.954 C 19.314 12.226,19.871 12.804,20.140 13.204 C 20.935 14.390,21.190 15.861,20.839 17.240 C 20.487 18.624,19.495 19.845,18.212 20.476 C 17.467 20.842,16.862 20.980,16.000 20.980 C 15.331 20.980,14.959 20.922,14.400 20.732 C 14.058 20.616,13.520 20.364,13.520 20.321 C 13.520 20.305,13.581 20.212,13.655 20.115 C 14.115 19.512,14.578 18.529,14.783 17.720 C 14.986 16.915,15.046 15.972,14.943 15.173 C 14.906 14.883,14.861 14.593,14.842 14.528 C 14.810 14.415,14.817 14.406,15.012 14.315 C 15.353 14.156,15.893 13.824,16.245 13.556 C 16.876 13.077,17.627 12.242,17.979 11.629 L 18.089 11.438 18.355 11.583 C 18.501 11.663,18.762 11.830,18.935 11.954 " stroke="none" fill-rule="evenodd" fill="black"></path></svg>