<svg width="24" height="24" viewBox="0 0 24 24" fill="none" xmlns="http://www.w3.org/2000/svg"><path d="M4.749 2.045 C 3.967 2.120,3.402 2.371,2.890 2.870 C 2.491 3.260,2.236 3.731,2.094 4.340 C 2.023 4.646,2.020 4.987,2.020 12.020 L 2.020 19.380 2.111 19.735 C 2.225 20.184,2.379 20.505,2.650 20.858 C 3.038 21.363,3.594 21.719,4.265 21.889 C 4.609 21.977,4.679 21.980,6.480 21.980 C 8.152 21.980,8.372 21.972,8.660 21.906 C 9.269 21.764,9.711 21.526,10.118 21.118 C 10.526 20.711,10.764 20.269,10.906 19.660 C 10.977 19.354,10.980 19.014,10.980 12.000 C 10.980 4.986,10.977 4.646,10.906 4.340 C 10.688 3.404,10.167 2.737,9.329 2.321 C 9.019 2.168,8.706 2.091,8.180 2.042 C 7.667 1.993,5.261 1.995,4.749 2.045 M15.749 2.045 C 14.967 2.120,14.402 2.371,13.890 2.870 C 13.491 3.260,13.236 3.731,13.094 4.340 C 13.023 4.646,13.020 4.987,13.020 12.020 L 13.020 19.380 13.111 19.735 C 13.225 20.184,13.379 20.505,13.650 20.858 C 14.038 21.363,14.594 21.719,15.265 21.889 C 15.609 21.977,15.679 21.980,17.480 21.980 C 19.152 21.980,19.372 21.972,19.660 21.906 C 20.459 21.720,21.041 21.327,21.486 20.671 C 21.685 20.378,21.807 20.084,21.906 19.660 C 21.977 19.354,21.980 19.014,21.980 12.000 C 21.980 4.986,21.977 4.646,21.906 4.340 C 21.688 3.404,21.167 2.737,20.329 2.321 C 20.019 2.168,19.706 2.091,19.180 2.042 C 18.667 1.993,16.261 1.995,15.749 2.045 M8.374 4.077 C 8.584 4.143,8.862 4.430,8.928 4.646 C 9.005 4.903,9.005 19.097,8.928 19.354 C 8.863 19.567,8.591 19.849,8.376 19.925 C 8.148 20.005,4.852 20.005,4.624 19.925 C 4.423 19.854,4.141 19.571,4.074 19.374 C 4.032 19.251,4.020 17.840,4.010 12.260 C 4.002 7.832,4.012 5.170,4.038 4.944 C 4.102 4.366,4.342 4.105,4.866 4.040 C 5.290 3.988,8.188 4.019,8.374 4.077 M19.374 4.077 C 19.584 4.143,19.862 4.430,19.928 4.646 C 20.005 4.903,20.005 19.097,19.928 19.354 C 19.863 19.567,19.591 19.849,19.376 19.925 C 19.148 20.005,15.852 20.005,15.624 19.925 C 15.423 19.854,15.141 19.571,15.074 19.374 C 15.032 19.251,15.020 17.840,15.010 12.260 C 15.002 7.832,15.012 5.170,15.038 4.944 C 15.102 4.366,15.342 4.105,15.866 4.040 C 16.290 3.988,19.188 4.019,19.374 4.077 " stroke="none" fill-rule="evenodd" fill="black"></path></svg>