<svg width="24" height="24" viewBox="0 0 24 24" fill="none" xmlns="http://www.w3.org/2000/svg"><path d="M5.920 2.041 C 5.151 2.092,4.672 2.205,4.180 2.451 C 3.089 2.996,2.357 3.961,2.124 5.160 C 2.013 5.729,2.000 6.455,2.000 12.000 C 2.000 18.358,2.006 18.526,2.245 19.320 C 2.577 20.422,3.578 21.423,4.680 21.755 C 5.474 21.994,5.642 22.000,12.000 22.000 C 18.358 22.000,18.526 21.994,19.320 21.755 C 20.422 21.423,21.423 20.422,21.755 19.320 C 21.994 18.526,22.000 18.358,22.000 12.000 C 22.000 5.642,21.994 5.474,21.755 4.680 C 21.424 3.581,20.465 2.622,19.320 2.246 C 18.644 2.024,18.800 2.029,12.340 2.019 C 9.062 2.014,6.173 2.024,5.920 2.041 M11.000 12.003 L 11.000 20.006 8.370 19.988 C 6.502 19.976,5.676 19.956,5.520 19.922 C 5.153 19.840,4.880 19.686,4.600 19.403 C 4.303 19.104,4.186 18.890,4.088 18.472 C 4.025 18.203,4.020 17.687,4.020 12.000 C 4.020 6.313,4.025 5.797,4.088 5.528 C 4.175 5.155,4.294 4.918,4.520 4.667 C 4.884 4.261,5.283 4.090,5.980 4.040 C 6.200 4.025,7.420 4.009,8.690 4.006 L 11.000 4.000 11.000 12.003 M18.492 4.093 C 18.891 4.186,19.108 4.307,19.400 4.600 C 19.696 4.895,19.814 5.109,19.912 5.528 C 19.975 5.797,19.980 6.313,19.980 12.000 C 19.980 17.687,19.975 18.203,19.912 18.472 C 19.814 18.891,19.696 19.104,19.400 19.401 C 19.119 19.682,18.836 19.842,18.480 19.922 C 18.324 19.956,17.498 19.976,15.630 19.988 L 13.000 20.006 13.000 11.999 L 13.000 3.992 15.610 4.011 C 17.807 4.027,18.263 4.040,18.492 4.093 " stroke="none" fill-rule="evenodd" fill="black"></path></svg>