<svg width="24" height="24" viewBox="0 0 24 24" fill="none" xmlns="http://www.w3.org/2000/svg"><path d="M11.280 1.023 C 11.203 1.032,10.951 1.059,10.720 1.083 C 9.527 1.210,8.337 1.558,7.180 2.120 C 6.045 2.671,5.193 3.285,4.238 4.239 C 3.277 5.198,2.643 6.080,2.097 7.220 C 0.301 10.968,0.728 15.286,3.226 18.633 C 3.701 19.269,4.753 20.316,5.400 20.797 C 9.364 23.745,14.666 23.734,18.637 20.770 C 19.246 20.316,20.316 19.246,20.770 18.637 C 23.744 14.652,23.744 9.348,20.770 5.363 C 20.316 4.755,19.247 3.686,18.640 3.235 C 17.045 2.049,15.365 1.360,13.423 1.096 C 13.000 1.038,11.574 0.990,11.280 1.023 M11.006 3.693 C 11.020 4.295,11.022 4.310,11.141 4.503 C 11.543 5.156,12.457 5.156,12.859 4.503 C 12.978 4.310,12.980 4.296,12.994 3.688 L 13.007 3.069 13.242 3.094 C 14.556 3.231,16.409 3.998,17.432 4.829 L 17.604 4.969 17.211 5.374 C 16.752 5.847,16.670 5.994,16.670 6.344 C 16.670 6.918,17.085 7.330,17.663 7.330 C 18.005 7.330,18.155 7.246,18.626 6.789 L 19.031 6.396 19.171 6.568 C 20.003 7.592,20.769 9.444,20.906 10.761 L 20.931 11.000 20.412 11.000 C 19.651 11.000,19.364 11.116,19.128 11.516 C 19.037 11.672,19.020 11.746,19.020 12.000 C 19.020 12.256,19.036 12.328,19.131 12.489 C 19.370 12.895,19.617 12.996,20.376 12.998 L 20.931 13.000 20.906 13.239 C 20.769 14.557,20.003 16.408,19.170 17.433 L 19.030 17.605 18.642 17.224 C 18.187 16.777,18.012 16.682,17.639 16.681 C 17.075 16.679,16.670 17.087,16.670 17.656 C 16.670 18.007,16.752 18.153,17.215 18.630 C 17.434 18.856,17.605 19.047,17.596 19.054 C 17.587 19.062,17.445 19.167,17.280 19.288 C 16.147 20.115,14.616 20.734,13.253 20.913 L 13.007 20.946 12.993 20.323 C 12.981 19.728,12.975 19.692,12.871 19.514 C 12.648 19.134,12.208 18.941,11.786 19.035 C 11.515 19.096,11.270 19.275,11.129 19.514 C 11.025 19.692,11.019 19.728,11.007 20.323 L 10.993 20.946 10.747 20.913 C 9.645 20.768,8.364 20.314,7.361 19.711 C 7.098 19.554,6.541 19.172,6.404 19.054 C 6.395 19.047,6.566 18.856,6.785 18.630 C 7.248 18.153,7.330 18.007,7.330 17.656 C 7.330 17.087,6.925 16.679,6.361 16.681 C 5.988 16.682,5.813 16.777,5.358 17.224 L 4.970 17.605 4.830 17.433 C 3.997 16.408,3.231 14.557,3.094 13.239 L 3.069 13.000 3.624 12.998 C 4.383 12.996,4.630 12.895,4.869 12.489 C 4.964 12.328,4.980 12.256,4.980 12.000 C 4.980 11.746,4.963 11.672,4.872 11.516 C 4.636 11.116,4.349 11.000,3.588 11.000 L 3.069 11.000 3.094 10.761 C 3.231 9.444,3.997 7.592,4.829 6.568 L 4.969 6.396 5.374 6.789 C 5.845 7.246,5.995 7.330,6.337 7.330 C 6.915 7.330,7.330 6.918,7.330 6.344 C 7.330 5.994,7.248 5.847,6.789 5.374 L 6.396 4.969 6.568 4.829 C 7.423 4.135,8.964 3.431,10.120 3.205 C 10.351 3.160,10.576 3.115,10.620 3.106 C 10.664 3.097,10.766 3.087,10.846 3.085 L 10.993 3.080 11.006 3.693 M11.640 7.068 C 11.486 7.121,11.151 7.438,9.347 9.235 C 8.166 10.411,7.187 11.419,7.127 11.520 C 7.037 11.672,7.020 11.746,7.020 12.000 C 7.020 12.254,7.036 12.328,7.127 12.480 C 7.261 12.705,11.368 16.805,11.560 16.905 C 11.659 16.957,11.788 16.979,12.000 16.979 C 12.255 16.980,12.327 16.964,12.480 16.873 C 12.705 16.739,16.805 12.632,16.905 12.440 C 16.957 12.341,16.979 12.212,16.979 12.000 C 16.980 11.745,16.964 11.673,16.873 11.520 C 16.813 11.419,15.834 10.412,14.653 9.235 C 12.748 7.338,12.521 7.124,12.343 7.065 C 12.102 6.985,11.878 6.986,11.640 7.068 M13.300 10.720 L 14.580 12.000 13.290 13.290 L 12.000 14.580 10.710 13.290 L 9.420 12.000 10.700 10.720 C 11.404 10.016,11.989 9.440,12.000 9.440 C 12.011 9.440,12.596 10.016,13.300 10.720 " stroke="none" fill-rule="evenodd" fill="black"></path></svg>