<svg width="24" height="24" viewBox="0 0 24 24" fill="none" xmlns="http://www.w3.org/2000/svg"><path d="M11.695 1.057 C 11.466 1.129,11.256 1.299,11.128 1.516 C 11.023 1.695,11.020 1.720,11.007 2.430 C 10.997 2.956,10.980 3.160,10.947 3.160 C 10.825 3.160,10.055 3.584,9.793 3.795 C 8.625 4.736,8.194 6.366,8.742 7.764 C 8.876 8.108,9.087 8.471,9.277 8.687 C 9.367 8.789,9.440 8.882,9.440 8.893 C 9.440 8.923,5.482 15.734,5.440 15.776 C 5.385 15.831,4.901 15.423,4.175 14.712 C 3.803 14.347,3.470 14.055,3.387 14.020 C 3.187 13.937,2.779 13.944,2.578 14.035 C 2.086 14.259,1.866 14.902,2.115 15.390 C 2.278 15.710,3.489 16.881,4.168 17.374 C 4.293 17.465,4.396 17.552,4.398 17.567 C 4.399 17.582,3.884 18.482,3.253 19.567 C 2.622 20.652,2.083 21.603,2.055 21.680 C 1.932 22.015,2.033 22.435,2.299 22.701 C 2.691 23.093,3.316 23.093,3.697 22.700 C 3.800 22.595,4.280 21.807,4.993 20.571 L 6.127 18.609 6.493 18.779 C 7.713 19.346,8.982 19.712,10.400 19.908 C 11.102 20.005,12.898 20.005,13.600 19.908 C 15.018 19.712,16.287 19.346,17.507 18.779 L 17.873 18.609 19.007 20.571 C 19.720 21.807,20.200 22.595,20.303 22.700 C 20.684 23.093,21.309 23.093,21.701 22.701 C 21.967 22.435,22.068 22.015,21.945 21.680 C 21.917 21.603,21.378 20.652,20.747 19.567 C 20.116 18.482,19.601 17.582,19.601 17.567 C 19.602 17.552,19.706 17.465,19.832 17.373 C 20.509 16.882,21.721 15.711,21.885 15.390 C 22.134 14.902,21.914 14.259,21.422 14.035 C 21.220 13.944,20.813 13.937,20.609 14.022 C 20.521 14.059,20.204 14.337,19.821 14.714 C 19.104 15.419,18.615 15.831,18.560 15.776 C 18.518 15.734,14.560 8.923,14.560 8.893 C 14.560 8.882,14.633 8.789,14.723 8.687 C 15.197 8.149,15.487 7.317,15.487 6.500 C 15.487 5.415,15.014 4.433,14.166 3.760 C 13.933 3.575,13.164 3.160,13.053 3.160 C 13.020 3.160,13.003 2.956,12.993 2.430 C 12.980 1.720,12.977 1.695,12.872 1.516 C 12.628 1.101,12.150 0.915,11.695 1.057 M12.344 5.053 C 13.388 5.272,13.837 6.579,13.161 7.433 C 12.987 7.655,12.699 7.859,12.462 7.930 C 12.253 7.992,11.747 7.992,11.538 7.930 C 11.301 7.859,11.013 7.655,10.839 7.433 C 10.290 6.740,10.460 5.715,11.202 5.239 C 11.407 5.107,11.732 5.009,11.980 5.004 C 12.046 5.003,12.210 5.025,12.344 5.053 M12.000 9.980 C 12.231 9.980,12.511 9.965,12.622 9.947 L 12.824 9.915 14.835 13.377 C 15.940 15.282,16.835 16.856,16.822 16.876 C 16.786 16.936,15.897 17.297,15.360 17.471 C 14.185 17.852,13.354 17.977,12.000 17.977 C 10.646 17.977,9.815 17.852,8.640 17.471 C 8.103 17.297,7.214 16.936,7.178 16.876 C 7.165 16.856,8.060 15.282,9.165 13.377 L 11.176 9.915 11.378 9.947 C 11.489 9.965,11.769 9.980,12.000 9.980 " stroke="none" fill-rule="evenodd" fill="black"></path></svg>