<svg width="24" height="24" viewBox="0 0 24 24" fill="none" xmlns="http://www.w3.org/2000/svg"><path d="M11.280 1.023 C 11.203 1.032,10.951 1.059,10.720 1.083 C 9.527 1.210,8.337 1.558,7.180 2.120 C 6.045 2.671,5.193 3.285,4.238 4.239 C 3.277 5.198,2.643 6.080,2.097 7.220 C 0.301 10.968,0.728 15.286,3.226 18.633 C 3.701 19.269,4.753 20.316,5.400 20.797 C 9.364 23.745,14.666 23.734,18.637 20.770 C 19.246 20.316,20.316 19.246,20.770 18.637 C 23.744 14.652,23.744 9.348,20.770 5.363 C 20.316 4.755,19.247 3.686,18.640 3.235 C 17.045 2.049,15.365 1.360,13.423 1.096 C 13.000 1.038,11.574 0.990,11.280 1.023 M13.320 3.101 C 15.883 3.488,18.124 4.931,19.560 7.120 C 19.863 7.583,20.303 8.479,20.492 9.020 C 20.838 10.013,20.977 10.865,20.977 12.000 C 20.977 13.493,20.720 14.621,20.080 15.940 C 19.375 17.394,18.311 18.607,16.927 19.532 C 16.138 20.060,14.876 20.588,13.908 20.797 C 11.266 21.366,8.479 20.708,6.370 19.019 C 4.857 17.807,3.722 16.029,3.267 14.160 C 3.081 13.397,3.023 12.888,3.023 12.000 C 3.023 10.507,3.280 9.379,3.920 8.060 C 4.971 5.891,6.877 4.221,9.160 3.466 C 9.865 3.233,10.432 3.118,11.340 3.024 C 11.662 2.991,12.911 3.039,13.320 3.101 M14.960 7.142 C 14.525 7.262,9.816 8.843,9.619 8.934 C 9.346 9.062,9.049 9.368,8.918 9.660 C 8.859 9.792,8.431 11.043,7.967 12.440 C 7.073 15.133,7.015 15.355,7.101 15.765 C 7.168 16.085,7.255 16.256,7.463 16.479 C 7.787 16.826,8.241 16.976,8.760 16.909 C 9.032 16.873,13.905 15.278,14.340 15.082 C 14.649 14.943,14.943 14.649,15.082 14.340 C 15.142 14.208,15.574 12.948,16.043 11.540 L 16.896 8.980 16.898 8.540 C 16.900 8.138,16.890 8.080,16.789 7.874 C 16.659 7.609,16.412 7.369,16.114 7.215 C 15.936 7.124,15.839 7.103,15.540 7.093 C 15.305 7.085,15.104 7.102,14.960 7.142 M14.630 9.410 C 14.620 9.438,14.328 10.315,13.981 11.360 C 13.634 12.405,13.330 13.280,13.305 13.305 C 13.260 13.350,9.396 14.649,9.373 14.627 C 9.358 14.611,10.626 10.799,10.671 10.722 C 10.698 10.677,14.473 9.376,14.614 9.363 C 14.633 9.361,14.640 9.383,14.630 9.410 " stroke="none" fill-rule="evenodd" fill="black"></path></svg>