<svg width="24" height="24" viewBox="0 0 24 24" fill="none" xmlns="http://www.w3.org/2000/svg"><path d="M11.280 1.023 C 11.203 1.032,10.951 1.059,10.720 1.083 C 9.527 1.210,8.337 1.558,7.180 2.120 C 6.045 2.671,5.193 3.285,4.238 4.239 C 3.277 5.198,2.643 6.080,2.097 7.220 C 0.301 10.968,0.728 15.286,3.226 18.633 C 3.701 19.269,4.753 20.316,5.400 20.797 C 9.364 23.745,14.666 23.734,18.637 20.770 C 19.246 20.316,20.316 19.246,20.770 18.637 C 23.744 14.652,23.744 9.348,20.770 5.363 C 20.316 4.755,19.247 3.686,18.640 3.235 C 17.045 2.049,15.365 1.360,13.423 1.096 C 13.000 1.038,11.574 0.990,11.280 1.023 M13.320 3.101 C 15.883 3.488,18.124 4.931,19.560 7.120 C 19.863 7.583,20.303 8.479,20.492 9.020 C 20.838 10.013,20.977 10.865,20.977 12.000 C 20.977 13.493,20.720 14.621,20.080 15.940 C 19.375 17.394,18.311 18.607,16.927 19.532 C 16.138 20.060,14.876 20.588,13.908 20.797 C 11.266 21.366,8.479 20.708,6.370 19.019 C 4.857 17.807,3.722 16.029,3.267 14.160 C 3.081 13.397,3.023 12.888,3.023 12.000 C 3.023 10.507,3.280 9.379,3.920 8.060 C 4.971 5.891,6.877 4.221,9.160 3.466 C 9.865 3.233,10.432 3.118,11.340 3.024 C 11.662 2.991,12.911 3.039,13.320 3.101 M15.520 5.757 C 15.210 5.851,14.929 6.117,14.846 6.394 C 14.785 6.600,14.790 6.886,14.861 7.180 C 15.081 8.097,15.012 9.440,14.692 10.459 C 13.969 12.759,12.021 14.455,9.580 14.911 C 9.028 15.014,7.833 15.001,7.280 14.887 C 6.728 14.773,6.526 14.775,6.283 14.898 C 5.834 15.126,5.613 15.632,5.766 16.084 C 5.870 16.395,6.509 17.164,7.052 17.634 C 8.102 18.543,9.401 19.163,10.748 19.399 C 11.227 19.483,12.006 19.517,12.540 19.477 C 16.259 19.196,19.196 16.259,19.477 12.540 C 19.517 12.006,19.483 11.227,19.399 10.748 C 19.163 9.401,18.543 8.102,17.634 7.052 C 17.164 6.509,16.395 5.870,16.084 5.766 C 15.933 5.715,15.673 5.711,15.520 5.757 M17.218 10.291 C 17.560 11.325,17.574 12.494,17.256 13.590 C 16.856 14.970,15.829 16.206,14.525 16.875 C 13.710 17.294,12.897 17.488,11.960 17.486 C 11.190 17.485,10.484 17.340,9.827 17.050 L 9.595 16.947 10.141 16.837 C 11.834 16.496,13.282 15.721,14.501 14.501 C 15.719 13.284,16.505 11.819,16.832 10.153 L 16.940 9.606 17.011 9.744 C 17.051 9.820,17.144 10.066,17.218 10.291 " stroke="none" fill-rule="evenodd" fill="black"></path></svg>