<svg width="24" height="24" viewBox="0 0 24 24" fill="none" xmlns="http://www.w3.org/2000/svg"><path d="M11.280 1.026 C 9.617 1.179,8.507 1.476,7.180 2.120 C 6.045 2.671,5.193 3.285,4.238 4.239 C 3.277 5.198,2.643 6.080,2.097 7.220 C 0.301 10.968,0.728 15.286,3.226 18.633 C 3.701 19.269,4.753 20.316,5.400 20.797 C 7.085 22.050,9.011 22.781,11.100 22.962 C 12.001 23.041,13.446 22.960,14.048 22.798 C 14.246 22.744,14.530 22.488,14.638 22.264 C 14.830 21.867,14.690 21.325,14.325 21.058 C 14.087 20.884,13.823 20.829,13.480 20.880 C 13.337 20.901,13.171 20.919,13.110 20.919 L 13.000 20.920 13.000 12.000 C 13.000 3.531,13.004 3.080,13.070 3.080 C 13.108 3.080,13.290 3.101,13.473 3.126 C 13.870 3.182,14.122 3.123,14.375 2.914 C 14.681 2.662,14.811 2.135,14.658 1.769 C 14.588 1.601,14.353 1.341,14.197 1.259 C 13.876 1.090,12.109 0.949,11.280 1.026 M17.407 2.876 C 16.840 3.072,16.586 3.704,16.854 4.251 C 16.946 4.439,17.032 4.525,17.451 4.849 C 18.073 5.330,18.670 5.927,19.151 6.549 C 19.468 6.960,19.563 7.055,19.735 7.137 C 20.030 7.279,20.196 7.299,20.458 7.222 C 21.001 7.065,21.316 6.491,21.145 5.974 C 20.903 5.248,18.712 3.066,18.012 2.856 C 17.772 2.783,17.666 2.787,17.407 2.876 M11.000 12.013 L 11.000 20.947 10.750 20.914 C 9.539 20.754,8.061 20.195,7.040 19.511 C 5.689 18.606,4.618 17.380,3.920 15.940 C 3.487 15.047,3.246 14.271,3.094 13.280 C 2.997 12.646,2.997 11.354,3.094 10.720 C 3.494 8.105,4.917 5.885,7.120 4.440 C 7.944 3.900,9.191 3.386,10.120 3.205 C 10.351 3.160,10.576 3.115,10.620 3.106 C 10.664 3.097,10.768 3.087,10.850 3.085 L 11.000 3.080 11.000 12.013 M21.408 9.384 C 21.147 9.514,20.975 9.718,20.894 9.996 C 20.836 10.194,20.837 10.252,20.903 10.736 C 20.950 11.082,20.974 11.511,20.974 12.000 C 20.974 12.489,20.950 12.918,20.903 13.264 C 20.837 13.748,20.836 13.806,20.894 14.004 C 21.023 14.444,21.396 14.720,21.860 14.719 C 22.165 14.718,22.371 14.625,22.587 14.390 C 22.778 14.183,22.813 14.078,22.908 13.440 C 23.046 12.517,22.986 10.627,22.797 9.946 C 22.743 9.751,22.485 9.469,22.264 9.362 C 22.017 9.242,21.674 9.251,21.408 9.384 M19.780 16.838 C 19.552 16.947,19.490 17.008,19.111 17.500 C 18.688 18.048,18.019 18.721,17.520 19.100 C 17.008 19.491,16.929 19.569,16.831 19.790 C 16.730 20.018,16.721 20.356,16.810 20.566 C 17.043 21.112,17.722 21.354,18.215 21.065 C 18.966 20.625,20.340 19.283,20.941 18.402 C 21.260 17.936,21.265 17.480,20.957 17.109 C 20.686 16.781,20.154 16.659,19.780 16.838 " stroke="none" fill-rule="evenodd" fill="black"></path></svg>