<svg width="24" height="24" viewBox="0 0 24 24" fill="none" xmlns="http://www.w3.org/2000/svg"><path d="M11.280 1.023 C 11.203 1.032,10.951 1.059,10.720 1.083 C 9.527 1.210,8.337 1.558,7.180 2.120 C 6.045 2.671,5.193 3.285,4.238 4.239 C 3.277 5.198,2.643 6.080,2.097 7.220 C 0.301 10.968,0.728 15.286,3.226 18.633 C 3.701 19.269,4.753 20.316,5.400 20.797 C 9.364 23.745,14.666 23.734,18.637 20.770 C 19.246 20.316,20.316 19.246,20.770 18.637 C 23.744 14.652,23.744 9.348,20.770 5.363 C 20.316 4.755,19.247 3.686,18.640 3.235 C 17.045 2.049,15.365 1.360,13.423 1.096 C 13.000 1.038,11.574 0.990,11.280 1.023 M13.320 3.101 C 15.883 3.488,18.124 4.931,19.560 7.120 C 19.863 7.583,20.303 8.479,20.492 9.020 C 20.838 10.013,20.977 10.865,20.977 12.000 C 20.977 13.493,20.720 14.621,20.080 15.940 C 19.375 17.394,18.311 18.607,16.927 19.532 C 16.138 20.060,14.876 20.588,13.908 20.797 C 11.266 21.366,8.479 20.708,6.370 19.019 C 4.857 17.807,3.722 16.029,3.267 14.160 C 3.081 13.397,3.023 12.888,3.023 12.000 C 3.023 10.507,3.280 9.379,3.920 8.060 C 4.971 5.891,6.877 4.221,9.160 3.466 C 9.865 3.233,10.432 3.118,11.340 3.024 C 11.662 2.991,12.911 3.039,13.320 3.101 M11.600 4.584 C 11.399 4.671,11.205 4.869,11.095 5.100 L 11.001 5.300 11.001 12.000 C 11.002 18.652,11.002 18.701,11.083 18.880 C 11.175 19.083,11.366 19.298,11.531 19.385 C 11.735 19.492,12.003 19.516,12.540 19.476 C 16.260 19.199,19.194 16.261,19.478 12.530 C 19.773 8.653,16.951 5.151,13.075 4.582 C 12.523 4.501,11.789 4.502,11.600 4.584 M13.600 6.746 C 13.978 6.854,14.691 7.190,15.061 7.435 C 16.291 8.250,17.153 9.593,17.418 11.110 C 17.498 11.563,17.498 12.437,17.418 12.890 C 17.105 14.683,16.020 16.143,14.422 16.922 C 14.004 17.126,13.219 17.400,13.055 17.400 C 13.009 17.400,13.000 16.545,13.000 11.997 L 13.000 6.594 13.130 6.622 C 13.202 6.637,13.413 6.693,13.600 6.746 " stroke="none" fill-rule="evenodd" fill="black"></path></svg>