<svg width="24" height="24" viewBox="0 0 24 24" fill="none" xmlns="http://www.w3.org/2000/svg"><path d="M3.749 1.045 C 2.967 1.120,2.402 1.371,1.890 1.870 C 1.491 2.260,1.236 2.731,1.094 3.340 C 1.024 3.643,1.020 3.924,1.020 8.540 L 1.020 13.420 1.110 13.760 C 1.395 14.836,2.159 15.606,3.220 15.885 C 3.607 15.987,4.985 16.040,5.264 15.965 C 5.498 15.901,5.737 15.714,5.867 15.492 C 5.964 15.327,5.980 15.257,5.980 15.000 C 5.980 14.746,5.963 14.672,5.872 14.516 C 5.759 14.325,5.565 14.153,5.373 14.074 C 5.311 14.049,4.914 14.015,4.492 13.999 C 3.638 13.966,3.469 13.920,3.255 13.667 C 3.004 13.369,3.020 13.719,3.020 8.540 C 3.020 4.759,3.030 3.785,3.072 3.646 C 3.142 3.418,3.418 3.142,3.646 3.072 C 3.785 3.030,4.759 3.020,8.540 3.020 L 13.260 3.020 13.440 3.114 C 13.678 3.238,13.769 3.326,13.874 3.537 C 13.951 3.691,13.965 3.807,13.993 4.513 C 14.024 5.306,14.025 5.315,14.143 5.507 C 14.543 6.156,15.458 6.154,15.859 5.503 L 15.980 5.306 15.976 4.423 C 15.973 3.649,15.962 3.501,15.886 3.222 C 15.652 2.366,15.136 1.726,14.371 1.343 C 14.015 1.165,13.742 1.089,13.280 1.041 C 12.815 0.993,4.257 0.996,3.749 1.045 M10.749 8.045 C 9.967 8.120,9.402 8.371,8.890 8.870 C 8.491 9.260,8.236 9.731,8.094 10.340 C 8.024 10.643,8.020 10.924,8.020 15.520 L 8.020 20.380 8.111 20.735 C 8.281 21.406,8.637 21.962,9.142 22.350 C 9.495 22.621,9.816 22.775,10.265 22.889 L 10.620 22.980 15.480 22.980 C 20.076 22.980,20.357 22.976,20.660 22.906 C 21.459 22.720,22.041 22.327,22.486 21.671 C 22.685 21.378,22.807 21.084,22.906 20.660 C 22.976 20.357,22.980 20.077,22.980 15.500 C 22.980 10.923,22.976 10.643,22.906 10.340 C 22.688 9.404,22.167 8.737,21.329 8.321 C 21.019 8.168,20.706 8.091,20.180 8.042 C 19.649 7.991,11.273 7.994,10.749 8.045 M20.374 10.075 C 20.585 10.145,20.862 10.431,20.928 10.646 C 21.005 10.902,21.005 20.098,20.928 20.354 C 20.863 20.567,20.591 20.849,20.376 20.925 C 20.144 21.007,10.856 21.007,10.624 20.925 C 10.422 20.854,10.140 20.571,10.075 20.374 C 10.008 20.175,9.974 11.515,10.037 10.949 C 10.102 10.365,10.341 10.104,10.866 10.041 C 11.017 10.024,13.183 10.012,15.680 10.016 C 19.257 10.022,20.253 10.034,20.374 10.075 " stroke="none" fill-rule="evenodd" fill="black"></path></svg>