<svg width="24" height="24" viewBox="0 0 24 24" fill="none" xmlns="http://www.w3.org/2000/svg"><path d="M9.749 1.045 C 8.771 1.139,8.037 1.557,7.527 2.310 C 7.319 2.616,7.219 2.844,7.111 3.260 C 7.034 3.554,7.026 3.719,7.010 5.290 L 6.993 7.000 5.627 7.000 C 3.742 7.000,3.200 7.059,2.671 7.321 C 2.187 7.561,1.816 7.882,1.523 8.315 C 1.315 8.621,1.194 8.912,1.094 9.340 C 1.024 9.643,1.020 9.936,1.020 15.020 L 1.020 20.380 1.111 20.735 C 1.225 21.184,1.379 21.505,1.650 21.858 C 2.038 22.363,2.594 22.719,3.265 22.889 L 3.620 22.980 8.980 22.980 C 14.064 22.980,14.357 22.976,14.660 22.906 C 15.451 22.722,16.044 22.323,16.481 21.679 C 16.681 21.383,16.782 21.152,16.889 20.740 C 16.965 20.447,16.973 20.276,16.989 18.714 L 17.007 17.007 18.714 16.989 C 20.276 16.973,20.447 16.965,20.740 16.889 C 21.155 16.781,21.383 16.681,21.690 16.473 C 22.324 16.044,22.722 15.449,22.906 14.660 C 22.976 14.357,22.980 14.064,22.980 9.000 C 22.980 3.936,22.976 3.643,22.906 3.340 C 22.688 2.404,22.167 1.737,21.329 1.321 C 21.019 1.168,20.706 1.091,20.180 1.042 C 19.648 0.991,10.274 0.994,9.749 1.045 M20.374 3.074 C 20.585 3.145,20.862 3.432,20.928 3.646 C 21.005 3.902,21.005 14.098,20.928 14.354 C 20.863 14.567,20.591 14.849,20.376 14.925 C 20.144 15.007,9.856 15.007,9.624 14.925 C 9.422 14.854,9.140 14.571,9.074 14.374 C 9.008 14.176,8.974 4.516,9.037 3.947 C 9.102 3.365,9.341 3.104,9.866 3.042 C 10.017 3.024,12.408 3.012,15.180 3.016 C 19.174 3.021,20.252 3.034,20.374 3.074 M7.010 11.710 C 7.025 14.353,7.027 14.428,7.113 14.756 C 7.286 15.412,7.645 15.968,8.142 16.350 C 8.489 16.616,8.811 16.773,9.244 16.886 C 9.571 16.972,9.651 16.975,12.294 16.990 L 15.008 17.005 14.990 18.613 C 14.977 19.720,14.956 20.268,14.923 20.374 C 14.861 20.569,14.579 20.853,14.376 20.925 C 14.144 21.007,3.856 21.007,3.624 20.925 C 3.422 20.854,3.140 20.571,3.074 20.374 C 3.008 20.176,2.974 10.516,3.037 9.947 C 3.083 9.535,3.181 9.347,3.437 9.177 C 3.657 9.032,3.910 9.011,5.568 9.005 L 6.995 9.000 7.010 11.710 " stroke="none" fill-rule="evenodd" fill="black"></path></svg>