<svg width="24" height="24" viewBox="0 0 24 24" fill="none" xmlns="http://www.w3.org/2000/svg"><path d="M7.240 2.036 C 6.788 2.180,6.512 2.547,6.512 3.000 C 6.512 3.405,6.719 3.724,7.100 3.905 L 7.300 3.999 11.680 4.001 C 16.962 4.002,17.598 4.028,18.205 4.265 C 18.474 4.370,18.882 4.646,19.118 4.882 C 19.354 5.118,19.630 5.526,19.735 5.795 C 19.971 6.401,19.997 7.043,19.999 12.340 L 20.001 16.700 20.095 16.900 C 20.276 17.281,20.595 17.488,21.000 17.488 C 21.405 17.488,21.724 17.281,21.905 16.900 L 21.999 16.700 21.999 12.140 C 21.998 9.632,21.982 7.326,21.962 7.015 C 21.856 5.375,21.493 4.465,20.564 3.508 C 19.938 2.864,19.142 2.405,18.324 2.215 C 17.540 2.033,17.440 2.030,12.260 2.016 C 9.554 2.009,7.295 2.018,7.240 2.036 M4.522 5.566 C 3.884 5.659,3.340 5.933,2.877 6.397 C 2.381 6.892,2.130 7.440,2.041 8.221 C 2.009 8.506,2.000 10.167,2.009 14.020 L 2.023 19.420 2.112 19.756 C 2.288 20.415,2.646 20.969,3.142 21.350 C 3.487 21.615,3.809 21.772,4.244 21.888 L 4.580 21.977 9.980 21.991 C 15.712 22.005,15.903 22.000,16.478 21.818 C 17.500 21.494,18.247 20.603,18.444 19.477 C 18.506 19.124,18.541 9.701,18.485 8.704 C 18.458 8.229,18.416 7.873,18.363 7.668 C 18.159 6.879,17.602 6.202,16.860 5.839 C 16.207 5.521,16.698 5.544,10.400 5.536 C 7.080 5.532,4.674 5.544,4.522 5.566 M16.022 7.661 C 16.143 7.736,16.264 7.857,16.339 7.978 L 16.460 8.174 16.471 13.616 C 16.478 17.385,16.468 19.123,16.439 19.266 C 16.383 19.537,16.152 19.806,15.889 19.907 C 15.709 19.976,15.430 19.980,10.240 19.980 C 5.702 19.980,4.754 19.971,4.624 19.925 C 4.409 19.849,4.137 19.567,4.072 19.354 C 4.030 19.214,4.020 18.115,4.020 13.740 C 4.020 8.569,4.024 8.291,4.093 8.111 C 4.185 7.872,4.465 7.617,4.694 7.565 C 4.794 7.543,7.027 7.530,10.343 7.534 L 15.826 7.540 16.022 7.661 " stroke="none" fill-rule="evenodd" fill="black"></path></svg>