<svg width="24" height="24" viewBox="0 0 24 24" fill="none" xmlns="http://www.w3.org/2000/svg"><path d="M9.749 1.045 C 8.771 1.139,8.037 1.557,7.527 2.310 C 7.319 2.616,7.219 2.844,7.111 3.260 C 7.034 3.554,7.026 3.719,7.010 5.290 L 6.993 7.000 5.627 7.000 C 3.742 7.000,3.200 7.059,2.671 7.321 C 2.187 7.561,1.816 7.882,1.523 8.315 C 1.315 8.621,1.194 8.912,1.094 9.340 C 1.024 9.643,1.020 9.936,1.020 15.020 L 1.020 20.380 1.111 20.735 C 1.225 21.184,1.379 21.505,1.650 21.858 C 2.038 22.363,2.594 22.719,3.265 22.889 L 3.620 22.980 8.980 22.980 C 14.064 22.980,14.357 22.976,14.660 22.906 C 15.457 22.720,16.041 22.326,16.482 21.677 C 16.681 21.383,16.782 21.151,16.889 20.740 C 16.965 20.447,16.973 20.276,16.989 18.714 L 17.007 17.007 18.714 16.989 C 20.276 16.973,20.447 16.965,20.740 16.889 C 21.152 16.782,21.383 16.681,21.679 16.481 C 22.323 16.044,22.722 15.451,22.906 14.660 C 22.976 14.357,22.980 14.064,22.980 9.000 C 22.980 3.936,22.976 3.643,22.906 3.340 C 22.688 2.404,22.167 1.737,21.329 1.321 C 21.019 1.168,20.706 1.091,20.180 1.042 C 19.648 0.991,10.274 0.994,9.749 1.045 M20.374 3.074 C 20.585 3.145,20.862 3.432,20.928 3.646 C 21.002 3.892,21.005 14.098,20.931 14.340 C 20.863 14.562,20.675 14.776,20.450 14.886 C 20.262 14.979,20.245 14.980,18.633 14.993 L 17.005 15.006 16.990 12.293 C 16.975 9.688,16.971 9.567,16.890 9.260 C 16.780 8.843,16.680 8.615,16.473 8.310 C 16.090 7.744,15.483 7.306,14.859 7.145 C 14.405 7.028,13.744 7.000,11.370 7.000 L 9.000 7.000 9.000 5.630 C 9.001 4.040,9.032 3.657,9.179 3.434 C 9.333 3.202,9.547 3.080,9.866 3.042 C 10.017 3.024,12.408 3.012,15.180 3.016 C 19.174 3.021,20.252 3.034,20.374 3.074 M14.374 9.074 C 14.585 9.145,14.862 9.432,14.928 9.646 C 15.005 9.902,15.005 20.098,14.928 20.354 C 14.863 20.567,14.591 20.849,14.376 20.925 C 14.144 21.007,3.856 21.007,3.624 20.925 C 3.422 20.854,3.140 20.571,3.074 20.374 C 3.008 20.176,2.974 10.516,3.037 9.947 C 3.102 9.365,3.341 9.104,3.866 9.042 C 4.017 9.024,6.408 9.012,9.180 9.016 C 13.174 9.021,14.252 9.034,14.374 9.074 " stroke="none" fill-rule="evenodd" fill="black"></path></svg>