<svg width="24" height="24" viewBox="0 0 24 24" fill="none" xmlns="http://www.w3.org/2000/svg"><path d="M9.760 1.039 C 8.752 1.137,8.010 1.572,7.490 2.369 C 7.238 2.755,7.096 3.188,7.037 3.755 C 6.951 4.577,7.022 4.936,7.326 5.228 C 7.507 5.401,7.732 5.488,7.998 5.488 C 8.304 5.488,8.528 5.387,8.735 5.158 C 8.941 4.928,8.987 4.774,9.020 4.200 C 9.052 3.634,9.092 3.506,9.299 3.299 C 9.506 3.092,9.634 3.052,10.200 3.020 C 10.774 2.987,10.928 2.941,11.158 2.735 C 11.387 2.528,11.488 2.304,11.488 1.998 C 11.488 1.614,11.288 1.290,10.941 1.111 C 10.754 1.015,10.297 0.987,9.760 1.039 M13.695 1.057 C 13.466 1.129,13.256 1.299,13.128 1.516 C 13.037 1.672,13.020 1.746,13.020 2.000 C 13.020 2.256,13.036 2.328,13.131 2.489 C 13.256 2.702,13.449 2.864,13.670 2.943 C 13.885 3.020,16.115 3.020,16.330 2.943 C 16.551 2.864,16.744 2.702,16.869 2.489 C 16.964 2.328,16.980 2.256,16.980 2.000 C 16.980 1.746,16.963 1.672,16.872 1.516 C 16.740 1.293,16.533 1.128,16.290 1.055 C 16.039 0.979,13.937 0.981,13.695 1.057 M19.260 1.035 C 18.810 1.154,18.512 1.537,18.512 1.998 C 18.512 2.304,18.613 2.528,18.842 2.735 C 19.072 2.941,19.226 2.987,19.800 3.020 C 20.366 3.052,20.494 3.092,20.701 3.299 C 20.908 3.506,20.948 3.634,20.980 4.200 C 21.013 4.774,21.059 4.928,21.265 5.158 C 21.472 5.387,21.696 5.488,22.002 5.488 C 22.561 5.488,22.952 5.095,22.991 4.493 C 23.019 4.073,22.933 3.356,22.811 2.986 C 22.501 2.049,21.656 1.304,20.680 1.106 C 20.326 1.034,19.432 0.990,19.260 1.035 M3.749 7.045 C 2.967 7.120,2.402 7.371,1.890 7.870 C 1.491 8.260,1.236 8.731,1.094 9.340 C 1.024 9.643,1.020 9.936,1.020 15.020 L 1.020 20.380 1.111 20.735 C 1.281 21.406,1.637 21.962,2.142 22.350 C 2.495 22.621,2.816 22.775,3.265 22.889 L 3.620 22.980 8.980 22.980 C 14.064 22.980,14.357 22.976,14.660 22.906 C 15.459 22.720,16.041 22.327,16.486 21.671 C 16.685 21.378,16.807 21.084,16.906 20.660 C 16.976 20.357,16.980 20.064,16.980 15.000 C 16.980 9.936,16.976 9.643,16.906 9.340 C 16.688 8.404,16.167 7.737,15.329 7.321 C 15.019 7.168,14.706 7.091,14.180 7.042 C 13.648 6.991,4.274 6.994,3.749 7.045 M21.670 7.061 C 21.448 7.142,21.250 7.309,21.128 7.516 L 21.020 7.700 21.020 9.003 L 21.020 10.306 21.141 10.503 C 21.209 10.613,21.346 10.756,21.452 10.828 C 21.923 11.144,22.554 10.999,22.859 10.503 L 22.980 10.306 22.980 9.003 L 22.980 7.700 22.872 7.516 C 22.624 7.094,22.110 6.899,21.670 7.061 M14.374 9.074 C 14.585 9.145,14.862 9.432,14.928 9.646 C 15.005 9.902,15.005 20.098,14.928 20.354 C 14.863 20.567,14.591 20.849,14.376 20.925 C 14.144 21.007,3.856 21.007,3.624 20.925 C 3.422 20.854,3.140 20.571,3.074 20.374 C 3.008 20.176,2.974 10.516,3.037 9.947 C 3.102 9.365,3.341 9.104,3.866 9.042 C 4.017 9.024,6.408 9.012,9.180 9.016 C 13.174 9.021,14.252 9.034,14.374 9.074 M21.578 12.595 C 21.363 12.693,21.102 12.996,21.047 13.210 C 21.024 13.303,20.994 13.569,20.980 13.800 C 20.948 14.366,20.908 14.494,20.701 14.701 C 20.488 14.914,20.350 14.955,19.706 14.997 C 19.167 15.032,18.997 15.091,18.772 15.326 C 18.599 15.507,18.512 15.732,18.512 16.000 C 18.512 16.562,18.904 16.952,19.507 16.991 C 19.927 17.019,20.644 16.933,21.014 16.811 C 21.820 16.544,22.544 15.820,22.811 15.014 C 23.015 14.394,23.056 13.382,22.889 13.056 C 22.792 12.867,22.564 12.654,22.374 12.575 C 22.185 12.496,21.774 12.507,21.578 12.595 " stroke="none" fill-rule="evenodd" fill="black"></path></svg>