<svg width="24" height="24" viewBox="0 0 24 24" fill="none" xmlns="http://www.w3.org/2000/svg"><path d="M15.640 3.068 C 15.485 3.121,15.093 3.495,12.847 5.735 C 11.368 7.209,10.188 8.418,10.127 8.520 C 10.036 8.672,10.020 8.746,10.020 9.000 C 10.020 9.257,10.036 9.327,10.133 9.492 C 10.263 9.714,10.502 9.901,10.736 9.965 C 10.939 10.019,11.267 9.989,11.445 9.899 C 11.519 9.862,12.351 9.064,13.294 8.126 L 15.007 6.420 14.986 10.080 C 14.963 14.165,14.940 14.630,14.713 15.540 C 14.431 16.676,13.442 17.861,12.300 18.432 C 11.793 18.686,11.220 18.828,10.320 18.924 C 10.058 18.951,8.595 18.974,6.440 18.984 C 4.281 18.994,2.903 19.016,2.776 19.042 C 2.517 19.094,2.270 19.275,2.129 19.514 C 2.036 19.672,2.020 19.745,2.020 20.000 C 2.020 20.256,2.036 20.328,2.131 20.489 C 2.256 20.702,2.449 20.864,2.670 20.943 C 2.790 20.986,3.407 20.997,5.760 20.998 C 9.669 20.999,10.730 20.949,11.777 20.716 C 12.990 20.446,14.006 19.876,14.941 18.941 C 15.876 18.006,16.446 16.990,16.716 15.777 C 16.951 14.721,16.998 13.687,16.999 9.561 L 17.000 6.421 18.710 8.126 C 19.651 9.064,20.483 9.865,20.560 9.905 C 20.659 9.957,20.788 9.979,21.000 9.979 C 21.258 9.980,21.327 9.964,21.492 9.867 C 21.968 9.587,22.138 8.968,21.866 8.508 C 21.811 8.416,20.590 7.168,19.153 5.735 C 16.783 3.372,16.522 3.124,16.343 3.065 C 16.102 2.986,15.878 2.986,15.640 3.068 " stroke="none" fill-rule="evenodd" fill="black"></path></svg>