<svg width="24" height="24" viewBox="0 0 24 24" fill="none" xmlns="http://www.w3.org/2000/svg"><path d="M7.640 3.068 C 7.485 3.121,7.093 3.495,4.847 5.735 C 3.368 7.209,2.188 8.418,2.127 8.520 C 2.036 8.672,2.020 8.746,2.020 9.000 C 2.020 9.257,2.036 9.327,2.133 9.492 C 2.263 9.714,2.502 9.901,2.736 9.965 C 2.939 10.019,3.267 9.989,3.445 9.899 C 3.519 9.862,4.348 9.066,5.286 8.131 L 6.992 6.430 7.012 10.205 C 7.032 14.068,7.044 14.383,7.204 15.355 C 7.322 16.068,7.486 16.587,7.781 17.180 C 8.126 17.874,8.480 18.361,9.059 18.941 C 9.993 19.875,11.010 20.446,12.223 20.716 C 13.270 20.949,14.331 20.999,18.240 20.998 C 20.593 20.997,21.210 20.986,21.330 20.943 C 21.551 20.864,21.744 20.702,21.869 20.489 C 21.964 20.328,21.980 20.256,21.980 20.000 C 21.980 19.745,21.964 19.672,21.871 19.514 C 21.730 19.275,21.483 19.094,21.224 19.042 C 21.097 19.016,19.719 18.994,17.560 18.984 C 15.405 18.974,13.942 18.951,13.680 18.924 C 13.148 18.867,12.658 18.778,12.300 18.674 C 10.968 18.285,9.649 16.928,9.302 15.588 C 9.059 14.653,9.037 14.238,9.014 10.100 L 8.993 6.420 10.706 8.126 C 11.649 9.064,12.483 9.865,12.560 9.905 C 12.659 9.957,12.788 9.979,13.000 9.979 C 13.258 9.980,13.327 9.964,13.492 9.867 C 13.968 9.587,14.138 8.968,13.866 8.508 C 13.811 8.416,12.590 7.168,11.153 5.735 C 8.783 3.372,8.522 3.124,8.343 3.065 C 8.102 2.986,7.878 2.986,7.640 3.068 " stroke="none" fill-rule="evenodd" fill="black"></path></svg>