<svg width="24" height="24" viewBox="0 0 24 24" fill="none" xmlns="http://www.w3.org/2000/svg"><path d="M19.695 3.057 C 19.466 3.129,19.256 3.299,19.128 3.516 L 19.020 3.700 18.994 6.140 C 18.963 9.059,18.922 9.697,18.713 10.540 C 18.432 11.675,17.442 12.861,16.300 13.432 C 15.793 13.685,15.223 13.827,14.320 13.924 C 14.055 13.952,12.523 13.976,10.160 13.987 L 6.420 14.006 8.126 12.293 C 9.064 11.351,9.865 10.517,9.905 10.440 C 9.957 10.341,9.979 10.212,9.979 10.000 C 9.980 9.745,9.964 9.672,9.872 9.516 C 9.618 9.084,9.138 8.906,8.657 9.065 C 8.478 9.124,8.217 9.372,5.847 11.735 C 4.368 13.210,3.188 14.418,3.127 14.520 C 3.036 14.672,3.020 14.746,3.020 15.000 C 3.020 15.254,3.036 15.328,3.127 15.480 C 3.262 15.706,8.370 20.807,8.555 20.899 C 9.010 21.128,9.601 20.944,9.867 20.492 C 9.964 20.327,9.980 20.258,9.979 20.000 C 9.979 19.788,9.957 19.659,9.905 19.560 C 9.865 19.483,9.064 18.651,8.126 17.710 L 6.421 16.000 9.561 15.999 C 13.687 15.998,14.721 15.951,15.777 15.716 C 16.990 15.446,18.006 14.876,18.941 13.941 C 19.876 13.006,20.446 11.990,20.716 10.777 C 20.936 9.791,21.010 8.384,20.992 5.580 L 20.980 3.700 20.872 3.516 C 20.628 3.101,20.150 2.915,19.695 3.057 " stroke="none" fill-rule="evenodd" fill="black"></path></svg>