<svg width="24" height="24" viewBox="0 0 24 24" fill="none" xmlns="http://www.w3.org/2000/svg"><path d="M2.695 3.054 C 2.048 3.267,1.799 4.040,2.198 4.591 C 2.263 4.681,2.403 4.805,2.508 4.867 L 2.700 4.980 6.200 5.006 C 10.203 5.035,10.760 5.067,11.673 5.321 C 13.016 5.693,14.374 7.096,14.713 8.460 C 14.939 9.369,14.963 9.836,14.986 13.920 L 15.008 17.580 13.274 15.856 C 11.723 14.313,11.519 14.124,11.343 14.066 C 10.863 13.906,10.382 14.084,10.128 14.516 C 10.036 14.672,10.020 14.745,10.021 15.000 C 10.021 15.212,10.043 15.341,10.095 15.440 C 10.195 15.632,15.294 20.738,15.520 20.873 C 15.672 20.964,15.746 20.980,16.000 20.980 C 16.254 20.980,16.328 20.964,16.480 20.873 C 16.706 20.738,21.805 15.632,21.905 15.440 C 21.957 15.341,21.979 15.212,21.979 15.000 C 21.980 14.745,21.964 14.672,21.872 14.516 C 21.618 14.084,21.137 13.906,20.657 14.066 C 20.481 14.124,20.279 14.312,18.730 15.854 L 17.000 17.577 16.999 14.439 C 16.998 10.313,16.951 9.278,16.716 8.223 C 16.387 6.745,15.493 5.375,14.247 4.439 C 13.105 3.582,12.090 3.233,10.280 3.077 C 9.994 3.052,8.302 3.026,6.320 3.017 C 3.476 3.003,2.831 3.010,2.695 3.054 " stroke="none" fill-rule="evenodd" fill="black"></path></svg>