<svg width="24" height="24" viewBox="0 0 24 24" fill="none" xmlns="http://www.w3.org/2000/svg"><path d="M14.600 3.041 C 12.657 3.104,11.620 3.325,10.593 3.893 C 9.327 4.594,8.329 5.649,7.720 6.930 C 7.392 7.621,7.197 8.424,7.077 9.580 C 7.048 9.859,7.024 11.404,7.012 13.794 L 6.992 17.569 5.266 15.850 C 3.721 14.312,3.519 14.124,3.343 14.066 C 2.863 13.906,2.382 14.084,2.128 14.516 C 2.037 14.672,2.020 14.746,2.020 15.000 C 2.020 15.254,2.036 15.328,2.127 15.480 C 2.262 15.706,7.368 20.805,7.560 20.905 C 7.659 20.957,7.788 20.979,8.000 20.979 C 8.255 20.980,8.327 20.964,8.480 20.873 C 8.706 20.738,13.805 15.632,13.905 15.440 C 13.957 15.341,13.979 15.212,13.979 15.000 C 13.980 14.745,13.964 14.672,13.872 14.516 C 13.618 14.084,13.137 13.906,12.657 14.066 C 12.481 14.124,12.277 14.313,10.726 15.856 L 8.992 17.580 9.013 13.900 C 9.037 9.762,9.059 9.346,9.302 8.412 C 9.651 7.066,10.998 5.690,12.327 5.321 C 13.240 5.067,13.797 5.035,17.800 5.006 L 21.300 4.980 21.492 4.867 C 22.248 4.423,22.123 3.306,21.290 3.055 C 21.142 3.010,20.575 3.001,18.284 3.007 C 16.731 3.010,15.073 3.026,14.600 3.041 " stroke="none" fill-rule="evenodd" fill="black"></path></svg>