<svg width="24" height="24" viewBox="0 0 24 24" fill="none" xmlns="http://www.w3.org/2000/svg"><path d="M14.670 3.061 C 14.448 3.142,14.250 3.309,14.128 3.516 C 14.036 3.672,14.020 3.745,14.021 4.000 C 14.021 4.212,14.043 4.341,14.095 4.440 C 14.135 4.517,14.933 5.347,15.868 6.285 L 17.568 7.990 13.874 8.013 C 9.635 8.039,9.082 8.070,7.981 8.346 C 6.467 8.725,5.063 9.759,4.143 11.170 C 3.659 11.913,3.361 12.698,3.204 13.645 C 3.047 14.592,3.026 15.083,3.023 17.743 L 3.020 20.306 3.141 20.503 C 3.543 21.156,4.457 21.156,4.859 20.503 L 4.980 20.306 5.006 17.843 C 5.037 14.873,5.086 14.172,5.321 13.327 C 5.690 11.998,7.066 10.651,8.412 10.302 C 9.347 10.059,9.762 10.037,13.900 10.014 L 17.580 9.993 15.874 11.706 C 14.936 12.649,14.135 13.483,14.095 13.560 C 14.043 13.659,14.021 13.788,14.021 14.000 C 14.020 14.258,14.036 14.327,14.133 14.492 C 14.413 14.968,15.033 15.139,15.492 14.865 C 15.708 14.737,20.808 9.625,20.905 9.440 C 20.957 9.341,20.979 9.212,20.979 9.000 C 20.980 8.745,20.964 8.673,20.873 8.520 C 20.812 8.418,19.632 7.210,18.153 5.735 C 15.783 3.372,15.522 3.124,15.343 3.065 C 15.107 2.987,14.874 2.986,14.670 3.061 " stroke="none" fill-rule="evenodd" fill="black"></path></svg>