<svg width="24" height="24" viewBox="0 0 24 24" fill="none" xmlns="http://www.w3.org/2000/svg"><path d="M8.640 3.068 C 8.485 3.121,8.093 3.495,5.847 5.735 C 4.368 7.209,3.188 8.418,3.127 8.520 C 3.036 8.673,3.020 8.745,3.021 9.000 C 3.021 9.212,3.043 9.341,3.095 9.440 C 3.192 9.625,8.292 14.737,8.508 14.865 C 8.967 15.139,9.587 14.968,9.867 14.492 C 9.964 14.327,9.980 14.258,9.979 14.000 C 9.979 13.788,9.957 13.659,9.905 13.560 C 9.865 13.483,9.064 12.649,8.126 11.706 L 6.420 9.993 10.100 10.014 C 14.238 10.037,14.653 10.059,15.588 10.302 C 16.989 10.665,18.365 12.057,18.713 13.460 C 18.922 14.303,18.963 14.941,18.994 17.863 L 19.020 20.306 19.141 20.503 C 19.543 21.156,20.457 21.156,20.859 20.503 L 20.980 20.306 20.992 18.423 C 21.019 14.333,20.855 13.000,20.168 11.708 C 19.691 10.813,19.018 10.019,18.247 9.439 C 17.110 8.585,16.096 8.236,14.300 8.078 C 14.034 8.054,12.175 8.025,10.126 8.013 L 6.432 7.990 8.132 6.285 C 9.067 5.347,9.865 4.517,9.905 4.440 C 9.957 4.341,9.979 4.212,9.979 4.000 C 9.980 3.745,9.964 3.672,9.872 3.516 C 9.617 3.083,9.122 2.903,8.640 3.068 " stroke="none" fill-rule="evenodd" fill="black"></path></svg>