<svg width="24" height="24" viewBox="0 0 24 24" fill="none" xmlns="http://www.w3.org/2000/svg"><path d="M3.695 3.057 C 3.466 3.129,3.256 3.299,3.128 3.516 L 3.020 3.700 3.023 6.260 C 3.026 8.916,3.047 9.408,3.204 10.355 C 3.322 11.069,3.486 11.588,3.781 12.180 C 4.126 12.874,4.480 13.361,5.059 13.941 C 5.993 14.875,7.010 15.446,8.223 15.716 C 9.279 15.951,10.313 15.998,14.439 15.999 L 17.579 16.000 15.874 17.710 C 14.936 18.651,14.135 19.483,14.095 19.560 C 14.043 19.659,14.021 19.788,14.021 20.000 C 14.020 20.258,14.036 20.327,14.133 20.492 C 14.413 20.968,15.033 21.139,15.492 20.865 C 15.708 20.737,20.808 15.625,20.905 15.440 C 20.957 15.341,20.979 15.212,20.979 15.000 C 20.980 14.745,20.964 14.673,20.873 14.520 C 20.812 14.418,19.632 13.210,18.153 11.735 C 15.783 9.372,15.522 9.124,15.343 9.065 C 14.862 8.906,14.382 9.084,14.128 9.516 C 14.036 9.672,14.020 9.745,14.021 10.000 C 14.021 10.212,14.043 10.341,14.095 10.440 C 14.135 10.517,14.936 11.351,15.874 12.293 L 17.580 14.006 13.840 13.987 C 10.110 13.969,9.673 13.954,8.920 13.817 C 7.925 13.637,7.253 13.288,6.508 12.564 C 5.953 12.024,5.492 11.290,5.321 10.673 C 5.086 9.829,5.037 9.127,5.006 6.160 L 4.980 3.700 4.872 3.516 C 4.628 3.101,4.150 2.915,3.695 3.057 " stroke="none" fill-rule="evenodd" fill="black"></path></svg>