<svg width="24" height="24" viewBox="0 0 24 24" fill="none" xmlns="http://www.w3.org/2000/svg"><path d="M8.695 1.057 C 8.466 1.129,8.256 1.299,8.128 1.516 L 8.020 1.700 8.008 2.870 L 7.996 4.040 7.868 4.040 C 7.631 4.041,6.942 4.160,6.680 4.246 C 5.942 4.488,5.261 4.978,4.801 5.599 C 4.362 6.191,4.124 6.854,4.056 7.676 L 4.028 8.000 2.961 8.000 C 1.796 8.000,1.644 8.021,1.382 8.221 C 1.302 8.282,1.187 8.415,1.128 8.516 C 1.037 8.672,1.020 8.746,1.020 9.000 C 1.020 9.256,1.036 9.328,1.131 9.489 C 1.192 9.592,1.304 9.725,1.381 9.783 C 1.643 9.983,1.738 9.996,2.910 9.998 L 4.000 10.000 4.000 11.500 L 4.000 13.000 2.946 13.000 C 1.797 13.000,1.644 13.022,1.382 13.221 C 1.302 13.282,1.187 13.415,1.128 13.516 C 1.037 13.672,1.020 13.746,1.020 14.000 C 1.020 14.256,1.036 14.328,1.131 14.489 C 1.192 14.592,1.304 14.725,1.381 14.783 C 1.643 14.983,1.738 14.996,2.910 14.998 L 4.000 15.000 4.000 15.370 C 4.000 16.956,4.319 17.927,5.117 18.772 C 5.771 19.465,6.627 19.857,7.674 19.944 L 7.996 19.971 8.008 21.139 L 8.020 22.306 8.141 22.503 C 8.543 23.156,9.457 23.156,9.859 22.503 L 9.980 22.307 9.992 21.153 L 10.005 20.000 12.000 20.000 L 13.995 20.000 14.008 21.153 L 14.020 22.307 14.141 22.503 C 14.543 23.156,15.457 23.156,15.859 22.503 L 15.980 22.306 15.992 21.139 L 16.004 19.971 16.326 19.944 C 17.373 19.857,18.229 19.465,18.883 18.772 C 19.681 17.927,20.000 16.956,20.000 15.370 L 20.000 15.000 21.090 14.998 C 22.262 14.996,22.357 14.983,22.619 14.783 C 22.696 14.725,22.808 14.592,22.869 14.489 C 22.964 14.328,22.980 14.256,22.980 14.000 C 22.980 13.746,22.963 13.672,22.872 13.516 C 22.813 13.415,22.698 13.282,22.618 13.221 C 22.356 13.022,22.203 13.000,21.054 13.000 L 20.000 13.000 20.000 11.500 L 20.000 10.000 21.090 9.998 C 22.262 9.996,22.357 9.983,22.619 9.783 C 22.696 9.725,22.808 9.592,22.869 9.489 C 22.964 9.328,22.980 9.256,22.980 9.000 C 22.980 8.746,22.963 8.672,22.872 8.516 C 22.813 8.415,22.698 8.282,22.618 8.221 C 22.356 8.021,22.204 8.000,21.039 8.000 L 19.972 8.000 19.944 7.676 C 19.896 7.092,19.761 6.585,19.535 6.141 C 19.088 5.259,18.267 4.557,17.320 4.246 C 17.058 4.160,16.369 4.041,16.132 4.040 L 16.004 4.040 15.992 2.870 L 15.980 1.700 15.871 1.514 C 15.479 0.848,14.521 0.848,14.129 1.514 L 14.020 1.700 14.008 2.850 L 13.995 4.000 12.000 4.000 L 10.005 4.000 9.992 2.850 L 9.980 1.700 9.872 1.516 C 9.628 1.101,9.150 0.915,8.695 1.057 M16.492 6.092 C 16.892 6.187,17.109 6.308,17.400 6.600 C 17.696 6.895,17.814 7.109,17.912 7.528 C 17.974 7.794,17.980 8.199,17.980 12.000 C 17.980 16.557,17.984 16.476,17.752 16.952 C 17.626 17.211,17.190 17.638,16.918 17.768 C 16.477 17.980,16.468 17.980,12.000 17.980 C 7.539 17.980,7.527 17.979,7.082 17.771 C 6.812 17.643,6.377 17.217,6.248 16.952 C 6.016 16.476,6.020 16.557,6.020 12.000 C 6.020 8.199,6.026 7.794,6.088 7.528 C 6.175 7.155,6.294 6.918,6.520 6.667 C 6.883 6.262,7.281 6.091,7.980 6.039 C 8.200 6.023,10.144 6.013,12.300 6.018 C 15.757 6.026,16.252 6.035,16.492 6.092 " stroke="none" fill-rule="evenodd" fill="black"></path></svg>