<svg width="24" height="24" viewBox="0 0 24 24" fill="none" xmlns="http://www.w3.org/2000/svg"><path d="M8.695 1.057 C 8.466 1.129,8.256 1.299,8.128 1.516 C 8.025 1.692,8.019 1.728,8.007 2.345 L 7.993 2.991 7.367 3.018 C 5.807 3.086,5.023 3.361,4.228 4.116 C 3.370 4.931,3.000 5.989,3.000 7.630 L 3.000 8.000 2.446 8.000 C 1.648 8.000,1.367 8.110,1.128 8.516 C 1.037 8.672,1.020 8.746,1.020 9.000 C 1.020 9.256,1.036 9.328,1.131 9.489 C 1.256 9.702,1.449 9.864,1.670 9.943 C 1.768 9.978,2.023 9.997,2.410 9.998 L 3.000 10.000 3.000 11.500 L 3.000 13.000 2.446 13.000 C 1.648 13.000,1.367 13.110,1.128 13.516 C 1.037 13.672,1.020 13.746,1.020 14.000 C 1.020 14.256,1.036 14.328,1.131 14.489 C 1.256 14.702,1.449 14.864,1.670 14.943 C 1.768 14.978,2.023 14.997,2.410 14.998 L 3.000 15.000 3.000 15.870 C 3.000 17.428,3.115 18.170,3.464 18.858 C 3.999 19.913,4.979 20.647,6.160 20.876 C 6.483 20.939,7.206 21.000,7.627 21.000 L 7.993 21.000 8.007 21.653 C 8.020 22.300,8.021 22.308,8.141 22.503 C 8.543 23.156,9.457 23.156,9.859 22.503 C 9.979 22.308,9.980 22.300,9.993 21.653 L 10.007 21.000 12.000 21.000 L 13.993 21.000 14.007 21.653 C 14.020 22.300,14.021 22.308,14.141 22.503 C 14.543 23.156,15.457 23.156,15.859 22.503 C 15.979 22.308,15.980 22.300,15.993 21.653 L 16.007 21.000 16.373 21.000 C 16.794 21.000,17.517 20.939,17.840 20.876 C 19.021 20.647,20.001 19.913,20.536 18.858 C 20.885 18.170,21.000 17.428,21.000 15.870 L 21.000 15.000 21.590 14.998 C 21.977 14.997,22.232 14.978,22.330 14.943 C 22.551 14.864,22.744 14.702,22.869 14.489 C 22.964 14.328,22.980 14.256,22.980 14.000 C 22.980 13.746,22.963 13.672,22.872 13.516 C 22.633 13.110,22.352 13.000,21.554 13.000 L 21.000 13.000 21.000 11.500 L 21.000 10.000 21.590 9.998 C 21.977 9.997,22.232 9.978,22.330 9.943 C 22.551 9.864,22.744 9.702,22.869 9.489 C 22.964 9.328,22.980 9.256,22.980 9.000 C 22.980 8.746,22.963 8.672,22.872 8.516 C 22.633 8.110,22.352 8.000,21.554 8.000 L 21.000 8.000 21.000 7.630 C 21.000 7.207,20.939 6.483,20.876 6.160 C 20.680 5.147,20.120 4.290,19.287 3.725 C 18.573 3.241,17.954 3.076,16.633 3.018 L 16.007 2.991 15.993 2.345 C 15.981 1.726,15.976 1.693,15.871 1.514 C 15.479 0.848,14.521 0.848,14.129 1.514 C 14.024 1.693,14.019 1.726,14.007 2.350 L 13.993 3.000 12.000 3.000 L 10.007 3.000 9.993 2.350 C 9.981 1.728,9.975 1.692,9.872 1.516 C 9.628 1.101,9.150 0.915,8.695 1.057 M17.492 5.091 C 17.893 5.188,18.109 5.309,18.400 5.600 C 18.696 5.895,18.814 6.109,18.912 6.528 C 18.974 6.795,18.980 7.256,18.980 12.000 C 18.980 16.744,18.974 17.205,18.912 17.472 C 18.814 17.891,18.696 18.104,18.400 18.401 C 18.101 18.701,17.820 18.851,17.418 18.928 C 17.011 19.004,6.989 19.004,6.582 18.927 C 6.170 18.850,5.898 18.704,5.600 18.403 C 5.303 18.104,5.186 17.890,5.088 17.472 C 5.026 17.205,5.020 16.744,5.020 12.000 C 5.020 7.256,5.026 6.795,5.088 6.528 C 5.175 6.155,5.294 5.918,5.520 5.667 C 5.883 5.262,6.281 5.091,6.980 5.039 C 7.200 5.023,9.594 5.013,12.300 5.018 C 16.701 5.025,17.249 5.033,17.492 5.091 M9.686 8.040 C 8.868 8.163,8.233 8.765,8.061 9.581 C 7.974 9.991,7.974 14.009,8.061 14.419 C 8.147 14.827,8.298 15.104,8.597 15.403 C 8.896 15.702,9.173 15.853,9.581 15.939 C 9.990 16.026,14.009 16.026,14.419 15.940 C 14.818 15.855,15.102 15.699,15.401 15.401 C 15.699 15.102,15.855 14.818,15.940 14.419 C 16.026 14.009,16.026 9.990,15.939 9.581 C 15.791 8.881,15.331 8.363,14.635 8.113 C 14.381 8.021,14.368 8.021,12.140 8.014 C 10.908 8.011,9.804 8.022,9.686 8.040 M14.000 12.000 L 14.000 14.000 12.000 14.000 L 10.000 14.000 10.000 12.000 L 10.000 10.000 12.000 10.000 L 14.000 10.000 14.000 12.000 " stroke="none" fill-rule="evenodd" fill="black"></path></svg>