<svg width="24" height="24" viewBox="0 0 24 24" fill="none" xmlns="http://www.w3.org/2000/svg"><path d="M3.749 3.045 C 2.967 3.120,2.402 3.371,1.890 3.870 C 1.491 4.260,1.236 4.731,1.094 5.340 C 1.024 5.643,1.020 5.936,1.020 11.020 L 1.020 16.380 1.111 16.735 C 1.225 17.184,1.379 17.505,1.650 17.858 C 2.034 18.358,2.596 18.720,3.244 18.883 C 3.527 18.954,3.742 18.971,4.611 18.989 C 5.775 19.013,5.870 18.997,6.173 18.724 C 6.574 18.362,6.600 17.715,6.228 17.326 C 5.951 17.038,5.894 17.025,4.760 17.000 C 3.801 16.979,3.729 16.972,3.550 16.885 C 3.335 16.781,3.141 16.568,3.071 16.360 C 3.038 16.259,3.021 15.346,3.010 13.110 L 2.996 10.000 12.000 10.000 L 21.004 10.000 20.990 13.110 C 20.979 15.346,20.962 16.259,20.929 16.360 C 20.859 16.568,20.665 16.781,20.450 16.885 C 20.271 16.972,20.199 16.979,19.240 17.000 C 18.300 17.021,18.208 17.029,18.060 17.108 C 17.707 17.296,17.512 17.615,17.512 18.003 C 17.512 18.422,17.768 18.785,18.173 18.939 C 18.339 19.003,18.467 19.008,19.389 18.989 C 20.714 18.961,21.096 18.877,21.679 18.481 C 22.323 18.044,22.722 17.451,22.906 16.660 C 22.976 16.357,22.980 16.064,22.980 11.000 C 22.980 5.936,22.976 5.643,22.906 5.340 C 22.688 4.404,22.167 3.737,21.329 3.321 C 21.019 3.168,20.706 3.091,20.180 3.042 C 19.643 2.991,4.277 2.994,3.749 3.045 M20.374 5.074 C 20.575 5.142,20.861 5.431,20.921 5.626 C 20.950 5.720,20.976 6.211,20.989 6.890 L 21.010 8.000 12.005 8.000 L 3.000 8.000 3.000 7.130 C 3.001 6.036,3.042 5.641,3.179 5.434 C 3.333 5.201,3.547 5.080,3.866 5.042 C 4.017 5.024,7.758 5.012,12.180 5.016 C 18.671 5.021,20.250 5.032,20.374 5.074 M11.640 12.069 C 11.488 12.121,11.208 12.381,9.847 13.735 C 8.960 14.618,8.186 15.421,8.127 15.520 C 8.037 15.672,8.020 15.746,8.020 16.000 C 8.020 16.257,8.036 16.327,8.133 16.492 C 8.263 16.714,8.502 16.901,8.736 16.965 C 8.939 17.019,9.267 16.989,9.445 16.899 C 9.519 16.861,9.899 16.514,10.289 16.128 L 10.998 15.425 11.009 17.866 L 11.020 20.306 11.141 20.503 C 11.209 20.613,11.346 20.756,11.452 20.828 C 11.923 21.144,12.554 20.999,12.859 20.503 L 12.980 20.306 12.991 17.866 L 13.002 15.425 13.711 16.128 C 14.101 16.514,14.483 16.864,14.560 16.904 C 14.660 16.957,14.787 16.979,15.000 16.979 C 15.258 16.980,15.327 16.964,15.492 16.867 C 15.968 16.587,16.138 15.968,15.866 15.508 C 15.811 15.416,15.040 14.618,14.153 13.736 C 12.714 12.305,12.519 12.124,12.343 12.066 C 12.102 11.985,11.878 11.986,11.640 12.069 " stroke="none" fill-rule="evenodd" fill="black"></path></svg>