<svg width="24" height="24" viewBox="0 0 24 24" fill="none" xmlns="http://www.w3.org/2000/svg"><path d="M3.749 4.045 C 2.967 4.120,2.402 4.371,1.890 4.870 C 1.491 5.260,1.236 5.731,1.094 6.340 C 1.024 6.643,1.020 6.936,1.020 12.020 L 1.020 17.380 1.111 17.735 C 1.225 18.184,1.379 18.505,1.650 18.858 C 2.031 19.355,2.587 19.713,3.244 19.887 C 3.578 19.975,3.605 19.976,7.349 19.990 C 9.885 19.999,11.168 19.990,11.273 19.962 C 11.498 19.901,11.738 19.711,11.867 19.492 C 11.964 19.327,11.980 19.257,11.980 19.000 C 11.980 18.746,11.963 18.672,11.872 18.516 C 11.761 18.328,11.572 18.158,11.373 18.070 C 11.286 18.032,10.387 18.015,7.500 18.000 L 3.740 17.980 3.550 17.886 C 3.335 17.780,3.141 17.567,3.071 17.360 C 3.038 17.259,3.021 16.346,3.010 14.110 L 2.996 11.000 12.588 10.998 C 20.497 10.997,22.206 10.987,22.330 10.943 C 22.551 10.864,22.744 10.702,22.869 10.489 L 22.980 10.300 22.980 8.480 C 22.980 6.847,22.972 6.627,22.906 6.340 C 22.688 5.404,22.167 4.737,21.329 4.321 C 21.019 4.168,20.706 4.091,20.180 4.042 C 19.643 3.991,4.277 3.994,3.749 4.045 M20.374 6.074 C 20.575 6.142,20.861 6.431,20.921 6.626 C 20.950 6.720,20.976 7.211,20.989 7.890 L 21.010 9.000 12.005 9.000 L 3.000 9.000 3.000 8.130 C 3.001 7.036,3.042 6.641,3.179 6.434 C 3.333 6.201,3.547 6.080,3.866 6.042 C 4.017 6.024,7.758 6.012,12.180 6.016 C 18.671 6.021,20.250 6.032,20.374 6.074 M19.980 12.638 C 19.730 12.692,19.407 12.831,19.184 12.980 C 19.072 13.055,17.916 14.184,16.615 15.488 C 14.473 17.637,14.239 17.884,14.126 18.120 C 14.030 18.320,13.945 18.659,13.758 19.580 C 13.624 20.240,13.513 20.879,13.512 21.000 C 13.505 21.504,13.882 21.926,14.393 21.987 C 14.570 22.007,15.733 21.800,16.820 21.553 C 17.523 21.393,17.435 21.468,20.106 18.790 C 22.402 16.488,22.517 16.367,22.656 16.080 C 22.818 15.745,22.919 15.332,22.919 15.000 C 22.919 14.021,22.267 13.091,21.331 12.734 C 21.109 12.649,20.977 12.628,20.600 12.617 C 20.347 12.610,20.068 12.619,19.980 12.638 M20.696 14.646 C 20.832 14.708,20.933 14.929,20.899 15.092 C 20.878 15.193,20.411 15.680,18.686 17.405 L 16.500 19.590 16.163 19.655 C 15.978 19.690,15.818 19.711,15.808 19.701 C 15.797 19.690,15.819 19.524,15.857 19.331 L 15.925 18.980 18.033 16.866 C 19.192 15.703,20.194 14.718,20.260 14.676 C 20.396 14.590,20.550 14.579,20.696 14.646 " stroke="none" fill-rule="evenodd" fill="black"></path></svg>