<svg width="24" height="24" viewBox="0 0 24 24" fill="none" xmlns="http://www.w3.org/2000/svg"><path d="M10.670 2.061 C 10.448 2.142,10.250 2.309,10.128 2.516 C 10.036 2.672,10.020 2.745,10.021 3.000 C 10.022 3.354,10.076 3.476,10.371 3.788 L 10.572 4.000 7.416 4.000 C 4.253 4.000,3.618 4.022,3.141 4.145 C 2.514 4.307,1.910 4.744,1.523 5.315 C 1.315 5.621,1.194 5.912,1.094 6.340 C 1.024 6.643,1.020 6.936,1.020 12.020 L 1.020 17.380 1.111 17.735 C 1.225 18.184,1.379 18.505,1.650 18.858 C 2.033 19.356,2.591 19.717,3.244 19.885 C 3.558 19.966,3.696 19.973,5.343 19.989 C 6.537 20.001,7.157 19.993,7.267 19.964 C 7.498 19.901,7.737 19.713,7.867 19.492 C 7.964 19.327,7.980 19.257,7.980 19.000 C 7.980 18.746,7.963 18.672,7.872 18.516 C 7.761 18.327,7.570 18.157,7.373 18.071 C 7.292 18.036,6.759 18.016,5.500 18.001 C 3.756 17.980,3.738 17.979,3.550 17.886 C 3.335 17.780,3.141 17.567,3.071 17.360 C 3.038 17.259,3.021 16.346,3.010 14.110 L 2.996 11.000 12.000 11.000 L 21.004 11.000 20.990 14.110 C 20.979 16.346,20.962 17.259,20.929 17.360 C 20.859 17.567,20.665 17.780,20.450 17.886 L 20.260 17.980 16.843 17.991 L 13.426 18.003 13.628 17.789 C 13.924 17.476,13.978 17.354,13.979 17.000 C 13.980 16.745,13.964 16.672,13.872 16.516 C 13.618 16.084,13.136 15.905,12.657 16.066 C 12.485 16.124,12.320 16.271,11.347 17.236 C 10.734 17.843,10.185 18.421,10.127 18.520 C 10.036 18.672,10.020 18.746,10.021 19.000 C 10.021 19.213,10.043 19.341,10.095 19.440 C 10.194 19.627,12.294 21.739,12.508 21.866 C 12.968 22.138,13.587 21.968,13.867 21.492 C 13.964 21.327,13.980 21.258,13.979 21.000 C 13.978 20.647,13.924 20.524,13.631 20.214 L 13.432 20.004 16.926 19.990 C 20.336 19.976,20.428 19.974,20.740 19.891 C 21.158 19.780,21.385 19.680,21.690 19.473 C 22.324 19.044,22.722 18.449,22.906 17.660 C 22.976 17.357,22.980 17.064,22.980 12.000 C 22.980 6.936,22.976 6.643,22.906 6.340 C 22.688 5.404,22.167 4.737,21.329 4.321 C 20.797 4.057,20.260 4.000,18.316 4.000 C 16.769 4.000,16.655 4.013,16.382 4.221 C 16.083 4.449,15.935 4.893,16.035 5.264 C 16.099 5.498,16.286 5.737,16.508 5.867 L 16.700 5.980 18.460 6.005 C 19.660 6.021,20.269 6.045,20.374 6.078 C 20.573 6.140,20.861 6.429,20.921 6.626 C 20.950 6.720,20.976 7.211,20.989 7.890 L 21.010 9.000 12.000 9.000 L 2.990 9.000 3.011 7.890 C 3.024 7.211,3.050 6.720,3.079 6.626 C 3.139 6.430,3.426 6.141,3.626 6.075 C 3.744 6.036,4.567 6.021,7.178 6.010 L 10.576 5.996 10.373 6.210 C 10.121 6.477,10.039 6.632,10.012 6.895 C 9.971 7.295,10.158 7.662,10.508 7.867 C 10.673 7.964,10.742 7.980,11.000 7.979 C 11.213 7.979,11.341 7.957,11.440 7.905 C 11.633 7.803,13.740 5.703,13.873 5.480 C 13.964 5.328,13.980 5.254,13.980 5.000 C 13.980 4.747,13.963 4.672,13.873 4.520 C 13.815 4.421,13.266 3.843,12.653 3.236 C 11.680 2.271,11.515 2.124,11.343 2.066 C 11.108 1.987,10.875 1.985,10.670 2.061 " stroke="none" fill-rule="evenodd" fill="black"></path></svg>