<svg width="24" height="24" viewBox="0 0 24 24" fill="none" xmlns="http://www.w3.org/2000/svg"><path d="M3.749 4.045 C 2.967 4.120,2.402 4.371,1.890 4.870 C 1.491 5.260,1.236 5.731,1.094 6.340 C 1.024 6.643,1.020 6.936,1.020 12.020 L 1.020 17.380 1.111 17.735 C 1.225 18.184,1.379 18.505,1.650 18.858 C 2.031 19.355,2.587 19.713,3.244 19.887 C 3.578 19.975,3.605 19.976,7.349 19.990 C 9.885 19.999,11.168 19.990,11.273 19.962 C 11.498 19.901,11.738 19.711,11.867 19.492 C 11.964 19.327,11.980 19.257,11.980 19.000 C 11.980 18.746,11.963 18.672,11.872 18.516 C 11.761 18.328,11.572 18.158,11.373 18.070 C 11.286 18.032,10.387 18.015,7.500 18.000 L 3.740 17.980 3.550 17.886 C 3.335 17.780,3.141 17.567,3.071 17.360 C 3.038 17.259,3.021 16.346,3.010 14.110 L 2.996 11.000 11.993 11.000 L 20.991 11.000 21.018 11.179 C 21.054 11.422,21.258 11.712,21.497 11.859 C 21.671 11.966,21.729 11.980,21.997 11.980 C 22.257 11.980,22.327 11.964,22.492 11.867 C 22.712 11.738,22.901 11.498,22.963 11.269 C 22.992 11.161,23.001 10.377,22.990 8.845 C 22.974 6.703,22.969 6.563,22.890 6.260 C 22.781 5.844,22.681 5.616,22.473 5.310 C 22.184 4.882,21.811 4.560,21.329 4.321 C 21.019 4.168,20.706 4.091,20.180 4.042 C 19.643 3.991,4.277 3.994,3.749 4.045 M20.374 6.074 C 20.575 6.142,20.861 6.431,20.921 6.626 C 20.950 6.720,20.976 7.211,20.989 7.890 L 21.010 9.000 12.005 9.000 L 3.000 9.000 3.000 8.130 C 3.001 7.036,3.042 6.641,3.179 6.434 C 3.333 6.201,3.547 6.080,3.866 6.042 C 4.017 6.024,7.758 6.012,12.180 6.016 C 18.671 6.021,20.250 6.032,20.374 6.074 M18.023 13.040 C 17.440 13.145,17.016 13.376,16.558 13.836 C 15.957 14.440,15.760 14.961,15.760 15.946 L 15.760 16.518 15.650 16.542 C 14.786 16.727,14.174 17.344,14.042 18.160 C 13.989 18.493,13.988 20.499,14.041 20.840 C 14.132 21.423,14.566 22.017,15.085 22.268 C 15.570 22.502,15.536 22.500,18.500 22.500 C 20.663 22.500,21.265 22.489,21.440 22.445 C 22.133 22.274,22.654 21.800,22.894 21.124 C 22.966 20.924,22.976 20.771,22.991 19.693 C 23.010 18.300,22.982 18.030,22.782 17.620 C 22.506 17.055,22.014 16.685,21.350 16.542 L 21.240 16.518 21.240 15.946 C 21.240 14.948,21.044 14.438,20.422 13.819 C 20.035 13.434,19.679 13.217,19.240 13.098 C 18.968 13.024,18.288 12.992,18.023 13.040 M18.913 15.130 C 19.170 15.301,19.240 15.498,19.240 16.053 L 19.240 16.520 18.497 16.520 L 17.754 16.520 17.767 16.007 C 17.779 15.529,17.787 15.483,17.887 15.333 C 18.109 14.997,18.573 14.906,18.913 15.130 M21.000 19.495 L 21.000 20.470 20.875 20.495 C 20.806 20.509,19.738 20.520,18.500 20.520 C 17.262 20.520,16.194 20.509,16.125 20.495 L 16.000 20.470 16.000 19.495 L 16.000 18.520 18.500 18.520 L 21.000 18.520 21.000 19.495 " stroke="none" fill-rule="evenodd" fill="black"></path></svg>