<svg width="24" height="24" viewBox="0 0 24 24" fill="none" xmlns="http://www.w3.org/2000/svg"><path d="M3.749 4.045 C 2.967 4.120,2.402 4.371,1.890 4.870 C 1.491 5.260,1.236 5.731,1.094 6.340 C 1.024 6.643,1.020 6.936,1.020 12.020 L 1.020 17.380 1.111 17.735 C 1.225 18.184,1.379 18.505,1.650 18.858 C 2.032 19.355,2.587 19.714,3.244 19.887 C 3.577 19.975,3.615 19.976,7.119 19.990 C 11.072 20.006,10.844 20.021,11.173 19.724 C 11.381 19.536,11.488 19.292,11.488 19.003 C 11.488 18.615,11.294 18.298,10.940 18.106 C 10.780 18.020,10.774 18.020,7.260 18.000 L 3.740 17.980 3.550 17.886 C 3.335 17.780,3.141 17.567,3.071 17.360 C 3.038 17.259,3.021 16.346,3.010 14.110 L 2.996 11.000 11.994 11.000 L 20.993 11.000 21.007 11.653 C 21.020 12.300,21.021 12.308,21.141 12.503 C 21.543 13.156,22.457 13.156,22.859 12.503 L 22.980 12.306 22.980 9.483 C 22.980 6.873,22.974 6.636,22.906 6.340 C 22.688 5.404,22.167 4.737,21.329 4.321 C 21.019 4.168,20.706 4.091,20.180 4.042 C 19.643 3.991,4.277 3.994,3.749 4.045 M20.374 6.074 C 20.575 6.142,20.861 6.431,20.921 6.626 C 20.950 6.720,20.976 7.211,20.989 7.890 L 21.010 9.000 12.005 9.000 L 3.000 9.000 3.000 8.130 C 3.001 7.036,3.042 6.641,3.179 6.434 C 3.333 6.201,3.547 6.080,3.866 6.042 C 4.017 6.024,7.758 6.012,12.180 6.016 C 18.671 6.021,20.250 6.032,20.374 6.074 M17.277 13.558 C 15.817 13.825,14.611 14.720,13.972 16.010 C 13.352 17.263,13.352 18.737,13.972 19.990 C 14.592 21.242,15.706 22.097,17.137 22.419 C 17.638 22.531,18.531 22.504,19.094 22.359 C 19.447 22.268,20.013 22.040,20.244 21.896 L 20.388 21.807 20.864 22.286 C 21.407 22.833,21.587 22.956,21.888 22.987 C 22.295 23.029,22.660 22.844,22.867 22.492 C 22.964 22.327,22.980 22.257,22.980 22.000 C 22.980 21.603,22.902 21.476,22.286 20.864 L 21.807 20.388 21.896 20.244 C 22.040 20.013,22.268 19.447,22.359 19.094 C 22.504 18.531,22.531 17.638,22.419 17.137 C 22.188 16.109,21.718 15.299,20.961 14.624 C 20.474 14.190,19.831 13.845,19.159 13.658 C 18.836 13.568,18.683 13.550,18.120 13.538 C 17.757 13.531,17.378 13.540,17.277 13.558 M18.817 15.633 C 19.521 15.888,20.103 16.469,20.370 17.183 C 20.446 17.388,20.458 17.499,20.458 18.000 C 20.458 18.501,20.446 18.612,20.370 18.817 C 20.140 19.432,19.659 19.974,19.110 20.235 C 18.695 20.432,18.446 20.490,18.000 20.490 C 17.554 20.490,17.305 20.432,16.890 20.235 C 16.339 19.973,15.851 19.422,15.634 18.817 C 15.526 18.518,15.488 17.830,15.559 17.470 C 15.730 16.598,16.497 15.796,17.371 15.575 C 17.699 15.492,18.520 15.525,18.817 15.633 " stroke="none" fill-rule="evenodd" fill="black"></path></svg>