<svg width="24" height="24" viewBox="0 0 24 24" fill="none" xmlns="http://www.w3.org/2000/svg"><path d="M3.749 4.045 C 2.967 4.120,2.402 4.371,1.890 4.870 C 1.491 5.260,1.236 5.731,1.094 6.340 C 1.024 6.643,1.020 6.936,1.020 12.020 L 1.020 17.380 1.111 17.735 C 1.281 18.406,1.637 18.962,2.142 19.350 C 2.495 19.621,2.816 19.775,3.265 19.889 L 3.620 19.980 11.980 19.980 C 19.988 19.980,20.353 19.977,20.660 19.906 C 21.459 19.720,22.041 19.327,22.486 18.671 C 22.685 18.378,22.807 18.084,22.906 17.660 C 22.976 17.357,22.980 17.064,22.980 12.000 C 22.980 6.936,22.976 6.643,22.906 6.340 C 22.688 5.404,22.167 4.737,21.329 4.321 C 21.019 4.168,20.706 4.091,20.180 4.042 C 19.643 3.991,4.277 3.994,3.749 4.045 M20.374 6.074 C 20.575 6.142,20.861 6.431,20.921 6.626 C 20.950 6.720,20.976 7.211,20.989 7.890 L 21.010 9.000 12.005 9.000 L 3.000 9.000 3.000 8.130 C 3.001 7.036,3.042 6.641,3.179 6.434 C 3.333 6.201,3.547 6.080,3.866 6.042 C 4.017 6.024,7.758 6.012,12.180 6.016 C 18.671 6.021,20.250 6.032,20.374 6.074 M20.990 14.110 C 20.979 16.480,20.963 17.257,20.925 17.374 C 20.860 17.571,20.578 17.854,20.376 17.925 C 20.143 18.007,3.857 18.007,3.624 17.925 C 3.422 17.854,3.140 17.571,3.075 17.374 C 3.037 17.257,3.021 16.480,3.010 14.110 L 2.996 11.000 12.000 11.000 L 21.004 11.000 20.990 14.110 " stroke="none" fill-rule="evenodd" fill="black"></path></svg>