<svg width="24" height="24" viewBox="0 0 24 24" fill="none" xmlns="http://www.w3.org/2000/svg"><path d="M3.749 4.045 C 2.967 4.120,2.402 4.371,1.890 4.870 C 1.491 5.260,1.236 5.731,1.094 6.340 C 1.024 6.643,1.020 6.936,1.020 12.020 L 1.020 17.380 1.111 17.735 C 1.225 18.184,1.379 18.505,1.650 18.858 C 2.031 19.355,2.586 19.713,3.244 19.887 C 3.579 19.976,3.594 19.976,7.620 19.990 C 12.131 20.005,11.842 20.022,12.173 19.724 C 12.381 19.536,12.488 19.292,12.488 19.003 C 12.488 18.615,12.294 18.298,11.940 18.106 L 11.780 18.020 7.760 18.000 L 3.740 17.980 3.550 17.886 C 3.335 17.780,3.141 17.567,3.071 17.360 C 3.038 17.259,3.021 16.346,3.010 14.110 L 2.996 11.000 11.993 11.000 L 20.991 11.000 21.018 11.179 C 21.054 11.422,21.258 11.712,21.497 11.859 C 21.671 11.966,21.729 11.980,21.997 11.980 C 22.257 11.980,22.327 11.964,22.492 11.867 C 22.712 11.738,22.901 11.498,22.963 11.269 C 22.992 11.161,23.001 10.377,22.990 8.845 C 22.974 6.703,22.969 6.563,22.890 6.260 C 22.781 5.844,22.681 5.616,22.473 5.310 C 22.184 4.882,21.811 4.560,21.329 4.321 C 21.019 4.168,20.706 4.091,20.180 4.042 C 19.643 3.991,4.277 3.994,3.749 4.045 M20.374 6.074 C 20.575 6.142,20.861 6.431,20.921 6.626 C 20.950 6.720,20.976 7.211,20.989 7.890 L 21.010 9.000 12.005 9.000 L 3.000 9.000 3.000 8.130 C 3.001 7.036,3.042 6.641,3.179 6.434 C 3.333 6.201,3.547 6.080,3.866 6.042 C 4.017 6.024,7.758 6.012,12.180 6.016 C 18.671 6.021,20.250 6.032,20.374 6.074 M17.473 13.038 C 17.168 13.094,16.899 13.181,15.673 13.620 C 14.403 14.074,14.288 14.137,14.120 14.463 L 14.020 14.658 14.020 16.299 C 14.020 17.875,14.024 17.953,14.110 18.279 C 14.306 19.013,14.731 19.697,15.405 20.364 C 15.957 20.911,16.772 21.504,17.396 21.813 C 17.691 21.958,17.768 21.980,18.000 21.980 C 18.232 21.980,18.309 21.958,18.604 21.813 C 19.235 21.500,20.057 20.900,20.603 20.354 C 21.275 19.683,21.686 19.025,21.887 18.300 C 21.971 17.999,21.977 17.886,21.991 16.386 C 22.003 15.050,21.995 14.764,21.945 14.617 C 21.871 14.399,21.710 14.185,21.546 14.085 C 21.409 14.001,19.208 13.208,18.819 13.102 C 18.541 13.026,17.745 12.988,17.473 13.038 M19.160 15.328 L 19.980 15.621 19.991 16.601 C 20.001 17.482,19.994 17.606,19.922 17.842 C 19.766 18.356,19.267 18.956,18.563 19.476 C 18.084 19.830,18.027 19.856,17.887 19.784 C 17.432 19.549,16.603 18.794,16.324 18.362 C 16.028 17.903,15.997 17.728,16.009 16.601 L 16.020 15.623 16.720 15.369 C 18.004 14.903,17.974 14.904,19.160 15.328 " stroke="none" fill-rule="evenodd" fill="black"></path></svg>