<svg width="24" height="24" viewBox="0 0 24 24" fill="none" xmlns="http://www.w3.org/2000/svg"><path d="M3.749 4.045 C 2.967 4.120,2.402 4.371,1.890 4.870 C 1.491 5.260,1.236 5.731,1.094 6.340 C 1.024 6.643,1.020 6.936,1.020 12.020 L 1.020 17.380 1.111 17.735 C 1.225 18.184,1.379 18.505,1.650 18.858 C 2.031 19.355,2.586 19.713,3.244 19.887 C 3.580 19.976,3.584 19.976,7.849 19.990 C 10.720 19.999,12.169 19.990,12.273 19.962 C 12.498 19.901,12.738 19.711,12.867 19.492 C 12.964 19.327,12.980 19.257,12.980 19.000 C 12.980 18.746,12.963 18.672,12.872 18.516 C 12.761 18.328,12.572 18.158,12.373 18.070 C 12.286 18.031,11.288 18.015,8.000 18.000 L 3.740 17.980 3.550 17.886 C 3.335 17.780,3.141 17.567,3.071 17.360 C 3.038 17.259,3.021 16.346,3.010 14.110 L 2.996 11.000 11.994 11.000 L 20.993 11.000 21.007 11.653 C 21.020 12.300,21.021 12.308,21.141 12.503 C 21.543 13.156,22.457 13.156,22.859 12.503 L 22.980 12.306 22.980 9.483 C 22.980 6.873,22.974 6.636,22.906 6.340 C 22.688 5.404,22.167 4.737,21.329 4.321 C 21.019 4.168,20.706 4.091,20.180 4.042 C 19.643 3.991,4.277 3.994,3.749 4.045 M20.374 6.074 C 20.575 6.142,20.861 6.431,20.921 6.626 C 20.950 6.720,20.976 7.211,20.989 7.890 L 21.010 9.000 12.005 9.000 L 3.000 9.000 3.000 8.130 C 3.001 7.036,3.042 6.641,3.179 6.434 C 3.333 6.201,3.547 6.080,3.866 6.042 C 4.017 6.024,7.758 6.012,12.180 6.016 C 18.671 6.021,20.250 6.032,20.374 6.074 M18.695 14.057 C 18.466 14.129,18.256 14.299,18.128 14.516 L 18.020 14.700 18.008 15.850 L 17.995 17.000 16.944 17.000 C 15.797 17.000,15.643 17.022,15.382 17.221 C 15.302 17.282,15.187 17.415,15.128 17.516 C 15.037 17.672,15.020 17.746,15.020 18.000 C 15.020 18.256,15.036 18.328,15.131 18.489 C 15.192 18.592,15.304 18.725,15.381 18.783 C 15.642 18.983,15.738 18.996,16.908 18.998 L 17.995 19.000 18.008 20.153 L 18.020 21.307 18.141 21.503 C 18.543 22.156,19.457 22.156,19.859 21.503 L 19.980 21.307 19.992 20.153 L 20.005 19.000 21.092 18.998 C 22.262 18.996,22.358 18.983,22.619 18.783 C 22.696 18.725,22.808 18.592,22.869 18.489 C 22.964 18.328,22.980 18.256,22.980 18.000 C 22.980 17.746,22.963 17.672,22.872 17.516 C 22.813 17.415,22.698 17.282,22.618 17.221 C 22.357 17.022,22.203 17.000,21.056 17.000 L 20.005 17.000 19.992 15.850 L 19.980 14.700 19.872 14.516 C 19.628 14.101,19.150 13.915,18.695 14.057 " stroke="none" fill-rule="evenodd" fill="black"></path></svg>