<svg width="24" height="24" viewBox="0 0 24 24" fill="none" xmlns="http://www.w3.org/2000/svg"><path d="M5.695 1.057 C 5.466 1.129,5.256 1.299,5.128 1.516 L 5.020 1.700 5.008 3.350 L 4.997 5.000 3.445 5.000 C 1.758 5.000,1.658 5.011,1.382 5.221 C 1.302 5.282,1.187 5.415,1.128 5.516 C 1.037 5.672,1.020 5.746,1.020 6.000 C 1.020 6.256,1.036 6.328,1.131 6.489 C 1.192 6.592,1.304 6.725,1.381 6.783 C 1.654 6.991,1.700 6.996,3.409 6.998 L 4.997 7.000 5.010 11.710 L 5.023 16.420 5.112 16.756 C 5.287 17.415,5.645 17.969,6.142 18.350 C 6.487 18.615,6.810 18.772,7.244 18.888 L 7.580 18.977 12.288 18.990 L 16.997 19.003 17.008 20.655 L 17.020 22.306 17.141 22.503 C 17.209 22.613,17.346 22.756,17.452 22.828 C 17.923 23.144,18.554 22.999,18.859 22.503 L 18.980 22.306 18.992 20.653 L 19.003 19.000 20.592 18.998 C 22.300 18.996,22.346 18.991,22.619 18.783 C 22.696 18.725,22.808 18.592,22.869 18.489 C 22.964 18.328,22.980 18.256,22.980 18.000 C 22.980 17.746,22.963 17.672,22.872 17.516 C 22.761 17.328,22.572 17.158,22.373 17.070 C 22.284 17.031,20.690 17.016,15.000 17.000 L 7.740 16.980 7.550 16.886 C 7.336 16.781,7.142 16.568,7.070 16.360 C 7.034 16.254,7.017 14.456,7.001 8.960 L 6.980 1.700 6.872 1.516 C 6.628 1.101,6.150 0.915,5.695 1.057 M9.695 5.057 C 9.051 5.258,8.799 6.040,9.198 6.591 C 9.263 6.681,9.403 6.805,9.508 6.867 L 9.700 6.980 12.960 7.003 C 15.420 7.020,16.258 7.038,16.374 7.076 C 16.572 7.140,16.860 7.428,16.924 7.626 C 16.962 7.742,16.980 8.580,16.997 11.043 L 17.020 14.306 17.141 14.503 C 17.543 15.156,18.457 15.156,18.859 14.503 L 18.980 14.306 18.980 10.983 C 18.980 7.885,18.975 7.638,18.906 7.340 C 18.688 6.404,18.167 5.737,17.329 5.321 C 16.732 5.025,16.367 5.000,12.800 5.003 C 10.514 5.005,9.823 5.017,9.695 5.057 " stroke="none" fill-rule="evenodd" fill="black"></path></svg>