<svg width="24" height="24" viewBox="0 0 24 24" fill="none" xmlns="http://www.w3.org/2000/svg"><path d="M5.695 1.057 C 5.466 1.129,5.256 1.299,5.128 1.516 L 5.020 1.700 5.008 3.350 L 4.997 5.000 3.445 5.000 C 1.758 5.000,1.658 5.011,1.382 5.221 C 1.302 5.282,1.187 5.415,1.128 5.516 C 1.037 5.672,1.020 5.746,1.020 6.000 C 1.020 6.256,1.036 6.328,1.131 6.489 C 1.192 6.592,1.304 6.725,1.381 6.783 C 1.654 6.991,1.700 6.996,3.409 6.998 L 4.997 7.000 5.010 11.710 L 5.023 16.420 5.112 16.756 C 5.287 17.415,5.645 17.969,6.142 18.350 C 6.487 18.615,6.810 18.772,7.244 18.888 L 7.580 18.977 12.288 18.990 L 16.997 19.003 17.008 20.655 L 17.020 22.306 17.141 22.503 C 17.209 22.613,17.346 22.756,17.452 22.828 C 17.923 23.144,18.554 22.999,18.859 22.503 L 18.980 22.306 18.992 20.653 L 19.003 19.000 20.592 18.998 C 22.300 18.996,22.346 18.991,22.619 18.783 C 22.696 18.725,22.808 18.592,22.869 18.489 C 22.964 18.328,22.980 18.256,22.980 18.000 C 22.980 17.746,22.963 17.672,22.872 17.516 C 22.813 17.415,22.698 17.282,22.618 17.221 C 22.342 17.011,22.242 17.000,20.555 17.000 L 19.003 17.000 18.990 12.290 C 18.977 7.628,18.976 7.577,18.891 7.260 C 18.779 6.841,18.680 6.614,18.473 6.310 C 18.090 5.744,17.483 5.306,16.859 5.145 C 16.360 5.016,15.757 5.000,11.372 5.000 L 7.003 5.000 6.992 3.350 L 6.980 1.700 6.872 1.516 C 6.628 1.101,6.150 0.915,5.695 1.057 M16.374 7.075 C 16.572 7.141,16.859 7.428,16.925 7.626 C 16.966 7.747,16.980 8.768,16.990 12.391 L 17.003 17.002 12.372 16.991 L 7.740 16.980 7.550 16.886 C 7.335 16.781,7.141 16.568,7.071 16.360 C 7.035 16.256,7.020 15.040,7.010 11.608 L 6.997 6.997 11.608 7.010 C 15.232 7.020,16.253 7.034,16.374 7.075 " stroke="none" fill-rule="evenodd" fill="black"></path></svg>