<svg width="24" height="24" viewBox="0 0 24 24" fill="none" xmlns="http://www.w3.org/2000/svg"><path d="M7.413 2.042 C 7.227 2.079,6.556 2.433,6.021 2.778 C 4.847 3.535,3.737 4.614,2.952 5.760 C 1.722 7.554,1.083 9.520,1.015 11.720 C 0.989 12.554,1.063 13.506,1.174 13.773 C 1.253 13.961,1.466 14.191,1.646 14.283 C 2.134 14.532,2.763 14.313,3.000 13.811 C 3.087 13.629,3.089 13.596,3.055 13.080 C 3.003 12.280,3.022 11.247,3.098 10.732 C 3.524 7.851,5.224 5.435,7.800 4.048 C 8.009 3.936,8.239 3.789,8.312 3.722 C 8.600 3.458,8.686 2.994,8.519 2.607 C 8.337 2.182,7.883 1.951,7.413 2.042 M16.200 2.040 C 15.848 2.113,15.614 2.298,15.481 2.607 C 15.314 2.994,15.400 3.458,15.688 3.722 C 15.761 3.789,15.991 3.936,16.200 4.048 C 18.519 5.297,20.148 7.401,20.745 9.919 C 20.959 10.820,21.039 11.856,20.962 12.700 C 20.936 12.986,20.914 13.312,20.914 13.424 C 20.914 14.130,21.716 14.609,22.354 14.283 C 22.533 14.192,22.747 13.961,22.825 13.775 C 22.935 13.510,23.010 12.550,22.985 11.720 C 22.894 8.763,21.724 6.110,19.615 4.083 C 18.828 3.326,17.969 2.709,17.060 2.249 C 16.647 2.039,16.441 1.989,16.200 2.040 M11.020 5.580 C 8.196 6.031,6.006 8.220,5.577 11.020 C 5.498 11.533,5.498 12.467,5.577 12.980 C 5.746 14.086,6.231 15.188,6.933 16.060 C 8.177 17.608,10.011 18.486,12.000 18.486 C 14.497 18.486,16.705 17.111,17.835 14.852 C 18.265 13.993,18.487 13.013,18.485 11.980 C 18.479 8.755,16.155 6.071,12.940 5.577 C 12.498 5.509,11.456 5.511,11.020 5.580 M13.160 7.657 C 13.601 7.779,14.323 8.121,14.640 8.358 C 14.944 8.586,15.372 9.010,15.609 9.320 C 15.877 9.670,16.214 10.372,16.349 10.860 C 16.451 11.230,16.459 11.315,16.459 12.000 C 16.459 12.686,16.451 12.769,16.349 13.138 C 15.989 14.427,15.153 15.452,13.990 16.028 C 12.376 16.826,10.409 16.577,9.070 15.405 C 8.377 14.799,7.903 14.041,7.651 13.138 C 7.549 12.769,7.541 12.686,7.541 12.000 C 7.541 11.315,7.549 11.230,7.651 10.860 C 7.786 10.374,8.122 9.672,8.390 9.320 C 9.095 8.394,10.118 7.767,11.260 7.561 C 11.370 7.541,11.757 7.531,12.120 7.538 C 12.681 7.550,12.837 7.568,13.160 7.657 M5.848 19.137 C 5.155 19.361,4.904 20.132,5.338 20.701 C 5.457 20.857,6.061 21.274,6.629 21.593 C 7.857 22.281,9.221 22.726,10.720 22.927 C 10.932 22.955,11.498 22.977,12.000 22.977 C 13.429 22.977,14.561 22.777,15.840 22.299 C 16.984 21.870,18.400 21.060,18.681 20.672 C 19.164 20.005,18.690 19.099,17.860 19.105 C 17.587 19.107,17.525 19.134,16.969 19.497 C 15.718 20.315,14.333 20.806,12.848 20.958 C 10.864 21.161,8.685 20.611,7.000 19.480 C 6.813 19.355,6.604 19.223,6.536 19.188 C 6.355 19.095,6.049 19.072,5.848 19.137 " stroke="none" fill-rule="evenodd" fill="black"></path></svg>