<svg width="24" height="24" viewBox="0 0 24 24" fill="none" xmlns="http://www.w3.org/2000/svg"><path d="M7.413 2.042 C 7.227 2.079,6.556 2.433,6.021 2.778 C 4.847 3.535,3.737 4.614,2.952 5.760 C 1.722 7.554,1.083 9.520,1.015 11.720 C 0.989 12.554,1.063 13.506,1.174 13.773 C 1.253 13.961,1.466 14.191,1.646 14.283 C 2.134 14.532,2.763 14.313,3.000 13.811 C 3.087 13.629,3.089 13.596,3.055 13.080 C 3.003 12.280,3.022 11.247,3.098 10.732 C 3.524 7.851,5.224 5.435,7.800 4.048 C 8.009 3.936,8.239 3.789,8.312 3.722 C 8.600 3.458,8.686 2.994,8.519 2.607 C 8.337 2.182,7.883 1.951,7.413 2.042 M16.200 2.040 C 15.848 2.113,15.614 2.298,15.481 2.607 C 15.314 2.994,15.400 3.458,15.688 3.722 C 15.761 3.789,15.991 3.936,16.200 4.048 C 18.519 5.297,20.148 7.401,20.745 9.919 C 20.959 10.820,21.039 11.856,20.962 12.700 C 20.936 12.986,20.914 13.312,20.914 13.424 C 20.914 14.130,21.716 14.609,22.354 14.283 C 22.533 14.192,22.747 13.961,22.825 13.775 C 22.935 13.510,23.010 12.550,22.985 11.720 C 22.894 8.763,21.724 6.110,19.615 4.083 C 18.828 3.326,17.969 2.709,17.060 2.249 C 16.647 2.039,16.441 1.989,16.200 2.040 M11.652 5.255 C 11.538 5.284,11.345 5.368,11.224 5.441 C 11.075 5.532,10.126 6.455,8.247 8.337 C 5.671 10.918,5.481 11.118,5.355 11.379 C 5.234 11.629,5.220 11.694,5.220 12.000 C 5.220 12.306,5.234 12.371,5.355 12.621 C 5.481 12.882,5.668 13.078,8.295 15.705 C 10.922 18.332,11.118 18.519,11.379 18.645 C 11.629 18.766,11.694 18.780,12.000 18.780 C 12.306 18.780,12.371 18.766,12.621 18.645 C 12.882 18.519,13.078 18.332,15.705 15.705 C 18.332 13.078,18.519 12.882,18.645 12.621 C 18.766 12.371,18.780 12.306,18.780 12.000 C 18.780 11.694,18.766 11.630,18.645 11.379 C 18.519 11.118,18.330 10.919,15.785 8.368 C 14.179 6.758,12.964 5.571,12.827 5.479 C 12.465 5.236,12.044 5.155,11.652 5.255 M14.300 9.720 L 16.580 12.000 14.290 14.290 L 12.000 16.580 9.710 14.290 L 7.420 12.000 9.700 9.720 C 10.954 8.466,11.989 7.440,12.000 7.440 C 12.011 7.440,13.046 8.466,14.300 9.720 M5.848 19.137 C 5.155 19.361,4.904 20.132,5.338 20.701 C 5.457 20.857,6.061 21.274,6.629 21.593 C 7.857 22.281,9.221 22.726,10.720 22.927 C 10.932 22.955,11.498 22.977,12.000 22.977 C 13.429 22.977,14.561 22.777,15.840 22.299 C 16.984 21.870,18.400 21.060,18.681 20.672 C 19.164 20.005,18.690 19.099,17.860 19.105 C 17.587 19.107,17.525 19.134,16.969 19.497 C 15.718 20.315,14.333 20.806,12.848 20.958 C 10.864 21.161,8.685 20.611,7.000 19.480 C 6.813 19.355,6.604 19.223,6.536 19.188 C 6.355 19.095,6.049 19.072,5.848 19.137 " stroke="none" fill-rule="evenodd" fill="black"></path></svg>