<svg width="24" height="24" viewBox="0 0 24 24" fill="none" xmlns="http://www.w3.org/2000/svg"><path d="M1.670 1.061 C 1.448 1.142,1.250 1.309,1.128 1.516 C 1.036 1.672,1.020 1.745,1.021 2.000 C 1.021 2.213,1.043 2.341,1.095 2.440 C 1.194 2.627,3.294 4.739,3.508 4.866 C 3.968 5.138,4.587 4.968,4.867 4.492 C 4.964 4.327,4.980 4.257,4.980 4.000 C 4.980 3.747,4.963 3.672,4.873 3.520 C 4.815 3.421,4.266 2.843,3.653 2.236 C 2.680 1.271,2.515 1.124,2.343 1.066 C 2.108 0.987,1.875 0.985,1.670 1.061 M7.695 1.057 C 7.466 1.129,7.256 1.299,7.128 1.516 L 7.020 1.700 7.007 2.677 C 6.993 3.779,7.011 3.879,7.276 4.173 C 7.659 4.598,8.341 4.598,8.724 4.173 C 8.989 3.879,9.007 3.779,8.993 2.677 L 8.980 1.700 8.872 1.516 C 8.628 1.101,8.150 0.915,7.695 1.057 M15.695 1.057 C 15.466 1.129,15.256 1.299,15.128 1.516 L 15.020 1.700 15.020 4.003 L 15.020 6.306 15.141 6.503 C 15.543 7.156,16.457 7.156,16.859 6.503 L 16.980 6.306 16.980 4.003 L 16.980 1.700 16.872 1.516 C 16.628 1.101,16.150 0.915,15.695 1.057 M21.640 1.069 C 21.492 1.121,21.265 1.325,20.347 2.236 C 19.734 2.843,19.185 3.421,19.127 3.520 C 19.037 3.672,19.020 3.747,19.020 4.000 C 19.020 4.257,19.036 4.327,19.133 4.492 C 19.413 4.968,20.032 5.138,20.492 4.866 C 20.706 4.739,22.806 2.627,22.905 2.440 C 22.957 2.341,22.979 2.213,22.979 2.000 C 22.980 1.745,22.964 1.672,22.872 1.516 C 22.617 1.083,22.120 0.902,21.640 1.069 M11.679 6.252 C 11.557 6.280,11.368 6.353,11.259 6.416 C 11.127 6.491,10.291 7.299,8.775 8.815 C 6.649 10.941,6.480 11.119,6.355 11.379 C 6.234 11.629,6.220 11.694,6.220 12.000 C 6.220 12.306,6.234 12.371,6.355 12.621 C 6.480 12.881,6.650 13.060,8.795 15.205 C 10.940 17.350,11.119 17.520,11.379 17.645 C 11.629 17.766,11.694 17.780,12.000 17.780 C 12.306 17.780,12.371 17.766,12.621 17.645 C 12.881 17.520,13.060 17.350,15.205 15.205 C 17.350 13.060,17.520 12.881,17.645 12.621 C 17.766 12.371,17.780 12.306,17.780 12.000 C 17.780 11.694,17.766 11.630,17.645 11.379 C 17.520 11.121,17.346 10.936,15.285 8.868 C 13.989 7.568,12.962 6.570,12.826 6.478 C 12.475 6.242,12.076 6.163,11.679 6.252 M1.695 7.057 C 1.466 7.129,1.256 7.299,1.128 7.516 C 1.037 7.672,1.020 7.746,1.020 8.000 C 1.020 8.256,1.036 8.328,1.131 8.489 C 1.256 8.702,1.449 8.864,1.670 8.943 C 1.889 9.021,6.111 9.021,6.330 8.943 C 6.551 8.864,6.744 8.702,6.869 8.489 C 6.964 8.328,6.980 8.256,6.980 8.000 C 6.980 7.746,6.963 7.672,6.872 7.516 C 6.740 7.293,6.533 7.128,6.290 7.055 C 6.033 6.978,1.943 6.979,1.695 7.057 M20.240 7.037 C 19.794 7.173,19.512 7.546,19.512 8.000 C 19.512 8.405,19.719 8.724,20.100 8.905 C 20.293 8.996,20.333 8.999,21.240 8.998 C 22.251 8.996,22.363 8.979,22.619 8.783 C 22.696 8.725,22.808 8.592,22.869 8.489 C 22.964 8.328,22.980 8.256,22.980 8.000 C 22.980 7.746,22.963 7.672,22.872 7.516 C 22.740 7.293,22.533 7.128,22.290 7.055 C 22.090 6.995,20.427 6.981,20.240 7.037 M13.800 10.220 L 15.580 12.000 13.790 13.790 L 12.000 15.580 10.210 13.790 L 8.420 12.000 10.200 10.220 C 11.179 9.241,11.989 8.440,12.000 8.440 C 12.011 8.440,12.821 9.241,13.800 10.220 M1.695 15.056 C 1.465 15.130,1.255 15.300,1.128 15.516 C 1.037 15.672,1.020 15.746,1.020 16.000 C 1.020 16.256,1.036 16.328,1.131 16.489 C 1.192 16.592,1.304 16.725,1.381 16.783 C 1.637 16.979,1.749 16.996,2.760 16.998 C 3.667 16.999,3.707 16.996,3.900 16.905 C 4.281 16.724,4.488 16.405,4.488 16.000 C 4.488 15.615,4.293 15.297,3.940 15.106 C 3.790 15.025,3.719 15.019,2.820 15.011 C 2.112 15.005,1.817 15.017,1.695 15.056 M17.695 15.056 C 17.465 15.129,17.256 15.299,17.128 15.516 C 17.037 15.672,17.020 15.746,17.020 16.000 C 17.020 16.256,17.036 16.328,17.131 16.489 C 17.256 16.702,17.449 16.864,17.670 16.943 C 17.787 16.985,18.243 16.997,19.760 16.998 L 21.700 16.999 21.900 16.905 C 22.281 16.724,22.488 16.405,22.488 16.000 C 22.488 15.615,22.293 15.297,21.940 15.106 C 21.783 15.022,21.745 15.020,19.820 15.012 C 18.296 15.006,17.823 15.016,17.695 15.056 M7.695 17.057 C 7.466 17.129,7.256 17.299,7.128 17.516 L 7.020 17.700 7.020 20.003 L 7.020 22.306 7.141 22.503 C 7.209 22.613,7.346 22.756,7.452 22.828 C 7.923 23.144,8.554 22.999,8.859 22.503 L 8.980 22.306 8.980 20.003 L 8.980 17.700 8.872 17.516 C 8.628 17.101,8.150 16.915,7.695 17.057 M3.640 19.069 C 3.492 19.121,3.265 19.325,2.347 20.236 C 1.734 20.843,1.185 21.421,1.127 21.520 C 1.037 21.672,1.020 21.747,1.020 22.000 C 1.020 22.257,1.036 22.327,1.133 22.492 C 1.413 22.968,2.032 23.138,2.492 22.866 C 2.706 22.739,4.806 20.627,4.905 20.440 C 4.957 20.341,4.979 20.213,4.979 20.000 C 4.980 19.745,4.964 19.672,4.872 19.516 C 4.617 19.083,4.120 18.902,3.640 19.069 M19.670 19.061 C 19.448 19.142,19.250 19.309,19.128 19.516 C 19.036 19.672,19.020 19.745,19.021 20.000 C 19.021 20.213,19.043 20.341,19.095 20.440 C 19.194 20.627,21.294 22.739,21.508 22.866 C 21.968 23.138,22.587 22.968,22.867 22.492 C 22.964 22.327,22.980 22.257,22.980 22.000 C 22.980 21.747,22.963 21.672,22.873 21.520 C 22.815 21.421,22.266 20.843,21.653 20.236 C 20.680 19.271,20.515 19.124,20.343 19.066 C 20.108 18.987,19.875 18.985,19.670 19.061 M15.580 19.595 C 15.376 19.687,15.151 19.937,15.063 20.167 C 15.004 20.321,14.996 20.477,15.007 21.326 L 15.020 22.307 15.141 22.503 C 15.209 22.613,15.346 22.756,15.452 22.828 C 15.923 23.144,16.554 22.999,16.859 22.503 L 16.980 22.307 16.993 21.326 C 17.007 20.220,16.989 20.121,16.724 19.828 C 16.528 19.609,16.320 19.522,16.000 19.522 C 15.834 19.522,15.682 19.548,15.580 19.595 " stroke="none" fill-rule="evenodd" fill="black"></path></svg>