<svg width="24" height="24" viewBox="0 0 24 24" fill="none" xmlns="http://www.w3.org/2000/svg"><path d="M11.419 1.241 C 11.167 1.321,3.165 5.742,2.836 5.983 C 2.414 6.292,2.159 6.676,2.058 7.155 C 1.974 7.548,1.974 16.452,2.058 16.845 C 2.171 17.381,2.492 17.813,3.018 18.139 C 3.538 18.461,11.086 22.636,11.314 22.729 C 11.504 22.805,11.614 22.820,12.000 22.820 C 12.386 22.820,12.496 22.805,12.686 22.729 C 12.914 22.636,20.462 18.461,20.982 18.139 C 21.322 17.928,21.633 17.609,21.779 17.322 C 22.002 16.881,21.999 16.969,21.999 12.000 C 21.999 7.036,22.002 7.118,21.781 6.681 C 21.657 6.438,21.424 6.173,21.164 5.983 C 20.808 5.722,12.833 1.321,12.568 1.239 C 12.233 1.136,11.748 1.137,11.419 1.241 M11.000 7.003 C 11.000 9.169,10.986 10.282,10.960 10.273 C 10.874 10.245,5.081 7.019,5.082 7.000 C 5.083 6.978,10.923 3.727,10.970 3.723 C 10.987 3.721,11.000 5.197,11.000 7.003 M15.995 5.360 C 17.602 6.251,18.917 6.989,18.918 7.000 C 18.919 7.019,13.126 10.245,13.040 10.273 C 13.014 10.282,13.000 9.168,13.000 7.000 C 13.000 5.010,13.015 3.719,13.037 3.727 C 13.057 3.734,14.389 4.469,15.995 5.360 M6.995 10.360 C 8.602 11.251,9.917 11.989,9.918 12.000 C 9.919 12.019,4.126 15.245,4.040 15.273 C 4.014 15.282,4.000 14.168,4.000 12.000 C 4.000 10.010,4.015 8.719,4.037 8.727 C 4.057 8.734,5.389 9.469,6.995 10.360 M20.000 12.003 C 20.000 14.169,19.986 15.282,19.960 15.273 C 19.874 15.245,14.081 12.019,14.082 12.000 C 14.083 11.978,19.923 8.727,19.970 8.723 C 19.987 8.721,20.000 10.197,20.000 12.003 M11.000 17.003 C 11.000 19.169,10.986 20.282,10.960 20.273 C 10.874 20.245,5.081 17.019,5.082 17.000 C 5.083 16.978,10.923 13.727,10.970 13.723 C 10.987 13.721,11.000 15.197,11.000 17.003 M15.995 15.360 C 17.602 16.251,18.917 16.989,18.918 17.000 C 18.919 17.019,13.126 20.245,13.040 20.273 C 13.014 20.282,13.000 19.168,13.000 17.000 C 13.000 15.010,13.015 13.719,13.037 13.727 C 13.057 13.734,14.389 14.469,15.995 15.360 " stroke="none" fill-rule="evenodd" fill="black"></path></svg>