<svg width="24" height="24" viewBox="0 0 24 24" fill="none" xmlns="http://www.w3.org/2000/svg"><path d="M8.022 2.043 C 7.913 2.061,7.688 2.142,7.522 2.223 C 7.233 2.364,7.117 2.473,4.795 4.795 C 2.473 7.116,2.364 7.233,2.225 7.520 C 2.145 7.685,2.061 7.920,2.039 8.043 C 2.013 8.189,2.002 10.442,2.009 14.563 L 2.020 20.860 2.144 21.120 C 2.301 21.450,2.550 21.699,2.880 21.856 L 3.140 21.980 9.437 21.991 C 13.558 21.998,15.811 21.987,15.957 21.961 C 16.080 21.939,16.315 21.855,16.480 21.775 C 16.767 21.636,16.884 21.527,19.205 19.205 C 21.527 16.884,21.636 16.767,21.775 16.480 C 21.855 16.315,21.939 16.080,21.961 15.957 C 21.987 15.811,21.998 13.558,21.991 9.437 L 21.980 3.140 21.856 2.880 C 21.643 2.433,21.251 2.132,20.765 2.041 C 20.502 1.991,8.319 1.993,8.022 2.043 M17.080 5.500 L 15.580 7.000 10.500 7.000 L 5.420 7.000 6.920 5.500 L 8.420 4.000 13.500 4.000 L 18.580 4.000 17.080 5.500 M18.500 17.080 L 17.000 18.580 17.000 13.500 L 17.000 8.420 18.490 6.930 L 19.980 5.440 19.990 10.510 L 20.000 15.580 18.500 17.080 M15.000 14.500 L 15.000 20.000 9.500 20.000 L 4.000 20.000 4.000 14.500 L 4.000 9.000 9.500 9.000 L 15.000 9.000 15.000 14.500 " stroke="none" fill-rule="evenodd" fill="black"></path></svg>