<svg width="24" height="24" viewBox="0 0 24 24" fill="none" xmlns="http://www.w3.org/2000/svg"><path d="M11.400 1.251 C 11.136 1.341,9.410 2.274,9.126 2.481 C 8.819 2.703,8.686 3.161,8.809 3.575 C 8.878 3.812,9.206 4.129,9.449 4.197 C 9.844 4.307,9.980 4.264,11.003 3.699 C 11.516 3.415,11.964 3.183,12.000 3.183 C 12.036 3.183,12.484 3.415,12.997 3.699 C 14.020 4.264,14.156 4.307,14.551 4.197 C 14.794 4.129,15.122 3.812,15.191 3.575 C 15.309 3.176,15.185 2.714,14.900 2.497 C 14.644 2.302,12.816 1.316,12.566 1.239 C 12.212 1.129,11.742 1.134,11.400 1.251 M4.892 4.823 C 4.691 4.911,3.034 5.838,2.900 5.937 C 2.834 5.987,2.719 6.048,2.644 6.074 C 2.438 6.144,2.255 6.301,2.131 6.511 L 2.020 6.700 2.007 8.177 C 1.993 9.833,1.997 9.863,2.276 10.173 C 2.464 10.381,2.708 10.488,2.997 10.488 C 3.405 10.488,3.724 10.282,3.905 9.900 C 3.988 9.724,3.999 9.642,4.000 9.210 C 4.000 8.941,4.008 8.720,4.018 8.720 C 4.028 8.720,4.238 8.831,4.483 8.967 C 4.982 9.243,5.210 9.292,5.551 9.197 C 5.794 9.129,6.122 8.812,6.191 8.575 C 6.272 8.304,6.252 8.040,6.135 7.804 C 6.017 7.569,5.869 7.446,5.391 7.188 C 5.220 7.096,5.080 7.011,5.081 7.000 C 5.081 6.989,5.262 6.882,5.484 6.762 C 5.705 6.642,5.932 6.489,5.989 6.422 C 6.346 5.999,6.327 5.444,5.941 5.059 C 5.718 4.836,5.528 4.758,5.215 4.763 C 5.108 4.765,4.962 4.792,4.892 4.823 M18.400 4.812 C 18.204 4.874,17.869 5.221,17.809 5.425 C 17.702 5.784,17.775 6.143,18.011 6.422 C 18.068 6.489,18.295 6.642,18.516 6.762 C 18.738 6.882,18.919 6.989,18.919 7.000 C 18.920 7.011,18.780 7.096,18.609 7.188 C 18.131 7.446,17.983 7.569,17.865 7.804 C 17.748 8.040,17.728 8.304,17.809 8.575 C 17.878 8.812,18.206 9.129,18.449 9.197 C 18.790 9.292,19.018 9.243,19.517 8.967 C 19.762 8.831,19.972 8.720,19.982 8.720 C 19.992 8.720,20.000 8.941,20.000 9.210 C 20.001 9.642,20.012 9.724,20.095 9.900 C 20.276 10.281,20.595 10.488,21.000 10.488 C 21.405 10.488,21.723 10.281,21.905 9.900 C 22.001 9.700,22.001 9.697,21.998 8.280 C 21.995 6.654,21.984 6.582,21.701 6.299 C 21.608 6.206,21.462 6.107,21.376 6.079 C 21.290 6.051,21.166 5.987,21.100 5.938 C 20.952 5.828,19.298 4.905,19.096 4.821 C 18.930 4.751,18.606 4.747,18.400 4.812 M9.400 9.812 C 9.204 9.874,8.869 10.221,8.809 10.425 C 8.703 10.783,8.775 11.143,9.009 11.420 C 9.070 11.492,9.494 11.752,10.054 12.060 L 10.998 12.580 10.999 13.640 C 11.001 14.670,11.003 14.706,11.095 14.900 C 11.276 15.281,11.595 15.488,12.000 15.488 C 12.405 15.488,12.724 15.281,12.905 14.900 C 12.997 14.706,12.999 14.670,13.001 13.640 L 13.002 12.580 13.946 12.060 C 14.506 11.752,14.930 11.492,14.991 11.420 C 15.346 10.999,15.326 10.443,14.941 10.059 C 14.723 9.840,14.532 9.760,14.230 9.760 C 13.993 9.760,13.909 9.798,12.898 10.361 C 12.425 10.624,12.021 10.840,12.000 10.840 C 11.979 10.840,11.575 10.624,11.102 10.361 C 10.629 10.097,10.176 9.854,10.096 9.821 C 9.930 9.751,9.606 9.747,9.400 9.812 M2.600 13.584 C 2.399 13.671,2.205 13.869,2.095 14.100 C 2.003 14.296,2.001 14.324,2.001 15.440 C 2.001 16.968,2.068 17.258,2.530 17.747 C 2.772 18.002,2.959 18.123,4.074 18.741 C 5.011 19.260,5.160 19.306,5.551 19.197 C 5.794 19.129,6.122 18.812,6.191 18.575 C 6.314 18.161,6.181 17.703,5.875 17.481 C 5.791 17.420,5.335 17.156,4.861 16.895 L 4.001 16.420 4.000 15.360 C 3.999 14.329,3.997 14.295,3.905 14.100 C 3.793 13.865,3.599 13.669,3.391 13.582 C 3.203 13.503,2.783 13.504,2.600 13.584 M20.600 13.584 C 20.399 13.671,20.205 13.869,20.095 14.100 C 20.003 14.295,20.001 14.329,20.000 15.360 L 19.999 16.420 19.139 16.895 C 18.665 17.156,18.209 17.420,18.125 17.481 C 17.819 17.703,17.686 18.161,17.809 18.575 C 17.878 18.812,18.206 19.129,18.449 19.197 C 18.840 19.306,18.989 19.260,19.926 18.741 C 21.041 18.123,21.228 18.002,21.470 17.747 C 21.932 17.258,21.999 16.968,21.999 15.440 C 21.999 14.324,21.997 14.296,21.905 14.100 C 21.793 13.865,21.599 13.669,21.391 13.582 C 21.203 13.503,20.783 13.504,20.600 13.584 M11.600 18.584 C 11.399 18.671,11.205 18.869,11.095 19.100 C 11.012 19.276,11.001 19.358,11.000 19.790 C 11.000 20.059,10.989 20.280,10.975 20.280 C 10.962 20.280,10.794 20.191,10.602 20.083 C 10.000 19.744,9.801 19.698,9.425 19.809 C 9.205 19.874,8.874 20.205,8.809 20.425 C 8.699 20.796,8.801 21.237,9.052 21.473 C 9.103 21.520,9.584 21.800,10.122 22.096 C 10.660 22.391,11.235 22.711,11.400 22.807 C 11.681 22.969,11.719 22.980,12.000 22.980 C 12.281 22.980,12.319 22.969,12.600 22.807 C 12.765 22.711,13.340 22.391,13.878 22.096 C 14.416 21.800,14.897 21.520,14.948 21.473 C 15.199 21.237,15.301 20.796,15.191 20.425 C 15.126 20.205,14.795 19.874,14.575 19.809 C 14.199 19.698,14.000 19.744,13.398 20.083 C 13.206 20.191,13.038 20.280,13.025 20.280 C 13.011 20.280,13.000 20.059,13.000 19.790 C 12.999 19.358,12.988 19.276,12.905 19.100 C 12.793 18.865,12.599 18.669,12.391 18.582 C 12.203 18.503,11.783 18.504,11.600 18.584 " stroke="none" fill-rule="evenodd" fill="black"></path></svg>