<svg width="24" height="24" viewBox="0 0 24 24" fill="none" xmlns="http://www.w3.org/2000/svg"><path d="M11.280 1.023 C 11.203 1.032,10.951 1.059,10.720 1.083 C 9.527 1.210,8.337 1.558,7.180 2.120 C 6.045 2.671,5.193 3.285,4.238 4.239 C 3.277 5.198,2.643 6.080,2.097 7.220 C 0.301 10.968,0.728 15.286,3.226 18.633 C 3.701 19.269,4.753 20.316,5.400 20.797 C 9.364 23.745,14.666 23.734,18.637 20.770 C 19.246 20.316,20.316 19.246,20.770 18.637 C 23.744 14.652,23.744 9.348,20.770 5.363 C 20.316 4.755,19.247 3.686,18.640 3.235 C 17.045 2.049,15.365 1.360,13.423 1.096 C 13.000 1.038,11.574 0.990,11.280 1.023 M13.320 3.101 C 15.883 3.488,18.124 4.931,19.560 7.120 C 19.863 7.583,20.303 8.479,20.492 9.020 C 20.838 10.013,20.977 10.865,20.977 12.000 C 20.977 13.493,20.720 14.621,20.080 15.940 C 19.375 17.394,18.311 18.607,16.927 19.532 C 16.138 20.060,14.876 20.588,13.908 20.797 C 11.266 21.366,8.479 20.708,6.370 19.019 C 4.857 17.807,3.722 16.029,3.267 14.160 C 3.081 13.397,3.023 12.888,3.023 12.000 C 3.023 10.507,3.280 9.379,3.920 8.060 C 4.971 5.891,6.877 4.221,9.160 3.466 C 9.865 3.233,10.432 3.118,11.340 3.024 C 11.662 2.991,12.911 3.039,13.320 3.101 M8.044 5.625 C 7.380 5.956,7.322 6.895,7.940 7.320 C 8.177 7.483,8.458 7.520,9.477 7.521 C 10.505 7.521,10.729 7.557,11.166 7.786 C 11.504 7.963,11.807 8.281,12.011 8.669 C 12.093 8.824,12.160 8.962,12.160 8.974 C 12.160 8.987,11.273 9.002,10.190 9.009 C 8.258 9.020,8.217 9.022,8.060 9.106 C 7.707 9.297,7.512 9.615,7.512 10.000 C 7.512 10.405,7.719 10.724,8.100 10.905 L 8.300 10.999 10.230 11.000 C 11.292 11.000,12.160 11.011,12.160 11.024 C 12.160 11.037,12.094 11.175,12.012 11.329 C 11.729 11.868,11.332 12.206,10.770 12.389 C 10.478 12.484,10.393 12.492,9.320 12.515 L 8.180 12.540 7.993 12.650 C 7.543 12.914,7.374 13.477,7.605 13.940 C 7.695 14.120,7.989 14.373,10.522 16.451 C 12.072 17.722,13.416 18.807,13.508 18.863 C 13.964 19.140,14.587 18.969,14.867 18.492 C 14.964 18.327,14.980 18.257,14.980 18.000 C 14.980 17.504,15.018 17.545,12.970 15.868 C 11.975 15.053,11.168 14.378,11.178 14.368 C 11.188 14.358,11.324 14.307,11.481 14.254 C 12.840 13.797,13.789 12.719,14.198 11.170 L 14.243 11.000 14.972 11.000 C 15.654 10.999,15.713 10.993,15.900 10.905 C 16.281 10.724,16.488 10.405,16.488 10.000 C 16.488 9.615,16.293 9.297,15.940 9.106 C 15.795 9.028,15.709 9.019,15.011 9.007 L 14.241 8.994 14.197 8.827 C 14.105 8.476,13.954 8.067,13.819 7.799 L 13.679 7.520 14.552 7.520 C 15.525 7.520,15.817 7.483,16.049 7.330 C 16.668 6.919,16.617 5.955,15.957 5.626 L 15.744 5.520 12.000 5.520 L 8.256 5.520 8.044 5.625 " stroke="none" fill-rule="evenodd" fill="black"></path></svg>