<svg width="24" height="24" viewBox="0 0 24 24" fill="none" xmlns="http://www.w3.org/2000/svg"><path d="M11.280 1.023 C 11.203 1.032,10.951 1.059,10.720 1.083 C 9.527 1.210,8.337 1.558,7.180 2.120 C 6.045 2.671,5.193 3.285,4.238 4.239 C 3.277 5.198,2.643 6.080,2.097 7.220 C 0.301 10.968,0.728 15.286,3.226 18.633 C 3.701 19.269,4.753 20.316,5.400 20.797 C 9.364 23.745,14.666 23.734,18.637 20.770 C 19.246 20.316,20.316 19.246,20.770 18.637 C 23.744 14.652,23.744 9.348,20.770 5.363 C 20.316 4.755,19.247 3.686,18.640 3.235 C 17.045 2.049,15.365 1.360,13.423 1.096 C 13.000 1.038,11.574 0.990,11.280 1.023 M13.320 3.101 C 15.883 3.488,18.124 4.931,19.560 7.120 C 19.863 7.583,20.303 8.479,20.492 9.020 C 20.838 10.013,20.977 10.865,20.977 12.000 C 20.977 13.493,20.720 14.621,20.080 15.940 C 19.375 17.394,18.311 18.607,16.927 19.532 C 16.138 20.060,14.876 20.588,13.908 20.797 C 11.266 21.366,8.479 20.708,6.370 19.019 C 4.857 17.807,3.722 16.029,3.267 14.160 C 3.081 13.397,3.023 12.888,3.023 12.000 C 3.023 10.507,3.280 9.379,3.920 8.060 C 4.971 5.891,6.877 4.221,9.160 3.466 C 9.865 3.233,10.432 3.118,11.340 3.024 C 11.662 2.991,12.911 3.039,13.320 3.101 M11.654 5.577 C 10.238 5.846,9.276 6.764,8.974 8.135 C 8.897 8.483,8.887 9.288,8.956 9.620 C 9.044 10.047,9.206 10.490,9.455 10.980 C 9.589 11.244,9.705 11.473,9.713 11.490 C 9.720 11.507,9.509 11.520,9.242 11.520 C 8.895 11.520,8.715 11.538,8.609 11.582 C 8.270 11.723,8.001 12.130,8.001 12.500 C 8.001 12.745,8.136 13.049,8.325 13.228 C 8.552 13.444,8.719 13.490,9.333 13.511 L 9.887 13.530 9.861 13.675 C 9.720 14.455,8.947 16.004,8.327 16.750 C 8.113 17.007,8.037 17.169,8.011 17.424 C 7.983 17.699,8.076 17.954,8.289 18.186 C 8.594 18.516,8.405 18.500,12.000 18.500 C 15.507 18.500,15.357 18.510,15.652 18.245 C 16.096 17.844,16.107 17.182,15.675 16.772 C 15.403 16.514,15.463 16.520,13.081 16.520 C 11.893 16.520,10.920 16.505,10.920 16.486 C 10.920 16.467,11.027 16.227,11.158 15.952 C 11.444 15.348,11.724 14.533,11.844 13.953 L 11.932 13.526 13.076 13.512 C 14.340 13.497,14.403 13.486,14.675 13.228 C 15.085 12.839,15.100 12.216,14.708 11.807 C 14.452 11.540,14.464 11.542,13.105 11.520 L 11.870 11.500 11.779 11.229 C 11.729 11.080,11.543 10.674,11.367 10.327 C 10.955 9.515,10.905 9.343,10.929 8.823 C 10.944 8.491,10.965 8.384,11.051 8.216 C 11.291 7.746,11.747 7.521,12.467 7.520 C 13.115 7.520,13.708 7.701,14.095 8.018 C 14.329 8.210,14.539 8.292,14.800 8.292 C 15.473 8.292,15.930 7.673,15.742 7.016 C 15.685 6.818,15.635 6.743,15.431 6.550 C 15.015 6.157,14.420 5.851,13.692 5.656 C 13.358 5.566,13.200 5.548,12.620 5.536 C 12.159 5.527,11.848 5.540,11.654 5.577 " stroke="none" fill-rule="evenodd" fill="black"></path></svg>