<svg width="24" height="24" viewBox="0 0 24 24" fill="none" xmlns="http://www.w3.org/2000/svg"><path d="M11.665 1.056 C 11.580 1.088,11.450 1.165,11.376 1.227 C 11.128 1.435,3.135 10.468,3.077 10.605 C 3.046 10.679,3.020 10.867,3.020 11.023 C 3.020 11.268,3.036 11.332,3.141 11.502 C 3.381 11.890,3.164 11.821,7.724 12.962 C 9.999 13.532,11.923 13.998,12.000 13.998 C 12.077 13.998,14.001 13.532,16.276 12.962 C 20.836 11.821,20.619 11.890,20.859 11.502 C 20.966 11.329,20.980 11.271,20.980 11.003 C 20.980 10.760,20.962 10.670,20.890 10.547 C 20.840 10.463,18.963 8.329,16.720 5.804 C 13.855 2.582,12.591 1.187,12.476 1.122 C 12.269 1.006,11.884 0.975,11.665 1.056 M11.000 6.430 L 11.000 8.221 8.971 8.728 C 7.854 9.006,6.937 9.231,6.932 9.226 C 6.924 9.217,10.970 4.645,10.990 4.642 C 10.995 4.641,11.000 5.446,11.000 6.430 M15.193 7.098 C 16.229 8.263,17.073 9.221,17.068 9.226 C 17.063 9.231,16.146 9.006,15.029 8.728 L 13.000 8.221 13.000 6.425 L 13.000 4.629 13.155 4.804 C 13.240 4.901,14.158 5.933,15.193 7.098 M13.910 10.508 C 14.950 10.767,15.800 10.989,15.800 11.000 C 15.800 11.011,14.945 11.234,13.900 11.495 L 12.000 11.969 10.100 11.495 C 9.055 11.234,8.200 11.011,8.200 11.000 C 8.200 10.980,11.842 10.052,11.960 10.043 C 11.993 10.040,12.870 10.250,13.910 10.508 M5.240 14.037 C 4.949 14.126,4.688 14.354,4.580 14.614 C 4.487 14.837,4.495 15.189,4.600 15.410 C 4.660 15.538,5.698 16.684,8.021 19.187 C 10.654 22.025,11.396 22.801,11.547 22.880 C 11.699 22.959,11.797 22.980,12.022 22.980 C 12.269 22.980,12.331 22.964,12.495 22.860 C 12.767 22.687,19.304 15.639,19.409 15.405 C 19.507 15.189,19.512 14.835,19.422 14.618 C 19.341 14.424,19.192 14.264,18.974 14.135 C 18.639 13.937,18.705 13.927,15.210 14.734 L 12.000 15.476 8.804 14.738 C 7.046 14.332,5.547 14.002,5.474 14.003 C 5.400 14.005,5.295 14.021,5.240 14.037 M10.249 17.126 C 11.113 17.327,11.901 17.491,12.000 17.491 C 12.099 17.491,12.926 17.318,13.837 17.106 C 14.748 16.894,15.499 16.726,15.505 16.732 C 15.521 16.748,12.032 20.500,12.000 20.500 C 11.980 20.500,10.081 18.468,8.585 16.845 L 8.460 16.709 8.569 16.735 C 8.628 16.749,9.384 16.925,10.249 17.126 " stroke="none" fill-rule="evenodd" fill="black"></path></svg>