<svg width="24" height="24" viewBox="0 0 24 24" fill="none" xmlns="http://www.w3.org/2000/svg"><path d="M8.047 2.624 C 7.777 2.758,7.584 3.013,7.524 3.315 C 7.494 3.463,7.480 4.650,7.480 7.027 L 7.480 10.520 6.868 10.520 C 6.287 10.520,6.245 10.525,6.044 10.625 C 5.380 10.956,5.322 11.895,5.940 12.320 C 6.149 12.464,6.453 12.520,7.027 12.520 L 7.480 12.520 7.480 13.520 L 7.480 14.520 6.868 14.520 C 6.287 14.520,6.245 14.525,6.044 14.625 C 5.517 14.888,5.345 15.571,5.682 16.063 C 5.921 16.411,6.241 16.520,7.027 16.520 L 7.480 16.520 7.480 18.498 C 7.480 19.817,7.495 20.546,7.525 20.687 C 7.725 21.619,8.968 21.784,9.385 20.934 L 9.500 20.700 9.512 18.610 L 9.524 16.520 11.475 16.520 C 12.708 16.520,13.512 16.504,13.661 16.477 C 14.594 16.304,14.796 15.044,13.957 14.626 L 13.744 14.520 11.632 14.520 L 9.520 14.520 9.520 13.523 L 9.520 12.526 12.290 12.508 C 15.344 12.489,15.334 12.490,16.104 12.227 C 16.824 11.982,17.411 11.623,17.962 11.093 C 19.043 10.053,19.602 8.579,19.477 7.103 C 19.434 6.599,19.382 6.353,19.221 5.880 C 19.063 5.413,18.937 5.159,18.646 4.720 C 17.969 3.695,16.921 2.968,15.640 2.632 C 15.303 2.544,15.270 2.543,11.780 2.530 L 8.260 2.517 8.047 2.624 M15.180 4.580 C 15.334 4.612,15.622 4.719,15.820 4.818 C 16.427 5.121,16.879 5.573,17.182 6.180 C 17.399 6.615,17.479 6.969,17.479 7.500 C 17.479 8.359,17.219 8.992,16.610 9.616 C 16.129 10.108,15.528 10.397,14.814 10.479 C 14.612 10.502,13.398 10.519,11.990 10.520 L 9.520 10.520 9.520 7.520 L 9.520 4.520 12.210 4.521 C 14.412 4.521,14.951 4.532,15.180 4.580 " stroke="none" fill-rule="evenodd" fill="black"></path></svg>