<svg width="24" height="24" viewBox="0 0 24 24" fill="none" xmlns="http://www.w3.org/2000/svg"><path d="M12.283 2.583 C 11.253 2.715,10.265 3.015,9.326 3.481 C 7.739 4.269,6.566 5.295,5.586 6.753 C 5.250 7.252,4.796 8.136,4.606 8.660 L 4.490 8.980 3.615 9.002 C 3.065 9.015,2.698 9.041,2.627 9.072 C 2.431 9.156,2.240 9.326,2.128 9.516 C 2.037 9.672,2.020 9.746,2.020 10.000 C 2.020 10.256,2.036 10.328,2.131 10.489 C 2.256 10.702,2.449 10.864,2.670 10.943 C 2.769 10.978,3.024 10.997,3.420 10.998 L 4.020 11.000 4.020 12.000 L 4.020 13.000 3.456 13.000 C 2.654 13.000,2.367 13.110,2.135 13.504 C 1.862 13.970,2.031 14.587,2.508 14.867 C 2.700 14.980,2.702 14.980,3.595 15.000 L 4.490 15.020 4.606 15.340 C 4.670 15.516,4.846 15.912,4.997 16.220 C 5.793 17.842,7.074 19.223,8.666 20.176 C 9.752 20.826,11.118 21.286,12.420 21.442 C 12.937 21.503,14.069 21.503,14.580 21.442 C 16.197 21.247,17.727 20.653,19.054 19.704 C 19.625 19.295,19.852 19.065,19.939 18.804 C 20.120 18.259,19.836 17.699,19.295 17.537 C 18.878 17.411,18.692 17.470,18.098 17.918 C 16.564 19.076,14.815 19.606,12.957 19.476 C 10.692 19.318,8.572 18.093,7.308 16.211 C 7.067 15.853,6.643 15.101,6.641 15.030 C 6.640 15.013,8.111 14.999,9.910 14.998 C 12.537 14.997,13.210 14.986,13.330 14.943 C 13.551 14.864,13.744 14.702,13.869 14.489 C 13.964 14.328,13.980 14.256,13.980 14.000 C 13.980 13.746,13.963 13.672,13.872 13.516 C 13.813 13.415,13.698 13.282,13.618 13.221 C 13.322 12.995,13.407 13.000,9.594 13.000 L 6.082 13.000 6.051 12.890 C 6.012 12.747,6.012 11.253,6.051 11.110 L 6.082 11.000 9.631 10.998 C 12.491 10.997,13.209 10.986,13.330 10.943 C 13.551 10.864,13.744 10.702,13.869 10.489 C 13.964 10.328,13.980 10.256,13.980 10.000 C 13.980 9.746,13.963 9.672,13.872 9.516 C 13.813 9.415,13.698 9.282,13.618 9.221 C 13.323 8.997,13.383 9.000,9.874 9.000 C 8.095 9.000,6.640 8.986,6.641 8.970 C 6.643 8.901,7.063 8.154,7.298 7.800 C 7.849 6.973,8.693 6.159,9.540 5.639 C 10.791 4.871,12.034 4.521,13.500 4.522 C 15.284 4.523,16.763 5.045,18.251 6.196 C 18.423 6.329,18.630 6.456,18.711 6.478 C 19.165 6.604,19.630 6.416,19.869 6.009 C 20.019 5.753,20.026 5.354,19.885 5.067 C 19.706 4.703,18.721 3.997,17.669 3.478 C 16.681 2.991,15.613 2.677,14.552 2.562 C 14.029 2.505,12.797 2.517,12.283 2.583 " stroke="none" fill-rule="evenodd" fill="black"></path></svg>