<svg width="24" height="24" viewBox="0 0 24 24" fill="none" xmlns="http://www.w3.org/2000/svg"><path d="M10.900 2.576 C 9.235 2.852,8.053 3.663,7.388 4.984 C 6.976 5.802,6.798 6.945,6.933 7.903 C 7.046 8.704,7.286 9.325,7.899 10.400 C 8.094 10.741,8.349 11.207,8.466 11.436 C 8.674 11.840,8.891 12.430,8.854 12.490 C 8.844 12.507,8.255 12.520,7.545 12.520 L 6.256 12.520 6.044 12.625 C 5.376 12.958,5.324 13.915,5.951 14.330 C 6.195 14.491,6.472 14.520,7.747 14.520 C 8.392 14.520,8.920 14.534,8.920 14.550 C 8.919 14.567,8.876 14.769,8.824 15.000 C 8.467 16.575,7.561 18.104,6.224 19.388 C 5.680 19.911,5.578 20.049,5.525 20.334 C 5.425 20.870,5.784 21.374,6.339 21.477 C 6.669 21.537,17.331 21.537,17.661 21.477 C 18.594 21.304,18.796 20.044,17.957 19.626 L 17.744 19.520 13.292 19.520 C 10.843 19.520,8.840 19.510,8.840 19.498 C 8.840 19.486,8.981 19.275,9.154 19.028 C 9.769 18.152,10.221 17.263,10.535 16.311 C 10.710 15.783,10.920 14.872,10.920 14.644 L 10.920 14.524 13.070 14.512 C 15.039 14.501,15.233 14.494,15.380 14.428 C 15.736 14.268,15.999 13.873,15.999 13.500 C 15.999 13.255,15.864 12.951,15.675 12.772 C 15.403 12.514,15.463 12.520,13.088 12.520 L 10.933 12.520 10.860 12.190 C 10.685 11.405,10.400 10.743,9.737 9.580 C 9.270 8.761,9.110 8.425,9.006 8.052 C 8.702 6.955,9.037 5.677,9.775 5.120 C 10.029 4.929,10.487 4.714,10.840 4.622 C 11.189 4.530,12.168 4.494,12.600 4.558 C 13.386 4.673,14.162 4.984,14.660 5.385 C 15.006 5.663,15.159 5.731,15.440 5.732 C 15.832 5.734,16.204 5.496,16.365 5.141 C 16.462 4.928,16.462 4.551,16.365 4.340 C 16.151 3.875,15.143 3.207,14.159 2.877 C 13.422 2.630,12.943 2.554,12.040 2.538 C 11.481 2.528,11.118 2.540,10.900 2.576 " stroke="none" fill-rule="evenodd" fill="black"></path></svg>