<svg width="24" height="24" viewBox="0 0 24 24" fill="none" xmlns="http://www.w3.org/2000/svg"><path d="M11.280 1.023 C 11.203 1.032,10.951 1.059,10.720 1.083 C 9.527 1.210,8.337 1.558,7.180 2.120 C 6.045 2.671,5.193 3.285,4.238 4.239 C 3.277 5.198,2.643 6.080,2.097 7.220 C 0.301 10.968,0.728 15.286,3.226 18.633 C 3.701 19.269,4.753 20.316,5.400 20.797 C 9.364 23.745,14.666 23.734,18.637 20.770 C 19.246 20.316,20.316 19.246,20.770 18.637 C 23.744 14.652,23.744 9.348,20.770 5.363 C 20.316 4.755,19.247 3.686,18.640 3.235 C 17.045 2.049,15.365 1.360,13.423 1.096 C 13.000 1.038,11.574 0.990,11.280 1.023 M13.320 3.101 C 15.883 3.488,18.124 4.931,19.560 7.120 C 19.863 7.583,20.303 8.479,20.492 9.020 C 20.838 10.013,20.977 10.865,20.977 12.000 C 20.977 13.493,20.720 14.621,20.080 15.940 C 19.375 17.394,18.311 18.607,16.927 19.532 C 16.138 20.060,14.876 20.588,13.908 20.797 C 11.266 21.366,8.479 20.708,6.370 19.019 C 4.857 17.807,3.722 16.029,3.267 14.160 C 3.081 13.397,3.023 12.888,3.023 12.000 C 3.023 10.507,3.280 9.379,3.920 8.060 C 4.971 5.891,6.877 4.221,9.160 3.466 C 9.865 3.233,10.432 3.118,11.340 3.024 C 11.662 2.991,12.911 3.039,13.320 3.101 M11.380 6.040 C 9.413 6.251,7.659 7.421,6.733 9.140 L 6.539 9.500 6.099 9.521 C 5.801 9.535,5.621 9.563,5.540 9.608 C 5.364 9.704,5.176 9.915,5.083 10.120 C 4.925 10.469,5.009 10.898,5.292 11.193 C 5.450 11.358,5.596 11.437,5.813 11.474 L 5.980 11.502 5.991 12.011 L 6.002 12.520 5.880 12.520 C 5.445 12.520,5.001 13.016,5.001 13.500 C 5.001 13.875,5.270 14.277,5.619 14.422 C 5.711 14.461,5.943 14.498,6.170 14.510 L 6.562 14.532 6.731 14.856 C 6.823 15.034,7.027 15.351,7.183 15.560 C 9.183 18.241,12.948 18.789,15.609 16.787 C 16.157 16.375,16.320 16.130,16.320 15.720 C 16.320 15.262,15.989 14.853,15.543 14.761 C 15.161 14.681,14.963 14.749,14.494 15.122 C 13.179 16.167,11.412 16.287,9.953 15.431 C 9.648 15.252,9.131 14.825,9.004 14.646 L 8.919 14.526 10.070 14.512 C 11.066 14.500,11.241 14.489,11.380 14.427 C 11.735 14.269,11.999 13.873,11.999 13.500 C 11.999 13.255,11.864 12.951,11.675 12.772 C 11.410 12.521,11.406 12.520,9.647 12.520 L 8.050 12.520 8.026 12.370 C 7.994 12.177,7.993 11.804,8.025 11.647 L 8.049 11.525 9.635 11.512 C 11.059 11.501,11.236 11.493,11.380 11.428 C 11.736 11.268,11.999 10.873,11.999 10.500 C 11.999 10.130,11.730 9.723,11.391 9.582 C 11.269 9.531,11.040 9.520,10.081 9.520 C 9.443 9.520,8.920 9.505,8.920 9.486 C 8.920 9.411,9.262 9.070,9.568 8.839 C 10.139 8.409,10.724 8.160,11.416 8.054 C 12.553 7.880,13.685 8.201,14.595 8.957 C 14.956 9.258,15.239 9.333,15.604 9.226 C 16.034 9.100,16.320 8.719,16.320 8.272 C 16.320 7.826,16.081 7.523,15.340 7.031 C 14.649 6.572,13.819 6.233,13.064 6.102 C 12.619 6.024,11.802 5.994,11.380 6.040 " stroke="none" fill-rule="evenodd" fill="black"></path></svg>