<svg width="24" height="24" viewBox="0 0 24 24" fill="none" xmlns="http://www.w3.org/2000/svg"><path d="M11.280 1.023 C 11.203 1.032,10.951 1.059,10.720 1.083 C 9.527 1.210,8.337 1.558,7.180 2.120 C 6.045 2.671,5.193 3.285,4.238 4.239 C 3.277 5.198,2.643 6.080,2.097 7.220 C 0.301 10.968,0.728 15.286,3.226 18.633 C 3.701 19.269,4.753 20.316,5.400 20.797 C 9.364 23.745,14.666 23.734,18.637 20.770 C 19.246 20.316,20.316 19.246,20.770 18.637 C 23.744 14.652,23.744 9.348,20.770 5.363 C 20.316 4.755,19.247 3.686,18.640 3.235 C 17.045 2.049,15.365 1.360,13.423 1.096 C 13.000 1.038,11.574 0.990,11.280 1.023 M13.320 3.101 C 15.883 3.488,18.124 4.931,19.560 7.120 C 19.863 7.583,20.303 8.479,20.492 9.020 C 20.838 10.013,20.977 10.865,20.977 12.000 C 20.977 13.493,20.720 14.621,20.080 15.940 C 19.375 17.394,18.311 18.607,16.927 19.532 C 16.138 20.060,14.876 20.588,13.908 20.797 C 11.266 21.366,8.479 20.708,6.370 19.019 C 4.857 17.807,3.722 16.029,3.267 14.160 C 3.081 13.397,3.023 12.888,3.023 12.000 C 3.023 10.507,3.280 9.379,3.920 8.060 C 4.971 5.891,6.877 4.221,9.160 3.466 C 9.865 3.233,10.432 3.118,11.340 3.024 C 11.662 2.991,12.911 3.039,13.320 3.101 M9.047 5.624 C 8.777 5.758,8.584 6.013,8.524 6.315 C 8.496 6.456,8.480 7.239,8.480 8.527 L 8.480 10.520 8.119 10.520 C 7.572 10.520,7.296 10.677,7.095 11.100 C 6.918 11.475,7.011 11.930,7.325 12.228 C 7.518 12.411,7.722 12.483,8.126 12.509 L 8.480 12.532 8.480 13.146 L 8.480 13.760 8.130 13.761 C 7.743 13.762,7.512 13.838,7.306 14.032 C 6.925 14.393,6.907 15.043,7.268 15.415 C 7.506 15.660,7.687 15.732,8.110 15.752 L 8.480 15.770 8.480 16.623 C 8.480 17.568,8.515 17.820,8.682 18.063 C 9.071 18.629,9.929 18.628,10.320 18.060 C 10.481 17.826,10.520 17.542,10.520 16.595 L 10.520 15.764 11.890 15.752 C 13.208 15.740,13.266 15.737,13.423 15.653 C 14.196 15.239,14.183 14.197,13.400 13.843 C 13.230 13.766,13.142 13.762,11.870 13.761 L 10.520 13.760 10.520 13.144 L 10.520 12.527 12.490 12.509 C 14.660 12.489,14.704 12.485,15.336 12.227 C 16.381 11.801,17.191 10.826,17.425 9.710 C 17.498 9.362,17.506 8.717,17.441 8.364 C 17.207 7.086,16.243 6.027,14.953 5.632 C 14.664 5.544,14.626 5.542,11.960 5.530 L 9.260 5.517 9.047 5.624 M14.620 7.638 C 14.898 7.774,15.204 8.076,15.343 8.349 C 15.450 8.561,15.460 8.615,15.460 9.000 C 15.460 9.384,15.450 9.440,15.344 9.648 C 15.110 10.110,14.697 10.409,14.190 10.482 C 14.052 10.502,13.171 10.519,12.230 10.519 L 10.520 10.520 10.520 9.019 L 10.520 7.517 12.470 7.529 L 14.420 7.540 14.620 7.638 " stroke="none" fill-rule="evenodd" fill="black"></path></svg>