<svg width="24" height="24" viewBox="0 0 24 24" fill="none" xmlns="http://www.w3.org/2000/svg"><path d="M5.100 2.595 C 5.012 2.635,4.884 2.715,4.815 2.774 C 4.522 3.020,4.416 3.564,4.593 3.908 C 4.640 4.000,5.850 5.516,7.280 7.276 C 8.710 9.037,9.880 10.487,9.880 10.498 C 9.880 10.510,8.952 10.520,7.819 10.520 C 5.547 10.520,5.596 10.515,5.325 10.772 C 5.136 10.951,5.001 11.255,5.001 11.500 C 5.001 11.873,5.264 12.268,5.620 12.428 C 5.768 12.495,5.977 12.501,8.390 12.512 L 11.000 12.523 11.000 13.522 L 11.000 14.520 8.879 14.520 C 6.541 14.520,6.597 14.514,6.325 14.772 C 6.136 14.951,6.001 15.255,6.001 15.500 C 6.001 15.873,6.264 16.268,6.620 16.428 C 6.766 16.494,6.959 16.501,8.890 16.512 L 11.000 16.524 11.000 18.612 L 11.001 20.700 11.095 20.900 C 11.276 21.281,11.595 21.488,12.000 21.488 C 12.405 21.488,12.724 21.281,12.905 20.900 L 12.999 20.700 13.000 18.612 L 13.000 16.524 15.110 16.512 C 17.041 16.501,17.234 16.494,17.380 16.428 C 17.736 16.268,17.999 15.873,17.999 15.500 C 17.999 15.255,17.864 14.951,17.675 14.772 C 17.403 14.514,17.459 14.520,15.121 14.520 L 13.000 14.520 13.000 13.522 L 13.000 12.523 15.610 12.512 C 18.023 12.501,18.232 12.495,18.380 12.428 C 18.736 12.268,18.999 11.873,18.999 11.500 C 18.999 11.255,18.864 10.951,18.675 10.772 C 18.404 10.515,18.453 10.520,16.181 10.520 C 15.048 10.520,14.120 10.510,14.120 10.498 C 14.120 10.487,15.290 9.037,16.720 7.276 C 18.150 5.516,19.360 4.000,19.407 3.908 C 19.525 3.679,19.522 3.328,19.400 3.070 C 19.169 2.579,18.548 2.374,18.047 2.624 C 17.854 2.720,17.622 2.994,14.933 6.304 C 13.335 8.271,12.015 9.880,12.000 9.880 C 11.985 9.880,10.665 8.271,9.067 6.304 C 6.378 2.994,6.146 2.720,5.953 2.624 C 5.696 2.496,5.343 2.484,5.100 2.595 " stroke="none" fill-rule="evenodd" fill="black"></path></svg>