<svg width="24" height="24" viewBox="0 0 24 24" fill="none" xmlns="http://www.w3.org/2000/svg"><path d="M11.280 1.023 C 11.203 1.032,10.951 1.059,10.720 1.083 C 9.527 1.210,8.337 1.558,7.180 2.120 C 6.045 2.671,5.193 3.285,4.238 4.239 C 3.277 5.198,2.643 6.080,2.097 7.220 C 0.301 10.968,0.728 15.286,3.226 18.633 C 3.701 19.269,4.753 20.316,5.400 20.797 C 9.364 23.745,14.666 23.734,18.637 20.770 C 19.246 20.316,20.316 19.246,20.770 18.637 C 23.744 14.652,23.744 9.348,20.770 5.363 C 20.316 4.755,19.247 3.686,18.640 3.235 C 17.045 2.049,15.365 1.360,13.423 1.096 C 13.000 1.038,11.574 0.990,11.280 1.023 M13.320 3.101 C 15.883 3.488,18.124 4.931,19.560 7.120 C 19.863 7.583,20.303 8.479,20.492 9.020 C 20.838 10.013,20.977 10.865,20.977 12.000 C 20.977 13.493,20.720 14.621,20.080 15.940 C 19.375 17.394,18.311 18.607,16.927 19.532 C 16.138 20.060,14.876 20.588,13.908 20.797 C 11.266 21.366,8.479 20.708,6.370 19.019 C 4.857 17.807,3.722 16.029,3.267 14.160 C 3.081 13.397,3.023 12.888,3.023 12.000 C 3.023 10.507,3.280 9.379,3.920 8.060 C 4.971 5.891,6.877 4.221,9.160 3.466 C 9.865 3.233,10.432 3.118,11.340 3.024 C 11.662 2.991,12.911 3.039,13.320 3.101 M7.670 6.055 C 7.446 6.138,7.255 6.300,7.131 6.511 C 6.983 6.763,6.971 7.217,7.106 7.446 C 7.154 7.526,7.806 8.359,8.557 9.296 L 9.921 11.000 8.907 11.000 C 7.800 11.000,7.642 11.023,7.382 11.221 C 7.302 11.282,7.187 11.415,7.128 11.516 C 7.037 11.672,7.020 11.746,7.020 12.000 C 7.020 12.256,7.036 12.328,7.131 12.489 C 7.192 12.592,7.304 12.725,7.381 12.783 C 7.654 12.991,7.700 12.996,9.410 12.998 L 11.000 13.000 11.000 13.498 L 11.000 13.996 9.610 14.008 C 8.273 14.020,8.214 14.023,8.060 14.106 C 7.707 14.297,7.512 14.615,7.512 15.000 C 7.512 15.405,7.719 15.724,8.100 15.905 C 8.298 15.998,8.314 15.999,9.648 16.000 L 10.995 16.000 11.008 17.153 L 11.020 18.307 11.141 18.503 C 11.543 19.156,12.457 19.156,12.859 18.503 L 12.980 18.307 12.992 17.153 L 13.005 16.000 14.352 16.000 C 15.686 15.999,15.702 15.998,15.900 15.905 C 16.281 15.724,16.488 15.405,16.488 15.000 C 16.488 14.615,16.293 14.297,15.940 14.106 C 15.786 14.023,15.727 14.020,14.390 14.008 L 13.000 13.996 13.000 13.498 L 13.000 13.000 14.590 12.998 C 16.300 12.996,16.346 12.991,16.619 12.783 C 16.696 12.725,16.808 12.592,16.869 12.489 C 16.964 12.328,16.980 12.256,16.980 12.000 C 16.980 11.746,16.963 11.672,16.872 11.516 C 16.813 11.415,16.698 11.282,16.618 11.221 C 16.358 11.023,16.200 11.000,15.093 11.000 L 14.079 11.000 15.480 9.250 C 16.551 7.911,16.895 7.454,16.945 7.305 C 17.170 6.629,16.607 5.931,15.905 6.014 C 15.461 6.067,15.495 6.032,13.692 8.286 C 12.779 9.427,12.018 10.360,12.000 10.360 C 11.982 10.360,11.221 9.427,10.308 8.286 C 8.851 6.464,8.626 6.200,8.464 6.122 C 8.232 6.010,7.872 5.979,7.670 6.055 " stroke="none" fill-rule="evenodd" fill="black"></path></svg>