<svg width="24" height="24" viewBox="0 0 24 24" fill="none" xmlns="http://www.w3.org/2000/svg"><path d="M11.695 1.057 C 11.466 1.129,11.256 1.299,11.128 1.516 C 11.025 1.692,11.019 1.728,11.007 2.350 L 10.993 3.000 10.415 3.000 C 8.951 3.000,8.058 3.257,7.068 3.963 C 6.067 4.677,5.364 5.771,5.093 7.040 C 4.992 7.511,4.992 8.489,5.093 8.960 C 5.523 10.967,6.994 12.452,9.000 12.901 C 9.206 12.947,9.566 12.975,10.150 12.989 L 11.000 13.009 11.000 16.009 L 11.000 19.009 10.210 18.990 C 9.536 18.974,9.379 18.958,9.140 18.882 C 8.572 18.700,8.100 18.383,7.695 17.911 C 7.284 17.432,7.070 16.877,7.005 16.121 C 6.974 15.762,6.948 15.647,6.864 15.504 C 6.480 14.847,5.518 14.853,5.129 15.514 C 5.027 15.688,5.020 15.730,5.021 16.160 C 5.025 17.905,6.099 19.610,7.713 20.433 C 8.532 20.851,9.017 20.962,10.147 20.989 L 10.993 21.009 11.007 21.658 C 11.020 22.300,11.021 22.309,11.141 22.503 C 11.543 23.156,12.457 23.156,12.859 22.503 C 12.979 22.309,12.980 22.300,12.993 21.658 L 13.007 21.009 13.853 20.989 C 14.434 20.975,14.794 20.947,15.000 20.901 C 16.510 20.563,17.756 19.615,18.433 18.288 C 18.838 17.494,18.980 16.899,18.980 16.000 C 18.980 15.552,18.960 15.286,18.907 15.040 C 18.625 13.721,17.863 12.576,16.800 11.874 C 15.809 11.218,15.005 11.000,13.582 11.000 L 13.000 11.000 13.000 7.995 L 13.000 4.991 13.770 5.010 C 14.433 5.027,14.584 5.043,14.861 5.126 C 15.810 5.412,16.598 6.199,16.867 7.129 C 16.916 7.299,16.974 7.638,16.995 7.883 C 17.028 8.264,17.050 8.354,17.148 8.514 C 17.543 9.156,18.461 9.151,18.859 8.503 C 18.976 8.313,18.980 8.289,18.979 7.843 C 18.975 6.311,18.114 4.742,16.800 3.874 C 15.810 3.219,15.004 3.000,13.585 3.000 L 13.007 3.000 12.993 2.350 C 12.981 1.728,12.975 1.692,12.872 1.516 C 12.628 1.101,12.150 0.915,11.695 1.057 M11.000 8.005 L 11.000 11.009 10.210 10.990 C 9.536 10.974,9.379 10.958,9.140 10.882 C 8.172 10.572,7.415 9.813,7.125 8.861 C 7.042 8.588,7.027 8.458,7.027 8.000 C 7.027 7.542,7.042 7.412,7.125 7.139 C 7.456 6.054,8.390 5.229,9.499 5.043 C 9.609 5.025,9.992 5.007,10.350 5.005 L 11.000 5.000 11.000 8.005 M14.861 13.126 C 15.812 13.413,16.584 14.185,16.875 15.139 C 16.958 15.412,16.973 15.542,16.973 16.000 C 16.973 16.458,16.958 16.588,16.875 16.861 C 16.585 17.813,15.828 18.572,14.860 18.882 C 14.621 18.958,14.464 18.974,13.790 18.990 L 13.000 19.009 13.000 16.000 L 13.000 12.991 13.770 13.010 C 14.433 13.027,14.584 13.043,14.861 13.126 " stroke="none" fill-rule="evenodd" fill="black"></path></svg>