<svg width="24" height="24" viewBox="0 0 24 24" fill="none" xmlns="http://www.w3.org/2000/svg"><path d="M9.240 1.035 C 8.939 1.133,8.690 1.353,8.575 1.620 C 8.524 1.740,8.502 1.933,8.488 2.388 L 8.470 2.997 6.845 3.008 C 5.267 3.020,5.215 3.022,5.060 3.106 C 4.707 3.297,4.512 3.615,4.512 4.000 C 4.512 4.405,4.719 4.724,5.100 4.905 C 5.282 4.991,5.353 4.999,5.890 5.000 L 6.480 5.000 6.480 11.996 L 6.480 18.993 5.850 19.007 C 5.298 19.019,5.200 19.032,5.060 19.107 C 4.708 19.296,4.512 19.615,4.512 20.000 C 4.512 20.405,4.719 20.724,5.100 20.905 C 5.300 20.999,5.301 20.999,6.885 21.000 L 8.470 21.000 8.488 21.610 C 8.508 22.286,8.550 22.440,8.772 22.675 C 8.951 22.864,9.255 22.999,9.500 22.999 C 9.745 22.999,10.049 22.864,10.228 22.675 C 10.450 22.440,10.492 22.286,10.512 21.610 L 10.530 21.000 11.500 21.000 L 12.470 21.000 12.488 21.610 C 12.508 22.286,12.550 22.440,12.772 22.675 C 12.951 22.864,13.255 22.999,13.500 22.999 C 13.745 22.999,14.049 22.864,14.228 22.675 C 14.450 22.441,14.492 22.286,14.511 21.615 L 14.529 21.011 15.115 20.988 C 15.982 20.954,16.550 20.809,17.286 20.433 C 18.630 19.748,19.580 18.489,19.907 16.960 C 20.008 16.489,20.008 15.511,19.907 15.040 C 19.624 13.715,18.867 12.582,17.787 11.863 L 17.434 11.629 17.633 11.424 C 18.239 10.802,18.706 9.899,18.907 8.960 C 18.960 8.714,18.980 8.448,18.980 8.000 C 18.980 7.101,18.838 6.506,18.433 5.713 C 17.714 4.304,16.255 3.257,14.735 3.060 L 14.529 3.034 14.512 2.407 C 14.492 1.712,14.452 1.560,14.228 1.326 C 14.015 1.104,13.819 1.022,13.500 1.022 C 13.181 1.022,12.985 1.104,12.772 1.326 C 12.550 1.558,12.508 1.714,12.488 2.390 L 12.470 3.000 11.500 3.000 L 10.530 3.000 10.512 2.390 C 10.492 1.714,10.450 1.558,10.228 1.326 C 10.158 1.253,10.029 1.157,9.943 1.112 C 9.771 1.024,9.399 0.983,9.240 1.035 M14.861 5.122 C 15.823 5.424,16.585 6.187,16.875 7.139 C 16.958 7.412,16.973 7.542,16.973 8.000 C 16.973 8.458,16.958 8.588,16.875 8.861 C 16.585 9.811,15.842 10.558,14.860 10.886 L 14.580 10.979 11.550 10.991 L 8.520 11.003 8.520 8.000 L 8.520 4.997 11.530 5.009 L 14.540 5.021 14.861 5.122 M15.861 13.122 C 16.824 13.425,17.585 14.187,17.875 15.139 C 17.958 15.412,17.973 15.542,17.973 16.000 C 17.973 16.458,17.958 16.588,17.875 16.861 C 17.585 17.811,16.843 18.557,15.860 18.886 L 15.580 18.980 12.050 18.991 L 8.520 19.003 8.520 16.000 L 8.520 12.997 12.030 13.009 L 15.540 13.021 15.861 13.122 " stroke="none" fill-rule="evenodd" fill="black"></path></svg>