<svg width="24" height="24" viewBox="0 0 24 24" fill="none" xmlns="http://www.w3.org/2000/svg"><path d="M11.280 1.023 C 11.203 1.032,10.951 1.059,10.720 1.083 C 9.527 1.210,8.337 1.558,7.180 2.120 C 6.045 2.671,5.193 3.285,4.238 4.239 C 3.277 5.198,2.643 6.080,2.097 7.220 C 0.301 10.968,0.728 15.286,3.226 18.633 C 3.701 19.269,4.753 20.316,5.400 20.797 C 9.364 23.745,14.666 23.734,18.637 20.770 C 19.246 20.316,20.316 19.246,20.770 18.637 C 23.744 14.652,23.744 9.348,20.770 5.363 C 20.316 4.755,19.247 3.686,18.640 3.235 C 17.045 2.049,15.365 1.360,13.423 1.096 C 13.000 1.038,11.574 0.990,11.280 1.023 M13.320 3.101 C 15.883 3.488,18.124 4.931,19.560 7.120 C 19.863 7.583,20.303 8.479,20.492 9.020 C 20.838 10.013,20.977 10.865,20.977 12.000 C 20.977 13.493,20.720 14.621,20.080 15.940 C 19.375 17.394,18.311 18.607,16.927 19.532 C 16.138 20.060,14.876 20.588,13.908 20.797 C 11.266 21.366,8.479 20.708,6.370 19.019 C 4.857 17.807,3.722 16.029,3.267 14.160 C 3.081 13.397,3.023 12.888,3.023 12.000 C 3.023 10.507,3.280 9.379,3.920 8.060 C 4.971 5.891,6.877 4.221,9.160 3.466 C 9.865 3.233,10.432 3.118,11.340 3.024 C 11.662 2.991,12.911 3.039,13.320 3.101 M11.714 4.037 C 11.655 4.056,11.550 4.105,11.479 4.146 C 11.380 4.203,8.180 7.941,5.884 10.680 C 5.575 11.049,5.510 11.193,5.511 11.500 C 5.513 11.916,5.696 12.206,6.075 12.397 C 6.428 12.574,11.522 14.884,11.695 14.945 C 11.780 14.975,11.918 15.000,12.000 15.000 C 12.082 15.000,12.220 14.975,12.305 14.945 C 12.479 14.884,17.573 12.574,17.927 12.396 C 18.409 12.154,18.622 11.592,18.411 11.117 C 18.361 11.003,17.278 9.690,15.487 7.572 C 12.372 3.888,12.527 4.049,12.049 4.017 C 11.923 4.009,11.772 4.018,11.714 4.037 M13.954 8.857 C 15.013 10.110,15.874 11.138,15.869 11.143 C 15.827 11.179,12.040 12.880,12.000 12.880 C 11.972 12.880,11.089 12.489,10.037 12.012 L 8.125 11.143 8.193 11.054 C 8.393 10.786,11.984 6.565,12.005 6.572 C 12.019 6.576,12.896 7.605,13.954 8.857 M6.122 14.581 C 5.873 14.693,5.713 14.846,5.609 15.072 C 5.375 15.585,5.570 16.143,6.073 16.396 C 6.427 16.574,11.521 18.884,11.695 18.945 C 11.892 19.015,12.108 19.015,12.305 18.945 C 12.479 18.884,17.573 16.574,17.927 16.396 C 18.432 16.142,18.626 15.585,18.389 15.069 C 18.217 14.692,17.869 14.497,17.426 14.528 C 17.206 14.544,16.911 14.668,14.616 15.713 C 13.206 16.355,12.028 16.880,12.000 16.880 C 11.972 16.880,10.794 16.355,9.384 15.712 C 6.901 14.581,6.811 14.544,6.540 14.532 C 6.349 14.523,6.216 14.539,6.122 14.581 " stroke="none" fill-rule="evenodd" fill="black"></path></svg>