<svg width="24" height="24" viewBox="0 0 24 24" fill="none" xmlns="http://www.w3.org/2000/svg"><path d="M11.280 1.023 C 11.203 1.032,10.951 1.059,10.720 1.083 C 9.527 1.210,8.337 1.558,7.180 2.120 C 6.045 2.671,5.193 3.285,4.238 4.239 C 3.277 5.198,2.643 6.080,2.097 7.220 C 0.301 10.968,0.728 15.286,3.226 18.633 C 3.701 19.269,4.753 20.316,5.400 20.797 C 9.364 23.745,14.666 23.734,18.637 20.770 C 19.246 20.316,20.316 19.246,20.770 18.637 C 23.744 14.652,23.744 9.348,20.770 5.363 C 20.316 4.755,19.247 3.686,18.640 3.235 C 17.045 2.049,15.365 1.360,13.423 1.096 C 13.000 1.038,11.574 0.990,11.280 1.023 M13.320 3.101 C 15.883 3.488,18.124 4.931,19.560 7.120 C 19.863 7.583,20.303 8.479,20.492 9.020 C 20.838 10.013,20.977 10.865,20.977 12.000 C 20.977 13.493,20.720 14.621,20.080 15.940 C 19.375 17.394,18.311 18.607,16.927 19.532 C 16.138 20.060,14.876 20.588,13.908 20.797 C 11.266 21.366,8.479 20.708,6.370 19.019 C 4.857 17.807,3.722 16.029,3.267 14.160 C 3.081 13.397,3.023 12.888,3.023 12.000 C 3.023 10.507,3.280 9.379,3.920 8.060 C 4.971 5.891,6.877 4.221,9.160 3.466 C 9.865 3.233,10.432 3.118,11.340 3.024 C 11.662 2.991,12.911 3.039,13.320 3.101 M9.695 5.057 C 9.466 5.129,9.256 5.299,9.129 5.516 C 9.035 5.675,9.019 5.752,9.006 6.109 L 8.991 6.520 8.374 6.520 C 7.908 6.520,7.721 6.535,7.609 6.582 C 7.270 6.723,7.001 7.130,7.001 7.500 C 7.001 7.873,7.270 8.277,7.616 8.421 C 7.702 8.457,7.931 8.496,8.126 8.509 L 8.480 8.532 8.480 12.026 L 8.480 15.520 8.119 15.520 C 7.572 15.520,7.296 15.677,7.095 16.100 C 6.918 16.475,7.011 16.930,7.325 17.228 C 7.559 17.450,7.714 17.492,8.386 17.511 L 8.991 17.529 9.007 17.920 C 9.021 18.269,9.035 18.331,9.142 18.505 C 9.542 19.155,10.458 19.155,10.858 18.505 C 10.965 18.330,10.979 18.269,10.993 17.915 L 11.009 17.520 11.500 17.520 L 11.991 17.520 12.007 17.915 C 12.021 18.269,12.035 18.330,12.142 18.505 C 12.542 19.155,13.458 19.155,13.858 18.505 C 13.965 18.331,13.979 18.269,13.993 17.921 L 14.009 17.533 14.479 17.487 C 14.738 17.461,15.074 17.403,15.225 17.357 C 16.191 17.063,17.073 16.179,17.357 15.220 C 17.692 14.086,17.411 12.873,16.621 12.046 L 16.329 11.740 16.427 11.600 C 16.600 11.354,16.797 10.933,16.889 10.612 C 16.962 10.355,16.978 10.201,16.977 9.740 C 16.977 9.162,16.955 9.032,16.775 8.552 C 16.522 7.878,15.874 7.177,15.180 6.829 C 14.920 6.699,14.515 6.575,14.233 6.540 L 14.009 6.512 13.994 6.105 C 13.981 5.751,13.965 5.675,13.870 5.513 C 13.480 4.848,12.520 4.848,12.130 5.513 C 12.035 5.676,12.019 5.751,12.006 6.109 L 11.991 6.520 11.500 6.520 L 11.009 6.520 10.994 6.109 C 10.981 5.752,10.965 5.675,10.871 5.516 C 10.628 5.101,10.150 4.915,9.695 5.057 M14.302 8.627 C 14.524 8.746,14.761 8.992,14.880 9.225 C 15.027 9.517,15.022 9.974,14.868 10.289 C 14.730 10.569,14.465 10.810,14.174 10.919 C 13.968 10.996,13.868 11.000,12.238 11.000 L 10.520 11.000 10.520 9.758 L 10.520 8.517 12.330 8.528 C 14.099 8.540,14.144 8.542,14.302 8.627 M14.775 13.119 C 15.219 13.346,15.445 13.691,15.472 14.184 C 15.488 14.475,15.478 14.535,15.378 14.756 C 15.247 15.050,14.970 15.318,14.690 15.425 C 14.518 15.490,14.309 15.498,12.510 15.511 L 10.520 15.525 10.520 14.261 L 10.520 12.997 12.550 13.008 L 14.580 13.020 14.775 13.119 " stroke="none" fill-rule="evenodd" fill="black"></path></svg>