<svg width="24" height="24" viewBox="0 0 24 24" fill="none" xmlns="http://www.w3.org/2000/svg"><path d="M10.720 1.025 C 6.326 1.241,3.049 2.408,2.246 4.040 C 2.155 4.227,2.062 4.477,2.040 4.595 C 1.986 4.885,1.986 11.115,2.040 11.405 C 2.062 11.523,2.154 11.772,2.246 11.958 C 2.625 12.729,3.580 13.434,4.923 13.934 C 5.913 14.302,7.347 14.638,8.636 14.802 C 9.175 14.871,10.213 14.960,10.485 14.960 C 10.631 14.960,10.806 14.971,10.875 14.985 L 11.000 15.010 11.000 16.078 L 11.000 17.145 10.670 17.313 C 10.091 17.607,9.597 18.102,9.312 18.670 L 9.147 19.000 6.020 19.000 C 2.627 19.000,2.676 18.997,2.382 19.221 C 2.302 19.282,2.187 19.415,2.128 19.516 C 2.037 19.672,2.020 19.746,2.020 20.000 C 2.020 20.256,2.036 20.328,2.131 20.489 C 2.256 20.702,2.449 20.864,2.670 20.943 C 2.790 20.986,3.445 20.997,5.983 20.998 L 9.147 21.000 9.312 21.330 C 9.682 22.069,10.355 22.635,11.160 22.886 C 11.594 23.021,12.406 23.021,12.840 22.886 C 13.645 22.635,14.318 22.069,14.688 21.330 L 14.853 21.000 18.017 20.998 C 20.555 20.997,21.210 20.986,21.330 20.943 C 21.551 20.864,21.744 20.702,21.869 20.489 C 21.964 20.328,21.980 20.256,21.980 20.000 C 21.980 19.746,21.963 19.672,21.872 19.516 C 21.813 19.415,21.698 19.282,21.618 19.221 C 21.324 18.997,21.373 19.000,17.980 19.000 L 14.853 19.000 14.688 18.670 C 14.403 18.102,13.909 17.607,13.330 17.313 L 13.000 17.145 13.000 16.078 L 13.000 15.010 13.125 14.985 C 13.194 14.971,13.369 14.960,13.515 14.960 C 13.787 14.960,14.825 14.871,15.364 14.802 C 16.273 14.686,17.274 14.484,18.071 14.255 C 19.612 13.813,20.544 13.339,21.243 12.642 C 21.517 12.369,21.620 12.232,21.753 11.960 C 21.845 11.773,21.938 11.523,21.960 11.405 C 22.014 11.115,22.014 4.885,21.960 4.595 C 21.938 4.477,21.845 4.227,21.754 4.040 C 21.021 2.550,18.252 1.449,14.360 1.099 C 13.694 1.040,11.380 0.992,10.720 1.025 M13.400 3.041 C 15.774 3.175,17.643 3.569,18.985 4.221 C 19.391 4.418,19.565 4.529,19.755 4.709 C 19.890 4.837,20.000 4.964,20.000 4.991 C 20.000 5.063,19.730 5.350,19.535 5.483 C 18.579 6.141,16.663 6.664,14.320 6.907 C 13.381 7.004,10.619 7.004,9.680 6.907 C 7.374 6.668,5.533 6.174,4.540 5.529 C 4.292 5.369,4.000 5.077,4.000 4.991 C 4.000 4.964,4.110 4.837,4.245 4.709 C 4.822 4.160,6.409 3.585,8.120 3.305 C 9.746 3.038,11.661 2.943,13.400 3.041 M4.857 7.899 C 6.141 8.392,7.673 8.718,9.600 8.908 C 10.595 9.005,13.405 9.005,14.400 8.908 C 15.956 8.755,17.048 8.553,18.280 8.192 C 18.761 8.051,19.489 7.778,19.793 7.624 L 20.000 7.519 20.000 9.280 L 20.000 11.042 19.836 11.220 C 19.136 11.979,16.966 12.643,14.320 12.907 C 13.326 13.006,10.674 13.006,9.680 12.907 C 8.694 12.809,7.825 12.668,7.069 12.485 C 5.596 12.127,4.601 11.694,4.164 11.220 L 4.000 11.042 4.000 9.280 L 4.000 7.519 4.207 7.624 C 4.321 7.681,4.613 7.805,4.857 7.899 M12.310 19.061 C 12.688 19.173,13.000 19.598,13.000 20.001 C 13.000 20.331,12.784 20.696,12.484 20.872 C 12.328 20.963,12.254 20.980,12.000 20.980 C 11.746 20.980,11.672 20.963,11.516 20.872 C 10.935 20.530,10.833 19.774,11.304 19.303 C 11.583 19.024,11.916 18.944,12.310 19.061 " stroke="none" fill-rule="evenodd" fill="black"></path></svg>