<svg width="24" height="24" viewBox="0 0 24 24" fill="none" xmlns="http://www.w3.org/2000/svg"><path d="M4.665 1.044 C 3.413 1.176,2.448 1.998,2.111 3.220 C 2.027 3.523,2.023 3.617,2.023 5.000 C 2.023 6.386,2.027 6.476,2.112 6.780 C 2.409 7.849,3.146 8.586,4.222 8.889 C 4.537 8.977,4.570 8.978,7.770 8.991 L 11.000 9.004 11.000 10.497 L 11.000 11.991 8.870 12.011 C 6.605 12.032,6.251 12.058,5.680 12.246 C 4.355 12.681,3.392 13.778,3.124 15.160 C 3.057 15.502,3.000 16.216,3.000 16.703 L 3.000 17.145 2.670 17.313 C 1.922 17.693,1.365 18.355,1.114 19.160 C 0.979 19.594,0.979 20.406,1.114 20.840 C 1.421 21.826,2.174 22.579,3.160 22.886 C 3.412 22.964,3.547 22.979,4.000 22.979 C 4.453 22.979,4.588 22.964,4.840 22.886 C 5.826 22.579,6.579 21.826,6.886 20.840 C 7.021 20.406,7.021 19.594,6.886 19.160 C 6.635 18.353,6.078 17.693,5.325 17.310 L 4.989 17.140 5.017 16.460 C 5.047 15.712,5.109 15.333,5.248 15.048 C 5.366 14.806,5.806 14.366,6.048 14.248 C 6.461 14.047,6.630 14.033,8.890 14.011 L 11.000 13.991 11.000 15.568 L 11.000 17.145 10.670 17.313 C 9.922 17.693,9.365 18.355,9.114 19.160 C 8.979 19.594,8.979 20.406,9.114 20.840 C 9.421 21.826,10.174 22.579,11.160 22.886 C 11.594 23.021,12.406 23.021,12.840 22.886 C 13.826 22.579,14.579 21.826,14.886 20.840 C 15.021 20.406,15.021 19.594,14.886 19.160 C 14.635 18.355,14.078 17.693,13.330 17.313 L 13.000 17.145 13.000 15.568 L 13.000 13.991 15.110 14.011 C 17.370 14.033,17.539 14.047,17.952 14.248 C 18.194 14.366,18.634 14.806,18.752 15.048 C 18.891 15.333,18.953 15.712,18.983 16.460 L 19.011 17.140 18.675 17.310 C 17.922 17.693,17.365 18.353,17.114 19.160 C 16.979 19.594,16.979 20.406,17.114 20.840 C 17.421 21.826,18.174 22.579,19.160 22.886 C 19.594 23.021,20.406 23.021,20.840 22.886 C 21.826 22.579,22.579 21.826,22.886 20.840 C 23.021 20.406,23.021 19.594,22.886 19.160 C 22.635 18.355,22.078 17.693,21.330 17.313 L 21.000 17.145 21.000 16.703 C 21.000 15.916,20.914 15.208,20.755 14.680 C 20.424 13.581,19.464 12.621,18.320 12.246 C 17.749 12.058,17.395 12.032,15.130 12.011 L 13.000 11.991 13.000 10.497 L 13.000 9.004 16.230 8.991 C 19.430 8.978,19.463 8.977,19.778 8.889 C 20.852 8.587,21.588 7.850,21.890 6.772 C 21.972 6.477,21.977 6.380,21.977 5.000 C 21.977 3.613,21.973 3.524,21.888 3.222 C 21.648 2.364,21.132 1.724,20.375 1.345 C 20.015 1.165,19.743 1.090,19.280 1.041 C 18.815 0.993,5.127 0.995,4.665 1.044 M19.449 3.117 C 19.675 3.232,19.761 3.320,19.886 3.560 C 19.979 3.738,19.980 3.756,19.980 5.000 L 19.980 6.260 19.881 6.454 C 19.772 6.667,19.615 6.818,19.400 6.916 C 19.273 6.974,18.567 6.980,12.000 6.980 C 5.433 6.980,4.727 6.974,4.600 6.916 C 4.383 6.817,4.215 6.656,4.117 6.454 C 4.034 6.282,4.026 6.201,4.010 5.305 C 3.988 4.112,4.028 3.662,4.175 3.440 C 4.335 3.199,4.556 3.071,4.873 3.038 C 5.020 3.023,8.317 3.012,12.200 3.015 L 19.260 3.020 19.449 3.117 M4.310 19.061 C 4.688 19.173,5.000 19.598,5.000 20.001 C 5.000 20.331,4.784 20.696,4.484 20.872 C 4.328 20.963,4.254 20.980,4.000 20.980 C 3.746 20.980,3.672 20.963,3.516 20.872 C 2.935 20.530,2.833 19.774,3.304 19.303 C 3.583 19.024,3.916 18.944,4.310 19.061 M12.310 19.061 C 12.688 19.173,13.000 19.598,13.000 20.001 C 13.000 20.331,12.784 20.696,12.484 20.872 C 12.328 20.963,12.254 20.980,12.000 20.980 C 11.746 20.980,11.672 20.963,11.516 20.872 C 10.935 20.530,10.833 19.774,11.304 19.303 C 11.583 19.024,11.916 18.944,12.310 19.061 M20.310 19.061 C 20.688 19.173,21.000 19.598,21.000 20.001 C 21.000 20.331,20.784 20.696,20.484 20.872 C 20.328 20.963,20.254 20.980,20.000 20.980 C 19.746 20.980,19.672 20.963,19.516 20.872 C 18.935 20.530,18.833 19.774,19.304 19.303 C 19.583 19.024,19.916 18.944,20.310 19.061 " stroke="none" fill-rule="evenodd" fill="black"></path></svg>