<svg width="24" height="24" viewBox="0 0 24 24" fill="none" xmlns="http://www.w3.org/2000/svg"><path d="M18.499 1.040 C 17.552 1.212,16.740 1.816,16.315 2.664 L 16.152 2.989 15.446 3.016 C 14.053 3.071,13.446 3.229,12.700 3.733 C 12.032 4.184,11.468 4.938,11.245 5.680 C 11.037 6.370,11.000 6.892,11.000 9.130 L 11.000 11.000 9.427 11.000 L 7.853 11.000 7.688 10.670 C 7.321 9.938,6.642 9.363,5.861 9.125 C 5.588 9.042,5.458 9.027,5.000 9.027 C 4.542 9.027,4.412 9.042,4.139 9.125 C 3.178 9.418,2.419 10.181,2.114 11.160 C 1.979 11.594,1.979 12.406,2.114 12.840 C 2.421 13.826,3.174 14.579,4.160 14.886 C 4.412 14.964,4.547 14.979,5.000 14.979 C 5.453 14.979,5.588 14.964,5.840 14.886 C 6.645 14.635,7.318 14.069,7.688 13.330 L 7.853 13.000 9.427 13.000 L 11.000 13.000 11.000 14.870 C 11.000 17.108,11.037 17.630,11.245 18.320 C 11.577 19.422,12.578 20.423,13.680 20.755 C 14.208 20.914,14.916 21.000,15.703 21.000 L 16.147 21.000 16.312 21.330 C 16.682 22.069,17.355 22.635,18.160 22.886 C 18.594 23.021,19.406 23.021,19.840 22.886 C 20.826 22.579,21.579 21.826,21.886 20.840 C 22.021 20.406,22.021 19.594,21.886 19.160 C 21.581 18.181,20.822 17.418,19.861 17.125 C 19.588 17.042,19.458 17.027,19.000 17.027 C 18.542 17.027,18.412 17.042,18.139 17.125 C 17.356 17.364,16.679 17.938,16.309 18.676 L 16.141 19.011 15.461 18.988 C 14.681 18.961,14.390 18.915,14.080 18.769 C 13.812 18.644,13.376 18.216,13.248 17.952 C 13.047 17.539,13.033 17.370,13.011 15.110 L 12.991 13.000 14.569 13.000 L 16.147 13.000 16.312 13.330 C 16.682 14.069,17.355 14.635,18.160 14.886 C 18.594 15.021,19.406 15.021,19.840 14.886 C 20.826 14.579,21.579 13.826,21.886 12.840 C 21.964 12.588,21.979 12.453,21.979 12.000 C 21.979 11.547,21.964 11.412,21.886 11.160 C 21.581 10.181,20.822 9.418,19.861 9.125 C 19.588 9.042,19.458 9.027,19.000 9.027 C 18.542 9.027,18.412 9.042,18.139 9.125 C 17.358 9.363,16.679 9.938,16.312 10.670 L 16.147 11.000 14.569 11.000 L 12.991 11.000 13.011 8.890 C 13.033 6.630,13.047 6.461,13.248 6.048 C 13.366 5.806,13.806 5.366,14.048 5.248 C 14.333 5.109,14.712 5.047,15.461 5.017 L 16.141 4.989 16.309 5.325 C 16.682 6.069,17.353 6.635,18.160 6.886 C 18.594 7.021,19.406 7.021,19.840 6.886 C 20.826 6.579,21.579 5.826,21.886 4.840 C 22.021 4.406,22.021 3.594,21.886 3.160 C 21.581 2.179,20.810 1.407,19.861 1.129 C 19.500 1.023,18.832 0.980,18.499 1.040 M19.310 3.061 C 19.688 3.173,20.000 3.598,20.000 4.001 C 20.000 4.331,19.784 4.696,19.484 4.872 C 19.328 4.963,19.254 4.980,19.000 4.980 C 18.746 4.980,18.672 4.963,18.516 4.872 C 17.935 4.530,17.833 3.774,18.304 3.303 C 18.583 3.024,18.916 2.944,19.310 3.061 M5.310 11.061 C 5.688 11.173,6.000 11.598,6.000 12.001 C 6.000 12.331,5.784 12.696,5.484 12.872 C 5.328 12.963,5.254 12.980,5.000 12.980 C 4.746 12.980,4.672 12.963,4.516 12.872 C 3.935 12.530,3.833 11.774,4.304 11.303 C 4.583 11.024,4.916 10.944,5.310 11.061 M19.310 11.061 C 19.688 11.173,20.000 11.598,20.000 12.001 C 20.000 12.331,19.784 12.696,19.484 12.872 C 19.328 12.963,19.254 12.980,19.000 12.980 C 18.746 12.980,18.672 12.963,18.516 12.872 C 17.935 12.530,17.833 11.774,18.304 11.303 C 18.583 11.024,18.916 10.944,19.310 11.061 M19.310 19.061 C 19.688 19.173,20.000 19.598,20.000 20.001 C 20.000 20.331,19.784 20.696,19.484 20.872 C 19.328 20.963,19.254 20.980,19.000 20.980 C 18.746 20.980,18.672 20.963,18.516 20.872 C 17.935 20.530,17.833 19.774,18.304 19.303 C 18.583 19.024,18.916 18.944,19.310 19.061 " stroke="none" fill-rule="evenodd" fill="black"></path></svg>