<svg width="24" height="24" viewBox="0 0 24 24" fill="none" xmlns="http://www.w3.org/2000/svg"><path d="M2.202 1.044 C 1.745 1.133,1.350 1.445,1.144 1.880 L 1.020 2.140 1.020 4.000 L 1.020 5.860 1.144 6.120 C 1.212 6.263,1.347 6.459,1.444 6.556 C 1.541 6.653,1.737 6.788,1.880 6.856 L 2.140 6.980 4.000 6.980 L 5.860 6.980 6.120 6.856 C 6.450 6.699,6.699 6.450,6.856 6.120 L 6.980 5.860 6.980 4.000 L 6.980 2.140 6.856 1.880 C 6.643 1.433,6.251 1.132,5.765 1.041 C 5.502 0.991,2.456 0.994,2.202 1.044 M5.000 4.000 L 5.000 5.000 4.000 5.000 L 3.000 5.000 3.000 4.000 L 3.000 3.000 4.000 3.000 L 5.000 3.000 5.000 4.000 M10.202 5.044 C 9.745 5.133,9.350 5.445,9.144 5.880 L 9.020 6.140 9.020 8.000 L 9.020 9.860 9.144 10.120 C 9.212 10.263,9.347 10.459,9.444 10.556 C 9.541 10.653,9.737 10.788,9.880 10.856 L 10.140 10.980 12.000 10.980 L 13.860 10.980 14.120 10.856 C 14.263 10.788,14.459 10.653,14.556 10.556 C 14.653 10.459,14.788 10.263,14.856 10.120 L 14.980 9.860 14.980 8.000 L 14.980 6.140 14.856 5.880 C 14.643 5.433,14.251 5.132,13.765 5.041 C 13.502 4.991,10.456 4.994,10.202 5.044 M13.000 8.000 L 13.000 9.000 12.000 9.000 L 11.000 9.000 11.000 8.000 L 11.000 7.000 12.000 7.000 L 13.000 7.000 13.000 8.000 M18.202 9.044 C 17.745 9.133,17.350 9.445,17.144 9.880 L 17.020 10.140 17.007 11.570 L 16.995 13.000 15.723 13.000 C 15.023 13.000,14.354 13.018,14.235 13.041 C 13.744 13.133,13.357 13.431,13.144 13.880 L 13.020 14.140 13.007 15.570 L 12.995 17.000 11.723 17.000 C 11.023 17.000,10.354 17.018,10.235 17.041 C 9.744 17.133,9.357 17.431,9.144 17.880 L 9.020 18.140 9.020 20.000 L 9.020 21.860 9.144 22.120 C 9.301 22.450,9.550 22.699,9.880 22.856 L 10.140 22.980 16.000 22.980 L 21.860 22.980 22.120 22.856 C 22.450 22.699,22.699 22.450,22.856 22.120 L 22.980 21.860 22.980 16.000 L 22.980 10.140 22.856 9.880 C 22.643 9.433,22.251 9.132,21.765 9.041 C 21.502 8.991,18.456 8.994,18.202 9.044 M3.202 11.044 C 2.745 11.133,2.350 11.445,2.144 11.880 L 2.020 12.140 2.020 14.000 L 2.020 15.860 2.144 16.120 C 2.301 16.450,2.550 16.699,2.880 16.856 L 3.140 16.980 5.000 16.980 L 6.860 16.980 7.120 16.856 C 7.263 16.788,7.459 16.653,7.556 16.556 C 7.653 16.459,7.788 16.263,7.856 16.120 L 7.980 15.860 7.980 14.000 L 7.980 12.140 7.856 11.880 C 7.643 11.433,7.251 11.132,6.765 11.041 C 6.502 10.991,3.456 10.994,3.202 11.044 M21.000 16.000 L 21.000 21.000 16.000 21.000 L 11.000 21.000 11.000 20.003 L 11.000 19.005 12.430 18.993 L 13.860 18.980 14.120 18.856 C 14.450 18.699,14.699 18.450,14.856 18.120 L 14.980 17.860 14.993 16.433 L 15.005 15.005 16.433 14.993 L 17.860 14.980 18.120 14.856 C 18.450 14.699,18.699 14.450,18.856 14.120 L 18.980 13.860 18.993 12.430 L 19.005 11.000 20.003 11.000 L 21.000 11.000 21.000 16.000 M6.000 14.000 L 6.000 15.000 5.000 15.000 L 4.000 15.000 4.000 14.000 L 4.000 13.000 5.000 13.000 L 6.000 13.000 6.000 14.000 " stroke="none" fill-rule="evenodd" fill="black"></path></svg>