<svg width="24" height="24" viewBox="0 0 24 24" fill="none" xmlns="http://www.w3.org/2000/svg"><path d="M2.202 1.044 C 1.745 1.133,1.350 1.445,1.144 1.880 L 1.020 2.140 1.020 4.500 L 1.020 6.860 1.144 7.120 C 1.301 7.450,1.550 7.699,1.880 7.856 L 2.140 7.980 4.500 7.980 L 6.860 7.980 7.120 7.856 C 7.450 7.699,7.699 7.450,7.856 7.120 L 7.980 6.860 7.980 4.500 L 7.980 2.140 7.856 1.880 C 7.643 1.433,7.251 1.132,6.765 1.041 C 6.500 0.991,2.458 0.994,2.202 1.044 M6.000 4.500 L 6.000 6.000 4.500 6.000 L 3.000 6.000 3.000 4.500 L 3.000 3.000 4.500 3.000 L 6.000 3.000 6.000 4.500 M10.600 3.583 C 10.266 3.729,10.001 4.135,10.001 4.500 C 10.001 4.873,10.264 5.268,10.620 5.428 C 10.770 5.496,11.058 5.501,15.303 5.520 L 19.826 5.540 20.022 5.661 C 20.143 5.736,20.264 5.857,20.339 5.978 L 20.460 6.174 20.460 8.259 C 20.460 10.562,20.477 10.398,20.205 10.694 C 19.981 10.936,19.856 10.967,19.002 10.997 C 18.317 11.021,18.200 11.035,18.060 11.109 C 17.708 11.294,17.512 11.614,17.512 12.003 C 17.512 12.422,17.768 12.785,18.173 12.939 C 18.336 13.002,18.455 13.008,19.149 12.988 C 20.087 12.962,20.361 12.910,20.865 12.661 C 21.482 12.357,22.028 11.766,22.274 11.136 C 22.455 10.673,22.486 10.374,22.508 8.860 C 22.532 7.199,22.484 6.135,22.363 5.668 C 22.159 4.879,21.602 4.202,20.860 3.839 C 20.214 3.524,20.576 3.545,15.380 3.533 C 11.286 3.523,10.724 3.529,10.600 3.583 M9.618 8.557 C 9.235 8.651,8.830 8.985,8.658 9.348 C 8.493 9.696,8.474 10.027,8.488 12.221 C 8.501 14.206,8.503 14.266,8.589 14.494 C 8.751 14.927,9.073 15.249,9.506 15.411 C 9.734 15.497,9.794 15.499,11.780 15.512 C 14.409 15.530,14.603 15.502,15.053 15.053 C 15.288 14.817,15.419 14.546,15.476 14.172 C 15.535 13.784,15.535 10.216,15.476 9.828 C 15.393 9.287,15.113 8.891,14.648 8.656 L 14.420 8.540 12.080 8.533 C 10.793 8.530,9.685 8.540,9.618 8.557 M13.480 12.020 L 13.480 13.520 12.000 13.520 L 10.520 13.520 10.520 12.020 L 10.520 10.520 12.000 10.520 L 13.480 10.520 13.480 12.020 M4.141 11.043 C 3.072 11.161,2.137 11.856,1.743 12.825 C 1.515 13.386,1.500 13.566,1.502 15.700 C 1.503 17.384,1.513 17.713,1.573 18.037 C 1.696 18.707,1.929 19.160,2.385 19.615 C 2.839 20.070,3.291 20.302,3.963 20.428 C 4.309 20.493,4.705 20.499,8.760 20.499 C 13.630 20.500,13.353 20.514,13.652 20.245 C 14.096 19.844,14.107 19.182,13.675 18.772 C 13.394 18.505,13.658 18.520,9.211 18.519 C 4.779 18.517,4.259 18.500,3.991 18.353 C 3.744 18.217,3.573 17.944,3.540 17.630 C 3.526 17.493,3.520 16.543,3.527 15.520 C 3.540 13.689,3.541 13.658,3.627 13.520 C 3.675 13.443,3.765 13.331,3.827 13.272 C 4.036 13.072,4.190 13.037,4.954 13.015 C 5.752 12.992,5.920 12.952,6.173 12.724 C 6.574 12.362,6.600 11.715,6.228 11.326 C 5.966 11.053,5.855 11.021,5.120 11.014 C 4.757 11.010,4.316 11.023,4.141 11.043 M17.202 16.044 C 16.745 16.133,16.350 16.445,16.144 16.880 L 16.020 17.140 16.020 19.500 L 16.020 21.860 16.144 22.120 C 16.301 22.450,16.550 22.699,16.880 22.856 L 17.140 22.980 19.500 22.980 L 21.860 22.980 22.120 22.856 C 22.450 22.699,22.699 22.450,22.856 22.120 L 22.980 21.860 22.980 19.500 L 22.980 17.140 22.856 16.880 C 22.643 16.433,22.251 16.132,21.765 16.041 C 21.500 15.991,17.458 15.994,17.202 16.044 M21.000 19.500 L 21.000 21.000 19.500 21.000 L 18.000 21.000 18.000 19.500 L 18.000 18.000 19.500 18.000 L 21.000 18.000 21.000 19.500 " stroke="none" fill-rule="evenodd" fill="black"></path></svg>