<svg width="24" height="24" viewBox="0 0 24 24" fill="none" xmlns="http://www.w3.org/2000/svg"><path d="M10.720 1.025 C 6.326 1.241,3.049 2.408,2.246 4.040 C 2.155 4.227,2.062 4.477,2.040 4.595 C 1.985 4.890,1.985 19.110,2.040 19.405 C 2.062 19.523,2.154 19.772,2.246 19.958 C 2.378 20.226,2.483 20.368,2.756 20.642 C 3.447 21.335,4.386 21.812,5.929 22.255 C 7.062 22.580,8.210 22.779,9.820 22.927 C 10.570 22.997,13.430 22.997,14.180 22.927 C 15.790 22.779,16.938 22.580,18.071 22.255 C 19.612 21.813,20.544 21.339,21.243 20.642 C 21.517 20.369,21.620 20.232,21.753 19.960 C 21.845 19.773,21.938 19.523,21.960 19.405 C 22.015 19.110,22.015 4.890,21.960 4.595 C 21.938 4.477,21.845 4.227,21.754 4.040 C 21.021 2.550,18.252 1.449,14.360 1.099 C 13.694 1.040,11.380 0.992,10.720 1.025 M13.400 3.041 C 15.774 3.175,17.643 3.569,18.985 4.221 C 19.391 4.418,19.565 4.529,19.755 4.709 C 19.890 4.837,20.000 4.964,20.000 4.991 C 20.000 5.063,19.730 5.350,19.535 5.483 C 18.579 6.141,16.663 6.664,14.320 6.907 C 13.381 7.004,10.619 7.004,9.680 6.907 C 7.374 6.668,5.533 6.174,4.540 5.529 C 4.292 5.369,4.000 5.077,4.000 4.991 C 4.000 4.964,4.110 4.837,4.245 4.709 C 4.822 4.160,6.409 3.585,8.120 3.305 C 9.746 3.038,11.661 2.943,13.400 3.041 M4.857 7.899 C 6.141 8.392,7.673 8.718,9.600 8.908 C 10.595 9.005,13.405 9.005,14.400 8.908 C 15.956 8.755,17.048 8.553,18.280 8.192 C 18.761 8.051,19.489 7.778,19.793 7.624 L 20.000 7.519 20.000 9.780 L 20.000 12.042 19.836 12.220 C 19.136 12.979,16.966 13.643,14.320 13.907 C 13.326 14.006,10.674 14.006,9.680 13.907 C 8.694 13.809,7.825 13.668,7.069 13.485 C 5.596 13.127,4.601 12.694,4.164 12.220 L 4.000 12.042 4.000 9.780 L 4.000 7.519 4.207 7.624 C 4.321 7.681,4.613 7.805,4.857 7.899 M4.488 14.757 C 5.858 15.344,7.563 15.719,9.820 15.927 C 10.570 15.997,13.430 15.997,14.180 15.927 C 16.437 15.719,18.142 15.344,19.512 14.757 C 19.764 14.649,19.977 14.560,19.985 14.560 C 19.993 14.560,20.000 15.568,20.000 16.801 L 20.000 19.042 19.836 19.220 C 19.136 19.979,16.966 20.643,14.320 20.907 C 13.326 21.006,10.674 21.006,9.680 20.907 C 8.694 20.809,7.825 20.668,7.069 20.485 C 5.596 20.127,4.601 19.694,4.164 19.220 L 4.000 19.042 4.000 16.801 C 4.000 15.568,4.007 14.560,4.015 14.560 C 4.023 14.560,4.236 14.649,4.488 14.757 " stroke="none" fill-rule="evenodd" fill="black"></path></svg>