<svg width="24" height="24" viewBox="0 0 24 24" fill="none" xmlns="http://www.w3.org/2000/svg"><path d="M8.554 3.043 C 7.945 3.125,7.319 3.447,6.876 3.907 C 6.533 4.264,1.608 10.834,1.469 11.120 C 1.335 11.396,1.240 11.762,1.240 12.000 C 1.240 12.238,1.335 12.604,1.469 12.880 C 1.600 13.151,6.519 19.721,6.857 20.076 C 7.290 20.532,7.844 20.828,8.480 20.943 C 8.722 20.987,9.744 20.997,13.760 20.999 C 19.303 21.000,19.535 20.991,20.320 20.755 C 21.422 20.423,22.423 19.422,22.755 18.320 C 22.990 17.540,23.000 17.284,23.000 12.000 C 23.000 6.716,22.990 6.460,22.755 5.680 C 22.424 4.581,21.465 3.622,20.320 3.246 C 19.653 3.027,19.727 3.030,14.060 3.018 C 11.166 3.012,8.701 3.024,8.554 3.043 M19.492 5.091 C 19.893 5.188,20.109 5.309,20.400 5.600 C 20.696 5.895,20.814 6.109,20.912 6.528 C 20.974 6.795,20.980 7.256,20.980 12.000 C 20.980 16.744,20.974 17.205,20.912 17.472 C 20.814 17.891,20.696 18.104,20.400 18.401 C 20.120 18.681,19.839 18.841,19.480 18.923 C 19.311 18.962,18.056 18.977,14.086 18.988 C 8.314 19.005,8.621 19.018,8.338 18.735 C 8.167 18.564,3.280 12.057,3.280 12.000 C 3.280 11.963,7.378 6.475,8.043 5.620 C 8.375 5.194,8.498 5.097,8.770 5.041 C 8.863 5.022,11.253 5.011,14.080 5.016 C 18.685 5.025,19.248 5.033,19.492 5.091 M10.670 8.061 C 10.448 8.142,10.250 8.309,10.128 8.516 C 10.036 8.672,10.020 8.745,10.021 9.000 C 10.021 9.213,10.043 9.341,10.095 9.440 C 10.136 9.517,10.711 10.125,11.374 10.790 L 12.578 12.000 11.374 13.210 C 10.711 13.876,10.138 14.481,10.101 14.555 C 9.872 15.009,10.056 15.601,10.508 15.867 C 10.673 15.964,10.742 15.980,11.000 15.979 C 11.213 15.979,11.341 15.957,11.440 15.905 C 11.517 15.864,12.125 15.289,12.790 14.626 L 14.000 13.422 15.210 14.626 C 15.876 15.289,16.481 15.862,16.555 15.899 C 17.009 16.128,17.601 15.944,17.867 15.492 C 17.964 15.327,17.980 15.258,17.979 15.000 C 17.979 14.787,17.957 14.659,17.905 14.560 C 17.864 14.483,17.289 13.876,16.626 13.210 L 15.422 12.000 16.626 10.790 C 17.289 10.125,17.864 9.517,17.905 9.440 C 17.957 9.341,17.979 9.213,17.979 9.000 C 17.980 8.745,17.964 8.672,17.872 8.516 C 17.618 8.084,17.137 7.905,16.657 8.066 C 16.484 8.124,16.312 8.279,15.230 9.354 L 14.000 10.576 12.770 9.354 C 11.688 8.279,11.516 8.124,11.343 8.066 C 11.108 7.987,10.875 7.985,10.670 8.061 " stroke="none" fill-rule="evenodd" fill="black"></path></svg>