<svg width="24" height="24" viewBox="0 0 24 24" fill="none" xmlns="http://www.w3.org/2000/svg"><path d="M5.920 2.041 C 5.151 2.092,4.672 2.205,4.180 2.451 C 3.089 2.996,2.357 3.961,2.124 5.160 C 2.013 5.729,2.000 6.455,2.000 12.000 C 2.000 18.358,2.006 18.526,2.245 19.320 C 2.577 20.422,3.578 21.423,4.680 21.755 C 5.474 21.994,5.642 22.000,12.000 22.000 C 18.358 22.000,18.526 21.994,19.320 21.755 C 20.422 21.423,21.423 20.422,21.755 19.320 C 21.994 18.526,22.000 18.358,22.000 12.000 C 22.000 5.642,21.994 5.474,21.755 4.680 C 21.424 3.581,20.465 2.622,19.320 2.246 C 18.644 2.024,18.800 2.029,12.340 2.019 C 9.062 2.014,6.173 2.024,5.920 2.041 M18.492 4.091 C 18.894 4.188,19.109 4.309,19.400 4.600 C 19.696 4.895,19.814 5.109,19.912 5.528 C 19.975 5.797,19.980 6.313,19.980 12.000 C 19.980 17.687,19.975 18.203,19.912 18.472 C 19.814 18.891,19.696 19.104,19.400 19.401 C 19.101 19.701,18.820 19.851,18.418 19.928 C 18.010 20.005,5.990 20.005,5.582 19.927 C 5.170 19.850,4.898 19.704,4.600 19.403 C 4.303 19.104,4.186 18.890,4.088 18.472 C 4.025 18.203,4.020 17.687,4.020 12.000 C 4.020 6.313,4.025 5.797,4.088 5.528 C 4.175 5.155,4.294 4.918,4.520 4.667 C 4.883 4.262,5.282 4.091,5.980 4.039 C 6.200 4.023,9.044 4.013,12.300 4.018 C 17.643 4.024,18.247 4.032,18.492 4.091 M14.880 7.557 C 14.693 7.614,14.536 7.714,14.370 7.879 C 13.876 8.373,13.879 9.125,14.377 9.623 C 14.876 10.121,15.627 10.124,16.121 9.630 C 16.323 9.428,16.422 9.242,16.471 8.970 C 16.573 8.411,16.297 7.879,15.780 7.634 C 15.584 7.541,15.489 7.521,15.260 7.523 C 15.106 7.525,14.935 7.541,14.880 7.557 M8.430 14.041 C 8.244 14.088,7.984 14.250,7.831 14.415 C 7.374 14.906,7.408 15.702,7.904 16.160 C 8.199 16.431,8.579 16.542,8.970 16.471 C 9.242 16.422,9.428 16.323,9.630 16.121 C 10.227 15.524,10.062 14.511,9.307 14.141 C 9.070 14.026,8.672 13.980,8.430 14.041 " stroke="none" fill-rule="evenodd" fill="black"></path></svg>