<svg width="24" height="24" viewBox="0 0 24 24" fill="none" xmlns="http://www.w3.org/2000/svg"><path d="M5.920 2.041 C 5.151 2.092,4.672 2.205,4.180 2.451 C 3.089 2.996,2.357 3.961,2.124 5.160 C 2.013 5.729,2.000 6.455,2.000 12.000 C 2.000 18.358,2.006 18.526,2.245 19.320 C 2.577 20.422,3.578 21.423,4.680 21.755 C 5.474 21.994,5.642 22.000,12.000 22.000 C 18.358 22.000,18.526 21.994,19.320 21.755 C 20.422 21.423,21.423 20.422,21.755 19.320 C 21.994 18.526,22.000 18.358,22.000 12.000 C 22.000 5.642,21.994 5.474,21.755 4.680 C 21.424 3.581,20.465 2.622,19.320 2.246 C 18.644 2.024,18.800 2.029,12.340 2.019 C 9.062 2.014,6.173 2.024,5.920 2.041 M18.492 4.091 C 18.894 4.188,19.109 4.309,19.400 4.600 C 19.696 4.895,19.814 5.109,19.912 5.528 C 19.975 5.797,19.980 6.313,19.980 12.000 C 19.980 17.687,19.975 18.203,19.912 18.472 C 19.814 18.891,19.696 19.104,19.400 19.401 C 19.101 19.701,18.820 19.851,18.418 19.928 C 18.010 20.005,5.990 20.005,5.582 19.927 C 5.170 19.850,4.898 19.704,4.600 19.403 C 4.303 19.104,4.186 18.890,4.088 18.472 C 4.025 18.203,4.020 17.687,4.020 12.000 C 4.020 6.313,4.025 5.797,4.088 5.528 C 4.175 5.155,4.294 4.918,4.520 4.667 C 4.883 4.262,5.282 4.091,5.980 4.039 C 6.200 4.023,9.044 4.013,12.300 4.018 C 17.643 4.024,18.247 4.032,18.492 4.091 M7.220 6.631 C 6.701 6.882,6.428 7.412,6.529 7.970 C 6.578 8.242,6.677 8.428,6.879 8.630 C 7.373 9.124,8.124 9.121,8.623 8.623 C 9.121 8.124,9.124 7.373,8.630 6.879 C 8.374 6.624,8.194 6.548,7.800 6.530 C 7.490 6.517,7.439 6.525,7.220 6.631 M15.880 6.557 C 15.693 6.614,15.536 6.714,15.370 6.879 C 14.876 7.373,14.879 8.125,15.377 8.623 C 15.876 9.121,16.627 9.124,17.121 8.630 C 17.323 8.428,17.422 8.242,17.471 7.970 C 17.573 7.411,17.297 6.879,16.780 6.634 C 16.584 6.541,16.489 6.521,16.260 6.523 C 16.106 6.525,15.935 6.541,15.880 6.557 M7.430 15.041 C 7.244 15.088,6.984 15.250,6.831 15.415 C 6.374 15.906,6.408 16.702,6.904 17.160 C 7.199 17.431,7.579 17.542,7.970 17.471 C 8.242 17.422,8.428 17.323,8.630 17.121 C 9.227 16.524,9.062 15.511,8.307 15.141 C 8.070 15.026,7.672 14.980,7.430 15.041 M15.918 15.052 C 15.000 15.312,14.699 16.449,15.370 17.121 C 15.572 17.323,15.758 17.422,16.030 17.471 C 16.421 17.542,16.801 17.431,17.096 17.160 C 17.496 16.791,17.608 16.165,17.360 15.680 C 17.259 15.481,17.005 15.237,16.788 15.128 C 16.563 15.016,16.167 14.981,15.918 15.052 " stroke="none" fill-rule="evenodd" fill="black"></path></svg>