<svg width="24" height="24" viewBox="0 0 24 24" fill="none" xmlns="http://www.w3.org/2000/svg"><path d="M11.280 1.023 C 11.203 1.032,10.951 1.059,10.720 1.083 C 9.527 1.210,8.337 1.558,7.180 2.120 C 6.045 2.671,5.193 3.285,4.238 4.239 C 3.277 5.198,2.643 6.080,2.097 7.220 C 0.301 10.968,0.728 15.286,3.226 18.633 C 3.701 19.269,4.753 20.316,5.400 20.797 C 9.364 23.745,14.666 23.734,18.637 20.770 C 19.246 20.316,20.316 19.246,20.770 18.637 C 23.744 14.652,23.744 9.348,20.770 5.363 C 20.316 4.755,19.247 3.686,18.640 3.235 C 17.045 2.049,15.365 1.360,13.423 1.096 C 13.000 1.038,11.574 0.990,11.280 1.023 M13.320 3.101 C 15.883 3.488,18.124 4.931,19.560 7.120 C 19.863 7.583,20.303 8.479,20.492 9.020 C 20.838 10.013,20.977 10.865,20.977 12.000 C 20.977 13.493,20.720 14.621,20.080 15.940 C 19.375 17.394,18.311 18.607,16.927 19.532 C 16.138 20.060,14.876 20.588,13.908 20.797 C 11.266 21.366,8.479 20.708,6.370 19.019 C 4.857 17.807,3.722 16.029,3.267 14.160 C 3.081 13.397,3.023 12.888,3.023 12.000 C 3.023 10.507,3.280 9.379,3.920 8.060 C 4.971 5.891,6.877 4.221,9.160 3.466 C 9.865 3.233,10.432 3.118,11.340 3.024 C 11.662 2.991,12.911 3.039,13.320 3.101 M14.665 4.739 C 14.003 4.975,13.790 5.852,14.274 6.348 C 14.356 6.431,14.602 6.596,14.821 6.714 C 15.909 7.296,16.739 8.137,17.316 9.242 C 17.738 10.049,17.923 10.745,17.994 11.791 C 18.027 12.275,18.041 12.340,18.146 12.511 C 18.541 13.153,19.460 13.152,19.856 12.508 C 20.002 12.271,20.033 11.903,19.963 11.232 C 19.865 10.280,19.631 9.435,19.243 8.620 C 18.451 6.959,17.210 5.675,15.626 4.878 C 15.195 4.661,14.973 4.629,14.665 4.739 M11.358 8.061 C 10.230 8.237,9.143 8.974,8.569 9.953 C 7.320 12.083,8.233 14.785,10.512 15.704 C 12.558 16.528,14.877 15.538,15.704 13.488 C 16.090 12.530,16.090 11.469,15.705 10.516 C 15.172 9.197,14.001 8.269,12.605 8.058 C 12.144 7.989,11.816 7.990,11.358 8.061 M12.523 10.073 C 13.262 10.266,13.850 10.924,13.967 11.690 C 14.067 12.343,13.873 12.933,13.403 13.404 C 13.002 13.807,12.547 14.000,12.000 14.000 C 11.485 14.000,11.038 13.822,10.653 13.465 C 9.323 12.229,10.189 10.005,12.000 10.005 C 12.143 10.005,12.378 10.036,12.523 10.073 M4.695 11.057 C 4.467 11.128,4.256 11.299,4.131 11.513 C 4.000 11.735,3.970 12.131,4.035 12.771 C 4.192 14.321,4.813 15.832,5.791 17.044 C 6.308 17.684,7.232 18.485,7.878 18.853 C 8.380 19.138,8.986 18.976,9.254 18.484 C 9.446 18.131,9.432 17.768,9.213 17.437 C 9.153 17.346,8.958 17.181,8.726 17.026 C 7.787 16.395,7.122 15.643,6.621 14.643 C 6.256 13.915,6.069 13.170,6.004 12.192 C 5.975 11.754,5.956 11.660,5.867 11.508 C 5.628 11.101,5.147 10.916,4.695 11.057 " stroke="none" fill-rule="evenodd" fill="black"></path></svg>