<svg width="24" height="24" viewBox="0 0 24 24" fill="none" xmlns="http://www.w3.org/2000/svg"><path d="M2.695 2.057 C 2.466 2.129,2.256 2.299,2.128 2.516 L 2.020 2.700 2.020 12.003 L 2.020 21.306 2.141 21.503 C 2.543 22.156,3.457 22.156,3.859 21.503 L 3.980 21.306 3.980 12.003 L 3.980 2.700 3.872 2.516 C 3.628 2.101,3.150 1.915,2.695 2.057 M20.695 2.057 C 20.466 2.129,20.256 2.299,20.128 2.516 L 20.020 2.700 20.020 12.003 L 20.020 21.306 20.141 21.503 C 20.543 22.156,21.457 22.156,21.859 21.503 L 21.980 21.306 21.980 12.003 L 21.980 2.700 21.872 2.516 C 21.628 2.101,21.150 1.915,20.695 2.057 M10.665 4.044 C 9.403 4.177,8.433 5.010,8.110 6.240 L 8.020 6.580 8.020 12.000 L 8.020 17.420 8.110 17.760 C 8.395 18.834,9.146 19.592,10.220 19.889 C 10.523 19.973,10.617 19.977,12.000 19.977 C 13.380 19.977,13.477 19.972,13.772 19.890 C 14.860 19.585,15.602 18.837,15.890 17.756 L 15.980 17.420 15.980 12.000 L 15.980 6.580 15.890 6.244 C 15.660 5.378,15.141 4.729,14.375 4.345 C 14.015 4.165,13.743 4.090,13.280 4.041 C 12.833 3.994,11.117 3.996,10.665 4.044 M13.451 6.120 C 13.674 6.231,13.761 6.319,13.886 6.560 L 13.980 6.740 13.980 12.000 L 13.980 17.260 13.881 17.454 C 13.772 17.667,13.615 17.818,13.400 17.916 C 13.281 17.970,13.069 17.980,12.000 17.980 C 10.762 17.980,10.737 17.978,10.551 17.887 C 10.344 17.785,10.183 17.617,10.084 17.400 C 10.027 17.275,10.019 16.743,10.008 12.294 C 10.002 9.490,10.013 7.169,10.033 6.964 C 10.076 6.542,10.175 6.351,10.443 6.173 C 10.664 6.027,10.920 6.004,12.201 6.016 C 13.225 6.025,13.269 6.029,13.451 6.120 " stroke="none" fill-rule="evenodd" fill="black"></path></svg>