<svg width="24" height="24" viewBox="0 0 24 24" fill="none" xmlns="http://www.w3.org/2000/svg"><path d="M2.695 2.057 C 2.466 2.129,2.256 2.299,2.128 2.516 C 2.037 2.672,2.020 2.746,2.020 3.000 C 2.020 3.256,2.036 3.328,2.131 3.489 C 2.256 3.702,2.449 3.864,2.670 3.943 C 2.893 4.023,21.107 4.023,21.330 3.943 C 21.551 3.864,21.744 3.702,21.869 3.489 C 21.964 3.328,21.980 3.256,21.980 3.000 C 21.980 2.746,21.963 2.672,21.872 2.516 C 21.740 2.293,21.533 2.128,21.290 2.055 C 21.027 1.976,2.947 1.978,2.695 2.057 M6.665 8.044 C 5.413 8.176,4.448 8.998,4.111 10.220 C 4.027 10.523,4.023 10.617,4.023 12.000 C 4.023 13.383,4.027 13.477,4.111 13.780 C 4.408 14.854,5.166 15.605,6.240 15.890 L 6.580 15.980 12.000 15.980 L 17.420 15.980 17.751 15.892 C 18.835 15.602,19.585 14.861,19.888 13.778 C 19.973 13.476,19.977 13.387,19.977 12.000 C 19.977 10.613,19.973 10.524,19.888 10.222 C 19.647 9.359,19.135 8.726,18.371 8.343 C 18.015 8.165,17.742 8.089,17.280 8.041 C 16.818 7.993,7.126 7.995,6.665 8.044 M17.440 10.114 C 17.680 10.239,17.768 10.325,17.883 10.551 C 17.980 10.739,17.980 10.746,17.980 12.000 L 17.980 13.260 17.881 13.454 C 17.772 13.667,17.615 13.818,17.400 13.916 C 17.274 13.974,16.735 13.980,12.000 13.980 C 7.265 13.980,6.726 13.974,6.600 13.916 C 6.383 13.817,6.215 13.656,6.117 13.454 C 6.034 13.282,6.026 13.201,6.010 12.305 C 5.988 11.112,6.028 10.662,6.175 10.440 C 6.335 10.199,6.556 10.071,6.873 10.038 C 7.020 10.022,9.417 10.012,12.200 10.015 L 17.260 10.020 17.440 10.114 M2.695 20.057 C 2.466 20.129,2.256 20.299,2.128 20.516 C 2.037 20.672,2.020 20.746,2.020 21.000 C 2.020 21.256,2.036 21.328,2.131 21.489 C 2.256 21.702,2.449 21.864,2.670 21.943 C 2.893 22.023,21.107 22.023,21.330 21.943 C 21.551 21.864,21.744 21.702,21.869 21.489 C 21.964 21.328,21.980 21.256,21.980 21.000 C 21.980 20.746,21.963 20.672,21.872 20.516 C 21.740 20.293,21.533 20.128,21.290 20.055 C 21.027 19.976,2.947 19.978,2.695 20.057 " stroke="none" fill-rule="evenodd" fill="black"></path></svg>