<svg width="24" height="24" viewBox="0 0 24 24" fill="none" xmlns="http://www.w3.org/2000/svg"><path d="M2.695 2.057 C 2.466 2.129,2.256 2.299,2.128 2.516 L 2.020 2.700 2.021 4.040 C 2.022 5.294,2.028 5.403,2.111 5.735 C 2.224 6.183,2.378 6.504,2.650 6.858 C 3.038 7.363,3.594 7.719,4.265 7.889 L 4.620 7.980 11.980 7.980 C 19.013 7.980,19.354 7.977,19.660 7.906 C 20.269 7.764,20.711 7.526,21.118 7.118 C 21.526 6.711,21.764 6.269,21.906 5.660 C 21.970 5.382,21.980 5.165,21.980 4.020 L 21.980 2.700 21.871 2.514 C 21.730 2.275,21.485 2.096,21.214 2.035 C 20.792 1.941,20.352 2.134,20.129 2.514 L 20.020 2.700 19.994 3.960 C 19.978 4.731,19.950 5.280,19.921 5.374 C 19.862 5.568,19.581 5.853,19.376 5.925 C 19.143 6.007,4.857 6.007,4.624 5.925 C 4.419 5.853,4.138 5.568,4.079 5.374 C 4.050 5.280,4.022 4.731,4.006 3.960 L 3.980 2.700 3.872 2.516 C 3.628 2.101,3.150 1.915,2.695 2.057 M2.695 11.055 C 2.464 11.130,2.255 11.300,2.128 11.516 C 2.037 11.672,2.020 11.746,2.020 12.000 C 2.020 12.257,2.036 12.327,2.133 12.492 C 2.651 13.374,3.998 13.018,3.998 12.000 C 3.998 11.623,3.792 11.281,3.463 11.112 C 3.265 11.010,2.911 10.984,2.695 11.055 M7.240 11.035 C 6.785 11.184,6.512 11.547,6.512 12.000 C 6.512 12.405,6.719 12.724,7.100 12.905 C 7.583 13.133,8.146 12.926,8.412 12.423 C 8.529 12.199,8.530 11.802,8.413 11.579 C 8.305 11.375,8.143 11.213,7.943 11.112 C 7.771 11.024,7.398 10.983,7.240 11.035 M11.695 11.055 C 11.464 11.130,11.255 11.300,11.128 11.516 C 11.037 11.672,11.020 11.746,11.020 12.000 C 11.020 12.257,11.036 12.327,11.133 12.492 C 11.651 13.374,12.998 13.018,12.998 12.000 C 12.998 11.623,12.792 11.281,12.463 11.112 C 12.265 11.010,11.911 10.984,11.695 11.055 M16.240 11.035 C 15.785 11.184,15.512 11.547,15.512 12.000 C 15.512 12.405,15.719 12.724,16.100 12.905 C 16.583 13.133,17.146 12.926,17.412 12.423 C 17.529 12.199,17.530 11.802,17.413 11.579 C 17.305 11.375,17.143 11.213,16.943 11.112 C 16.771 11.024,16.398 10.983,16.240 11.035 M20.695 11.055 C 20.464 11.130,20.255 11.300,20.128 11.516 C 20.037 11.672,20.020 11.746,20.020 12.000 C 20.020 12.257,20.036 12.327,20.133 12.492 C 20.651 13.374,21.998 13.018,21.998 12.000 C 21.998 11.623,21.792 11.281,21.463 11.112 C 21.265 11.010,20.911 10.984,20.695 11.055 M4.749 16.045 C 4.140 16.103,3.706 16.253,3.263 16.558 C 2.850 16.842,2.440 17.347,2.260 17.795 C 2.045 18.326,2.020 18.558,2.020 19.983 L 2.020 21.306 2.141 21.503 C 2.543 22.156,3.457 22.156,3.859 21.503 L 3.980 21.306 4.006 20.043 C 4.022 19.269,4.050 18.720,4.079 18.626 C 4.143 18.418,4.429 18.138,4.646 18.072 C 4.903 17.995,19.097 17.995,19.354 18.072 C 19.571 18.138,19.857 18.418,19.921 18.626 C 19.950 18.720,19.978 19.269,19.994 20.043 L 20.020 21.306 20.141 21.503 C 20.543 22.156,21.457 22.156,21.859 21.503 L 21.980 21.306 21.980 19.983 C 21.980 18.835,21.970 18.618,21.906 18.340 C 21.688 17.404,21.167 16.737,20.329 16.321 C 20.019 16.168,19.706 16.091,19.180 16.042 C 18.644 15.991,5.276 15.994,4.749 16.045 " stroke="none" fill-rule="evenodd" fill="black"></path></svg>