<svg width="24" height="24" viewBox="0 0 24 24" fill="none" xmlns="http://www.w3.org/2000/svg"><path d="M11.280 1.023 C 11.203 1.032,10.951 1.059,10.720 1.083 C 9.527 1.210,8.337 1.558,7.180 2.120 C 6.045 2.671,5.193 3.285,4.238 4.239 C 3.277 5.198,2.643 6.080,2.097 7.220 C 0.301 10.968,0.728 15.286,3.226 18.633 C 3.701 19.269,4.753 20.316,5.400 20.797 C 9.364 23.745,14.666 23.734,18.637 20.770 C 19.246 20.316,20.316 19.246,20.770 18.637 C 23.744 14.652,23.744 9.348,20.770 5.363 C 20.316 4.755,19.247 3.686,18.640 3.235 C 17.045 2.049,15.365 1.360,13.423 1.096 C 13.000 1.038,11.574 0.990,11.280 1.023 M13.320 3.101 C 15.883 3.488,18.124 4.931,19.560 7.120 C 19.863 7.583,20.303 8.479,20.492 9.020 C 20.838 10.013,20.977 10.865,20.977 12.000 C 20.977 13.493,20.720 14.621,20.080 15.940 C 19.375 17.394,18.311 18.607,16.927 19.532 C 16.138 20.060,14.876 20.588,13.908 20.797 C 11.266 21.366,8.479 20.708,6.370 19.019 C 4.857 17.807,3.722 16.029,3.267 14.160 C 3.081 13.397,3.023 12.888,3.023 12.000 C 3.023 10.507,3.280 9.379,3.920 8.060 C 4.971 5.891,6.877 4.221,9.160 3.466 C 9.865 3.233,10.432 3.118,11.340 3.024 C 11.662 2.991,12.911 3.039,13.320 3.101 M11.516 6.577 C 10.466 6.979,10.167 8.277,10.945 9.055 C 11.528 9.638,12.472 9.638,13.055 9.055 C 13.781 8.330,13.577 7.126,12.650 6.657 C 12.455 6.558,12.370 6.541,12.042 6.532 C 11.789 6.525,11.611 6.540,11.516 6.577 M6.695 11.057 C 6.466 11.129,6.256 11.299,6.128 11.516 C 6.037 11.672,6.020 11.746,6.020 12.000 C 6.020 12.256,6.036 12.328,6.131 12.489 C 6.256 12.702,6.449 12.864,6.670 12.943 C 6.892 13.022,17.108 13.022,17.330 12.943 C 17.551 12.864,17.744 12.702,17.869 12.489 C 17.964 12.328,17.980 12.256,17.980 12.000 C 17.980 11.746,17.963 11.672,17.872 11.516 C 17.740 11.293,17.533 11.128,17.290 11.055 C 17.028 10.976,6.946 10.978,6.695 11.057 M11.516 14.577 C 10.466 14.979,10.167 16.277,10.945 17.055 C 11.807 17.918,13.314 17.420,13.477 16.218 C 13.566 15.564,13.245 14.958,12.650 14.657 C 12.455 14.558,12.370 14.541,12.042 14.532 C 11.789 14.525,11.611 14.540,11.516 14.577 " stroke="none" fill-rule="evenodd" fill="black"></path></svg>