<svg width="24" height="24" viewBox="0 0 24 24" fill="none" xmlns="http://www.w3.org/2000/svg"><path d="M3.872 2.582 C 3.237 2.736,2.556 3.286,2.266 3.880 C 1.916 4.594,1.916 5.404,2.265 6.120 C 2.378 6.351,2.491 6.499,2.756 6.761 C 3.280 7.279,3.785 7.490,4.500 7.490 C 5.215 7.490,5.720 7.279,6.244 6.761 C 6.509 6.499,6.622 6.351,6.735 6.120 C 7.084 5.404,7.084 4.594,6.734 3.880 C 6.444 3.286,5.753 2.732,5.116 2.581 C 4.801 2.507,4.179 2.508,3.872 2.582 M9.695 4.057 C 9.466 4.129,9.256 4.299,9.128 4.516 C 9.037 4.672,9.020 4.746,9.020 5.000 C 9.020 5.256,9.036 5.328,9.131 5.489 C 9.256 5.702,9.449 5.864,9.670 5.943 C 9.793 5.987,10.856 5.996,15.500 5.996 C 20.144 5.996,21.207 5.987,21.330 5.943 C 21.551 5.864,21.744 5.702,21.869 5.489 C 21.964 5.328,21.980 5.256,21.980 5.000 C 21.980 4.746,21.963 4.672,21.872 4.516 C 21.740 4.293,21.533 4.128,21.290 4.055 C 21.028 3.976,9.947 3.978,9.695 4.057 M4.757 4.578 C 4.876 4.640,5.000 4.854,5.000 5.000 C 5.000 5.134,4.885 5.348,4.773 5.421 C 4.644 5.505,4.356 5.505,4.227 5.421 C 4.115 5.348,4.000 5.134,4.000 5.000 C 4.000 4.859,4.122 4.642,4.235 4.580 C 4.372 4.506,4.615 4.505,4.757 4.578 M3.872 9.582 C 3.237 9.736,2.556 10.286,2.266 10.880 C 1.916 11.594,1.916 12.404,2.265 13.120 C 2.378 13.351,2.491 13.499,2.756 13.761 C 3.280 14.279,3.785 14.490,4.500 14.490 C 5.215 14.490,5.720 14.279,6.244 13.761 C 6.509 13.499,6.622 13.351,6.735 13.120 C 7.084 12.404,7.084 11.594,6.734 10.880 C 6.444 10.286,5.753 9.732,5.116 9.581 C 4.801 9.507,4.179 9.508,3.872 9.582 M9.695 11.057 C 9.466 11.129,9.256 11.299,9.128 11.516 C 9.037 11.672,9.020 11.746,9.020 12.000 C 9.020 12.256,9.036 12.328,9.131 12.489 C 9.256 12.702,9.449 12.864,9.670 12.943 C 9.793 12.987,10.856 12.996,15.500 12.996 C 20.144 12.996,21.207 12.987,21.330 12.943 C 21.551 12.864,21.744 12.702,21.869 12.489 C 21.964 12.328,21.980 12.256,21.980 12.000 C 21.980 11.746,21.963 11.672,21.872 11.516 C 21.740 11.293,21.533 11.128,21.290 11.055 C 21.028 10.976,9.947 10.978,9.695 11.057 M4.757 11.578 C 4.876 11.640,5.000 11.854,5.000 12.000 C 5.000 12.134,4.885 12.348,4.773 12.421 C 4.718 12.457,4.595 12.487,4.500 12.487 C 4.405 12.487,4.282 12.457,4.227 12.421 C 4.115 12.348,4.000 12.134,4.000 12.000 C 4.000 11.859,4.122 11.642,4.235 11.580 C 4.372 11.506,4.615 11.505,4.757 11.578 M3.872 16.582 C 3.237 16.736,2.556 17.286,2.266 17.880 C 1.916 18.594,1.916 19.404,2.265 20.120 C 2.378 20.351,2.491 20.499,2.756 20.761 C 3.280 21.279,3.785 21.490,4.500 21.490 C 5.215 21.490,5.720 21.279,6.244 20.761 C 6.509 20.499,6.622 20.351,6.735 20.120 C 7.084 19.404,7.084 18.594,6.734 17.880 C 6.444 17.286,5.753 16.732,5.116 16.581 C 4.801 16.507,4.179 16.508,3.872 16.582 M9.695 18.057 C 9.466 18.129,9.256 18.299,9.128 18.516 C 9.037 18.672,9.020 18.746,9.020 19.000 C 9.020 19.256,9.036 19.328,9.131 19.489 C 9.256 19.702,9.449 19.864,9.670 19.943 C 9.793 19.987,10.856 19.996,15.500 19.996 C 20.144 19.996,21.207 19.987,21.330 19.943 C 21.551 19.864,21.744 19.702,21.869 19.489 C 21.964 19.328,21.980 19.256,21.980 19.000 C 21.980 18.746,21.963 18.672,21.872 18.516 C 21.740 18.293,21.533 18.128,21.290 18.055 C 21.028 17.976,9.947 17.978,9.695 18.057 M4.757 18.578 C 4.876 18.640,5.000 18.854,5.000 19.000 C 5.000 19.134,4.885 19.348,4.773 19.421 C 4.718 19.457,4.595 19.487,4.500 19.487 C 4.405 19.487,4.282 19.457,4.227 19.421 C 4.115 19.348,4.000 19.134,4.000 19.000 C 4.000 18.859,4.122 18.642,4.235 18.580 C 4.372 18.506,4.615 18.505,4.757 18.578 " stroke="none" fill-rule="evenodd" fill="black"></path></svg>