<svg width="24" height="24" viewBox="0 0 24 24" fill="none" xmlns="http://www.w3.org/2000/svg"><path d="M8.840 2.028 C 6.112 2.233,3.569 3.821,2.173 6.190 C 0.437 9.134,0.650 12.873,2.708 15.606 C 2.876 15.829,3.159 16.159,3.337 16.340 C 3.600 16.608,3.700 16.682,3.875 16.740 C 4.704 17.010,5.471 16.131,5.079 15.360 C 5.040 15.283,4.896 15.094,4.759 14.940 C 4.053 14.144,3.590 13.353,3.308 12.459 C 2.916 11.216,2.916 9.784,3.308 8.541 C 3.857 6.801,5.163 5.333,6.828 4.585 C 7.574 4.250,8.146 4.107,9.029 4.034 C 10.488 3.912,11.874 4.282,13.160 5.135 C 13.777 5.544,14.477 6.260,14.939 6.953 C 15.522 7.828,15.722 7.938,16.903 8.038 C 18.206 8.148,19.324 8.778,20.128 9.857 C 21.087 11.142,21.259 12.955,20.561 14.418 C 20.322 14.918,20.031 15.318,19.593 15.749 C 19.374 15.964,19.158 16.210,19.114 16.295 C 18.778 16.940,19.267 17.733,20.000 17.733 C 20.329 17.733,20.533 17.621,20.978 17.195 C 21.982 16.236,22.612 15.084,22.890 13.700 C 23.004 13.131,23.014 11.981,22.910 11.420 C 22.458 8.986,20.820 7.094,18.500 6.325 C 18.044 6.174,17.650 6.094,17.120 6.044 C 16.890 6.022,16.696 5.987,16.688 5.965 C 16.681 5.943,16.574 5.784,16.452 5.612 C 15.527 4.319,14.379 3.379,12.922 2.723 C 11.713 2.179,10.216 1.924,8.840 2.028 M11.695 11.057 C 11.466 11.129,11.256 11.299,11.128 11.516 L 11.020 11.700 11.009 15.137 L 10.998 18.574 9.769 17.353 C 8.688 16.279,8.516 16.124,8.343 16.066 C 7.863 15.905,7.382 16.084,7.128 16.516 C 7.036 16.672,7.020 16.745,7.021 17.000 C 7.021 17.212,7.043 17.341,7.095 17.440 C 7.195 17.632,11.295 21.739,11.520 21.873 C 11.672 21.964,11.746 21.980,12.000 21.980 C 12.254 21.980,12.328 21.964,12.480 21.873 C 12.705 21.739,16.805 17.632,16.905 17.440 C 16.957 17.341,16.979 17.212,16.979 17.000 C 16.980 16.745,16.964 16.672,16.872 16.516 C 16.618 16.084,16.137 15.905,15.657 16.066 C 15.484 16.124,15.312 16.279,14.231 17.353 L 13.002 18.574 12.991 15.137 L 12.980 11.700 12.872 11.516 C 12.628 11.101,12.150 10.915,11.695 11.057 " stroke="none" fill-rule="evenodd" fill="black"></path></svg>