<svg width="24" height="24" viewBox="0 0 24 24" fill="none" xmlns="http://www.w3.org/2000/svg"><path d="M11.300 2.045 C 9.210 2.241,7.256 3.442,6.099 5.241 C 5.842 5.640,5.510 6.338,5.367 6.777 L 5.251 7.134 4.856 7.260 C 2.481 8.017,0.911 10.239,1.012 12.700 C 1.057 13.787,1.343 14.665,1.949 15.578 C 2.446 16.324,3.394 17.158,3.820 17.222 C 4.243 17.285,4.637 17.104,4.859 16.743 C 4.964 16.573,4.980 16.508,4.980 16.263 C 4.980 15.847,4.877 15.665,4.459 15.338 C 3.747 14.782,3.328 14.168,3.112 13.364 C 2.993 12.920,2.992 12.064,3.110 11.614 C 3.207 11.244,3.443 10.749,3.661 10.457 C 4.262 9.656,5.042 9.188,6.021 9.040 C 6.412 8.981,6.580 8.914,6.754 8.748 C 6.940 8.569,7.016 8.401,7.120 7.940 C 7.231 7.446,7.393 6.993,7.583 6.645 C 8.295 5.344,9.605 4.369,11.001 4.102 C 12.739 3.770,14.426 4.309,15.642 5.585 C 16.280 6.254,16.665 6.987,16.880 7.940 C 16.984 8.401,17.060 8.569,17.246 8.748 C 17.420 8.914,17.588 8.981,17.979 9.040 C 18.958 9.188,19.738 9.656,20.339 10.457 C 20.557 10.749,20.793 11.244,20.890 11.614 C 21.008 12.064,21.007 12.920,20.888 13.364 C 20.672 14.168,20.253 14.782,19.541 15.338 C 19.123 15.665,19.020 15.847,19.020 16.263 C 19.020 16.508,19.036 16.573,19.141 16.743 C 19.363 17.104,19.757 17.285,20.180 17.222 C 20.606 17.158,21.554 16.324,22.051 15.578 C 22.657 14.665,22.943 13.787,22.988 12.700 C 23.050 11.194,22.473 9.715,21.407 8.647 C 20.751 7.990,20.002 7.531,19.144 7.259 L 18.749 7.134 18.633 6.777 C 18.490 6.338,18.158 5.640,17.901 5.241 C 16.470 3.014,13.954 1.796,11.300 2.045 M11.695 11.057 C 11.466 11.129,11.256 11.299,11.128 11.516 L 11.020 11.700 11.009 15.137 L 10.998 18.574 9.769 17.353 C 8.688 16.279,8.516 16.124,8.343 16.066 C 7.863 15.905,7.382 16.084,7.128 16.516 C 7.036 16.672,7.020 16.745,7.021 17.000 C 7.021 17.212,7.043 17.341,7.095 17.440 C 7.195 17.632,11.295 21.739,11.520 21.873 C 11.672 21.964,11.746 21.980,12.000 21.980 C 12.254 21.980,12.328 21.964,12.480 21.873 C 12.705 21.739,16.805 17.632,16.905 17.440 C 16.957 17.341,16.979 17.212,16.979 17.000 C 16.980 16.745,16.964 16.672,16.872 16.516 C 16.618 16.084,16.137 15.905,15.657 16.066 C 15.484 16.124,15.312 16.279,14.231 17.353 L 13.002 18.574 12.991 15.137 L 12.980 11.700 12.872 11.516 C 12.628 11.101,12.150 10.915,11.695 11.057 " stroke="none" fill-rule="evenodd" fill="black"></path></svg>