<svg width="24" height="24" viewBox="0 0 24 24" fill="none" xmlns="http://www.w3.org/2000/svg"><path d="M11.695 2.057 C 11.466 2.129,11.256 2.299,11.128 2.516 L 11.020 2.700 11.009 8.638 L 10.999 14.577 8.769 12.354 C 6.755 10.346,6.521 10.124,6.343 10.065 C 5.862 9.906,5.382 10.084,5.128 10.516 C 5.037 10.672,5.020 10.746,5.020 11.000 C 5.020 11.254,5.036 11.328,5.127 11.480 C 5.262 11.706,11.368 17.805,11.560 17.905 C 11.659 17.957,11.788 17.979,12.000 17.979 C 12.255 17.980,12.327 17.964,12.480 17.873 C 12.706 17.738,18.805 11.632,18.905 11.440 C 18.957 11.341,18.979 11.212,18.979 11.000 C 18.980 10.745,18.964 10.672,18.872 10.516 C 18.618 10.084,18.138 9.906,17.657 10.065 C 17.479 10.124,17.245 10.346,15.231 12.354 L 13.001 14.577 12.991 8.638 L 12.980 2.700 12.872 2.516 C 12.628 2.101,12.150 1.915,11.695 2.057 M2.695 20.057 C 2.466 20.129,2.256 20.299,2.128 20.516 C 2.037 20.672,2.020 20.746,2.020 21.000 C 2.020 21.256,2.036 21.328,2.131 21.489 C 2.256 21.702,2.449 21.864,2.670 21.943 C 2.893 22.023,21.107 22.023,21.330 21.943 C 21.551 21.864,21.744 21.702,21.869 21.489 C 21.964 21.328,21.980 21.256,21.980 21.000 C 21.980 20.746,21.963 20.672,21.872 20.516 C 21.740 20.293,21.533 20.128,21.290 20.055 C 21.027 19.976,2.947 19.978,2.695 20.057 " stroke="none" fill-rule="evenodd" fill="black"></path></svg>