<svg width="24" height="24" viewBox="0 0 24 24" fill="none" xmlns="http://www.w3.org/2000/svg"><path d="M11.695 2.057 C 11.466 2.129,11.256 2.299,11.128 2.516 L 11.020 2.700 11.009 7.638 L 10.999 12.576 9.269 10.854 C 7.721 9.312,7.519 9.124,7.343 9.066 C 6.863 8.906,6.382 9.084,6.128 9.516 C 6.036 9.672,6.020 9.745,6.021 10.000 C 6.021 10.212,6.043 10.341,6.095 10.440 C 6.195 10.632,11.294 15.738,11.520 15.873 C 11.672 15.964,11.746 15.980,12.000 15.980 C 12.254 15.980,12.328 15.964,12.480 15.873 C 12.706 15.738,17.805 10.632,17.905 10.440 C 17.957 10.341,17.979 10.212,17.979 10.000 C 17.980 9.745,17.964 9.672,17.872 9.516 C 17.618 9.084,17.137 8.906,16.657 9.066 C 16.481 9.124,16.279 9.312,14.731 10.854 L 13.001 12.576 12.991 7.638 L 12.980 2.700 12.872 2.516 C 12.628 2.101,12.150 1.915,11.695 2.057 M2.695 14.057 C 2.466 14.129,2.256 14.299,2.128 14.516 L 2.020 14.700 2.007 16.160 C 1.988 18.384,2.075 19.091,2.465 19.859 C 2.915 20.749,3.772 21.482,4.680 21.755 C 5.474 21.994,5.642 22.000,12.000 22.000 C 18.358 22.000,18.526 21.994,19.320 21.755 C 20.228 21.482,21.085 20.749,21.535 19.859 C 21.925 19.091,22.012 18.384,21.993 16.160 L 21.980 14.700 21.871 14.514 C 21.479 13.848,20.521 13.848,20.129 14.514 L 20.020 14.700 19.993 16.460 C 19.958 18.727,19.928 18.872,19.400 19.401 C 19.101 19.701,18.820 19.851,18.418 19.928 C 18.010 20.005,5.990 20.005,5.582 19.927 C 5.170 19.850,4.898 19.704,4.600 19.403 C 4.071 18.869,4.042 18.726,4.007 16.460 L 3.980 14.700 3.872 14.516 C 3.628 14.101,3.150 13.915,2.695 14.057 " stroke="none" fill-rule="evenodd" fill="black"></path></svg>