<svg width="24" height="24" viewBox="0 0 24 24" fill="none" xmlns="http://www.w3.org/2000/svg"><path d="M8.139 1.739 C 7.478 1.890,6.222 2.577,5.220 3.336 C 4.808 3.648,3.959 4.473,3.551 4.960 C 3.128 5.463,2.547 6.341,2.225 6.960 C 0.282 10.704,0.668 15.205,3.226 18.633 C 3.701 19.269,4.753 20.316,5.400 20.797 C 9.364 23.745,14.666 23.734,18.637 20.770 C 19.246 20.316,20.316 19.246,20.770 18.637 C 23.600 14.845,23.750 9.815,21.149 5.900 C 20.574 5.034,19.730 4.103,18.952 3.477 C 18.506 3.118,17.615 2.520,17.385 2.424 C 17.194 2.345,16.803 2.341,16.623 2.416 C 16.411 2.505,16.177 2.742,16.080 2.969 C 15.936 3.303,16.008 3.722,16.255 3.994 C 16.302 4.046,16.594 4.257,16.905 4.463 C 19.114 5.931,20.514 8.120,20.906 10.720 C 21.002 11.359,21.003 12.653,20.906 13.280 C 20.601 15.272,19.721 17.011,18.316 18.400 C 17.596 19.112,16.908 19.601,15.980 20.061 C 13.447 21.317,10.485 21.310,7.980 20.042 C 7.044 19.569,6.380 19.093,5.665 18.382 C 4.497 17.221,3.649 15.728,3.267 14.160 C 3.080 13.393,3.023 12.888,3.024 12.000 C 3.025 10.512,3.286 9.350,3.898 8.100 C 4.812 6.235,6.139 4.891,8.000 3.947 L 8.540 3.673 8.980 3.688 C 9.415 3.702,9.424 3.705,9.780 3.891 C 10.465 4.249,10.745 4.550,10.906 5.102 C 10.970 5.320,10.977 5.692,10.990 9.460 L 11.005 13.580 9.772 12.354 C 8.610 11.199,8.528 11.125,8.323 11.064 C 8.057 10.986,7.946 10.984,7.710 11.055 C 7.467 11.128,7.260 11.293,7.128 11.516 C 7.036 11.672,7.020 11.745,7.021 12.000 C 7.021 12.212,7.043 12.341,7.095 12.440 C 7.195 12.632,11.295 16.739,11.520 16.873 C 11.672 16.964,11.746 16.980,12.000 16.980 C 12.254 16.980,12.328 16.964,12.480 16.873 C 12.705 16.739,16.805 12.632,16.905 12.440 C 16.957 12.341,16.979 12.212,16.979 12.000 C 16.980 11.745,16.964 11.672,16.872 11.516 C 16.740 11.293,16.533 11.128,16.290 11.055 C 16.054 10.984,15.943 10.986,15.677 11.064 C 15.472 11.125,15.390 11.199,14.232 12.350 L 13.004 13.572 12.990 9.376 C 12.975 5.298,12.972 5.170,12.891 4.815 C 12.610 3.581,11.971 2.791,10.717 2.126 C 10.509 2.017,10.187 1.878,10.000 1.818 C 9.698 1.721,9.588 1.707,9.020 1.696 C 8.578 1.687,8.305 1.701,8.139 1.739 " stroke="none" fill-rule="evenodd" fill="black"></path></svg>