<svg width="24" height="24" viewBox="0 0 24 24" fill="none" xmlns="http://www.w3.org/2000/svg"><path d="M11.614 1.578 C 11.428 1.659,11.183 1.896,11.107 2.069 C 11.070 2.152,10.979 2.463,10.905 2.760 C 10.732 3.451,10.543 3.960,10.198 4.660 C 9.517 6.043,8.621 7.173,7.380 8.213 C 6.551 8.908,5.921 9.559,5.455 10.200 C 3.977 12.234,3.618 14.615,4.424 17.040 C 5.110 19.106,6.588 20.774,8.570 21.721 C 12.179 23.445,16.498 22.221,18.714 18.846 C 19.978 16.920,20.336 14.402,19.640 12.320 C 19.124 10.778,18.232 9.564,16.620 8.213 C 15.379 7.173,14.483 6.043,13.802 4.660 C 13.458 3.962,13.273 3.463,13.081 2.720 C 12.999 2.400,12.903 2.084,12.868 2.016 C 12.789 1.862,12.549 1.648,12.374 1.575 C 12.207 1.505,11.778 1.507,11.614 1.578 M12.240 6.010 C 12.964 7.350,13.992 8.609,15.180 9.610 C 17.077 11.208,17.858 12.481,17.983 14.176 C 18.033 14.859,17.878 15.897,17.627 16.564 C 17.215 17.659,16.405 18.725,15.492 19.372 C 14.593 20.010,13.519 20.397,12.431 20.475 C 9.910 20.658,7.572 19.252,6.523 16.922 C 6.179 16.158,6.028 15.429,6.025 14.520 C 6.019 12.667,6.782 11.325,8.820 9.610 C 10.003 8.614,11.042 7.341,11.760 6.010 C 11.881 5.785,11.989 5.602,12.000 5.602 C 12.011 5.602,12.119 5.786,12.240 6.010 " stroke="none" fill-rule="evenodd" fill="black"></path></svg>