<svg width="24" height="24" viewBox="0 0 24 24" fill="none" xmlns="http://www.w3.org/2000/svg"><path d="M13.617 1.577 C 13.439 1.654,13.206 1.870,13.123 2.036 C 13.083 2.115,12.992 2.414,12.921 2.700 C 12.698 3.596,12.388 4.360,11.900 5.219 C 11.655 5.650,11.590 5.799,11.572 5.974 C 11.497 6.701,12.185 7.251,12.881 7.020 C 13.178 6.921,13.369 6.709,13.700 6.109 C 13.854 5.830,13.989 5.602,14.000 5.602 C 14.011 5.602,14.119 5.786,14.240 6.010 C 14.964 7.350,15.992 8.609,17.180 9.610 C 18.829 10.999,19.589 12.084,19.892 13.480 C 20.002 13.985,20.008 15.038,19.905 15.600 C 19.721 16.605,19.247 17.589,18.537 18.443 C 17.722 19.423,16.394 20.175,15.039 20.424 C 14.524 20.519,13.559 20.519,13.020 20.424 C 11.923 20.231,10.873 19.726,10.060 18.999 C 9.541 18.536,9.475 18.501,9.097 18.501 C 8.807 18.500,8.755 18.512,8.582 18.620 C 8.182 18.870,8.010 19.301,8.137 19.737 C 8.218 20.015,8.486 20.318,9.040 20.759 C 10.263 21.733,11.716 22.317,13.314 22.478 C 14.723 22.620,16.166 22.348,17.540 21.681 C 19.150 20.900,20.429 19.602,21.221 17.945 C 21.784 16.768,22.035 15.567,21.988 14.280 C 21.962 13.551,21.860 12.979,21.640 12.320 C 21.124 10.778,20.232 9.564,18.620 8.213 C 17.379 7.173,16.483 6.043,15.802 4.660 C 15.457 3.960,15.268 3.451,15.095 2.760 C 15.021 2.463,14.930 2.152,14.893 2.069 C 14.815 1.892,14.568 1.656,14.377 1.576 C 14.208 1.506,13.779 1.506,13.617 1.577 M6.617 3.857 C 6.438 3.935,6.207 4.150,6.121 4.319 C 6.080 4.399,6.017 4.581,5.981 4.722 C 5.863 5.191,5.752 5.496,5.559 5.887 C 5.182 6.646,4.742 7.193,3.960 7.873 C 2.689 8.977,2.082 10.128,2.011 11.565 C 1.985 12.109,2.036 12.517,2.206 13.119 C 2.445 13.965,2.855 14.656,3.499 15.303 C 4.467 16.275,5.641 16.764,7.000 16.764 C 8.357 16.764,9.534 16.273,10.501 15.303 C 11.423 14.378,11.924 13.251,11.987 11.960 C 12.063 10.424,11.425 9.104,9.985 7.818 C 9.488 7.374,9.241 7.113,8.949 6.726 C 8.615 6.283,8.227 5.481,8.063 4.896 C 7.989 4.630,7.900 4.358,7.866 4.292 C 7.788 4.141,7.547 3.927,7.374 3.855 C 7.208 3.785,6.778 3.786,6.617 3.857 M7.140 7.630 C 7.473 8.158,7.954 8.684,8.808 9.455 C 9.390 9.979,9.726 10.472,9.905 11.062 C 9.991 11.346,10.004 12.158,9.927 12.440 C 9.712 13.223,9.206 13.914,8.522 14.355 C 7.673 14.904,6.327 14.904,5.478 14.355 C 4.934 14.004,4.452 13.435,4.228 12.880 C 4.053 12.447,4.023 12.284,4.025 11.760 C 4.027 11.334,4.042 11.214,4.130 10.949 C 4.338 10.316,4.588 10.003,5.693 8.984 C 6.181 8.535,6.544 8.118,6.821 7.688 C 6.908 7.552,6.989 7.441,7.000 7.440 C 7.011 7.440,7.074 7.526,7.140 7.630 " stroke="none" fill-rule="evenodd" fill="black"></path></svg>