<svg width="24" height="24" viewBox="0 0 24 24" fill="none" xmlns="http://www.w3.org/2000/svg"><path d="M18.611 1.204 C 18.216 1.241,17.771 1.358,17.416 1.519 C 16.825 1.787,16.665 1.929,14.290 4.295 L 12.001 6.576 11.548 6.130 C 11.032 5.620,10.863 5.522,10.498 5.521 C 9.864 5.519,9.398 6.086,9.528 6.702 C 9.583 6.963,9.654 7.061,10.155 7.570 L 10.578 8.000 7.275 11.310 C 5.459 13.130,3.851 14.772,3.703 14.958 C 2.766 16.134,2.070 17.562,1.542 19.395 C 1.302 20.229,1.053 21.389,1.017 21.841 C 0.979 22.317,1.140 22.651,1.511 22.869 C 1.682 22.969,1.735 22.980,2.060 22.976 C 2.815 22.967,4.769 22.477,6.060 21.971 C 6.951 21.623,7.878 21.139,8.520 20.688 C 9.121 20.265,9.534 19.872,12.690 16.724 L 16.000 13.422 16.430 13.845 C 16.946 14.353,17.044 14.423,17.301 14.469 C 18.011 14.595,18.595 14.011,18.469 13.301 C 18.423 13.044,18.353 12.946,17.845 12.430 L 17.422 12.001 19.704 9.710 C 22.061 7.346,22.202 7.187,22.480 6.592 C 22.827 5.851,22.916 4.860,22.707 4.060 C 22.225 2.217,20.518 1.027,18.611 1.204 M19.624 3.286 C 20.632 3.657,21.097 4.812,20.637 5.800 C 20.526 6.038,20.327 6.249,18.258 8.320 L 16.001 10.580 14.710 9.290 L 13.420 7.999 15.680 5.742 C 17.795 3.629,17.958 3.476,18.214 3.356 C 18.649 3.154,19.190 3.127,19.624 3.286 M13.300 10.720 L 14.580 12.001 11.240 15.334 C 9.141 17.428,7.783 18.753,7.585 18.900 C 6.766 19.504,5.732 20.011,4.560 20.382 C 4.058 20.542,3.270 20.764,3.258 20.750 C 3.245 20.735,3.386 20.196,3.523 19.740 C 3.940 18.348,4.562 17.083,5.253 16.220 C 5.412 16.021,11.961 9.440,12.000 9.440 C 12.011 9.440,12.596 10.016,13.300 10.720 " stroke="none" fill-rule="evenodd" fill="black"></path></svg>