<svg width="24" height="24" viewBox="0 0 24 24" fill="none" xmlns="http://www.w3.org/2000/svg"><path d="M4.667 1.063 C 4.545 1.102,4.412 1.187,4.307 1.293 C 4.050 1.553,3.124 3.187,2.438 4.589 C 1.232 7.053,0.833 8.570,1.079 9.759 C 1.360 11.123,2.244 12.193,3.512 12.704 C 5.560 13.529,7.874 12.540,8.705 10.484 C 9.262 9.106,9.028 7.726,7.784 5.048 C 7.271 3.943,6.126 1.845,5.800 1.411 C 5.543 1.068,5.088 0.929,4.667 1.063 M15.671 1.064 C 15.382 1.152,15.213 1.351,14.733 2.160 C 12.874 5.294,11.171 8.660,10.218 11.080 C 9.671 12.471,9.264 13.838,9.094 14.860 C 9.006 15.387,8.996 16.529,9.075 17.020 C 9.571 20.110,11.888 22.426,14.980 22.926 C 15.392 22.992,16.607 22.992,17.020 22.926 C 20.109 22.428,22.430 20.107,22.925 17.020 C 23.004 16.529,22.994 15.387,22.906 14.860 C 22.593 12.985,21.693 10.571,20.138 7.440 C 18.901 4.949,17.028 1.612,16.678 1.275 C 16.415 1.022,16.053 0.946,15.671 1.064 M16.258 4.410 C 17.145 5.953,18.458 8.490,19.091 9.880 C 20.266 12.458,20.882 14.359,20.984 15.714 C 21.014 16.118,20.948 16.812,20.839 17.240 C 20.487 18.624,19.495 19.845,18.212 20.476 C 17.467 20.842,16.862 20.980,16.000 20.980 C 15.330 20.980,14.956 20.922,14.400 20.732 C 12.808 20.188,11.577 18.860,11.161 17.240 C 11.052 16.815,10.986 16.119,11.016 15.720 C 11.144 14.020,12.044 11.544,13.823 8.000 C 14.613 6.425,15.933 4.000,16.000 4.000 C 16.013 4.000,16.129 4.184,16.258 4.410 M5.409 4.770 C 6.306 6.481,6.844 7.829,6.962 8.665 C 7.061 9.366,6.882 9.924,6.403 10.404 C 6.002 10.807,5.547 11.000,5.000 11.000 C 4.453 11.000,3.997 10.806,3.597 10.404 C 3.122 9.926,2.944 9.393,3.031 8.703 C 3.106 8.110,3.412 7.229,3.948 6.060 C 4.227 5.452,4.961 4.040,4.998 4.040 C 5.013 4.040,5.198 4.369,5.409 4.770 " stroke="none" fill-rule="evenodd" fill="black"></path></svg>