<svg width="24" height="24" viewBox="0 0 24 24" fill="none" xmlns="http://www.w3.org/2000/svg"><path d="M18.611 1.204 C 17.903 1.270,17.178 1.565,16.620 2.016 C 16.444 2.158,13.210 5.367,9.434 9.147 C 4.396 14.189,2.524 16.088,2.405 16.274 C 2.175 16.634,2.018 17.072,1.943 17.560 C 1.797 18.514,1.484 21.541,1.517 21.680 C 1.576 21.929,1.634 22.034,1.800 22.200 C 2.144 22.544,2.190 22.546,4.258 22.317 C 5.227 22.209,6.209 22.092,6.440 22.057 C 6.928 21.982,7.367 21.824,7.726 21.595 C 7.912 21.476,9.815 19.599,14.853 14.566 C 18.633 10.790,21.841 7.557,21.982 7.383 C 22.308 6.979,22.574 6.450,22.707 5.940 C 22.794 5.604,22.811 5.453,22.811 5.000 C 22.811 4.547,22.794 4.396,22.707 4.060 C 22.225 2.217,20.518 1.027,18.611 1.204 M19.624 3.286 C 20.620 3.652,21.086 4.781,20.653 5.777 C 20.554 6.004,20.098 6.469,13.605 12.969 C 7.977 18.603,6.629 19.932,6.482 19.995 C 6.350 20.052,5.939 20.114,4.988 20.221 C 4.266 20.302,3.667 20.361,3.657 20.351 C 3.639 20.332,3.901 17.908,3.945 17.700 C 3.958 17.634,4.002 17.517,4.042 17.440 C 4.082 17.363,7.234 14.184,11.047 10.376 C 17.689 3.744,17.991 3.448,18.239 3.340 C 18.669 3.153,19.205 3.132,19.624 3.286 " stroke="none" fill-rule="evenodd" fill="black"></path></svg>