<svg width="24" height="24" viewBox="0 0 24 24" fill="none" xmlns="http://www.w3.org/2000/svg"><path d="M17.450 1.922 C 16.941 2.013,16.483 2.224,16.060 2.563 C 15.714 2.839,2.722 15.860,2.546 16.107 C 2.366 16.358,2.191 16.735,2.093 17.082 C 2.029 17.310,2.021 17.511,2.020 18.820 L 2.020 20.300 2.133 20.492 C 2.263 20.713,2.502 20.901,2.733 20.964 C 2.841 20.992,3.361 21.001,4.297 20.989 C 5.860 20.970,5.916 20.962,6.500 20.680 C 6.729 20.570,6.934 20.424,7.220 20.167 C 7.440 19.970,10.511 16.913,14.044 13.374 C 18.381 9.030,20.517 6.863,20.620 6.703 C 20.982 6.143,21.145 5.523,21.107 4.842 C 21.095 4.610,21.055 4.312,21.019 4.180 C 20.741 3.156,19.841 2.256,18.820 1.981 C 18.531 1.904,17.742 1.869,17.450 1.922 M18.494 4.001 C 18.716 4.112,18.882 4.280,19.007 4.520 C 19.129 4.755,19.137 5.219,19.023 5.460 C 18.927 5.664,5.906 18.714,5.640 18.873 C 5.465 18.977,5.440 18.980,4.726 18.993 L 3.992 19.006 4.007 18.273 C 4.019 17.660,4.034 17.517,4.095 17.400 C 4.179 17.238,17.188 4.200,17.406 4.059 C 17.486 4.007,17.612 3.946,17.686 3.924 C 17.894 3.860,18.286 3.897,18.494 4.001 M20.676 17.060 C 20.452 17.132,20.311 17.259,19.659 17.980 C 19.380 18.288,19.062 18.607,18.953 18.689 C 18.560 18.984,18.003 19.072,17.506 18.919 C 17.209 18.827,16.994 18.678,16.560 18.262 C 16.215 17.932,16.014 17.787,15.620 17.589 C 14.193 16.869,12.515 17.160,11.372 18.327 C 11.099 18.605,11.000 18.815,11.000 19.115 C 11.001 19.491,11.333 19.944,11.677 20.040 C 12.085 20.153,12.398 20.065,12.768 19.733 C 12.923 19.594,13.169 19.422,13.314 19.350 C 13.562 19.228,13.605 19.220,14.000 19.220 C 14.397 19.220,14.437 19.228,14.693 19.353 C 14.882 19.447,15.092 19.608,15.389 19.887 C 16.024 20.484,16.616 20.798,17.381 20.942 C 17.828 21.026,18.442 21.002,18.900 20.883 C 19.340 20.768,19.974 20.445,20.303 20.168 C 20.643 19.883,21.727 18.719,21.864 18.492 C 22.147 18.022,21.944 17.361,21.436 17.098 C 21.258 17.006,20.900 16.988,20.676 17.060 " stroke="none" fill-rule="evenodd" fill="black"></path></svg>