<svg width="24" height="24" viewBox="0 0 24 24" fill="none" xmlns="http://www.w3.org/2000/svg"><path d="M17.450 1.922 C 16.941 2.013,16.483 2.224,16.060 2.563 C 15.714 2.839,2.722 15.860,2.546 16.107 C 2.366 16.358,2.191 16.735,2.093 17.082 C 2.029 17.310,2.021 17.511,2.020 18.820 L 2.020 20.300 2.133 20.492 C 2.263 20.713,2.502 20.901,2.733 20.964 C 2.841 20.992,3.361 21.001,4.297 20.989 C 5.860 20.970,5.916 20.962,6.500 20.680 C 6.729 20.570,6.934 20.424,7.220 20.167 C 7.440 19.970,10.511 16.913,14.044 13.374 C 18.381 9.030,20.517 6.863,20.620 6.703 C 20.982 6.143,21.145 5.523,21.107 4.842 C 21.095 4.610,21.055 4.312,21.019 4.180 C 20.741 3.156,19.841 2.256,18.820 1.981 C 18.531 1.904,17.742 1.869,17.450 1.922 M18.494 4.001 C 18.716 4.112,18.882 4.280,19.007 4.520 C 19.129 4.755,19.137 5.219,19.023 5.460 C 18.927 5.664,5.906 18.714,5.640 18.873 C 5.465 18.977,5.440 18.980,4.726 18.993 L 3.992 19.006 4.007 18.273 C 4.019 17.660,4.034 17.517,4.095 17.400 C 4.179 17.238,17.188 4.200,17.406 4.059 C 17.486 4.007,17.612 3.946,17.686 3.924 C 17.894 3.860,18.286 3.897,18.494 4.001 M11.695 19.057 C 11.466 19.129,11.256 19.299,11.128 19.516 C 11.037 19.672,11.020 19.746,11.020 20.000 C 11.020 20.256,11.036 20.328,11.131 20.489 C 11.256 20.702,11.449 20.864,11.670 20.943 C 11.892 21.022,21.108 21.022,21.330 20.943 C 21.551 20.864,21.744 20.702,21.869 20.489 C 21.964 20.328,21.980 20.256,21.980 20.000 C 21.980 19.746,21.963 19.672,21.872 19.516 C 21.740 19.293,21.533 19.128,21.290 19.055 C 21.029 18.976,11.946 18.978,11.695 19.057 " stroke="none" fill-rule="evenodd" fill="black"></path></svg>