<svg width="24" height="24" viewBox="0 0 24 24" fill="none" xmlns="http://www.w3.org/2000/svg"><path d="M18.611 1.204 C 17.903 1.270,17.178 1.565,16.620 2.016 C 16.444 2.158,13.210 5.367,9.434 9.147 C 4.396 14.189,2.524 16.088,2.405 16.274 C 2.176 16.633,2.018 17.072,1.943 17.560 C 1.797 18.507,1.485 21.544,1.518 21.691 C 1.609 22.094,1.901 22.382,2.320 22.483 C 2.459 22.516,5.484 22.204,6.440 22.057 C 6.928 21.982,7.367 21.825,7.726 21.595 C 7.912 21.476,9.815 19.599,14.853 14.566 C 18.633 10.790,21.841 7.557,21.982 7.383 C 22.308 6.979,22.574 6.450,22.707 5.940 C 22.794 5.604,22.811 5.453,22.811 5.000 C 22.811 4.547,22.794 4.396,22.707 4.060 C 22.225 2.217,20.518 1.027,18.611 1.204 M19.624 3.286 C 20.632 3.657,21.097 4.813,20.636 5.800 C 20.528 6.031,20.375 6.200,19.258 7.320 L 18.001 8.580 16.711 7.289 L 15.420 5.999 16.680 4.742 C 17.824 3.601,17.965 3.473,18.214 3.357 C 18.648 3.154,19.190 3.127,19.624 3.286 M15.300 8.720 L 16.580 10.000 11.621 14.959 C 7.631 18.950,6.627 19.933,6.481 19.995 C 6.350 20.052,5.937 20.114,4.988 20.221 C 4.266 20.302,3.667 20.361,3.657 20.351 C 3.639 20.332,3.901 17.909,3.945 17.700 C 3.958 17.634,3.996 17.526,4.029 17.460 C 4.080 17.355,13.947 7.440,14.000 7.440 C 14.011 7.440,14.596 8.016,15.300 8.720 " stroke="none" fill-rule="evenodd" fill="black"></path></svg>