<svg width="24" height="24" viewBox="0 0 24 24" fill="none" xmlns="http://www.w3.org/2000/svg"><path d="M15.400 1.287 C 15.044 1.338,14.515 1.521,14.190 1.706 C 13.762 1.949,13.425 2.218,12.780 2.826 C 11.691 3.854,2.498 13.093,2.228 13.432 C 1.690 14.106,1.433 14.630,1.303 15.318 C 1.136 16.198,1.319 17.202,1.781 17.943 C 2.078 18.419,2.427 18.823,3.431 19.845 C 4.680 21.119,5.092 21.484,5.500 21.681 C 6.178 22.007,5.419 21.980,13.820 21.980 C 20.952 21.980,21.306 21.977,21.432 21.908 C 21.759 21.729,22.000 21.344,22.000 21.000 C 22.000 20.595,21.691 20.174,21.310 20.061 C 21.132 20.008,20.534 20.000,16.764 20.000 L 12.423 20.000 16.965 15.450 C 19.463 12.947,21.626 10.751,21.772 10.568 C 22.318 9.884,22.580 9.344,22.700 8.654 C 22.901 7.501,22.605 6.467,21.785 5.452 C 21.221 4.755,18.919 2.481,18.350 2.060 C 17.438 1.383,16.481 1.133,15.400 1.287 M16.419 3.301 C 16.944 3.412,17.280 3.687,18.961 5.387 C 20.498 6.940,20.638 7.126,20.728 7.749 C 20.786 8.150,20.704 8.590,20.514 8.904 C 20.333 9.202,19.786 9.803,18.824 10.760 L 18.000 11.580 15.210 8.790 L 12.420 6.000 13.240 5.176 C 14.197 4.214,14.798 3.667,15.096 3.486 C 15.315 3.354,15.699 3.248,15.980 3.244 C 16.068 3.243,16.266 3.268,16.419 3.301 M13.800 10.220 L 16.580 13.000 13.200 16.383 C 11.280 18.304,9.742 19.811,9.640 19.873 L 9.460 19.980 8.000 19.980 L 6.540 19.980 6.360 19.874 C 6.143 19.746,3.938 17.527,3.663 17.160 C 3.416 16.830,3.335 16.648,3.276 16.288 C 3.239 16.065,3.239 15.935,3.276 15.712 C 3.335 15.354,3.416 15.171,3.661 14.840 C 3.829 14.614,10.943 7.440,10.999 7.440 C 11.011 7.440,12.271 8.691,13.800 10.220 " stroke="none" fill-rule="evenodd" fill="black"></path></svg>