<svg width="24" height="24" viewBox="0 0 24 24" fill="none" xmlns="http://www.w3.org/2000/svg"><path d="M14.695 2.057 C 14.466 2.129,14.256 2.299,14.128 2.516 C 14.037 2.672,14.020 2.746,14.020 3.000 C 14.020 3.256,14.036 3.328,14.131 3.489 C 14.256 3.702,14.449 3.864,14.670 3.943 C 14.787 3.985,15.234 3.997,16.700 3.998 L 18.580 4.000 11.300 11.280 L 4.020 18.560 4.000 16.630 L 3.980 14.700 3.871 14.514 C 3.479 13.848,2.521 13.848,2.129 14.514 L 2.020 14.700 2.020 18.000 L 2.020 21.300 2.131 21.489 C 2.256 21.702,2.449 21.864,2.670 21.943 C 2.891 22.022,9.109 22.022,9.330 21.943 C 9.551 21.864,9.744 21.702,9.869 21.489 C 9.964 21.328,9.980 21.256,9.980 21.000 C 9.980 20.746,9.963 20.672,9.872 20.516 C 9.813 20.415,9.698 20.282,9.618 20.221 C 9.337 20.007,9.265 20.000,7.264 20.000 L 5.420 20.000 12.700 12.720 L 19.980 5.440 20.000 7.373 L 20.020 9.306 20.141 9.503 C 20.543 10.156,21.457 10.156,21.859 9.503 L 21.980 9.306 21.980 6.003 L 21.980 2.700 21.872 2.516 C 21.747 2.303,21.550 2.141,21.316 2.058 C 21.085 1.977,14.955 1.976,14.695 2.057 " stroke="none" fill-rule="evenodd" fill="black"></path></svg>