<svg width="24" height="24" viewBox="0 0 24 24" fill="none" xmlns="http://www.w3.org/2000/svg"><path d="M14.695 2.057 C 14.466 2.129,14.256 2.299,14.128 2.516 C 14.037 2.672,14.020 2.746,14.020 3.000 C 14.020 3.256,14.036 3.328,14.131 3.489 C 14.256 3.702,14.449 3.864,14.670 3.943 C 14.787 3.985,15.234 3.997,16.700 3.998 L 18.579 4.000 16.374 6.210 C 15.161 7.425,14.138 8.481,14.101 8.555 C 13.872 9.010,14.056 9.601,14.508 9.867 C 14.673 9.964,14.742 9.980,15.000 9.979 C 15.212 9.979,15.341 9.957,15.440 9.905 C 15.517 9.865,16.574 8.840,17.789 7.628 L 19.997 5.424 20.009 7.365 L 20.020 9.306 20.141 9.503 C 20.543 10.156,21.457 10.156,21.859 9.503 L 21.980 9.306 21.980 6.003 L 21.980 2.700 21.872 2.516 C 21.747 2.303,21.550 2.141,21.316 2.058 C 21.085 1.977,14.955 1.976,14.695 2.057 M5.749 3.045 C 4.967 3.120,4.402 3.371,3.890 3.870 C 3.491 4.260,3.236 4.731,3.094 5.340 C 3.026 5.632,3.020 5.860,3.020 7.983 L 3.020 10.306 3.141 10.503 C 3.543 11.156,4.457 11.156,4.859 10.503 L 4.980 10.306 5.004 8.043 C 5.021 6.418,5.041 5.737,5.077 5.626 C 5.140 5.428,5.428 5.140,5.626 5.077 C 5.737 5.041,6.418 5.021,8.040 5.004 L 10.300 4.980 10.492 4.867 C 11.248 4.423,11.123 3.306,10.290 3.055 C 10.144 3.011,9.698 3.001,8.104 3.005 C 7.002 3.008,5.942 3.026,5.749 3.045 M19.695 13.057 C 19.466 13.129,19.256 13.299,19.128 13.516 L 19.020 13.700 18.996 15.960 C 18.980 17.477,18.958 18.266,18.927 18.360 C 18.860 18.566,18.666 18.780,18.450 18.886 L 18.260 18.980 16.000 19.000 C 14.328 19.016,13.711 19.034,13.627 19.071 C 13.429 19.158,13.239 19.327,13.128 19.516 C 13.037 19.672,13.020 19.746,13.020 20.000 C 13.020 20.257,13.036 20.327,13.133 20.492 C 13.262 20.712,13.502 20.901,13.731 20.963 C 13.839 20.992,14.623 21.001,16.155 20.990 C 18.297 20.974,18.437 20.969,18.740 20.890 C 19.320 20.738,19.726 20.510,20.118 20.118 C 20.526 19.711,20.764 19.269,20.906 18.660 C 20.974 18.368,20.980 18.140,20.980 16.020 L 20.980 13.700 20.872 13.516 C 20.628 13.101,20.150 12.915,19.695 13.057 M2.695 14.057 C 2.466 14.129,2.256 14.299,2.128 14.516 L 2.020 14.700 2.020 18.000 L 2.020 21.300 2.131 21.489 C 2.256 21.702,2.449 21.864,2.670 21.943 C 2.891 22.022,9.109 22.022,9.330 21.943 C 9.551 21.864,9.744 21.702,9.869 21.489 C 9.964 21.328,9.980 21.256,9.980 21.000 C 9.980 20.746,9.963 20.672,9.872 20.516 C 9.813 20.415,9.698 20.282,9.618 20.221 C 9.337 20.007,9.265 20.000,7.264 20.000 L 5.421 20.000 7.626 17.790 C 8.839 16.575,9.865 15.517,9.905 15.440 C 9.957 15.341,9.979 15.212,9.979 15.000 C 9.980 14.745,9.964 14.672,9.872 14.516 C 9.618 14.084,9.138 13.906,8.657 14.065 C 8.479 14.124,8.245 14.346,6.231 16.353 L 4.003 18.575 3.991 16.637 L 3.980 14.700 3.872 14.516 C 3.628 14.101,3.150 13.915,2.695 14.057 " stroke="none" fill-rule="evenodd" fill="black"></path></svg>