<svg width="24" height="24" viewBox="0 0 24 24" fill="none" xmlns="http://www.w3.org/2000/svg"><path d="M2.670 2.061 C 2.448 2.142,2.250 2.309,2.128 2.516 L 2.020 2.700 2.020 6.003 L 2.020 9.306 2.141 9.503 C 2.543 10.156,3.457 10.156,3.859 9.503 L 3.980 9.306 3.991 7.365 L 4.003 5.424 6.211 7.628 C 7.426 8.840,8.481 9.862,8.555 9.899 C 9.010 10.128,9.601 9.944,9.867 9.492 C 9.964 9.327,9.980 9.258,9.979 9.000 C 9.979 8.788,9.957 8.659,9.905 8.560 C 9.865 8.483,8.839 7.425,7.626 6.210 L 5.421 4.000 7.300 3.998 C 8.766 3.997,9.213 3.985,9.330 3.943 C 9.551 3.864,9.744 3.702,9.869 3.489 C 9.964 3.328,9.980 3.256,9.980 3.000 C 9.980 2.746,9.963 2.672,9.872 2.516 C 9.740 2.293,9.533 2.128,9.290 2.055 C 9.021 1.974,2.892 1.979,2.670 2.061 M14.695 2.057 C 14.466 2.129,14.256 2.299,14.128 2.516 C 14.037 2.672,14.020 2.746,14.020 3.000 C 14.020 3.256,14.036 3.328,14.131 3.489 C 14.256 3.702,14.449 3.864,14.670 3.943 C 14.787 3.985,15.234 3.997,16.700 3.998 L 18.579 4.000 16.374 6.210 C 15.161 7.425,14.138 8.481,14.101 8.555 C 13.872 9.010,14.056 9.601,14.508 9.867 C 14.673 9.964,14.742 9.980,15.000 9.979 C 15.212 9.979,15.341 9.957,15.440 9.905 C 15.517 9.865,16.574 8.840,17.789 7.628 L 19.997 5.424 20.009 7.365 L 20.020 9.306 20.141 9.503 C 20.543 10.156,21.457 10.156,21.859 9.503 L 21.980 9.306 21.980 6.003 L 21.980 2.700 21.872 2.516 C 21.747 2.303,21.550 2.141,21.316 2.058 C 21.085 1.977,14.955 1.976,14.695 2.057 M2.695 14.057 C 2.466 14.129,2.256 14.299,2.128 14.516 L 2.020 14.700 2.020 18.000 L 2.020 21.300 2.131 21.489 C 2.256 21.702,2.449 21.864,2.670 21.943 C 2.891 22.022,9.109 22.022,9.330 21.943 C 9.551 21.864,9.744 21.702,9.869 21.489 C 9.964 21.328,9.980 21.256,9.980 21.000 C 9.980 20.746,9.963 20.672,9.872 20.516 C 9.813 20.415,9.698 20.282,9.618 20.221 C 9.337 20.007,9.265 20.000,7.264 20.000 L 5.421 20.000 7.626 17.790 C 8.839 16.575,9.865 15.517,9.905 15.440 C 9.957 15.341,9.979 15.212,9.979 15.000 C 9.980 14.745,9.964 14.672,9.872 14.516 C 9.618 14.084,9.138 13.906,8.657 14.065 C 8.479 14.124,8.245 14.346,6.231 16.353 L 4.003 18.575 3.991 16.637 L 3.980 14.700 3.872 14.516 C 3.628 14.101,3.150 13.915,2.695 14.057 M14.670 14.061 C 14.448 14.142,14.250 14.309,14.128 14.516 C 14.036 14.672,14.020 14.745,14.021 15.000 C 14.021 15.212,14.043 15.341,14.095 15.440 C 14.135 15.517,15.161 16.575,16.374 17.790 L 18.579 20.000 16.736 20.000 C 14.735 20.000,14.663 20.007,14.382 20.221 C 14.302 20.282,14.187 20.415,14.128 20.516 C 14.037 20.672,14.020 20.746,14.020 21.000 C 14.020 21.256,14.036 21.328,14.131 21.489 C 14.256 21.702,14.449 21.864,14.670 21.943 C 14.891 22.022,21.109 22.022,21.330 21.943 C 21.551 21.864,21.744 21.702,21.869 21.489 L 21.980 21.300 21.980 18.000 L 21.980 14.700 21.871 14.514 C 21.479 13.848,20.521 13.848,20.129 14.514 L 20.020 14.700 20.009 16.637 L 19.997 18.575 17.769 16.353 C 15.755 14.346,15.521 14.124,15.343 14.065 C 15.107 13.987,14.874 13.986,14.670 14.061 " stroke="none" fill-rule="evenodd" fill="black"></path></svg>