<svg width="24" height="24" viewBox="0 0 24 24" fill="none" xmlns="http://www.w3.org/2000/svg"><path d="M2.670 2.061 C 2.448 2.142,2.250 2.309,2.128 2.516 L 2.020 2.700 2.020 5.503 L 2.020 8.306 2.141 8.503 C 2.543 9.156,3.457 9.156,3.859 8.503 L 3.980 8.306 3.992 6.866 L 4.004 5.425 5.712 7.128 C 6.651 8.065,7.483 8.865,7.560 8.905 C 7.659 8.957,7.788 8.979,8.000 8.979 C 8.258 8.980,8.327 8.964,8.492 8.867 C 8.714 8.737,8.901 8.498,8.965 8.264 C 9.019 8.061,8.989 7.733,8.899 7.555 C 8.862 7.481,8.064 6.651,7.126 5.710 L 5.421 4.000 6.801 3.998 C 8.284 3.996,8.350 3.989,8.619 3.783 C 8.696 3.725,8.808 3.592,8.869 3.489 C 8.964 3.328,8.980 3.256,8.980 3.000 C 8.980 2.746,8.963 2.672,8.872 2.516 C 8.740 2.293,8.533 2.128,8.290 2.055 C 8.022 1.974,2.891 1.980,2.670 2.061 M15.695 2.057 C 15.466 2.129,15.256 2.299,15.128 2.516 C 15.037 2.672,15.020 2.746,15.020 3.000 C 15.020 3.256,15.036 3.328,15.131 3.489 C 15.192 3.592,15.304 3.725,15.381 3.783 C 15.650 3.989,15.716 3.996,17.199 3.998 L 18.579 4.000 16.874 5.710 C 15.936 6.651,15.138 7.481,15.101 7.555 C 14.872 8.010,15.056 8.601,15.508 8.867 C 15.673 8.964,15.742 8.980,16.000 8.979 C 16.212 8.979,16.341 8.957,16.440 8.905 C 16.517 8.865,17.349 8.065,18.288 7.128 L 19.996 5.425 20.008 6.866 L 20.020 8.306 20.141 8.503 C 20.543 9.156,21.457 9.156,21.859 8.503 L 21.980 8.306 21.980 5.503 L 21.980 2.700 21.872 2.516 C 21.747 2.303,21.550 2.141,21.316 2.058 C 21.086 1.977,15.954 1.976,15.695 2.057 M2.695 15.057 C 2.466 15.129,2.256 15.299,2.128 15.516 L 2.020 15.700 2.020 18.500 L 2.020 21.300 2.131 21.489 C 2.256 21.702,2.449 21.864,2.670 21.943 C 2.890 22.021,8.110 22.021,8.330 21.943 C 8.551 21.864,8.744 21.702,8.869 21.489 C 8.964 21.328,8.980 21.256,8.980 21.000 C 8.980 20.746,8.963 20.672,8.872 20.516 C 8.813 20.415,8.698 20.282,8.618 20.221 C 8.347 20.015,8.225 20.000,6.764 20.000 L 5.421 20.000 7.126 18.290 C 8.064 17.350,8.865 16.517,8.905 16.440 C 8.957 16.341,8.979 16.212,8.979 16.000 C 8.980 15.745,8.964 15.672,8.872 15.516 C 8.618 15.084,8.137 14.906,7.657 15.066 C 7.481 15.124,7.279 15.312,5.732 16.852 L 4.004 18.573 3.992 17.137 L 3.980 15.700 3.872 15.516 C 3.628 15.101,3.150 14.915,2.695 15.057 M15.670 15.061 C 15.448 15.142,15.250 15.309,15.128 15.516 C 15.036 15.672,15.020 15.745,15.021 16.000 C 15.021 16.212,15.043 16.341,15.095 16.440 C 15.135 16.517,15.936 17.350,16.874 18.290 L 18.579 20.000 17.236 20.000 C 15.775 20.000,15.653 20.015,15.382 20.221 C 15.302 20.282,15.187 20.415,15.128 20.516 C 15.037 20.672,15.020 20.746,15.020 21.000 C 15.020 21.256,15.036 21.328,15.131 21.489 C 15.256 21.702,15.449 21.864,15.670 21.943 C 15.890 22.021,21.110 22.021,21.330 21.943 C 21.551 21.864,21.744 21.702,21.869 21.489 L 21.980 21.300 21.980 18.500 L 21.980 15.700 21.871 15.514 C 21.479 14.848,20.521 14.848,20.129 15.514 L 20.020 15.700 20.008 17.137 L 19.996 18.573 18.268 16.852 C 16.721 15.312,16.519 15.124,16.343 15.066 C 16.108 14.987,15.875 14.986,15.670 15.061 " stroke="none" fill-rule="evenodd" fill="black"></path></svg>