<svg width="24" height="24" viewBox="0 0 24 24" fill="none" xmlns="http://www.w3.org/2000/svg"><path d="M5.920 2.042 C 5.155 2.091,4.674 2.204,4.180 2.451 C 3.096 2.993,2.372 3.941,2.126 5.142 C 2.025 5.631,1.995 6.446,2.007 8.343 L 2.020 10.306 2.141 10.503 C 2.543 11.156,3.457 11.156,3.859 10.503 L 3.980 10.306 4.006 8.043 C 4.034 5.622,4.047 5.461,4.248 5.048 C 4.366 4.806,4.806 4.366,5.048 4.248 C 5.461 4.047,5.622 4.034,8.040 4.006 L 10.300 3.980 10.492 3.867 C 11.248 3.423,11.123 2.306,10.290 2.055 C 10.145 2.011,9.721 2.001,8.244 2.006 C 7.219 2.009,6.173 2.025,5.920 2.042 M14.695 2.057 C 14.466 2.129,14.256 2.299,14.128 2.516 C 14.037 2.672,14.020 2.746,14.020 3.000 C 14.020 3.256,14.036 3.328,14.131 3.489 C 14.256 3.702,14.449 3.864,14.670 3.943 C 14.787 3.985,15.234 3.997,16.700 3.998 L 18.579 4.000 16.374 6.210 C 15.161 7.425,14.138 8.481,14.101 8.555 C 13.872 9.010,14.056 9.601,14.508 9.867 C 14.673 9.964,14.742 9.980,15.000 9.979 C 15.212 9.979,15.341 9.957,15.440 9.905 C 15.517 9.865,16.574 8.840,17.789 7.628 L 19.997 5.424 20.009 7.365 L 20.020 9.306 20.141 9.503 C 20.543 10.156,21.457 10.156,21.859 9.503 L 21.980 9.306 21.980 6.003 L 21.980 2.700 21.872 2.516 C 21.747 2.303,21.550 2.141,21.316 2.058 C 21.085 1.977,14.955 1.976,14.695 2.057 M20.695 13.057 C 20.466 13.129,20.256 13.299,20.128 13.516 L 20.020 13.700 19.994 15.960 C 19.966 18.378,19.953 18.539,19.752 18.952 C 19.627 19.210,19.190 19.638,18.920 19.767 C 18.518 19.960,18.368 19.972,15.980 19.998 C 14.343 20.015,13.710 20.035,13.627 20.071 C 13.430 20.157,13.239 20.327,13.128 20.516 C 13.037 20.672,13.020 20.746,13.020 21.000 C 13.020 21.256,13.036 21.328,13.131 21.489 C 13.256 21.702,13.449 21.864,13.670 21.943 C 13.787 21.985,14.247 21.997,15.780 21.998 C 18.107 22.000,18.624 21.965,19.320 21.755 C 20.422 21.423,21.425 20.421,21.755 19.320 C 21.971 18.600,22.008 18.034,21.993 15.660 L 21.980 13.700 21.872 13.516 C 21.628 13.101,21.150 12.915,20.695 13.057 M2.695 14.057 C 2.466 14.129,2.256 14.299,2.128 14.516 L 2.020 14.700 2.020 18.000 L 2.020 21.300 2.131 21.489 C 2.256 21.702,2.449 21.864,2.670 21.943 C 2.891 22.022,9.109 22.022,9.330 21.943 C 9.551 21.864,9.744 21.702,9.869 21.489 C 9.964 21.328,9.980 21.256,9.980 21.000 C 9.980 20.746,9.963 20.672,9.872 20.516 C 9.813 20.415,9.698 20.282,9.618 20.221 C 9.337 20.007,9.265 20.000,7.264 20.000 L 5.421 20.000 7.626 17.790 C 8.839 16.575,9.865 15.517,9.905 15.440 C 9.957 15.341,9.979 15.212,9.979 15.000 C 9.980 14.745,9.964 14.672,9.872 14.516 C 9.618 14.084,9.138 13.906,8.657 14.065 C 8.479 14.124,8.245 14.346,6.231 16.353 L 4.003 18.575 3.991 16.637 L 3.980 14.700 3.872 14.516 C 3.628 14.101,3.150 13.915,2.695 14.057 " stroke="none" fill-rule="evenodd" fill="black"></path></svg>