<svg width="24" height="24" viewBox="0 0 24 24" fill="none" xmlns="http://www.w3.org/2000/svg"><path d="M14.695 2.057 C 14.466 2.129,14.256 2.299,14.128 2.516 C 14.037 2.672,14.020 2.746,14.020 3.000 C 14.020 3.256,14.036 3.328,14.131 3.489 C 14.256 3.702,14.449 3.864,14.670 3.943 C 14.787 3.985,15.234 3.997,16.700 3.998 L 18.579 4.000 15.874 6.710 C 14.386 8.200,13.138 9.481,13.101 9.555 C 12.872 10.010,13.056 10.601,13.508 10.867 C 13.673 10.964,13.742 10.980,14.000 10.979 C 14.212 10.979,14.341 10.957,14.440 10.905 C 14.517 10.865,15.799 9.615,17.289 8.128 L 19.997 5.424 20.009 7.365 L 20.020 9.306 20.141 9.503 C 20.543 10.156,21.457 10.156,21.859 9.503 L 21.980 9.306 21.980 6.003 L 21.980 2.700 21.872 2.516 C 21.747 2.303,21.550 2.141,21.316 2.058 C 21.085 1.977,14.955 1.976,14.695 2.057 M9.640 13.068 C 9.485 13.121,9.081 13.508,6.731 15.853 L 4.003 18.575 3.991 16.638 L 3.980 14.700 3.871 14.514 C 3.479 13.848,2.521 13.848,2.129 14.514 L 2.020 14.700 2.020 18.000 L 2.020 21.300 2.131 21.489 C 2.256 21.702,2.449 21.864,2.670 21.943 C 2.891 22.022,9.109 22.022,9.330 21.943 C 9.551 21.864,9.744 21.702,9.869 21.489 C 9.964 21.328,9.980 21.256,9.980 21.000 C 9.980 20.746,9.963 20.672,9.872 20.516 C 9.813 20.415,9.698 20.282,9.618 20.221 C 9.337 20.007,9.265 20.000,7.264 20.000 L 5.421 20.000 8.126 17.290 C 9.614 15.800,10.865 14.517,10.905 14.440 C 10.957 14.341,10.979 14.212,10.979 14.000 C 10.980 13.745,10.964 13.672,10.872 13.516 C 10.617 13.083,10.122 12.903,9.640 13.068 " stroke="none" fill-rule="evenodd" fill="black"></path></svg>