<svg width="24" height="24" viewBox="0 0 24 24" fill="none" xmlns="http://www.w3.org/2000/svg"><path d="M2.670 2.061 C 2.448 2.142,2.250 2.309,2.128 2.516 C 2.036 2.672,2.020 2.745,2.021 3.000 C 2.021 3.212,2.043 3.341,2.095 3.440 C 2.135 3.517,2.850 4.264,3.684 5.100 L 5.199 6.620 4.949 6.820 C 4.598 7.102,3.564 8.141,3.137 8.640 C 2.361 9.550,1.494 10.795,1.290 11.296 C 1.170 11.589,1.129 12.078,1.196 12.402 C 1.256 12.689,1.430 13.031,1.806 13.600 C 3.424 16.046,5.617 18.039,7.817 19.059 C 10.709 20.402,13.942 20.293,16.767 18.758 L 17.136 18.558 18.778 20.195 C 19.681 21.095,20.483 21.865,20.560 21.905 C 20.659 21.957,20.788 21.979,21.000 21.979 C 21.258 21.980,21.327 21.964,21.492 21.867 C 21.968 21.587,22.139 20.967,21.865 20.508 C 21.810 20.416,17.665 16.243,12.653 11.235 C 4.231 2.820,3.525 2.125,3.343 2.065 C 3.107 1.987,2.874 1.986,2.670 2.061 M11.400 4.024 C 10.295 4.121,10.079 4.208,9.855 4.650 C 9.598 5.157,9.824 5.767,10.358 6.010 C 10.522 6.084,10.576 6.088,11.038 6.055 C 11.690 6.009,12.602 6.021,13.036 6.081 C 14.988 6.350,16.766 7.324,18.543 9.098 C 19.335 9.888,19.870 10.535,20.466 11.422 L 20.855 12.001 20.469 12.570 C 20.257 12.884,19.919 13.347,19.718 13.600 C 19.289 14.141,19.230 14.260,19.230 14.580 C 19.230 15.153,19.649 15.570,20.225 15.570 C 20.701 15.570,20.927 15.368,21.814 14.149 C 22.561 13.122,22.797 12.655,22.830 12.138 C 22.867 11.558,22.743 11.222,22.185 10.386 C 19.798 6.812,16.651 4.574,13.340 4.098 C 12.939 4.040,11.738 3.994,11.400 4.024 M8.498 10.069 C 8.465 10.119,8.375 10.316,8.299 10.506 C 7.470 12.561,8.457 14.873,10.516 15.705 C 11.230 15.994,12.024 16.070,12.757 15.921 C 13.132 15.844,13.740 15.627,13.931 15.502 C 14.020 15.444,14.044 15.464,14.840 16.260 C 15.289 16.709,15.648 17.085,15.638 17.094 C 15.549 17.178,14.517 17.584,14.060 17.714 C 12.852 18.059,11.391 18.084,10.200 17.782 C 8.472 17.344,7.018 16.461,5.457 14.902 C 4.663 14.109,4.126 13.460,3.534 12.578 L 3.145 11.999 3.531 11.428 C 4.285 10.313,5.295 9.162,6.196 8.390 L 6.613 8.034 7.585 9.005 C 8.533 9.953,8.556 9.980,8.498 10.069 M11.298 12.718 C 11.957 13.378,12.484 13.930,12.468 13.945 C 12.416 13.997,11.819 14.010,11.596 13.963 C 11.221 13.885,10.896 13.705,10.602 13.410 C 10.283 13.089,10.102 12.746,10.036 12.334 C 9.991 12.057,10.016 11.520,10.073 11.520 C 10.088 11.520,10.640 12.059,11.298 12.718 " stroke="none" fill-rule="evenodd" fill="black"></path></svg>