<svg width="24" height="24" viewBox="0 0 24 24" fill="none" xmlns="http://www.w3.org/2000/svg"><path d="M11.320 4.023 C 11.243 4.032,11.009 4.059,10.800 4.083 C 7.524 4.457,4.233 6.766,1.815 10.386 C 1.291 11.171,1.162 11.490,1.162 12.000 C 1.162 12.509,1.285 12.814,1.810 13.604 C 3.930 16.796,6.779 19.008,9.680 19.714 C 10.552 19.927,11.004 19.978,12.000 19.978 C 12.996 19.978,13.448 19.927,14.320 19.714 C 17.219 19.008,20.047 16.815,22.185 13.614 C 22.709 12.829,22.838 12.510,22.838 12.000 C 22.838 11.490,22.709 11.171,22.185 10.386 C 20.488 7.845,18.336 5.919,16.031 4.877 C 15.189 4.497,14.290 4.236,13.340 4.097 C 12.951 4.040,11.601 3.991,11.320 4.023 M13.060 6.084 C 15.009 6.362,16.773 7.331,18.543 9.098 C 19.335 9.888,19.870 10.535,20.466 11.422 L 20.854 12.000 20.466 12.578 C 19.870 13.466,19.335 14.112,18.543 14.901 C 16.957 16.484,15.490 17.368,13.740 17.795 C 13.184 17.930,12.721 17.979,12.000 17.979 C 11.279 17.979,10.816 17.930,10.260 17.795 C 8.510 17.368,7.038 16.481,5.457 14.902 C 4.664 14.109,4.126 13.460,3.534 12.578 L 3.146 12.000 3.534 11.422 C 4.130 10.535,4.665 9.888,5.457 9.098 C 7.404 7.154,9.265 6.210,11.520 6.024 C 11.790 6.001,12.741 6.038,13.060 6.084 M11.358 8.061 C 10.241 8.235,9.156 8.965,8.579 9.932 C 7.314 12.050,8.229 14.784,10.512 15.704 C 12.832 16.639,15.415 15.239,15.917 12.773 C 16.368 10.563,14.845 8.396,12.605 8.058 C 12.144 7.989,11.816 7.990,11.358 8.061 M12.478 10.062 C 13.150 10.215,13.750 10.801,13.927 11.477 C 14.118 12.211,13.903 12.948,13.347 13.465 C 12.721 14.046,11.841 14.166,11.070 13.775 C 10.773 13.625,10.362 13.198,10.207 12.880 C 9.848 12.143,9.981 11.249,10.539 10.649 C 11.044 10.105,11.741 9.895,12.478 10.062 " stroke="none" fill-rule="evenodd" fill="black"></path></svg>