<svg width="24" height="24" viewBox="0 0 24 24" fill="none" xmlns="http://www.w3.org/2000/svg"><path d="M11.280 1.023 C 11.203 1.032,10.951 1.059,10.720 1.083 C 9.527 1.210,8.337 1.558,7.180 2.120 C 6.045 2.671,5.193 3.285,4.238 4.239 C 3.277 5.198,2.643 6.080,2.097 7.220 C 0.301 10.968,0.728 15.286,3.226 18.633 C 3.701 19.269,4.753 20.316,5.400 20.797 C 9.364 23.745,14.666 23.734,18.637 20.770 C 19.246 20.316,20.316 19.246,20.770 18.637 C 23.744 14.652,23.744 9.348,20.770 5.363 C 20.316 4.755,19.247 3.686,18.640 3.235 C 17.045 2.049,15.365 1.360,13.423 1.096 C 13.000 1.038,11.574 0.990,11.280 1.023 M13.320 3.101 C 15.883 3.488,18.124 4.931,19.560 7.120 C 19.863 7.583,20.303 8.479,20.492 9.020 C 20.838 10.013,20.977 10.865,20.977 12.000 C 20.977 13.493,20.720 14.621,20.080 15.940 C 19.375 17.394,18.311 18.607,16.927 19.532 C 16.138 20.060,14.876 20.588,13.908 20.797 C 11.266 21.366,8.479 20.708,6.370 19.019 C 4.857 17.807,3.722 16.029,3.267 14.160 C 3.081 13.397,3.023 12.888,3.023 12.000 C 3.023 10.507,3.280 9.379,3.920 8.060 C 4.971 5.891,6.877 4.221,9.160 3.466 C 9.865 3.233,10.432 3.118,11.340 3.024 C 11.662 2.991,12.911 3.039,13.320 3.101 M6.665 8.299 C 6.439 8.379,6.234 8.561,6.120 8.783 C 6.041 8.938,6.020 9.036,6.021 9.259 C 6.023 9.598,6.083 9.724,6.396 10.054 C 7.547 11.267,9.270 11.316,10.486 10.169 C 10.826 9.848,10.958 9.632,10.987 9.352 C 11.062 8.624,10.414 8.091,9.706 8.297 C 9.526 8.349,9.422 8.416,9.205 8.621 C 8.661 9.134,8.358 9.135,7.802 8.625 C 7.408 8.263,7.052 8.161,6.665 8.299 M13.665 8.299 C 13.439 8.379,13.234 8.561,13.120 8.783 C 13.041 8.938,13.020 9.036,13.021 9.259 C 13.023 9.598,13.083 9.724,13.396 10.054 C 14.547 11.267,16.270 11.316,17.486 10.169 C 17.826 9.848,17.958 9.632,17.987 9.352 C 18.062 8.624,17.414 8.091,16.706 8.297 C 16.526 8.349,16.422 8.416,16.205 8.621 C 15.661 9.134,15.358 9.135,14.802 8.625 C 14.408 8.263,14.052 8.161,13.665 8.299 M11.460 13.025 C 10.481 13.131,9.553 13.476,8.683 14.057 C 7.909 14.573,7.187 15.298,7.057 15.689 C 6.829 16.376,7.383 17.062,8.105 16.988 C 8.406 16.957,8.513 16.886,9.010 16.386 C 9.690 15.703,10.326 15.319,11.113 15.116 C 12.479 14.765,13.960 15.267,15.068 16.458 C 15.434 16.851,15.599 16.957,15.888 16.987 C 16.617 17.062,17.172 16.379,16.943 15.689 C 16.813 15.298,16.091 14.573,15.317 14.057 C 14.598 13.577,13.800 13.241,13.040 13.100 C 12.701 13.036,11.763 12.992,11.460 13.025 " stroke="none" fill-rule="evenodd" fill="black"></path></svg>