<svg width="24" height="24" viewBox="0 0 24 24" fill="none" xmlns="http://www.w3.org/2000/svg"><path d="M5.920 2.042 C 5.667 2.058,5.343 2.092,5.200 2.118 C 4.027 2.326,2.999 3.086,2.465 4.141 C 2.101 4.858,1.984 5.676,2.007 7.343 L 2.020 8.307 2.141 8.503 C 2.543 9.156,3.457 9.156,3.859 8.503 L 3.980 8.306 4.007 7.063 C 4.044 5.342,4.104 5.096,4.600 4.600 C 5.096 4.104,5.342 4.044,7.060 4.007 L 8.300 3.980 8.492 3.867 C 9.248 3.423,9.123 2.306,8.290 2.055 C 8.089 1.994,6.763 1.987,5.920 2.042 M15.695 2.054 C 15.048 2.269,14.799 3.040,15.198 3.591 C 15.263 3.681,15.403 3.805,15.508 3.867 L 15.700 3.980 16.940 4.007 C 18.658 4.044,18.904 4.104,19.400 4.600 C 19.896 5.096,19.956 5.342,19.993 7.063 L 20.020 8.306 20.141 8.503 C 20.543 9.156,21.457 9.156,21.859 8.503 L 21.980 8.307 21.993 7.343 C 22.016 5.676,21.899 4.858,21.535 4.141 C 21.088 3.259,20.267 2.557,19.320 2.246 C 18.845 2.090,18.330 2.038,17.060 2.018 C 16.110 2.003,15.826 2.011,15.695 2.054 M7.240 7.035 C 6.940 7.133,6.691 7.352,6.574 7.620 C 6.517 7.750,6.501 7.932,6.488 8.595 C 6.470 9.508,6.507 9.801,6.671 10.049 C 7.088 10.680,8.050 10.616,8.385 9.934 L 8.500 9.700 8.500 8.760 C 8.500 8.066,8.486 7.779,8.445 7.665 C 8.375 7.466,8.150 7.217,7.946 7.113 C 7.771 7.024,7.399 6.983,7.240 7.035 M12.240 7.035 C 11.941 7.133,11.694 7.350,11.572 7.620 C 11.507 7.764,11.498 7.958,11.480 9.553 L 11.460 11.327 11.330 11.443 C 11.259 11.506,11.160 11.566,11.110 11.576 C 10.654 11.664,10.553 11.697,10.405 11.805 C 10.314 11.873,10.190 12.012,10.129 12.114 C 10.036 12.272,10.020 12.345,10.020 12.600 C 10.020 12.857,10.036 12.927,10.133 13.092 C 10.263 13.314,10.502 13.501,10.736 13.565 C 10.969 13.628,11.468 13.581,11.806 13.463 C 12.495 13.224,13.118 12.599,13.363 11.902 C 13.500 11.510,13.526 11.088,13.512 9.395 C 13.501 7.942,13.493 7.764,13.428 7.620 C 13.337 7.417,13.145 7.216,12.943 7.112 C 12.771 7.024,12.399 6.983,12.240 7.035 M16.240 7.035 C 15.940 7.133,15.691 7.352,15.574 7.620 C 15.517 7.750,15.501 7.932,15.488 8.595 C 15.470 9.508,15.507 9.801,15.671 10.049 C 16.088 10.680,17.050 10.616,17.385 9.934 L 17.500 9.700 17.500 8.760 C 17.500 8.066,17.486 7.779,17.445 7.665 C 17.375 7.466,17.150 7.217,16.946 7.113 C 16.771 7.024,16.399 6.983,16.240 7.035 M8.440 14.235 C 7.985 14.384,7.712 14.747,7.712 15.200 C 7.712 15.615,7.896 15.876,8.540 16.376 C 10.260 17.711,12.595 17.919,14.534 16.910 C 15.139 16.595,15.886 15.999,16.074 15.680 C 16.163 15.528,16.180 15.453,16.180 15.200 C 16.180 14.946,16.163 14.872,16.072 14.716 C 15.947 14.503,15.750 14.341,15.516 14.258 C 15.152 14.130,14.806 14.220,14.454 14.534 C 14.103 14.847,13.849 15.020,13.476 15.198 C 12.175 15.820,10.695 15.605,9.560 14.630 C 9.395 14.488,9.199 14.340,9.124 14.302 C 8.970 14.222,8.591 14.185,8.440 14.235 M2.695 15.057 C 2.466 15.129,2.256 15.299,2.128 15.516 L 2.020 15.700 2.007 16.660 C 1.984 18.322,2.101 19.143,2.464 19.858 C 2.999 20.913,3.979 21.647,5.160 21.876 C 5.826 22.005,8.025 22.052,8.330 21.943 C 8.551 21.864,8.744 21.702,8.869 21.489 C 8.964 21.328,8.980 21.256,8.980 21.000 C 8.980 20.746,8.963 20.672,8.872 20.516 C 8.760 20.326,8.567 20.155,8.373 20.073 C 8.300 20.042,7.824 20.015,7.020 19.997 C 6.338 19.981,5.672 19.947,5.540 19.920 C 5.162 19.845,4.888 19.694,4.600 19.403 C 4.103 18.901,4.044 18.657,4.007 16.940 L 3.980 15.700 3.872 15.516 C 3.628 15.101,3.150 14.915,2.695 15.057 M20.695 15.057 C 20.466 15.129,20.256 15.299,20.128 15.516 L 20.020 15.700 19.993 16.940 C 19.956 18.658,19.896 18.904,19.400 19.401 C 19.111 19.690,18.828 19.847,18.460 19.920 C 18.328 19.947,17.662 19.981,16.980 19.997 C 16.176 20.015,15.700 20.042,15.627 20.073 C 15.433 20.155,15.240 20.326,15.128 20.516 C 15.037 20.672,15.020 20.746,15.020 21.000 C 15.020 21.256,15.036 21.328,15.131 21.489 C 15.256 21.702,15.449 21.864,15.670 21.943 C 15.975 22.052,18.174 22.005,18.840 21.876 C 20.021 21.647,21.001 20.913,21.536 19.858 C 21.899 19.143,22.016 18.322,21.993 16.660 L 21.980 15.700 21.872 15.516 C 21.628 15.101,21.150 14.915,20.695 15.057 " stroke="none" fill-rule="evenodd" fill="black"></path></svg>