<svg width="24" height="24" viewBox="0 0 24 24" fill="none" xmlns="http://www.w3.org/2000/svg"><path d="M5.920 2.041 C 5.151 2.092,4.672 2.205,4.180 2.451 C 3.089 2.996,2.357 3.961,2.124 5.160 C 2.013 5.729,2.000 6.455,2.000 12.000 C 2.000 18.358,2.006 18.526,2.245 19.320 C 2.577 20.422,3.578 21.423,4.680 21.755 C 5.474 21.994,5.642 22.000,12.000 22.000 C 18.358 22.000,18.526 21.994,19.320 21.755 C 20.422 21.423,21.423 20.422,21.755 19.320 C 21.994 18.526,22.000 18.358,22.000 12.000 C 22.000 5.642,21.994 5.474,21.755 4.680 C 21.424 3.581,20.465 2.622,19.320 2.246 C 18.644 2.024,18.800 2.029,12.340 2.019 C 9.062 2.014,6.173 2.024,5.920 2.041 M18.492 4.091 C 18.894 4.188,19.109 4.309,19.400 4.600 C 19.696 4.895,19.814 5.109,19.912 5.528 C 19.975 5.797,19.980 6.313,19.980 12.000 C 19.980 17.687,19.975 18.203,19.912 18.472 C 19.814 18.891,19.696 19.104,19.400 19.401 C 19.101 19.701,18.820 19.851,18.418 19.928 C 18.010 20.005,5.990 20.005,5.582 19.927 C 5.170 19.850,4.898 19.704,4.600 19.403 C 4.303 19.104,4.186 18.890,4.088 18.472 C 4.025 18.203,4.020 17.687,4.020 12.000 C 4.020 6.313,4.025 5.797,4.088 5.528 C 4.175 5.155,4.294 4.918,4.520 4.667 C 4.883 4.262,5.282 4.091,5.980 4.039 C 6.200 4.023,9.044 4.013,12.300 4.018 C 17.643 4.024,18.247 4.032,18.492 4.091 M7.240 7.035 C 6.940 7.133,6.691 7.352,6.574 7.620 C 6.517 7.750,6.501 7.932,6.488 8.595 C 6.470 9.508,6.507 9.801,6.671 10.049 C 7.088 10.680,8.050 10.616,8.385 9.934 L 8.500 9.700 8.500 8.760 C 8.500 8.066,8.486 7.779,8.445 7.665 C 8.375 7.466,8.150 7.217,7.946 7.113 C 7.771 7.024,7.399 6.983,7.240 7.035 M12.240 7.035 C 11.941 7.133,11.694 7.350,11.572 7.620 C 11.507 7.764,11.498 7.958,11.480 9.553 L 11.460 11.327 11.330 11.443 C 11.259 11.506,11.160 11.566,11.110 11.576 C 10.654 11.664,10.553 11.697,10.405 11.805 C 10.314 11.873,10.190 12.012,10.129 12.114 C 10.036 12.272,10.020 12.345,10.020 12.600 C 10.020 12.857,10.036 12.927,10.133 13.092 C 10.263 13.314,10.502 13.501,10.736 13.565 C 10.969 13.628,11.468 13.581,11.806 13.463 C 12.495 13.224,13.118 12.599,13.363 11.902 C 13.500 11.510,13.526 11.088,13.512 9.395 C 13.501 7.942,13.493 7.764,13.428 7.620 C 13.337 7.417,13.145 7.216,12.943 7.112 C 12.771 7.024,12.399 6.983,12.240 7.035 M16.240 7.035 C 15.940 7.133,15.691 7.352,15.574 7.620 C 15.517 7.750,15.501 7.932,15.488 8.595 C 15.470 9.508,15.507 9.801,15.671 10.049 C 16.088 10.680,17.050 10.616,17.385 9.934 L 17.500 9.700 17.500 8.760 C 17.500 8.066,17.486 7.779,17.445 7.665 C 17.375 7.466,17.150 7.217,16.946 7.113 C 16.771 7.024,16.399 6.983,16.240 7.035 M8.440 14.235 C 7.985 14.384,7.712 14.747,7.712 15.200 C 7.712 15.615,7.896 15.876,8.540 16.376 C 10.260 17.711,12.595 17.919,14.534 16.910 C 15.139 16.595,15.886 15.999,16.074 15.680 C 16.163 15.528,16.180 15.453,16.180 15.200 C 16.180 14.946,16.163 14.872,16.072 14.716 C 15.947 14.503,15.750 14.341,15.516 14.258 C 15.152 14.130,14.806 14.220,14.454 14.534 C 14.103 14.847,13.849 15.020,13.476 15.198 C 12.175 15.820,10.695 15.605,9.560 14.630 C 9.395 14.488,9.199 14.340,9.124 14.302 C 8.970 14.222,8.591 14.185,8.440 14.235 " stroke="none" fill-rule="evenodd" fill="black"></path></svg>