<svg width="24" height="24" viewBox="0 0 24 24" fill="none" xmlns="http://www.w3.org/2000/svg"><path d="M11.280 1.023 C 11.203 1.032,10.951 1.059,10.720 1.083 C 9.527 1.210,8.337 1.558,7.180 2.120 C 6.045 2.671,5.193 3.285,4.238 4.239 C 3.277 5.198,2.643 6.080,2.097 7.220 C 0.301 10.968,0.728 15.286,3.226 18.633 C 3.701 19.269,4.753 20.316,5.400 20.797 C 9.364 23.745,14.666 23.734,18.637 20.770 C 19.246 20.316,20.316 19.246,20.770 18.637 C 23.744 14.652,23.744 9.348,20.770 5.363 C 20.316 4.755,19.247 3.686,18.640 3.235 C 17.045 2.049,15.365 1.360,13.423 1.096 C 13.000 1.038,11.574 0.990,11.280 1.023 M13.320 3.101 C 15.883 3.488,18.124 4.931,19.560 7.120 C 19.863 7.583,20.303 8.479,20.492 9.020 C 20.838 10.013,20.977 10.865,20.977 12.000 C 20.977 13.493,20.720 14.621,20.080 15.940 C 19.375 17.394,18.311 18.607,16.927 19.532 C 16.138 20.060,14.876 20.588,13.908 20.797 C 11.266 21.366,8.479 20.708,6.370 19.019 C 4.857 17.807,3.722 16.029,3.267 14.160 C 3.081 13.397,3.023 12.888,3.023 12.000 C 3.023 10.507,3.280 9.379,3.920 8.060 C 4.971 5.891,6.877 4.221,9.160 3.466 C 9.865 3.233,10.432 3.118,11.340 3.024 C 11.662 2.991,12.911 3.039,13.320 3.101 M6.665 8.299 C 6.439 8.379,6.234 8.561,6.120 8.783 C 6.041 8.938,6.020 9.036,6.021 9.259 C 6.023 9.598,6.083 9.724,6.396 10.054 C 7.547 11.267,9.270 11.316,10.486 10.169 C 10.826 9.848,10.958 9.632,10.987 9.352 C 11.062 8.624,10.414 8.091,9.706 8.297 C 9.526 8.349,9.422 8.416,9.205 8.621 C 8.661 9.134,8.358 9.135,7.802 8.625 C 7.408 8.263,7.052 8.161,6.665 8.299 M13.665 8.299 C 13.439 8.379,13.234 8.561,13.120 8.783 C 13.041 8.938,13.020 9.036,13.021 9.259 C 13.023 9.598,13.083 9.724,13.396 10.054 C 14.547 11.267,16.270 11.316,17.486 10.169 C 17.826 9.848,17.958 9.632,17.987 9.352 C 18.062 8.624,17.414 8.091,16.706 8.297 C 16.526 8.349,16.422 8.416,16.205 8.621 C 15.661 9.134,15.358 9.135,14.802 8.625 C 14.408 8.263,14.052 8.161,13.665 8.299 M7.670 13.055 C 7.157 13.246,6.887 13.799,7.057 14.311 C 7.189 14.708,7.906 15.424,8.714 15.965 C 9.205 16.294,9.718 16.546,10.240 16.714 C 10.915 16.932,11.230 16.980,12.000 16.980 C 12.770 16.980,13.085 16.932,13.760 16.714 C 14.282 16.546,14.795 16.294,15.286 15.965 C 16.094 15.424,16.811 14.708,16.943 14.311 C 17.121 13.776,16.804 13.181,16.264 13.036 C 16.071 12.984,15.722 13.016,15.556 13.102 C 15.492 13.135,15.237 13.366,14.990 13.614 C 14.330 14.276,13.772 14.622,12.971 14.867 C 12.655 14.963,12.558 14.974,12.000 14.974 C 11.442 14.974,11.345 14.963,11.029 14.867 C 10.228 14.622,9.670 14.276,9.010 13.614 C 8.763 13.366,8.506 13.134,8.439 13.100 C 8.266 13.010,7.854 12.986,7.670 13.055 " stroke="none" fill-rule="evenodd" fill="black"></path></svg>