<svg width="24" height="24" viewBox="0 0 24 24" fill="none" xmlns="http://www.w3.org/2000/svg"><path d="M11.280 1.023 C 11.203 1.032,10.951 1.059,10.720 1.083 C 9.527 1.210,8.337 1.558,7.180 2.120 C 6.045 2.671,5.193 3.285,4.238 4.239 C 3.277 5.198,2.643 6.080,2.097 7.220 C 0.301 10.968,0.728 15.286,3.226 18.633 C 3.701 19.269,4.753 20.316,5.400 20.797 C 9.364 23.745,14.666 23.734,18.637 20.770 C 19.246 20.316,20.316 19.246,20.770 18.637 C 23.744 14.652,23.744 9.348,20.770 5.363 C 20.316 4.755,19.247 3.686,18.640 3.235 C 17.045 2.049,15.365 1.360,13.423 1.096 C 13.000 1.038,11.574 0.990,11.280 1.023 M13.320 3.101 C 15.883 3.488,18.124 4.931,19.560 7.120 C 19.863 7.583,20.303 8.479,20.492 9.020 C 20.838 10.013,20.977 10.865,20.977 12.000 C 20.977 13.493,20.720 14.621,20.080 15.940 C 19.375 17.394,18.311 18.607,16.927 19.532 C 16.138 20.060,14.876 20.588,13.908 20.797 C 11.266 21.366,8.479 20.708,6.370 19.019 C 4.857 17.807,3.722 16.029,3.267 14.160 C 3.081 13.397,3.023 12.888,3.023 12.000 C 3.023 10.507,3.280 9.379,3.920 8.060 C 4.971 5.891,6.877 4.221,9.160 3.466 C 9.865 3.233,10.432 3.118,11.340 3.024 C 11.662 2.991,12.911 3.039,13.320 3.101 M14.516 7.577 C 13.466 7.979,13.167 9.277,13.945 10.055 C 14.528 10.638,15.472 10.638,16.055 10.055 C 16.781 9.330,16.577 8.126,15.650 7.657 C 15.455 7.558,15.370 7.541,15.042 7.532 C 14.789 7.525,14.611 7.540,14.516 7.577 M7.695 8.057 C 7.466 8.129,7.256 8.299,7.128 8.516 C 7.037 8.672,7.020 8.746,7.020 9.000 C 7.020 9.256,7.036 9.328,7.131 9.489 C 7.256 9.702,7.449 9.864,7.670 9.943 C 7.885 10.020,10.115 10.020,10.330 9.943 C 10.551 9.864,10.744 9.702,10.869 9.489 C 10.964 9.328,10.980 9.256,10.980 9.000 C 10.980 8.746,10.963 8.672,10.872 8.516 C 10.740 8.293,10.533 8.128,10.290 8.055 C 10.039 7.979,7.937 7.981,7.695 8.057 M7.670 13.055 C 7.157 13.246,6.887 13.799,7.057 14.311 C 7.189 14.708,7.906 15.424,8.714 15.965 C 9.205 16.294,9.718 16.546,10.240 16.714 C 10.915 16.932,11.230 16.980,12.000 16.980 C 12.770 16.980,13.085 16.932,13.760 16.714 C 14.282 16.546,14.795 16.294,15.286 15.965 C 16.094 15.424,16.811 14.708,16.943 14.311 C 17.121 13.776,16.804 13.181,16.264 13.036 C 16.071 12.984,15.722 13.016,15.556 13.102 C 15.492 13.135,15.237 13.366,14.990 13.614 C 14.330 14.276,13.772 14.622,12.971 14.867 C 12.655 14.963,12.558 14.974,12.000 14.974 C 11.442 14.974,11.345 14.963,11.029 14.867 C 10.228 14.622,9.670 14.276,9.010 13.614 C 8.763 13.366,8.506 13.134,8.439 13.100 C 8.266 13.010,7.854 12.986,7.670 13.055 " stroke="none" fill-rule="evenodd" fill="black"></path></svg>