<svg width="24" height="24" viewBox="0 0 24 24" fill="none" xmlns="http://www.w3.org/2000/svg"><path d="M9.590 4.283 C 9.254 4.363,8.779 4.659,8.240 5.125 C 7.110 6.103,2.152 10.536,2.017 10.690 C 1.344 11.456,1.344 12.543,2.017 13.310 C 2.213 13.534,8.269 18.924,8.640 19.205 C 8.783 19.314,9.050 19.477,9.233 19.569 C 9.531 19.718,9.601 19.737,9.916 19.752 C 10.171 19.765,10.333 19.750,10.504 19.701 C 11.252 19.485,11.730 18.980,11.906 18.220 C 11.976 17.916,11.980 17.601,11.980 12.000 C 11.980 6.380,11.976 6.085,11.905 5.780 C 11.808 5.362,11.679 5.115,11.414 4.837 C 10.958 4.359,10.219 4.135,9.590 4.283 M20.590 4.283 C 20.254 4.363,19.779 4.659,19.240 5.125 C 18.110 6.103,13.152 10.536,13.017 10.690 C 12.344 11.456,12.344 12.543,13.017 13.310 C 13.213 13.534,19.269 18.924,19.640 19.205 C 19.783 19.314,20.050 19.477,20.233 19.569 C 20.531 19.718,20.601 19.737,20.916 19.752 C 21.171 19.765,21.333 19.750,21.504 19.701 C 22.252 19.485,22.730 18.980,22.906 18.220 C 22.976 17.916,22.980 17.601,22.980 12.000 C 22.980 6.380,22.976 6.085,22.905 5.780 C 22.808 5.362,22.679 5.115,22.414 4.837 C 21.958 4.359,21.219 4.135,20.590 4.283 M9.992 12.000 C 9.992 15.025,9.980 17.544,9.965 17.597 C 9.938 17.692,9.932 17.689,9.659 17.458 C 9.203 17.073,3.665 12.141,3.605 12.067 C 3.559 12.010,3.559 11.990,3.605 11.933 C 3.665 11.859,8.730 7.347,9.479 6.701 C 9.918 6.321,9.939 6.309,9.965 6.402 C 9.980 6.456,9.992 8.975,9.992 12.000 M20.992 12.000 C 20.992 15.025,20.980 17.544,20.965 17.597 C 20.938 17.692,20.932 17.689,20.659 17.458 C 20.203 17.073,14.665 12.141,14.605 12.067 C 14.559 12.010,14.559 11.990,14.605 11.933 C 14.665 11.859,19.730 7.347,20.479 6.701 C 20.918 6.321,20.939 6.309,20.965 6.402 C 20.980 6.456,20.992 8.975,20.992 12.000 " stroke="none" fill-rule="evenodd" fill="black"></path></svg>