<svg width="24" height="24" viewBox="0 0 24 24" fill="none" xmlns="http://www.w3.org/2000/svg"><path d="M2.484 4.301 C 1.846 4.480,1.355 4.938,1.156 5.542 C 1.001 6.011,0.995 6.305,1.009 12.240 C 1.022 17.633,1.028 17.997,1.096 18.260 C 1.247 18.841,1.581 19.276,2.074 19.533 C 2.419 19.713,2.714 19.775,3.109 19.752 C 3.604 19.724,4.056 19.483,4.760 18.875 C 5.881 17.905,10.847 13.465,10.981 13.312 C 11.320 12.927,11.479 12.507,11.479 12.000 C 11.479 11.493,11.320 11.073,10.981 10.688 C 10.847 10.535,5.881 6.095,4.760 5.125 C 4.339 4.761,4.031 4.549,3.693 4.391 C 3.474 4.288,3.372 4.266,3.066 4.254 C 2.821 4.245,2.628 4.260,2.484 4.301 M13.484 4.301 C 12.846 4.480,12.355 4.938,12.156 5.542 C 12.001 6.011,11.995 6.305,12.009 12.240 C 12.022 17.633,12.028 17.997,12.096 18.260 C 12.247 18.841,12.581 19.276,13.074 19.533 C 13.419 19.713,13.714 19.775,14.109 19.752 C 14.604 19.724,15.056 19.483,15.760 18.875 C 16.881 17.905,21.847 13.465,21.981 13.312 C 22.320 12.927,22.479 12.507,22.479 12.000 C 22.479 11.493,22.320 11.073,21.981 10.688 C 21.847 10.535,16.881 6.095,15.760 5.125 C 15.339 4.761,15.031 4.549,14.693 4.391 C 14.474 4.288,14.372 4.266,14.066 4.254 C 13.821 4.245,13.628 4.260,13.484 4.301 M3.530 6.709 C 4.272 7.349,9.336 11.860,9.395 11.933 C 9.441 11.990,9.441 12.010,9.395 12.068 C 9.333 12.144,3.671 17.184,3.301 17.493 C 3.065 17.689,3.061 17.690,3.035 17.596 C 3.001 17.474,2.991 6.614,3.025 6.445 C 3.039 6.376,3.057 6.320,3.065 6.320 C 3.074 6.320,3.283 6.495,3.530 6.709 M14.530 6.709 C 15.272 7.349,20.336 11.860,20.395 11.933 C 20.441 11.990,20.441 12.010,20.395 12.068 C 20.333 12.144,14.671 17.184,14.301 17.493 C 14.065 17.689,14.061 17.690,14.035 17.596 C 14.001 17.474,13.991 6.614,14.025 6.445 C 14.039 6.376,14.057 6.320,14.065 6.320 C 14.074 6.320,14.283 6.495,14.530 6.709 " stroke="none" fill-rule="evenodd" fill="black"></path></svg>