<svg width="24" height="24" viewBox="0 0 24 24" fill="none" xmlns="http://www.w3.org/2000/svg"><path d="M14.580 1.505 C 13.022 1.623,11.733 2.133,10.540 3.103 C 10.342 3.264,8.873 4.706,7.275 6.308 C 4.484 9.106,4.365 9.232,4.225 9.520 C 4.145 9.685,4.062 9.917,4.040 10.035 C 3.990 10.307,3.989 18.066,4.039 18.320 L 4.075 18.500 2.622 19.960 C 1.822 20.763,1.138 21.481,1.101 21.555 C 0.872 22.009,1.056 22.601,1.508 22.867 C 1.673 22.964,1.742 22.980,2.000 22.979 C 2.212 22.979,2.341 22.957,2.440 22.905 C 2.517 22.865,3.237 22.178,4.040 21.378 L 5.500 19.925 5.680 19.961 C 5.934 20.011,13.693 20.010,13.965 19.960 C 14.083 19.938,14.315 19.855,14.480 19.775 C 14.768 19.635,14.895 19.515,17.655 16.765 C 19.236 15.189,20.665 13.738,20.832 13.540 C 22.047 12.095,22.649 10.245,22.487 8.454 C 22.318 6.585,21.602 5.150,20.113 3.696 C 19.007 2.616,17.928 1.993,16.633 1.685 C 16.051 1.547,15.112 1.465,14.580 1.505 M15.486 3.522 C 16.473 3.622,17.359 3.980,18.112 4.583 C 18.508 4.901,19.328 5.745,19.567 6.080 C 20.817 7.839,20.817 10.148,19.568 11.920 C 19.468 12.063,18.980 12.590,18.485 13.090 L 17.585 14.000 14.503 14.000 L 11.421 14.000 14.126 11.290 C 15.614 9.800,16.865 8.517,16.905 8.440 C 16.957 8.341,16.979 8.212,16.979 8.000 C 16.980 7.745,16.964 7.672,16.872 7.516 C 16.740 7.293,16.533 7.128,16.290 7.055 C 16.055 6.984,15.943 6.986,15.677 7.063 C 15.465 7.125,15.348 7.238,10.730 11.853 L 6.000 16.579 6.000 13.498 L 6.000 10.418 8.930 7.495 C 12.080 4.353,12.121 4.317,12.885 3.966 C 13.438 3.711,13.897 3.583,14.460 3.524 C 14.924 3.476,15.026 3.475,15.486 3.522 M14.580 17.000 L 13.581 18.000 10.501 18.000 L 7.421 18.000 8.420 17.000 L 9.419 16.000 12.499 16.000 L 15.579 16.000 14.580 17.000 " stroke="none" fill-rule="evenodd" fill="black"></path></svg>