<svg width="24" height="24" viewBox="0 0 24 24" fill="none" xmlns="http://www.w3.org/2000/svg"><path d="M7.672 0.583 C 5.829 0.916,4.364 2.424,4.059 4.300 C 3.827 5.728,4.341 7.249,5.395 8.253 C 5.530 8.381,5.640 8.492,5.640 8.500 C 5.640 8.508,5.530 8.619,5.395 8.747 C 4.706 9.404,4.214 10.341,4.060 11.295 C 3.827 12.729,4.339 14.247,5.395 15.253 C 5.530 15.381,5.640 15.492,5.640 15.500 C 5.640 15.508,5.530 15.619,5.395 15.747 C 3.834 17.234,3.555 19.669,4.741 21.460 C 5.517 22.633,6.707 23.345,8.102 23.475 C 10.446 23.692,12.560 22.043,12.941 19.700 C 12.986 19.422,13.000 18.930,13.000 17.549 L 13.000 15.758 13.296 15.920 C 16.057 17.436,19.437 15.798,19.941 12.700 C 20.173 11.272,19.645 9.714,18.602 8.748 C 18.469 8.625,18.360 8.516,18.360 8.505 C 18.360 8.494,18.470 8.381,18.605 8.253 C 19.661 7.247,20.173 5.729,19.940 4.295 C 19.635 2.411,18.157 0.905,16.296 0.580 C 15.803 0.494,8.149 0.497,7.672 0.583 M11.000 5.024 L 11.000 7.528 9.550 7.510 C 7.959 7.491,7.877 7.480,7.361 7.229 C 7.025 7.065,6.472 6.523,6.293 6.180 C 6.084 5.781,6.023 5.515,6.023 5.000 C 6.023 4.243,6.206 3.797,6.740 3.255 C 6.974 3.017,7.138 2.891,7.352 2.784 C 7.840 2.539,7.938 2.527,9.550 2.523 L 11.000 2.520 11.000 5.024 M16.116 2.581 C 16.537 2.681,16.900 2.896,17.260 3.258 C 17.793 3.794,17.977 4.241,17.977 5.000 C 17.977 5.515,17.916 5.781,17.707 6.180 C 17.528 6.523,16.975 7.065,16.639 7.229 C 16.123 7.480,16.041 7.491,14.450 7.510 L 13.000 7.528 13.000 5.024 L 13.000 2.520 14.430 2.521 C 15.563 2.521,15.913 2.534,16.116 2.581 M11.000 12.024 L 11.000 14.528 9.550 14.510 C 7.959 14.491,7.877 14.480,7.361 14.229 C 7.025 14.065,6.472 13.523,6.293 13.180 C 6.084 12.781,6.023 12.515,6.023 12.000 C 6.023 11.243,6.206 10.797,6.740 10.255 C 6.974 10.017,7.138 9.891,7.352 9.784 C 7.840 9.539,7.938 9.527,9.550 9.523 L 11.000 9.520 11.000 12.024 M16.116 9.581 C 16.537 9.681,16.900 9.896,17.260 10.258 C 17.793 10.794,17.977 11.241,17.977 12.000 C 17.977 12.770,17.794 13.207,17.241 13.761 C 16.724 14.278,16.218 14.490,15.500 14.490 C 14.782 14.490,14.276 14.278,13.759 13.761 C 13.206 13.207,13.023 12.770,13.023 12.000 C 13.023 11.243,13.206 10.797,13.740 10.255 C 14.090 9.900,14.453 9.683,14.872 9.582 C 15.179 9.508,15.801 9.507,16.116 9.581 M10.990 18.010 C 10.973 19.647,10.969 19.678,10.707 20.180 C 10.527 20.524,9.975 21.065,9.637 21.230 C 9.265 21.411,8.919 21.490,8.500 21.490 C 7.782 21.490,7.276 21.278,6.759 20.761 C 6.206 20.207,6.023 19.770,6.023 19.000 C 6.023 18.243,6.206 17.797,6.740 17.255 C 6.974 17.017,7.138 16.891,7.352 16.784 C 7.840 16.539,7.937 16.527,9.553 16.523 L 11.006 16.520 10.990 18.010 " stroke="none" fill-rule="evenodd" fill="black"></path></svg>