<svg width="24" height="24" viewBox="0 0 24 24" fill="none" xmlns="http://www.w3.org/2000/svg"><path d="M6.920 1.041 C 6.153 1.092,5.673 1.205,5.180 1.451 C 4.089 1.996,3.357 2.961,3.124 4.160 C 3.012 4.738,3.000 5.470,3.000 12.000 C 3.000 19.433,3.002 19.515,3.245 20.320 C 3.577 21.422,4.578 22.423,5.680 22.755 C 6.460 22.990,6.716 23.000,12.000 23.000 C 17.284 23.000,17.540 22.990,18.320 22.755 C 19.422 22.423,20.423 21.422,20.755 20.320 C 20.993 19.530,21.000 19.336,21.000 13.297 C 21.000 8.382,20.994 7.835,20.935 7.657 C 20.876 7.477,20.597 7.187,17.725 4.316 C 15.601 2.193,14.528 1.147,14.420 1.096 C 14.267 1.023,14.110 1.020,10.820 1.016 C 8.928 1.013,7.173 1.025,6.920 1.041 M13.001 5.070 C 13.001 7.322,13.014 7.481,13.227 7.919 C 13.366 8.205,13.795 8.634,14.081 8.773 C 14.519 8.986,14.677 8.999,16.932 8.999 L 19.004 9.000 18.989 14.110 C 18.973 19.665,18.980 19.483,18.752 19.952 C 18.626 20.211,18.190 20.638,17.918 20.768 C 17.471 20.983,17.547 20.980,12.000 20.980 C 6.462 20.980,6.533 20.983,6.082 20.771 C 5.812 20.643,5.377 20.217,5.248 19.952 C 5.198 19.849,5.126 19.633,5.088 19.472 C 5.025 19.202,5.020 18.630,5.020 12.000 C 5.020 5.370,5.025 4.798,5.088 4.528 C 5.175 4.155,5.294 3.918,5.520 3.667 C 5.884 3.261,6.283 3.090,6.980 3.040 C 7.200 3.025,8.645 3.009,10.190 3.006 L 13.000 3.000 13.001 5.070 M16.300 5.720 L 17.580 7.000 16.290 7.000 L 15.000 7.000 15.000 5.720 C 15.000 5.016,15.005 4.440,15.010 4.440 C 15.016 4.440,15.596 5.016,16.300 5.720 M9.780 10.026 C 9.078 10.139,8.365 10.536,7.850 11.099 C 7.013 12.016,6.769 13.370,7.235 14.515 C 7.420 14.970,7.701 15.343,8.379 16.035 C 9.292 16.968,11.263 18.742,11.569 18.908 C 11.750 19.005,12.250 19.005,12.430 18.908 C 12.722 18.750,14.779 16.897,15.643 16.015 C 16.422 15.218,16.672 14.844,16.886 14.160 C 16.966 13.904,16.979 13.778,16.978 13.300 C 16.976 12.672,16.924 12.418,16.697 11.926 C 16.291 11.047,15.472 10.359,14.518 10.095 C 14.331 10.044,14.122 10.025,13.760 10.026 C 13.170 10.029,12.793 10.114,12.303 10.355 L 11.987 10.511 11.743 10.378 C 11.354 10.165,10.852 10.037,10.340 10.021 C 10.098 10.013,9.846 10.015,9.780 10.026 M10.725 12.109 C 10.824 12.153,11.038 12.309,11.202 12.456 C 11.546 12.766,11.799 12.867,12.113 12.820 C 12.361 12.783,12.485 12.714,12.816 12.429 C 13.184 12.112,13.383 12.025,13.741 12.023 C 14.092 12.022,14.392 12.155,14.639 12.424 C 14.892 12.698,14.977 12.918,14.976 13.300 C 14.976 13.704,14.882 13.901,14.464 14.369 C 14.176 14.691,13.179 15.636,12.388 16.336 L 11.995 16.683 11.628 16.356 C 10.105 14.999,9.295 14.178,9.117 13.810 C 8.991 13.551,8.988 13.066,9.110 12.793 C 9.258 12.464,9.562 12.185,9.915 12.053 C 10.107 11.981,10.497 12.008,10.725 12.109 " stroke="none" fill-rule="evenodd" fill="black"></path></svg>