<svg width="24" height="24" viewBox="0 0 24 24" fill="none" xmlns="http://www.w3.org/2000/svg"><path d="M6.920 1.040 C 6.150 1.092,5.672 1.205,5.180 1.451 C 4.089 1.996,3.357 2.961,3.124 4.160 C 3.012 4.738,3.000 5.470,3.000 12.000 C 3.000 19.433,3.002 19.515,3.245 20.320 C 3.577 21.422,4.578 22.423,5.680 22.755 C 6.399 22.972,6.873 23.000,9.720 22.998 C 11.670 22.997,12.211 22.985,12.330 22.943 C 12.551 22.864,12.744 22.702,12.869 22.489 C 12.964 22.328,12.980 22.256,12.980 22.000 C 12.980 21.746,12.963 21.672,12.872 21.516 C 12.761 21.327,12.571 21.158,12.373 21.070 C 12.288 21.033,11.570 21.015,9.520 20.998 C 6.600 20.973,6.500 20.966,6.080 20.769 C 5.812 20.643,5.376 20.216,5.248 19.952 C 5.198 19.849,5.126 19.633,5.088 19.472 C 5.025 19.202,5.020 18.630,5.020 12.000 C 5.020 5.370,5.025 4.798,5.088 4.528 C 5.186 4.109,5.304 3.895,5.600 3.600 C 5.895 3.304,6.109 3.186,6.528 3.088 C 6.795 3.026,7.256 3.020,12.000 3.020 C 16.744 3.020,17.205 3.026,17.472 3.088 C 17.633 3.126,17.849 3.198,17.952 3.248 C 18.194 3.366,18.634 3.806,18.752 4.048 C 18.971 4.498,18.970 4.477,18.996 8.543 L 19.020 12.306 19.141 12.503 C 19.543 13.156,20.457 13.156,20.859 12.503 L 20.980 12.306 20.992 8.843 C 21.006 4.851,20.988 4.458,20.755 3.680 C 20.426 2.582,19.465 1.622,18.320 1.246 C 17.657 1.028,17.701 1.030,12.340 1.019 C 9.612 1.014,7.173 1.023,6.920 1.040 M15.670 15.061 C 15.448 15.142,15.250 15.309,15.128 15.516 C 15.037 15.672,15.020 15.746,15.020 16.000 C 15.020 16.254,15.036 16.328,15.127 16.480 C 15.186 16.579,15.650 17.074,16.157 17.579 L 17.079 18.499 16.124 19.459 C 15.599 19.988,15.138 20.481,15.101 20.555 C 14.872 21.009,15.056 21.601,15.508 21.867 C 15.673 21.964,15.743 21.980,16.000 21.980 C 16.254 21.980,16.328 21.964,16.480 21.873 C 16.579 21.814,17.074 21.350,17.579 20.843 L 18.499 19.921 19.459 20.876 C 19.988 21.401,20.483 21.864,20.560 21.905 C 20.659 21.957,20.787 21.979,21.000 21.979 C 21.258 21.980,21.327 21.964,21.492 21.867 C 21.714 21.737,21.901 21.498,21.965 21.264 C 22.019 21.061,21.989 20.733,21.899 20.555 C 21.862 20.481,21.401 19.988,20.876 19.459 L 19.921 18.499 20.843 17.579 C 21.350 17.074,21.814 16.579,21.873 16.480 C 21.964 16.328,21.980 16.254,21.980 16.000 C 21.980 15.746,21.963 15.672,21.872 15.516 C 21.618 15.084,21.136 14.905,20.657 15.066 C 20.486 15.124,20.330 15.262,19.480 16.104 L 18.500 17.076 17.520 16.104 C 16.671 15.262,16.514 15.124,16.343 15.066 C 16.108 14.987,15.875 14.985,15.670 15.061 " stroke="none" fill-rule="evenodd" fill="black"></path></svg>