<svg width="24" height="24" viewBox="0 0 24 24" fill="none" xmlns="http://www.w3.org/2000/svg"><path d="M6.920 1.041 C 6.153 1.092,5.673 1.205,5.180 1.451 C 4.089 1.996,3.357 2.961,3.124 4.160 C 3.012 4.738,3.000 5.470,3.000 12.000 C 3.000 19.433,3.002 19.515,3.245 20.320 C 3.577 21.422,4.578 22.423,5.680 22.755 C 6.460 22.990,6.716 23.000,12.000 23.000 C 17.284 23.000,17.540 22.990,18.320 22.755 C 19.422 22.423,20.423 21.422,20.755 20.320 C 20.993 19.530,21.000 19.336,21.000 13.297 C 21.000 8.382,20.994 7.835,20.935 7.657 C 20.876 7.477,20.597 7.187,17.725 4.316 C 15.601 2.193,14.528 1.147,14.420 1.096 C 14.267 1.023,14.110 1.020,10.820 1.016 C 8.928 1.013,7.173 1.025,6.920 1.041 M13.001 5.070 C 13.001 7.322,13.014 7.481,13.227 7.919 C 13.366 8.205,13.795 8.634,14.081 8.773 C 14.519 8.986,14.677 8.999,16.932 8.999 L 19.004 9.000 18.989 14.110 C 18.973 19.665,18.980 19.483,18.752 19.952 C 18.626 20.211,18.190 20.638,17.918 20.768 C 17.471 20.983,17.547 20.980,12.000 20.980 C 6.462 20.980,6.533 20.983,6.082 20.771 C 5.812 20.643,5.377 20.217,5.248 19.952 C 5.198 19.849,5.126 19.633,5.088 19.472 C 5.025 19.202,5.020 18.630,5.020 12.000 C 5.020 5.370,5.025 4.798,5.088 4.528 C 5.175 4.155,5.294 3.918,5.520 3.667 C 5.884 3.261,6.283 3.090,6.980 3.040 C 7.200 3.025,8.645 3.009,10.190 3.006 L 13.000 3.000 13.001 5.070 M16.300 5.720 L 17.580 7.000 16.290 7.000 L 15.000 7.000 15.000 5.720 C 15.000 5.016,15.005 4.440,15.010 4.440 C 15.016 4.440,15.596 5.016,16.300 5.720 M9.240 11.035 C 8.784 11.184,8.512 11.546,8.512 12.003 C 8.512 12.394,8.584 12.493,9.616 13.520 C 10.135 14.037,10.560 14.478,10.560 14.500 C 10.560 14.522,10.135 14.963,9.616 15.480 C 8.954 16.139,8.648 16.472,8.592 16.595 C 8.493 16.811,8.487 17.164,8.578 17.382 C 8.723 17.730,9.126 18.000,9.500 17.999 C 9.868 17.998,9.986 17.911,11.030 16.869 L 12.000 15.901 12.970 16.869 C 14.014 17.911,14.132 17.998,14.500 17.999 C 14.874 18.000,15.277 17.730,15.422 17.382 C 15.513 17.164,15.507 16.811,15.408 16.595 C 15.352 16.472,15.046 16.139,14.384 15.480 C 13.865 14.963,13.440 14.522,13.440 14.500 C 13.440 14.478,13.865 14.037,14.384 13.520 C 15.416 12.493,15.488 12.394,15.488 12.003 C 15.488 11.615,15.293 11.296,14.940 11.108 C 14.729 10.995,14.284 10.989,14.080 11.095 C 14.003 11.135,13.503 11.602,12.970 12.134 L 12.000 13.099 11.030 12.134 C 10.497 11.602,9.999 11.137,9.924 11.100 C 9.768 11.022,9.389 10.986,9.240 11.035 " stroke="none" fill-rule="evenodd" fill="black"></path></svg>