<svg width="24" height="24" viewBox="0 0 24 24" fill="none" xmlns="http://www.w3.org/2000/svg"><path d="M6.920 1.040 C 6.150 1.092,5.672 1.205,5.180 1.451 C 4.089 1.996,3.357 2.961,3.124 4.160 C 3.012 4.738,3.000 5.470,3.000 12.000 C 3.000 19.433,3.002 19.515,3.245 20.320 C 3.577 21.422,4.578 22.423,5.680 22.755 C 6.408 22.974,6.857 23.000,9.980 23.000 L 12.700 22.999 12.900 22.905 C 13.281 22.724,13.488 22.405,13.488 22.000 C 13.488 21.615,13.293 21.297,12.940 21.106 C 12.781 21.021,12.758 21.020,9.780 20.997 C 6.579 20.973,6.505 20.969,6.080 20.769 C 5.812 20.643,5.376 20.216,5.248 19.952 C 5.198 19.849,5.126 19.633,5.088 19.472 C 5.025 19.202,5.020 18.630,5.020 12.000 C 5.020 5.370,5.025 4.798,5.088 4.528 C 5.186 4.109,5.304 3.895,5.600 3.600 C 5.895 3.304,6.109 3.186,6.528 3.088 C 6.795 3.026,7.256 3.020,12.000 3.020 C 16.744 3.020,17.205 3.026,17.472 3.088 C 17.891 3.186,18.105 3.304,18.400 3.600 C 18.896 4.096,18.956 4.342,18.993 6.063 L 19.020 7.306 19.141 7.503 C 19.543 8.156,20.457 8.156,20.859 7.503 L 20.980 7.307 20.993 6.343 C 21.016 4.676,20.899 3.858,20.535 3.141 C 20.088 2.259,19.268 1.557,18.320 1.246 C 17.657 1.028,17.701 1.030,12.340 1.019 C 9.612 1.014,7.173 1.023,6.920 1.040 M7.695 6.057 C 7.466 6.129,7.256 6.299,7.128 6.516 C 7.037 6.672,7.020 6.746,7.020 7.000 C 7.020 7.256,7.036 7.328,7.131 7.489 C 7.256 7.702,7.449 7.864,7.670 7.943 C 7.892 8.022,16.108 8.022,16.330 7.943 C 16.551 7.864,16.744 7.702,16.869 7.489 C 16.964 7.328,16.980 7.256,16.980 7.000 C 16.980 6.746,16.963 6.672,16.872 6.516 C 16.740 6.293,16.533 6.128,16.290 6.055 C 16.029 5.976,7.946 5.979,7.695 6.057 M7.695 10.056 C 7.465 10.129,7.256 10.299,7.128 10.516 C 7.037 10.672,7.020 10.746,7.020 11.000 C 7.020 11.256,7.036 11.328,7.131 11.489 C 7.256 11.702,7.449 11.864,7.670 11.943 C 7.789 11.985,8.326 11.997,10.260 11.998 L 12.700 11.999 12.900 11.905 C 13.281 11.724,13.488 11.405,13.488 11.000 C 13.488 10.615,13.293 10.297,12.940 10.106 C 12.781 10.021,12.758 10.020,10.320 10.012 C 8.387 10.006,7.825 10.015,7.695 10.056 M18.960 10.062 C 18.605 10.138,18.107 10.393,17.832 10.639 C 17.532 10.907,17.239 11.352,17.118 11.722 L 17.020 12.020 17.020 15.163 L 17.020 18.306 17.141 18.503 C 17.543 19.156,18.457 19.156,18.859 18.503 L 18.980 18.306 19.000 15.323 C 19.022 12.080,19.010 12.226,19.253 12.078 C 19.415 11.979,19.585 11.979,19.748 12.078 C 20.011 12.239,20.000 12.096,19.999 15.288 C 19.999 18.440,19.994 18.516,19.772 18.931 C 19.625 19.208,19.191 19.643,18.930 19.775 C 18.349 20.070,17.658 20.073,17.088 19.784 C 16.822 19.649,16.494 19.344,16.312 19.063 C 16.016 18.605,16.025 18.692,16.001 16.060 L 15.980 13.700 15.871 13.514 C 15.730 13.275,15.485 13.096,15.214 13.035 C 14.792 12.941,14.352 13.134,14.129 13.514 L 14.020 13.700 14.009 16.028 C 13.998 18.257,14.001 18.373,14.081 18.767 C 14.357 20.119,15.247 21.194,16.512 21.704 C 17.231 21.994,18.023 22.070,18.757 21.921 C 20.387 21.588,21.589 20.384,21.922 18.751 C 22.000 18.369,22.002 18.232,21.991 15.167 L 21.980 11.980 21.869 11.680 C 21.430 10.486,20.192 9.798,18.960 10.062 M7.695 14.056 C 7.465 14.129,7.256 14.299,7.128 14.516 C 7.037 14.672,7.020 14.746,7.020 15.000 C 7.020 15.256,7.036 15.328,7.131 15.489 C 7.256 15.702,7.449 15.864,7.670 15.943 C 7.787 15.985,8.243 15.997,9.760 15.998 L 11.700 15.999 11.900 15.905 C 12.281 15.724,12.488 15.405,12.488 15.000 C 12.488 14.615,12.293 14.297,11.940 14.106 C 11.783 14.022,11.745 14.020,9.820 14.012 C 8.296 14.006,7.823 14.016,7.695 14.056 " stroke="none" fill-rule="evenodd" fill="black"></path></svg>