<svg width="24" height="24" viewBox="0 0 24 24" fill="none" xmlns="http://www.w3.org/2000/svg"><path d="M6.920 1.040 C 6.150 1.092,5.672 1.205,5.180 1.451 C 4.089 1.996,3.357 2.961,3.124 4.160 C 3.012 4.738,3.000 5.470,3.000 12.000 C 3.000 19.433,3.002 19.515,3.245 20.320 C 3.577 21.422,4.578 22.423,5.680 22.755 C 6.361 22.960,6.898 23.000,8.980 23.000 L 10.700 22.999 10.900 22.905 C 11.281 22.724,11.488 22.405,11.488 22.000 C 11.488 21.615,11.293 21.297,10.940 21.106 C 10.784 21.022,10.731 21.019,8.780 20.996 C 7.424 20.980,6.703 20.956,6.540 20.922 C 6.159 20.843,5.886 20.693,5.600 20.403 C 5.303 20.104,5.186 19.890,5.088 19.472 C 5.025 19.202,5.020 18.630,5.020 12.000 C 5.020 5.370,5.025 4.798,5.088 4.528 C 5.186 4.109,5.304 3.895,5.600 3.600 C 5.895 3.304,6.109 3.186,6.528 3.088 C 6.795 3.026,7.256 3.020,12.000 3.020 C 16.744 3.020,17.205 3.026,17.472 3.088 C 17.633 3.126,17.849 3.198,17.952 3.248 C 18.194 3.366,18.634 3.806,18.752 4.048 C 18.961 4.477,18.968 4.575,18.995 7.543 L 19.020 10.306 19.141 10.503 C 19.543 11.156,20.457 11.156,20.859 10.503 L 20.980 10.306 20.992 7.843 C 21.007 4.928,20.978 4.425,20.755 3.680 C 20.426 2.582,19.465 1.622,18.320 1.246 C 17.657 1.028,17.701 1.030,12.340 1.019 C 9.612 1.014,7.173 1.023,6.920 1.040 M7.695 6.057 C 7.466 6.129,7.256 6.299,7.128 6.516 C 7.037 6.672,7.020 6.746,7.020 7.000 C 7.020 7.256,7.036 7.328,7.131 7.489 C 7.256 7.702,7.449 7.864,7.670 7.943 C 7.892 8.022,16.108 8.022,16.330 7.943 C 16.551 7.864,16.744 7.702,16.869 7.489 C 16.964 7.328,16.980 7.256,16.980 7.000 C 16.980 6.746,16.963 6.672,16.872 6.516 C 16.740 6.293,16.533 6.128,16.290 6.055 C 16.029 5.976,7.946 5.979,7.695 6.057 M7.695 10.057 C 7.466 10.129,7.256 10.299,7.128 10.516 C 7.037 10.672,7.020 10.746,7.020 11.000 C 7.020 11.256,7.036 11.328,7.131 11.489 C 7.256 11.702,7.449 11.864,7.670 11.943 C 7.890 12.021,13.110 12.021,13.330 11.943 C 13.551 11.864,13.744 11.702,13.869 11.489 C 13.964 11.328,13.980 11.256,13.980 11.000 C 13.980 10.746,13.963 10.672,13.872 10.516 C 13.740 10.293,13.533 10.128,13.290 10.055 C 13.031 9.977,7.944 9.979,7.695 10.057 M16.768 12.599 C 16.026 12.799,15.359 13.358,15.016 14.067 C 14.822 14.468,14.762 14.799,14.761 15.462 L 14.760 16.023 14.543 16.069 C 14.192 16.143,13.883 16.316,13.597 16.599 C 13.075 17.117,13.001 17.415,13.001 19.000 C 13.001 20.584,13.075 20.881,13.597 21.403 C 13.896 21.702,14.173 21.853,14.581 21.939 C 14.993 22.027,20.007 22.027,20.419 21.940 C 20.818 21.855,21.102 21.699,21.401 21.401 C 21.925 20.876,21.999 20.582,21.999 19.000 C 21.999 17.418,21.926 17.124,21.401 16.599 C 21.118 16.316,20.810 16.143,20.461 16.070 L 20.249 16.025 20.232 15.343 C 20.216 14.734,20.203 14.628,20.110 14.367 C 19.959 13.941,19.779 13.662,19.440 13.321 C 19.106 12.986,18.751 12.761,18.360 12.633 C 17.976 12.508,17.168 12.491,16.768 12.599 M7.695 14.057 C 7.466 14.129,7.256 14.299,7.128 14.516 C 7.037 14.672,7.020 14.746,7.020 15.000 C 7.020 15.256,7.036 15.328,7.131 15.489 C 7.256 15.702,7.449 15.864,7.670 15.943 C 7.888 16.021,11.112 16.021,11.330 15.943 C 11.551 15.864,11.744 15.702,11.869 15.489 C 11.964 15.328,11.980 15.256,11.980 15.000 C 11.980 14.746,11.963 14.672,11.872 14.516 C 11.740 14.293,11.533 14.128,11.290 14.055 C 11.035 13.978,7.941 13.980,7.695 14.057 M17.837 14.590 C 17.913 14.629,18.030 14.729,18.097 14.814 C 18.218 14.965,18.220 14.976,18.233 15.484 L 18.246 16.000 17.500 16.000 L 16.754 16.000 16.767 15.484 C 16.780 14.976,16.782 14.965,16.903 14.814 C 17.063 14.613,17.252 14.520,17.500 14.520 C 17.611 14.520,17.761 14.551,17.837 14.590 M20.000 19.000 L 20.000 20.000 17.500 20.000 L 15.000 20.000 15.000 19.000 L 15.000 18.000 17.500 18.000 L 20.000 18.000 20.000 19.000 " stroke="none" fill-rule="evenodd" fill="black"></path></svg>