<svg width="24" height="24" viewBox="0 0 24 24" fill="none" xmlns="http://www.w3.org/2000/svg"><path d="M6.920 1.040 C 6.150 1.092,5.672 1.205,5.180 1.451 C 4.089 1.996,3.357 2.961,3.124 4.160 C 3.012 4.738,3.000 5.470,3.000 12.000 C 3.000 19.433,3.002 19.515,3.245 20.320 C 3.577 21.422,4.578 22.423,5.680 22.755 C 6.399 22.972,6.873 23.000,9.720 22.998 C 11.670 22.997,12.211 22.985,12.330 22.943 C 12.551 22.864,12.744 22.702,12.869 22.489 C 12.964 22.328,12.980 22.256,12.980 22.000 C 12.980 21.746,12.963 21.672,12.872 21.516 C 12.761 21.327,12.571 21.158,12.373 21.070 C 12.288 21.033,11.570 21.015,9.520 20.998 C 6.600 20.973,6.500 20.966,6.080 20.769 C 5.812 20.643,5.376 20.216,5.248 19.952 C 5.198 19.849,5.126 19.633,5.088 19.472 C 5.025 19.202,5.020 18.630,5.020 12.000 C 5.020 5.370,5.025 4.798,5.088 4.528 C 5.186 4.109,5.304 3.895,5.600 3.600 C 5.895 3.304,6.109 3.186,6.528 3.088 C 6.795 3.026,7.256 3.020,12.000 3.020 C 16.744 3.020,17.205 3.026,17.472 3.088 C 17.633 3.126,17.849 3.198,17.952 3.248 C 18.194 3.366,18.634 3.806,18.752 4.048 C 18.973 4.502,18.971 4.453,18.996 8.780 L 19.020 12.780 19.106 12.940 C 19.297 13.293,19.615 13.488,20.000 13.488 C 20.405 13.488,20.724 13.281,20.905 12.900 L 20.999 12.700 21.000 8.980 C 21.000 4.789,20.984 4.439,20.755 3.680 C 20.424 2.581,19.465 1.622,18.320 1.246 C 17.657 1.028,17.701 1.030,12.340 1.019 C 9.612 1.014,7.173 1.023,6.920 1.040 M20.580 15.597 C 20.473 15.647,19.779 16.314,18.480 17.616 C 17.413 18.685,16.522 19.560,16.500 19.560 C 16.477 19.560,16.153 19.253,15.780 18.877 C 15.406 18.502,15.028 18.156,14.940 18.108 C 14.717 17.988,14.284 17.988,14.060 18.108 C 13.606 18.349,13.403 18.852,13.559 19.344 C 13.632 19.570,15.811 21.766,16.100 21.904 C 16.364 22.030,16.636 22.030,16.900 21.904 C 17.183 21.768,21.797 17.149,21.917 16.880 C 22.130 16.407,21.878 15.785,21.391 15.582 C 21.185 15.496,20.779 15.503,20.580 15.597 " stroke="none" fill-rule="evenodd" fill="black"></path></svg>