<svg width="24" height="24" viewBox="0 0 24 24" fill="none" xmlns="http://www.w3.org/2000/svg"><path d="M7.460 1.046 C 6.007 1.230,4.708 2.280,4.237 3.651 C 4.076 4.119,4.000 4.613,4.000 5.195 C 4.001 5.643,4.012 5.723,4.095 5.900 C 4.276 6.281,4.595 6.488,5.000 6.488 C 5.405 6.488,5.724 6.281,5.905 5.900 C 5.986 5.727,5.999 5.639,6.000 5.256 C 6.000 4.489,6.166 4.031,6.599 3.599 C 6.883 3.315,7.124 3.176,7.506 3.078 C 7.798 3.004,7.961 3.000,10.776 3.002 C 12.406 3.003,13.870 3.019,14.029 3.037 C 14.228 3.060,14.417 3.117,14.629 3.218 C 14.932 3.361,14.997 3.422,17.288 5.712 C 19.578 8.003,19.639 8.068,19.782 8.371 C 19.893 8.605,19.939 8.765,19.967 9.023 C 19.989 9.225,19.998 11.376,19.989 14.292 C 19.976 18.684,19.967 19.250,19.909 19.492 C 19.812 19.893,19.691 20.109,19.400 20.401 C 19.120 20.681,18.839 20.841,18.480 20.923 C 18.173 20.993,7.976 21.027,7.620 20.959 C 7.244 20.887,6.892 20.699,6.618 20.423 C 6.164 19.966,6.000 19.521,6.000 18.744 C 5.999 18.361,5.986 18.273,5.905 18.100 C 5.720 17.710,5.419 17.519,4.991 17.521 C 4.681 17.522,4.470 17.612,4.276 17.828 C 4.023 18.108,3.986 18.267,4.010 18.990 C 4.027 19.492,4.053 19.701,4.136 20.020 C 4.464 21.276,5.449 22.350,6.651 22.763 C 7.355 23.005,7.214 23.000,12.715 23.000 C 18.305 23.000,18.536 22.991,19.320 22.755 C 20.422 22.423,21.425 21.421,21.755 20.320 C 21.998 19.509,22.007 19.272,21.991 13.620 C 21.977 8.651,21.977 8.618,21.891 8.300 C 21.753 7.784,21.550 7.348,21.249 6.920 C 21.029 6.606,16.860 2.404,16.325 1.956 C 15.701 1.435,14.998 1.129,14.229 1.043 C 13.759 0.991,7.875 0.993,7.460 1.046 M4.580 8.597 C 4.474 8.646,3.943 9.151,3.015 10.086 C 1.511 11.599,1.511 11.599,1.511 12.000 C 1.511 12.401,1.511 12.401,3.015 13.914 C 4.038 14.945,4.468 15.351,4.595 15.408 C 4.811 15.507,5.164 15.513,5.382 15.422 C 5.730 15.277,6.000 14.874,5.999 14.500 C 5.998 14.132,5.911 14.014,4.869 12.970 L 3.901 12.000 4.869 11.030 C 5.911 9.986,5.998 9.868,5.999 9.500 C 6.000 9.131,5.730 8.723,5.391 8.582 C 5.185 8.496,4.779 8.503,4.580 8.597 M8.600 8.584 C 8.267 8.728,8.000 9.136,8.001 9.500 C 8.002 9.868,8.089 9.986,9.131 11.030 L 10.099 12.000 9.131 12.970 C 8.089 14.014,8.002 14.132,8.001 14.500 C 8.000 14.874,8.270 15.277,8.618 15.422 C 8.836 15.513,9.189 15.507,9.405 15.408 C 9.532 15.351,9.962 14.945,10.985 13.914 C 12.489 12.401,12.489 12.401,12.489 12.000 C 12.489 11.599,12.489 11.599,10.985 10.086 C 10.057 9.151,9.526 8.646,9.420 8.597 C 9.222 8.504,8.799 8.498,8.600 8.584 " stroke="none" fill-rule="evenodd" fill="black"></path></svg>