<svg width="24" height="24" viewBox="0 0 24 24" fill="none" xmlns="http://www.w3.org/2000/svg"><path d="M6.920 1.042 C 6.155 1.091,5.674 1.204,5.180 1.451 C 4.089 1.996,3.357 2.961,3.124 4.160 C 3.012 4.738,3.000 5.470,3.000 12.000 C 3.000 19.433,3.002 19.515,3.245 20.320 C 3.577 21.422,4.578 22.423,5.680 22.755 C 6.460 22.990,6.716 23.000,12.000 23.000 C 17.284 23.000,17.540 22.990,18.320 22.755 C 19.422 22.423,20.425 21.421,20.755 20.320 C 20.998 19.509,21.007 19.272,20.991 13.620 C 20.977 8.656,20.977 8.618,20.891 8.300 C 20.713 7.635,20.426 7.103,19.959 6.572 C 19.424 5.964,15.356 1.944,15.080 1.751 C 14.520 1.360,13.883 1.116,13.229 1.043 C 12.792 0.994,7.669 0.993,6.920 1.042 M12.875 3.025 L 13.000 3.050 13.001 5.095 C 13.001 7.320,13.014 7.482,13.227 7.919 C 13.366 8.205,13.795 8.634,14.081 8.773 C 14.518 8.986,14.679 8.999,16.908 8.999 L 18.955 9.000 18.980 9.170 C 18.994 9.264,18.998 11.563,18.990 14.280 C 18.973 19.648,18.980 19.485,18.752 19.952 C 18.626 20.211,18.190 20.638,17.918 20.768 C 17.471 20.983,17.547 20.980,12.000 20.980 C 6.462 20.980,6.533 20.983,6.082 20.771 C 5.812 20.643,5.377 20.217,5.248 19.952 C 5.198 19.849,5.126 19.633,5.088 19.472 C 5.025 19.202,5.020 18.630,5.020 12.000 C 5.020 5.370,5.025 4.798,5.088 4.528 C 5.175 4.155,5.294 3.918,5.520 3.667 C 5.884 3.261,6.283 3.090,6.980 3.040 C 7.482 3.005,12.705 2.991,12.875 3.025 M16.300 5.720 L 17.580 7.000 16.290 7.000 L 15.000 7.000 15.000 5.720 C 15.000 5.016,15.005 4.440,15.010 4.440 C 15.016 4.440,15.596 5.016,16.300 5.720 M11.580 9.595 C 11.377 9.687,11.151 9.937,11.064 10.164 C 11.003 10.325,10.999 10.682,11.009 14.323 L 11.020 18.306 11.141 18.503 C 11.543 19.156,12.457 19.156,12.859 18.503 L 12.980 18.306 12.991 14.323 C 13.004 9.878,13.020 10.156,12.724 9.828 C 12.528 9.609,12.320 9.522,12.000 9.522 C 11.834 9.522,11.682 9.548,11.580 9.595 M15.695 12.057 C 15.466 12.129,15.256 12.299,15.128 12.516 L 15.020 12.700 15.020 15.503 L 15.020 18.306 15.141 18.503 C 15.543 19.156,16.457 19.156,16.859 18.503 L 16.980 18.306 16.980 15.503 L 16.980 12.700 16.872 12.516 C 16.628 12.101,16.150 11.915,15.695 12.057 M7.695 14.057 C 7.466 14.129,7.256 14.299,7.128 14.516 L 7.020 14.700 7.020 16.503 L 7.020 18.306 7.141 18.503 C 7.543 19.156,8.457 19.156,8.859 18.503 L 8.980 18.306 8.980 16.503 L 8.980 14.700 8.872 14.516 C 8.628 14.101,8.150 13.915,7.695 14.057 " stroke="none" fill-rule="evenodd" fill="black"></path></svg>