<svg width="24" height="24" viewBox="0 0 24 24" fill="none" xmlns="http://www.w3.org/2000/svg"><path d="M6.920 1.042 C 6.155 1.091,5.674 1.204,5.180 1.451 C 4.089 1.996,3.357 2.961,3.124 4.160 C 3.012 4.738,3.000 5.470,3.000 12.000 C 3.000 19.433,3.002 19.515,3.245 20.320 C 3.577 21.422,4.578 22.423,5.680 22.755 C 6.460 22.990,6.716 23.000,12.000 23.000 C 17.284 23.000,17.540 22.990,18.320 22.755 C 19.422 22.423,20.425 21.421,20.755 20.320 C 20.998 19.509,21.007 19.272,20.991 13.620 C 20.977 8.656,20.977 8.618,20.891 8.300 C 20.713 7.635,20.426 7.103,19.959 6.572 C 19.424 5.964,15.356 1.944,15.080 1.751 C 14.520 1.360,13.883 1.116,13.229 1.043 C 12.792 0.994,7.669 0.993,6.920 1.042 M12.875 3.025 L 13.000 3.050 13.001 5.095 C 13.001 7.320,13.014 7.482,13.227 7.919 C 13.366 8.205,13.795 8.634,14.081 8.773 C 14.518 8.986,14.679 8.999,16.908 8.999 L 18.955 9.000 18.980 9.170 C 18.994 9.264,18.998 11.563,18.990 14.280 C 18.973 19.648,18.980 19.485,18.752 19.952 C 18.626 20.211,18.190 20.638,17.918 20.768 C 17.471 20.983,17.547 20.980,12.000 20.980 C 6.462 20.980,6.533 20.983,6.082 20.771 C 5.812 20.643,5.377 20.217,5.248 19.952 C 5.198 19.849,5.126 19.633,5.088 19.472 C 5.025 19.202,5.020 18.630,5.020 12.000 C 5.020 5.370,5.025 4.798,5.088 4.528 C 5.175 4.155,5.294 3.918,5.520 3.667 C 5.884 3.261,6.283 3.090,6.980 3.040 C 7.482 3.005,12.705 2.991,12.875 3.025 M16.300 5.720 L 17.580 7.000 16.290 7.000 L 15.000 7.000 15.000 5.720 C 15.000 5.016,15.005 4.440,15.010 4.440 C 15.016 4.440,15.596 5.016,16.300 5.720 M7.695 12.057 C 7.466 12.129,7.256 12.299,7.128 12.516 C 7.037 12.672,7.020 12.746,7.020 13.000 C 7.020 13.256,7.036 13.328,7.131 13.489 C 7.256 13.702,7.449 13.864,7.670 13.943 C 7.892 14.022,16.108 14.022,16.330 13.943 C 16.551 13.864,16.744 13.702,16.869 13.489 C 16.964 13.328,16.980 13.256,16.980 13.000 C 16.980 12.746,16.963 12.672,16.872 12.516 C 16.740 12.293,16.533 12.128,16.290 12.055 C 16.029 11.976,7.946 11.979,7.695 12.057 M7.695 16.057 C 7.466 16.129,7.256 16.299,7.128 16.516 C 7.037 16.672,7.020 16.746,7.020 17.000 C 7.020 17.256,7.036 17.328,7.131 17.489 C 7.256 17.702,7.449 17.864,7.670 17.943 C 7.891 18.022,14.109 18.022,14.330 17.943 C 14.551 17.864,14.744 17.702,14.869 17.489 C 14.964 17.328,14.980 17.256,14.980 17.000 C 14.980 16.746,14.963 16.672,14.872 16.516 C 14.740 16.293,14.533 16.128,14.290 16.055 C 14.030 15.977,7.945 15.979,7.695 16.057 " stroke="none" fill-rule="evenodd" fill="black"></path></svg>