<svg width="24" height="24" viewBox="0 0 24 24" fill="none" xmlns="http://www.w3.org/2000/svg"><path d="M6.920 1.040 C 6.150 1.092,5.672 1.205,5.180 1.451 C 4.089 1.996,3.357 2.961,3.124 4.160 C 3.012 4.738,3.000 5.470,3.000 12.000 C 3.000 19.433,3.002 19.515,3.245 20.320 C 3.577 21.422,4.578 22.423,5.680 22.755 C 6.408 22.974,6.857 23.000,9.980 23.000 L 12.700 22.999 12.900 22.905 C 13.281 22.724,13.488 22.405,13.488 22.000 C 13.488 21.615,13.293 21.297,12.940 21.106 C 12.781 21.021,12.758 21.020,9.780 20.997 C 6.579 20.973,6.505 20.969,6.080 20.769 C 5.812 20.643,5.376 20.216,5.248 19.952 C 5.198 19.849,5.126 19.633,5.088 19.472 C 5.025 19.202,5.020 18.630,5.020 12.000 C 5.020 5.370,5.025 4.798,5.088 4.528 C 5.186 4.109,5.304 3.895,5.600 3.600 C 5.895 3.304,6.109 3.186,6.528 3.088 C 6.795 3.026,7.256 3.020,12.000 3.020 C 16.744 3.020,17.205 3.026,17.472 3.088 C 17.633 3.126,17.849 3.198,17.952 3.248 C 18.194 3.366,18.634 3.806,18.752 4.048 C 18.973 4.502,18.971 4.453,18.996 8.780 L 19.020 12.780 19.106 12.940 C 19.297 13.293,19.615 13.488,20.000 13.488 C 20.405 13.488,20.724 13.281,20.905 12.900 L 20.999 12.700 21.000 8.980 C 21.000 4.789,20.984 4.439,20.755 3.680 C 20.424 2.581,19.465 1.622,18.320 1.246 C 17.657 1.028,17.701 1.030,12.340 1.019 C 9.612 1.014,7.173 1.023,6.920 1.040 M17.695 15.057 C 17.466 15.129,17.256 15.299,17.128 15.516 L 17.020 15.700 17.009 17.635 L 16.997 19.571 16.269 18.852 C 15.655 18.247,15.509 18.123,15.343 18.067 C 14.865 17.905,14.383 18.083,14.128 18.516 C 14.037 18.672,14.020 18.746,14.020 19.000 C 14.020 19.254,14.036 19.328,14.127 19.480 C 14.261 19.704,17.368 22.804,17.560 22.905 C 17.754 23.007,18.246 23.007,18.440 22.905 C 18.632 22.804,21.739 19.704,21.873 19.480 C 21.964 19.328,21.980 19.254,21.980 19.000 C 21.980 18.746,21.963 18.672,21.872 18.516 C 21.617 18.083,21.135 17.905,20.657 18.067 C 20.491 18.123,20.345 18.247,19.731 18.852 L 19.003 19.571 18.991 17.635 L 18.980 15.700 18.872 15.516 C 18.628 15.101,18.150 14.915,17.695 15.057 " stroke="none" fill-rule="evenodd" fill="black"></path></svg>