<svg width="24" height="24" viewBox="0 0 24 24" fill="none" xmlns="http://www.w3.org/2000/svg"><path d="M6.920 1.040 C 6.150 1.092,5.672 1.205,5.180 1.451 C 4.089 1.996,3.357 2.961,3.124 4.160 C 3.012 4.738,3.000 5.470,3.000 12.000 C 3.000 19.433,3.002 19.515,3.245 20.320 C 3.577 21.422,4.578 22.423,5.680 22.755 C 6.387 22.968,6.881 23.000,9.480 23.000 L 11.700 22.999 11.900 22.905 C 12.281 22.724,12.488 22.405,12.488 22.000 C 12.488 21.615,12.293 21.297,11.940 21.106 C 11.782 21.021,11.745 21.020,9.280 20.997 C 6.618 20.972,6.494 20.964,6.080 20.769 C 5.812 20.643,5.376 20.216,5.248 19.952 C 5.198 19.849,5.126 19.633,5.088 19.472 C 5.025 19.202,5.020 18.630,5.020 12.000 C 5.020 5.370,5.025 4.798,5.088 4.528 C 5.186 4.109,5.304 3.895,5.600 3.600 C 5.895 3.304,6.109 3.186,6.528 3.088 C 6.795 3.026,7.256 3.020,12.000 3.020 C 16.744 3.020,17.205 3.026,17.472 3.088 C 17.633 3.126,17.849 3.198,17.952 3.248 C 18.194 3.366,18.634 3.806,18.752 4.048 C 18.964 4.484,18.969 4.551,18.995 7.780 C 19.020 10.756,19.021 10.781,19.106 10.940 C 19.297 11.293,19.615 11.488,20.000 11.488 C 20.405 11.488,20.724 11.281,20.905 10.900 L 20.999 10.700 21.000 7.980 C 21.000 4.857,20.974 4.408,20.755 3.680 C 20.424 2.581,19.465 1.622,18.320 1.246 C 17.657 1.028,17.701 1.030,12.340 1.019 C 9.612 1.014,7.173 1.023,6.920 1.040 M7.695 6.057 C 7.466 6.129,7.256 6.299,7.128 6.516 C 7.037 6.672,7.020 6.746,7.020 7.000 C 7.020 7.256,7.036 7.328,7.131 7.489 C 7.256 7.702,7.449 7.864,7.670 7.943 C 7.892 8.022,16.108 8.022,16.330 7.943 C 16.551 7.864,16.744 7.702,16.869 7.489 C 16.964 7.328,16.980 7.256,16.980 7.000 C 16.980 6.746,16.963 6.672,16.872 6.516 C 16.740 6.293,16.533 6.128,16.290 6.055 C 16.029 5.976,7.946 5.979,7.695 6.057 M7.695 10.057 C 7.466 10.129,7.256 10.299,7.128 10.516 C 7.037 10.672,7.020 10.746,7.020 11.000 C 7.020 11.256,7.036 11.328,7.131 11.489 C 7.256 11.702,7.449 11.864,7.670 11.943 C 7.891 12.022,14.109 12.022,14.330 11.943 C 14.551 11.864,14.744 11.702,14.869 11.489 C 14.964 11.328,14.980 11.256,14.980 11.000 C 14.980 10.746,14.963 10.672,14.872 10.516 C 14.740 10.293,14.533 10.128,14.290 10.055 C 14.030 9.977,7.945 9.979,7.695 10.057 M17.277 13.558 C 15.817 13.825,14.611 14.720,13.972 16.010 C 13.352 17.263,13.352 18.737,13.972 19.990 C 14.592 21.242,15.706 22.097,17.137 22.419 C 17.638 22.531,18.531 22.504,19.094 22.359 C 19.447 22.268,20.013 22.040,20.244 21.896 L 20.388 21.807 20.864 22.286 C 21.407 22.833,21.587 22.956,21.888 22.987 C 22.295 23.029,22.660 22.844,22.867 22.492 C 22.964 22.327,22.980 22.257,22.980 22.000 C 22.980 21.603,22.902 21.476,22.286 20.864 L 21.807 20.388 21.896 20.244 C 22.040 20.013,22.268 19.447,22.359 19.094 C 22.504 18.531,22.531 17.638,22.419 17.137 C 22.188 16.109,21.718 15.299,20.961 14.624 C 20.474 14.190,19.831 13.845,19.159 13.658 C 18.836 13.568,18.683 13.550,18.120 13.538 C 17.757 13.531,17.378 13.540,17.277 13.558 M7.695 14.057 C 7.466 14.129,7.256 14.299,7.128 14.516 C 7.037 14.672,7.020 14.746,7.020 15.000 C 7.020 15.256,7.036 15.328,7.131 15.489 C 7.256 15.702,7.449 15.864,7.670 15.943 C 7.885 16.020,10.115 16.020,10.330 15.943 C 10.551 15.864,10.744 15.702,10.869 15.489 C 10.964 15.328,10.980 15.256,10.980 15.000 C 10.980 14.746,10.963 14.672,10.872 14.516 C 10.740 14.293,10.533 14.128,10.290 14.055 C 10.039 13.979,7.937 13.981,7.695 14.057 M18.817 15.633 C 19.521 15.888,20.103 16.469,20.370 17.183 C 20.446 17.388,20.458 17.499,20.458 18.000 C 20.458 18.501,20.446 18.612,20.370 18.817 C 20.140 19.432,19.659 19.974,19.110 20.235 C 18.695 20.432,18.446 20.490,18.000 20.490 C 17.554 20.490,17.305 20.432,16.890 20.235 C 16.339 19.973,15.851 19.422,15.634 18.817 C 15.526 18.518,15.488 17.830,15.559 17.470 C 15.730 16.598,16.497 15.796,17.371 15.575 C 17.699 15.492,18.520 15.525,18.817 15.633 " stroke="none" fill-rule="evenodd" fill="black"></path></svg>