<svg width="24" height="24" viewBox="0 0 24 24" fill="none" xmlns="http://www.w3.org/2000/svg"><path d="M6.920 1.041 C 6.153 1.092,5.673 1.205,5.180 1.451 C 4.089 1.996,3.357 2.961,3.124 4.160 C 3.012 4.738,3.000 5.470,3.000 12.000 C 3.000 19.433,3.002 19.515,3.245 20.320 C 3.577 21.422,4.578 22.423,5.680 22.755 C 6.460 22.990,6.716 23.000,12.000 23.000 C 17.284 23.000,17.540 22.990,18.320 22.755 C 19.422 22.423,20.423 21.422,20.755 20.320 C 20.993 19.530,21.000 19.336,21.000 13.297 C 21.000 8.382,20.994 7.835,20.935 7.657 C 20.876 7.477,20.597 7.187,17.725 4.316 C 15.601 2.193,14.528 1.147,14.420 1.096 C 14.267 1.023,14.110 1.020,10.820 1.016 C 8.928 1.013,7.173 1.025,6.920 1.041 M13.001 5.070 C 13.001 7.322,13.014 7.481,13.227 7.919 C 13.366 8.205,13.795 8.634,14.081 8.773 C 14.519 8.986,14.677 8.999,16.932 8.999 L 19.004 9.000 18.989 14.110 C 18.973 19.665,18.980 19.483,18.752 19.952 C 18.626 20.211,18.190 20.638,17.918 20.768 C 17.471 20.983,17.547 20.980,12.000 20.980 C 6.462 20.980,6.533 20.983,6.082 20.771 C 5.812 20.643,5.377 20.217,5.248 19.952 C 5.198 19.849,5.126 19.633,5.088 19.472 C 5.025 19.202,5.020 18.630,5.020 12.000 C 5.020 5.370,5.025 4.798,5.088 4.528 C 5.175 4.155,5.294 3.918,5.520 3.667 C 5.884 3.261,6.283 3.090,6.980 3.040 C 7.200 3.025,8.645 3.009,10.190 3.006 L 13.000 3.000 13.001 5.070 M16.300 5.720 L 17.580 7.000 16.290 7.000 L 15.000 7.000 15.000 5.720 C 15.000 5.016,15.005 4.440,15.010 4.440 C 15.016 4.440,15.596 5.016,16.300 5.720 M11.695 11.057 C 11.466 11.129,11.256 11.299,11.128 11.516 L 11.020 11.700 11.009 13.635 L 10.997 15.571 10.269 14.852 C 9.655 14.247,9.509 14.123,9.343 14.067 C 8.865 13.905,8.383 14.083,8.128 14.516 C 8.037 14.672,8.020 14.746,8.020 15.000 C 8.020 15.254,8.036 15.328,8.127 15.480 C 8.261 15.704,11.368 18.804,11.560 18.905 C 11.660 18.957,11.786 18.978,12.000 18.978 C 12.214 18.978,12.340 18.957,12.440 18.905 C 12.632 18.804,15.739 15.704,15.873 15.480 C 15.964 15.328,15.980 15.254,15.980 15.000 C 15.980 14.746,15.963 14.672,15.872 14.516 C 15.617 14.083,15.135 13.905,14.657 14.067 C 14.491 14.123,14.345 14.247,13.731 14.852 L 13.003 15.571 12.991 13.635 L 12.980 11.700 12.872 11.516 C 12.628 11.101,12.150 10.915,11.695 11.057 " stroke="none" fill-rule="evenodd" fill="black"></path></svg>