<svg width="24" height="24" viewBox="0 0 24 24" fill="none" xmlns="http://www.w3.org/2000/svg"><path d="M6.920 1.040 C 6.150 1.092,5.672 1.205,5.180 1.451 C 4.089 1.996,3.357 2.961,3.124 4.160 C 3.012 4.738,3.000 5.470,3.000 12.000 C 3.000 19.433,3.002 19.515,3.245 20.320 C 3.577 21.422,4.578 22.423,5.680 22.755 C 6.460 22.990,6.716 23.000,12.000 23.000 C 17.284 23.000,17.540 22.990,18.320 22.755 C 19.422 22.423,20.423 21.422,20.755 20.320 C 20.998 19.515,21.000 19.433,21.000 12.000 C 21.000 4.567,20.998 4.485,20.755 3.680 C 20.424 2.581,19.465 1.622,18.320 1.246 C 17.657 1.028,17.701 1.030,12.340 1.019 C 9.612 1.014,7.173 1.023,6.920 1.040 M17.492 3.091 C 17.893 3.188,18.109 3.309,18.400 3.600 C 18.696 3.895,18.814 4.109,18.912 4.528 C 18.975 4.798,18.980 5.370,18.980 12.000 C 18.980 18.630,18.975 19.202,18.912 19.472 C 18.814 19.891,18.696 20.104,18.400 20.401 C 18.101 20.701,17.820 20.851,17.418 20.928 C 17.011 21.004,6.989 21.004,6.582 20.927 C 6.170 20.850,5.898 20.704,5.600 20.403 C 5.303 20.104,5.186 19.890,5.088 19.472 C 5.025 19.202,5.020 18.630,5.020 12.000 C 5.020 5.370,5.025 4.798,5.088 4.528 C 5.175 4.155,5.294 3.918,5.520 3.667 C 5.883 3.262,6.281 3.091,6.980 3.039 C 7.200 3.023,9.594 3.013,12.300 3.018 C 16.701 3.025,17.249 3.033,17.492 3.091 M12.960 6.062 C 12.605 6.138,12.107 6.393,11.832 6.639 C 11.532 6.907,11.239 7.352,11.118 7.722 L 11.020 8.020 11.020 11.163 L 11.020 14.306 11.141 14.503 C 11.543 15.156,12.457 15.156,12.859 14.503 L 12.980 14.306 13.000 11.323 C 13.022 8.080,13.010 8.226,13.253 8.078 C 13.415 7.979,13.585 7.979,13.748 8.078 C 14.011 8.239,14.000 8.096,13.999 11.288 C 13.999 14.440,13.994 14.516,13.772 14.931 C 13.625 15.208,13.191 15.643,12.930 15.775 C 12.349 16.070,11.658 16.073,11.088 15.784 C 10.822 15.649,10.494 15.344,10.312 15.063 C 10.016 14.605,10.025 14.692,10.001 12.060 L 9.980 9.700 9.871 9.514 C 9.479 8.848,8.521 8.848,8.129 9.514 L 8.020 9.700 8.009 12.028 C 7.998 14.257,8.001 14.373,8.081 14.767 C 8.357 16.119,9.247 17.194,10.512 17.704 C 11.231 17.994,12.023 18.070,12.757 17.921 C 14.387 17.588,15.589 16.384,15.922 14.751 C 16.000 14.369,16.002 14.232,15.991 11.167 L 15.980 7.980 15.869 7.680 C 15.430 6.486,14.192 5.798,12.960 6.062 " stroke="none" fill-rule="evenodd" fill="black"></path></svg>