<svg width="24" height="24" viewBox="0 0 24 24" fill="none" xmlns="http://www.w3.org/2000/svg"><path d="M6.920 1.040 C 6.150 1.092,5.672 1.205,5.180 1.451 C 4.089 1.996,3.357 2.961,3.124 4.160 C 3.012 4.738,3.000 5.470,3.000 12.000 C 3.000 19.433,3.002 19.515,3.245 20.320 C 3.577 21.422,4.578 22.423,5.680 22.755 C 6.408 22.974,6.857 23.000,9.980 23.000 L 12.700 22.999 12.900 22.905 C 13.281 22.724,13.488 22.405,13.488 22.000 C 13.488 21.615,13.293 21.297,12.940 21.106 C 12.781 21.021,12.758 21.020,9.780 20.997 C 6.579 20.973,6.505 20.969,6.080 20.769 C 5.812 20.643,5.376 20.216,5.248 19.952 C 5.198 19.849,5.126 19.633,5.088 19.472 C 5.025 19.202,5.020 18.630,5.020 12.000 C 5.020 5.370,5.025 4.798,5.088 4.528 C 5.186 4.109,5.304 3.895,5.600 3.600 C 5.895 3.304,6.109 3.186,6.528 3.088 C 6.795 3.026,7.256 3.020,12.000 3.020 C 16.744 3.020,17.205 3.026,17.472 3.088 C 17.633 3.126,17.849 3.198,17.952 3.248 C 18.194 3.366,18.634 3.806,18.752 4.048 C 18.961 4.477,18.968 4.575,18.995 7.543 L 19.020 10.306 19.141 10.503 C 19.543 11.156,20.457 11.156,20.859 10.503 L 20.980 10.306 20.992 7.843 C 21.007 4.928,20.978 4.425,20.755 3.680 C 20.426 2.582,19.465 1.622,18.320 1.246 C 17.657 1.028,17.701 1.030,12.340 1.019 C 9.612 1.014,7.173 1.023,6.920 1.040 M17.473 13.038 C 17.168 13.094,16.899 13.181,15.673 13.620 C 14.403 14.074,14.288 14.137,14.120 14.463 L 14.020 14.658 14.020 16.299 C 14.020 17.875,14.024 17.953,14.110 18.279 C 14.306 19.013,14.731 19.697,15.405 20.364 C 15.957 20.911,16.772 21.504,17.396 21.813 C 17.691 21.958,17.768 21.980,18.000 21.980 C 18.232 21.980,18.309 21.958,18.604 21.813 C 19.235 21.500,20.057 20.900,20.603 20.354 C 21.275 19.683,21.686 19.025,21.887 18.300 C 21.971 17.999,21.977 17.886,21.991 16.386 C 22.003 15.050,21.995 14.764,21.945 14.617 C 21.871 14.399,21.710 14.185,21.546 14.085 C 21.409 14.001,19.208 13.208,18.819 13.102 C 18.541 13.026,17.745 12.988,17.473 13.038 M19.160 15.328 L 19.980 15.621 19.991 16.601 C 20.001 17.482,19.994 17.606,19.922 17.842 C 19.766 18.356,19.267 18.956,18.563 19.476 C 18.084 19.830,18.027 19.856,17.887 19.784 C 17.432 19.549,16.603 18.794,16.324 18.362 C 16.028 17.903,15.997 17.728,16.009 16.601 L 16.020 15.623 16.720 15.369 C 18.004 14.903,17.974 14.904,19.160 15.328 " stroke="none" fill-rule="evenodd" fill="black"></path></svg>