<svg width="24" height="24" viewBox="0 0 24 24" fill="none" xmlns="http://www.w3.org/2000/svg"><path d="M6.920 1.040 C 6.150 1.092,5.672 1.205,5.180 1.451 C 4.089 1.996,3.357 2.961,3.124 4.160 C 3.012 4.738,3.000 5.470,3.000 12.000 C 3.000 19.433,3.002 19.515,3.245 20.320 C 3.577 21.422,4.578 22.423,5.680 22.755 C 6.399 22.972,6.873 23.000,9.720 22.998 C 11.670 22.997,12.211 22.985,12.330 22.943 C 12.551 22.864,12.744 22.702,12.869 22.489 C 12.964 22.328,12.980 22.256,12.980 22.000 C 12.980 21.746,12.963 21.672,12.872 21.516 C 12.761 21.327,12.571 21.158,12.373 21.070 C 12.288 21.033,11.570 21.015,9.520 20.998 C 6.600 20.973,6.500 20.966,6.080 20.769 C 5.812 20.643,5.376 20.216,5.248 19.952 C 5.198 19.849,5.126 19.633,5.088 19.472 C 5.025 19.202,5.020 18.630,5.020 12.000 C 5.020 5.370,5.025 4.798,5.088 4.528 C 5.186 4.109,5.304 3.895,5.600 3.600 C 5.895 3.304,6.109 3.186,6.528 3.088 C 6.795 3.026,7.256 3.020,12.000 3.020 C 16.744 3.020,17.205 3.026,17.472 3.088 C 17.633 3.126,17.849 3.198,17.952 3.248 C 18.194 3.366,18.634 3.806,18.752 4.048 C 18.964 4.484,18.969 4.551,18.995 7.780 C 19.020 10.756,19.021 10.781,19.106 10.940 C 19.297 11.293,19.615 11.488,20.000 11.488 C 20.405 11.488,20.724 11.281,20.905 10.900 L 20.999 10.700 21.000 7.980 C 21.000 4.857,20.974 4.408,20.755 3.680 C 20.424 2.581,19.465 1.622,18.320 1.246 C 17.657 1.028,17.701 1.030,12.340 1.019 C 9.612 1.014,7.173 1.023,6.920 1.040 M7.695 6.057 C 7.466 6.129,7.256 6.299,7.128 6.516 C 7.037 6.672,7.020 6.746,7.020 7.000 C 7.020 7.256,7.036 7.328,7.131 7.489 C 7.256 7.702,7.449 7.864,7.670 7.943 C 7.892 8.022,16.108 8.022,16.330 7.943 C 16.551 7.864,16.744 7.702,16.869 7.489 C 16.964 7.328,16.980 7.256,16.980 7.000 C 16.980 6.746,16.963 6.672,16.872 6.516 C 16.740 6.293,16.533 6.128,16.290 6.055 C 16.029 5.976,7.946 5.979,7.695 6.057 M7.695 10.057 C 7.466 10.129,7.256 10.299,7.128 10.516 C 7.037 10.672,7.020 10.746,7.020 11.000 C 7.020 11.256,7.036 11.328,7.131 11.489 C 7.256 11.702,7.449 11.864,7.670 11.943 C 7.891 12.022,14.109 12.022,14.330 11.943 C 14.551 11.864,14.744 11.702,14.869 11.489 C 14.964 11.328,14.980 11.256,14.980 11.000 C 14.980 10.746,14.963 10.672,14.872 10.516 C 14.740 10.293,14.533 10.128,14.290 10.055 C 14.030 9.977,7.945 9.979,7.695 10.057 M7.695 14.057 C 7.466 14.129,7.256 14.299,7.128 14.516 C 7.037 14.672,7.020 14.746,7.020 15.000 C 7.020 15.256,7.036 15.328,7.131 15.489 C 7.256 15.702,7.449 15.864,7.670 15.943 C 7.885 16.020,10.115 16.020,10.330 15.943 C 10.551 15.864,10.744 15.702,10.869 15.489 C 10.964 15.328,10.980 15.256,10.980 15.000 C 10.980 14.746,10.963 14.672,10.872 14.516 C 10.740 14.293,10.533 14.128,10.290 14.055 C 10.039 13.979,7.937 13.981,7.695 14.057 M17.695 14.057 C 17.466 14.129,17.256 14.299,17.128 14.516 L 17.020 14.700 17.008 15.850 L 16.995 17.000 15.944 17.000 C 14.797 17.000,14.643 17.022,14.382 17.221 C 14.302 17.282,14.187 17.415,14.128 17.516 C 14.037 17.672,14.020 17.746,14.020 18.000 C 14.020 18.256,14.036 18.328,14.131 18.489 C 14.192 18.592,14.304 18.725,14.381 18.783 C 14.642 18.983,14.738 18.996,15.908 18.998 L 16.995 19.000 17.008 20.153 L 17.020 21.307 17.141 21.503 C 17.543 22.156,18.457 22.156,18.859 21.503 L 18.980 21.307 18.992 20.153 L 19.005 19.000 20.092 18.998 C 21.262 18.996,21.358 18.983,21.619 18.783 C 21.696 18.725,21.808 18.592,21.869 18.489 C 21.964 18.328,21.980 18.256,21.980 18.000 C 21.980 17.746,21.963 17.672,21.872 17.516 C 21.813 17.415,21.698 17.282,21.618 17.221 C 21.357 17.022,21.203 17.000,20.056 17.000 L 19.005 17.000 18.992 15.850 L 18.980 14.700 18.872 14.516 C 18.628 14.101,18.150 13.915,17.695 14.057 " stroke="none" fill-rule="evenodd" fill="black"></path></svg>