<svg width="24" height="24" viewBox="0 0 24 24" fill="none" xmlns="http://www.w3.org/2000/svg"><path d="M12.240 1.035 C 11.785 1.183,11.512 1.546,11.512 2.003 C 11.512 2.292,11.619 2.536,11.827 2.724 C 12.136 3.002,12.068 2.995,14.780 3.014 C 17.402 3.031,17.526 3.041,17.952 3.248 C 18.194 3.366,18.634 3.806,18.752 4.048 C 18.802 4.151,18.874 4.367,18.912 4.528 C 18.975 4.798,18.980 5.370,18.980 12.000 C 18.980 18.630,18.975 19.202,18.912 19.472 C 18.814 19.891,18.696 20.104,18.400 20.401 C 18.101 20.701,17.820 20.851,17.418 20.928 C 17.011 21.004,6.989 21.004,6.582 20.927 C 6.170 20.850,5.898 20.704,5.600 20.403 C 5.086 19.884,5.042 19.687,5.015 17.780 C 4.993 16.177,4.984 16.115,4.724 15.828 C 4.530 15.612,4.319 15.522,4.009 15.521 C 3.581 15.519,3.280 15.710,3.095 16.100 C 3.002 16.297,3.001 16.320,3.000 17.520 C 3.000 19.089,3.051 19.677,3.245 20.320 C 3.577 21.422,4.578 22.423,5.680 22.755 C 6.460 22.990,6.716 23.000,12.000 23.000 C 17.284 23.000,17.540 22.990,18.320 22.755 C 19.422 22.423,20.423 21.422,20.755 20.320 C 20.998 19.515,21.000 19.433,21.000 12.000 C 21.000 4.567,20.998 4.485,20.755 3.680 C 20.424 2.581,19.464 1.621,18.320 1.246 C 17.723 1.050,17.428 1.031,14.800 1.016 C 13.447 1.009,12.295 1.017,12.240 1.035 M6.960 2.062 C 6.605 2.138,6.107 2.393,5.832 2.639 C 5.532 2.907,5.239 3.352,5.118 3.722 L 5.020 4.020 5.020 7.163 L 5.020 10.306 5.141 10.503 C 5.543 11.156,6.457 11.156,6.859 10.503 L 6.980 10.306 7.000 7.323 C 7.022 4.080,7.010 4.226,7.253 4.078 C 7.415 3.979,7.585 3.979,7.748 4.078 C 8.011 4.239,8.000 4.096,7.999 7.288 C 7.999 10.440,7.994 10.516,7.772 10.931 C 7.625 11.208,7.191 11.643,6.930 11.775 C 6.349 12.070,5.658 12.073,5.088 11.784 C 4.822 11.649,4.494 11.344,4.312 11.063 C 4.016 10.605,4.025 10.692,4.001 8.060 L 3.980 5.700 3.871 5.514 C 3.648 5.134,3.208 4.941,2.786 5.035 C 2.515 5.096,2.270 5.275,2.129 5.514 L 2.020 5.700 2.009 8.028 C 1.998 10.257,2.001 10.373,2.081 10.767 C 2.357 12.119,3.247 13.194,4.512 13.704 C 5.231 13.994,6.023 14.070,6.757 13.921 C 8.387 13.588,9.589 12.384,9.922 10.751 C 10.000 10.369,10.002 10.232,9.991 7.167 L 9.980 3.980 9.869 3.680 C 9.430 2.486,8.192 1.798,6.960 2.062 " stroke="none" fill-rule="evenodd" fill="black"></path></svg>