<svg width="24" height="24" viewBox="0 0 24 24" fill="none" xmlns="http://www.w3.org/2000/svg"><path d="M6.920 1.042 C 6.155 1.091,5.674 1.204,5.180 1.451 C 4.089 1.996,3.357 2.961,3.124 4.160 C 3.012 4.738,3.000 5.470,3.000 12.000 C 3.000 19.433,3.002 19.515,3.245 20.320 C 3.577 21.422,4.578 22.423,5.680 22.755 C 6.460 22.990,6.716 23.000,12.000 23.000 C 17.284 23.000,17.540 22.990,18.320 22.755 C 19.422 22.423,20.425 21.421,20.755 20.320 C 20.999 19.506,21.006 19.309,20.992 13.160 L 20.980 7.700 20.873 7.520 C 20.812 7.417,19.431 6.008,17.653 4.235 C 14.817 1.407,14.522 1.125,14.343 1.065 C 14.166 1.007,13.792 1.001,10.763 1.006 C 8.902 1.009,7.173 1.025,6.920 1.042 M13.002 5.590 C 13.003 7.649,13.014 8.211,13.057 8.330 C 13.136 8.551,13.298 8.744,13.511 8.869 L 13.700 8.980 16.352 8.991 L 19.004 9.002 18.989 14.111 C 18.973 19.665,18.980 19.483,18.752 19.952 C 18.626 20.211,18.190 20.638,17.918 20.768 C 17.471 20.983,17.547 20.980,12.000 20.980 C 6.462 20.980,6.533 20.983,6.082 20.771 C 5.812 20.643,5.377 20.217,5.248 19.952 C 5.198 19.849,5.126 19.633,5.088 19.472 C 5.025 19.202,5.020 18.630,5.020 12.000 C 5.020 5.370,5.025 4.798,5.088 4.528 C 5.175 4.155,5.294 3.918,5.520 3.667 C 5.884 3.261,6.283 3.090,6.980 3.040 C 7.200 3.025,8.645 3.009,10.190 3.006 L 13.000 3.000 13.002 5.590 M16.300 5.720 L 17.580 7.000 16.290 7.000 L 15.000 7.000 15.000 5.720 C 15.000 5.016,15.005 4.440,15.010 4.440 C 15.016 4.440,15.596 5.016,16.300 5.720 M11.473 10.038 C 11.168 10.094,10.899 10.181,9.673 10.620 C 8.403 11.074,8.288 11.137,8.120 11.463 L 8.020 11.658 8.020 13.299 C 8.020 14.875,8.024 14.953,8.110 15.279 C 8.306 16.013,8.731 16.697,9.405 17.364 C 9.957 17.911,10.772 18.504,11.396 18.813 C 11.691 18.958,11.768 18.980,12.000 18.980 C 12.232 18.980,12.309 18.958,12.604 18.813 C 13.235 18.500,14.057 17.900,14.603 17.354 C 15.275 16.683,15.686 16.025,15.887 15.300 C 15.971 14.999,15.977 14.886,15.991 13.386 C 16.003 12.050,15.995 11.764,15.945 11.617 C 15.871 11.399,15.710 11.185,15.546 11.085 C 15.409 11.001,13.208 10.208,12.819 10.102 C 12.541 10.026,11.745 9.988,11.473 10.038 M13.160 12.328 L 13.980 12.621 13.991 13.601 C 14.001 14.482,13.994 14.606,13.922 14.842 C 13.766 15.356,13.267 15.956,12.563 16.476 C 12.084 16.830,12.027 16.856,11.887 16.784 C 11.432 16.549,10.603 15.794,10.324 15.362 C 10.028 14.903,9.997 14.728,10.009 13.601 L 10.020 12.623 10.720 12.369 C 12.004 11.903,11.974 11.904,13.160 12.328 " stroke="none" fill-rule="evenodd" fill="black"></path></svg>