<svg width="24" height="24" viewBox="0 0 24 24" fill="none" xmlns="http://www.w3.org/2000/svg"><path d="M6.920 1.040 C 6.150 1.092,5.672 1.205,5.180 1.451 C 4.089 1.996,3.357 2.961,3.124 4.160 C 3.012 4.738,3.000 5.470,3.000 12.000 C 3.000 19.433,3.002 19.515,3.245 20.320 C 3.577 21.422,4.578 22.423,5.680 22.755 C 6.408 22.974,6.857 23.000,9.980 23.000 L 12.700 22.999 12.900 22.905 C 13.281 22.724,13.488 22.405,13.488 22.000 C 13.488 21.615,13.293 21.297,12.940 21.106 C 12.781 21.021,12.758 21.020,9.780 20.997 C 6.579 20.973,6.505 20.969,6.080 20.769 C 5.812 20.643,5.376 20.216,5.248 19.952 C 5.198 19.849,5.126 19.633,5.088 19.472 C 5.025 19.202,5.020 18.630,5.020 12.000 C 5.020 5.370,5.025 4.798,5.088 4.528 C 5.186 4.109,5.304 3.895,5.600 3.600 C 5.895 3.304,6.109 3.186,6.528 3.088 C 6.795 3.026,7.256 3.020,12.000 3.020 C 16.744 3.020,17.205 3.026,17.472 3.088 C 17.633 3.126,17.849 3.198,17.952 3.248 C 18.194 3.366,18.634 3.806,18.752 4.048 C 18.973 4.502,18.971 4.453,18.996 8.780 L 19.020 12.780 19.106 12.940 C 19.297 13.293,19.615 13.488,20.000 13.488 C 20.405 13.488,20.724 13.281,20.905 12.900 L 20.999 12.700 21.000 8.980 C 21.000 4.789,20.984 4.439,20.755 3.680 C 20.424 2.581,19.465 1.622,18.320 1.246 C 17.657 1.028,17.701 1.030,12.340 1.019 C 9.612 1.014,7.173 1.023,6.920 1.040 M7.695 6.057 C 7.466 6.129,7.256 6.299,7.128 6.516 C 7.037 6.672,7.020 6.746,7.020 7.000 C 7.020 7.256,7.036 7.328,7.131 7.489 C 7.256 7.702,7.449 7.864,7.670 7.943 C 7.892 8.022,16.108 8.022,16.330 7.943 C 16.551 7.864,16.744 7.702,16.869 7.489 C 16.964 7.328,16.980 7.256,16.980 7.000 C 16.980 6.746,16.963 6.672,16.872 6.516 C 16.740 6.293,16.533 6.128,16.290 6.055 C 16.029 5.976,7.946 5.979,7.695 6.057 M7.695 10.057 C 7.466 10.129,7.256 10.299,7.128 10.516 C 7.037 10.672,7.020 10.746,7.020 11.000 C 7.020 11.256,7.036 11.328,7.131 11.489 C 7.256 11.702,7.449 11.864,7.670 11.943 C 7.891 12.022,14.109 12.022,14.330 11.943 C 14.551 11.864,14.744 11.702,14.869 11.489 C 14.964 11.328,14.980 11.256,14.980 11.000 C 14.980 10.746,14.963 10.672,14.872 10.516 C 14.740 10.293,14.533 10.128,14.290 10.055 C 14.030 9.977,7.945 9.979,7.695 10.057 M7.695 14.057 C 7.466 14.129,7.256 14.299,7.128 14.516 C 7.037 14.672,7.020 14.746,7.020 15.000 C 7.020 15.256,7.036 15.328,7.131 15.489 C 7.256 15.702,7.449 15.864,7.670 15.943 C 7.885 16.020,10.115 16.020,10.330 15.943 C 10.551 15.864,10.744 15.702,10.869 15.489 C 10.964 15.328,10.980 15.256,10.980 15.000 C 10.980 14.746,10.963 14.672,10.872 14.516 C 10.740 14.293,10.533 14.128,10.290 14.055 C 10.039 13.979,7.937 13.981,7.695 14.057 M17.695 15.057 C 17.466 15.129,17.256 15.299,17.128 15.516 L 17.020 15.700 17.009 17.635 L 16.997 19.571 16.269 18.852 C 15.655 18.247,15.509 18.123,15.343 18.067 C 14.865 17.905,14.383 18.083,14.128 18.516 C 14.037 18.672,14.020 18.746,14.020 19.000 C 14.020 19.254,14.036 19.328,14.127 19.480 C 14.261 19.704,17.368 22.804,17.560 22.905 C 17.754 23.007,18.246 23.007,18.440 22.905 C 18.632 22.804,21.739 19.704,21.873 19.480 C 21.964 19.328,21.980 19.254,21.980 19.000 C 21.980 18.746,21.963 18.672,21.872 18.516 C 21.617 18.083,21.135 17.905,20.657 18.067 C 20.491 18.123,20.345 18.247,19.731 18.852 L 19.003 19.571 18.991 17.635 L 18.980 15.700 18.872 15.516 C 18.628 15.101,18.150 14.915,17.695 15.057 " stroke="none" fill-rule="evenodd" fill="black"></path></svg>