<svg width="24" height="24" viewBox="0 0 24 24" fill="none" xmlns="http://www.w3.org/2000/svg"><path d="M6.920 1.040 C 6.150 1.092,5.672 1.205,5.180 1.451 C 4.089 1.996,3.357 2.961,3.124 4.160 C 3.012 4.738,3.000 5.470,3.000 12.000 C 3.000 19.433,3.002 19.515,3.245 20.320 C 3.577 21.422,4.578 22.423,5.680 22.755 C 6.434 22.982,6.806 23.000,10.720 22.998 C 13.506 22.997,14.209 22.986,14.330 22.943 C 14.551 22.864,14.744 22.702,14.869 22.489 C 14.964 22.328,14.980 22.256,14.980 22.000 C 14.980 21.746,14.963 21.672,14.872 21.516 C 14.761 21.328,14.572 21.158,14.373 21.070 C 14.286 21.032,13.387 21.015,10.520 20.998 C 6.521 20.974,6.517 20.974,6.080 20.769 C 5.812 20.643,5.376 20.216,5.248 19.952 C 5.198 19.849,5.126 19.633,5.088 19.472 C 5.025 19.202,5.020 18.630,5.020 12.000 C 5.020 5.370,5.025 4.798,5.088 4.528 C 5.186 4.109,5.304 3.895,5.600 3.600 C 5.895 3.304,6.109 3.186,6.528 3.088 C 6.795 3.026,7.256 3.020,12.000 3.020 C 16.744 3.020,17.205 3.026,17.472 3.088 C 17.633 3.126,17.849 3.198,17.952 3.248 C 18.194 3.366,18.634 3.806,18.752 4.048 C 18.971 4.498,18.970 4.481,18.996 8.500 C 19.020 12.215,19.020 12.220,19.106 12.380 C 19.297 12.733,19.615 12.928,20.000 12.928 C 20.405 12.928,20.724 12.721,20.905 12.340 L 20.999 12.140 21.000 8.700 C 21.000 4.809,20.982 4.432,20.755 3.680 C 20.424 2.581,19.465 1.622,18.320 1.246 C 17.657 1.028,17.701 1.030,12.340 1.019 C 9.612 1.014,7.173 1.023,6.920 1.040 M14.695 16.057 C 14.466 16.129,14.256 16.299,14.128 16.516 C 14.037 16.672,14.020 16.746,14.020 17.000 C 14.020 17.256,14.036 17.328,14.131 17.489 C 14.256 17.702,14.449 17.864,14.670 17.943 C 14.891 18.022,21.109 18.022,21.330 17.943 C 21.551 17.864,21.744 17.702,21.869 17.489 C 21.964 17.328,21.980 17.256,21.980 17.000 C 21.980 16.746,21.963 16.672,21.872 16.516 C 21.740 16.293,21.533 16.128,21.290 16.055 C 21.030 15.977,14.945 15.979,14.695 16.057 " stroke="none" fill-rule="evenodd" fill="black"></path></svg>