<svg width="24" height="24" viewBox="0 0 24 24" fill="none" xmlns="http://www.w3.org/2000/svg"><path d="M6.920 1.040 C 6.150 1.092,5.672 1.205,5.180 1.451 C 4.089 1.996,3.357 2.961,3.124 4.160 C 3.012 4.738,3.000 5.470,3.000 12.000 C 3.000 19.433,3.002 19.515,3.245 20.320 C 3.577 21.422,4.578 22.423,5.680 22.755 C 6.408 22.974,6.857 23.000,9.980 23.000 L 12.700 22.999 12.900 22.905 C 13.281 22.724,13.488 22.405,13.488 22.000 C 13.488 21.615,13.293 21.297,12.940 21.106 C 12.781 21.021,12.758 21.020,9.780 20.997 C 6.579 20.973,6.505 20.969,6.080 20.769 C 5.812 20.643,5.376 20.216,5.248 19.952 C 5.198 19.849,5.126 19.633,5.088 19.472 C 5.025 19.202,5.020 18.630,5.020 12.000 C 5.020 5.370,5.025 4.798,5.088 4.528 C 5.186 4.109,5.304 3.895,5.600 3.600 C 5.895 3.304,6.109 3.186,6.528 3.088 C 6.795 3.026,7.256 3.020,12.000 3.020 C 16.744 3.020,17.205 3.026,17.472 3.088 C 17.633 3.126,17.849 3.198,17.952 3.248 C 18.194 3.366,18.634 3.806,18.752 4.048 C 18.961 4.477,18.968 4.575,18.995 7.543 L 19.020 10.306 19.141 10.503 C 19.543 11.156,20.457 11.156,20.859 10.503 L 20.980 10.306 20.992 7.843 C 21.007 4.928,20.978 4.425,20.755 3.680 C 20.426 2.582,19.465 1.622,18.320 1.246 C 17.657 1.028,17.701 1.030,12.340 1.019 C 9.612 1.014,7.173 1.023,6.920 1.040 M7.695 6.057 C 7.466 6.129,7.256 6.299,7.128 6.516 C 7.037 6.672,7.020 6.746,7.020 7.000 C 7.020 7.256,7.036 7.328,7.131 7.489 C 7.256 7.702,7.449 7.864,7.670 7.943 C 7.892 8.022,16.108 8.022,16.330 7.943 C 16.551 7.864,16.744 7.702,16.869 7.489 C 16.964 7.328,16.980 7.256,16.980 7.000 C 16.980 6.746,16.963 6.672,16.872 6.516 C 16.740 6.293,16.533 6.128,16.290 6.055 C 16.029 5.976,7.946 5.979,7.695 6.057 M7.695 10.057 C 7.466 10.129,7.256 10.299,7.128 10.516 C 7.037 10.672,7.020 10.746,7.020 11.000 C 7.020 11.256,7.036 11.328,7.131 11.489 C 7.256 11.702,7.449 11.864,7.670 11.943 C 7.891 12.022,14.109 12.022,14.330 11.943 C 14.551 11.864,14.744 11.702,14.869 11.489 C 14.964 11.328,14.980 11.256,14.980 11.000 C 14.980 10.746,14.963 10.672,14.872 10.516 C 14.740 10.293,14.533 10.128,14.290 10.055 C 14.030 9.977,7.945 9.979,7.695 10.057 M17.473 13.038 C 17.168 13.094,16.899 13.181,15.673 13.620 C 14.403 14.074,14.288 14.137,14.120 14.463 L 14.020 14.658 14.020 16.299 C 14.020 17.875,14.024 17.953,14.110 18.279 C 14.306 19.013,14.731 19.697,15.405 20.364 C 15.957 20.911,16.772 21.504,17.396 21.813 C 17.691 21.958,17.768 21.980,18.000 21.980 C 18.232 21.980,18.309 21.958,18.604 21.813 C 19.235 21.500,20.057 20.900,20.603 20.354 C 21.275 19.683,21.686 19.025,21.887 18.300 C 21.971 17.999,21.977 17.886,21.991 16.386 C 22.003 15.050,21.995 14.764,21.945 14.617 C 21.871 14.399,21.710 14.185,21.546 14.085 C 21.409 14.001,19.208 13.208,18.819 13.102 C 18.541 13.026,17.745 12.988,17.473 13.038 M7.695 14.057 C 7.466 14.129,7.256 14.299,7.128 14.516 C 7.037 14.672,7.020 14.746,7.020 15.000 C 7.020 15.256,7.036 15.328,7.131 15.489 C 7.256 15.702,7.449 15.864,7.670 15.943 C 7.885 16.020,10.115 16.020,10.330 15.943 C 10.551 15.864,10.744 15.702,10.869 15.489 C 10.964 15.328,10.980 15.256,10.980 15.000 C 10.980 14.746,10.963 14.672,10.872 14.516 C 10.740 14.293,10.533 14.128,10.290 14.055 C 10.039 13.979,7.937 13.981,7.695 14.057 M19.160 15.328 L 19.980 15.621 19.991 16.601 C 20.001 17.482,19.994 17.606,19.922 17.842 C 19.766 18.356,19.267 18.956,18.563 19.476 C 18.084 19.830,18.027 19.856,17.887 19.784 C 17.432 19.549,16.603 18.794,16.324 18.362 C 16.028 17.903,15.997 17.728,16.009 16.601 L 16.020 15.623 16.720 15.369 C 18.004 14.903,17.974 14.904,19.160 15.328 " stroke="none" fill-rule="evenodd" fill="black"></path></svg>