<svg width="24" height="24" viewBox="0 0 24 24" fill="none" xmlns="http://www.w3.org/2000/svg"><path d="M6.920 1.041 C 6.153 1.092,5.673 1.205,5.180 1.451 C 4.089 1.996,3.357 2.961,3.124 4.160 C 3.012 4.738,3.000 5.470,3.000 12.000 C 3.000 19.433,3.002 19.515,3.245 20.320 C 3.577 21.422,4.578 22.423,5.680 22.755 C 6.460 22.990,6.716 23.000,12.000 23.000 C 17.284 23.000,17.540 22.990,18.320 22.755 C 19.422 22.423,20.423 21.422,20.755 20.320 C 20.993 19.530,21.000 19.336,21.000 13.297 C 21.000 8.382,20.994 7.835,20.935 7.657 C 20.876 7.477,20.597 7.187,17.725 4.316 C 15.601 2.193,14.528 1.147,14.420 1.096 C 14.267 1.023,14.110 1.020,10.820 1.016 C 8.928 1.013,7.173 1.025,6.920 1.041 M13.001 5.070 C 13.001 7.322,13.014 7.481,13.227 7.919 C 13.366 8.205,13.795 8.634,14.081 8.773 C 14.519 8.986,14.677 8.999,16.932 8.999 L 19.004 9.000 18.989 14.110 C 18.973 19.665,18.980 19.483,18.752 19.952 C 18.626 20.211,18.190 20.638,17.918 20.768 C 17.471 20.983,17.547 20.980,12.000 20.980 C 6.462 20.980,6.533 20.983,6.082 20.771 C 5.812 20.643,5.377 20.217,5.248 19.952 C 5.198 19.849,5.126 19.633,5.088 19.472 C 5.025 19.202,5.020 18.630,5.020 12.000 C 5.020 5.370,5.025 4.798,5.088 4.528 C 5.175 4.155,5.294 3.918,5.520 3.667 C 5.884 3.261,6.283 3.090,6.980 3.040 C 7.200 3.025,8.645 3.009,10.190 3.006 L 13.000 3.000 13.001 5.070 M16.300 5.720 L 17.580 7.000 16.290 7.000 L 15.000 7.000 15.000 5.720 C 15.000 5.016,15.005 4.440,15.010 4.440 C 15.016 4.440,15.596 5.016,16.300 5.720 M11.170 9.599 C 11.010 9.642,10.704 9.767,10.490 9.878 C 9.817 10.225,9.368 10.685,9.044 11.360 C 8.886 11.690,8.862 11.774,8.861 12.000 C 8.861 12.566,9.303 13.002,9.875 12.999 C 10.089 12.998,10.371 12.882,10.533 12.728 C 10.595 12.668,10.729 12.461,10.829 12.266 C 11.098 11.745,11.430 11.523,11.940 11.521 C 12.467 11.519,12.848 11.749,13.077 12.208 C 13.248 12.549,13.251 12.879,13.085 13.104 C 13.022 13.190,12.918 13.308,12.855 13.366 C 12.671 13.535,12.174 13.840,11.906 13.948 C 11.323 14.184,11.101 14.385,10.995 14.777 C 10.840 15.354,11.352 16.000,11.966 16.000 C 12.246 16.000,13.010 15.681,13.533 15.346 C 13.922 15.096,14.371 14.704,14.604 14.412 C 15.031 13.875,15.209 13.368,15.206 12.696 C 15.203 11.812,14.881 11.068,14.222 10.420 C 13.876 10.081,13.475 9.838,12.986 9.671 C 12.654 9.559,12.566 9.546,12.040 9.534 C 11.565 9.524,11.407 9.536,11.170 9.599 M11.695 17.055 C 11.464 17.130,11.255 17.300,11.128 17.516 C 11.037 17.672,11.020 17.746,11.020 18.000 C 11.020 18.257,11.036 18.327,11.133 18.492 C 11.651 19.374,12.998 19.018,12.998 18.000 C 12.998 17.623,12.792 17.281,12.463 17.112 C 12.265 17.010,11.911 16.984,11.695 17.055 " stroke="none" fill-rule="evenodd" fill="black"></path></svg>