<svg width="24" height="24" viewBox="0 0 24 24" fill="none" xmlns="http://www.w3.org/2000/svg"><path d="M6.920 1.040 C 6.150 1.092,5.672 1.205,5.180 1.451 C 4.089 1.996,3.357 2.961,3.124 4.160 C 3.012 4.738,3.000 5.470,3.000 12.000 C 3.000 19.433,3.002 19.515,3.245 20.320 C 3.577 21.422,4.578 22.423,5.680 22.755 C 6.399 22.972,6.873 23.000,9.720 22.998 C 11.670 22.997,12.211 22.985,12.330 22.943 C 12.551 22.864,12.744 22.702,12.869 22.489 C 12.964 22.328,12.980 22.256,12.980 22.000 C 12.980 21.746,12.963 21.672,12.872 21.516 C 12.761 21.327,12.571 21.158,12.373 21.070 C 12.288 21.033,11.570 21.015,9.520 20.998 C 6.600 20.973,6.500 20.966,6.080 20.769 C 5.812 20.643,5.376 20.216,5.248 19.952 C 5.198 19.849,5.126 19.633,5.088 19.472 C 5.025 19.202,5.020 18.630,5.020 12.000 C 5.020 5.370,5.025 4.798,5.088 4.528 C 5.186 4.109,5.304 3.895,5.600 3.600 C 5.895 3.304,6.109 3.186,6.528 3.088 C 6.795 3.026,7.256 3.020,12.000 3.020 C 16.744 3.020,17.205 3.026,17.472 3.088 C 17.633 3.126,17.849 3.198,17.952 3.248 C 18.194 3.366,18.634 3.806,18.752 4.048 C 18.961 4.477,18.968 4.575,18.995 7.543 L 19.020 10.306 19.141 10.503 C 19.543 11.156,20.457 11.156,20.859 10.503 L 20.980 10.306 20.992 7.843 C 21.007 4.928,20.978 4.425,20.755 3.680 C 20.426 2.582,19.465 1.622,18.320 1.246 C 17.657 1.028,17.701 1.030,12.340 1.019 C 9.612 1.014,7.173 1.023,6.920 1.040 M14.780 13.026 C 14.078 13.139,13.365 13.536,12.850 14.099 C 12.013 15.016,11.769 16.370,12.235 17.515 C 12.420 17.970,12.701 18.343,13.379 19.035 C 14.292 19.968,16.263 21.742,16.569 21.908 C 16.750 22.005,17.250 22.005,17.430 21.908 C 17.722 21.750,19.779 19.897,20.643 19.015 C 21.422 18.218,21.672 17.844,21.886 17.160 C 21.966 16.904,21.979 16.778,21.978 16.300 C 21.976 15.672,21.924 15.418,21.697 14.926 C 21.291 14.047,20.472 13.359,19.518 13.095 C 19.331 13.044,19.122 13.025,18.760 13.026 C 18.170 13.029,17.793 13.114,17.303 13.355 L 16.987 13.511 16.743 13.378 C 16.354 13.165,15.852 13.037,15.340 13.021 C 15.098 13.013,14.846 13.015,14.780 13.026 M15.725 15.109 C 15.824 15.153,16.038 15.309,16.202 15.456 C 16.546 15.766,16.799 15.867,17.113 15.820 C 17.361 15.783,17.485 15.714,17.816 15.429 C 18.184 15.112,18.383 15.025,18.741 15.023 C 19.092 15.022,19.392 15.155,19.639 15.424 C 19.892 15.698,19.977 15.918,19.976 16.300 C 19.976 16.704,19.882 16.901,19.464 17.369 C 19.176 17.691,18.179 18.636,17.388 19.336 L 16.995 19.683 16.628 19.356 C 15.105 17.999,14.295 17.178,14.117 16.810 C 13.991 16.551,13.988 16.066,14.110 15.793 C 14.258 15.464,14.562 15.185,14.915 15.053 C 15.107 14.981,15.497 15.008,15.725 15.109 " stroke="none" fill-rule="evenodd" fill="black"></path></svg>