<svg width="24" height="24" viewBox="0 0 24 24" fill="none" xmlns="http://www.w3.org/2000/svg"><path d="M6.920 1.040 C 6.150 1.092,5.672 1.205,5.180 1.451 C 4.089 1.996,3.357 2.961,3.124 4.160 C 3.012 4.738,3.000 5.470,3.000 12.000 C 3.000 19.433,3.002 19.515,3.245 20.320 C 3.577 21.422,4.578 22.423,5.680 22.755 C 6.434 22.982,6.806 23.000,10.720 22.998 C 13.506 22.997,14.209 22.986,14.330 22.943 C 14.551 22.864,14.744 22.702,14.869 22.489 C 14.964 22.328,14.980 22.256,14.980 22.000 C 14.980 21.746,14.963 21.672,14.872 21.516 C 14.761 21.328,14.572 21.158,14.373 21.070 C 14.286 21.032,13.387 21.015,10.520 20.998 C 6.521 20.974,6.517 20.974,6.080 20.769 C 5.812 20.643,5.376 20.216,5.248 19.952 C 5.198 19.849,5.126 19.633,5.088 19.472 C 5.025 19.202,5.020 18.630,5.020 12.000 C 5.020 5.370,5.025 4.798,5.088 4.528 C 5.186 4.109,5.304 3.895,5.600 3.600 C 5.895 3.304,6.109 3.186,6.528 3.088 C 6.795 3.026,7.256 3.020,12.000 3.020 C 16.744 3.020,17.205 3.026,17.472 3.088 C 17.633 3.126,17.849 3.198,17.952 3.248 C 18.194 3.366,18.634 3.806,18.752 4.048 C 18.959 4.474,18.969 4.598,18.986 7.220 C 19.005 9.932,18.998 9.864,19.276 10.173 C 19.464 10.381,19.708 10.488,19.997 10.488 C 20.405 10.488,20.724 10.282,20.905 9.900 L 20.999 9.700 21.000 7.480 C 21.000 4.881,20.968 4.387,20.755 3.680 C 20.424 2.581,19.465 1.622,18.320 1.246 C 17.657 1.028,17.701 1.030,12.340 1.019 C 9.612 1.014,7.173 1.023,6.920 1.040 M7.695 6.057 C 7.466 6.129,7.256 6.299,7.128 6.516 C 7.037 6.672,7.020 6.746,7.020 7.000 C 7.020 7.256,7.036 7.328,7.131 7.489 C 7.256 7.702,7.449 7.864,7.670 7.943 C 7.892 8.022,16.108 8.022,16.330 7.943 C 16.551 7.864,16.744 7.702,16.869 7.489 C 16.964 7.328,16.980 7.256,16.980 7.000 C 16.980 6.746,16.963 6.672,16.872 6.516 C 16.740 6.293,16.533 6.128,16.290 6.055 C 16.029 5.976,7.946 5.979,7.695 6.057 M7.695 10.057 C 7.466 10.129,7.256 10.299,7.128 10.516 C 7.037 10.672,7.020 10.746,7.020 11.000 C 7.020 11.256,7.036 11.328,7.131 11.489 C 7.256 11.702,7.449 11.864,7.670 11.943 C 7.891 12.022,14.109 12.022,14.330 11.943 C 14.551 11.864,14.744 11.702,14.869 11.489 C 14.964 11.328,14.980 11.256,14.980 11.000 C 14.980 10.746,14.963 10.672,14.872 10.516 C 14.740 10.293,14.533 10.128,14.290 10.055 C 14.030 9.977,7.945 9.979,7.695 10.057 M17.920 12.579 C 16.895 12.818,16.029 13.536,15.636 14.473 C 15.369 15.112,15.540 15.639,16.100 15.905 C 16.629 16.155,17.173 15.912,17.466 15.295 C 17.710 14.781,18.099 14.520,18.620 14.520 C 18.944 14.520,19.195 14.610,19.418 14.807 C 19.756 15.104,19.929 15.561,19.834 15.904 C 19.742 16.238,19.166 16.690,18.437 17.001 C 18.231 17.089,18.003 17.219,17.931 17.289 C 17.540 17.667,17.523 18.286,17.892 18.675 C 18.060 18.852,18.376 18.999,18.591 19.000 C 19.104 19.001,20.255 18.392,20.928 17.763 C 21.804 16.945,22.085 15.851,21.705 14.734 C 21.326 13.620,20.427 12.813,19.312 12.583 C 18.945 12.508,18.235 12.506,17.920 12.579 M7.695 14.057 C 7.466 14.129,7.256 14.299,7.128 14.516 C 7.037 14.672,7.020 14.746,7.020 15.000 C 7.020 15.256,7.036 15.328,7.131 15.489 C 7.256 15.702,7.449 15.864,7.670 15.943 C 7.885 16.020,10.115 16.020,10.330 15.943 C 10.551 15.864,10.744 15.702,10.869 15.489 C 10.964 15.328,10.980 15.256,10.980 15.000 C 10.980 14.746,10.963 14.672,10.872 14.516 C 10.740 14.293,10.533 14.128,10.290 14.055 C 10.039 13.979,7.937 13.981,7.695 14.057 M18.349 20.055 C 17.753 20.277,17.485 20.901,17.756 21.433 C 18.007 21.923,18.581 22.131,19.060 21.905 C 19.441 21.724,19.648 21.405,19.648 21.000 C 19.648 20.615,19.449 20.290,19.103 20.112 C 18.901 20.008,18.546 19.981,18.349 20.055 " stroke="none" fill-rule="evenodd" fill="black"></path></svg>