<svg width="24" height="24" viewBox="0 0 24 24" fill="none" xmlns="http://www.w3.org/2000/svg"><path d="M4.920 1.041 C 4.152 1.092,3.672 1.205,3.180 1.451 C 2.089 1.996,1.357 2.961,1.124 4.160 C 1.012 4.738,1.000 5.470,1.000 12.000 C 1.000 19.433,1.002 19.515,1.245 20.320 C 1.577 21.422,2.578 22.423,3.680 22.755 C 4.485 22.998,4.567 23.000,12.000 23.000 C 19.433 23.000,19.515 22.998,20.320 22.755 C 21.422 22.423,22.423 21.422,22.755 20.320 C 22.998 19.515,23.000 19.433,23.000 12.000 C 23.000 4.567,22.998 4.485,22.755 3.680 C 22.424 2.581,21.465 1.622,20.320 1.246 C 19.635 1.021,19.900 1.028,12.340 1.019 C 8.512 1.014,5.173 1.024,4.920 1.041 M6.000 4.500 L 6.000 6.000 4.495 6.000 L 2.990 6.000 3.018 5.390 C 3.063 4.409,3.164 4.064,3.520 3.667 C 3.967 3.169,4.422 3.030,5.690 3.006 L 6.000 3.000 6.000 4.500 M11.000 4.500 L 11.000 6.000 9.500 6.000 L 8.000 6.000 8.000 4.500 L 8.000 3.000 9.500 3.000 L 11.000 3.000 11.000 4.500 M16.000 4.500 L 16.000 6.000 14.500 6.000 L 13.000 6.000 13.000 4.500 L 13.000 3.000 14.500 3.000 L 16.000 3.000 16.000 4.500 M19.492 3.101 C 19.880 3.180,20.103 3.302,20.400 3.600 C 20.832 4.032,20.934 4.344,20.982 5.390 L 21.010 6.000 19.505 6.000 L 18.000 6.000 18.000 4.495 L 18.000 2.990 18.610 3.018 C 18.945 3.033,19.343 3.071,19.492 3.101 M11.000 12.000 L 11.000 16.000 7.000 16.000 L 3.000 16.000 3.000 12.000 L 3.000 8.000 7.000 8.000 L 11.000 8.000 11.000 12.000 M21.000 12.000 L 21.000 16.000 17.000 16.000 L 13.000 16.000 13.000 12.000 L 13.000 8.000 17.000 8.000 L 21.000 8.000 21.000 12.000 M6.000 19.506 L 6.000 21.012 5.390 20.988 C 4.346 20.945,4.036 20.844,3.600 20.403 C 3.167 19.966,3.066 19.655,3.018 18.610 L 2.990 18.000 4.495 18.000 L 6.000 18.000 6.000 19.506 M11.000 19.500 L 11.000 21.000 9.500 21.000 L 8.000 21.000 8.000 19.500 L 8.000 18.000 9.500 18.000 L 11.000 18.000 11.000 19.500 M16.000 19.500 L 16.000 21.000 14.500 21.000 L 13.000 21.000 13.000 19.500 L 13.000 18.000 14.500 18.000 L 16.000 18.000 16.000 19.500 M20.982 18.610 C 20.934 19.655,20.833 19.968,20.400 20.401 C 19.957 20.844,19.649 20.945,18.610 20.988 L 18.000 21.012 18.000 19.506 L 18.000 18.000 19.505 18.000 L 21.010 18.000 20.982 18.610 " stroke="none" fill-rule="evenodd" fill="black"></path></svg>