<svg width="24" height="24" viewBox="0 0 24 24" fill="none" xmlns="http://www.w3.org/2000/svg"><path d="M2.686 2.041 C 1.871 2.161,1.233 2.765,1.061 3.581 C 0.990 3.913,0.976 5.582,1.041 5.925 C 1.106 6.273,1.321 6.672,1.585 6.933 C 1.714 7.062,3.319 8.465,5.150 10.053 L 8.480 12.939 8.480 16.480 C 8.480 18.477,8.497 20.165,8.519 20.353 C 8.568 20.780,8.698 21.063,8.969 21.335 C 9.328 21.693,9.853 21.833,10.352 21.703 C 10.639 21.628,14.279 20.182,14.643 19.999 C 14.774 19.932,14.954 19.813,15.041 19.735 C 15.253 19.543,15.438 19.158,15.482 18.814 C 15.501 18.663,15.518 17.280,15.519 15.740 L 15.520 12.939 18.850 10.054 C 20.681 8.467,22.293 7.050,22.431 6.907 C 22.707 6.619,22.893 6.272,22.959 5.924 C 23.024 5.583,23.010 3.913,22.939 3.581 C 22.791 2.881,22.332 2.364,21.635 2.112 L 21.380 2.020 12.140 2.015 C 7.058 2.012,2.804 2.023,2.686 2.041 M21.000 4.771 L 21.000 5.543 17.650 8.448 C 15.808 10.045,14.205 11.448,14.089 11.564 C 13.842 11.812,13.721 12.007,13.594 12.362 L 13.501 12.620 13.480 15.478 L 13.460 18.336 11.992 18.923 L 10.524 19.511 10.512 16.065 L 10.500 12.620 10.407 12.362 C 10.278 12.006,10.158 11.812,9.911 11.565 C 9.795 11.449,8.193 10.046,6.350 8.448 L 3.000 5.543 3.000 4.772 L 3.000 4.000 12.000 4.000 L 21.000 4.000 21.000 4.771 " stroke="none" fill-rule="evenodd" fill="black"></path></svg>