<svg width="24" height="24" viewBox="0 0 24 24" fill="none" xmlns="http://www.w3.org/2000/svg"><path d="M3.148 2.044 C 2.748 2.083,2.306 2.223,2.073 2.385 C 1.845 2.543,1.580 2.850,1.459 3.098 C 1.144 3.742,1.174 4.371,1.549 4.991 C 1.765 5.348,2.076 5.706,5.454 9.480 L 8.480 12.860 8.481 16.480 C 8.482 18.550,8.499 20.227,8.521 20.396 C 8.572 20.786,8.709 21.075,8.969 21.335 C 9.328 21.693,9.853 21.833,10.352 21.703 C 10.639 21.628,14.279 20.182,14.643 19.999 C 15.142 19.747,15.418 19.350,15.483 18.792 C 15.501 18.632,15.517 17.231,15.518 15.680 L 15.520 12.860 18.545 9.480 C 21.907 5.724,22.189 5.402,22.406 5.066 C 22.939 4.241,22.853 3.285,22.183 2.617 C 21.914 2.349,21.624 2.191,21.207 2.089 C 20.964 2.029,20.154 2.023,12.220 2.016 C 7.424 2.013,3.342 2.025,3.148 2.044 M20.591 4.034 C 20.677 4.058,20.664 4.082,20.373 4.420 C 20.203 4.618,18.701 6.303,17.035 8.165 C 15.370 10.027,13.940 11.643,13.859 11.756 C 13.778 11.869,13.664 12.092,13.606 12.251 L 13.500 12.540 13.480 15.438 L 13.460 18.336 11.992 18.923 L 10.524 19.511 10.511 16.025 L 10.499 12.540 10.395 12.256 C 10.268 11.907,10.141 11.718,9.689 11.213 C 9.496 10.997,8.194 9.542,6.797 7.980 C 3.135 3.887,3.290 4.067,3.405 4.035 C 3.528 4.000,20.470 4.000,20.591 4.034 " stroke="none" fill-rule="evenodd" fill="black"></path></svg>