<svg width="24" height="24" viewBox="0 0 24 24" fill="none" xmlns="http://www.w3.org/2000/svg"><path d="M10.870 1.042 C 9.146 1.221,7.737 1.642,6.240 2.426 C 5.149 2.998,4.288 3.635,3.332 4.580 C 2.569 5.334,2.482 5.463,2.481 5.851 C 2.479 6.251,2.655 6.548,3.005 6.739 C 3.181 6.835,3.267 6.856,3.480 6.855 C 3.651 6.855,3.788 6.830,3.880 6.783 C 3.957 6.743,4.290 6.446,4.620 6.123 C 4.950 5.800,5.373 5.413,5.559 5.263 C 6.994 4.114,8.766 3.361,10.669 3.091 C 11.311 3.001,12.689 3.001,13.331 3.091 C 15.234 3.361,17.006 4.114,18.441 5.263 C 18.627 5.413,19.050 5.800,19.380 6.123 C 19.710 6.446,20.043 6.743,20.120 6.783 C 20.212 6.830,20.349 6.855,20.520 6.855 C 21.095 6.857,21.521 6.429,21.519 5.851 C 21.518 5.463,21.431 5.334,20.668 4.580 C 19.656 3.580,18.783 2.946,17.585 2.341 C 16.248 1.666,15.097 1.306,13.620 1.098 C 13.095 1.024,11.377 0.989,10.870 1.042 M11.380 4.064 C 7.843 4.332,4.851 6.216,3.126 9.260 C 2.687 10.035,2.294 11.052,2.103 11.904 C 1.742 13.514,1.757 15.368,2.148 17.352 C 2.265 17.951,2.368 18.155,2.641 18.336 C 3.112 18.647,3.726 18.522,4.038 18.051 C 4.203 17.801,4.228 17.581,4.143 17.100 C 3.986 16.207,3.920 15.667,3.875 14.914 C 3.801 13.678,3.913 12.752,4.264 11.680 C 5.233 8.720,7.799 6.572,10.874 6.143 C 11.137 6.106,11.603 6.080,12.000 6.080 C 13.297 6.080,14.356 6.315,15.500 6.857 C 16.326 7.249,16.962 7.692,17.654 8.359 C 19.085 9.740,19.917 11.467,20.118 13.474 C 20.175 14.038,20.170 14.373,20.100 14.670 C 19.858 15.698,18.852 16.400,17.847 16.244 C 17.185 16.141,16.728 15.845,16.365 15.283 C 16.164 14.971,16.094 14.697,16.042 14.013 C 15.992 13.345,15.880 12.918,15.624 12.409 C 14.816 10.801,13.069 9.914,11.316 10.220 C 9.782 10.489,8.566 11.577,8.092 13.108 C 7.985 13.451,7.983 13.486,7.984 14.420 C 7.985 15.475,8.040 15.924,8.281 16.828 C 8.909 19.189,10.398 21.282,12.413 22.636 C 12.842 22.924,13.018 22.998,13.282 22.999 C 13.443 23.000,13.562 22.971,13.713 22.896 C 13.944 22.781,14.074 22.634,14.204 22.341 C 14.310 22.100,14.290 21.797,14.150 21.524 C 14.053 21.336,13.990 21.282,13.376 20.851 C 11.638 19.632,10.446 17.723,10.060 15.540 C 10.025 15.342,9.986 14.910,9.973 14.580 C 9.947 13.914,9.988 13.659,10.185 13.271 C 10.326 12.991,10.801 12.522,11.081 12.387 C 11.716 12.078,12.512 12.115,13.079 12.479 C 13.361 12.660,13.713 13.056,13.848 13.344 C 13.976 13.619,14.018 13.837,14.078 14.540 C 14.130 15.144,14.230 15.512,14.481 16.022 C 15.192 17.467,16.741 18.367,18.340 18.266 C 20.119 18.153,21.562 16.965,22.049 15.211 C 22.125 14.938,22.136 14.796,22.136 14.060 C 22.137 13.165,22.084 12.680,21.901 11.900 C 20.934 7.798,17.549 4.720,13.373 4.143 C 12.927 4.081,11.759 4.035,11.380 4.064 M10.964 7.182 C 8.629 7.546,6.676 8.968,5.626 11.069 C 4.910 12.502,4.725 14.133,5.041 16.214 C 5.197 17.238,5.504 18.349,5.884 19.267 C 6.325 20.329,7.193 21.798,7.520 22.035 C 8.108 22.461,8.943 22.124,9.079 21.406 C 9.137 21.098,9.076 20.891,8.792 20.446 C 7.742 18.796,7.208 17.336,6.979 15.491 C 6.897 14.835,6.898 13.802,6.980 13.340 C 7.308 11.494,8.634 9.964,10.410 9.382 C 11.431 9.048,12.415 9.034,13.460 9.340 C 15.374 9.900,16.833 11.631,17.042 13.591 C 17.065 13.805,17.098 14.117,17.116 14.285 C 17.154 14.641,17.289 14.876,17.558 15.054 C 17.846 15.245,18.280 15.266,18.592 15.104 C 18.781 15.006,18.991 14.741,19.059 14.512 C 19.157 14.185,19.081 13.254,18.893 12.500 C 18.196 9.696,15.893 7.615,13.007 7.181 C 12.513 7.107,11.441 7.107,10.964 7.182 M11.800 13.237 C 11.521 13.294,11.235 13.512,11.087 13.780 C 11.003 13.930,10.998 14.764,11.076 15.280 C 11.213 16.176,11.580 17.182,12.043 17.929 C 13.346 20.029,15.625 21.320,18.032 21.320 C 18.667 21.320,18.900 21.260,19.120 21.040 C 19.363 20.797,19.418 20.663,19.418 20.320 C 19.418 19.877,19.249 19.604,18.852 19.404 C 18.709 19.333,18.611 19.320,18.221 19.320 C 15.489 19.320,13.299 17.366,13.042 14.700 C 13.019 14.458,12.992 14.175,12.982 14.072 C 12.961 13.847,12.886 13.692,12.717 13.523 C 12.478 13.284,12.118 13.172,11.800 13.237 " stroke="none" fill-rule="evenodd" fill="black"></path></svg>