<svg width="24" height="24" viewBox="0 0 24 24" fill="none" xmlns="http://www.w3.org/2000/svg"><path d="M11.180 1.041 C 10.449 1.105,9.736 1.259,9.024 1.504 C 8.285 1.758,7.065 2.411,6.730 2.731 C 6.584 2.871,6.440 3.213,6.440 3.420 C 6.440 3.638,6.585 3.969,6.750 4.127 C 6.932 4.302,7.013 4.345,7.263 4.401 C 7.539 4.462,7.766 4.396,8.187 4.132 C 9.012 3.615,9.876 3.272,10.757 3.113 C 11.312 3.013,12.417 2.994,12.980 3.075 C 15.548 3.446,17.701 5.196,18.573 7.620 C 18.887 8.493,18.959 8.963,18.985 10.320 C 19.010 11.550,19.032 11.666,19.302 11.936 C 19.703 12.337,20.297 12.337,20.697 11.937 C 20.976 11.658,21.000 11.539,21.000 10.443 C 21.000 9.025,20.888 8.236,20.535 7.160 C 19.488 3.970,16.672 1.605,13.320 1.101 C 12.804 1.024,11.718 0.993,11.180 1.041 M11.081 4.583 C 9.032 4.957,7.417 6.353,6.778 8.304 C 6.522 9.084,6.504 9.284,6.502 11.340 L 6.500 13.180 6.592 13.367 C 6.717 13.621,6.950 13.822,7.205 13.898 C 7.466 13.975,7.534 13.975,7.795 13.898 C 8.050 13.822,8.283 13.621,8.408 13.367 C 8.499 13.182,8.500 13.162,8.524 11.240 C 8.550 9.081,8.547 9.109,8.839 8.500 C 9.310 7.522,10.244 6.784,11.274 6.578 C 11.687 6.495,12.534 6.515,12.900 6.616 C 13.032 6.653,13.356 6.785,13.620 6.911 C 14.169 7.173,14.392 7.202,14.720 7.054 C 15.065 6.899,15.271 6.620,15.309 6.257 C 15.339 5.965,15.261 5.715,15.074 5.503 C 14.776 5.164,13.717 4.711,12.920 4.582 C 12.454 4.506,11.498 4.507,11.081 4.583 M4.119 6.501 C 3.917 6.564,3.627 6.792,3.543 6.954 C 3.513 7.013,3.434 7.249,3.368 7.480 C 3.028 8.669,3.001 9.006,3.000 12.000 C 3.000 14.608,3.023 15.043,3.202 15.880 C 3.875 19.012,6.197 21.584,9.236 22.564 C 9.817 22.751,10.166 22.685,10.491 22.325 C 10.983 21.780,10.713 20.934,9.976 20.705 C 8.062 20.113,6.582 18.839,5.700 17.024 C 5.304 16.209,5.125 15.571,5.043 14.680 C 4.988 14.089,4.987 9.902,5.041 9.354 C 5.091 8.846,5.176 8.402,5.303 7.978 C 5.480 7.388,5.406 6.989,5.067 6.698 C 4.902 6.557,4.592 6.438,4.403 6.443 C 4.346 6.444,4.218 6.471,4.119 6.501 M11.695 9.057 C 11.466 9.129,11.256 9.299,11.128 9.516 L 11.020 9.700 11.020 12.003 L 11.020 14.306 11.141 14.503 C 11.209 14.613,11.346 14.756,11.452 14.828 C 11.923 15.144,12.554 14.999,12.859 14.503 L 12.980 14.306 12.980 12.003 L 12.980 9.700 12.872 9.516 C 12.628 9.101,12.150 8.915,11.695 9.057 M16.240 10.075 C 15.941 10.173,15.693 10.390,15.573 10.660 C 15.508 10.804,15.499 11.015,15.477 12.760 C 15.456 14.442,15.444 14.732,15.383 14.939 C 15.039 16.113,14.059 17.084,12.918 17.381 C 12.363 17.525,11.659 17.525,11.100 17.380 C 10.968 17.345,10.650 17.218,10.392 17.095 C 9.983 16.901,9.895 16.874,9.683 16.875 C 9.379 16.876,9.146 16.976,8.956 17.187 C 8.567 17.619,8.603 18.236,9.038 18.609 C 9.391 18.911,10.345 19.293,11.070 19.422 C 11.527 19.504,12.392 19.505,12.886 19.424 C 14.898 19.096,16.583 17.648,17.222 15.696 C 17.477 14.919,17.496 14.714,17.498 12.680 C 17.500 11.236,17.489 10.828,17.445 10.705 C 17.375 10.506,17.150 10.257,16.946 10.153 C 16.771 10.064,16.399 10.023,16.240 10.075 M19.400 15.355 C 19.014 15.481,18.818 15.702,18.645 16.201 C 17.966 18.166,16.591 19.644,14.680 20.462 C 14.037 20.737,13.823 20.952,13.739 21.407 C 13.672 21.773,13.949 22.244,14.340 22.426 C 14.705 22.596,14.988 22.539,15.880 22.114 C 17.358 21.409,18.596 20.328,19.538 18.920 C 20.050 18.156,20.648 16.757,20.650 16.320 C 20.653 15.796,20.252 15.371,19.723 15.337 C 19.600 15.329,19.455 15.337,19.400 15.355 " stroke="none" fill-rule="evenodd" fill="black"></path></svg>