<svg width="24" height="24" viewBox="0 0 24 24" fill="none" xmlns="http://www.w3.org/2000/svg"><path d="M11.340 2.025 C 10.557 2.088,9.696 2.270,9.000 2.518 C 8.447 2.715,7.558 3.148,7.349 3.322 C 6.931 3.669,6.890 4.351,7.264 4.736 C 7.488 4.967,7.698 5.058,8.000 5.055 C 8.238 5.054,8.303 5.032,8.760 4.801 C 10.179 4.085,11.558 3.864,13.120 4.102 C 15.590 4.479,17.717 6.241,18.573 8.620 C 18.900 9.527,18.981 10.076,18.977 11.360 C 18.971 13.322,18.743 15.065,18.213 17.211 C 17.996 18.089,17.989 18.129,18.037 18.342 C 18.213 19.128,19.201 19.391,19.741 18.794 C 19.910 18.606,19.926 18.567,20.100 17.920 C 20.637 15.923,20.934 13.832,20.987 11.680 C 21.023 10.176,20.912 9.305,20.538 8.169 C 19.485 4.966,16.678 2.607,13.320 2.101 C 12.905 2.039,11.728 1.993,11.340 2.025 M4.735 6.062 C 4.410 6.182,4.265 6.357,3.943 7.013 C 3.301 8.319,3.066 9.304,2.999 10.963 C 2.933 12.618,2.771 13.353,2.140 14.857 C 2.008 15.172,1.993 15.241,2.011 15.447 C 2.077 16.174,2.874 16.589,3.499 16.223 C 3.735 16.084,3.842 15.936,4.059 15.446 C 4.658 14.095,4.934 12.828,5.001 11.120 C 5.061 9.601,5.231 8.887,5.803 7.760 C 6.039 7.296,6.057 7.241,6.055 7.000 C 6.054 6.721,5.973 6.511,5.789 6.313 C 5.549 6.055,5.066 5.940,4.735 6.062 M11.400 6.044 C 9.761 6.229,8.261 7.290,7.526 8.785 C 7.168 9.512,7.051 10.025,7.000 11.100 C 6.917 12.809,6.782 13.663,6.394 14.940 C 6.157 15.717,5.664 16.804,5.144 17.695 C 4.812 18.264,4.763 18.437,4.840 18.762 C 5.010 19.469,5.891 19.761,6.438 19.292 C 6.836 18.952,7.737 17.202,8.186 15.900 C 8.706 14.388,8.924 13.167,8.999 11.334 C 9.039 10.350,9.079 10.142,9.320 9.660 C 9.685 8.933,10.361 8.362,11.139 8.125 C 11.412 8.042,11.542 8.027,12.000 8.027 C 12.458 8.027,12.588 8.042,12.861 8.125 C 13.817 8.416,14.594 9.195,14.872 10.139 C 15.037 10.700,15.031 11.786,14.853 13.440 C 14.817 13.781,14.800 14.126,14.815 14.207 C 14.856 14.428,15.074 14.721,15.297 14.859 C 15.471 14.966,15.529 14.980,15.797 14.979 C 16.144 14.978,16.277 14.923,16.521 14.679 C 16.715 14.485,16.777 14.280,16.858 13.560 C 17.017 12.132,17.035 10.618,16.900 10.000 C 16.566 8.480,15.585 7.211,14.213 6.525 C 13.352 6.095,12.397 5.932,11.400 6.044 M11.695 10.057 C 11.467 10.128,11.256 10.299,11.131 10.512 C 11.046 10.656,11.023 10.754,11.012 11.015 C 10.927 12.954,10.795 13.946,10.439 15.313 C 10.044 16.831,9.396 18.374,8.581 19.739 C 8.223 20.338,8.187 20.486,8.302 20.873 C 8.498 21.536,9.352 21.783,9.881 21.330 C 10.200 21.057,11.171 19.257,11.635 18.080 C 12.232 16.565,12.636 15.022,12.836 13.500 C 12.940 12.706,13.014 11.585,12.994 11.093 C 12.980 10.753,12.963 10.672,12.871 10.515 C 12.628 10.101,12.150 9.915,11.695 10.057 M14.913 16.039 C 14.518 16.158,14.300 16.416,14.138 16.956 C 13.836 17.961,13.474 18.909,12.991 19.956 C 12.813 20.341,12.701 20.640,12.689 20.756 C 12.651 21.159,12.865 21.537,13.242 21.731 C 13.432 21.829,13.494 21.842,13.727 21.827 C 14.034 21.809,14.295 21.680,14.456 21.469 C 14.568 21.321,14.913 20.601,15.208 19.900 C 15.687 18.759,16.160 17.306,16.160 16.979 C 16.158 16.355,15.503 15.861,14.913 16.039 " stroke="none" fill-rule="evenodd" fill="black"></path></svg>