<svg width="24" height="24" viewBox="0 0 24 24" fill="none" xmlns="http://www.w3.org/2000/svg"><path d="M11.100 1.041 C 10.274 1.109,9.410 1.279,8.645 1.524 C 8.073 1.708,7.717 1.856,7.040 2.192 C 6.163 2.627,5.920 2.886,5.920 3.388 C 5.920 3.923,6.373 4.372,6.920 4.378 C 7.119 4.380,7.209 4.345,7.880 4.011 C 9.341 3.284,10.419 3.025,12.000 3.024 C 13.490 3.022,14.620 3.279,15.940 3.920 C 17.753 4.799,19.201 6.247,20.080 8.060 C 20.659 9.252,20.932 10.350,20.984 11.690 C 21.009 12.341,21.061 12.534,21.276 12.773 C 21.638 13.174,22.283 13.200,22.675 12.828 C 22.914 12.601,22.999 12.358,22.999 11.900 C 23.001 9.627,22.200 7.279,20.770 5.363 C 20.316 4.755,19.247 3.686,18.640 3.235 C 17.045 2.049,15.360 1.358,13.423 1.096 C 12.872 1.022,11.684 0.994,11.100 1.041 M11.540 5.026 C 9.765 5.166,8.276 5.842,7.059 7.059 C 5.788 8.329,5.101 9.906,5.013 11.748 C 4.976 12.521,5.060 13.171,5.306 14.020 C 5.490 14.654,5.621 14.845,5.979 15.004 C 6.469 15.221,7.027 15.019,7.262 14.540 C 7.400 14.258,7.400 14.041,7.263 13.594 C 6.967 12.623,6.932 11.655,7.161 10.760 C 7.448 9.640,8.155 8.612,9.100 7.939 C 10.404 7.011,12.002 6.768,13.580 7.259 C 14.141 7.434,14.456 7.382,14.786 7.061 C 15.013 6.840,15.079 6.675,15.080 6.335 C 15.080 6.043,14.916 5.739,14.667 5.572 C 14.136 5.214,12.585 4.943,11.540 5.026 M3.079 5.979 C 2.781 6.075,2.601 6.265,2.323 6.778 C 0.323 10.463,0.617 15.045,3.071 18.420 C 4.512 20.403,6.516 21.830,8.852 22.537 C 9.548 22.748,9.815 22.722,10.160 22.413 C 10.608 22.010,10.608 21.349,10.159 20.944 C 10.039 20.836,9.896 20.770,9.532 20.656 C 7.837 20.127,6.671 19.413,5.479 18.176 C 4.154 16.801,3.337 15.082,3.076 13.120 C 3.012 12.634,3.011 11.282,3.075 10.840 C 3.236 9.735,3.503 8.882,3.988 7.923 C 4.388 7.132,4.420 7.030,4.359 6.736 C 4.240 6.162,3.631 5.802,3.079 5.979 M17.254 8.985 C 17.163 9.017,17.021 9.109,16.939 9.189 C 16.626 9.493,16.567 9.860,16.741 10.420 C 17.165 11.784,17.046 13.150,16.398 14.353 C 15.552 15.923,13.994 16.905,12.209 16.990 C 11.651 17.016,11.171 16.955,10.547 16.776 C 9.971 16.610,9.767 16.604,9.488 16.744 C 9.046 16.964,8.816 17.483,8.966 17.924 C 9.039 18.138,9.231 18.380,9.405 18.478 C 9.738 18.665,10.573 18.880,11.292 18.962 C 11.783 19.019,12.590 18.994,13.120 18.905 C 16.101 18.407,18.407 16.101,18.905 13.120 C 18.993 12.593,19.019 11.783,18.963 11.292 C 18.875 10.517,18.636 9.642,18.428 9.333 C 18.184 8.970,17.700 8.827,17.254 8.985 M11.695 9.057 C 11.466 9.129,11.256 9.299,11.128 9.516 L 11.020 9.700 11.020 12.003 L 11.020 14.306 11.141 14.503 C 11.209 14.613,11.346 14.756,11.452 14.828 C 11.923 15.144,12.554 14.999,12.859 14.503 L 12.980 14.306 12.980 12.003 L 12.980 9.700 12.872 9.516 C 12.628 9.101,12.150 8.915,11.695 9.057 M20.379 15.981 C 20.121 16.077,19.945 16.251,19.688 16.669 C 18.523 18.563,16.827 19.891,14.691 20.583 C 13.910 20.837,13.759 20.931,13.596 21.269 C 13.486 21.495,13.480 21.827,13.579 22.070 C 13.666 22.281,13.979 22.569,14.191 22.632 C 14.446 22.709,14.645 22.689,15.148 22.538 C 17.611 21.795,19.706 20.246,21.150 18.100 C 21.486 17.601,21.671 17.249,21.702 17.055 C 21.761 16.686,21.509 16.218,21.153 16.037 C 20.947 15.931,20.584 15.905,20.379 15.981 " stroke="none" fill-rule="evenodd" fill="black"></path></svg>