<svg width="24" height="24" viewBox="0 0 24 24" fill="none" xmlns="http://www.w3.org/2000/svg"><path d="M3.500 1.578 C 3.205 1.653,3.095 1.704,2.836 1.886 C 2.423 2.176,2.127 2.650,2.041 3.160 C 2.010 3.344,2.001 6.036,2.009 12.363 L 2.020 21.306 2.141 21.503 C 2.543 22.156,3.457 22.156,3.859 21.503 L 3.980 21.306 3.991 16.653 L 4.001 12.000 6.735 12.000 L 9.469 12.000 9.492 13.150 C 9.516 14.387,9.538 14.536,9.748 14.952 C 9.996 15.442,10.597 15.871,11.160 15.959 C 11.540 16.018,20.248 16.014,20.528 15.955 C 20.943 15.867,21.375 15.559,21.545 15.230 C 21.724 14.884,21.766 14.451,21.657 14.083 C 21.623 13.967,21.262 13.122,20.855 12.206 L 20.116 10.540 20.835 9.080 C 21.231 8.277,21.585 7.513,21.622 7.383 C 21.816 6.703,21.471 5.951,20.829 5.655 L 20.580 5.540 17.555 5.529 L 14.531 5.518 14.509 4.369 C 14.485 3.095,14.459 2.923,14.221 2.500 C 14.058 2.211,13.821 1.973,13.506 1.785 C 13.049 1.511,13.226 1.520,8.212 1.523 C 4.691 1.526,3.656 1.538,3.500 1.578 M12.480 6.760 L 12.480 10.000 8.240 10.000 L 4.000 10.000 4.000 6.760 L 4.000 3.520 8.240 3.520 L 12.480 3.520 12.480 6.760 M18.826 8.590 C 18.138 9.968,18.069 10.142,18.066 10.500 C 18.065 10.654,18.088 10.852,18.118 10.940 C 18.147 11.028,18.457 11.744,18.806 12.530 C 19.155 13.317,19.440 13.970,19.440 13.980 C 19.440 13.991,17.658 14.000,15.480 14.000 L 11.520 14.000 11.520 13.000 L 11.520 12.000 12.050 12.000 C 12.342 12.000,12.697 11.981,12.840 11.959 C 13.403 11.871,14.004 11.442,14.252 10.952 C 14.472 10.517,14.486 10.410,14.509 8.910 L 14.530 7.520 16.945 7.520 L 19.360 7.520 18.826 8.590 " stroke="none" fill-rule="evenodd" fill="black"></path></svg>