<svg width="24" height="24" viewBox="0 0 24 24" fill="none" xmlns="http://www.w3.org/2000/svg"><path d="M3.695 1.057 C 3.466 1.129,3.256 1.299,3.128 1.516 L 3.020 1.700 3.020 12.003 L 3.020 22.306 3.141 22.503 C 3.543 23.156,4.457 23.156,4.859 22.503 L 4.980 22.306 4.991 18.916 L 5.002 15.526 5.271 15.425 C 6.041 15.134,6.750 15.026,7.880 15.025 C 8.622 15.025,8.750 15.035,9.220 15.134 C 9.840 15.265,10.373 15.439,11.500 15.881 C 13.660 16.726,14.491 16.941,15.780 16.987 C 17.190 17.037,18.609 16.809,19.633 16.367 C 20.128 16.154,20.406 15.982,20.660 15.733 C 21.031 15.370,21.003 15.920,20.991 9.418 L 20.980 3.700 20.871 3.514 C 20.650 3.139,20.204 2.939,19.797 3.033 C 19.687 3.059,19.487 3.154,19.354 3.244 C 18.685 3.698,17.737 3.940,16.440 3.987 C 15.129 4.035,14.385 3.866,12.340 3.059 C 10.008 2.139,8.808 1.905,7.100 2.036 C 6.306 2.098,5.415 2.249,5.068 2.382 C 5.021 2.401,5.007 2.339,4.993 2.050 C 4.979 1.757,4.958 1.663,4.870 1.513 C 4.628 1.101,4.149 0.915,3.695 1.057 M9.240 4.141 C 9.837 4.264,10.374 4.440,11.500 4.881 C 13.111 5.511,13.809 5.730,14.780 5.906 C 15.324 6.005,16.881 6.006,17.580 5.908 C 18.010 5.848,18.745 5.690,18.930 5.619 C 18.996 5.593,19.000 5.819,19.000 10.031 L 19.000 14.471 18.745 14.574 C 18.147 14.813,17.363 14.954,16.440 14.987 C 15.129 15.035,14.385 14.866,12.340 14.059 C 10.008 13.139,8.808 12.905,7.100 13.036 C 6.301 13.098,5.415 13.249,5.063 13.384 C 5.006 13.406,5.000 12.997,5.000 8.968 L 5.000 4.527 5.271 4.424 C 5.676 4.269,6.249 4.135,6.720 4.084 C 6.951 4.059,7.203 4.032,7.280 4.023 C 7.357 4.014,7.717 4.014,8.080 4.022 C 8.588 4.034,8.855 4.061,9.240 4.141 " stroke="none" fill-rule="evenodd" fill="black"></path></svg>