<svg width="24" height="24" viewBox="0 0 24 24" fill="none" xmlns="http://www.w3.org/2000/svg"><path d="M3.340 1.567 C 2.658 1.697,2.063 2.264,1.858 2.979 C 1.706 3.508,1.626 3.150,4.059 12.879 C 5.283 17.773,6.316 21.850,6.355 21.939 C 6.437 22.124,6.669 22.342,6.877 22.431 C 7.214 22.574,7.679 22.475,7.952 22.202 C 8.137 22.016,8.208 21.859,8.229 21.582 C 8.245 21.366,8.125 20.850,7.084 16.690 C 6.444 14.133,5.920 12.022,5.920 12.000 C 5.920 11.974,6.602 11.960,7.914 11.960 L 9.907 11.960 9.932 13.190 C 9.959 14.501,9.987 14.714,10.179 15.090 C 10.401 15.524,10.805 15.875,11.280 16.046 L 11.540 16.140 16.120 16.152 C 19.440 16.161,20.766 16.152,20.939 16.118 C 21.266 16.056,21.508 15.924,21.727 15.690 C 22.187 15.199,22.267 14.623,21.965 13.978 C 21.902 13.844,21.525 13.148,21.127 12.433 C 20.730 11.718,20.383 11.086,20.357 11.029 C 20.313 10.934,20.365 10.827,21.050 9.593 C 21.951 7.971,22.025 7.823,22.105 7.512 C 22.310 6.714,21.739 5.902,20.876 5.762 C 20.717 5.736,19.581 5.720,17.870 5.720 L 15.120 5.720 15.119 4.590 C 15.117 3.305,15.077 2.968,14.878 2.576 C 14.629 2.085,14.062 1.660,13.525 1.560 C 13.241 1.507,3.618 1.514,3.340 1.567 M13.096 3.583 C 13.140 3.699,13.123 9.799,13.079 9.883 C 13.038 9.958,12.953 9.960,9.220 9.960 L 5.403 9.960 5.363 9.810 C 5.314 9.625,3.847 3.735,3.819 3.610 L 3.798 3.520 8.435 3.520 C 12.626 3.520,13.074 3.526,13.096 3.583 M19.728 7.850 C 19.410 8.379,18.374 10.295,18.314 10.466 C 18.208 10.769,18.216 11.197,18.333 11.480 C 18.383 11.601,18.732 12.253,19.109 12.930 L 19.794 14.160 15.877 14.160 L 11.960 14.160 11.960 13.066 L 11.960 11.971 12.690 11.949 C 13.172 11.934,13.501 11.904,13.658 11.862 C 14.288 11.690,14.814 11.173,15.023 10.520 C 15.082 10.335,15.096 10.097,15.110 9.010 L 15.127 7.720 17.467 7.720 L 19.807 7.720 19.728 7.850 " stroke="none" fill-rule="evenodd" fill="black"></path></svg>