<svg width="24" height="24" viewBox="0 0 24 24" fill="none" xmlns="http://www.w3.org/2000/svg"><path d="M16.670 4.061 C 16.448 4.142,16.250 4.309,16.128 4.516 C 16.036 4.672,16.020 4.745,16.021 5.000 C 16.021 5.213,16.043 5.341,16.095 5.440 C 16.136 5.517,16.711 6.124,17.374 6.790 L 18.578 8.000 12.948 8.000 C 9.277 8.000,7.182 8.015,6.928 8.042 C 5.633 8.183,4.502 8.729,3.579 9.659 C 1.483 11.771,1.480 15.201,3.573 17.333 C 4.443 18.220,5.496 18.756,6.729 18.941 C 7.276 19.023,12.100 19.025,12.330 18.943 C 12.551 18.864,12.744 18.702,12.869 18.489 C 12.964 18.328,12.980 18.256,12.980 18.000 C 12.980 17.746,12.963 17.672,12.872 17.516 C 12.761 17.328,12.572 17.158,12.373 17.070 C 12.288 17.033,11.590 17.015,9.560 16.998 C 6.949 16.977,6.851 16.973,6.580 16.890 C 5.362 16.518,4.431 15.581,4.111 14.405 C 3.992 13.968,3.992 13.032,4.111 12.595 C 4.373 11.632,5.061 10.809,5.995 10.342 C 6.157 10.261,6.427 10.155,6.595 10.108 L 6.900 10.021 12.740 10.009 L 18.580 9.998 17.374 11.209 C 16.711 11.875,16.138 12.481,16.101 12.555 C 15.872 13.009,16.056 13.601,16.508 13.867 C 16.673 13.964,16.743 13.980,17.000 13.980 C 17.254 13.980,17.328 13.964,17.480 13.873 C 17.705 13.739,21.805 9.632,21.905 9.440 C 21.957 9.341,21.979 9.212,21.979 9.000 C 21.980 8.745,21.964 8.673,21.873 8.520 C 21.813 8.419,20.834 7.412,19.653 6.235 C 17.748 4.338,17.521 4.124,17.343 4.065 C 17.107 3.987,16.874 3.986,16.670 4.061 " stroke="none" fill-rule="evenodd" fill="black"></path></svg>