<svg width="24" height="24" viewBox="0 0 24 24" fill="none" xmlns="http://www.w3.org/2000/svg"><path d="M6.640 4.068 C 6.486 4.121,6.151 4.438,4.347 6.235 C 3.166 7.411,2.187 8.419,2.127 8.520 C 2.037 8.672,2.020 8.746,2.020 9.000 C 2.020 9.254,2.036 9.328,2.127 9.480 C 2.261 9.705,6.368 13.805,6.560 13.905 C 6.659 13.957,6.788 13.979,7.000 13.979 C 7.258 13.980,7.327 13.964,7.492 13.867 C 7.714 13.737,7.901 13.498,7.965 13.264 C 8.019 13.061,7.989 12.733,7.899 12.555 C 7.862 12.481,7.289 11.875,6.626 11.209 L 5.420 9.998 11.260 10.009 L 17.100 10.021 17.405 10.108 C 18.182 10.329,18.949 10.877,19.396 11.533 C 19.595 11.824,19.826 12.344,19.906 12.680 C 20.004 13.091,20.004 13.909,19.906 14.320 C 19.760 14.933,19.388 15.571,18.915 16.023 C 18.465 16.451,18.028 16.705,17.420 16.890 C 17.149 16.973,17.051 16.977,14.440 16.998 C 12.410 17.015,11.712 17.033,11.627 17.070 C 11.428 17.158,11.239 17.328,11.128 17.516 C 11.037 17.672,11.020 17.746,11.020 18.000 C 11.020 18.256,11.036 18.328,11.131 18.489 C 11.256 18.702,11.449 18.864,11.670 18.943 C 11.900 19.025,16.724 19.023,17.271 18.941 C 18.211 18.800,19.017 18.468,19.763 17.915 C 22.210 16.101,22.724 12.676,20.915 10.237 C 19.993 8.994,18.621 8.210,17.072 8.042 C 16.818 8.015,14.723 8.000,11.052 8.000 L 5.422 8.000 6.626 6.790 C 7.289 6.125,7.864 5.517,7.905 5.440 C 7.957 5.341,7.979 5.213,7.979 5.000 C 7.980 4.745,7.964 4.672,7.872 4.516 C 7.617 4.083,7.121 3.903,6.640 4.068 " stroke="none" fill-rule="evenodd" fill="black"></path></svg>