<svg width="24" height="24" viewBox="0 0 24 24" fill="none" xmlns="http://www.w3.org/2000/svg"><path d="M3.749 2.044 C 2.963 2.122,2.401 2.372,1.890 2.870 C 1.508 3.243,1.265 3.675,1.108 4.260 L 1.022 4.580 1.009 11.100 C 0.994 18.398,0.996 18.491,1.245 19.320 C 1.575 20.421,2.578 21.423,3.680 21.755 C 4.485 21.998,4.567 22.000,12.000 22.000 C 19.433 22.000,19.515 21.998,20.320 21.755 C 21.422 21.423,22.423 20.422,22.755 19.320 C 22.984 18.561,23.000 18.212,23.000 14.000 C 23.000 9.788,22.984 9.439,22.755 8.680 C 22.424 7.581,21.464 6.621,20.320 6.246 C 19.708 6.045,19.457 6.030,16.438 6.011 L 13.616 5.992 13.064 4.886 C 12.760 4.278,12.428 3.638,12.326 3.465 C 11.930 2.794,11.244 2.288,10.440 2.074 C 10.221 2.016,4.299 1.989,3.749 2.044 M10.164 4.086 C 10.425 4.204,10.569 4.401,10.970 5.187 C 11.185 5.607,11.360 5.962,11.360 5.975 C 11.360 5.989,9.479 6.000,7.180 6.000 L 3.000 6.000 3.000 5.630 C 3.001 5.024,3.063 4.610,3.179 4.434 C 3.333 4.202,3.547 4.080,3.866 4.041 C 4.017 4.024,5.463 4.011,7.080 4.014 C 9.711 4.019,10.035 4.027,10.164 4.086 M19.492 8.090 C 19.895 8.188,20.110 8.309,20.400 8.600 C 20.696 8.895,20.814 9.109,20.912 9.528 C 20.974 9.794,20.980 10.199,20.980 14.000 C 20.980 18.557,20.984 18.476,20.752 18.952 C 20.626 19.211,20.190 19.638,19.918 19.768 C 19.463 19.987,19.707 19.980,12.000 19.980 C 4.304 19.980,4.541 19.986,4.082 19.771 C 3.812 19.643,3.377 19.217,3.248 18.952 C 3.020 18.483,3.027 18.666,3.011 13.109 L 2.996 7.997 11.108 8.011 C 18.502 8.023,19.244 8.030,19.492 8.090 M11.400 9.044 C 9.761 9.229,8.261 10.290,7.526 11.785 C 7.158 12.533,7.020 13.136,7.020 14.000 C 7.020 14.670,7.078 15.044,7.268 15.600 C 7.846 17.291,9.253 18.525,11.040 18.907 C 11.511 19.008,12.489 19.008,12.960 18.907 C 14.488 18.580,15.748 17.630,16.433 16.288 C 16.838 15.494,16.980 14.899,16.980 14.000 C 16.980 13.101,16.838 12.506,16.433 11.713 C 15.794 10.461,14.604 9.510,13.240 9.162 C 12.669 9.016,12.019 8.974,11.400 9.044 M12.861 11.129 C 13.804 11.405,14.585 12.184,14.875 13.139 C 14.956 13.406,14.973 13.548,14.974 13.980 C 14.976 14.500,14.926 14.796,14.775 15.158 L 14.717 15.297 12.721 13.301 C 11.623 12.203,10.733 11.291,10.744 11.273 C 10.769 11.233,11.248 11.086,11.506 11.039 C 11.832 10.980,12.503 11.024,12.861 11.129 M13.256 16.726 C 13.245 16.743,13.089 16.806,12.908 16.866 C 12.618 16.961,12.516 16.974,12.020 16.977 C 11.539 16.980,11.418 16.967,11.160 16.886 C 10.180 16.580,9.417 15.821,9.125 14.861 C 9.044 14.594,9.027 14.452,9.026 14.020 C 9.024 13.500,9.074 13.204,9.225 12.842 L 9.283 12.703 11.279 14.699 C 12.377 15.797,13.267 16.709,13.256 16.726 " stroke="none" fill-rule="evenodd" fill="black"></path></svg>