<svg width="24" height="24" viewBox="0 0 24 24" fill="none" xmlns="http://www.w3.org/2000/svg"><path d="M3.749 2.044 C 2.963 2.122,2.401 2.372,1.890 2.870 C 1.508 3.243,1.265 3.675,1.108 4.260 L 1.022 4.580 1.009 11.100 C 0.994 18.398,0.996 18.491,1.245 19.320 C 1.575 20.421,2.578 21.423,3.680 21.755 C 4.485 21.998,4.567 22.000,12.000 22.000 C 19.433 22.000,19.515 21.998,20.320 21.755 C 21.422 21.423,22.423 20.422,22.755 19.320 C 22.984 18.561,23.000 18.212,23.000 14.000 C 23.000 9.788,22.984 9.439,22.755 8.680 C 22.424 7.581,21.464 6.621,20.320 6.246 C 19.708 6.045,19.457 6.030,16.438 6.011 L 13.616 5.992 13.064 4.886 C 12.760 4.278,12.428 3.638,12.326 3.465 C 11.930 2.794,11.244 2.288,10.440 2.074 C 10.221 2.016,4.299 1.989,3.749 2.044 M10.164 4.086 C 10.425 4.204,10.569 4.401,10.970 5.187 C 11.185 5.607,11.360 5.962,11.360 5.975 C 11.360 5.989,9.479 6.000,7.180 6.000 L 3.000 6.000 3.000 5.630 C 3.001 5.024,3.063 4.610,3.179 4.434 C 3.333 4.202,3.547 4.080,3.866 4.041 C 4.017 4.024,5.463 4.011,7.080 4.014 C 9.711 4.019,10.035 4.027,10.164 4.086 M19.492 8.090 C 19.895 8.188,20.110 8.309,20.400 8.600 C 20.696 8.895,20.814 9.109,20.912 9.528 C 20.974 9.794,20.980 10.199,20.980 14.000 C 20.980 18.557,20.984 18.476,20.752 18.952 C 20.626 19.211,20.190 19.638,19.918 19.768 C 19.463 19.987,19.707 19.980,12.000 19.980 C 4.304 19.980,4.541 19.986,4.082 19.771 C 3.812 19.643,3.377 19.217,3.248 18.952 C 3.020 18.483,3.027 18.666,3.011 13.109 L 2.996 7.997 11.108 8.011 C 18.502 8.023,19.244 8.030,19.492 8.090 M11.580 9.025 C 11.024 9.112,10.485 9.393,10.054 9.821 C 9.783 10.092,9.699 10.208,9.549 10.523 C 9.309 11.024,9.273 11.189,9.244 11.919 L 9.220 12.538 9.040 12.569 C 8.584 12.646,8.027 13.056,7.781 13.496 C 7.523 13.957,7.502 14.111,7.502 15.500 C 7.502 16.561,7.512 16.777,7.572 16.999 C 7.766 17.709,8.288 18.232,9.000 18.428 C 9.238 18.494,9.490 18.500,12.000 18.500 C 15.013 18.500,14.983 18.502,15.456 18.250 C 15.718 18.110,16.110 17.718,16.250 17.456 C 16.476 17.031,16.498 16.857,16.498 15.500 C 16.498 14.439,16.488 14.223,16.428 14.001 C 16.236 13.299,15.707 12.763,15.040 12.595 L 14.780 12.530 14.756 11.915 C 14.727 11.189,14.690 11.024,14.451 10.523 C 14.301 10.208,14.217 10.092,13.946 9.821 C 13.600 9.478,13.197 9.233,12.760 9.102 C 12.542 9.037,11.812 8.989,11.580 9.025 M12.302 11.075 C 12.483 11.158,12.665 11.353,12.710 11.513 C 12.727 11.572,12.740 11.818,12.740 12.060 L 12.740 12.500 12.000 12.500 L 11.260 12.500 11.260 12.060 C 11.260 11.818,11.273 11.572,11.290 11.513 C 11.363 11.251,11.710 11.002,12.000 11.002 C 12.077 11.002,12.213 11.035,12.302 11.075 M14.480 15.495 L 14.480 16.471 14.390 16.495 C 14.272 16.526,9.728 16.526,9.610 16.495 L 9.520 16.471 9.520 15.495 L 9.520 14.520 12.000 14.520 L 14.480 14.520 14.480 15.495 " stroke="none" fill-rule="evenodd" fill="black"></path></svg>