<svg width="24" height="24" viewBox="0 0 24 24" fill="none" xmlns="http://www.w3.org/2000/svg"><path d="M3.749 2.044 C 2.963 2.122,2.401 2.372,1.890 2.870 C 1.508 3.243,1.265 3.675,1.108 4.260 L 1.022 4.580 1.009 11.100 C 0.994 18.398,0.996 18.491,1.245 19.320 C 1.575 20.421,2.578 21.423,3.680 21.755 C 4.485 21.998,4.567 22.000,12.000 22.000 C 19.433 22.000,19.515 21.998,20.320 21.755 C 21.422 21.423,22.423 20.422,22.755 19.320 C 22.984 18.561,23.000 18.212,23.000 14.000 C 23.000 9.788,22.984 9.439,22.755 8.680 C 22.424 7.581,21.464 6.621,20.320 6.246 C 19.708 6.045,19.457 6.030,16.438 6.011 L 13.616 5.992 13.064 4.886 C 12.760 4.278,12.428 3.638,12.326 3.465 C 11.930 2.794,11.244 2.288,10.440 2.074 C 10.221 2.016,4.299 1.989,3.749 2.044 M10.164 4.086 C 10.425 4.204,10.569 4.401,10.970 5.187 C 11.185 5.607,11.360 5.962,11.360 5.975 C 11.360 5.989,9.479 6.000,7.180 6.000 L 3.000 6.000 3.000 5.630 C 3.001 5.024,3.063 4.610,3.179 4.434 C 3.333 4.202,3.547 4.080,3.866 4.041 C 4.017 4.024,5.463 4.011,7.080 4.014 C 9.711 4.019,10.035 4.027,10.164 4.086 M19.492 8.090 C 19.895 8.188,20.110 8.309,20.400 8.600 C 20.696 8.895,20.814 9.109,20.912 9.528 C 20.974 9.794,20.980 10.199,20.980 14.000 C 20.980 18.557,20.984 18.476,20.752 18.952 C 20.626 19.211,20.190 19.638,19.918 19.768 C 19.463 19.987,19.707 19.980,12.000 19.980 C 4.304 19.980,4.541 19.986,4.082 19.771 C 3.812 19.643,3.377 19.217,3.248 18.952 C 3.020 18.483,3.027 18.666,3.011 13.109 L 2.996 7.997 11.108 8.011 C 18.502 8.023,19.244 8.030,19.492 8.090 M11.680 9.525 C 11.515 9.539,11.290 9.574,11.180 9.602 C 11.016 9.644,8.971 10.364,8.594 10.513 C 8.434 10.576,8.205 10.794,8.108 10.976 C 8.023 11.135,8.020 11.186,8.007 12.620 C 7.992 14.448,8.025 14.714,8.361 15.457 C 8.732 16.279,9.631 17.209,10.763 17.944 C 11.669 18.532,11.993 18.606,12.531 18.351 C 13.120 18.071,13.916 17.506,14.502 16.951 C 15.179 16.311,15.600 15.681,15.832 14.960 C 15.985 14.483,16.006 14.174,15.993 12.620 C 15.980 11.186,15.977 11.135,15.892 10.976 C 15.795 10.794,15.566 10.576,15.406 10.513 C 15.348 10.490,14.784 10.286,14.153 10.059 C 12.690 9.533,12.372 9.464,11.680 9.525 M12.669 11.656 C 12.884 11.731,13.273 11.868,13.533 11.961 L 14.006 12.130 13.992 13.195 C 13.977 14.378,13.977 14.379,13.673 14.863 C 13.473 15.184,12.833 15.798,12.370 16.113 L 12.000 16.364 11.630 16.113 C 11.167 15.798,10.527 15.184,10.327 14.863 C 10.023 14.379,10.023 14.378,10.008 13.196 L 9.994 12.132 10.527 11.940 C 11.704 11.517,11.687 11.522,11.989 11.521 C 12.216 11.520,12.363 11.549,12.669 11.656 " stroke="none" fill-rule="evenodd" fill="black"></path></svg>