<svg width="24" height="24" viewBox="0 0 24 24" fill="none" xmlns="http://www.w3.org/2000/svg"><path d="M3.749 2.044 C 2.963 2.122,2.401 2.372,1.890 2.870 C 1.508 3.243,1.265 3.675,1.108 4.260 L 1.022 4.580 1.009 11.100 C 0.994 18.398,0.996 18.491,1.245 19.320 C 1.575 20.421,2.578 21.423,3.680 21.755 C 4.485 21.998,4.567 22.000,12.000 22.000 C 19.433 22.000,19.515 21.998,20.320 21.755 C 21.422 21.423,22.423 20.422,22.755 19.320 C 22.984 18.561,23.000 18.212,23.000 14.000 C 23.000 9.788,22.984 9.439,22.755 8.680 C 22.424 7.581,21.464 6.621,20.320 6.246 C 19.708 6.045,19.457 6.030,16.438 6.011 L 13.616 5.992 13.064 4.886 C 12.760 4.278,12.428 3.638,12.326 3.465 C 11.930 2.794,11.244 2.288,10.440 2.074 C 10.221 2.016,4.299 1.989,3.749 2.044 M10.164 4.086 C 10.425 4.204,10.569 4.401,10.970 5.187 C 11.185 5.607,11.360 5.962,11.360 5.975 C 11.360 5.989,9.479 6.000,7.180 6.000 L 3.000 6.000 3.000 5.630 C 3.001 5.024,3.063 4.610,3.179 4.434 C 3.333 4.202,3.547 4.080,3.866 4.041 C 4.017 4.024,5.463 4.011,7.080 4.014 C 9.711 4.019,10.035 4.027,10.164 4.086 M19.492 8.090 C 19.895 8.188,20.110 8.309,20.400 8.600 C 20.696 8.895,20.814 9.109,20.912 9.528 C 20.974 9.794,20.980 10.199,20.980 14.000 C 20.980 18.557,20.984 18.476,20.752 18.952 C 20.626 19.211,20.190 19.638,19.918 19.768 C 19.463 19.987,19.707 19.980,12.000 19.980 C 4.304 19.980,4.541 19.986,4.082 19.771 C 3.812 19.643,3.377 19.217,3.248 18.952 C 3.020 18.483,3.027 18.666,3.011 13.109 L 2.996 7.997 11.108 8.011 C 18.502 8.023,19.244 8.030,19.492 8.090 M9.044 10.625 C 8.787 10.753,8.583 11.016,8.529 11.289 C 8.482 11.527,8.535 11.851,8.649 12.019 C 8.694 12.085,9.147 12.558,9.655 13.070 L 10.579 14.000 9.655 14.930 C 9.147 15.442,8.695 15.914,8.651 15.980 C 8.373 16.392,8.510 17.024,8.940 17.320 C 9.238 17.525,9.740 17.540,10.017 17.352 C 10.085 17.306,10.558 16.853,11.070 16.345 L 12.000 15.421 12.930 16.345 C 13.442 16.853,13.915 17.306,13.981 17.351 C 14.262 17.541,14.762 17.525,15.065 17.317 C 15.478 17.033,15.618 16.376,15.351 15.981 C 15.306 15.915,14.853 15.442,14.345 14.930 L 13.421 14.001 14.369 13.050 C 15.074 12.343,15.337 12.052,15.398 11.914 C 15.695 11.241,15.230 10.518,14.502 10.521 C 14.089 10.522,13.997 10.588,12.950 11.631 L 12.000 12.578 11.050 11.631 C 10.371 10.954,10.049 10.661,9.920 10.603 C 9.654 10.483,9.313 10.492,9.044 10.625 " stroke="none" fill-rule="evenodd" fill="black"></path></svg>