<svg width="24" height="24" viewBox="0 0 24 24" fill="none" xmlns="http://www.w3.org/2000/svg"><path d="M3.749 2.044 C 2.963 2.122,2.401 2.372,1.890 2.870 C 1.508 3.243,1.265 3.675,1.108 4.260 L 1.022 4.580 1.009 11.100 C 0.994 18.398,0.996 18.491,1.245 19.320 C 1.575 20.421,2.578 21.423,3.680 21.755 C 4.485 21.998,4.567 22.000,12.000 22.000 C 19.433 22.000,19.515 21.998,20.320 21.755 C 21.422 21.423,22.423 20.422,22.755 19.320 C 22.984 18.561,23.000 18.212,23.000 14.000 C 23.000 9.788,22.984 9.439,22.755 8.680 C 22.424 7.581,21.464 6.621,20.320 6.246 C 19.708 6.045,19.457 6.030,16.438 6.011 L 13.616 5.992 13.064 4.886 C 12.760 4.278,12.428 3.638,12.326 3.465 C 11.930 2.794,11.244 2.288,10.440 2.074 C 10.221 2.016,4.299 1.989,3.749 2.044 M10.164 4.086 C 10.425 4.204,10.569 4.401,10.970 5.187 C 11.185 5.607,11.360 5.962,11.360 5.975 C 11.360 5.989,9.479 6.000,7.180 6.000 L 3.000 6.000 3.000 5.630 C 3.001 5.024,3.063 4.610,3.179 4.434 C 3.333 4.202,3.547 4.080,3.866 4.041 C 4.017 4.024,5.463 4.011,7.080 4.014 C 9.711 4.019,10.035 4.027,10.164 4.086 M19.492 8.090 C 19.895 8.188,20.110 8.309,20.400 8.600 C 20.696 8.895,20.814 9.109,20.912 9.528 C 20.974 9.794,20.980 10.199,20.980 14.000 C 20.980 18.557,20.984 18.476,20.752 18.952 C 20.626 19.211,20.190 19.638,19.918 19.768 C 19.463 19.987,19.707 19.980,12.000 19.980 C 4.304 19.980,4.541 19.986,4.082 19.771 C 3.812 19.643,3.377 19.217,3.248 18.952 C 3.020 18.483,3.027 18.666,3.011 13.109 L 2.996 7.997 11.108 8.011 C 18.502 8.023,19.244 8.030,19.492 8.090 M11.695 10.057 C 11.466 10.129,11.256 10.299,11.128 10.516 L 11.020 10.700 11.009 12.635 L 10.997 14.571 10.269 13.852 C 9.655 13.247,9.509 13.123,9.343 13.067 C 8.865 12.905,8.383 13.083,8.128 13.516 C 8.037 13.672,8.020 13.746,8.020 14.000 C 8.020 14.254,8.036 14.328,8.127 14.480 C 8.261 14.704,11.368 17.804,11.560 17.905 C 11.660 17.957,11.786 17.978,12.000 17.978 C 12.214 17.978,12.340 17.957,12.440 17.905 C 12.632 17.804,15.739 14.704,15.873 14.480 C 15.964 14.328,15.980 14.254,15.980 14.000 C 15.980 13.746,15.963 13.672,15.872 13.516 C 15.617 13.083,15.135 12.905,14.657 13.067 C 14.491 13.123,14.345 13.247,13.731 13.852 L 13.003 14.571 12.991 12.635 L 12.980 10.700 12.872 10.516 C 12.628 10.101,12.150 9.915,11.695 10.057 " stroke="none" fill-rule="evenodd" fill="black"></path></svg>