<svg width="24" height="24" viewBox="0 0 24 24" fill="none" xmlns="http://www.w3.org/2000/svg"><path d="M4.600 0.584 C 4.267 0.728,4.001 1.135,4.001 1.500 C 4.001 1.912,3.981 1.889,6.876 4.780 C 8.352 6.254,9.560 7.473,9.560 7.490 C 9.560 7.506,8.479 7.520,7.159 7.520 C 4.512 7.520,4.599 7.512,4.325 7.772 C 4.251 7.842,4.148 7.990,4.095 8.100 L 4.001 8.300 4.001 12.000 L 4.001 15.700 4.096 15.900 C 4.173 16.061,4.907 16.814,7.846 19.746 C 11.792 23.683,11.580 23.493,12.020 23.489 C 12.410 23.485,12.728 23.273,12.905 22.900 L 12.999 22.700 13.000 19.611 L 13.000 16.523 16.110 16.511 C 19.168 16.500,19.223 16.499,19.400 16.416 C 19.903 16.183,20.138 15.552,19.900 15.075 C 19.863 15.001,18.615 13.721,17.128 12.232 L 14.424 9.524 16.822 9.512 C 19.030 9.501,19.233 9.494,19.380 9.428 C 19.602 9.328,19.793 9.136,19.905 8.900 L 19.999 8.700 19.999 5.000 L 19.999 1.300 19.905 1.100 C 19.852 0.990,19.749 0.842,19.675 0.772 C 19.388 0.500,20.000 0.520,11.991 0.522 C 5.607 0.523,4.723 0.530,4.600 0.584 M18.000 5.020 L 18.000 7.520 15.211 7.520 L 12.421 7.520 9.921 5.020 L 7.420 2.520 12.710 2.520 L 18.000 2.520 18.000 5.020 M14.090 11.990 C 15.448 13.348,16.560 14.473,16.560 14.490 C 16.560 14.506,14.184 14.520,11.280 14.520 L 6.000 14.520 6.000 12.020 L 6.000 9.520 8.810 9.520 L 11.620 9.520 14.090 11.990 M11.000 18.300 C 11.000 19.279,10.995 20.080,10.990 20.080 C 10.984 20.080,10.179 19.279,9.200 18.300 L 7.420 16.520 9.210 16.520 L 11.000 16.520 11.000 18.300 " stroke="none" fill-rule="evenodd" fill="black"></path></svg>