<svg width="24" height="24" viewBox="0 0 24 24" fill="none" xmlns="http://www.w3.org/2000/svg"><path d="M3.749 5.045 C 2.967 5.120,2.402 5.371,1.890 5.870 C 1.491 6.260,1.236 6.731,1.094 7.340 C 1.024 7.642,1.020 7.911,1.020 12.020 L 1.020 16.380 1.111 16.735 C 1.281 17.406,1.637 17.962,2.142 18.350 C 2.495 18.621,2.816 18.775,3.265 18.889 L 3.620 18.980 11.980 18.980 C 19.988 18.980,20.353 18.977,20.660 18.906 C 21.459 18.720,22.041 18.327,22.486 17.671 C 22.685 17.378,22.807 17.084,22.906 16.660 C 22.976 16.358,22.980 16.089,22.980 12.000 C 22.980 7.911,22.976 7.642,22.906 7.340 C 22.688 6.404,22.167 5.737,21.329 5.321 C 21.019 5.168,20.706 5.091,20.180 5.042 C 19.643 4.991,4.277 4.994,3.749 5.045 M20.374 7.074 C 20.586 7.146,20.863 7.432,20.928 7.646 C 21.005 7.901,21.005 16.099,20.928 16.354 C 20.863 16.567,20.591 16.849,20.376 16.925 C 20.143 17.007,3.857 17.007,3.624 16.925 C 3.422 16.854,3.140 16.571,3.075 16.374 C 3.009 16.175,2.974 8.513,3.037 7.950 C 3.102 7.365,3.340 7.104,3.866 7.042 C 4.017 7.024,7.758 7.012,12.180 7.016 C 18.671 7.021,20.250 7.032,20.374 7.074 M7.695 9.057 C 7.466 9.129,7.256 9.299,7.128 9.516 C 7.025 9.692,7.019 9.728,7.007 10.350 L 6.993 11.000 6.443 11.000 C 5.648 11.000,5.366 11.111,5.128 11.516 C 5.037 11.672,5.020 11.746,5.020 12.000 C 5.020 12.256,5.036 12.328,5.131 12.489 C 5.256 12.702,5.449 12.864,5.670 12.943 C 5.768 12.978,6.022 12.997,6.407 12.998 L 6.993 13.000 7.007 13.653 C 7.020 14.300,7.021 14.308,7.141 14.503 C 7.209 14.613,7.346 14.756,7.452 14.828 C 7.923 15.144,8.554 14.999,8.859 14.503 C 8.979 14.308,8.980 14.300,8.993 13.653 L 9.007 13.000 9.593 12.998 C 9.978 12.997,10.232 12.978,10.330 12.943 C 10.551 12.864,10.744 12.702,10.869 12.489 C 10.964 12.328,10.980 12.256,10.980 12.000 C 10.980 11.746,10.963 11.672,10.872 11.516 C 10.634 11.111,10.352 11.000,9.557 11.000 L 9.007 11.000 8.993 10.350 C 8.981 9.728,8.975 9.692,8.872 9.516 C 8.628 9.101,8.150 8.915,7.695 9.057 M17.695 10.055 C 17.464 10.130,17.255 10.300,17.128 10.516 C 17.037 10.672,17.020 10.746,17.020 11.000 C 17.020 11.257,17.036 11.327,17.133 11.492 C 17.651 12.374,18.998 12.018,18.998 11.000 C 18.998 10.623,18.792 10.281,18.463 10.112 C 18.265 10.010,17.911 9.984,17.695 10.055 M14.695 12.055 C 14.464 12.130,14.255 12.300,14.128 12.516 C 14.037 12.672,14.020 12.746,14.020 13.000 C 14.020 13.257,14.036 13.327,14.133 13.492 C 14.651 14.374,15.998 14.018,15.998 13.000 C 15.998 12.623,15.792 12.281,15.463 12.112 C 15.265 12.010,14.911 11.984,14.695 12.055 " stroke="none" fill-rule="evenodd" fill="black"></path></svg>