<svg width="24" height="24" viewBox="0 0 24 24" fill="none" xmlns="http://www.w3.org/2000/svg"><path d="M7.860 4.040 C 6.339 4.105,5.478 4.320,4.587 4.855 C 4.063 5.170,3.746 5.421,3.338 5.846 C 2.375 6.850,1.931 7.863,1.722 9.539 C 1.567 10.779,1.185 15.983,1.223 16.349 C 1.327 17.372,1.702 18.185,2.383 18.859 C 2.892 19.363,3.473 19.692,4.200 19.887 C 4.478 19.961,4.645 19.978,5.120 19.979 C 5.811 19.980,6.200 19.896,6.795 19.617 C 7.443 19.312,7.794 19.007,8.608 18.039 C 9.056 17.506,9.179 17.394,9.503 17.225 C 9.895 17.020,10.104 17.001,12.000 17.001 C 13.896 17.001,14.105 17.020,14.497 17.225 C 14.823 17.396,14.930 17.495,15.474 18.134 C 16.279 19.079,16.545 19.307,17.213 19.620 C 17.801 19.896,18.192 19.980,18.880 19.978 C 19.312 19.977,19.531 19.958,19.740 19.903 C 21.187 19.522,22.225 18.539,22.620 17.176 C 22.816 16.501,22.817 16.355,22.640 13.873 C 22.457 11.301,22.383 10.390,22.298 9.680 C 22.090 7.929,21.650 6.887,20.692 5.880 C 20.240 5.404,19.874 5.119,19.283 4.782 C 18.603 4.394,17.894 4.189,16.840 4.076 C 16.337 4.023,8.954 3.992,7.860 4.040 M15.960 6.038 C 17.181 6.091,17.755 6.211,18.335 6.535 C 19.161 6.998,19.849 7.845,20.077 8.682 C 20.292 9.467,20.343 9.936,20.599 13.476 C 20.783 16.006,20.792 16.331,20.686 16.671 C 20.428 17.499,19.621 18.046,18.740 17.989 C 18.088 17.947,17.756 17.738,17.089 16.948 C 16.491 16.239,16.231 15.975,15.905 15.742 C 15.553 15.491,14.967 15.220,14.538 15.111 C 14.187 15.022,14.137 15.020,12.000 15.020 C 9.863 15.020,9.813 15.022,9.462 15.111 C 9.032 15.221,8.447 15.491,8.092 15.744 C 7.761 15.981,7.504 16.242,6.909 16.948 C 6.251 17.730,5.915 17.945,5.280 17.989 C 4.591 18.037,3.994 17.758,3.579 17.194 C 3.334 16.861,3.240 16.553,3.240 16.080 C 3.240 15.684,3.512 11.775,3.622 10.600 C 3.786 8.836,3.978 8.205,4.575 7.458 C 4.716 7.282,4.960 7.036,5.118 6.910 C 5.876 6.306,6.533 6.101,7.900 6.042 C 8.889 5.999,14.998 5.996,15.960 6.038 M7.695 8.057 C 7.466 8.129,7.256 8.299,7.128 8.516 C 7.025 8.692,7.019 8.728,7.007 9.350 L 6.993 10.000 6.443 10.000 C 5.648 10.000,5.366 10.111,5.128 10.516 C 5.037 10.672,5.020 10.746,5.020 11.000 C 5.020 11.256,5.036 11.328,5.131 11.489 C 5.256 11.702,5.449 11.864,5.670 11.943 C 5.768 11.978,6.022 11.997,6.407 11.998 L 6.993 12.000 7.007 12.653 C 7.020 13.300,7.021 13.308,7.141 13.503 C 7.544 14.157,8.452 14.156,8.860 13.500 C 8.979 13.309,8.980 13.299,8.993 12.653 L 9.007 12.000 9.593 11.998 C 9.965 11.997,10.233 11.978,10.324 11.945 C 10.539 11.868,10.751 11.690,10.872 11.484 C 10.963 11.328,10.980 11.254,10.980 11.000 C 10.980 10.746,10.963 10.672,10.872 10.516 C 10.634 10.111,10.352 10.000,9.557 10.000 L 9.007 10.000 8.993 9.350 C 8.981 8.728,8.975 8.692,8.872 8.516 C 8.628 8.101,8.150 7.915,7.695 8.057 M17.695 9.055 C 17.464 9.130,17.255 9.300,17.128 9.516 C 17.037 9.672,17.020 9.746,17.020 10.000 C 17.020 10.257,17.036 10.327,17.133 10.492 C 17.651 11.374,18.998 11.018,18.998 10.000 C 18.998 9.623,18.792 9.281,18.463 9.112 C 18.265 9.010,17.911 8.984,17.695 9.055 M14.695 11.055 C 14.464 11.130,14.255 11.300,14.128 11.516 C 14.037 11.672,14.020 11.746,14.020 12.000 C 14.020 12.257,14.036 12.327,14.133 12.492 C 14.651 13.374,15.998 13.018,15.998 12.000 C 15.998 11.623,15.792 11.281,15.463 11.112 C 15.265 11.010,14.911 10.984,14.695 11.055 " stroke="none" fill-rule="evenodd" fill="black"></path></svg>