<svg width="24" height="24" viewBox="0 0 24 24" fill="none" xmlns="http://www.w3.org/2000/svg"><path d="M6.894 1.059 C 5.419 1.327,4.282 2.487,4.041 3.969 C 3.953 4.512,4.005 5.062,4.198 5.640 C 4.261 5.827,4.309 5.984,4.304 5.988 C 4.300 5.993,4.090 6.016,3.838 6.040 C 3.295 6.091,2.984 6.166,2.671 6.321 C 2.187 6.561,1.816 6.882,1.523 7.315 C 1.315 7.621,1.194 7.912,1.094 8.340 C 1.024 8.644,1.020 8.949,1.020 14.520 L 1.020 20.380 1.111 20.735 C 1.225 21.184,1.379 21.505,1.650 21.858 C 2.038 22.363,2.594 22.719,3.265 22.889 L 3.620 22.980 11.980 22.980 C 19.988 22.980,20.353 22.977,20.660 22.906 C 21.459 22.720,22.041 22.327,22.486 21.671 C 22.685 21.378,22.807 21.084,22.906 20.660 C 22.976 20.356,22.980 20.051,22.980 14.500 C 22.980 8.949,22.976 8.644,22.906 8.340 C 22.688 7.404,22.167 6.737,21.329 6.321 C 21.016 6.166,20.705 6.091,20.162 6.040 C 19.910 6.016,19.700 5.993,19.696 5.988 C 19.691 5.984,19.739 5.827,19.802 5.640 C 20.134 4.646,20.043 3.666,19.533 2.767 C 18.948 1.736,17.874 1.081,16.660 1.014 C 15.679 0.960,14.641 1.293,13.785 1.937 C 13.223 2.361,12.507 3.208,12.119 3.910 C 12.068 4.004,12.014 4.080,12.000 4.080 C 11.986 4.080,11.932 4.004,11.880 3.910 C 11.593 3.391,11.100 2.748,10.674 2.334 C 9.628 1.319,8.170 0.828,6.894 1.059 M8.144 3.095 C 8.988 3.320,9.761 4.103,10.359 5.340 C 10.486 5.604,10.603 5.861,10.618 5.912 L 10.646 6.003 8.893 5.992 L 7.140 5.980 6.900 5.868 C 6.583 5.720,6.275 5.413,6.135 5.104 C 6.040 4.896,6.024 4.808,6.024 4.500 C 6.023 4.191,6.039 4.106,6.134 3.900 C 6.327 3.478,6.749 3.130,7.174 3.039 C 7.381 2.995,7.875 3.024,8.144 3.095 M17.116 3.142 C 17.417 3.279,17.727 3.591,17.865 3.896 C 17.960 4.104,17.976 4.192,17.976 4.500 C 17.977 4.809,17.961 4.894,17.866 5.100 C 17.722 5.414,17.414 5.724,17.104 5.867 L 16.860 5.980 15.107 5.992 L 13.354 6.003 13.382 5.912 C 13.444 5.707,13.886 4.841,14.068 4.567 C 14.303 4.214,14.630 3.836,14.897 3.609 C 15.154 3.390,15.643 3.140,15.920 3.085 C 16.041 3.061,16.176 3.033,16.220 3.023 C 16.414 2.978,16.898 3.043,17.116 3.142 M11.000 10.500 L 11.000 13.000 7.000 13.000 L 3.000 13.000 3.000 11.130 C 3.001 9.041,3.026 8.666,3.179 8.434 C 3.333 8.201,3.547 8.079,3.866 8.042 C 4.017 8.025,5.684 8.008,7.570 8.005 L 11.000 8.000 11.000 10.500 M20.374 8.075 C 20.573 8.141,20.860 8.429,20.924 8.626 C 20.960 8.738,20.978 9.358,20.990 10.890 L 21.006 13.000 17.003 13.000 L 13.000 13.000 13.000 10.498 L 13.000 7.996 16.610 8.010 C 19.398 8.021,20.255 8.036,20.374 8.075 M11.000 18.001 L 11.000 21.003 7.370 20.991 L 3.740 20.980 3.550 20.886 C 3.335 20.780,3.140 20.567,3.072 20.360 C 3.039 20.261,3.021 19.447,3.010 17.610 L 2.995 15.000 6.997 15.000 L 11.000 15.000 11.000 18.001 M20.990 17.610 C 20.979 19.447,20.961 20.261,20.928 20.360 C 20.860 20.567,20.665 20.780,20.450 20.886 L 20.260 20.980 16.630 20.991 L 13.000 21.003 13.000 18.001 L 13.000 15.000 17.003 15.000 L 21.005 15.000 20.990 17.610 " stroke="none" fill-rule="evenodd" fill="black"></path></svg>