<svg width="24" height="24" viewBox="0 0 24 24" fill="none" xmlns="http://www.w3.org/2000/svg"><path d="M7.940 1.040 C 7.340 1.150,6.861 1.413,6.378 1.897 C 5.964 2.313,5.732 2.709,5.597 3.229 C 5.494 3.623,5.485 4.301,5.576 4.692 C 5.611 4.842,5.640 4.971,5.640 4.979 C 5.640 4.987,4.961 5.000,4.130 5.008 C 2.682 5.022,2.610 5.027,2.365 5.114 C 1.671 5.360,1.209 5.880,1.061 6.581 C 0.975 6.986,0.975 10.014,1.061 10.419 C 1.147 10.827,1.298 11.104,1.597 11.403 C 1.913 11.719,2.194 11.864,2.657 11.952 L 2.997 12.016 3.010 16.218 C 3.023 20.417,3.023 20.420,3.112 20.756 C 3.287 21.414,3.645 21.969,4.142 22.350 C 4.495 22.621,4.816 22.775,5.265 22.889 L 5.620 22.980 11.980 22.980 C 18.038 22.980,18.355 22.976,18.660 22.906 C 19.269 22.764,19.711 22.526,20.118 22.118 C 20.509 21.727,20.736 21.323,20.891 20.740 C 20.975 20.425,20.977 20.357,20.990 16.218 L 21.003 12.016 21.344 11.952 C 21.798 11.866,22.085 11.716,22.401 11.401 C 22.699 11.102,22.855 10.818,22.940 10.419 C 23.025 10.014,23.025 6.986,22.939 6.581 C 22.791 5.880,22.329 5.360,21.635 5.114 C 21.390 5.027,21.318 5.022,19.870 5.008 C 19.040 5.000,18.360 4.987,18.360 4.979 C 18.360 4.971,18.389 4.842,18.424 4.692 C 18.515 4.301,18.506 3.623,18.403 3.229 C 18.268 2.709,18.036 2.313,17.622 1.897 C 17.221 1.495,16.899 1.291,16.407 1.128 C 16.137 1.038,16.033 1.026,15.540 1.025 C 14.726 1.025,14.186 1.182,13.528 1.609 C 13.140 1.861,12.527 2.479,12.240 2.909 C 12.119 3.089,12.011 3.237,12.000 3.237 C 11.989 3.237,11.881 3.090,11.760 2.910 C 11.491 2.510,10.869 1.871,10.525 1.641 C 10.185 1.413,9.744 1.213,9.368 1.116 C 9.015 1.025,8.246 0.984,7.940 1.040 M9.034 3.114 C 9.572 3.319,10.054 3.836,10.465 4.652 L 10.643 5.004 9.411 4.992 C 8.054 4.979,8.067 4.981,7.798 4.712 C 7.606 4.520,7.522 4.303,7.522 4.000 C 7.522 3.560,7.760 3.200,8.146 3.056 C 8.340 2.984,8.764 3.012,9.034 3.114 M15.944 3.092 C 16.282 3.269,16.478 3.602,16.478 4.000 C 16.478 4.303,16.394 4.520,16.202 4.712 C 15.933 4.981,15.946 4.979,14.589 4.992 L 13.357 5.004 13.535 4.652 C 14.009 3.710,14.565 3.177,15.216 3.039 C 15.439 2.992,15.802 3.018,15.944 3.092 M11.000 8.500 L 11.000 10.000 7.000 10.000 L 3.000 10.000 3.000 8.500 L 3.000 7.000 7.000 7.000 L 11.000 7.000 11.000 8.500 M21.000 8.500 L 21.000 10.000 17.000 10.000 L 13.000 10.000 13.000 8.500 L 13.000 7.000 17.000 7.000 L 21.000 7.000 21.000 8.500 M11.000 16.502 L 11.000 21.004 8.370 20.992 L 5.740 20.980 5.550 20.886 C 5.335 20.781,5.141 20.567,5.071 20.360 C 5.036 20.257,5.020 19.143,5.010 16.110 L 4.996 12.000 7.998 12.000 L 11.000 12.000 11.000 16.502 M18.990 16.110 C 18.980 19.143,18.964 20.257,18.929 20.360 C 18.859 20.567,18.665 20.781,18.450 20.886 L 18.260 20.980 15.630 20.992 L 13.000 21.004 13.000 16.502 L 13.000 12.000 16.002 12.000 L 19.004 12.000 18.990 16.110 " stroke="none" fill-rule="evenodd" fill="black"></path></svg>