<svg width="24" height="24" viewBox="0 0 24 24" fill="none" xmlns="http://www.w3.org/2000/svg"><path d="M11.400 7.044 C 9.761 7.229,8.261 8.290,7.526 9.785 C 7.359 10.124,7.183 10.608,7.139 10.850 L 7.111 11.000 4.502 11.000 C 1.671 11.000,1.672 11.000,1.382 11.221 C 1.302 11.282,1.187 11.415,1.128 11.516 C 1.037 11.672,1.020 11.746,1.020 12.000 C 1.020 12.256,1.036 12.328,1.131 12.489 C 1.256 12.702,1.449 12.864,1.670 12.943 C 1.789 12.986,2.360 12.997,4.466 12.998 L 7.111 13.000 7.139 13.150 C 7.183 13.392,7.359 13.876,7.526 14.215 C 8.203 15.592,9.486 16.574,11.040 16.907 C 11.511 17.008,12.489 17.008,12.960 16.907 C 14.207 16.640,15.295 15.946,16.034 14.948 C 16.382 14.476,16.775 13.624,16.861 13.150 L 16.889 13.000 19.534 12.998 C 21.640 12.997,22.211 12.986,22.330 12.943 C 22.551 12.864,22.744 12.702,22.869 12.489 C 22.964 12.328,22.980 12.256,22.980 12.000 C 22.980 11.746,22.963 11.672,22.872 11.516 C 22.813 11.415,22.698 11.282,22.618 11.221 C 22.328 11.000,22.329 11.000,19.500 11.000 L 16.893 11.000 16.842 10.773 C 16.660 9.961,16.116 9.031,15.452 8.396 C 14.365 7.358,12.912 6.874,11.400 7.044 M12.861 9.129 C 13.804 9.405,14.584 10.183,14.875 11.139 C 14.958 11.412,14.973 11.542,14.973 12.000 C 14.973 12.458,14.958 12.588,14.875 12.861 C 14.588 13.803,13.845 14.555,12.887 14.872 C 12.620 14.961,12.508 14.974,12.020 14.977 C 11.539 14.980,11.418 14.967,11.160 14.886 C 10.180 14.580,9.417 13.821,9.125 12.861 C 9.044 12.595,9.027 12.451,9.025 12.020 C 9.022 11.408,9.081 11.137,9.320 10.660 C 9.746 9.812,10.552 9.212,11.499 9.040 C 11.832 8.980,12.500 9.023,12.861 9.129 " stroke="none" fill-rule="evenodd" fill="black"></path></svg>