<svg width="24" height="24" viewBox="0 0 24 24" fill="none" xmlns="http://www.w3.org/2000/svg"><path d="M2.695 2.057 C 2.466 2.129,2.256 2.299,2.128 2.516 L 2.020 2.700 2.008 8.660 C 1.994 15.350,1.999 15.500,2.245 16.320 C 2.575 17.421,3.578 18.423,4.680 18.755 C 5.444 18.985,5.774 19.000,10.191 19.000 C 13.901 19.000,14.124 19.004,14.143 19.070 C 14.510 20.292,15.362 21.240,16.512 21.704 C 18.558 22.528,20.877 21.538,21.704 19.488 C 22.090 18.530,22.090 17.469,21.705 16.516 C 21.172 15.197,20.001 14.269,18.605 14.058 C 18.121 13.986,17.879 13.986,17.395 14.058 C 15.854 14.291,14.607 15.392,14.143 16.932 C 14.122 17.001,13.936 17.003,9.931 16.988 C 5.457 16.972,5.516 16.974,5.080 16.769 C 4.812 16.643,4.376 16.216,4.248 15.952 C 4.033 15.510,4.030 15.465,4.011 12.110 L 3.993 9.000 9.058 9.000 C 13.847 9.000,14.124 9.004,14.143 9.070 C 14.510 10.292,15.362 11.240,16.512 11.704 C 18.560 12.529,20.874 11.540,21.705 9.484 C 22.090 8.532,22.090 7.468,21.705 6.516 C 21.172 5.197,20.001 4.269,18.605 4.058 C 18.121 3.986,17.879 3.986,17.395 4.058 C 15.856 4.291,14.603 5.397,14.143 6.930 C 14.124 6.996,13.847 7.000,9.063 7.000 L 4.003 7.000 3.991 4.850 L 3.980 2.700 3.872 2.516 C 3.628 2.101,3.150 1.915,2.695 2.057 M18.523 6.073 C 19.262 6.266,19.850 6.924,19.967 7.690 C 20.067 8.343,19.873 8.933,19.403 9.404 C 19.002 9.807,18.547 10.000,18.000 10.000 C 17.485 10.000,17.038 9.822,16.653 9.465 C 15.323 8.229,16.189 6.005,18.000 6.005 C 18.143 6.005,18.378 6.036,18.523 6.073 M18.523 16.073 C 19.262 16.266,19.850 16.924,19.967 17.690 C 20.067 18.343,19.873 18.933,19.403 19.404 C 19.002 19.807,18.547 20.000,18.000 20.000 C 17.485 20.000,17.038 19.822,16.653 19.465 C 15.323 18.229,16.189 16.005,18.000 16.005 C 18.143 16.005,18.378 16.036,18.523 16.073 " stroke="none" fill-rule="evenodd" fill="black"></path></svg>