<svg width="24" height="24" viewBox="0 0 24 24" fill="none" xmlns="http://www.w3.org/2000/svg"><path d="M5.695 2.057 C 5.466 2.129,5.256 2.299,5.128 2.516 L 5.020 2.700 5.000 8.413 L 4.980 14.126 4.720 14.217 C 3.824 14.531,3.024 15.177,2.569 15.953 C 1.320 18.083,2.233 20.785,4.512 21.704 C 5.471 22.090,6.529 22.090,7.488 21.704 C 8.502 21.295,9.305 20.495,9.700 19.500 C 9.761 19.346,9.827 19.164,9.846 19.095 C 9.880 18.972,9.885 18.970,10.250 18.923 C 12.035 18.696,13.727 17.986,15.200 16.847 C 15.637 16.509,16.509 15.637,16.847 15.200 C 17.986 13.727,18.696 12.035,18.923 10.250 C 18.970 9.885,18.972 9.880,19.095 9.846 C 20.031 9.585,20.920 8.901,21.436 8.044 C 21.923 7.238,22.108 6.163,21.921 5.243 C 21.628 3.806,20.637 2.680,19.245 2.204 C 18.951 2.103,18.322 2.000,18.000 2.000 C 16.635 2.000,15.253 2.787,14.569 3.953 C 13.696 5.441,13.848 7.269,14.954 8.584 C 15.379 9.088,15.909 9.464,16.559 9.722 C 16.769 9.805,16.938 9.884,16.935 9.897 C 16.933 9.910,16.919 10.038,16.904 10.182 C 16.840 10.808,16.508 11.861,16.150 12.578 C 15.667 13.545,14.864 14.547,14.041 15.211 C 12.912 16.122,11.483 16.738,10.030 16.939 C 9.879 16.959,9.840 16.953,9.840 16.907 C 9.840 16.807,9.575 16.189,9.421 15.932 C 8.965 15.168,8.165 14.527,7.280 14.217 L 7.020 14.126 7.000 8.413 L 6.980 2.700 6.872 2.516 C 6.628 2.101,6.150 1.915,5.695 2.057 M18.523 4.073 C 19.262 4.266,19.850 4.924,19.967 5.690 C 20.029 6.098,19.967 6.522,19.793 6.880 C 19.638 7.198,19.227 7.625,18.930 7.775 C 18.492 7.997,17.962 8.059,17.508 7.940 C 16.823 7.762,16.249 7.194,16.073 6.523 C 15.683 5.028,17.028 3.683,18.523 4.073 M6.523 16.073 C 7.262 16.266,7.850 16.924,7.967 17.690 C 8.067 18.343,7.873 18.933,7.403 19.404 C 7.002 19.807,6.547 20.000,6.000 20.000 C 5.485 20.000,5.038 19.822,4.653 19.465 C 3.323 18.229,4.189 16.005,6.000 16.005 C 6.143 16.005,6.378 16.036,6.523 16.073 " stroke="none" fill-rule="evenodd" fill="black"></path></svg>