<svg width="24" height="24" viewBox="0 0 24 24" fill="none" xmlns="http://www.w3.org/2000/svg"><path d="M5.400 7.044 C 4.274 7.170,3.160 7.735,2.359 8.588 C 1.716 9.271,1.298 10.081,1.093 11.040 C 0.992 11.511,0.992 12.489,1.093 12.960 C 1.314 13.991,1.743 14.784,2.479 15.521 C 3.214 16.256,4.006 16.684,5.041 16.907 C 5.511 17.008,6.489 17.008,6.959 16.907 C 7.625 16.764,8.257 16.499,8.812 16.132 C 9.182 15.887,9.887 15.182,10.132 14.812 C 10.603 14.099,10.897 13.278,10.983 12.435 L 11.010 12.170 11.164 12.124 C 11.249 12.098,11.472 12.058,11.659 12.033 C 12.013 11.988,12.509 12.026,12.836 12.124 L 12.990 12.170 13.017 12.435 C 13.103 13.284,13.393 14.094,13.868 14.812 C 14.113 15.182,14.818 15.887,15.188 16.132 C 15.743 16.499,16.375 16.764,17.041 16.907 C 17.511 17.008,18.489 17.008,18.959 16.907 C 19.994 16.684,20.786 16.256,21.521 15.521 C 22.256 14.786,22.684 13.994,22.907 12.959 C 23.008 12.489,23.008 11.511,22.907 11.041 C 22.581 9.527,21.676 8.308,20.356 7.605 C 19.714 7.263,19.209 7.110,18.470 7.036 C 17.954 6.984,17.276 7.028,16.820 7.144 C 15.368 7.514,14.152 8.496,13.507 9.818 C 13.421 9.995,13.344 10.147,13.337 10.155 C 13.330 10.163,13.166 10.136,12.972 10.096 C 12.485 9.995,11.515 9.995,11.028 10.096 C 10.834 10.136,10.670 10.163,10.662 10.155 C 10.655 10.147,10.575 9.991,10.486 9.808 C 10.020 8.861,9.283 8.099,8.356 7.605 C 7.421 7.106,6.463 6.925,5.400 7.044 M6.861 9.129 C 7.804 9.405,8.584 10.183,8.875 11.139 C 8.958 11.412,8.973 11.542,8.973 12.000 C 8.973 12.458,8.958 12.588,8.875 12.861 C 8.588 13.803,7.845 14.555,6.887 14.872 C 6.620 14.961,6.508 14.974,6.020 14.977 C 5.539 14.980,5.418 14.967,5.160 14.886 C 4.180 14.580,3.418 13.822,3.125 12.861 C 3.042 12.588,3.027 12.458,3.027 12.000 C 3.027 11.542,3.042 11.412,3.125 11.139 C 3.456 10.054,4.371 9.245,5.499 9.040 C 5.832 8.980,6.500 9.023,6.861 9.129 M18.861 9.129 C 19.804 9.405,20.584 10.183,20.875 11.139 C 20.958 11.412,20.973 11.542,20.973 12.000 C 20.973 12.458,20.958 12.588,20.875 12.861 C 20.588 13.803,19.845 14.555,18.887 14.872 C 18.620 14.961,18.508 14.974,18.020 14.977 C 17.539 14.980,17.418 14.967,17.160 14.886 C 16.180 14.580,15.418 13.822,15.125 12.861 C 15.042 12.588,15.027 12.458,15.027 12.000 C 15.027 11.542,15.042 11.412,15.125 11.139 C 15.456 10.054,16.371 9.245,17.499 9.040 C 17.832 8.980,18.500 9.023,18.861 9.129 " stroke="none" fill-rule="evenodd" fill="black"></path></svg>