<svg width="24" height="24" viewBox="0 0 24 24" fill="none" xmlns="http://www.w3.org/2000/svg"><path d="M11.280 1.023 C 11.203 1.032,10.951 1.059,10.720 1.083 C 9.527 1.210,8.337 1.558,7.180 2.120 C 6.045 2.671,5.193 3.285,4.238 4.239 C 3.277 5.198,2.643 6.080,2.097 7.220 C 0.301 10.968,0.728 15.286,3.226 18.633 C 3.701 19.269,4.753 20.316,5.400 20.797 C 9.364 23.745,14.666 23.734,18.637 20.770 C 19.246 20.316,20.316 19.246,20.770 18.637 C 23.744 14.652,23.744 9.348,20.770 5.363 C 20.316 4.755,19.247 3.686,18.640 3.235 C 17.045 2.049,15.365 1.360,13.423 1.096 C 13.000 1.038,11.574 0.990,11.280 1.023 M12.145 3.399 C 12.619 3.815,13.209 4.619,13.575 5.347 C 13.907 6.006,14.325 7.088,14.269 7.144 C 14.261 7.153,14.111 7.142,13.937 7.121 C 13.164 7.028,12.004 6.993,11.190 7.038 C 10.745 7.063,10.237 7.100,10.063 7.121 C 9.889 7.142,9.739 7.153,9.731 7.144 C 9.704 7.117,9.839 6.699,10.025 6.232 C 10.480 5.089,11.055 4.177,11.747 3.501 C 11.872 3.380,11.982 3.280,11.992 3.280 C 12.001 3.280,12.071 3.334,12.145 3.399 M9.187 3.470 C 9.177 3.486,9.093 3.626,8.999 3.780 C 8.738 4.207,8.422 4.855,8.182 5.454 C 7.975 5.969,7.637 7.022,7.579 7.331 C 7.545 7.514,7.522 7.531,7.180 7.619 C 6.658 7.755,6.041 7.953,5.550 8.144 C 5.012 8.352,3.967 8.869,3.673 9.071 C 3.570 9.142,3.476 9.200,3.464 9.200 C 3.419 9.200,3.691 8.523,3.937 8.020 C 4.643 6.579,5.741 5.344,7.120 4.441 C 7.546 4.162,8.376 3.743,8.860 3.563 C 9.232 3.425,9.210 3.432,9.187 3.470 M15.980 3.937 C 17.747 4.802,19.198 6.253,20.063 8.020 C 20.309 8.523,20.581 9.200,20.536 9.200 C 20.524 9.200,20.430 9.142,20.327 9.071 C 20.033 8.869,18.988 8.352,18.450 8.144 C 17.959 7.953,17.342 7.755,16.820 7.619 C 16.478 7.531,16.455 7.514,16.421 7.331 C 16.373 7.073,16.047 6.032,15.886 5.620 C 15.590 4.863,15.177 4.030,14.849 3.529 C 14.791 3.440,14.796 3.441,15.125 3.560 C 15.309 3.627,15.694 3.797,15.980 3.937 M13.640 9.103 C 14.262 9.162,14.717 9.223,14.747 9.253 C 14.776 9.283,14.838 9.729,14.904 10.396 C 14.991 11.272,14.991 12.728,14.904 13.604 C 14.834 14.304,14.776 14.717,14.742 14.751 C 14.711 14.782,14.368 14.832,13.680 14.906 C 12.451 15.039,10.239 14.974,9.333 14.779 C 9.230 14.757,9.220 14.717,9.142 14.036 C 9.027 13.042,8.990 12.021,9.039 11.214 C 9.082 10.504,9.172 9.591,9.222 9.354 C 9.249 9.226,9.260 9.223,9.980 9.141 C 11.265 8.994,12.362 8.983,13.640 9.103 M7.145 9.790 C 7.022 10.201,6.987 12.740,7.090 13.720 C 7.121 14.017,7.143 14.266,7.138 14.272 C 7.121 14.295,6.685 14.156,6.272 13.995 C 5.083 13.533,4.011 12.842,3.399 12.145 L 3.272 12.000 3.402 11.850 C 4.074 11.079,5.497 10.230,6.840 9.798 C 7.128 9.705,7.170 9.704,7.145 9.790 M17.140 9.795 C 18.464 10.205,19.907 11.064,20.605 11.860 L 20.728 12.000 20.601 12.145 C 19.989 12.842,18.917 13.533,17.728 13.995 C 17.315 14.156,16.879 14.295,16.862 14.272 C 16.857 14.266,16.879 14.017,16.910 13.720 C 17.013 12.735,16.978 10.224,16.855 9.790 C 16.830 9.703,16.844 9.703,17.140 9.795 M4.046 15.151 C 4.791 15.573,5.641 15.928,6.603 16.218 C 6.923 16.315,7.251 16.406,7.331 16.421 C 7.503 16.453,7.541 16.492,7.580 16.680 C 7.652 17.024,7.984 18.054,8.182 18.546 C 8.422 19.145,8.738 19.793,8.999 20.220 C 9.093 20.374,9.177 20.513,9.187 20.530 C 9.226 20.597,8.583 20.338,8.020 20.060 C 6.544 19.331,5.354 18.273,4.441 16.880 C 4.154 16.443,3.738 15.613,3.560 15.125 C 3.441 14.796,3.440 14.791,3.529 14.849 C 3.579 14.882,3.812 15.017,4.046 15.151 M20.438 15.130 C 20.262 15.613,19.845 16.445,19.559 16.880 C 18.871 17.931,17.981 18.827,16.927 19.532 C 16.530 19.797,15.521 20.305,15.086 20.458 L 14.791 20.561 14.882 20.411 C 15.575 19.263,16.109 17.974,16.404 16.740 C 16.464 16.486,16.491 16.454,16.669 16.421 C 16.975 16.364,18.003 16.033,18.530 15.823 C 19.162 15.572,19.712 15.302,20.200 15.007 C 20.387 14.894,20.544 14.801,20.549 14.800 C 20.554 14.800,20.504 14.948,20.438 15.130 M10.440 16.927 C 11.180 16.995,13.005 16.985,13.720 16.910 C 14.017 16.879,14.266 16.857,14.272 16.862 C 14.328 16.903,13.893 18.021,13.575 18.653 C 13.207 19.384,12.619 20.185,12.140 20.605 L 12.000 20.728 11.860 20.605 C 11.064 19.907,10.205 18.464,9.795 17.140 C 9.703 16.844,9.703 16.830,9.790 16.855 C 9.829 16.865,10.121 16.898,10.440 16.927 " stroke="none" fill-rule="evenodd" fill="black"></path></svg>