<svg width="24" height="24" viewBox="0 0 24 24" fill="none" xmlns="http://www.w3.org/2000/svg"><path d="M11.280 1.023 C 11.203 1.032,10.951 1.059,10.720 1.083 C 9.527 1.210,8.337 1.558,7.180 2.120 C 6.045 2.671,5.193 3.285,4.238 4.239 C 3.277 5.198,2.643 6.080,2.097 7.220 C 0.301 10.968,0.728 15.286,3.226 18.633 C 3.701 19.269,4.753 20.316,5.400 20.797 C 9.364 23.745,14.666 23.734,18.637 20.770 C 19.246 20.316,20.316 19.246,20.770 18.637 C 23.744 14.652,23.744 9.348,20.770 5.363 C 20.316 4.755,19.247 3.686,18.640 3.235 C 17.045 2.049,15.365 1.360,13.423 1.096 C 13.000 1.038,11.574 0.990,11.280 1.023 M9.680 3.336 C 9.680 3.345,9.574 3.520,9.445 3.726 C 8.757 4.825,8.072 6.337,7.713 7.550 L 7.580 7.999 5.770 8.000 C 4.774 8.000,3.960 7.988,3.960 7.973 C 3.960 7.923,4.293 7.339,4.492 7.040 C 5.385 5.699,6.619 4.620,8.060 3.918 C 8.703 3.605,9.680 3.254,9.680 3.336 M14.897 3.483 C 16.742 4.105,18.409 5.391,19.508 7.040 C 19.707 7.339,20.040 7.923,20.040 7.973 C 20.040 7.988,19.226 8.000,18.230 8.000 L 16.420 7.999 16.267 7.490 C 15.892 6.244,15.072 4.476,14.433 3.533 C 14.371 3.441,14.320 3.355,14.320 3.343 C 14.320 3.298,14.422 3.322,14.897 3.483 M12.268 3.913 C 12.797 4.627,13.443 5.762,13.826 6.652 C 13.992 7.038,14.320 7.907,14.320 7.962 C 14.320 7.986,13.444 8.000,12.000 8.000 C 10.556 8.000,9.680 7.986,9.680 7.962 C 9.680 7.919,9.979 7.113,10.142 6.720 C 10.299 6.338,10.736 5.473,10.981 5.060 C 11.380 4.385,11.960 3.555,12.010 3.586 C 12.027 3.597,12.143 3.743,12.268 3.913 M7.144 10.130 C 7.093 10.383,7.000 11.586,7.000 12.000 C 7.000 12.414,7.093 13.617,7.144 13.870 L 7.170 14.000 5.207 14.000 C 4.128 14.000,3.236 13.986,3.225 13.968 C 3.178 13.892,3.075 13.170,3.031 12.610 C 2.995 12.140,2.995 11.860,3.031 11.390 C 3.075 10.830,3.178 10.108,3.225 10.032 C 3.236 10.014,4.128 10.000,5.207 10.000 L 7.170 10.000 7.144 10.130 M14.868 10.380 C 15.017 11.501,15.017 12.499,14.868 13.620 L 14.820 13.980 12.022 13.990 C 10.484 13.996,9.212 13.987,9.196 13.970 C 9.129 13.900,9.027 12.705,9.027 12.000 C 9.027 11.352,9.126 10.130,9.187 10.030 C 9.197 10.013,10.468 10.004,12.013 10.010 L 14.820 10.020 14.868 10.380 M20.803 10.128 C 20.819 10.188,20.865 10.449,20.904 10.708 C 21.037 11.576,20.985 13.190,20.803 13.872 L 20.774 13.980 18.803 13.990 L 16.831 14.001 16.854 13.870 C 17.017 12.952,17.017 10.933,16.854 10.118 L 16.830 9.999 18.802 10.010 L 20.774 10.020 20.803 10.128 M7.733 16.511 C 8.118 17.794,8.894 19.451,9.641 20.587 L 9.725 20.715 9.392 20.614 C 7.394 20.004,5.658 18.709,4.492 16.960 C 4.293 16.661,3.960 16.077,3.960 16.027 C 3.960 16.012,4.774 16.000,5.770 16.001 L 7.580 16.001 7.733 16.511 M14.320 16.038 C 14.320 16.093,13.992 16.962,13.829 17.340 C 13.379 18.384,12.551 19.798,12.066 20.349 L 11.988 20.438 11.753 20.117 C 10.965 19.042,10.378 17.937,9.857 16.548 C 9.760 16.289,9.680 16.059,9.680 16.038 C 9.680 16.014,10.556 16.000,12.000 16.000 C 13.444 16.000,14.320 16.014,14.320 16.038 M20.040 16.027 C 20.040 16.077,19.707 16.661,19.508 16.960 C 18.345 18.705,16.592 20.012,14.607 20.614 L 14.274 20.715 14.346 20.608 C 15.067 19.529,15.881 17.792,16.267 16.510 L 16.420 16.001 18.230 16.000 C 19.226 16.000,20.040 16.012,20.040 16.027 " stroke="none" fill-rule="evenodd" fill="black"></path></svg>