<svg width="24" height="24" viewBox="0 0 24 24" fill="none" xmlns="http://www.w3.org/2000/svg"><path d="M11.280 1.023 C 11.203 1.032,10.951 1.059,10.720 1.083 C 9.527 1.210,8.337 1.558,7.180 2.120 C 6.045 2.671,5.193 3.285,4.238 4.239 C 3.277 5.198,2.643 6.080,2.097 7.220 C 0.301 10.968,0.728 15.286,3.226 18.633 C 3.701 19.269,4.753 20.316,5.400 20.797 C 9.364 23.745,14.666 23.734,18.637 20.770 C 19.246 20.316,20.316 19.246,20.770 18.637 C 23.744 14.652,23.744 9.348,20.770 5.363 C 20.316 4.755,19.247 3.686,18.640 3.235 C 17.045 2.049,15.365 1.360,13.423 1.096 C 13.000 1.038,11.574 0.990,11.280 1.023 M12.778 3.042 C 13.019 3.064,13.225 3.091,13.234 3.101 C 13.251 3.118,13.047 6.331,13.028 6.341 C 13.024 6.344,12.120 6.746,11.020 7.235 C 9.920 7.724,8.959 8.173,8.884 8.232 C 8.808 8.292,8.534 8.623,8.273 8.970 C 8.012 9.317,7.788 9.600,7.777 9.600 C 7.748 9.600,4.560 7.328,4.469 7.243 C 4.402 7.180,4.409 7.162,4.599 6.885 C 6.419 4.243,9.614 2.742,12.778 3.042 M15.940 3.920 C 17.750 4.796,19.201 6.246,20.080 8.060 C 20.720 9.379,20.977 10.507,20.977 12.000 C 20.977 13.493,20.720 14.621,20.080 15.940 C 19.375 17.394,18.311 18.607,16.927 19.532 C 16.138 20.060,14.876 20.588,13.908 20.797 C 11.266 21.366,8.479 20.708,6.370 19.019 C 4.857 17.807,3.722 16.029,3.267 14.160 C 3.083 13.408,3.024 12.886,3.023 12.020 C 3.022 11.211,3.059 10.813,3.203 10.120 C 3.274 9.775,3.467 9.082,3.502 9.045 C 3.510 9.037,4.305 9.593,5.268 10.281 C 6.232 10.969,7.137 11.587,7.280 11.655 C 7.747 11.876,8.289 11.840,8.701 11.558 C 8.927 11.404,9.110 11.194,9.659 10.457 L 10.139 9.813 11.839 9.059 C 12.775 8.645,13.724 8.220,13.948 8.116 C 14.615 7.807,14.911 7.452,14.998 6.855 C 15.020 6.704,15.074 6.004,15.119 5.300 C 15.225 3.622,15.228 3.599,15.313 3.627 C 15.350 3.639,15.632 3.771,15.940 3.920 M11.835 12.173 C 11.564 12.249,11.254 12.465,11.081 12.696 C 10.886 12.956,10.187 14.353,10.098 14.661 C 9.986 15.047,10.026 15.248,10.499 16.672 C 10.735 17.382,10.981 18.070,11.047 18.201 C 11.191 18.490,11.493 18.766,11.800 18.891 C 12.014 18.978,12.059 18.980,13.560 18.980 L 15.100 18.980 15.325 18.874 C 15.449 18.816,15.627 18.699,15.721 18.614 C 15.917 18.437,17.433 16.191,17.605 15.821 C 17.755 15.499,17.787 15.206,17.705 14.886 C 17.583 14.410,17.335 14.110,16.871 13.875 C 16.305 13.589,13.722 12.511,13.191 12.339 C 12.552 12.132,12.153 12.083,11.835 12.173 M12.882 14.354 C 13.236 14.474,15.396 15.386,15.453 15.439 C 15.472 15.457,15.257 15.815,14.977 16.235 L 14.467 17.000 13.597 17.000 L 12.727 17.000 12.405 16.037 L 12.084 15.073 12.291 14.657 C 12.405 14.427,12.509 14.240,12.522 14.240 C 12.534 14.240,12.697 14.291,12.882 14.354 " stroke="none" fill-rule="evenodd" fill="black"></path></svg>