<svg width="24" height="24" viewBox="0 0 24 24" fill="none" xmlns="http://www.w3.org/2000/svg"><path d="M17.764 1.905 C 17.557 2.009,17.358 2.224,17.272 2.440 C 17.211 2.592,17.223 3.002,17.292 3.167 C 17.326 3.247,17.484 3.454,17.644 3.627 C 18.244 4.273,18.693 4.907,19.060 5.622 C 20.456 8.344,20.271 11.657,18.582 14.194 C 16.939 16.661,14.166 18.091,11.220 17.988 C 9.540 17.929,7.947 17.397,6.598 16.443 L 6.234 16.186 6.774 15.646 L 7.314 15.106 7.447 15.206 C 8.010 15.628,8.925 16.051,9.760 16.276 C 10.815 16.560,12.185 16.560,13.240 16.276 C 14.508 15.935,15.534 15.346,16.440 14.440 C 17.779 13.101,18.485 11.396,18.485 9.500 C 18.485 7.462,17.649 5.604,16.126 4.259 C 14.847 3.128,13.229 2.520,11.500 2.520 C 10.075 2.520,8.784 2.909,7.609 3.692 C 6.184 4.643,5.183 6.054,4.724 7.760 C 4.440 8.815,4.440 10.185,4.724 11.240 C 4.949 12.075,5.372 12.990,5.794 13.553 L 5.894 13.685 3.868 15.713 C 1.665 17.919,1.674 17.907,1.674 18.346 C 1.674 18.894,2.110 19.326,2.663 19.326 C 3.046 19.326,3.185 19.231,4.040 18.380 L 4.820 17.603 5.080 17.807 C 6.301 18.766,7.883 19.487,9.440 19.795 C 9.822 19.870,10.111 19.911,10.770 19.981 L 11.000 20.006 11.000 20.503 L 11.000 21.000 8.946 21.000 C 6.717 21.000,6.666 21.004,6.382 21.221 C 6.302 21.282,6.187 21.415,6.128 21.516 C 6.037 21.672,6.020 21.746,6.020 22.000 C 6.020 22.256,6.036 22.328,6.131 22.489 C 6.256 22.702,6.449 22.864,6.670 22.943 C 6.892 23.022,17.108 23.022,17.330 22.943 C 17.551 22.864,17.744 22.702,17.869 22.489 C 17.964 22.328,17.980 22.256,17.980 22.000 C 17.980 21.746,17.963 21.672,17.872 21.516 C 17.813 21.415,17.698 21.282,17.618 21.221 C 17.334 21.004,17.283 21.000,15.054 21.000 L 13.000 21.000 13.000 20.450 L 13.000 19.900 13.476 19.810 C 15.526 19.423,17.422 18.416,18.919 16.919 C 20.548 15.290,21.547 13.289,21.907 10.932 C 22.004 10.304,22.003 8.703,21.907 8.080 C 21.599 6.085,20.873 4.401,19.691 2.940 C 19.216 2.354,18.837 1.973,18.636 1.881 C 18.375 1.763,18.031 1.772,17.764 1.905 M12.640 4.638 C 14.252 5.041,15.506 6.112,16.115 7.604 C 16.396 8.293,16.458 8.634,16.458 9.500 C 16.458 10.367,16.397 10.707,16.114 11.400 C 15.665 12.499,14.788 13.445,13.720 13.982 C 13.394 14.145,12.757 14.353,12.365 14.423 C 11.913 14.504,11.081 14.503,10.620 14.421 C 8.933 14.120,7.484 12.933,6.860 11.342 C 6.599 10.678,6.542 10.347,6.542 9.500 C 6.542 8.837,6.554 8.692,6.635 8.366 C 6.883 7.372,7.352 6.555,8.064 5.879 C 8.710 5.265,9.490 4.845,10.360 4.643 C 10.859 4.528,10.880 4.526,11.620 4.540 C 12.149 4.550,12.376 4.571,12.640 4.638 " stroke="none" fill-rule="evenodd" fill="black"></path></svg>