<svg width="24" height="24" viewBox="0 0 24 24" fill="none" xmlns="http://www.w3.org/2000/svg"><path d="M11.280 1.023 C 11.203 1.032,10.951 1.059,10.720 1.083 C 9.527 1.210,8.337 1.558,7.180 2.120 C 6.045 2.671,5.193 3.285,4.238 4.239 C 3.277 5.198,2.643 6.080,2.097 7.220 C 0.301 10.968,0.728 15.286,3.226 18.633 C 3.701 19.269,4.753 20.316,5.400 20.797 C 9.364 23.745,14.666 23.734,18.637 20.770 C 19.246 20.316,20.316 19.246,20.770 18.637 C 23.744 14.652,23.744 9.348,20.770 5.363 C 20.316 4.755,19.247 3.686,18.640 3.235 C 17.045 2.049,15.365 1.360,13.423 1.096 C 13.000 1.038,11.574 0.990,11.280 1.023 M13.320 3.101 C 15.742 3.467,17.913 4.797,19.337 6.790 L 19.488 7.000 15.662 7.000 C 11.734 7.000,11.343 7.013,10.760 7.162 C 9.389 7.512,8.090 8.561,7.533 9.768 C 7.474 9.896,7.416 10.000,7.403 9.999 C 7.385 9.999,5.209 6.262,5.169 6.161 C 5.149 6.111,5.972 5.305,6.360 4.994 C 7.658 3.954,9.238 3.280,10.840 3.083 C 11.431 3.010,11.485 3.007,12.200 3.023 C 12.585 3.031,13.089 3.066,13.320 3.101 M5.879 11.400 C 6.940 13.237,7.906 14.870,8.027 15.029 C 8.606 15.790,9.481 16.418,10.400 16.732 C 10.949 16.919,11.331 16.979,11.983 16.980 L 12.586 16.980 12.457 17.200 C 12.387 17.321,11.894 18.176,11.362 19.100 C 10.829 20.024,10.379 20.796,10.360 20.815 C 10.312 20.864,9.797 20.743,9.140 20.529 C 8.513 20.324,7.576 19.870,7.040 19.511 C 5.157 18.249,3.791 16.312,3.267 14.160 C 3.081 13.397,3.023 12.888,3.023 12.000 C 3.023 10.850,3.166 9.987,3.519 9.000 C 3.681 8.546,3.912 8.017,3.936 8.044 C 3.944 8.053,4.818 9.563,5.879 11.400 M12.861 9.129 C 13.805 9.405,14.597 10.197,14.870 11.137 C 15.336 12.746,14.448 14.385,12.840 14.886 C 12.406 15.021,11.594 15.021,11.160 14.886 C 10.169 14.578,9.392 13.793,9.114 12.820 C 8.981 12.357,8.987 11.596,9.125 11.139 C 9.455 10.055,10.371 9.245,11.499 9.040 C 11.832 8.980,12.500 9.023,12.861 9.129 M20.565 9.234 C 20.843 10.050,20.977 10.952,20.977 12.000 C 20.977 13.493,20.720 14.621,20.080 15.940 C 19.375 17.394,18.311 18.607,16.927 19.532 C 16.092 20.090,14.818 20.612,13.791 20.817 C 13.359 20.903,12.600 21.003,12.600 20.973 C 12.600 20.967,13.439 19.508,14.464 17.731 C 15.490 15.954,16.396 14.365,16.479 14.200 C 16.839 13.483,16.980 12.862,16.980 12.000 C 16.980 11.330,16.922 10.957,16.732 10.400 C 16.605 10.029,16.361 9.534,16.155 9.230 L 15.999 8.999 18.246 9.010 L 20.492 9.020 20.565 9.234 " stroke="none" fill-rule="evenodd" fill="black"></path></svg>