<svg width="24" height="24" viewBox="0 0 24 24" fill="none" xmlns="http://www.w3.org/2000/svg"><path d="M11.560 2.636 C 11.172 2.762,1.497 7.625,1.325 7.780 C 0.897 8.167,0.904 8.852,1.341 9.236 C 1.421 9.306,2.052 9.646,2.743 9.992 L 4.000 10.619 4.000 13.540 C 4.000 15.376,4.016 16.556,4.042 16.720 C 4.127 17.247,4.430 17.721,4.868 18.011 C 5.233 18.253,11.177 21.219,11.469 21.305 C 11.765 21.392,12.236 21.392,12.532 21.305 C 12.880 21.203,18.933 18.165,19.221 17.948 C 19.615 17.651,19.878 17.213,19.958 16.720 C 19.984 16.556,20.000 15.376,20.000 13.540 L 20.000 10.619 21.283 9.980 C 22.676 9.285,22.796 9.202,22.939 8.827 C 23.075 8.473,22.957 8.026,22.659 7.765 C 22.487 7.613,12.719 2.719,12.401 2.624 C 12.124 2.542,11.837 2.546,11.560 2.636 M15.882 6.561 C 17.995 7.617,19.715 8.495,19.705 8.511 C 19.695 8.527,17.957 9.404,15.843 10.460 L 12.000 12.380 8.157 10.460 C 6.043 9.404,4.305 8.527,4.295 8.511 C 4.276 8.481,11.903 4.646,11.990 4.642 C 12.018 4.641,13.769 5.504,15.882 6.561 M8.690 12.965 C 10.148 13.694,11.437 14.324,11.556 14.365 C 11.675 14.406,11.875 14.440,12.000 14.440 C 12.125 14.440,12.325 14.406,12.444 14.365 C 12.563 14.324,13.852 13.694,15.310 12.965 C 16.767 12.236,17.969 11.640,17.980 11.640 C 17.991 11.640,18.000 12.707,18.000 14.010 L 18.000 16.380 15.000 17.880 L 12.000 19.380 9.000 17.880 L 6.000 16.380 6.000 14.010 C 6.000 12.707,6.009 11.640,6.020 11.640 C 6.031 11.640,7.233 12.236,8.690 12.965 " stroke="none" fill-rule="evenodd" fill="black"></path></svg>