<svg width="24" height="24" viewBox="0 0 24 24" fill="none" xmlns="http://www.w3.org/2000/svg"><path d="M11.560 2.636 C 11.172 2.762,1.497 7.625,1.325 7.780 C 1.239 7.857,1.129 8.014,1.080 8.129 C 0.919 8.502,1.027 8.960,1.340 9.235 C 1.420 9.305,1.826 9.533,2.243 9.741 L 3.000 10.120 3.001 13.490 C 3.001 17.146,3.003 17.171,3.222 17.603 C 3.367 17.889,3.725 18.256,4.019 18.421 C 4.398 18.632,11.108 21.696,11.420 21.801 C 11.798 21.927,12.202 21.927,12.580 21.801 C 12.892 21.696,19.602 18.632,19.981 18.421 C 20.275 18.256,20.633 17.889,20.778 17.603 C 20.997 17.171,20.999 17.146,20.999 13.490 L 21.000 10.120 21.792 9.724 C 22.653 9.293,22.808 9.172,22.940 8.826 C 23.075 8.473,22.956 8.026,22.659 7.765 C 22.487 7.613,12.719 2.719,12.401 2.624 C 12.124 2.542,11.837 2.546,11.560 2.636 M15.880 6.560 C 17.992 7.616,19.720 8.489,19.720 8.500 C 19.720 8.511,19.108 8.826,18.361 9.200 L 17.001 9.880 14.638 8.700 C 12.290 7.527,12.273 7.520,12.022 7.520 C 11.724 7.520,11.535 7.591,11.324 7.781 C 10.897 8.167,10.905 8.852,11.341 9.236 C 11.421 9.306,12.214 9.727,13.103 10.172 C 13.993 10.616,14.720 10.989,14.720 11.000 C 14.720 11.012,14.108 11.327,13.360 11.700 L 11.999 12.379 8.157 10.460 C 6.043 9.404,4.305 8.527,4.295 8.511 C 4.276 8.481,11.903 4.646,11.990 4.642 C 12.018 4.641,13.768 5.504,15.880 6.560 M11.556 14.365 C 11.832 14.460,12.168 14.460,12.444 14.365 C 12.563 14.324,13.402 13.919,14.310 13.465 C 15.217 13.011,15.969 12.640,15.980 12.640 C 15.991 12.640,16.000 13.103,16.000 13.670 C 16.001 14.670,16.004 14.706,16.095 14.900 C 16.276 15.281,16.595 15.488,17.000 15.488 C 17.405 15.488,17.724 15.281,17.905 14.900 C 17.999 14.700,17.999 14.696,18.000 13.159 L 18.000 11.619 18.500 11.369 L 19.000 11.120 19.000 13.900 L 19.000 16.679 18.810 16.774 C 18.385 16.987,12.043 19.880,12.000 19.880 C 11.957 19.880,5.615 16.987,5.190 16.774 L 5.000 16.679 5.000 13.899 L 5.000 11.120 8.170 12.705 C 9.914 13.577,11.437 14.324,11.556 14.365 " stroke="none" fill-rule="evenodd" fill="black"></path></svg>