<svg width="24" height="24" viewBox="0 0 24 24" fill="none" xmlns="http://www.w3.org/2000/svg"><path d="M3.686 2.040 C 2.869 2.163,2.233 2.765,2.061 3.581 C 1.973 3.993,1.973 9.007,2.061 9.419 C 2.147 9.827,2.298 10.104,2.597 10.403 C 2.896 10.702,3.173 10.853,3.581 10.939 C 3.993 11.027,9.007 11.027,9.419 10.940 C 9.818 10.855,10.102 10.699,10.401 10.401 C 10.699 10.102,10.855 9.818,10.940 9.419 C 11.027 9.007,11.027 3.993,10.940 3.581 C 10.792 2.885,10.328 2.363,9.635 2.112 L 9.380 2.020 6.640 2.014 C 5.133 2.011,3.804 2.022,3.686 2.040 M14.686 2.040 C 13.869 2.163,13.233 2.765,13.061 3.581 C 12.973 3.993,12.973 9.007,13.061 9.419 C 13.147 9.827,13.298 10.104,13.597 10.403 C 13.896 10.702,14.173 10.853,14.581 10.939 C 14.993 11.027,20.007 11.027,20.419 10.940 C 20.818 10.855,21.102 10.699,21.401 10.401 C 21.699 10.102,21.855 9.818,21.940 9.419 C 22.027 9.007,22.027 3.993,21.939 3.581 C 21.791 2.881,21.332 2.364,20.635 2.112 L 20.380 2.020 17.640 2.014 C 16.133 2.011,14.804 2.022,14.686 2.040 M9.000 6.500 L 9.000 9.000 6.500 9.000 L 4.000 9.000 4.000 6.500 L 4.000 4.000 6.500 4.000 L 9.000 4.000 9.000 6.500 M20.000 6.500 L 20.000 9.000 17.500 9.000 L 15.000 9.000 15.000 6.500 L 15.000 4.000 17.500 4.000 L 20.000 4.000 20.000 6.500 M3.686 13.040 C 2.869 13.163,2.233 13.765,2.061 14.581 C 1.973 14.993,1.973 20.007,2.061 20.419 C 2.147 20.827,2.298 21.104,2.597 21.403 C 2.896 21.702,3.173 21.853,3.581 21.939 C 3.993 22.027,9.007 22.027,9.419 21.940 C 9.817 21.855,10.101 21.700,10.403 21.401 C 10.702 21.104,10.853 20.829,10.939 20.419 C 11.027 20.007,11.027 14.993,10.940 14.581 C 10.792 13.885,10.328 13.363,9.635 13.112 L 9.380 13.020 6.640 13.014 C 5.133 13.011,3.804 13.022,3.686 13.040 M14.686 13.040 C 13.869 13.163,13.233 13.765,13.061 14.581 C 12.973 14.993,12.973 20.007,13.061 20.419 C 13.147 20.827,13.298 21.104,13.597 21.403 C 13.896 21.702,14.173 21.853,14.581 21.939 C 14.993 22.027,20.007 22.027,20.419 21.940 C 20.818 21.855,21.102 21.699,21.401 21.401 C 21.699 21.102,21.855 20.818,21.940 20.419 C 22.027 20.007,22.027 14.993,21.940 14.581 C 21.792 13.885,21.328 13.363,20.635 13.112 L 20.380 13.020 17.640 13.014 C 16.133 13.011,14.804 13.022,14.686 13.040 M9.000 17.500 L 9.000 20.000 6.500 20.000 L 4.000 20.000 4.000 17.500 L 4.000 15.000 6.500 15.000 L 9.000 15.000 9.000 17.500 M20.000 17.500 L 20.000 20.000 17.500 20.000 L 15.000 20.000 15.000 17.500 L 15.000 15.000 17.500 15.000 L 20.000 15.000 20.000 17.500 " stroke="none" fill-rule="evenodd" fill="black"></path></svg>