<svg width="24" height="24" viewBox="0 0 24 24" fill="none" xmlns="http://www.w3.org/2000/svg"><path d="M2.695 2.055 C 2.464 2.130,2.255 2.300,2.128 2.516 C 2.037 2.672,2.020 2.746,2.020 3.000 C 2.020 3.257,2.036 3.327,2.133 3.492 C 2.651 4.374,3.998 4.018,3.998 3.000 C 3.998 2.623,3.792 2.281,3.463 2.112 C 3.265 2.010,2.911 1.984,2.695 2.055 M7.240 2.035 C 6.785 2.184,6.512 2.547,6.512 3.000 C 6.512 3.405,6.719 3.724,7.100 3.905 C 7.583 4.133,8.146 3.926,8.412 3.423 C 8.529 3.199,8.530 2.802,8.413 2.579 C 8.305 2.375,8.143 2.213,7.943 2.112 C 7.771 2.024,7.398 1.983,7.240 2.035 M11.695 2.055 C 11.464 2.130,11.255 2.300,11.128 2.516 C 11.037 2.672,11.020 2.746,11.020 3.000 C 11.020 3.257,11.036 3.327,11.133 3.492 C 11.651 4.374,12.998 4.018,12.998 3.000 C 12.998 2.623,12.792 2.281,12.463 2.112 C 12.265 2.010,11.911 1.984,11.695 2.055 M16.240 2.035 C 15.785 2.184,15.512 2.547,15.512 3.000 C 15.512 3.405,15.719 3.724,16.100 3.905 C 16.583 4.133,17.146 3.926,17.412 3.423 C 17.529 3.199,17.530 2.802,17.413 2.579 C 17.305 2.375,17.143 2.213,16.943 2.112 C 16.771 2.024,16.398 1.983,16.240 2.035 M20.695 2.057 C 20.466 2.129,20.256 2.299,20.128 2.516 L 20.020 2.700 20.020 12.003 L 20.020 21.306 20.141 21.503 C 20.543 22.156,21.457 22.156,21.859 21.503 L 21.980 21.306 21.980 12.003 L 21.980 2.700 21.872 2.516 C 21.628 2.101,21.150 1.915,20.695 2.057 M2.600 6.584 C 2.267 6.728,2.001 7.135,2.001 7.500 C 2.001 7.745,2.136 8.049,2.325 8.228 C 2.704 8.587,3.339 8.575,3.712 8.202 C 3.898 8.015,3.968 7.859,3.991 7.572 C 4.025 7.144,3.808 6.771,3.423 6.596 C 3.222 6.504,2.798 6.498,2.600 6.584 M11.600 6.584 C 11.267 6.728,11.001 7.135,11.001 7.500 C 11.001 7.745,11.136 8.049,11.325 8.228 C 11.704 8.587,12.339 8.575,12.712 8.202 C 12.898 8.015,12.968 7.859,12.991 7.572 C 13.025 7.144,12.808 6.771,12.423 6.596 C 12.222 6.504,11.798 6.498,11.600 6.584 M2.695 11.055 C 2.464 11.130,2.255 11.300,2.128 11.516 C 2.037 11.672,2.020 11.746,2.020 12.000 C 2.020 12.257,2.036 12.327,2.133 12.492 C 2.651 13.374,3.998 13.018,3.998 12.000 C 3.998 11.623,3.792 11.281,3.463 11.112 C 3.265 11.010,2.911 10.984,2.695 11.055 M7.240 11.035 C 6.785 11.184,6.512 11.547,6.512 12.000 C 6.512 12.405,6.719 12.724,7.100 12.905 C 7.583 13.133,8.146 12.926,8.412 12.423 C 8.529 12.199,8.530 11.802,8.413 11.579 C 8.305 11.375,8.143 11.213,7.943 11.112 C 7.771 11.024,7.398 10.983,7.240 11.035 M11.695 11.055 C 11.464 11.130,11.255 11.300,11.128 11.516 C 11.037 11.672,11.020 11.746,11.020 12.000 C 11.020 12.257,11.036 12.327,11.133 12.492 C 11.651 13.374,12.998 13.018,12.998 12.000 C 12.998 11.623,12.792 11.281,12.463 11.112 C 12.265 11.010,11.911 10.984,11.695 11.055 M16.240 11.035 C 15.785 11.184,15.512 11.547,15.512 12.000 C 15.512 12.405,15.719 12.724,16.100 12.905 C 16.583 13.133,17.146 12.926,17.412 12.423 C 17.529 12.199,17.530 11.802,17.413 11.579 C 17.305 11.375,17.143 11.213,16.943 11.112 C 16.771 11.024,16.398 10.983,16.240 11.035 M2.600 15.584 C 2.267 15.728,2.001 16.135,2.001 16.500 C 2.001 16.745,2.136 17.049,2.325 17.228 C 2.704 17.587,3.339 17.575,3.712 17.202 C 3.898 17.015,3.968 16.859,3.991 16.572 C 4.025 16.144,3.808 15.771,3.423 15.596 C 3.222 15.504,2.798 15.498,2.600 15.584 M11.600 15.584 C 11.267 15.728,11.001 16.135,11.001 16.500 C 11.001 16.745,11.136 17.049,11.325 17.228 C 11.704 17.587,12.339 17.575,12.712 17.202 C 12.898 17.015,12.968 16.859,12.991 16.572 C 13.025 16.144,12.808 15.771,12.423 15.596 C 12.222 15.504,11.798 15.498,11.600 15.584 M2.695 20.055 C 2.464 20.130,2.255 20.300,2.128 20.516 C 2.037 20.672,2.020 20.746,2.020 21.000 C 2.020 21.257,2.036 21.327,2.133 21.492 C 2.651 22.374,3.998 22.018,3.998 21.000 C 3.998 20.623,3.792 20.281,3.463 20.112 C 3.265 20.010,2.911 19.984,2.695 20.055 M7.240 20.035 C 6.785 20.184,6.512 20.547,6.512 21.000 C 6.512 21.405,6.719 21.724,7.100 21.905 C 7.583 22.133,8.146 21.926,8.412 21.423 C 8.529 21.199,8.530 20.802,8.413 20.579 C 8.305 20.375,8.143 20.213,7.943 20.112 C 7.771 20.024,7.398 19.983,7.240 20.035 M11.695 20.055 C 11.464 20.130,11.255 20.300,11.128 20.516 C 11.037 20.672,11.020 20.746,11.020 21.000 C 11.020 21.257,11.036 21.327,11.133 21.492 C 11.651 22.374,12.998 22.018,12.998 21.000 C 12.998 20.623,12.792 20.281,12.463 20.112 C 12.265 20.010,11.911 19.984,11.695 20.055 M16.240 20.035 C 15.785 20.184,15.512 20.547,15.512 21.000 C 15.512 21.405,15.719 21.724,16.100 21.905 C 16.583 22.133,17.146 21.926,17.412 21.423 C 17.529 21.199,17.530 20.802,17.413 20.579 C 17.305 20.375,17.143 20.213,16.943 20.112 C 16.771 20.024,16.398 19.983,16.240 20.035 " stroke="none" fill-rule="evenodd" fill="black"></path></svg>