<svg width="24" height="24" viewBox="0 0 24 24" fill="none" xmlns="http://www.w3.org/2000/svg"><path d="M4.749 2.045 C 3.967 2.120,3.402 2.371,2.890 2.870 C 2.491 3.260,2.236 3.731,2.094 4.340 C 2.028 4.627,2.020 4.847,2.020 6.483 L 2.020 8.306 2.141 8.503 C 2.543 9.156,3.457 9.156,3.859 8.503 L 3.980 8.306 4.005 6.543 C 4.021 5.341,4.045 4.731,4.078 4.626 C 4.140 4.428,4.428 4.140,4.626 4.078 C 4.731 4.045,5.340 4.021,6.540 4.005 L 8.300 3.980 8.492 3.867 C 9.248 3.423,9.123 2.306,8.290 2.055 C 8.148 2.012,7.775 2.001,6.604 2.005 C 5.777 2.008,4.942 2.026,4.749 2.045 M15.695 2.057 C 15.051 2.258,14.799 3.040,15.198 3.591 C 15.263 3.681,15.403 3.805,15.508 3.867 L 15.700 3.980 17.460 4.005 C 18.660 4.021,19.269 4.045,19.374 4.078 C 19.572 4.140,19.860 4.428,19.922 4.626 C 19.955 4.731,19.979 5.341,19.995 6.543 L 20.020 8.306 20.141 8.503 C 20.543 9.156,21.457 9.156,21.859 8.503 L 21.980 8.306 21.980 6.483 C 21.980 4.847,21.972 4.627,21.906 4.340 C 21.688 3.404,21.167 2.737,20.329 2.321 C 19.794 2.056,19.254 1.999,17.300 2.003 C 16.241 2.005,15.816 2.019,15.695 2.057 M11.695 6.057 C 11.466 6.129,11.256 6.299,11.128 6.516 L 11.020 6.700 11.009 8.850 L 10.997 11.000 8.945 11.000 C 6.718 11.000,6.666 11.004,6.382 11.221 C 6.302 11.282,6.187 11.415,6.128 11.516 C 6.037 11.672,6.020 11.746,6.020 12.000 C 6.020 12.256,6.036 12.328,6.131 12.489 C 6.256 12.702,6.449 12.864,6.670 12.943 C 6.788 12.985,7.269 12.997,8.909 12.998 L 10.997 13.000 11.009 15.153 L 11.020 17.306 11.141 17.503 C 11.543 18.156,12.457 18.156,12.859 17.503 L 12.980 17.306 12.991 15.153 L 13.003 13.000 15.091 12.998 C 16.731 12.997,17.212 12.985,17.330 12.943 C 17.551 12.864,17.744 12.702,17.869 12.489 C 17.964 12.328,17.980 12.256,17.980 12.000 C 17.980 11.746,17.963 11.672,17.872 11.516 C 17.813 11.415,17.698 11.282,17.618 11.221 C 17.334 11.004,17.282 11.000,15.055 11.000 L 13.003 11.000 12.991 8.850 L 12.980 6.700 12.872 6.516 C 12.628 6.101,12.150 5.915,11.695 6.057 M2.695 15.057 C 2.466 15.129,2.256 15.299,2.128 15.516 L 2.020 15.700 2.020 17.540 C 2.020 19.318,2.023 19.392,2.111 19.735 C 2.225 20.184,2.379 20.505,2.650 20.858 C 3.033 21.356,3.591 21.717,4.244 21.885 C 4.558 21.966,4.696 21.973,6.343 21.989 C 7.537 22.001,8.157 21.993,8.267 21.964 C 8.498 21.901,8.737 21.713,8.867 21.492 C 8.964 21.327,8.980 21.257,8.980 21.000 C 8.980 20.746,8.963 20.672,8.872 20.516 C 8.761 20.327,8.570 20.157,8.373 20.071 C 8.292 20.036,7.759 20.016,6.500 20.001 C 4.756 19.980,4.738 19.979,4.550 19.886 C 4.333 19.780,4.139 19.565,4.074 19.360 C 4.046 19.271,4.020 18.573,4.005 17.460 L 3.980 15.700 3.872 15.516 C 3.628 15.101,3.150 14.915,2.695 15.057 M20.695 15.057 C 20.466 15.129,20.256 15.299,20.128 15.516 L 20.020 15.700 19.995 17.460 C 19.980 18.573,19.954 19.271,19.926 19.360 C 19.861 19.565,19.667 19.780,19.450 19.886 C 19.262 19.979,19.244 19.980,17.500 20.001 C 16.241 20.016,15.708 20.036,15.627 20.071 C 15.430 20.157,15.239 20.327,15.128 20.516 C 15.037 20.672,15.020 20.746,15.020 21.000 C 15.020 21.257,15.036 21.327,15.133 21.492 C 15.263 21.713,15.502 21.901,15.733 21.964 C 15.843 21.993,16.463 22.001,17.657 21.989 C 19.279 21.973,19.446 21.965,19.740 21.889 C 20.152 21.782,20.384 21.681,20.679 21.481 C 21.323 21.044,21.722 20.451,21.906 19.660 C 21.972 19.373,21.980 19.153,21.980 17.520 L 21.980 15.700 21.872 15.516 C 21.628 15.101,21.150 14.915,20.695 15.057 " stroke="none" fill-rule="evenodd" fill="black"></path></svg>