<svg width="24" height="24" viewBox="0 0 24 24" fill="none" xmlns="http://www.w3.org/2000/svg"><path d="M5.920 2.041 C 5.151 2.092,4.672 2.205,4.180 2.451 C 3.089 2.996,2.357 3.961,2.124 5.160 C 2.013 5.729,2.000 6.455,2.000 12.000 C 2.000 18.358,2.006 18.526,2.245 19.320 C 2.577 20.422,3.578 21.423,4.680 21.755 C 5.474 21.994,5.642 22.000,12.000 22.000 C 18.358 22.000,18.526 21.994,19.320 21.755 C 20.422 21.423,21.423 20.422,21.755 19.320 C 21.994 18.526,22.000 18.358,22.000 12.000 C 22.000 5.642,21.994 5.474,21.755 4.680 C 21.424 3.581,20.465 2.622,19.320 2.246 C 18.644 2.024,18.800 2.029,12.340 2.019 C 9.062 2.014,6.173 2.024,5.920 2.041 M18.492 4.091 C 18.894 4.188,19.109 4.309,19.400 4.600 C 19.696 4.895,19.814 5.109,19.912 5.528 C 19.975 5.797,19.980 6.313,19.980 12.000 C 19.980 17.687,19.975 18.203,19.912 18.472 C 19.814 18.891,19.696 19.104,19.400 19.401 C 19.101 19.701,18.820 19.851,18.418 19.928 C 18.010 20.005,5.990 20.005,5.582 19.927 C 5.170 19.850,4.898 19.704,4.600 19.403 C 4.303 19.104,4.186 18.890,4.088 18.472 C 4.025 18.203,4.020 17.687,4.020 12.000 C 4.020 6.313,4.025 5.797,4.088 5.528 C 4.175 5.155,4.294 4.918,4.520 4.667 C 4.883 4.262,5.282 4.091,5.980 4.039 C 6.200 4.023,9.044 4.013,12.300 4.018 C 17.643 4.024,18.247 4.032,18.492 4.091 M11.600 6.584 C 11.267 6.728,11.001 7.135,11.001 7.500 C 11.001 7.745,11.136 8.049,11.325 8.228 C 11.704 8.587,12.339 8.575,12.712 8.202 C 12.898 8.015,12.968 7.859,12.991 7.572 C 13.025 7.144,12.808 6.771,12.423 6.596 C 12.222 6.504,11.798 6.498,11.600 6.584 M7.240 11.035 C 6.785 11.184,6.512 11.547,6.512 12.000 C 6.512 12.405,6.719 12.724,7.100 12.905 C 7.583 13.133,8.146 12.926,8.412 12.423 C 8.529 12.199,8.530 11.802,8.413 11.579 C 8.305 11.375,8.143 11.213,7.943 11.112 C 7.771 11.024,7.398 10.983,7.240 11.035 M11.695 11.055 C 11.464 11.130,11.255 11.300,11.128 11.516 C 11.037 11.672,11.020 11.746,11.020 12.000 C 11.020 12.257,11.036 12.327,11.133 12.492 C 11.651 13.374,12.998 13.018,12.998 12.000 C 12.998 11.623,12.792 11.281,12.463 11.112 C 12.265 11.010,11.911 10.984,11.695 11.055 M16.240 11.035 C 15.785 11.184,15.512 11.547,15.512 12.000 C 15.512 12.405,15.719 12.724,16.100 12.905 C 16.583 13.133,17.146 12.926,17.412 12.423 C 17.529 12.199,17.530 11.802,17.413 11.579 C 17.305 11.375,17.143 11.213,16.943 11.112 C 16.771 11.024,16.398 10.983,16.240 11.035 M11.600 15.584 C 11.267 15.728,11.001 16.135,11.001 16.500 C 11.001 16.745,11.136 17.049,11.325 17.228 C 11.704 17.587,12.339 17.575,12.712 17.202 C 12.898 17.015,12.968 16.859,12.991 16.572 C 13.025 16.144,12.808 15.771,12.423 15.596 C 12.222 15.504,11.798 15.498,11.600 15.584 " stroke="none" fill-rule="evenodd" fill="black"></path></svg>