<svg width="24" height="24" viewBox="0 0 24 24" fill="none" xmlns="http://www.w3.org/2000/svg"><path d="M11.420 1.063 C 10.787 1.187,10.101 1.661,9.718 2.238 C 9.664 2.319,9.644 2.325,9.566 2.283 C 9.427 2.209,8.902 2.120,8.600 2.120 C 7.563 2.120,6.623 2.700,6.167 3.620 C 5.906 4.146,5.909 4.118,5.891 6.583 L 5.874 8.826 5.347 8.809 C 4.706 8.788,4.413 8.847,3.945 9.090 C 3.710 9.211,3.530 9.347,3.296 9.579 C 2.924 9.948,2.728 10.271,2.592 10.740 C 2.502 11.053,2.500 11.099,2.503 12.740 C 2.506 14.252,2.515 14.476,2.593 14.982 C 3.259 19.311,6.731 22.545,11.160 22.963 C 11.756 23.020,12.799 22.990,13.400 22.900 C 16.194 22.480,18.664 20.863,20.129 18.495 C 20.768 17.461,21.209 16.252,21.409 14.982 C 21.495 14.435,21.498 14.329,21.499 11.080 C 21.500 7.360,21.512 7.531,21.222 6.940 C 20.892 6.265,20.168 5.687,19.440 5.517 C 19.196 5.459,18.549 5.444,18.296 5.489 L 18.132 5.519 18.107 4.929 C 18.079 4.286,18.017 3.990,17.833 3.620 C 17.377 2.700,16.437 2.120,15.400 2.120 C 15.098 2.120,14.573 2.209,14.434 2.283 C 14.356 2.325,14.336 2.319,14.282 2.238 C 13.658 1.298,12.546 0.841,11.420 1.063 M12.319 3.090 C 12.416 3.139,12.532 3.231,12.578 3.293 C 12.659 3.405,12.660 3.448,12.680 7.253 C 12.700 11.053,12.701 11.102,12.784 11.280 C 12.876 11.477,13.073 11.690,13.260 11.793 C 13.426 11.884,13.974 11.884,14.140 11.793 C 14.327 11.690,14.524 11.477,14.616 11.280 C 14.699 11.103,14.700 11.044,14.720 7.813 C 14.740 4.571,14.741 4.524,14.822 4.415 C 14.986 4.197,15.104 4.140,15.396 4.140 C 15.630 4.140,15.686 4.155,15.813 4.252 C 15.893 4.313,15.982 4.403,16.009 4.452 C 16.049 4.520,16.065 5.281,16.080 7.820 C 16.100 11.044,16.101 11.103,16.184 11.280 C 16.276 11.477,16.473 11.690,16.660 11.793 C 16.826 11.884,17.374 11.884,17.540 11.793 C 17.727 11.690,17.924 11.477,18.016 11.280 C 18.096 11.109,18.101 11.018,18.120 9.478 C 18.142 7.670,18.131 7.738,18.428 7.555 C 18.650 7.418,18.972 7.424,19.193 7.570 C 19.504 7.777,19.485 7.520,19.469 11.291 C 19.455 14.554,19.452 14.672,19.369 15.052 C 18.906 17.177,17.630 18.934,15.785 19.988 C 14.565 20.685,13.442 20.979,12.000 20.979 C 11.113 20.979,10.631 20.916,9.878 20.699 C 7.501 20.016,5.526 18.099,4.822 15.792 C 4.564 14.943,4.550 14.809,4.531 12.960 L 4.514 11.260 4.608 11.121 C 4.760 10.896,4.936 10.800,5.200 10.800 C 5.462 10.800,5.640 10.896,5.789 11.117 C 5.880 11.251,5.880 11.259,5.880 12.724 C 5.880 14.320,5.899 14.516,6.082 14.783 C 6.579 15.507,7.690 15.275,7.875 14.408 C 7.907 14.257,7.920 12.813,7.920 9.384 L 7.920 4.572 8.010 4.440 C 8.171 4.203,8.294 4.140,8.596 4.140 C 8.830 4.140,8.886 4.155,9.013 4.252 C 9.093 4.313,9.182 4.403,9.209 4.452 C 9.249 4.520,9.265 5.281,9.280 7.820 C 9.300 11.044,9.301 11.103,9.384 11.280 C 9.476 11.477,9.673 11.690,9.860 11.793 C 10.026 11.884,10.574 11.884,10.740 11.793 C 10.927 11.690,11.124 11.477,11.216 11.280 C 11.299 11.102,11.300 11.053,11.320 7.253 C 11.340 3.448,11.341 3.405,11.422 3.293 C 11.529 3.147,11.818 3.000,12.000 3.000 C 12.079 3.000,12.222 3.041,12.319 3.090 " stroke="none" fill-rule="evenodd" fill="black"></path></svg>