<svg width="24" height="24" viewBox="0 0 24 24" fill="none" xmlns="http://www.w3.org/2000/svg"><path d="M7.446 3.044 C 6.261 3.150,5.229 3.768,4.553 4.777 C 4.259 5.216,1.323 11.073,1.201 11.464 C 1.012 12.070,1.000 12.246,1.000 14.560 C 1.000 17.118,1.032 17.615,1.245 18.320 C 1.577 19.422,2.578 20.423,3.680 20.755 C 4.485 20.998,4.567 21.000,12.000 21.000 C 19.433 21.000,19.515 20.998,20.320 20.755 C 21.422 20.423,22.423 19.422,22.755 18.320 C 22.967 17.616,23.000 17.117,23.000 14.588 C 23.000 12.323,22.987 12.101,22.815 11.526 C 22.687 11.099,19.792 5.299,19.448 4.780 C 19.159 4.346,18.803 3.980,18.403 3.710 C 17.803 3.303,17.242 3.108,16.480 3.041 C 15.926 2.992,7.996 2.995,7.446 3.044 M16.371 5.038 C 16.962 5.100,17.454 5.388,17.758 5.848 C 17.897 6.060,20.360 10.915,20.360 10.979 C 20.360 10.990,16.598 11.000,12.000 11.000 C 7.402 11.000,3.640 10.990,3.640 10.979 C 3.640 10.915,6.103 6.060,6.242 5.848 C 6.532 5.410,7.049 5.096,7.573 5.041 C 7.991 4.997,15.956 4.995,16.371 5.038 M20.989 15.110 C 20.967 17.370,20.953 17.539,20.752 17.952 C 20.626 18.211,20.190 18.638,19.918 18.768 C 19.463 18.987,19.707 18.980,12.000 18.980 C 4.304 18.980,4.541 18.986,4.082 18.771 C 3.812 18.643,3.377 18.217,3.248 17.952 C 3.047 17.539,3.033 17.370,3.011 15.110 L 2.991 13.000 12.000 13.000 L 21.009 13.000 20.989 15.110 M5.695 15.057 C 5.466 15.129,5.256 15.299,5.128 15.516 C 5.037 15.672,5.020 15.746,5.020 16.000 C 5.020 16.256,5.036 16.328,5.131 16.489 C 5.256 16.702,5.449 16.864,5.670 16.943 C 5.889 17.021,10.111 17.021,10.330 16.943 C 10.551 16.864,10.744 16.702,10.869 16.489 C 10.964 16.328,10.980 16.256,10.980 16.000 C 10.980 15.746,10.963 15.672,10.872 15.516 C 10.740 15.293,10.533 15.128,10.290 15.055 C 10.033 14.978,5.943 14.979,5.695 15.057 " stroke="none" fill-rule="evenodd" fill="black"></path></svg>