<svg width="24" height="24" viewBox="0 0 24 24" fill="none" xmlns="http://www.w3.org/2000/svg"><path d="M7.695 2.057 C 7.466 2.129,7.256 2.299,7.128 2.516 L 7.020 2.700 7.009 4.850 L 6.997 7.000 5.445 7.000 C 3.758 7.000,3.658 7.011,3.382 7.221 C 3.302 7.282,3.187 7.415,3.128 7.516 C 3.037 7.672,3.020 7.746,3.020 8.000 C 3.020 8.256,3.036 8.328,3.131 8.489 C 3.192 8.592,3.304 8.725,3.381 8.783 C 3.654 8.991,3.700 8.996,5.410 8.998 L 7.000 9.000 7.000 12.000 L 7.000 15.000 5.446 15.000 C 3.758 15.000,3.658 15.011,3.382 15.221 C 3.302 15.282,3.187 15.415,3.128 15.516 C 3.037 15.672,3.020 15.746,3.020 16.000 C 3.020 16.256,3.036 16.328,3.131 16.489 C 3.192 16.592,3.304 16.725,3.381 16.783 C 3.654 16.991,3.700 16.996,5.409 16.998 L 6.997 17.000 7.009 19.153 L 7.020 21.306 7.141 21.503 C 7.209 21.613,7.346 21.756,7.452 21.828 C 7.923 22.144,8.554 21.999,8.859 21.503 L 8.980 21.306 8.991 19.153 L 9.003 17.000 12.000 17.000 L 14.997 17.000 15.009 19.153 L 15.020 21.306 15.141 21.503 C 15.543 22.156,16.457 22.156,16.859 21.503 L 16.980 21.306 16.991 19.153 L 17.003 17.000 18.591 16.998 C 20.300 16.996,20.346 16.991,20.619 16.783 C 20.696 16.725,20.808 16.592,20.869 16.489 C 20.964 16.328,20.980 16.256,20.980 16.000 C 20.980 15.746,20.963 15.672,20.872 15.516 C 20.813 15.415,20.698 15.282,20.618 15.221 C 20.342 15.011,20.242 15.000,18.554 15.000 L 17.000 15.000 17.000 12.000 L 17.000 9.000 18.590 8.998 C 20.300 8.996,20.346 8.991,20.619 8.783 C 20.696 8.725,20.808 8.592,20.869 8.489 C 20.964 8.328,20.980 8.256,20.980 8.000 C 20.980 7.746,20.963 7.672,20.872 7.516 C 20.813 7.415,20.698 7.282,20.618 7.221 C 20.342 7.011,20.242 7.000,18.555 7.000 L 17.003 7.000 16.991 4.850 L 16.980 2.700 16.871 2.514 C 16.479 1.848,15.521 1.848,15.129 2.514 L 15.020 2.700 15.009 4.850 L 14.997 7.000 12.000 7.000 L 9.003 7.000 8.991 4.850 L 8.980 2.700 8.872 2.516 C 8.628 2.101,8.150 1.915,7.695 2.057 M15.000 12.000 L 15.000 15.000 12.000 15.000 L 9.000 15.000 9.000 12.000 L 9.000 9.000 12.000 9.000 L 15.000 9.000 15.000 12.000 " stroke="none" fill-rule="evenodd" fill="black"></path></svg>