<svg width="24" height="24" viewBox="0 0 24 24" fill="none" xmlns="http://www.w3.org/2000/svg"><path d="M9.240 2.035 C 8.946 2.131,8.687 2.355,8.586 2.600 C 8.555 2.677,8.369 3.698,8.175 4.869 L 7.821 6.998 5.521 7.009 C 3.249 7.020,3.218 7.021,3.060 7.106 C 2.707 7.297,2.512 7.615,2.512 8.000 C 2.512 8.405,2.719 8.724,3.100 8.905 L 3.300 8.999 5.390 9.000 C 6.540 9.000,7.480 9.009,7.480 9.021 C 7.480 9.057,6.521 14.815,6.500 14.909 L 6.479 14.997 4.350 15.009 C 2.254 15.020,2.217 15.021,2.060 15.106 C 1.707 15.297,1.512 15.615,1.512 16.000 C 1.512 16.405,1.719 16.724,2.100 16.905 L 2.300 16.999 4.231 17.000 L 6.162 17.000 6.141 17.090 C 6.129 17.140,5.977 18.044,5.802 19.100 C 5.529 20.753,5.490 21.046,5.524 21.200 C 5.655 21.784,6.290 22.145,6.826 21.940 C 7.064 21.849,7.313 21.624,7.403 21.420 C 7.441 21.332,7.631 20.302,7.826 19.130 L 8.179 17.000 11.170 17.000 L 14.162 17.000 14.141 17.090 C 14.129 17.140,13.977 18.044,13.802 19.100 C 13.529 20.753,13.490 21.046,13.524 21.200 C 13.655 21.784,14.290 22.145,14.826 21.940 C 15.064 21.849,15.313 21.624,15.403 21.420 C 15.441 21.332,15.631 20.302,15.826 19.130 L 16.179 17.000 17.940 17.000 L 19.700 16.999 19.900 16.905 C 20.281 16.724,20.488 16.405,20.488 16.000 C 20.488 15.615,20.293 15.297,19.940 15.106 C 19.785 15.022,19.733 15.020,18.150 15.008 C 17.253 15.002,16.520 14.988,16.520 14.977 C 16.520 14.942,17.480 9.182,17.501 9.090 L 17.522 9.000 19.111 9.000 C 20.699 8.999,20.700 8.999,20.900 8.905 C 21.281 8.724,21.488 8.405,21.488 8.000 C 21.488 7.615,21.293 7.297,20.940 7.106 C 20.786 7.023,20.729 7.020,19.310 7.008 L 17.839 6.996 17.860 6.908 C 17.871 6.860,18.023 5.956,18.198 4.900 C 18.552 2.758,18.552 2.753,18.305 2.429 C 18.068 2.119,17.745 1.972,17.393 2.013 C 17.048 2.054,16.710 2.300,16.586 2.600 C 16.555 2.677,16.369 3.698,16.175 4.870 L 15.821 7.000 12.830 7.000 L 9.838 7.000 9.859 6.910 C 9.871 6.861,10.023 5.956,10.198 4.900 C 10.471 3.247,10.510 2.954,10.476 2.800 C 10.410 2.505,10.212 2.251,9.943 2.112 C 9.771 2.024,9.399 1.983,9.240 2.035 M15.480 9.021 C 15.480 9.057,14.521 14.815,14.499 14.910 L 14.478 15.000 11.499 15.000 C 9.861 15.000,8.520 14.991,8.520 14.979 C 8.520 14.943,9.479 9.185,9.501 9.090 L 9.522 9.000 12.501 9.000 C 14.139 9.000,15.480 9.009,15.480 9.021 " stroke="none" fill-rule="evenodd" fill="black"></path></svg>