<svg width="24" height="24" viewBox="0 0 24 24" fill="none" xmlns="http://www.w3.org/2000/svg"><path d="M3.695 3.057 C 3.465 3.129,3.256 3.299,3.128 3.516 C 3.037 3.672,3.020 3.746,3.020 4.000 C 3.020 4.256,3.036 4.328,3.131 4.489 C 3.256 4.702,3.449 4.864,3.670 4.943 C 3.768 4.978,4.023 4.997,4.410 4.998 L 5.000 5.000 5.000 12.000 L 5.000 19.000 4.446 19.000 C 3.648 19.000,3.367 19.110,3.128 19.516 C 3.037 19.672,3.020 19.746,3.020 20.000 C 3.020 20.256,3.036 20.328,3.131 20.489 C 3.256 20.702,3.449 20.864,3.670 20.943 C 3.791 20.986,4.572 20.997,7.760 20.998 L 11.700 20.999 11.900 20.905 C 12.281 20.724,12.488 20.405,12.488 20.000 C 12.488 19.615,12.292 19.296,11.940 19.107 C 11.800 19.032,11.702 19.019,11.150 19.007 L 10.520 18.993 10.520 15.996 L 10.520 13.000 13.760 13.000 L 17.000 13.000 17.000 16.000 L 17.000 19.000 16.446 19.000 C 15.648 19.000,15.367 19.110,15.128 19.516 C 15.037 19.672,15.020 19.746,15.020 20.000 C 15.020 20.256,15.036 20.328,15.131 20.489 C 15.256 20.702,15.449 20.864,15.670 20.943 C 15.889 21.021,20.111 21.021,20.330 20.943 C 20.551 20.864,20.744 20.702,20.869 20.489 C 20.964 20.328,20.980 20.256,20.980 20.000 C 20.980 19.746,20.963 19.672,20.872 19.516 C 20.633 19.110,20.352 19.000,19.554 19.000 L 19.000 19.000 19.000 12.000 L 19.000 5.000 19.590 4.998 C 19.977 4.997,20.232 4.978,20.330 4.943 C 20.551 4.864,20.744 4.702,20.869 4.489 C 20.964 4.328,20.980 4.256,20.980 4.000 C 20.980 3.746,20.963 3.672,20.872 3.516 C 20.740 3.293,20.533 3.128,20.290 3.055 C 20.023 2.975,15.977 2.975,15.710 3.055 C 15.467 3.128,15.260 3.293,15.128 3.516 C 15.037 3.672,15.020 3.746,15.020 4.000 C 15.020 4.256,15.036 4.328,15.131 4.489 C 15.256 4.702,15.449 4.864,15.670 4.943 C 15.768 4.978,16.023 4.997,16.410 4.998 L 17.000 5.000 17.000 8.000 L 17.000 11.000 13.760 11.000 L 10.520 11.000 10.520 8.000 L 10.520 5.000 11.110 5.000 C 11.647 4.999,11.718 4.991,11.900 4.905 C 12.281 4.724,12.488 4.405,12.488 4.000 C 12.488 3.615,12.293 3.297,11.940 3.106 L 11.780 3.020 7.820 3.012 C 4.660 3.006,3.827 3.015,3.695 3.057 M8.480 12.000 L 8.480 19.000 7.740 19.000 L 7.000 19.000 7.000 12.000 L 7.000 5.000 7.740 5.000 L 8.480 5.000 8.480 12.000 " stroke="none" fill-rule="evenodd" fill="black"></path></svg>