<svg width="24" height="24" viewBox="0 0 24 24" fill="none" xmlns="http://www.w3.org/2000/svg"><path d="M11.080 2.045 C 9.507 2.184,7.883 2.751,6.540 3.630 C 5.905 4.045,5.499 4.378,4.919 4.958 C 3.250 6.629,2.256 8.757,2.040 11.122 C 2.009 11.465,1.999 12.787,2.008 15.360 L 2.021 19.100 2.131 19.452 C 2.322 20.062,2.563 20.479,2.978 20.915 C 3.906 21.890,5.283 22.236,6.588 21.821 C 7.604 21.498,8.497 20.606,8.820 19.591 C 8.874 19.422,8.936 19.170,8.959 19.031 C 9.012 18.705,9.012 16.295,8.959 15.969 C 8.606 13.795,6.332 12.454,4.297 13.220 C 4.150 13.275,4.024 13.320,4.015 13.320 C 3.982 13.320,4.003 11.672,4.041 11.266 C 4.195 9.641,4.827 8.114,5.848 6.900 C 6.839 5.721,8.096 4.863,9.502 4.403 C 11.478 3.758,13.651 3.908,15.500 4.816 C 18.031 6.060,19.693 8.464,19.959 11.266 C 19.997 11.672,20.018 13.320,19.985 13.320 C 19.976 13.320,19.850 13.275,19.703 13.220 C 18.683 12.836,17.468 12.984,16.546 13.604 C 15.869 14.059,15.390 14.717,15.131 15.548 L 15.021 15.900 15.021 17.500 L 15.021 19.100 15.131 19.452 C 15.321 20.061,15.563 20.478,15.978 20.915 C 16.906 21.890,18.283 22.236,19.588 21.821 C 20.606 21.497,21.497 20.606,21.821 19.588 C 21.875 19.417,21.939 19.155,21.962 19.006 C 21.990 18.827,21.999 17.434,21.990 14.858 C 21.977 11.379,21.968 10.937,21.905 10.560 C 21.596 8.724,20.947 7.223,19.847 5.800 C 19.510 5.365,18.639 4.494,18.200 4.154 C 16.133 2.555,13.646 1.818,11.080 2.045 M6.119 15.143 C 6.415 15.278,6.727 15.592,6.867 15.896 L 6.980 16.140 6.980 17.500 L 6.980 18.860 6.867 19.104 C 6.724 19.413,6.415 19.721,6.100 19.868 C 5.893 19.965,5.810 19.980,5.500 19.980 C 5.190 19.980,5.107 19.965,4.900 19.868 C 4.585 19.721,4.276 19.413,4.133 19.104 L 4.020 18.860 4.020 17.500 L 4.020 16.140 4.132 15.900 C 4.329 15.477,4.750 15.129,5.174 15.039 C 5.441 14.982,5.870 15.030,6.119 15.143 M19.119 15.143 C 19.415 15.278,19.727 15.592,19.867 15.896 L 19.980 16.140 19.980 17.500 L 19.980 18.860 19.867 19.104 C 19.724 19.413,19.415 19.721,19.100 19.868 C 18.893 19.965,18.810 19.980,18.500 19.980 C 18.190 19.980,18.107 19.965,17.900 19.868 C 17.585 19.721,17.276 19.413,17.133 19.104 L 17.020 18.860 17.020 17.500 L 17.020 16.140 17.132 15.900 C 17.329 15.477,17.750 15.129,18.174 15.039 C 18.441 14.982,18.870 15.030,19.119 15.143 " stroke="none" fill-rule="evenodd" fill="black"></path></svg>