<svg width="24" height="24" viewBox="0 0 24 24" fill="none" xmlns="http://www.w3.org/2000/svg"><path d="M3.695 3.057 C 3.466 3.129,3.256 3.299,3.128 3.516 C 3.037 3.672,3.020 3.746,3.020 4.000 C 3.020 4.256,3.036 4.328,3.131 4.489 C 3.256 4.702,3.449 4.864,3.670 4.943 C 3.768 4.978,4.023 4.997,4.410 4.998 L 5.000 5.000 5.000 12.000 L 5.000 19.000 4.446 19.000 C 3.648 19.000,3.367 19.110,3.128 19.516 C 3.037 19.672,3.020 19.746,3.020 20.000 C 3.020 20.256,3.036 20.328,3.131 20.489 C 3.256 20.702,3.449 20.864,3.670 20.943 C 3.889 21.021,8.111 21.021,8.330 20.943 C 8.551 20.864,8.744 20.702,8.869 20.489 C 8.964 20.328,8.980 20.256,8.980 20.000 C 8.980 19.746,8.963 19.672,8.872 19.516 C 8.633 19.110,8.352 19.000,7.554 19.000 L 7.000 19.000 7.000 16.000 L 7.000 13.000 12.000 13.000 L 17.000 13.000 17.000 16.000 L 17.000 19.000 16.446 19.000 C 15.648 19.000,15.367 19.110,15.128 19.516 C 15.037 19.672,15.020 19.746,15.020 20.000 C 15.020 20.256,15.036 20.328,15.131 20.489 C 15.256 20.702,15.449 20.864,15.670 20.943 C 15.889 21.021,20.111 21.021,20.330 20.943 C 20.551 20.864,20.744 20.702,20.869 20.489 C 20.964 20.328,20.980 20.256,20.980 20.000 C 20.980 19.746,20.963 19.672,20.872 19.516 C 20.633 19.110,20.352 19.000,19.554 19.000 L 19.000 19.000 19.000 12.000 L 19.000 5.000 19.590 4.998 C 19.977 4.997,20.232 4.978,20.330 4.943 C 20.551 4.864,20.744 4.702,20.869 4.489 C 20.964 4.328,20.980 4.256,20.980 4.000 C 20.980 3.746,20.963 3.672,20.872 3.516 C 20.740 3.293,20.533 3.128,20.290 3.055 C 20.023 2.975,15.977 2.975,15.710 3.055 C 15.467 3.128,15.260 3.293,15.128 3.516 C 15.037 3.672,15.020 3.746,15.020 4.000 C 15.020 4.256,15.036 4.328,15.131 4.489 C 15.256 4.702,15.449 4.864,15.670 4.943 C 15.768 4.978,16.023 4.997,16.410 4.998 L 17.000 5.000 17.000 8.000 L 17.000 11.000 12.000 11.000 L 7.000 11.000 7.000 8.000 L 7.000 5.000 7.590 4.998 C 7.977 4.997,8.232 4.978,8.330 4.943 C 8.551 4.864,8.744 4.702,8.869 4.489 C 8.964 4.328,8.980 4.256,8.980 4.000 C 8.980 3.746,8.963 3.672,8.872 3.516 C 8.740 3.293,8.533 3.128,8.290 3.055 C 8.033 2.978,3.943 2.979,3.695 3.057 " stroke="none" fill-rule="evenodd" fill="black"></path></svg>