<svg width="24" height="24" viewBox="0 0 24 24" fill="none" xmlns="http://www.w3.org/2000/svg"><path d="M5.920 2.041 C 5.151 2.092,4.672 2.205,4.180 2.451 C 3.089 2.996,2.357 3.961,2.124 5.160 C 2.013 5.729,2.000 6.455,2.000 12.000 C 2.000 18.358,2.006 18.526,2.245 19.320 C 2.577 20.422,3.578 21.423,4.680 21.755 C 5.474 21.994,5.642 22.000,12.000 22.000 C 18.358 22.000,18.526 21.994,19.320 21.755 C 20.422 21.423,21.423 20.422,21.755 19.320 C 21.994 18.526,22.000 18.358,22.000 12.000 C 22.000 5.642,21.994 5.474,21.755 4.680 C 21.424 3.581,20.465 2.622,19.320 2.246 C 18.644 2.024,18.800 2.029,12.340 2.019 C 9.062 2.014,6.173 2.024,5.920 2.041 M18.492 4.091 C 18.894 4.188,19.109 4.309,19.400 4.600 C 19.696 4.895,19.814 5.109,19.912 5.528 C 19.975 5.797,19.980 6.313,19.980 12.000 C 19.980 17.687,19.975 18.203,19.912 18.472 C 19.814 18.891,19.696 19.104,19.400 19.401 C 19.101 19.701,18.820 19.851,18.418 19.928 C 18.010 20.005,5.990 20.005,5.582 19.927 C 5.170 19.850,4.898 19.704,4.600 19.403 C 4.303 19.104,4.186 18.890,4.088 18.472 C 4.025 18.203,4.020 17.687,4.020 12.000 C 4.020 6.313,4.025 5.797,4.088 5.528 C 4.175 5.155,4.294 4.918,4.520 4.667 C 4.883 4.262,5.282 4.091,5.980 4.039 C 6.200 4.023,9.044 4.013,12.300 4.018 C 17.643 4.024,18.247 4.032,18.492 4.091 M9.240 7.047 C 7.834 7.247,6.523 8.468,6.131 9.940 C 6.037 10.293,6.025 10.413,6.026 10.960 C 6.027 11.463,6.043 11.638,6.111 11.887 C 6.325 12.668,6.645 13.206,7.370 14.000 C 8.118 14.821,10.315 16.894,10.831 17.267 C 11.193 17.529,11.574 17.654,12.000 17.652 C 12.531 17.650,12.913 17.494,13.398 17.085 C 14.109 16.484,15.901 14.780,16.493 14.140 C 17.336 13.231,17.649 12.729,17.870 11.931 C 17.965 11.586,17.978 11.469,17.978 10.940 C 17.978 10.408,17.965 10.295,17.867 9.940 C 17.552 8.801,16.804 7.898,15.729 7.360 C 14.704 6.847,13.375 6.906,12.320 7.513 L 11.980 7.709 11.820 7.600 C 11.135 7.133,10.137 6.919,9.240 7.047 M10.180 9.055 C 10.529 9.149,10.764 9.286,11.082 9.584 C 11.493 9.969,11.666 10.058,12.000 10.056 C 12.311 10.054,12.505 9.965,12.740 9.719 C 13.254 9.180,13.851 8.938,14.422 9.037 C 15.373 9.203,16.069 10.122,15.986 11.102 C 15.931 11.760,15.693 12.113,14.503 13.304 C 13.667 14.141,12.060 15.640,11.998 15.640 C 11.947 15.640,10.558 14.359,9.764 13.581 C 8.420 12.262,8.126 11.867,8.030 11.247 C 7.830 9.953,9.018 8.742,10.180 9.055 " stroke="none" fill-rule="evenodd" fill="black"></path></svg>