<svg width="24" height="24" viewBox="0 0 24 24" fill="none" xmlns="http://www.w3.org/2000/svg"><path d="M14.249 1.143 C 13.504 1.306,12.663 1.808,12.198 2.367 C 11.781 2.867,11.462 3.569,11.359 4.211 C 11.287 4.658,11.328 5.293,11.457 5.740 C 11.600 6.232,12.009 7.044,12.668 8.140 C 13.941 10.258,14.283 10.719,14.758 10.959 C 15.238 11.202,15.664 11.255,16.152 11.133 C 16.691 10.999,19.568 9.447,20.540 8.765 C 21.577 8.038,22.125 7.058,22.186 5.820 C 22.262 4.300,21.270 2.794,19.862 2.293 C 19.314 2.098,18.485 2.059,17.893 2.200 L 17.545 2.282 17.362 2.108 C 16.823 1.591,16.255 1.284,15.575 1.140 C 15.236 1.068,14.585 1.069,14.249 1.143 M15.489 3.209 C 15.777 3.342,16.051 3.616,16.273 3.992 C 16.472 4.327,16.669 4.490,16.964 4.561 C 17.249 4.629,17.428 4.588,17.886 4.349 L 18.287 4.140 18.713 4.140 C 19.111 4.140,19.154 4.148,19.354 4.258 C 19.931 4.578,20.274 5.296,20.162 5.950 C 20.013 6.813,19.536 7.187,16.654 8.699 L 15.707 9.195 15.640 9.107 C 15.525 8.959,14.806 7.816,14.351 7.060 C 13.780 6.110,13.409 5.366,13.354 5.060 C 13.237 4.401,13.517 3.743,14.074 3.372 C 14.553 3.053,15.033 2.998,15.489 3.209 M2.686 12.039 C 1.865 12.166,1.233 12.765,1.061 13.581 C 0.972 13.997,0.972 21.003,1.061 21.419 C 1.147 21.827,1.298 22.104,1.597 22.403 C 1.896 22.702,2.173 22.853,2.581 22.939 C 2.978 23.024,5.022 23.024,5.419 22.940 C 6.266 22.760,6.822 22.150,6.978 21.230 L 7.004 21.080 7.812 21.080 C 8.256 21.080,8.767 21.097,8.946 21.118 C 9.126 21.139,9.981 21.327,10.846 21.536 C 11.712 21.745,12.561 21.935,12.733 21.958 C 13.134 22.012,13.686 22.012,14.052 21.957 C 14.793 21.848,17.819 21.229,18.130 21.124 C 18.577 20.972,19.039 20.740,19.428 20.472 C 19.725 20.268,21.816 18.284,22.352 17.699 C 23.044 16.944,23.193 15.860,22.735 14.920 C 22.552 14.544,22.029 14.007,21.653 13.809 C 21.297 13.621,20.862 13.520,20.409 13.520 C 19.678 13.520,19.379 13.652,18.240 14.477 L 17.420 15.071 17.375 14.805 C 17.276 14.233,17.018 13.771,16.570 13.359 C 16.124 12.951,15.865 12.850,14.260 12.460 C 12.687 12.077,12.091 11.980,11.520 12.014 C 10.648 12.065,9.970 12.276,7.975 13.114 C 7.444 13.337,6.992 13.520,6.971 13.520 C 6.950 13.520,6.910 13.444,6.882 13.350 C 6.771 12.973,6.423 12.534,6.053 12.306 C 5.961 12.249,5.772 12.163,5.633 12.114 C 5.395 12.029,5.308 12.024,4.140 12.015 C 3.458 12.010,2.804 12.021,2.686 12.039 M5.000 17.500 L 5.000 21.000 4.000 21.000 L 3.000 21.000 3.000 17.500 L 3.000 14.000 4.000 14.000 L 5.000 14.000 5.000 17.500 M12.121 14.042 C 12.448 14.082,14.830 14.638,15.045 14.724 C 15.103 14.747,15.202 14.820,15.265 14.885 C 15.368 14.992,15.381 15.038,15.394 15.317 C 15.410 15.668,15.353 15.831,15.171 15.950 C 15.078 16.011,14.927 16.023,14.042 16.041 C 13.100 16.061,13.007 16.070,12.860 16.148 C 12.236 16.480,12.098 17.260,12.578 17.740 C 12.884 18.046,12.888 18.047,14.722 18.031 C 16.903 18.012,16.676 18.093,18.721 16.601 C 19.437 16.078,20.080 15.622,20.149 15.586 C 20.453 15.428,20.864 15.568,20.961 15.862 C 21.060 16.164,21.027 16.213,20.088 17.134 C 18.394 18.796,18.226 18.936,17.649 19.167 C 17.262 19.322,14.108 19.954,13.555 19.988 C 13.083 20.016,12.981 19.998,11.320 19.592 C 9.305 19.099,9.422 19.118,8.130 19.092 L 7.000 19.070 7.000 17.380 L 7.000 15.691 8.510 15.059 C 10.090 14.399,10.716 14.166,11.181 14.066 C 11.525 13.993,11.688 13.988,12.121 14.042 " stroke="none" fill-rule="evenodd" fill="black"></path></svg>