<svg width="24" height="24" viewBox="0 0 24 24" fill="none" xmlns="http://www.w3.org/2000/svg"><path d="M6.847 2.044 C 4.399 2.375,2.253 4.182,1.389 6.640 C 0.966 7.841,0.887 9.286,1.181 10.451 C 1.509 11.751,2.021 12.681,3.085 13.903 C 4.196 15.180,7.523 18.374,10.391 20.917 C 11.158 21.597,11.230 21.649,11.565 21.762 C 12.033 21.921,12.528 21.813,12.980 21.452 C 13.278 21.215,15.195 19.485,16.379 18.385 C 19.154 15.808,20.956 13.958,21.664 12.958 C 23.139 10.875,23.407 8.326,22.390 6.064 C 21.515 4.116,19.678 2.594,17.675 2.157 C 15.825 1.753,13.802 2.258,12.246 3.511 L 11.993 3.715 11.766 3.530 C 11.106 2.991,10.206 2.513,9.400 2.273 C 8.653 2.051,7.536 1.951,6.847 2.044 M8.239 4.062 C 9.270 4.229,10.108 4.677,10.983 5.528 C 11.249 5.787,11.532 6.026,11.612 6.059 C 11.821 6.147,12.204 6.137,12.411 6.040 C 12.507 5.995,12.744 5.793,12.960 5.573 C 13.457 5.066,13.868 4.766,14.458 4.478 C 15.936 3.758,17.527 3.886,18.860 4.831 C 20.077 5.694,20.824 6.968,20.964 8.417 C 21.092 9.733,20.706 10.970,19.819 12.081 C 18.930 13.195,16.727 15.377,13.819 18.024 C 12.651 19.087,12.025 19.640,11.990 19.640 C 11.929 19.640,9.522 17.451,7.961 15.975 C 6.676 14.760,4.976 13.041,4.464 12.440 C 3.550 11.367,3.153 10.514,3.032 9.370 C 2.981 8.877,3.027 8.200,3.144 7.740 C 3.511 6.301,4.506 5.063,5.825 4.405 C 6.555 4.041,7.384 3.923,8.239 4.062 " stroke="none" fill-rule="evenodd" fill="black"></path></svg>