<svg width="24" height="24" viewBox="0 0 24 24" fill="none" xmlns="http://www.w3.org/2000/svg"><path d="M11.280 1.023 C 11.203 1.032,10.951 1.059,10.720 1.083 C 9.527 1.210,8.337 1.558,7.180 2.120 C 6.045 2.671,5.193 3.285,4.238 4.239 C 3.277 5.198,2.643 6.080,2.097 7.220 C 0.301 10.968,0.728 15.286,3.226 18.633 C 3.701 19.269,4.753 20.316,5.400 20.797 C 9.364 23.745,14.666 23.734,18.637 20.770 C 19.246 20.316,20.316 19.246,20.770 18.637 C 23.744 14.652,23.744 9.348,20.770 5.363 C 20.316 4.755,19.247 3.686,18.640 3.235 C 17.045 2.049,15.365 1.360,13.423 1.096 C 13.000 1.038,11.574 0.990,11.280 1.023 M13.320 3.101 C 15.883 3.488,18.124 4.931,19.560 7.120 C 19.863 7.583,20.303 8.479,20.492 9.020 C 20.838 10.013,20.977 10.865,20.977 12.000 C 20.977 13.493,20.720 14.621,20.080 15.940 C 19.375 17.394,18.311 18.607,16.927 19.532 C 16.138 20.060,14.876 20.588,13.908 20.797 C 11.266 21.366,8.479 20.708,6.370 19.019 C 4.857 17.807,3.722 16.029,3.267 14.160 C 3.081 13.397,3.023 12.888,3.023 12.000 C 3.023 10.507,3.280 9.379,3.920 8.060 C 4.971 5.891,6.877 4.221,9.160 3.466 C 9.865 3.233,10.432 3.118,11.340 3.024 C 11.662 2.991,12.911 3.039,13.320 3.101 M9.240 7.047 C 7.834 7.247,6.523 8.468,6.131 9.940 C 6.037 10.293,6.025 10.413,6.026 10.960 C 6.027 11.463,6.043 11.638,6.111 11.887 C 6.325 12.668,6.645 13.206,7.370 14.000 C 8.118 14.821,10.315 16.894,10.831 17.267 C 11.193 17.529,11.574 17.654,12.000 17.652 C 12.531 17.650,12.913 17.494,13.398 17.085 C 14.109 16.484,15.901 14.780,16.493 14.140 C 17.336 13.231,17.649 12.729,17.870 11.931 C 17.965 11.586,17.978 11.469,17.978 10.940 C 17.978 10.408,17.965 10.295,17.867 9.940 C 17.552 8.801,16.804 7.898,15.729 7.360 C 14.704 6.847,13.375 6.906,12.320 7.513 L 11.980 7.709 11.820 7.600 C 11.135 7.133,10.137 6.919,9.240 7.047 M10.180 9.055 C 10.529 9.149,10.764 9.286,11.082 9.584 C 11.493 9.969,11.666 10.058,12.000 10.056 C 12.311 10.054,12.505 9.965,12.740 9.719 C 13.254 9.180,13.851 8.938,14.422 9.037 C 15.373 9.203,16.069 10.122,15.986 11.102 C 15.931 11.760,15.693 12.113,14.503 13.304 C 13.667 14.141,12.060 15.640,11.998 15.640 C 11.947 15.640,10.558 14.359,9.764 13.581 C 8.420 12.262,8.126 11.867,8.030 11.247 C 7.830 9.953,9.018 8.742,10.180 9.055 " stroke="none" fill-rule="evenodd" fill="black"></path></svg>