<svg width="24" height="24" viewBox="0 0 24 24" fill="none" xmlns="http://www.w3.org/2000/svg"><path d="M11.419 1.241 C 11.167 1.321,3.165 5.742,2.836 5.983 C 2.414 6.292,2.159 6.676,2.058 7.155 C 1.974 7.548,1.974 16.452,2.058 16.845 C 2.171 17.381,2.492 17.813,3.018 18.139 C 3.538 18.461,11.086 22.636,11.314 22.729 C 11.504 22.805,11.614 22.820,12.000 22.820 C 12.386 22.820,12.496 22.805,12.686 22.729 C 12.914 22.636,20.462 18.461,20.982 18.139 C 21.322 17.928,21.633 17.609,21.779 17.322 C 22.002 16.881,21.999 16.969,21.999 12.000 C 21.999 7.036,22.002 7.118,21.781 6.681 C 21.657 6.438,21.424 6.173,21.164 5.983 C 20.808 5.722,12.833 1.321,12.568 1.239 C 12.233 1.136,11.748 1.137,11.419 1.241 M16.004 5.370 L 19.980 7.580 19.990 11.985 C 19.998 15.479,19.990 16.398,19.950 16.431 C 19.869 16.497,12.039 20.840,12.000 20.840 C 11.961 20.840,4.131 16.497,4.050 16.431 C 4.010 16.398,4.002 15.479,4.010 11.985 L 4.020 7.580 7.996 5.370 C 10.184 4.154,11.985 3.160,12.000 3.160 C 12.015 3.160,13.816 4.154,16.004 5.370 M9.240 7.047 C 7.834 7.247,6.523 8.468,6.131 9.940 C 6.037 10.293,6.025 10.413,6.026 10.960 C 6.027 11.463,6.043 11.638,6.111 11.887 C 6.325 12.668,6.645 13.206,7.370 14.000 C 8.118 14.821,10.315 16.894,10.831 17.267 C 11.193 17.529,11.574 17.654,12.000 17.652 C 12.531 17.650,12.913 17.494,13.398 17.085 C 14.109 16.484,15.901 14.780,16.493 14.140 C 17.336 13.231,17.649 12.729,17.870 11.931 C 17.965 11.586,17.978 11.469,17.978 10.940 C 17.978 10.408,17.965 10.295,17.867 9.940 C 17.552 8.801,16.804 7.898,15.729 7.360 C 14.704 6.847,13.375 6.906,12.320 7.513 L 11.980 7.709 11.820 7.600 C 11.135 7.133,10.137 6.919,9.240 7.047 M10.180 9.055 C 10.529 9.149,10.764 9.286,11.082 9.584 C 11.493 9.969,11.666 10.058,12.000 10.056 C 12.311 10.054,12.505 9.965,12.740 9.719 C 13.254 9.180,13.851 8.938,14.422 9.037 C 15.373 9.203,16.069 10.122,15.986 11.102 C 15.931 11.760,15.693 12.113,14.503 13.304 C 13.667 14.141,12.060 15.640,11.998 15.640 C 11.947 15.640,10.558 14.359,9.764 13.581 C 8.420 12.262,8.126 11.867,8.030 11.247 C 7.830 9.953,9.018 8.742,10.180 9.055 " stroke="none" fill-rule="evenodd" fill="black"></path></svg>