<svg width="24" height="24" viewBox="0 0 24 24" fill="none" xmlns="http://www.w3.org/2000/svg"><path d="M7.160 2.041 C 5.170 2.282,3.408 3.449,2.210 5.320 C 1.996 5.655,1.601 6.484,1.448 6.921 C 0.085 10.810,1.878 14.807,6.760 18.764 C 8.480 20.158,10.982 21.744,11.811 21.966 C 11.963 22.007,12.037 22.007,12.189 21.966 C 12.745 21.817,14.158 20.998,15.640 19.965 C 17.855 18.422,19.809 16.580,21.015 14.900 C 22.520 12.805,23.175 10.722,22.958 8.728 C 22.644 5.863,20.826 3.370,18.351 2.414 C 16.356 1.644,13.938 1.990,12.295 3.281 C 12.156 3.390,12.023 3.480,12.000 3.480 C 11.977 3.480,11.844 3.390,11.705 3.281 C 10.970 2.703,9.987 2.273,9.001 2.096 C 8.585 2.022,7.569 1.992,7.160 2.041 M8.420 4.041 C 8.905 4.096,9.307 4.210,9.748 4.419 C 10.237 4.650,10.563 4.889,11.032 5.359 C 11.475 5.803,11.600 5.880,11.926 5.910 C 12.300 5.944,12.468 5.856,12.952 5.375 C 13.447 4.882,13.761 4.651,14.252 4.419 C 14.725 4.196,15.110 4.091,15.665 4.034 C 16.438 3.956,17.221 4.084,17.906 4.401 C 19.577 5.173,20.783 6.994,20.967 9.026 C 21.118 10.678,20.455 12.422,18.971 14.281 C 17.582 16.020,15.268 17.949,12.800 19.427 C 12.000 19.906,12.026 19.895,11.870 19.816 C 11.305 19.529,9.559 18.394,8.792 17.815 C 6.435 16.033,4.753 14.226,3.828 12.480 C 2.775 10.493,2.740 8.593,3.722 6.725 C 4.713 4.841,6.493 3.824,8.420 4.041 " stroke="none" fill-rule="evenodd" fill="black"></path></svg>