<svg width="24" height="24" viewBox="0 0 24 24" fill="none" xmlns="http://www.w3.org/2000/svg"><path d="M5.920 2.041 C 5.151 2.092,4.672 2.205,4.180 2.451 C 3.089 2.996,2.357 3.961,2.124 5.160 C 2.013 5.729,2.000 6.455,2.000 12.000 C 2.000 18.358,2.006 18.526,2.245 19.320 C 2.577 20.422,3.578 21.423,4.680 21.755 C 5.474 21.994,5.642 22.000,12.000 22.000 C 18.358 22.000,18.526 21.994,19.320 21.755 C 20.422 21.423,21.423 20.422,21.755 19.320 C 21.994 18.526,22.000 18.358,22.000 12.000 C 22.000 5.642,21.994 5.474,21.755 4.680 C 21.424 3.581,20.465 2.622,19.320 2.246 C 18.644 2.024,18.800 2.029,12.340 2.019 C 9.062 2.014,6.173 2.024,5.920 2.041 M18.492 4.091 C 18.894 4.188,19.109 4.309,19.400 4.600 C 19.696 4.895,19.814 5.109,19.912 5.528 C 19.975 5.797,19.980 6.313,19.980 12.000 C 19.980 17.687,19.975 18.203,19.912 18.472 C 19.814 18.891,19.696 19.104,19.400 19.401 C 19.101 19.701,18.820 19.851,18.418 19.928 C 18.010 20.005,5.990 20.005,5.582 19.927 C 5.170 19.850,4.898 19.704,4.600 19.403 C 4.303 19.104,4.186 18.890,4.088 18.472 C 4.025 18.203,4.020 17.687,4.020 12.000 C 4.020 6.313,4.025 5.797,4.088 5.528 C 4.175 5.155,4.294 4.918,4.520 4.667 C 4.883 4.262,5.282 4.091,5.980 4.039 C 6.200 4.023,9.044 4.013,12.300 4.018 C 17.643 4.024,18.247 4.032,18.492 4.091 M11.300 6.042 C 10.776 6.123,10.157 6.374,9.640 6.715 C 8.847 7.238,8.096 8.363,8.102 9.020 C 8.109 9.731,8.838 10.197,9.489 9.905 C 9.769 9.780,9.880 9.651,10.084 9.220 C 10.364 8.630,10.847 8.211,11.421 8.061 C 12.539 7.770,13.706 8.539,13.883 9.684 C 13.937 10.031,13.908 10.255,13.775 10.508 C 13.507 11.018,12.676 11.630,11.764 11.989 C 11.486 12.098,11.335 12.185,11.216 12.303 C 11.039 12.479,10.920 12.759,10.920 13.000 C 10.920 13.531,11.393 14.000,11.927 14.000 C 12.350 14.000,13.565 13.410,14.292 12.851 C 15.449 11.961,15.970 10.971,15.908 9.781 C 15.855 8.770,15.469 7.907,14.742 7.175 C 14.219 6.648,13.619 6.306,12.889 6.117 C 12.530 6.024,11.672 5.984,11.300 6.042 M11.695 16.055 C 11.464 16.130,11.255 16.300,11.128 16.516 C 11.037 16.672,11.020 16.746,11.020 17.000 C 11.020 17.257,11.036 17.327,11.133 17.492 C 11.651 18.374,12.998 18.018,12.998 17.000 C 12.998 16.623,12.792 16.281,12.463 16.112 C 12.265 16.010,11.911 15.984,11.695 16.055 " stroke="none" fill-rule="evenodd" fill="black"></path></svg>