<svg width="24" height="24" viewBox="0 0 24 24" fill="none" xmlns="http://www.w3.org/2000/svg"><path d="M11.419 1.241 C 11.167 1.321,3.165 5.742,2.836 5.983 C 2.414 6.292,2.159 6.676,2.058 7.155 C 1.974 7.548,1.974 16.452,2.058 16.845 C 2.171 17.381,2.492 17.813,3.018 18.139 C 3.538 18.461,11.086 22.636,11.314 22.729 C 11.504 22.805,11.614 22.820,12.000 22.820 C 12.386 22.820,12.496 22.805,12.686 22.729 C 12.914 22.636,20.462 18.461,20.982 18.139 C 21.322 17.928,21.633 17.609,21.779 17.322 C 22.002 16.881,21.999 16.969,21.999 12.000 C 21.999 7.036,22.002 7.118,21.781 6.681 C 21.657 6.438,21.424 6.173,21.164 5.983 C 20.808 5.722,12.833 1.321,12.568 1.239 C 12.233 1.136,11.748 1.137,11.419 1.241 M16.004 5.370 L 19.980 7.580 19.990 11.985 C 19.998 15.479,19.990 16.398,19.950 16.431 C 19.869 16.497,12.039 20.840,12.000 20.840 C 11.961 20.840,4.131 16.497,4.050 16.431 C 4.010 16.398,4.002 15.479,4.010 11.985 L 4.020 7.580 7.996 5.370 C 10.184 4.154,11.985 3.160,12.000 3.160 C 12.015 3.160,13.816 4.154,16.004 5.370 M11.300 6.042 C 10.776 6.123,10.157 6.374,9.640 6.715 C 8.847 7.238,8.096 8.363,8.102 9.020 C 8.109 9.731,8.838 10.197,9.489 9.905 C 9.769 9.780,9.880 9.651,10.084 9.220 C 10.364 8.630,10.847 8.211,11.421 8.061 C 12.539 7.770,13.706 8.539,13.883 9.684 C 13.937 10.031,13.908 10.255,13.775 10.508 C 13.507 11.018,12.676 11.630,11.764 11.989 C 11.486 12.098,11.335 12.185,11.216 12.303 C 11.039 12.479,10.920 12.759,10.920 13.000 C 10.920 13.531,11.393 14.000,11.927 14.000 C 12.350 14.000,13.565 13.410,14.292 12.851 C 15.449 11.961,15.970 10.971,15.908 9.781 C 15.855 8.770,15.469 7.907,14.742 7.175 C 14.219 6.648,13.619 6.306,12.889 6.117 C 12.530 6.024,11.672 5.984,11.300 6.042 M11.695 16.055 C 11.464 16.130,11.255 16.300,11.128 16.516 C 11.037 16.672,11.020 16.746,11.020 17.000 C 11.020 17.257,11.036 17.327,11.133 17.492 C 11.651 18.374,12.998 18.018,12.998 17.000 C 12.998 16.623,12.792 16.281,12.463 16.112 C 12.265 16.010,11.911 15.984,11.695 16.055 " stroke="none" fill-rule="evenodd" fill="black"></path></svg>