<svg width="24" height="24" viewBox="0 0 24 24" fill="none" xmlns="http://www.w3.org/2000/svg"><path d="M7.980 1.027 C 7.769 1.057,7.471 1.168,7.242 1.303 C 7.084 1.397,6.196 2.260,4.172 4.287 C 1.715 6.749,1.310 7.170,1.224 7.360 C 0.992 7.869,1.000 7.713,1.000 12.000 C 1.000 16.286,0.992 16.131,1.224 16.640 C 1.310 16.830,1.715 17.252,4.232 19.768 C 6.748 22.285,7.170 22.690,7.360 22.776 C 7.869 23.008,7.714 23.000,12.000 23.000 C 16.286 23.000,16.131 23.008,16.640 22.776 C 16.830 22.690,17.252 22.285,19.768 19.768 C 22.285 17.252,22.690 16.830,22.776 16.640 C 23.008 16.131,23.000 16.286,23.000 12.000 C 23.000 7.713,23.008 7.869,22.776 7.360 C 22.690 7.170,22.285 6.749,19.828 4.287 C 16.926 1.381,16.816 1.280,16.340 1.098 C 16.148 1.024,15.981 1.021,12.120 1.016 C 9.909 1.013,8.046 1.018,7.980 1.027 M18.370 5.630 L 21.000 8.260 21.000 12.000 L 21.000 15.740 18.370 18.370 L 15.740 21.000 12.000 21.000 L 8.260 21.000 5.630 18.370 L 3.000 15.740 3.000 12.000 L 3.000 8.260 5.630 5.630 L 8.260 3.000 12.000 3.000 L 15.740 3.000 18.370 5.630 M11.300 6.042 C 10.776 6.123,10.157 6.374,9.640 6.715 C 8.847 7.238,8.096 8.363,8.102 9.020 C 8.109 9.731,8.838 10.197,9.489 9.905 C 9.769 9.780,9.880 9.651,10.084 9.220 C 10.364 8.630,10.847 8.211,11.421 8.061 C 12.539 7.770,13.706 8.539,13.883 9.684 C 13.937 10.031,13.908 10.255,13.775 10.508 C 13.507 11.018,12.676 11.630,11.764 11.989 C 11.486 12.098,11.335 12.185,11.216 12.303 C 11.039 12.479,10.920 12.759,10.920 13.000 C 10.920 13.531,11.393 14.000,11.927 14.000 C 12.350 14.000,13.565 13.410,14.292 12.851 C 15.449 11.961,15.970 10.971,15.908 9.781 C 15.855 8.770,15.469 7.907,14.742 7.175 C 14.219 6.648,13.619 6.306,12.889 6.117 C 12.530 6.024,11.672 5.984,11.300 6.042 M11.695 16.055 C 11.464 16.130,11.255 16.300,11.128 16.516 C 11.037 16.672,11.020 16.746,11.020 17.000 C 11.020 17.257,11.036 17.327,11.133 17.492 C 11.651 18.374,12.998 18.018,12.998 17.000 C 12.998 16.623,12.792 16.281,12.463 16.112 C 12.265 16.010,11.911 15.984,11.695 16.055 " stroke="none" fill-rule="evenodd" fill="black"></path></svg>