<svg width="24" height="24" viewBox="0 0 24 24" fill="none" xmlns="http://www.w3.org/2000/svg"><path d="M7.256 2.042 C 6.718 2.112,6.210 2.463,5.873 2.996 C 5.709 3.255,1.614 10.617,1.413 11.015 C 1.219 11.396,1.156 11.640,1.156 12.000 C 1.156 12.369,1.218 12.600,1.431 13.023 C 1.635 13.426,5.701 20.732,5.876 21.010 C 6.195 21.514,6.629 21.831,7.155 21.942 C 7.548 22.026,16.452 22.026,16.845 21.942 C 17.381 21.829,17.813 21.508,18.139 20.982 C 18.461 20.462,22.636 12.914,22.729 12.686 C 22.805 12.496,22.820 12.386,22.820 12.000 C 22.820 11.614,22.805 11.504,22.729 11.314 C 22.636 11.086,18.461 3.538,18.139 3.018 C 17.792 2.458,17.293 2.116,16.713 2.040 C 16.358 1.994,7.609 1.996,7.256 2.042 M18.634 8.010 L 20.851 12.000 18.634 15.990 L 16.418 19.980 11.999 19.980 L 7.580 19.980 5.370 16.004 C 4.154 13.816,3.160 12.015,3.160 12.000 C 3.160 11.973,7.434 4.261,7.544 4.090 L 7.602 4.000 12.010 4.010 L 16.418 4.020 18.634 8.010 " stroke="none" fill-rule="evenodd" fill="black"></path></svg>