<svg width="24" height="24" viewBox="0 0 24 24" fill="none" xmlns="http://www.w3.org/2000/svg"><path d="M11.480 1.344 C 11.359 1.377,11.143 1.473,11.000 1.558 C 10.857 1.643,8.986 3.078,6.842 4.747 C 2.607 8.043,2.629 8.023,2.318 8.659 C 1.999 9.310,2.020 8.900,2.020 14.440 L 2.020 19.380 2.111 19.735 C 2.225 20.184,2.379 20.505,2.650 20.858 C 3.038 21.363,3.594 21.719,4.265 21.889 L 4.620 21.980 11.980 21.980 C 19.013 21.980,19.354 21.977,19.660 21.906 C 20.459 21.720,21.041 21.327,21.486 20.671 C 21.685 20.378,21.807 20.084,21.906 19.660 C 21.976 19.357,21.980 19.075,21.980 14.420 C 21.980 9.830,21.975 9.483,21.909 9.240 C 21.752 8.665,21.401 8.101,20.969 7.729 C 20.472 7.301,13.283 1.733,13.020 1.573 C 12.866 1.479,12.633 1.375,12.502 1.341 C 12.206 1.265,11.770 1.267,11.480 1.344 M15.700 6.145 C 17.724 7.720,19.475 9.089,19.591 9.188 C 19.708 9.287,19.843 9.443,19.891 9.534 L 19.980 9.700 19.980 14.440 C 19.980 18.237,19.970 19.215,19.928 19.354 C 19.863 19.567,19.591 19.849,19.376 19.925 C 19.143 20.007,4.857 20.007,4.624 19.925 C 4.409 19.849,4.137 19.567,4.072 19.354 C 4.030 19.215,4.020 18.237,4.020 14.440 L 4.020 9.700 4.109 9.534 C 4.157 9.443,4.292 9.287,4.409 9.188 C 4.683 8.954,11.974 3.282,12.000 3.282 C 12.011 3.282,13.676 4.570,15.700 6.145 M7.695 16.057 C 7.466 16.129,7.256 16.299,7.128 16.516 C 7.037 16.672,7.020 16.746,7.020 17.000 C 7.020 17.256,7.036 17.328,7.131 17.489 C 7.256 17.702,7.449 17.864,7.670 17.943 C 7.892 18.022,16.108 18.022,16.330 17.943 C 16.551 17.864,16.744 17.702,16.869 17.489 C 16.964 17.328,16.980 17.256,16.980 17.000 C 16.980 16.746,16.963 16.672,16.872 16.516 C 16.740 16.293,16.533 16.128,16.290 16.055 C 16.029 15.976,7.946 15.979,7.695 16.057 " stroke="none" fill-rule="evenodd" fill="black"></path></svg>