<svg width="24" height="24" viewBox="0 0 24 24" fill="none" xmlns="http://www.w3.org/2000/svg"><path d="M11.480 1.344 C 11.359 1.377,11.143 1.473,11.000 1.558 C 10.857 1.643,8.986 3.078,6.842 4.747 C 2.607 8.043,2.629 8.023,2.318 8.659 C 1.999 9.310,2.020 8.900,2.020 14.440 L 2.020 19.380 2.111 19.735 C 2.225 20.184,2.379 20.505,2.650 20.858 C 3.038 21.363,3.594 21.719,4.265 21.889 L 4.620 21.980 11.980 21.980 C 19.013 21.980,19.354 21.977,19.660 21.906 C 20.459 21.720,21.041 21.327,21.486 20.671 C 21.685 20.378,21.807 20.084,21.906 19.660 C 21.976 19.357,21.980 19.075,21.980 14.420 C 21.980 9.830,21.975 9.483,21.909 9.240 C 21.752 8.665,21.401 8.101,20.969 7.729 C 20.472 7.301,13.283 1.733,13.020 1.573 C 12.866 1.479,12.633 1.375,12.502 1.341 C 12.206 1.265,11.770 1.267,11.480 1.344 M15.700 6.145 C 17.724 7.720,19.475 9.089,19.591 9.188 C 19.708 9.287,19.843 9.443,19.891 9.534 L 19.980 9.700 19.980 14.440 C 19.980 18.237,19.970 19.215,19.928 19.354 C 19.863 19.567,19.591 19.849,19.376 19.925 C 19.143 20.007,4.857 20.007,4.624 19.925 C 4.409 19.849,4.137 19.567,4.072 19.354 C 4.030 19.215,4.020 18.237,4.020 14.440 L 4.020 9.700 4.109 9.534 C 4.157 9.443,4.292 9.287,4.409 9.188 C 4.683 8.954,11.974 3.282,12.000 3.282 C 12.011 3.282,13.676 4.570,15.700 6.145 M7.851 13.042 C 7.517 13.145,7.298 13.359,7.184 13.693 C 7.101 13.939,7.103 14.041,7.200 14.390 C 7.423 15.196,7.842 15.895,8.474 16.521 C 9.232 17.269,9.992 17.685,11.000 17.905 C 11.476 18.008,12.524 18.008,13.000 17.905 C 14.008 17.685,14.768 17.269,15.526 16.521 C 16.161 15.893,16.566 15.215,16.795 14.397 C 16.897 14.033,16.900 13.950,16.813 13.682 C 16.610 13.052,15.830 12.806,15.285 13.201 C 15.077 13.352,14.982 13.503,14.878 13.851 C 14.703 14.431,14.345 14.962,13.873 15.338 C 12.675 16.292,10.983 16.202,9.890 15.127 C 9.502 14.744,9.335 14.451,9.060 13.668 C 8.975 13.428,8.841 13.268,8.616 13.135 C 8.418 13.020,8.064 12.977,7.851 13.042 " stroke="none" fill-rule="evenodd" fill="black"></path></svg>