<svg width="24" height="24" viewBox="0 0 24 24" fill="none" xmlns="http://www.w3.org/2000/svg"><path d="M11.800 1.265 C 11.518 1.313,11.319 1.374,11.120 1.472 C 10.910 1.575,1.605 8.514,1.326 8.775 C 0.922 9.154,0.896 9.747,1.265 10.158 C 1.472 10.387,1.699 10.490,2.000 10.491 C 2.270 10.492,2.451 10.418,2.759 10.180 L 2.997 9.997 3.010 14.709 L 3.023 19.420 3.112 19.756 C 3.287 20.415,3.645 20.969,4.142 21.350 C 4.495 21.621,4.816 21.775,5.265 21.889 L 5.620 21.980 11.980 21.980 C 18.038 21.980,18.355 21.976,18.660 21.906 C 19.457 21.720,20.041 21.326,20.482 20.677 C 20.680 20.386,20.781 20.155,20.891 19.740 C 20.976 19.423,20.977 19.372,20.990 14.709 L 21.003 9.998 21.241 10.181 C 21.549 10.418,21.730 10.492,22.000 10.491 C 22.301 10.490,22.528 10.387,22.735 10.158 C 23.104 9.747,23.078 9.154,22.674 8.775 C 22.393 8.512,13.089 1.575,12.880 1.472 C 12.549 1.310,12.070 1.218,11.800 1.265 M12.436 3.627 C 12.691 3.775,12.700 3.782,16.031 6.276 L 19.002 8.500 18.990 13.860 C 18.980 17.887,18.965 19.255,18.930 19.360 C 18.858 19.568,18.665 19.781,18.450 19.886 C 18.267 19.977,18.220 19.980,17.130 19.994 L 16.000 20.007 15.999 16.434 C 15.999 13.436,15.989 12.815,15.940 12.581 C 15.792 11.885,15.328 11.363,14.635 11.112 L 14.380 11.020 12.000 11.020 L 9.620 11.020 9.365 11.112 C 8.859 11.295,8.433 11.660,8.222 12.093 C 8.002 12.541,8.001 12.557,8.001 16.434 L 8.000 20.007 6.870 19.994 C 5.780 19.980,5.733 19.977,5.550 19.886 C 5.335 19.781,5.142 19.568,5.070 19.360 C 5.035 19.255,5.020 17.887,5.010 13.860 L 4.998 8.500 8.049 6.215 C 10.824 4.137,11.419 3.701,11.660 3.567 C 11.704 3.542,11.855 3.522,11.996 3.521 C 12.203 3.520,12.288 3.541,12.436 3.627 M14.000 16.500 L 14.000 20.000 12.000 20.000 L 10.000 20.000 10.000 16.500 L 10.000 13.000 12.000 13.000 L 14.000 13.000 14.000 16.500 " stroke="none" fill-rule="evenodd" fill="black"></path></svg>