<svg width="24" height="24" viewBox="0 0 24 24" fill="none" xmlns="http://www.w3.org/2000/svg"><path d="M2.695 1.057 C 2.466 1.129,2.256 1.299,2.128 1.516 L 2.020 1.700 2.020 12.003 L 2.020 22.306 2.141 22.503 C 2.543 23.156,3.457 23.156,3.859 22.503 L 3.980 22.307 3.993 21.415 L 4.005 20.524 8.153 20.510 C 11.841 20.497,12.324 20.488,12.515 20.430 C 13.189 20.225,13.658 19.782,13.895 19.124 C 13.971 18.916,13.977 18.783,13.991 17.213 L 14.005 15.526 17.153 15.510 C 19.899 15.496,20.327 15.485,20.515 15.429 C 21.187 15.228,21.658 14.782,21.895 14.124 C 21.971 13.915,21.977 13.783,21.991 12.188 C 22.000 11.088,21.990 10.372,21.962 10.188 C 21.858 9.492,21.356 8.878,20.687 8.626 C 20.477 8.547,20.370 8.540,19.230 8.528 L 18.000 8.515 18.000 6.967 C 18.000 6.116,17.981 5.303,17.959 5.160 C 17.854 4.490,17.344 3.875,16.687 3.626 L 16.460 3.540 10.233 3.529 L 4.005 3.519 3.993 2.609 C 3.980 1.704,3.980 1.699,3.872 1.516 C 3.628 1.101,3.150 0.915,2.695 1.057 M16.000 7.020 L 16.000 8.520 10.000 8.520 L 4.000 8.520 4.000 7.020 L 4.000 5.520 10.000 5.520 L 16.000 5.520 16.000 7.020 M20.000 11.995 L 20.000 13.470 19.875 13.495 C 19.806 13.509,16.206 13.520,11.875 13.520 L 4.000 13.520 4.000 12.020 L 4.000 10.520 12.000 10.520 L 20.000 10.520 20.000 11.995 M12.000 16.995 L 12.000 18.470 11.875 18.495 C 11.806 18.509,10.006 18.520,7.875 18.520 L 4.000 18.520 4.000 17.020 L 4.000 15.520 8.000 15.520 L 12.000 15.520 12.000 16.995 " stroke="none" fill-rule="evenodd" fill="black"></path></svg>