<svg width="24" height="24" viewBox="0 0 24 24" fill="none" xmlns="http://www.w3.org/2000/svg"><path d="M2.695 1.057 C 2.466 1.129,2.256 1.299,2.128 1.516 L 2.020 1.700 2.020 12.003 L 2.020 22.306 2.141 22.503 C 2.543 23.156,3.457 23.156,3.859 22.503 L 3.980 22.307 3.993 21.415 L 4.005 20.524 8.153 20.510 C 11.841 20.497,12.324 20.488,12.515 20.430 C 13.189 20.225,13.658 19.782,13.895 19.124 C 13.971 18.916,13.977 18.783,13.991 17.216 L 14.005 15.531 15.153 15.508 C 15.994 15.491,16.357 15.469,16.515 15.425 C 17.174 15.240,17.658 14.784,17.895 14.124 C 17.971 13.916,17.977 13.783,17.991 12.216 L 18.005 10.531 19.153 10.508 C 19.994 10.491,20.357 10.469,20.515 10.425 C 21.174 10.240,21.658 9.784,21.895 9.124 C 21.971 8.915,21.977 8.783,21.991 7.188 C 22.000 6.088,21.990 5.372,21.962 5.188 C 21.858 4.492,21.357 3.880,20.687 3.626 L 20.460 3.540 12.233 3.530 L 4.005 3.519 3.993 2.610 C 3.980 1.704,3.980 1.699,3.872 1.516 C 3.628 1.101,3.150 0.915,2.695 1.057 M20.000 6.995 L 20.000 8.470 19.875 8.495 C 19.806 8.509,16.206 8.520,11.875 8.520 L 4.000 8.520 4.000 7.020 L 4.000 5.520 12.000 5.520 L 20.000 5.520 20.000 6.995 M16.000 11.995 L 16.000 13.470 15.875 13.495 C 15.806 13.509,13.106 13.520,9.875 13.520 L 4.000 13.520 4.000 12.020 L 4.000 10.520 10.000 10.520 L 16.000 10.520 16.000 11.995 M12.000 16.995 L 12.000 18.470 11.875 18.495 C 11.806 18.509,10.006 18.520,7.875 18.520 L 4.000 18.520 4.000 17.020 L 4.000 15.520 8.000 15.520 L 12.000 15.520 12.000 16.995 " stroke="none" fill-rule="evenodd" fill="black"></path></svg>