<svg width="24" height="24" viewBox="0 0 24 24" fill="none" xmlns="http://www.w3.org/2000/svg"><path d="M2.695 1.057 C 2.466 1.129,2.256 1.299,2.128 1.516 L 2.020 1.700 2.020 12.003 L 2.020 22.306 2.141 22.503 C 2.543 23.156,3.457 23.156,3.859 22.503 L 3.980 22.307 3.993 21.414 L 4.005 20.522 12.153 20.510 C 19.600 20.498,20.318 20.491,20.515 20.431 C 21.193 20.222,21.659 19.781,21.895 19.124 C 21.971 18.915,21.977 18.783,21.991 17.188 C 22.000 16.088,21.990 15.372,21.962 15.188 C 21.858 14.492,21.356 13.878,20.687 13.626 C 20.477 13.547,20.370 13.540,19.230 13.528 L 18.000 13.515 18.000 11.967 C 18.000 11.116,17.981 10.303,17.959 10.160 C 17.854 9.490,17.343 8.873,16.687 8.626 C 16.477 8.547,16.370 8.540,15.230 8.528 L 14.000 8.515 14.000 6.967 C 14.000 6.116,13.981 5.303,13.959 5.160 C 13.854 4.490,13.344 3.875,12.687 3.626 C 12.461 3.540,12.445 3.540,8.233 3.529 L 4.005 3.518 3.993 2.609 C 3.980 1.704,3.980 1.699,3.872 1.516 C 3.628 1.101,3.150 0.915,2.695 1.057 M12.000 7.020 L 12.000 8.520 8.000 8.520 L 4.000 8.520 4.000 7.020 L 4.000 5.520 8.000 5.520 L 12.000 5.520 12.000 7.020 M16.000 12.020 L 16.000 13.520 10.000 13.520 L 4.000 13.520 4.000 12.020 L 4.000 10.520 10.000 10.520 L 16.000 10.520 16.000 12.020 M20.000 16.995 L 20.000 18.470 19.875 18.495 C 19.806 18.509,16.206 18.520,11.875 18.520 L 4.000 18.520 4.000 17.020 L 4.000 15.520 12.000 15.520 L 20.000 15.520 20.000 16.995 " stroke="none" fill-rule="evenodd" fill="black"></path></svg>