<svg width="24" height="24" viewBox="0 0 24 24" fill="none" xmlns="http://www.w3.org/2000/svg"><path d="M5.440 1.044 C 5.152 1.100,4.795 1.299,4.557 1.536 C 4.041 2.047,3.929 2.541,4.041 3.800 C 4.233 5.952,5.084 8.066,6.441 9.760 C 6.626 9.991,7.182 10.590,7.676 11.090 L 8.573 12.000 7.676 12.910 C 7.182 13.410,6.626 14.009,6.441 14.240 C 5.063 15.961,4.223 18.067,4.037 20.271 C 3.976 21.000,4.003 21.507,4.118 21.811 C 4.294 22.273,4.715 22.695,5.190 22.887 L 5.420 22.980 12.000 22.980 L 18.580 22.980 18.810 22.887 C 19.281 22.697,19.697 22.281,19.887 21.811 C 19.973 21.598,19.980 21.525,19.976 20.880 C 19.964 18.550,19.091 16.151,17.558 14.240 C 17.372 14.009,16.817 13.410,16.324 12.910 L 15.428 12.000 16.324 11.090 C 16.817 10.590,17.372 9.991,17.558 9.760 C 18.793 8.219,19.592 6.388,19.882 4.432 C 19.986 3.727,20.026 2.772,19.963 2.471 C 19.816 1.770,19.211 1.168,18.525 1.040 C 18.254 0.990,5.699 0.993,5.440 1.044 M17.981 3.370 C 17.890 4.612,17.624 5.644,17.122 6.700 C 16.585 7.832,16.156 8.401,14.817 9.761 C 13.863 10.729,13.759 10.849,13.629 11.121 C 13.352 11.703,13.352 12.297,13.629 12.879 C 13.759 13.151,13.863 13.271,14.817 14.239 C 16.156 15.599,16.585 16.168,17.122 17.300 C 17.624 18.356,17.890 19.388,17.981 20.630 L 18.008 21.000 12.000 21.000 L 5.992 21.000 6.019 20.630 C 6.110 19.388,6.376 18.356,6.878 17.300 C 7.415 16.168,7.844 15.599,9.183 14.239 C 10.137 13.271,10.241 13.151,10.371 12.879 C 10.648 12.297,10.648 11.703,10.371 11.121 C 10.241 10.849,10.137 10.729,9.183 9.761 C 7.844 8.401,7.415 7.832,6.878 6.700 C 6.376 5.644,6.110 4.612,6.019 3.370 L 5.992 3.000 12.000 3.000 L 18.008 3.000 17.981 3.370 " stroke="none" fill-rule="evenodd" fill="black"></path></svg>