<svg width="24" height="24" viewBox="0 0 24 24" fill="none" xmlns="http://www.w3.org/2000/svg"><path d="M3.695 1.057 C 3.466 1.129,3.256 1.299,3.128 1.516 C 3.037 1.672,3.020 1.746,3.020 2.000 C 3.020 2.256,3.036 2.328,3.131 2.489 C 3.256 2.702,3.449 2.864,3.670 2.943 C 3.768 2.978,4.023 2.997,4.410 2.998 L 5.000 3.000 5.000 4.391 C 5.000 5.156,5.019 5.932,5.042 6.114 C 5.114 6.693,5.365 7.358,5.692 7.840 C 5.946 8.214,6.478 8.696,8.410 10.307 C 9.505 11.220,10.400 11.982,10.400 12.000 C 10.400 12.018,9.540 12.749,8.490 13.623 C 6.465 15.310,6.015 15.715,5.740 16.100 C 5.377 16.608,5.119 17.268,5.042 17.886 C 5.019 18.068,5.000 18.844,5.000 19.609 L 5.000 21.000 4.446 21.000 C 3.648 21.000,3.367 21.110,3.128 21.516 C 3.037 21.672,3.020 21.746,3.020 22.000 C 3.020 22.256,3.036 22.328,3.131 22.489 C 3.256 22.702,3.449 22.864,3.670 22.943 C 3.893 23.022,20.107 23.022,20.330 22.943 C 20.551 22.864,20.744 22.702,20.869 22.489 C 20.964 22.328,20.980 22.256,20.980 22.000 C 20.980 21.746,20.963 21.672,20.872 21.516 C 20.633 21.110,20.352 21.000,19.554 21.000 L 19.000 21.000 19.000 19.609 C 19.000 18.844,18.981 18.068,18.958 17.886 C 18.881 17.268,18.623 16.608,18.260 16.100 C 17.985 15.715,17.535 15.310,15.510 13.623 C 14.460 12.749,13.600 12.018,13.600 12.000 C 13.600 11.982,14.495 11.220,15.590 10.307 C 17.522 8.696,18.054 8.214,18.308 7.840 C 18.635 7.358,18.886 6.693,18.958 6.114 C 18.981 5.932,19.000 5.156,19.000 4.391 L 19.000 3.000 19.590 2.998 C 19.977 2.997,20.232 2.978,20.330 2.943 C 20.551 2.864,20.744 2.702,20.869 2.489 C 20.964 2.328,20.980 2.256,20.980 2.000 C 20.980 1.746,20.963 1.672,20.872 1.516 C 20.740 1.293,20.533 1.128,20.290 1.055 C 20.027 0.976,3.947 0.978,3.695 1.057 M16.997 4.250 C 16.994 5.871,16.974 6.074,16.782 6.463 C 16.672 6.686,16.558 6.837,16.347 7.041 C 16.052 7.325,12.044 10.680,12.000 10.680 C 11.955 10.680,7.946 7.322,7.646 7.033 C 7.421 6.817,7.318 6.680,7.209 6.451 C 7.026 6.065,7.006 5.849,7.003 4.250 L 7.000 3.000 12.000 3.000 L 17.000 3.000 16.997 4.250 M14.042 15.002 C 16.450 17.008,16.581 17.130,16.782 17.537 C 16.974 17.926,16.994 18.129,16.997 19.750 L 17.000 21.000 12.000 21.000 L 7.000 21.000 7.003 19.750 C 7.006 18.151,7.026 17.935,7.209 17.549 C 7.318 17.320,7.421 17.183,7.646 16.967 C 7.946 16.678,11.955 13.320,12.000 13.320 C 12.014 13.320,12.933 14.077,14.042 15.002 " stroke="none" fill-rule="evenodd" fill="black"></path></svg>