<svg width="24" height="24" viewBox="0 0 24 24" fill="none" xmlns="http://www.w3.org/2000/svg"><path d="M2.695 3.057 C 2.466 3.129,2.256 3.299,2.128 3.516 C 2.037 3.672,2.020 3.746,2.020 4.000 C 2.020 4.256,2.036 4.328,2.131 4.489 C 2.256 4.702,2.449 4.864,2.670 4.943 C 2.893 5.023,21.107 5.023,21.330 4.943 C 21.551 4.864,21.744 4.702,21.869 4.489 C 21.964 4.328,21.980 4.256,21.980 4.000 C 21.980 3.746,21.963 3.672,21.872 3.516 C 21.740 3.293,21.533 3.128,21.290 3.055 C 21.027 2.976,2.947 2.978,2.695 3.057 M5.695 7.057 C 5.466 7.129,5.256 7.299,5.128 7.516 C 5.037 7.672,5.020 7.746,5.020 8.000 C 5.020 8.256,5.036 8.328,5.131 8.489 C 5.256 8.702,5.449 8.864,5.670 8.943 C 5.893 9.022,20.107 9.022,20.330 8.943 C 20.551 8.864,20.744 8.702,20.869 8.489 C 20.964 8.328,20.980 8.256,20.980 8.000 C 20.980 7.746,20.963 7.672,20.872 7.516 C 20.740 7.293,20.533 7.128,20.290 7.055 C 20.027 6.976,5.947 6.978,5.695 7.057 M8.695 11.057 C 8.466 11.129,8.256 11.299,8.128 11.516 C 8.037 11.672,8.020 11.746,8.020 12.000 C 8.020 12.256,8.036 12.328,8.131 12.489 C 8.256 12.702,8.449 12.864,8.670 12.943 C 8.892 13.022,18.108 13.022,18.330 12.943 C 18.551 12.864,18.744 12.702,18.869 12.489 C 18.964 12.328,18.980 12.256,18.980 12.000 C 18.980 11.746,18.963 11.672,18.872 11.516 C 18.740 11.293,18.533 11.128,18.290 11.055 C 18.029 10.976,8.946 10.978,8.695 11.057 M7.695 15.057 C 7.466 15.129,7.256 15.299,7.128 15.516 C 7.037 15.672,7.020 15.746,7.020 16.000 C 7.020 16.256,7.036 16.328,7.131 16.489 C 7.256 16.702,7.449 16.864,7.670 16.943 C 7.891 17.022,15.109 17.022,15.330 16.943 C 15.551 16.864,15.744 16.702,15.869 16.489 C 15.964 16.328,15.980 16.256,15.980 16.000 C 15.980 15.746,15.963 15.672,15.872 15.516 C 15.740 15.293,15.533 15.128,15.290 15.055 C 15.030 14.977,7.945 14.979,7.695 15.057 M11.695 19.057 C 11.466 19.129,11.256 19.299,11.128 19.516 C 11.037 19.672,11.020 19.746,11.020 20.000 C 11.020 20.256,11.036 20.328,11.131 20.489 C 11.256 20.702,11.449 20.864,11.670 20.943 C 11.890 21.021,17.110 21.021,17.330 20.943 C 17.551 20.864,17.744 20.702,17.869 20.489 C 17.964 20.328,17.980 20.256,17.980 20.000 C 17.980 19.746,17.963 19.672,17.872 19.516 C 17.740 19.293,17.533 19.128,17.290 19.055 C 17.031 18.977,11.944 18.979,11.695 19.057 " stroke="none" fill-rule="evenodd" fill="black"></path></svg>