<svg width="24" height="24" viewBox="0 0 24 24" fill="none" xmlns="http://www.w3.org/2000/svg"><path d="M13.340 3.024 C 12.026 3.160,11.091 3.415,10.060 3.918 C 8.244 4.804,6.840 6.202,5.939 8.020 C 5.023 9.867,4.767 11.964,5.236 13.786 C 5.866 16.236,7.930 18.247,10.380 18.800 C 10.933 18.925,10.938 18.929,10.600 18.970 C 10.226 19.015,9.331 18.981,8.880 18.905 C 6.359 18.482,4.283 16.759,3.427 14.380 C 3.172 13.672,3.102 13.319,3.022 12.331 C 2.975 11.759,2.957 11.661,2.865 11.505 C 2.481 10.849,1.517 10.852,1.132 11.510 C 0.998 11.739,0.969 12.142,1.038 12.827 C 1.314 15.590,2.769 18.002,5.080 19.531 C 6.207 20.277,7.596 20.777,8.992 20.941 C 12.004 21.293,15.085 20.029,16.998 17.657 C 18.685 15.565,19.386 12.667,18.783 10.280 C 18.220 8.054,16.543 6.206,14.380 5.427 C 13.928 5.264,13.381 5.120,13.215 5.120 C 13.131 5.120,13.115 5.109,13.150 5.074 C 13.215 5.009,14.527 5.010,14.980 5.075 C 17.549 5.447,19.700 7.195,20.573 9.620 C 20.828 10.329,20.898 10.681,20.979 11.673 C 21.028 12.274,21.041 12.340,21.147 12.513 C 21.542 13.154,22.460 13.151,22.856 12.508 C 22.956 12.345,22.977 12.263,22.992 11.980 C 23.030 11.255,22.843 10.094,22.538 9.169 C 21.485 5.966,18.680 3.608,15.320 3.101 C 14.911 3.039,13.662 2.991,13.340 3.024 M12.552 7.043 C 14.413 7.246,16.001 8.479,16.680 10.248 C 17.092 11.320,17.085 12.720,16.663 13.793 C 16.120 15.174,14.991 16.256,13.600 16.732 C 13.044 16.922,12.670 16.980,12.000 16.980 C 11.330 16.980,10.956 16.922,10.400 16.732 C 8.808 16.188,7.580 14.864,7.161 13.240 C 6.920 12.307,6.983 11.125,7.320 10.248 C 8.146 8.096,10.274 6.793,12.552 7.043 M11.477 10.073 C 10.806 10.249,10.238 10.823,10.060 11.508 C 9.941 11.962,10.003 12.492,10.225 12.930 C 10.361 13.199,10.801 13.639,11.070 13.775 C 11.659 14.073,12.341 14.073,12.930 13.775 C 13.196 13.640,13.638 13.200,13.771 12.937 C 13.994 12.498,14.052 12.007,13.940 11.529 C 13.858 11.182,13.720 10.927,13.465 10.653 C 13.074 10.232,12.560 10.005,12.000 10.005 C 11.857 10.005,11.622 10.036,11.477 10.073 " stroke="none" fill-rule="evenodd" fill="black"></path></svg>