<svg width="24" height="24" viewBox="0 0 24 24" fill="none" xmlns="http://www.w3.org/2000/svg"><path d="M10.720 2.025 C 6.320 2.242,3.055 3.405,2.243 5.045 C 1.598 6.346,2.269 7.651,4.040 8.540 C 5.395 9.221,7.248 9.676,9.600 9.908 C 10.595 10.005,13.405 10.005,14.400 9.908 C 17.174 9.635,19.324 9.029,20.639 8.149 C 22.177 7.120,22.437 5.548,21.263 4.379 C 20.078 3.198,17.643 2.394,14.360 2.099 C 13.694 2.040,11.380 1.992,10.720 2.025 M13.380 4.041 C 15.749 4.169,17.637 4.567,18.985 5.221 C 19.391 5.418,19.565 5.529,19.755 5.709 C 19.890 5.837,20.000 5.964,20.000 5.991 C 20.000 6.063,19.730 6.350,19.535 6.483 C 18.579 7.141,16.663 7.664,14.320 7.907 C 13.381 8.004,10.619 8.004,9.680 7.907 C 7.374 7.668,5.533 7.174,4.540 6.529 C 4.292 6.369,4.000 6.077,4.000 5.991 C 4.000 5.964,4.110 5.837,4.245 5.709 C 4.822 5.160,6.409 4.585,8.120 4.305 C 9.742 4.039,11.616 3.945,13.380 4.041 M4.099 10.755 C 3.464 11.043,3.310 11.874,3.800 12.364 C 4.156 12.719,5.397 13.247,6.614 13.559 C 9.722 14.357,14.278 14.357,17.386 13.559 C 18.603 13.247,19.844 12.719,20.200 12.364 C 20.590 11.974,20.589 11.355,20.197 10.964 C 20.006 10.772,19.784 10.682,19.503 10.681 C 19.289 10.680,19.210 10.708,18.703 10.958 C 18.049 11.281,17.629 11.434,16.880 11.620 C 15.428 11.981,13.816 12.160,12.000 12.160 C 10.598 12.160,9.464 12.068,8.240 11.855 C 6.968 11.634,6.173 11.392,5.297 10.958 C 4.790 10.707,4.711 10.680,4.497 10.681 C 4.355 10.681,4.196 10.711,4.099 10.755 M5.600 15.523 C 5.012 15.789,4.829 16.461,5.193 17.012 C 5.319 17.203,5.530 17.328,5.985 17.482 C 7.040 17.838,8.361 18.098,9.880 18.247 C 10.609 18.319,13.391 18.319,14.120 18.247 C 15.954 18.067,17.910 17.631,18.538 17.263 C 18.839 17.087,19.026 16.703,18.988 16.339 C 18.950 15.963,18.745 15.680,18.400 15.523 C 18.125 15.399,17.900 15.417,17.283 15.616 C 16.394 15.903,15.292 16.117,14.040 16.248 C 13.720 16.281,12.984 16.300,12.000 16.300 C 11.016 16.300,10.280 16.281,9.960 16.248 C 8.708 16.117,7.606 15.903,6.717 15.616 C 6.100 15.417,5.875 15.399,5.600 15.523 M7.040 19.623 C 6.784 19.769,6.698 19.860,6.598 20.094 C 6.383 20.593,6.589 21.170,7.059 21.385 C 7.437 21.558,8.757 21.798,10.040 21.928 C 10.705 21.995,13.295 21.995,13.960 21.928 C 15.243 21.798,16.563 21.558,16.941 21.385 C 17.271 21.234,17.490 20.880,17.491 20.496 C 17.492 19.968,17.060 19.520,16.548 19.520 C 16.430 19.520,16.081 19.573,15.774 19.638 C 13.495 20.122,10.505 20.122,8.226 19.638 C 7.522 19.489,7.281 19.486,7.040 19.623 " stroke="none" fill-rule="evenodd" fill="black"></path></svg>