<svg width="24" height="24" viewBox="0 0 24 24" fill="none" xmlns="http://www.w3.org/2000/svg"><path d="M2.695 3.057 C 2.466 3.129,2.256 3.299,2.128 3.516 C 2.037 3.672,2.020 3.746,2.020 4.000 C 2.020 4.256,2.036 4.328,2.131 4.489 C 2.256 4.702,2.449 4.864,2.670 4.943 C 2.893 5.023,21.107 5.023,21.330 4.943 C 21.551 4.864,21.744 4.702,21.869 4.489 C 21.964 4.328,21.980 4.256,21.980 4.000 C 21.980 3.746,21.963 3.672,21.872 3.516 C 21.740 3.293,21.533 3.128,21.290 3.055 C 21.027 2.976,2.947 2.978,2.695 3.057 M13.686 7.040 C 12.869 7.162,12.233 7.765,12.061 8.581 C 11.973 8.995,11.973 15.005,12.061 15.419 C 12.147 15.827,12.298 16.104,12.597 16.403 C 12.896 16.702,13.173 16.853,13.581 16.939 C 13.995 17.027,20.005 17.027,20.419 16.940 C 20.818 16.855,21.102 16.699,21.401 16.401 C 21.699 16.102,21.855 15.818,21.940 15.419 C 22.027 15.005,22.027 8.995,21.939 8.581 C 21.791 7.881,21.332 7.364,20.635 7.112 L 20.380 7.020 17.140 7.014 C 15.358 7.011,13.804 7.023,13.686 7.040 M2.800 8.277 C 2.309 8.378,1.961 8.849,2.012 9.340 C 2.050 9.717,2.254 10.000,2.600 10.157 C 2.776 10.237,2.846 10.238,6.000 10.238 C 9.154 10.238,9.224 10.237,9.400 10.157 C 9.746 10.000,9.950 9.717,9.988 9.340 C 10.030 8.938,9.812 8.556,9.423 8.347 L 9.260 8.260 6.100 8.254 C 4.362 8.251,2.877 8.261,2.800 8.277 M20.000 12.000 L 20.000 15.000 17.000 15.000 L 14.000 15.000 14.000 12.000 L 14.000 9.000 17.000 9.000 L 20.000 9.000 20.000 12.000 M2.600 13.843 C 2.254 14.000,2.050 14.283,2.012 14.660 C 1.970 15.062,2.188 15.444,2.577 15.653 L 2.740 15.740 6.000 15.740 L 9.260 15.740 9.423 15.653 C 10.196 15.239,10.183 14.197,9.400 13.843 C 9.224 13.763,9.154 13.762,6.000 13.762 C 2.846 13.762,2.776 13.763,2.600 13.843 M2.695 19.057 C 2.466 19.129,2.256 19.299,2.128 19.516 C 2.037 19.672,2.020 19.746,2.020 20.000 C 2.020 20.256,2.036 20.328,2.131 20.489 C 2.256 20.702,2.449 20.864,2.670 20.943 C 2.893 21.023,21.107 21.023,21.330 20.943 C 21.551 20.864,21.744 20.702,21.869 20.489 C 21.964 20.328,21.980 20.256,21.980 20.000 C 21.980 19.746,21.963 19.672,21.872 19.516 C 21.740 19.293,21.533 19.128,21.290 19.055 C 21.027 18.976,2.947 18.978,2.695 19.057 " stroke="none" fill-rule="evenodd" fill="black"></path></svg>