<svg width="24" height="24" viewBox="0 0 24 24" fill="none" xmlns="http://www.w3.org/2000/svg"><path d="M11.280 1.023 C 11.203 1.032,10.951 1.059,10.720 1.083 C 9.527 1.210,8.337 1.558,7.180 2.120 C 6.045 2.671,5.193 3.285,4.238 4.239 C 3.277 5.198,2.643 6.080,2.097 7.220 C 0.301 10.968,0.728 15.286,3.226 18.633 C 3.701 19.269,4.753 20.316,5.400 20.797 C 9.364 23.745,14.666 23.734,18.637 20.770 C 19.246 20.316,20.316 19.246,20.770 18.637 C 23.744 14.652,23.744 9.348,20.770 5.363 C 20.316 4.755,19.247 3.686,18.640 3.235 C 17.045 2.049,15.365 1.360,13.423 1.096 C 13.000 1.038,11.574 0.990,11.280 1.023 M13.320 3.101 C 15.883 3.488,18.124 4.931,19.560 7.120 C 19.863 7.583,20.303 8.479,20.492 9.020 C 20.896 10.180,21.071 11.555,20.963 12.740 C 20.937 13.026,20.905 13.302,20.893 13.353 C 20.872 13.435,20.659 13.236,19.065 11.651 C 18.022 10.613,17.171 9.800,17.050 9.723 C 16.431 9.335,15.572 9.334,14.950 9.723 C 14.818 9.805,13.108 11.482,10.333 14.253 L 5.926 18.653 5.596 18.316 C 4.460 17.156,3.640 15.693,3.267 14.160 C 3.081 13.397,3.023 12.888,3.023 12.000 C 3.023 10.507,3.280 9.379,3.920 8.060 C 4.971 5.891,6.877 4.221,9.160 3.466 C 9.865 3.233,10.432 3.118,11.340 3.024 C 11.662 2.991,12.911 3.039,13.320 3.101 M7.808 5.581 C 6.875 5.784,5.969 6.601,5.668 7.510 C 5.220 8.866,5.724 10.282,6.933 11.060 C 7.822 11.632,9.178 11.632,10.067 11.060 C 11.275 10.282,11.780 8.866,11.332 7.511 C 11.028 6.591,10.122 5.780,9.174 5.579 C 8.834 5.507,8.143 5.508,7.808 5.581 M9.023 7.662 C 9.306 7.836,9.454 8.094,9.474 8.446 C 9.487 8.683,9.474 8.751,9.379 8.945 C 9.030 9.658,8.000 9.669,7.631 8.963 C 7.372 8.468,7.558 7.869,8.049 7.622 C 8.230 7.530,8.300 7.517,8.544 7.528 C 8.776 7.539,8.863 7.563,9.023 7.662 M18.128 13.548 L 20.236 15.655 20.012 16.091 C 19.580 16.937,19.006 17.717,18.316 18.400 C 17.596 19.112,16.908 19.601,15.980 20.061 C 13.500 21.291,10.599 21.310,8.111 20.113 C 7.830 19.977,7.600 19.856,7.600 19.843 C 7.600 19.815,15.972 11.440,16.000 11.440 C 16.011 11.440,16.968 12.388,18.128 13.548 " stroke="none" fill-rule="evenodd" fill="black"></path></svg>