<svg width="24" height="24" viewBox="0 0 24 24" fill="none" xmlns="http://www.w3.org/2000/svg"><path d="M5.920 2.041 C 5.151 2.092,4.672 2.205,4.180 2.451 C 3.089 2.996,2.357 3.961,2.124 5.160 C 2.013 5.729,2.000 6.455,2.000 12.000 C 2.000 18.358,2.006 18.526,2.245 19.320 C 2.577 20.422,3.578 21.423,4.680 21.755 C 5.474 21.994,5.642 22.000,12.000 22.000 C 18.358 22.000,18.526 21.994,19.320 21.755 C 20.422 21.423,21.423 20.422,21.755 19.320 C 21.994 18.526,22.000 18.358,22.000 12.000 C 22.000 5.642,21.994 5.474,21.755 4.680 C 21.424 3.581,20.465 2.622,19.320 2.246 C 18.644 2.024,18.800 2.029,12.340 2.019 C 9.062 2.014,6.173 2.024,5.920 2.041 M18.492 4.091 C 18.894 4.188,19.109 4.309,19.400 4.600 C 19.696 4.895,19.814 5.109,19.912 5.528 C 19.975 5.797,19.980 6.313,19.980 12.000 C 19.980 17.687,19.975 18.203,19.912 18.472 C 19.814 18.891,19.696 19.104,19.400 19.401 C 19.101 19.701,18.820 19.851,18.418 19.928 C 18.010 20.005,5.990 20.005,5.582 19.927 C 5.170 19.850,4.898 19.704,4.600 19.403 C 4.303 19.104,4.186 18.890,4.088 18.472 C 4.025 18.203,4.020 17.687,4.020 12.000 C 4.020 6.313,4.025 5.797,4.088 5.528 C 4.175 5.155,4.294 4.918,4.520 4.667 C 4.883 4.262,5.282 4.091,5.980 4.039 C 6.200 4.023,9.044 4.013,12.300 4.018 C 17.643 4.024,18.247 4.032,18.492 4.091 M13.000 6.650 C 12.803 6.768,12.695 6.903,11.816 8.134 C 11.284 8.878,10.829 9.507,10.806 9.530 C 10.777 9.559,10.584 9.437,10.162 9.122 C 9.408 8.558,9.335 8.520,9.002 8.521 C 8.694 8.522,8.479 8.608,8.292 8.805 C 8.160 8.943,5.208 14.307,5.074 14.650 C 4.931 15.019,5.016 15.418,5.299 15.701 C 5.621 16.024,5.095 16.000,12.017 15.998 C 18.675 15.996,18.325 16.008,18.619 15.783 C 18.917 15.556,19.071 15.081,18.960 14.736 C 18.910 14.581,14.411 7.046,14.237 6.825 C 14.095 6.645,13.787 6.521,13.478 6.520 C 13.254 6.520,13.186 6.538,13.000 6.650 M14.855 11.706 C 15.595 12.942,16.200 13.964,16.200 13.976 C 16.200 13.989,14.285 14.000,11.943 14.000 L 7.687 14.000 8.488 12.530 C 8.928 11.722,9.300 11.048,9.314 11.033 C 9.328 11.018,9.615 11.211,9.951 11.461 C 10.613 11.956,10.761 12.023,11.116 11.987 C 11.530 11.944,11.608 11.866,12.555 10.545 C 13.252 9.573,13.419 9.362,13.459 9.406 C 13.487 9.436,14.115 10.471,14.855 11.706 " stroke="none" fill-rule="evenodd" fill="black"></path></svg>