<svg width="24" height="24" viewBox="0 0 24 24" fill="none" xmlns="http://www.w3.org/2000/svg"><path d="M4.920 2.041 C 4.152 2.092,3.672 2.205,3.180 2.451 C 2.089 2.996,1.357 3.961,1.124 5.160 C 1.013 5.729,1.000 6.455,1.000 12.000 C 1.000 18.358,1.006 18.526,1.245 19.320 C 1.577 20.422,2.578 21.423,3.680 21.755 C 4.485 21.998,4.567 22.000,12.000 22.000 C 19.433 22.000,19.515 21.998,20.320 21.755 C 21.422 21.423,22.423 20.422,22.755 19.320 C 22.994 18.526,23.000 18.358,23.000 12.000 C 23.000 5.642,22.994 5.474,22.755 4.680 C 22.424 3.581,21.465 2.622,20.320 2.246 C 19.635 2.021,19.900 2.028,12.340 2.019 C 8.512 2.014,5.173 2.024,4.920 2.041 M19.492 4.091 C 19.642 4.127,19.849 4.198,19.952 4.248 C 20.194 4.366,20.634 4.806,20.752 5.048 C 20.970 5.496,20.971 5.506,20.989 9.180 L 21.006 12.580 20.153 11.737 C 19.684 11.273,19.201 10.827,19.080 10.746 C 18.469 10.336,17.581 10.326,16.950 10.724 C 16.835 10.797,16.124 11.467,15.372 12.214 L 14.003 13.572 13.638 13.225 C 13.438 13.034,13.181 12.815,13.067 12.738 C 12.473 12.336,11.579 12.330,10.950 12.723 C 10.820 12.804,9.437 14.154,7.312 16.274 L 3.885 19.693 3.612 19.417 C 3.304 19.104,3.187 18.893,3.088 18.472 C 3.025 18.203,3.020 17.687,3.020 12.000 C 3.020 6.313,3.025 5.797,3.088 5.528 C 3.175 5.155,3.294 4.918,3.520 4.667 C 3.883 4.262,4.282 4.090,4.980 4.039 C 5.200 4.023,8.494 4.013,12.300 4.017 C 18.585 4.024,19.245 4.031,19.492 4.091 M7.499 6.040 C 6.363 6.246,5.460 7.049,5.114 8.160 C 4.979 8.594,4.979 9.406,5.114 9.840 C 5.421 10.826,6.174 11.579,7.160 11.886 C 7.594 12.021,8.406 12.021,8.840 11.886 C 9.826 11.579,10.579 10.826,10.886 9.840 C 11.021 9.406,11.021 8.594,10.886 8.160 C 10.581 7.179,9.810 6.407,8.861 6.129 C 8.500 6.023,7.832 5.980,7.499 6.040 M8.310 8.061 C 8.688 8.173,9.000 8.598,9.000 9.001 C 9.000 9.331,8.784 9.696,8.484 9.872 C 8.328 9.963,8.254 9.980,8.000 9.980 C 7.746 9.980,7.672 9.963,7.516 9.872 C 6.935 9.530,6.833 8.774,7.304 8.303 C 7.583 8.024,7.916 7.944,8.310 8.061 M19.516 13.936 L 21.012 15.432 20.988 16.826 C 20.956 18.692,20.912 18.885,20.387 19.417 L 20.114 19.694 17.767 17.347 L 15.420 15.000 16.700 13.720 C 17.404 13.016,17.989 12.440,18.000 12.440 C 18.011 12.440,18.693 13.113,19.516 13.936 M14.800 17.220 L 17.580 20.000 12.000 20.000 L 6.420 20.000 9.200 17.220 C 10.729 15.691,11.989 14.440,12.000 14.440 C 12.011 14.440,13.271 15.691,14.800 17.220 " stroke="none" fill-rule="evenodd" fill="black"></path></svg>