<svg width="24" height="24" viewBox="0 0 24 24" fill="none" xmlns="http://www.w3.org/2000/svg"><path d="M4.920 1.042 C 4.155 1.091,3.674 1.204,3.180 1.451 C 2.089 1.996,1.357 2.961,1.124 4.160 C 1.012 4.738,1.000 5.470,1.000 12.000 C 1.000 18.711,1.008 19.191,1.139 19.940 C 1.354 21.174,2.446 22.384,3.680 22.755 C 4.485 22.998,4.567 23.000,12.000 23.000 C 19.433 23.000,19.515 22.998,20.320 22.755 C 21.422 22.423,22.425 21.421,22.755 20.320 C 22.988 19.543,23.006 19.148,22.992 15.160 L 22.980 11.700 22.871 11.514 C 22.479 10.848,21.521 10.848,21.129 11.514 L 21.020 11.700 20.996 15.460 C 20.970 19.523,20.971 19.502,20.752 19.952 C 20.624 20.215,20.190 20.637,19.909 20.772 C 19.692 20.877,19.070 21.004,19.020 20.954 C 19.008 20.941,18.981 20.742,18.961 20.510 C 18.861 19.373,18.413 18.395,17.604 17.548 C 16.974 16.889,16.171 16.410,15.310 16.179 C 14.687 16.012,14.040 15.994,9.480 16.010 C 4.956 16.027,5.129 16.019,4.441 16.245 C 4.091 16.361,3.541 16.632,3.241 16.836 L 2.996 17.003 3.011 10.892 C 3.026 4.233,3.016 4.524,3.248 4.048 C 3.366 3.806,3.806 3.366,4.048 3.248 C 4.498 3.029,4.477 3.030,8.540 3.004 L 12.300 2.980 12.492 2.867 C 13.248 2.423,13.123 1.306,12.290 1.055 C 12.141 1.010,11.491 1.001,8.744 1.006 C 6.894 1.009,5.173 1.025,4.920 1.042 M18.640 1.069 C 18.488 1.121,18.208 1.381,16.847 2.735 C 15.960 3.618,15.186 4.421,15.127 4.520 C 15.037 4.672,15.020 4.746,15.020 5.000 C 15.020 5.254,15.036 5.328,15.127 5.480 C 15.261 5.704,18.371 8.807,18.555 8.899 C 19.009 9.128,19.601 8.944,19.867 8.492 C 19.964 8.327,19.980 8.258,19.979 8.000 C 19.979 7.787,19.957 7.660,19.904 7.560 C 19.864 7.483,19.514 7.100,19.127 6.710 L 18.423 6.000 20.301 5.998 C 21.766 5.997,22.213 5.985,22.330 5.943 C 22.551 5.864,22.744 5.702,22.869 5.489 C 22.964 5.328,22.980 5.256,22.980 5.000 C 22.980 4.746,22.963 4.672,22.872 4.516 C 22.813 4.415,22.698 4.282,22.618 4.221 C 22.337 4.007,22.265 4.000,20.265 4.000 L 18.423 4.000 19.127 3.290 C 19.514 2.899,19.864 2.517,19.904 2.440 C 19.957 2.340,19.979 2.213,19.979 2.000 C 19.980 1.745,19.964 1.672,19.872 1.516 C 19.617 1.083,19.121 0.902,18.640 1.069 M9.100 4.586 C 7.789 4.823,6.565 5.635,5.822 6.761 C 5.150 7.780,4.870 9.071,5.061 10.262 C 5.599 13.603,9.169 15.457,12.213 13.977 C 13.037 13.576,13.807 12.864,14.294 12.053 C 15.267 10.432,15.221 8.343,14.178 6.761 C 13.424 5.618,12.200 4.815,10.860 4.583 C 10.414 4.505,9.539 4.507,9.100 4.586 M10.677 6.579 C 11.730 6.801,12.655 7.714,12.925 8.800 C 12.996 9.086,12.996 9.914,12.925 10.200 C 12.657 11.278,11.754 12.176,10.689 12.424 C 10.340 12.506,9.660 12.506,9.311 12.424 C 8.425 12.218,7.674 11.598,7.282 10.749 C 7.070 10.291,7.021 10.056,7.021 9.500 C 7.021 8.944,7.070 8.709,7.282 8.251 C 7.671 7.409,8.443 6.769,9.293 6.582 C 9.630 6.508,10.332 6.507,10.677 6.579 M14.804 18.109 C 15.113 18.206,15.489 18.387,15.729 18.554 C 15.921 18.688,16.343 19.114,16.475 19.307 C 16.745 19.703,16.943 20.281,16.971 20.751 L 16.985 21.003 10.863 20.988 C 6.112 20.977,4.691 20.963,4.520 20.923 C 4.035 20.812,3.574 20.487,3.323 20.079 L 3.202 19.882 3.341 19.615 C 3.765 18.801,4.590 18.197,5.485 18.044 C 5.609 18.023,7.565 18.011,10.120 18.017 C 14.459 18.026,14.545 18.028,14.804 18.109 " stroke="none" fill-rule="evenodd" fill="black"></path></svg>