<svg width="24" height="24" viewBox="0 0 24 24" fill="none" xmlns="http://www.w3.org/2000/svg"><path d="M5.920 2.041 C 5.151 2.092,4.672 2.205,4.180 2.451 C 3.089 2.996,2.357 3.961,2.124 5.160 C 2.013 5.729,2.000 6.455,2.000 12.000 C 2.000 18.358,2.006 18.526,2.245 19.320 C 2.577 20.422,3.578 21.423,4.680 21.755 C 5.474 21.994,5.642 22.000,12.000 22.000 C 18.358 22.000,18.526 21.994,19.320 21.755 C 20.422 21.423,21.423 20.422,21.755 19.320 C 21.994 18.526,22.000 18.358,22.000 12.000 C 22.000 5.642,21.994 5.474,21.755 4.680 C 21.424 3.581,20.465 2.622,19.320 2.246 C 18.644 2.024,18.800 2.029,12.340 2.019 C 9.062 2.014,6.173 2.024,5.920 2.041 M18.492 4.091 C 18.642 4.127,18.849 4.198,18.952 4.248 C 19.194 4.366,19.634 4.806,19.752 5.048 C 19.970 5.496,19.971 5.506,19.989 9.180 L 20.006 12.580 18.633 11.218 C 17.878 10.469,17.165 9.797,17.050 9.724 C 16.432 9.335,15.573 9.334,14.950 9.723 C 14.728 9.861,5.399 19.140,5.130 19.490 C 5.049 19.594,4.958 19.680,4.928 19.680 C 4.837 19.680,4.347 19.156,4.248 18.952 C 4.198 18.849,4.126 18.633,4.088 18.472 C 4.025 18.203,4.020 17.687,4.020 12.000 C 4.020 6.313,4.025 5.797,4.088 5.528 C 4.175 5.155,4.294 4.918,4.520 4.667 C 4.883 4.262,5.282 4.091,5.980 4.039 C 6.200 4.023,9.044 4.013,12.300 4.018 C 17.643 4.024,18.247 4.032,18.492 4.091 M7.808 5.581 C 6.875 5.784,5.969 6.601,5.668 7.510 C 5.220 8.866,5.724 10.282,6.933 11.060 C 7.822 11.632,9.178 11.632,10.067 11.060 C 11.275 10.282,11.780 8.866,11.332 7.511 C 11.028 6.591,10.122 5.780,9.174 5.579 C 8.834 5.507,8.143 5.508,7.808 5.581 M9.023 7.662 C 9.306 7.836,9.454 8.094,9.474 8.446 C 9.487 8.683,9.474 8.751,9.379 8.945 C 9.030 9.658,8.000 9.669,7.631 8.963 C 7.372 8.468,7.558 7.869,8.049 7.622 C 8.230 7.530,8.300 7.517,8.544 7.528 C 8.776 7.539,8.863 7.563,9.023 7.662 M18.016 13.436 L 20.012 15.432 19.988 16.826 C 19.957 18.684,19.909 18.891,19.400 19.401 C 19.120 19.681,18.839 19.841,18.480 19.923 C 18.311 19.962,17.014 19.977,12.840 19.988 L 7.420 20.002 11.700 15.721 C 14.054 13.366,15.989 11.440,16.000 11.440 C 16.011 11.440,16.918 12.338,18.016 13.436 " stroke="none" fill-rule="evenodd" fill="black"></path></svg>