<svg width="24" height="24" viewBox="0 0 24 24" fill="none" xmlns="http://www.w3.org/2000/svg"><path d="M2.695 3.057 C 2.466 3.129,2.256 3.299,2.128 3.516 C 2.037 3.672,2.020 3.746,2.020 4.000 C 2.020 4.256,2.036 4.328,2.131 4.489 C 2.256 4.702,2.449 4.864,2.670 4.943 C 2.893 5.023,21.107 5.023,21.330 4.943 C 21.551 4.864,21.744 4.702,21.869 4.489 C 21.964 4.328,21.980 4.256,21.980 4.000 C 21.980 3.746,21.963 3.672,21.872 3.516 C 21.740 3.293,21.533 3.128,21.290 3.055 C 21.027 2.976,2.947 2.978,2.695 3.057 M3.686 7.040 C 2.869 7.162,2.233 7.765,2.061 8.581 C 1.973 8.995,1.973 15.005,2.061 15.419 C 2.147 15.827,2.298 16.104,2.597 16.403 C 2.896 16.702,3.173 16.853,3.581 16.939 C 3.995 17.027,10.005 17.027,10.419 16.940 C 10.818 16.855,11.102 16.699,11.401 16.401 C 11.699 16.102,11.855 15.818,11.940 15.419 C 12.027 15.005,12.027 8.995,11.939 8.581 C 11.791 7.881,11.332 7.364,10.635 7.112 L 10.380 7.020 7.140 7.014 C 5.358 7.011,3.804 7.023,3.686 7.040 M14.800 8.277 C 14.309 8.378,13.961 8.849,14.012 9.340 C 14.050 9.717,14.254 10.000,14.600 10.157 C 14.776 10.237,14.846 10.238,18.000 10.238 C 21.154 10.238,21.224 10.237,21.400 10.157 C 21.746 10.000,21.950 9.717,21.988 9.340 C 22.030 8.938,21.812 8.556,21.423 8.347 L 21.260 8.260 18.100 8.254 C 16.362 8.251,14.877 8.261,14.800 8.277 M10.000 12.000 L 10.000 15.000 7.000 15.000 L 4.000 15.000 4.000 12.000 L 4.000 9.000 7.000 9.000 L 10.000 9.000 10.000 12.000 M14.600 13.843 C 14.254 14.000,14.050 14.283,14.012 14.660 C 13.970 15.062,14.188 15.444,14.577 15.653 L 14.740 15.740 18.000 15.740 L 21.260 15.740 21.423 15.653 C 22.196 15.239,22.183 14.197,21.400 13.843 C 21.224 13.763,21.154 13.762,18.000 13.762 C 14.846 13.762,14.776 13.763,14.600 13.843 M2.695 19.057 C 2.466 19.129,2.256 19.299,2.128 19.516 C 2.037 19.672,2.020 19.746,2.020 20.000 C 2.020 20.256,2.036 20.328,2.131 20.489 C 2.256 20.702,2.449 20.864,2.670 20.943 C 2.893 21.023,21.107 21.023,21.330 20.943 C 21.551 20.864,21.744 20.702,21.869 20.489 C 21.964 20.328,21.980 20.256,21.980 20.000 C 21.980 19.746,21.963 19.672,21.872 19.516 C 21.740 19.293,21.533 19.128,21.290 19.055 C 21.027 18.976,2.947 18.978,2.695 19.057 " stroke="none" fill-rule="evenodd" fill="black"></path></svg>