<svg width="24" height="24" viewBox="0 0 24 24" fill="none" xmlns="http://www.w3.org/2000/svg"><path d="M16.044 1.625 C 15.540 1.876,15.346 2.567,15.651 3.020 C 15.695 3.086,16.147 3.559,16.655 4.070 L 17.579 5.000 16.655 5.930 C 16.147 6.441,15.695 6.914,15.651 6.980 C 15.373 7.392,15.510 8.024,15.940 8.320 C 16.238 8.525,16.740 8.540,17.017 8.352 C 17.085 8.306,17.558 7.853,18.070 7.345 L 19.000 6.421 19.930 7.345 C 20.442 7.853,20.915 8.306,20.981 8.351 C 21.384 8.624,22.047 8.475,22.330 8.048 C 22.525 7.753,22.536 7.254,22.352 6.983 C 22.306 6.915,21.853 6.441,21.345 5.930 L 20.421 5.000 21.345 4.070 C 21.853 3.559,22.306 3.085,22.351 3.019 C 22.468 2.846,22.514 2.545,22.462 2.291 C 22.369 1.831,21.980 1.519,21.502 1.521 C 21.089 1.522,20.997 1.588,19.950 2.631 L 19.000 3.578 18.050 2.631 C 17.371 1.954,17.049 1.661,16.920 1.603 C 16.654 1.483,16.313 1.492,16.044 1.625 M5.920 2.041 C 5.153 2.092,4.673 2.205,4.180 2.451 C 3.089 2.996,2.357 3.961,2.124 5.160 C 2.013 5.729,2.000 6.455,2.000 12.000 C 2.000 18.358,2.006 18.526,2.245 19.320 C 2.518 20.228,3.251 21.085,4.141 21.535 C 4.613 21.775,5.072 21.891,5.820 21.959 C 6.412 22.014,18.013 22.014,18.489 21.959 C 19.083 21.891,19.732 21.648,20.270 21.292 C 20.566 21.097,21.097 20.566,21.292 20.270 C 21.661 19.713,21.895 19.073,21.965 18.433 C 21.991 18.188,22.001 17.528,21.990 16.727 C 21.973 15.554,21.963 15.393,21.890 15.160 C 21.706 14.577,21.477 14.200,21.072 13.818 C 20.681 13.450,17.239 10.702,17.029 10.591 C 16.703 10.419,16.497 10.357,16.176 10.333 C 15.684 10.296,15.264 10.423,14.837 10.736 C 14.546 10.950,5.400 19.281,5.196 19.519 L 5.011 19.733 4.868 19.645 C 4.672 19.524,4.359 19.173,4.248 18.949 C 4.198 18.848,4.126 18.633,4.088 18.472 C 4.025 18.203,4.020 17.687,4.020 12.000 C 4.020 6.313,4.025 5.797,4.088 5.528 C 4.126 5.367,4.198 5.151,4.248 5.048 C 4.366 4.806,4.806 4.366,5.048 4.248 C 5.494 4.031,5.503 4.030,9.280 4.004 C 12.769 3.980,12.780 3.980,12.940 3.894 C 13.293 3.703,13.488 3.385,13.488 3.000 C 13.488 2.615,13.293 2.297,12.940 2.106 C 12.780 2.020,12.780 2.020,9.580 2.016 C 7.820 2.013,6.173 2.025,5.920 2.041 M7.808 5.581 C 6.875 5.784,5.969 6.601,5.668 7.510 C 5.220 8.866,5.724 10.282,6.933 11.060 C 7.822 11.632,9.178 11.632,10.067 11.060 C 11.275 10.282,11.780 8.866,11.332 7.511 C 11.028 6.591,10.122 5.780,9.174 5.579 C 8.834 5.507,8.143 5.508,7.808 5.581 M9.023 7.662 C 9.306 7.836,9.454 8.094,9.474 8.446 C 9.487 8.683,9.474 8.751,9.379 8.945 C 9.030 9.658,8.000 9.669,7.631 8.963 C 7.372 8.468,7.558 7.869,8.049 7.622 C 8.230 7.530,8.300 7.517,8.544 7.528 C 8.776 7.539,8.863 7.563,9.023 7.662 M17.897 13.804 C 19.942 15.443,19.774 15.298,19.888 15.520 C 19.979 15.697,19.980 15.720,19.977 16.960 C 19.975 17.710,19.956 18.310,19.930 18.444 C 19.795 19.121,19.253 19.709,18.580 19.907 C 18.357 19.973,17.967 19.979,12.960 19.990 C 8.362 20.001,7.589 19.995,7.640 19.947 C 7.673 19.916,9.491 18.266,11.680 16.279 C 13.869 14.292,15.747 12.587,15.852 12.489 C 16.025 12.330,16.052 12.318,16.112 12.370 C 16.150 12.402,16.953 13.047,17.897 13.804 " stroke="none" fill-rule="evenodd" fill="black"></path></svg>