<svg width="24" height="24" viewBox="0 0 24 24" fill="none" xmlns="http://www.w3.org/2000/svg"><path d="M17.358 2.061 C 16.230 2.237,15.143 2.974,14.569 3.953 C 13.320 6.083,14.233 8.785,16.512 9.704 C 18.558 10.528,20.877 9.538,21.704 7.488 C 22.090 6.530,22.090 5.469,21.705 4.516 C 21.172 3.197,20.001 2.269,18.605 2.058 C 18.144 1.989,17.816 1.990,17.358 2.061 M18.523 4.073 C 19.262 4.266,19.850 4.924,19.967 5.690 C 20.029 6.098,19.967 6.522,19.793 6.880 C 19.638 7.198,19.227 7.625,18.930 7.775 C 18.492 7.997,17.962 8.059,17.508 7.940 C 16.823 7.762,16.249 7.194,16.073 6.523 C 15.683 5.028,17.028 3.683,18.523 4.073 M9.474 7.834 C 9.018 7.953,8.638 8.259,8.199 8.860 C 7.386 9.974,1.368 18.722,1.224 19.000 C 1.000 19.432,0.920 19.706,0.920 20.039 C 0.920 20.547,1.094 20.990,1.431 21.336 C 1.805 21.721,2.140 21.878,2.761 21.959 C 3.002 21.990,5.727 21.999,12.240 21.991 C 20.762 21.979,21.397 21.973,21.633 21.909 C 22.028 21.801,22.306 21.644,22.558 21.389 C 22.942 21.000,23.120 20.573,23.120 20.039 C 23.120 19.738,23.047 19.459,22.868 19.081 C 22.662 18.645,18.721 12.765,18.422 12.448 C 17.789 11.777,16.915 11.617,16.111 12.024 C 15.828 12.168,15.497 12.494,15.177 12.946 C 15.029 13.154,14.896 13.310,14.881 13.292 C 14.865 13.275,14.244 12.378,13.500 11.300 C 12.757 10.222,12.018 9.160,11.859 8.940 C 11.538 8.497,11.195 8.150,10.919 7.989 C 10.542 7.769,9.963 7.706,9.474 7.834 M10.100 9.911 C 10.144 9.971,11.732 12.261,13.629 15.000 L 17.077 19.980 10.069 19.990 C 6.214 19.996,3.037 19.992,3.009 19.981 C 2.941 19.955,2.703 20.307,6.456 14.880 C 9.882 9.927,9.968 9.803,10.000 9.803 C 10.011 9.803,10.056 9.851,10.100 9.911 M18.772 16.462 C 20.406 18.902,21.080 19.930,21.080 19.978 C 21.080 19.990,20.730 20.000,20.302 20.000 L 19.525 20.000 17.828 17.550 L 16.132 15.100 16.372 14.740 C 16.804 14.094,16.969 13.876,17.015 13.890 C 17.040 13.898,17.830 15.055,18.772 16.462 " stroke="none" fill-rule="evenodd" fill="black"></path></svg>