<svg width="24" height="24" viewBox="0 0 24 24" fill="none" xmlns="http://www.w3.org/2000/svg"><path d="M7.446 3.044 C 6.261 3.150,5.229 3.768,4.553 4.777 C 4.259 5.216,1.323 11.073,1.201 11.464 C 1.012 12.070,1.000 12.246,1.000 14.560 C 1.000 17.118,1.032 17.615,1.245 18.320 C 1.577 19.422,2.578 20.423,3.680 20.755 C 4.485 20.998,4.567 21.000,12.000 21.000 C 19.433 21.000,19.515 20.998,20.320 20.755 C 21.422 20.423,22.423 19.422,22.755 18.320 C 22.967 17.616,23.000 17.117,23.000 14.588 C 23.000 12.323,22.987 12.101,22.815 11.526 C 22.687 11.099,19.792 5.299,19.448 4.780 C 19.159 4.346,18.803 3.980,18.403 3.710 C 17.803 3.303,17.242 3.108,16.480 3.041 C 15.926 2.992,7.996 2.995,7.446 3.044 M16.371 5.038 C 16.962 5.100,17.454 5.388,17.758 5.848 C 17.892 6.052,20.360 10.913,20.360 10.975 C 20.360 10.985,19.744 11.001,18.990 11.011 C 17.465 11.030,17.425 11.036,16.860 11.316 C 16.345 11.571,15.975 11.928,15.631 12.500 C 15.469 12.770,15.326 12.892,15.096 12.958 C 14.984 12.991,14.091 13.001,11.920 12.992 C 8.419 12.978,8.709 13.014,8.413 12.558 C 7.981 11.890,7.652 11.569,7.141 11.316 C 6.575 11.036,6.535 11.030,5.010 11.011 C 4.256 11.001,3.640 10.985,3.640 10.975 C 3.640 10.913,6.108 6.052,6.242 5.848 C 6.532 5.410,7.049 5.096,7.573 5.041 C 7.991 4.997,15.956 4.995,16.371 5.038 M6.287 13.130 C 6.422 13.209,6.516 13.310,6.624 13.490 C 7.112 14.304,7.771 14.786,8.632 14.958 C 8.923 15.016,15.077 15.016,15.368 14.958 C 16.229 14.786,16.888 14.304,17.376 13.490 C 17.484 13.310,17.578 13.209,17.713 13.130 L 17.900 13.020 19.454 13.008 L 21.009 12.996 20.989 15.108 C 20.967 17.370,20.953 17.539,20.752 17.952 C 20.626 18.211,20.190 18.638,19.918 18.768 C 19.463 18.987,19.707 18.980,12.000 18.980 C 4.304 18.980,4.541 18.986,4.082 18.771 C 3.812 18.643,3.377 18.217,3.248 17.952 C 3.047 17.539,3.033 17.370,3.011 15.108 L 2.991 12.996 4.546 13.008 L 6.100 13.020 6.287 13.130 " stroke="none" fill-rule="evenodd" fill="black"></path></svg>