<svg width="24" height="24" viewBox="0 0 24 24" fill="none" xmlns="http://www.w3.org/2000/svg"><path d="M4.920 3.041 C 4.152 3.092,3.672 3.205,3.180 3.451 C 2.089 3.996,1.357 4.961,1.124 6.160 C 1.015 6.718,1.000 7.439,1.000 12.000 C 1.000 17.284,1.010 17.540,1.245 18.320 C 1.577 19.422,2.578 20.423,3.680 20.755 C 4.485 20.998,4.567 21.000,12.000 21.000 C 19.433 21.000,19.515 20.998,20.320 20.755 C 21.422 20.423,22.423 19.422,22.755 18.320 C 22.990 17.540,23.000 17.284,23.000 12.000 C 23.000 6.716,22.990 6.460,22.755 5.680 C 22.424 4.581,21.465 3.622,20.320 3.246 C 19.635 3.021,19.900 3.028,12.340 3.019 C 8.512 3.014,5.173 3.024,4.920 3.041 M19.492 5.091 C 19.642 5.127,19.849 5.198,19.952 5.248 C 20.194 5.366,20.634 5.806,20.752 6.048 C 20.953 6.461,20.967 6.630,20.989 8.887 L 21.009 10.994 19.314 11.010 C 17.429 11.029,17.443 11.027,16.860 11.316 C 16.345 11.571,15.975 11.928,15.631 12.500 C 15.469 12.770,15.326 12.892,15.096 12.958 C 14.984 12.991,14.091 13.001,11.920 12.992 C 8.419 12.978,8.709 13.014,8.413 12.558 C 7.981 11.890,7.652 11.569,7.141 11.316 C 6.556 11.027,6.571 11.029,4.686 11.010 L 2.991 10.994 3.011 8.887 C 3.033 6.629,3.047 6.455,3.248 6.051 C 3.371 5.805,3.654 5.496,3.903 5.336 C 4.173 5.163,4.494 5.075,4.980 5.039 C 5.200 5.023,8.494 5.013,12.300 5.017 C 18.585 5.024,19.245 5.031,19.492 5.091 M6.287 13.130 C 6.422 13.209,6.516 13.310,6.624 13.490 C 7.112 14.304,7.771 14.786,8.632 14.958 C 8.923 15.016,15.077 15.016,15.368 14.958 C 16.229 14.786,16.888 14.304,17.376 13.490 C 17.484 13.310,17.578 13.209,17.713 13.130 L 17.900 13.020 19.454 13.008 L 21.009 12.996 20.989 15.108 C 20.967 17.370,20.953 17.539,20.752 17.952 C 20.626 18.211,20.190 18.638,19.918 18.768 C 19.463 18.987,19.707 18.980,12.000 18.980 C 4.304 18.980,4.541 18.986,4.082 18.771 C 3.812 18.643,3.377 18.217,3.248 17.952 C 3.047 17.539,3.033 17.370,3.011 15.108 L 2.991 12.996 4.546 13.008 L 6.100 13.020 6.287 13.130 " stroke="none" fill-rule="evenodd" fill="black"></path></svg>