<svg width="24" height="24" viewBox="0 0 24 24" fill="none" xmlns="http://www.w3.org/2000/svg"><path d="M4.880 7.045 C 3.956 7.152,3.015 7.614,2.394 8.265 C 1.748 8.942,1.267 9.939,1.075 11.000 C 0.994 11.446,1.004 12.647,1.094 13.094 C 1.696 16.118,4.062 17.572,7.094 16.781 C 8.549 16.401,9.815 15.608,11.325 14.129 L 11.991 13.477 12.665 14.152 C 13.762 15.247,14.645 15.926,15.540 16.362 C 17.358 17.247,19.376 17.201,20.834 16.241 C 21.900 15.539,22.576 14.510,22.886 13.118 C 23.020 12.515,23.020 11.485,22.886 10.882 C 22.541 9.334,21.769 8.264,20.478 7.547 C 19.326 6.908,17.502 6.841,16.124 7.387 C 14.949 7.852,13.974 8.545,12.685 9.829 L 11.991 10.521 11.325 9.871 C 10.242 8.813,9.446 8.220,8.460 7.736 C 7.269 7.152,6.027 6.912,4.880 7.045 M6.107 9.062 C 7.123 9.213,8.111 9.705,9.149 10.577 C 9.629 10.981,10.600 11.933,10.600 12.001 C 10.600 12.067,9.593 13.054,9.128 13.443 C 8.645 13.848,8.003 14.277,7.570 14.484 C 6.665 14.917,5.635 15.095,4.913 14.942 C 4.023 14.753,3.348 13.992,3.094 12.890 C 2.994 12.457,2.994 11.535,3.093 11.110 C 3.349 10.017,4.024 9.249,4.896 9.059 C 5.228 8.987,5.610 8.988,6.107 9.062 M19.000 9.098 C 19.710 9.291,20.316 9.800,20.648 10.480 C 20.917 11.031,20.976 11.305,20.976 12.000 C 20.976 12.695,20.917 12.969,20.648 13.520 C 20.390 14.049,19.968 14.480,19.480 14.711 C 19.002 14.937,18.789 14.980,18.160 14.978 C 17.738 14.976,17.547 14.956,17.285 14.888 C 16.520 14.688,15.745 14.245,14.940 13.549 C 14.399 13.081,13.400 12.074,13.400 11.997 C 13.400 11.924,14.722 10.615,15.124 10.290 C 15.978 9.600,16.738 9.215,17.550 9.060 C 17.923 8.990,18.672 9.009,19.000 9.098 " stroke="none" fill-rule="evenodd" fill="black"></path></svg>