<svg width="24" height="24" viewBox="0 0 24 24" fill="none" xmlns="http://www.w3.org/2000/svg"><path d="M3.749 1.045 C 2.967 1.120,2.402 1.371,1.890 1.870 C 1.491 2.260,1.236 2.731,1.094 3.340 C 1.024 3.643,1.020 3.936,1.020 9.020 L 1.020 14.380 1.111 14.735 C 1.225 15.184,1.379 15.505,1.650 15.858 C 2.033 16.357,2.592 16.717,3.244 16.885 C 3.557 16.966,3.699 16.973,5.287 16.989 L 6.993 17.007 7.010 18.714 C 7.026 20.305,7.033 20.443,7.115 20.756 C 7.284 21.409,7.644 21.968,8.142 22.350 C 8.495 22.621,8.816 22.775,9.265 22.889 L 9.620 22.980 14.980 22.980 C 20.064 22.980,20.357 22.976,20.660 22.906 C 21.269 22.764,21.711 22.526,22.118 22.118 C 22.526 21.711,22.764 21.269,22.906 20.660 C 22.976 20.357,22.980 20.064,22.980 15.000 C 22.980 9.936,22.976 9.643,22.906 9.340 C 22.688 8.404,22.167 7.737,21.329 7.321 C 20.800 7.059,20.258 7.000,18.374 7.000 L 17.007 7.000 16.990 5.290 C 16.973 3.724,16.965 3.553,16.889 3.260 C 16.781 2.845,16.681 2.617,16.473 2.310 C 16.184 1.882,15.811 1.560,15.329 1.321 C 15.019 1.168,14.706 1.091,14.180 1.042 C 13.648 0.991,4.274 0.994,3.749 1.045 M14.374 3.074 C 14.574 3.141,14.861 3.430,14.923 3.626 C 14.956 3.732,14.977 4.281,14.990 5.390 L 15.008 7.000 12.634 7.000 C 10.256 7.000,9.596 7.028,9.141 7.145 C 8.517 7.306,7.910 7.744,7.527 8.310 C 7.320 8.615,7.220 8.842,7.110 9.260 C 7.028 9.568,7.024 9.684,7.010 12.293 L 6.995 15.006 5.368 14.993 C 3.755 14.980,3.738 14.979,3.550 14.886 C 3.335 14.781,3.141 14.568,3.071 14.360 C 3.008 14.176,2.977 4.488,3.037 3.947 C 3.102 3.365,3.341 3.104,3.866 3.042 C 4.017 3.024,6.408 3.012,9.180 3.016 C 13.174 3.021,14.252 3.034,14.374 3.074 M14.990 11.610 C 14.979 13.447,14.961 14.261,14.928 14.360 C 14.860 14.567,14.665 14.780,14.450 14.886 L 14.260 14.980 11.630 14.992 L 9.000 15.004 9.000 12.632 C 9.000 11.327,9.018 10.109,9.039 9.923 C 9.103 9.365,9.350 9.102,9.866 9.042 C 10.017 9.025,11.235 9.008,12.573 9.005 L 15.005 9.000 14.990 11.610 M20.374 9.077 C 20.584 9.144,20.862 9.430,20.928 9.646 C 21.005 9.902,21.005 20.098,20.928 20.354 C 20.863 20.567,20.591 20.849,20.376 20.925 C 20.144 21.007,9.856 21.007,9.624 20.925 C 9.421 20.853,9.139 20.569,9.077 20.374 C 9.044 20.268,9.023 19.720,9.010 18.613 L 8.992 17.005 11.706 16.990 C 14.312 16.975,14.433 16.971,14.740 16.890 C 15.321 16.737,15.726 16.510,16.118 16.118 C 16.510 15.726,16.737 15.321,16.890 14.740 C 16.971 14.433,16.975 14.312,16.990 11.706 L 17.005 8.992 18.613 9.010 C 19.720 9.023,20.268 9.044,20.374 9.077 " stroke="none" fill-rule="evenodd" fill="black"></path></svg>