<svg width="24" height="24" viewBox="0 0 24 24" fill="none" xmlns="http://www.w3.org/2000/svg"><path d="M9.240 3.037 C 8.793 3.174,8.512 3.546,8.512 4.000 C 8.512 4.405,8.719 4.724,9.100 4.905 C 9.297 4.998,9.318 4.999,10.554 5.000 C 11.733 5.000,11.807 5.004,11.781 5.070 C 11.766 5.108,10.595 8.227,9.180 12.000 C 7.765 15.773,6.594 18.891,6.580 18.928 C 6.556 18.989,6.439 18.997,5.387 19.008 C 4.279 19.019,4.212 19.024,4.060 19.106 C 3.707 19.297,3.512 19.615,3.512 20.000 C 3.512 20.405,3.719 20.724,4.100 20.905 L 4.300 20.999 9.500 20.999 L 14.700 20.999 14.900 20.905 C 15.281 20.724,15.488 20.405,15.488 20.000 C 15.488 19.615,15.293 19.297,14.940 19.106 C 14.787 19.024,14.724 19.019,13.487 19.008 C 12.289 18.997,12.195 18.991,12.220 18.928 C 12.234 18.891,13.405 15.773,14.820 12.000 C 16.235 8.227,17.406 5.109,17.421 5.070 C 17.446 5.006,17.540 5.000,18.574 5.000 C 19.675 4.999,19.704 4.997,19.900 4.905 C 20.281 4.724,20.488 4.405,20.488 4.000 C 20.488 3.615,20.293 3.297,19.940 3.106 L 19.780 3.020 14.560 3.013 C 11.689 3.009,9.295 3.020,9.240 3.037 M15.281 5.030 C 15.281 5.046,14.106 8.196,12.671 12.029 L 10.060 18.999 9.390 18.999 C 9.021 19.000,8.720 18.987,8.719 18.970 C 8.719 18.953,9.894 15.804,11.329 11.971 L 13.940 5.001 14.610 5.001 C 14.978 5.000,15.280 5.014,15.281 5.030 " stroke="none" fill-rule="evenodd" fill="black"></path></svg>