<svg width="24" height="24" viewBox="0 0 24 24" fill="none" xmlns="http://www.w3.org/2000/svg"><path d="M14.540 2.023 C 13.715 2.102,13.250 2.200,12.620 2.427 C 10.210 3.295,8.491 5.395,8.075 7.980 C 8.006 8.408,8.006 9.647,8.075 10.094 L 8.129 10.448 5.250 13.334 C 2.484 16.107,2.365 16.232,2.225 16.520 C 2.145 16.685,2.062 16.917,2.040 17.035 C 1.974 17.393,1.990 20.086,2.061 20.419 C 2.147 20.827,2.298 21.104,2.597 21.403 C 2.896 21.702,3.173 21.853,3.581 21.939 C 3.914 22.010,6.607 22.026,6.965 21.960 C 7.083 21.938,7.315 21.855,7.480 21.775 C 7.768 21.635,7.893 21.516,10.666 18.750 L 13.552 15.871 13.906 15.925 C 14.352 15.994,15.591 15.994,16.020 15.925 C 19.108 15.429,21.428 13.109,21.926 10.020 C 21.954 9.844,21.977 9.385,21.977 9.000 C 21.977 8.056,21.876 7.462,21.573 6.620 C 20.715 4.237,18.581 2.473,16.102 2.098 C 15.726 2.041,14.813 1.997,14.540 2.023 M15.552 4.043 C 17.413 4.246,19.001 5.479,19.680 7.248 C 20.092 8.320,20.085 9.720,19.663 10.793 C 19.206 11.955,18.310 12.936,17.212 13.476 C 16.268 13.940,15.390 14.075,14.179 13.940 C 13.830 13.902,13.445 13.879,13.323 13.891 C 13.034 13.917,12.696 14.038,12.453 14.202 C 12.347 14.273,10.982 15.607,9.419 17.166 L 6.578 20.000 5.289 20.000 L 4.000 20.000 4.000 18.711 L 4.000 17.422 6.834 14.581 C 8.393 13.018,9.721 11.659,9.786 11.560 C 10.006 11.223,10.119 10.872,10.120 10.520 C 10.120 10.399,10.090 10.030,10.053 9.700 C 9.899 8.318,10.189 7.153,10.955 6.080 C 11.996 4.621,13.747 3.845,15.552 4.043 M14.695 8.055 C 14.464 8.130,14.255 8.300,14.128 8.516 C 14.037 8.672,14.020 8.746,14.020 9.000 C 14.020 9.257,14.036 9.327,14.133 9.492 C 14.651 10.374,15.998 10.018,15.998 9.000 C 15.998 8.623,15.792 8.281,15.463 8.112 C 15.265 8.010,14.911 7.984,14.695 8.055 " stroke="none" fill-rule="evenodd" fill="black"></path></svg>