<svg width="24" height="24" viewBox="0 0 24 24" fill="none" xmlns="http://www.w3.org/2000/svg"><path d="M14.540 2.023 C 13.715 2.102,13.250 2.200,12.620 2.427 C 10.210 3.295,8.491 5.395,8.075 7.980 C 8.006 8.408,8.006 9.647,8.075 10.094 L 8.129 10.448 5.250 13.334 C 2.484 16.107,2.365 16.232,2.225 16.520 C 2.145 16.685,2.062 16.917,2.040 17.035 C 1.974 17.393,1.990 20.086,2.061 20.419 C 2.147 20.827,2.298 21.104,2.597 21.403 C 2.896 21.702,3.173 21.853,3.581 21.939 C 3.968 22.022,7.102 22.024,7.330 21.943 C 7.551 21.864,7.744 21.702,7.869 21.489 C 7.976 21.307,7.980 21.277,7.993 20.650 L 8.007 20.000 8.593 19.998 C 8.978 19.997,9.232 19.978,9.330 19.943 C 9.551 19.864,9.744 19.702,9.869 19.489 C 9.976 19.307,9.980 19.277,9.993 18.650 L 10.007 18.000 10.576 18.000 C 11.444 18.000,11.354 18.052,12.547 16.869 L 13.554 15.871 13.907 15.925 C 14.352 15.994,15.592 15.994,16.020 15.925 C 19.108 15.429,21.428 13.109,21.926 10.020 C 21.954 9.844,21.977 9.385,21.977 9.000 C 21.977 8.056,21.876 7.462,21.573 6.620 C 20.715 4.237,18.581 2.473,16.102 2.098 C 15.726 2.041,14.813 1.997,14.540 2.023 M15.552 4.043 C 17.413 4.246,19.001 5.479,19.680 7.248 C 20.092 8.320,20.085 9.720,19.663 10.793 C 19.206 11.955,18.310 12.936,17.212 13.476 C 16.268 13.940,15.390 14.075,14.179 13.940 C 13.476 13.863,13.209 13.873,12.873 13.992 C 12.516 14.118,12.317 14.279,11.417 15.167 L 10.575 16.000 9.734 16.000 C 8.812 16.000,8.634 16.029,8.382 16.221 C 8.302 16.282,8.187 16.415,8.128 16.516 C 8.025 16.692,8.019 16.728,8.007 17.350 L 7.993 18.000 7.443 18.000 C 6.648 18.000,6.366 18.111,6.128 18.516 C 6.025 18.692,6.019 18.728,6.007 19.350 L 5.993 20.000 4.997 20.000 L 4.000 20.000 4.000 18.711 L 4.000 17.422 6.834 14.581 C 8.393 13.018,9.721 11.659,9.786 11.560 C 10.006 11.223,10.119 10.872,10.120 10.520 C 10.120 10.399,10.090 10.030,10.053 9.700 C 9.899 8.318,10.189 7.153,10.955 6.080 C 11.996 4.621,13.747 3.845,15.552 4.043 M14.695 6.054 C 14.048 6.267,13.799 7.040,14.198 7.591 C 14.369 7.827,14.608 7.953,14.972 7.999 C 15.355 8.048,15.509 8.112,15.699 8.301 C 15.889 8.491,15.952 8.645,16.001 9.031 C 16.049 9.410,16.184 9.647,16.452 9.828 C 16.923 10.144,17.554 9.998,17.859 9.503 C 17.974 9.315,17.980 9.285,17.978 8.883 C 17.977 8.559,17.955 8.390,17.885 8.160 C 17.586 7.184,16.809 6.404,15.863 6.130 C 15.463 6.015,14.922 5.979,14.695 6.054 " stroke="none" fill-rule="evenodd" fill="black"></path></svg>