<svg width="24" height="24" viewBox="0 0 24 24" fill="none" xmlns="http://www.w3.org/2000/svg"><path d="M3.749 5.045 C 2.967 5.120,2.402 5.371,1.890 5.870 C 1.491 6.260,1.236 6.731,1.094 7.340 C 1.024 7.642,1.020 7.911,1.020 12.020 L 1.020 16.380 1.111 16.735 C 1.281 17.406,1.637 17.962,2.142 18.350 C 2.495 18.621,2.816 18.775,3.265 18.889 L 3.620 18.980 11.980 18.980 C 19.988 18.980,20.353 18.977,20.660 18.906 C 21.459 18.720,22.041 18.327,22.486 17.671 C 22.685 17.378,22.807 17.084,22.906 16.660 C 22.976 16.358,22.980 16.089,22.980 12.000 C 22.980 7.911,22.976 7.642,22.906 7.340 C 22.688 6.404,22.167 5.737,21.329 5.321 C 21.019 5.168,20.706 5.091,20.180 5.042 C 19.643 4.991,4.277 4.994,3.749 5.045 M20.374 7.074 C 20.586 7.146,20.863 7.432,20.928 7.646 C 21.005 7.901,21.005 16.099,20.928 16.354 C 20.863 16.567,20.591 16.849,20.376 16.925 C 20.143 17.007,3.857 17.007,3.624 16.925 C 3.422 16.854,3.140 16.571,3.075 16.374 C 3.009 16.175,2.974 8.513,3.037 7.950 C 3.102 7.365,3.340 7.104,3.866 7.042 C 4.017 7.024,7.758 7.012,12.180 7.016 C 18.671 7.021,20.250 7.032,20.374 7.074 M5.695 9.055 C 5.464 9.130,5.255 9.300,5.128 9.516 C 5.037 9.672,5.020 9.746,5.020 10.000 C 5.020 10.257,5.036 10.327,5.133 10.492 C 5.651 11.374,6.998 11.018,6.998 10.000 C 6.998 9.623,6.792 9.281,6.463 9.112 C 6.265 9.010,5.911 8.984,5.695 9.055 M9.695 9.055 C 9.464 9.130,9.255 9.300,9.128 9.516 C 9.037 9.672,9.020 9.746,9.020 10.000 C 9.020 10.257,9.036 10.327,9.133 10.492 C 9.651 11.374,10.998 11.018,10.998 10.000 C 10.998 9.623,10.792 9.281,10.463 9.112 C 10.265 9.010,9.911 8.984,9.695 9.055 M13.695 9.055 C 13.464 9.130,13.255 9.300,13.128 9.516 C 13.037 9.672,13.020 9.746,13.020 10.000 C 13.020 10.257,13.036 10.327,13.133 10.492 C 13.651 11.374,14.998 11.018,14.998 10.000 C 14.998 9.623,14.792 9.281,14.463 9.112 C 14.265 9.010,13.911 8.984,13.695 9.055 M17.695 9.055 C 17.464 9.130,17.255 9.300,17.128 9.516 C 17.037 9.672,17.020 9.746,17.020 10.000 C 17.020 10.257,17.036 10.327,17.133 10.492 C 17.651 11.374,18.998 11.018,18.998 10.000 C 18.998 9.623,18.792 9.281,18.463 9.112 C 18.265 9.010,17.911 8.984,17.695 9.055 M7.695 13.055 C 7.464 13.130,7.255 13.300,7.128 13.516 C 7.037 13.672,7.020 13.746,7.020 14.000 C 7.020 14.257,7.036 14.327,7.133 14.492 C 7.651 15.374,8.998 15.018,8.998 14.000 C 8.998 13.623,8.792 13.281,8.463 13.112 C 8.265 13.010,7.911 12.984,7.695 13.055 M11.695 13.055 C 11.464 13.130,11.255 13.300,11.128 13.516 C 11.037 13.672,11.020 13.746,11.020 14.000 C 11.020 14.257,11.036 14.327,11.133 14.492 C 11.651 15.374,12.998 15.018,12.998 14.000 C 12.998 13.623,12.792 13.281,12.463 13.112 C 12.265 13.010,11.911 12.984,11.695 13.055 M15.695 13.055 C 15.464 13.130,15.255 13.300,15.128 13.516 C 15.037 13.672,15.020 13.746,15.020 14.000 C 15.020 14.257,15.036 14.327,15.133 14.492 C 15.651 15.374,16.998 15.018,16.998 14.000 C 16.998 13.623,16.792 13.281,16.463 13.112 C 16.265 13.010,15.911 12.984,15.695 13.055 " stroke="none" fill-rule="evenodd" fill="black"></path></svg>