<svg width="24" height="24" viewBox="0 0 24 24" fill="none" xmlns="http://www.w3.org/2000/svg"><path d="M4.749 3.045 C 3.967 3.120,3.402 3.371,2.890 3.870 C 2.508 4.243,2.265 4.676,2.109 5.260 C 2.024 5.577,2.023 5.621,2.010 10.428 L 1.997 15.275 1.864 15.357 C 1.704 15.457,1.410 15.766,1.288 15.966 C 1.072 16.318,1.029 16.531,1.010 17.343 C 0.999 17.805,1.010 18.224,1.037 18.403 C 1.242 19.751,2.226 20.748,3.560 20.958 C 3.732 20.985,6.609 20.999,12.020 20.998 C 18.704 20.997,20.275 20.987,20.520 20.943 C 21.807 20.713,22.770 19.713,22.961 18.410 C 22.991 18.205,23.002 17.804,22.990 17.332 C 22.971 16.532,22.927 16.316,22.712 15.966 C 22.590 15.766,22.297 15.457,22.136 15.357 L 22.003 15.275 21.990 10.428 C 21.977 5.624,21.976 5.577,21.891 5.260 C 21.779 4.841,21.680 4.614,21.473 4.310 C 21.184 3.882,20.811 3.560,20.329 3.321 C 20.019 3.168,19.706 3.091,19.180 3.042 C 18.644 2.991,5.276 2.994,4.749 3.045 M19.374 5.074 C 19.572 5.141,19.859 5.428,19.925 5.626 C 19.966 5.747,19.980 6.768,19.990 10.390 L 20.003 15.000 12.002 15.000 L 4.000 15.000 4.000 10.630 C 4.000 8.076,4.017 6.120,4.039 5.923 C 4.103 5.366,4.350 5.103,4.866 5.042 C 5.017 5.024,8.308 5.012,12.180 5.016 C 17.839 5.021,19.250 5.032,19.374 5.074 M20.994 17.630 C 20.981 18.191,20.969 18.281,20.886 18.450 C 20.835 18.555,20.728 18.694,20.649 18.759 C 20.335 19.017,20.958 19.000,12.000 19.000 C 3.042 19.000,3.665 19.017,3.351 18.759 C 3.272 18.694,3.165 18.555,3.114 18.450 C 3.031 18.281,3.019 18.191,3.006 17.630 L 2.992 17.000 12.000 17.000 L 21.008 17.000 20.994 17.630 " stroke="none" fill-rule="evenodd" fill="black"></path></svg>