<svg width="24" height="24" viewBox="0 0 24 24" fill="none" xmlns="http://www.w3.org/2000/svg"><path d="M4.749 3.045 C 3.967 3.120,3.402 3.371,2.890 3.870 C 2.508 4.243,2.265 4.676,2.109 5.260 C 2.024 5.577,2.023 5.621,2.010 10.428 L 1.997 15.275 1.861 15.359 C 1.668 15.478,1.333 15.856,1.218 16.085 C 1.038 16.439,1.000 16.681,1.000 17.458 C 1.000 17.855,1.019 18.297,1.042 18.440 C 1.249 19.758,2.242 20.751,3.560 20.958 C 3.732 20.985,6.609 20.999,12.020 20.998 C 18.704 20.997,20.275 20.987,20.520 20.943 C 21.807 20.713,22.770 19.713,22.961 18.410 C 22.991 18.205,23.002 17.804,22.990 17.332 C 22.971 16.532,22.927 16.316,22.712 15.966 C 22.590 15.766,22.297 15.457,22.136 15.357 L 22.003 15.275 21.990 10.428 C 21.977 5.624,21.976 5.577,21.891 5.260 C 21.779 4.841,21.680 4.614,21.473 4.310 C 21.184 3.882,20.811 3.560,20.329 3.321 C 20.019 3.168,19.706 3.091,19.180 3.042 C 18.644 2.991,5.276 2.994,4.749 3.045 M19.374 5.074 C 19.572 5.141,19.859 5.428,19.925 5.626 C 19.966 5.747,19.980 6.768,19.990 10.390 L 20.003 15.000 17.652 15.000 C 16.316 15.000,15.196 15.017,15.060 15.039 C 14.683 15.101,14.302 15.313,13.911 15.678 L 13.568 16.000 12.000 16.000 L 10.432 16.000 10.089 15.678 C 9.698 15.313,9.317 15.101,8.940 15.039 C 8.804 15.017,7.684 15.000,6.350 15.000 L 4.000 15.000 4.000 10.630 C 4.000 8.076,4.017 6.120,4.039 5.923 C 4.103 5.366,4.350 5.103,4.866 5.042 C 5.017 5.024,8.308 5.012,12.180 5.016 C 17.839 5.021,19.250 5.032,19.374 5.074 M8.911 17.322 C 9.290 17.675,9.672 17.893,10.035 17.960 C 10.158 17.983,11.006 18.000,12.000 18.000 C 12.994 18.000,13.842 17.983,13.965 17.960 C 14.328 17.893,14.710 17.675,15.089 17.322 L 15.432 17.000 18.220 17.000 L 21.008 17.000 20.994 17.630 C 20.981 18.191,20.969 18.281,20.886 18.450 C 20.835 18.555,20.728 18.694,20.649 18.759 C 20.335 19.017,20.958 19.000,12.000 19.000 C 3.042 19.000,3.665 19.017,3.351 18.759 C 3.272 18.694,3.165 18.555,3.114 18.450 C 3.031 18.281,3.019 18.191,3.006 17.630 L 2.992 17.000 5.780 17.000 L 8.568 17.000 8.911 17.322 " stroke="none" fill-rule="evenodd" fill="black"></path></svg>