<svg width="24" height="24" viewBox="0 0 24 24" fill="none" xmlns="http://www.w3.org/2000/svg"><path d="M11.560 3.636 C 11.172 3.762,1.497 8.625,1.325 8.780 C 0.897 9.167,0.904 9.852,1.341 10.235 C 1.496 10.372,11.184 15.237,11.556 15.365 C 11.832 15.460,12.168 15.460,12.444 15.365 C 12.563 15.324,14.893 14.174,17.622 12.810 C 23.007 10.117,22.780 10.244,22.940 9.826 C 23.075 9.473,22.956 9.026,22.659 8.765 C 22.487 8.613,12.719 3.719,12.401 3.624 C 12.124 3.542,11.837 3.546,11.560 3.636 M15.882 7.561 C 17.995 8.617,19.715 9.495,19.705 9.511 C 19.695 9.527,17.957 10.404,15.843 11.460 L 12.000 13.380 8.157 11.460 C 6.043 10.404,4.305 9.527,4.295 9.511 C 4.276 9.481,11.903 5.646,11.990 5.642 C 12.018 5.641,13.769 6.504,15.882 7.561 M1.581 13.603 C 0.931 13.927,0.808 14.767,1.341 15.235 C 1.496 15.372,11.184 20.237,11.556 20.365 C 11.832 20.460,12.168 20.460,12.444 20.365 C 12.816 20.237,22.504 15.372,22.659 15.235 C 22.973 14.960,23.081 14.502,22.920 14.129 C 22.821 13.898,22.598 13.674,22.376 13.581 C 22.296 13.547,22.120 13.519,21.985 13.518 L 21.740 13.516 16.870 15.948 L 12.000 18.379 7.130 15.948 L 2.260 13.516 2.000 13.520 C 1.827 13.522,1.687 13.550,1.581 13.603 " stroke="none" fill-rule="evenodd" fill="black"></path></svg>