<svg width="24" height="24" viewBox="0 0 24 24" fill="none" xmlns="http://www.w3.org/2000/svg"><path d="M11.500 6.153 C 11.390 6.195,9.077 7.340,6.360 8.699 C 2.372 10.693,1.392 11.199,1.275 11.321 C 0.908 11.705,0.918 12.324,1.298 12.697 C 1.532 12.928,11.420 17.862,11.770 17.924 C 12.232 18.005,12.080 18.073,17.498 15.372 C 21.594 13.330,22.567 12.830,22.702 12.697 C 23.092 12.314,23.092 11.686,22.702 11.303 C 22.567 11.171,21.589 10.667,17.491 8.622 L 12.445 6.104 12.072 6.091 C 11.783 6.081,11.656 6.095,11.500 6.153 M15.860 10.050 C 17.983 11.111,19.720 11.989,19.720 12.000 C 19.720 12.011,17.983 12.889,15.860 13.950 L 12.000 15.880 8.140 13.950 C 6.017 12.889,4.280 12.011,4.280 12.000 C 4.280 11.985,11.936 8.134,11.990 8.122 C 11.995 8.121,13.737 8.988,15.860 10.050 " stroke="none" fill-rule="evenodd" fill="black"></path></svg>