<svg width="24" height="24" viewBox="0 0 24 24" fill="none" xmlns="http://www.w3.org/2000/svg"><path d="M11.500 1.153 C 11.390 1.195,9.077 2.340,6.360 3.699 C 2.366 5.696,1.392 6.198,1.275 6.321 C 0.908 6.705,0.918 7.324,1.298 7.697 C 1.433 7.830,2.406 8.330,6.502 10.372 C 11.920 13.073,11.768 13.005,12.230 12.924 C 12.580 12.862,22.468 7.928,22.702 7.697 C 23.082 7.324,23.092 6.705,22.725 6.321 C 22.608 6.198,21.615 5.687,17.513 3.637 L 12.446 1.104 12.073 1.091 C 11.782 1.081,11.656 1.095,11.500 1.153 M15.860 5.050 C 17.983 6.111,19.720 6.989,19.720 7.000 C 19.720 7.011,17.983 7.889,15.860 8.950 L 12.000 10.880 8.140 8.950 C 6.017 7.889,4.280 7.011,4.280 7.000 C 4.280 6.985,11.936 3.134,11.990 3.122 C 11.995 3.121,13.737 3.988,15.860 5.050 M1.643 11.066 C 1.288 11.197,1.000 11.615,1.000 12.000 C 1.000 12.243,1.119 12.521,1.298 12.697 C 1.532 12.928,11.420 17.862,11.770 17.924 C 12.232 18.005,12.080 18.073,17.498 15.372 C 21.594 13.330,22.567 12.830,22.702 12.697 C 22.881 12.521,23.000 12.243,23.000 12.000 C 23.000 11.427,22.471 10.950,21.905 11.013 C 21.738 11.031,20.809 11.480,16.850 13.457 L 12.000 15.880 7.150 13.456 C 2.608 11.187,2.285 11.032,2.060 11.017 C 1.903 11.007,1.759 11.024,1.643 11.066 M1.643 16.066 C 1.288 16.197,1.000 16.615,1.000 17.000 C 1.000 17.243,1.119 17.521,1.298 17.697 C 1.532 17.928,11.420 22.862,11.770 22.924 C 12.232 23.005,12.080 23.073,17.498 20.372 C 21.594 18.330,22.567 17.830,22.702 17.697 C 22.881 17.521,23.000 17.243,23.000 17.000 C 23.000 16.427,22.471 15.950,21.905 16.013 C 21.738 16.031,20.809 16.480,16.850 18.457 L 12.000 20.880 7.150 18.456 C 2.608 16.187,2.285 16.032,2.060 16.017 C 1.903 16.007,1.759 16.024,1.643 16.066 " stroke="none" fill-rule="evenodd" fill="black"></path></svg>