<svg width="24" height="24" viewBox="0 0 24 24" fill="none" xmlns="http://www.w3.org/2000/svg"><path d="M11.560 3.636 C 11.172 3.762,1.497 8.625,1.325 8.780 C 0.897 9.167,0.904 9.852,1.341 10.236 C 1.421 10.306,2.214 10.727,3.103 11.172 C 3.993 11.616,4.720 11.989,4.720 12.000 C 4.720 12.011,3.993 12.384,3.103 12.828 C 2.214 13.273,1.421 13.694,1.341 13.764 C 1.044 14.026,0.925 14.473,1.060 14.826 C 1.220 15.244,0.993 15.117,6.378 17.810 C 9.107 19.174,11.437 20.324,11.556 20.365 C 11.832 20.460,12.168 20.460,12.444 20.365 C 12.816 20.237,22.504 15.372,22.659 15.235 C 22.973 14.960,23.081 14.502,22.920 14.129 C 22.871 14.014,22.760 13.857,22.675 13.780 C 22.578 13.693,21.902 13.331,20.900 12.830 C 20.009 12.385,19.280 12.011,19.280 12.000 C 19.280 11.988,20.019 11.610,20.923 11.160 C 22.705 10.271,22.792 10.214,22.939 9.827 C 23.075 9.473,22.957 9.026,22.659 8.765 C 22.487 8.613,12.719 3.719,12.401 3.624 C 12.124 3.542,11.837 3.546,11.560 3.636 M15.882 7.561 C 17.995 8.617,19.715 9.495,19.705 9.511 C 19.695 9.527,17.957 10.404,15.843 11.460 L 12.000 13.380 8.157 11.460 C 6.043 10.404,4.305 9.527,4.295 9.511 C 4.276 9.481,11.903 5.646,11.990 5.642 C 12.018 5.641,13.769 6.504,15.882 7.561 M9.170 14.205 C 10.364 14.802,11.437 15.324,11.556 15.365 C 11.675 15.406,11.875 15.440,12.000 15.440 C 12.125 15.440,12.325 15.406,12.444 15.365 C 12.563 15.324,13.637 14.802,14.830 14.205 L 17.000 13.120 18.362 13.801 C 19.111 14.175,19.715 14.495,19.705 14.511 C 19.695 14.527,17.957 15.404,15.843 16.460 L 12.000 18.380 8.157 16.460 C 6.043 15.404,4.305 14.527,4.295 14.511 C 4.282 14.490,6.899 13.142,6.990 13.122 C 6.996 13.121,7.977 13.608,9.170 14.205 " stroke="none" fill-rule="evenodd" fill="black"></path></svg>