<svg width="24" height="24" viewBox="0 0 24 24" fill="none" xmlns="http://www.w3.org/2000/svg"><path d="M11.500 1.153 C 11.390 1.195,9.077 2.340,6.360 3.699 C 1.025 6.367,1.199 6.269,1.065 6.664 C 0.983 6.905,0.983 7.095,1.065 7.336 C 1.189 7.700,1.284 7.763,3.070 8.655 C 3.978 9.109,4.720 9.489,4.720 9.500 C 4.720 9.510,3.978 9.891,3.070 10.345 C 1.285 11.238,1.188 11.302,1.065 11.664 C 0.983 11.905,0.983 12.095,1.065 12.336 C 1.189 12.700,1.284 12.763,3.070 13.655 C 3.978 14.109,4.720 14.489,4.720 14.500 C 4.720 14.510,3.978 14.891,3.070 15.345 C 1.810 15.975,1.386 16.206,1.275 16.322 C 0.908 16.704,0.918 17.324,1.298 17.697 C 1.532 17.928,11.420 22.862,11.770 22.924 C 12.232 23.005,12.080 23.073,17.498 20.372 C 22.959 17.649,22.798 17.739,22.934 17.340 C 23.017 17.095,23.018 16.906,22.935 16.664 C 22.811 16.300,22.716 16.237,20.930 15.345 C 20.023 14.891,19.280 14.511,19.280 14.500 C 19.280 14.489,20.023 14.109,20.930 13.655 C 22.716 12.763,22.811 12.700,22.935 12.336 C 23.017 12.095,23.017 11.905,22.935 11.664 C 22.811 11.300,22.716 11.237,20.930 10.345 C 20.023 9.891,19.280 9.511,19.280 9.500 C 19.280 9.489,20.023 9.109,20.930 8.655 C 22.716 7.763,22.811 7.700,22.935 7.336 C 23.017 7.095,23.017 6.905,22.935 6.664 C 22.800 6.269,22.986 6.372,17.513 3.637 L 12.446 1.104 12.073 1.091 C 11.782 1.081,11.656 1.095,11.500 1.153 M15.860 5.050 C 17.983 6.111,19.720 6.989,19.720 7.000 C 19.720 7.011,17.983 7.889,15.860 8.950 L 12.000 10.880 8.140 8.950 C 6.017 7.889,4.280 7.011,4.280 7.000 C 4.280 6.985,11.936 3.134,11.990 3.122 C 11.995 3.121,13.737 3.988,15.860 5.050 M9.289 11.761 C 11.722 12.973,11.792 13.001,12.230 12.923 C 12.402 12.893,13.031 12.598,14.730 11.752 L 17.001 10.621 18.360 11.300 C 19.108 11.674,19.720 11.988,19.720 12.000 C 19.720 12.011,17.983 12.889,15.860 13.950 L 12.000 15.880 8.140 13.950 C 6.017 12.889,4.280 12.011,4.280 12.000 C 4.280 11.972,6.928 10.645,6.989 10.642 C 7.015 10.641,8.050 11.145,9.289 11.761 M9.289 16.761 C 11.722 17.973,11.792 18.001,12.230 17.923 C 12.402 17.893,13.031 17.598,14.730 16.752 L 17.001 15.621 18.360 16.300 C 19.108 16.674,19.720 16.988,19.720 17.000 C 19.720 17.011,17.983 17.889,15.860 18.950 L 12.000 20.880 8.140 18.950 C 6.017 17.889,4.280 17.011,4.280 17.000 C 4.280 16.972,6.928 15.645,6.989 15.642 C 7.015 15.641,8.050 16.145,9.289 16.761 " stroke="none" fill-rule="evenodd" fill="black"></path></svg>