<svg width="24" height="24" viewBox="0 0 24 24" fill="none" xmlns="http://www.w3.org/2000/svg"><path d="M5.920 2.041 C 5.151 2.092,4.672 2.205,4.180 2.451 C 3.089 2.996,2.357 3.961,2.124 5.160 C 2.013 5.729,2.000 6.455,2.000 12.000 C 2.000 18.358,2.006 18.526,2.245 19.320 C 2.577 20.422,3.578 21.423,4.680 21.755 C 5.474 21.994,5.642 22.000,12.000 22.000 C 18.358 22.000,18.526 21.994,19.320 21.755 C 20.422 21.423,21.423 20.422,21.755 19.320 C 21.994 18.526,22.000 18.358,22.000 12.000 C 22.000 5.642,21.994 5.474,21.755 4.680 C 21.424 3.581,20.465 2.622,19.320 2.246 C 18.644 2.024,18.800 2.029,12.340 2.019 C 9.062 2.014,6.173 2.024,5.920 2.041 M11.000 7.500 L 11.000 11.000 7.496 11.000 L 3.992 11.000 4.011 8.390 C 4.031 5.582,4.039 5.472,4.248 5.051 C 4.454 4.639,4.900 4.266,5.343 4.137 C 5.707 4.032,6.196 4.012,8.690 4.006 L 11.000 4.000 11.000 7.500 M18.492 4.093 C 18.642 4.128,18.849 4.198,18.952 4.248 C 19.194 4.366,19.634 4.806,19.752 5.048 C 19.961 5.478,19.969 5.583,19.989 8.390 L 20.008 11.000 16.504 11.000 L 13.000 11.000 13.000 7.496 L 13.000 3.992 15.610 4.011 C 17.807 4.027,18.263 4.040,18.492 4.093 M11.000 16.503 L 11.000 20.006 8.370 19.988 C 5.575 19.970,5.494 19.964,5.080 19.769 C 4.812 19.643,4.376 19.216,4.248 18.952 C 4.039 18.522,4.031 18.417,4.011 15.610 L 3.992 13.000 7.496 13.000 L 11.000 13.000 11.000 16.503 M19.989 15.610 C 19.969 18.417,19.961 18.522,19.752 18.952 C 19.627 19.210,19.190 19.638,18.920 19.767 C 18.509 19.964,18.431 19.970,15.630 19.988 L 13.000 20.006 13.000 16.503 L 13.000 13.000 16.504 13.000 L 20.008 13.000 19.989 15.610 " stroke="none" fill-rule="evenodd" fill="black"></path></svg>