<svg width="24" height="24" viewBox="0 0 24 24" fill="none" xmlns="http://www.w3.org/2000/svg"><path d="M5.920 2.041 C 5.151 2.092,4.672 2.205,4.180 2.451 C 3.089 2.996,2.357 3.961,2.124 5.160 C 2.013 5.729,2.000 6.455,2.000 12.000 C 2.000 18.358,2.006 18.526,2.245 19.320 C 2.577 20.422,3.578 21.423,4.680 21.755 C 5.474 21.994,5.642 22.000,12.000 22.000 C 18.358 22.000,18.526 21.994,19.320 21.755 C 20.422 21.423,21.423 20.422,21.755 19.320 C 21.994 18.526,22.000 18.358,22.000 12.000 C 22.000 5.642,21.994 5.474,21.755 4.680 C 21.424 3.581,20.465 2.622,19.320 2.246 C 18.644 2.024,18.800 2.029,12.340 2.019 C 9.062 2.014,6.173 2.024,5.920 2.041 M18.492 4.091 C 18.894 4.188,19.109 4.309,19.400 4.600 C 19.887 5.086,19.952 5.340,19.987 6.890 L 20.012 8.000 12.000 8.000 L 3.988 8.000 4.013 6.890 C 4.047 5.409,4.112 5.120,4.520 4.667 C 4.883 4.262,5.282 4.091,5.980 4.039 C 6.200 4.023,9.044 4.013,12.300 4.018 C 17.643 4.024,18.247 4.032,18.492 4.091 M19.989 14.110 C 19.972 18.564,19.975 18.493,19.752 18.952 C 19.626 19.211,19.190 19.638,18.918 19.768 C 18.466 19.985,18.627 19.980,12.000 19.980 C 5.383 19.980,5.538 19.985,5.082 19.771 C 4.812 19.643,4.377 19.217,4.248 18.952 C 4.025 18.493,4.028 18.564,4.011 14.110 L 3.995 10.000 12.000 10.000 L 20.005 10.000 19.989 14.110 " stroke="none" fill-rule="evenodd" fill="black"></path></svg>