<svg width="24" height="24" viewBox="0 0 24 24" fill="none" xmlns="http://www.w3.org/2000/svg"><path d="M5.920 2.041 C 5.151 2.092,4.672 2.205,4.180 2.451 C 3.089 2.996,2.357 3.961,2.124 5.160 C 2.013 5.729,2.000 6.455,2.000 12.000 C 2.000 18.358,2.006 18.526,2.245 19.320 C 2.577 20.422,3.578 21.423,4.680 21.755 C 5.474 21.994,5.642 22.000,12.000 22.000 C 18.358 22.000,18.526 21.994,19.320 21.755 C 20.422 21.423,21.423 20.422,21.755 19.320 C 21.994 18.526,22.000 18.358,22.000 12.000 C 22.000 5.642,21.994 5.474,21.755 4.680 C 21.424 3.581,20.465 2.622,19.320 2.246 C 18.644 2.024,18.800 2.029,12.340 2.019 C 9.062 2.014,6.173 2.024,5.920 2.041 M14.000 12.002 L 14.000 20.004 9.870 19.988 C 6.760 19.977,5.686 19.960,5.520 19.923 C 5.151 19.839,4.879 19.685,4.600 19.403 C 4.303 19.104,4.186 18.890,4.088 18.472 C 4.025 18.203,4.020 17.687,4.020 12.000 C 4.020 6.313,4.025 5.797,4.088 5.528 C 4.175 5.155,4.294 4.918,4.520 4.667 C 4.884 4.261,5.283 4.090,5.980 4.040 C 6.200 4.025,8.095 4.009,10.190 4.006 L 14.000 4.000 14.000 12.002 M18.492 4.098 C 18.885 4.183,19.105 4.305,19.400 4.600 C 19.696 4.895,19.814 5.109,19.912 5.528 C 19.975 5.797,19.980 6.313,19.980 12.000 C 19.980 17.687,19.975 18.203,19.912 18.472 C 19.814 18.891,19.696 19.104,19.400 19.401 C 19.111 19.690,18.829 19.847,18.460 19.921 C 18.326 19.948,17.730 19.978,17.110 19.989 L 16.000 20.010 16.000 11.999 L 16.000 3.988 17.110 4.013 C 17.853 4.030,18.310 4.058,18.492 4.098 " stroke="none" fill-rule="evenodd" fill="black"></path></svg>