<svg width="24" height="24" viewBox="0 0 24 24" fill="none" xmlns="http://www.w3.org/2000/svg"><path d="M5.920 2.041 C 5.151 2.092,4.672 2.205,4.180 2.451 C 3.089 2.996,2.357 3.961,2.124 5.160 C 2.013 5.729,2.000 6.455,2.000 12.000 C 2.000 18.358,2.006 18.526,2.245 19.320 C 2.577 20.422,3.578 21.423,4.680 21.755 C 5.474 21.994,5.642 22.000,12.000 22.000 C 18.358 22.000,18.526 21.994,19.320 21.755 C 20.422 21.423,21.423 20.422,21.755 19.320 C 21.994 18.526,22.000 18.358,22.000 12.000 C 22.000 5.642,21.994 5.474,21.755 4.680 C 21.424 3.581,20.465 2.622,19.320 2.246 C 18.644 2.024,18.800 2.029,12.340 2.019 C 9.062 2.014,6.173 2.024,5.920 2.041 M11.000 12.003 L 11.000 20.006 8.370 19.988 C 6.502 19.976,5.676 19.956,5.520 19.922 C 5.153 19.840,4.880 19.686,4.600 19.403 C 4.303 19.104,4.186 18.890,4.088 18.472 C 4.025 18.203,4.020 17.687,4.020 12.000 C 4.020 6.313,4.025 5.797,4.088 5.528 C 4.175 5.155,4.294 4.918,4.520 4.667 C 4.884 4.261,5.283 4.090,5.980 4.040 C 6.200 4.025,7.420 4.009,8.690 4.006 L 11.000 4.000 11.000 12.003 M18.492 4.093 C 18.642 4.128,18.849 4.198,18.952 4.248 C 19.194 4.366,19.634 4.806,19.752 5.048 C 19.961 5.478,19.969 5.583,19.989 8.390 L 20.008 11.000 16.504 11.000 L 13.000 11.000 13.000 7.496 L 13.000 3.992 15.610 4.011 C 17.807 4.027,18.263 4.040,18.492 4.093 M19.989 15.610 C 19.969 18.417,19.961 18.522,19.752 18.952 C 19.627 19.210,19.190 19.638,18.920 19.767 C 18.509 19.964,18.431 19.970,15.630 19.988 L 13.000 20.006 13.000 16.503 L 13.000 13.000 16.504 13.000 L 20.008 13.000 19.989 15.610 " stroke="none" fill-rule="evenodd" fill="black"></path></svg>