<svg width="24" height="24" viewBox="0 0 24 24" fill="none" xmlns="http://www.w3.org/2000/svg"><path d="M5.920 2.041 C 5.151 2.092,4.672 2.205,4.180 2.451 C 3.089 2.996,2.357 3.961,2.124 5.160 C 2.013 5.729,2.000 6.455,2.000 12.000 C 2.000 18.358,2.006 18.526,2.245 19.320 C 2.577 20.422,3.578 21.423,4.680 21.755 C 5.474 21.994,5.642 22.000,12.000 22.000 C 18.358 22.000,18.526 21.994,19.320 21.755 C 20.422 21.423,21.423 20.422,21.755 19.320 C 21.994 18.526,22.000 18.358,22.000 12.000 C 22.000 5.642,21.994 5.474,21.755 4.680 C 21.424 3.581,20.465 2.622,19.320 2.246 C 18.644 2.024,18.800 2.029,12.340 2.019 C 9.062 2.014,6.173 2.024,5.920 2.041 M18.492 4.091 C 18.642 4.127,18.849 4.198,18.952 4.248 C 19.194 4.366,19.634 4.806,19.752 5.048 C 19.975 5.507,19.972 5.436,19.989 9.890 L 20.005 14.000 12.000 14.000 L 3.995 14.000 4.011 9.890 C 4.025 6.271,4.035 5.747,4.092 5.508 C 4.177 5.153,4.298 4.914,4.520 4.667 C 4.883 4.262,5.282 4.091,5.980 4.039 C 6.200 4.023,9.044 4.013,12.300 4.018 C 17.643 4.024,18.247 4.032,18.492 4.091 M19.987 17.110 C 19.952 18.660,19.887 18.914,19.400 19.401 C 19.101 19.701,18.820 19.851,18.418 19.928 C 18.010 20.005,5.990 20.005,5.582 19.927 C 5.170 19.850,4.898 19.704,4.600 19.403 C 4.113 18.911,4.048 18.659,4.013 17.110 L 3.988 16.000 12.000 16.000 L 20.012 16.000 19.987 17.110 " stroke="none" fill-rule="evenodd" fill="black"></path></svg>