<svg width="24" height="24" viewBox="0 0 24 24" fill="none" xmlns="http://www.w3.org/2000/svg"><path d="M5.920 2.041 C 5.151 2.092,4.672 2.205,4.180 2.451 C 3.089 2.996,2.357 3.961,2.124 5.160 C 2.013 5.729,2.000 6.455,2.000 12.000 C 2.000 18.358,2.006 18.526,2.245 19.320 C 2.577 20.422,3.578 21.423,4.680 21.755 C 5.474 21.994,5.642 22.000,12.000 22.000 C 18.358 22.000,18.526 21.994,19.320 21.755 C 20.422 21.423,21.423 20.422,21.755 19.320 C 21.994 18.526,22.000 18.358,22.000 12.000 C 22.000 5.642,21.994 5.474,21.755 4.680 C 21.424 3.581,20.465 2.622,19.320 2.246 C 18.644 2.024,18.800 2.029,12.340 2.019 C 9.062 2.014,6.173 2.024,5.920 2.041 M8.000 12.005 L 8.000 20.010 6.890 19.989 C 6.271 19.978,5.674 19.948,5.540 19.921 C 5.161 19.845,4.887 19.694,4.600 19.403 C 4.303 19.104,4.186 18.890,4.088 18.472 C 4.025 18.203,4.020 17.687,4.020 12.000 C 4.020 6.313,4.025 5.797,4.088 5.528 C 4.175 5.155,4.294 4.918,4.520 4.667 C 5.013 4.118,5.412 4.019,7.190 4.006 L 8.000 4.000 8.000 12.005 M18.492 4.092 C 18.893 4.187,19.109 4.308,19.400 4.600 C 19.696 4.895,19.814 5.109,19.912 5.528 C 19.975 5.797,19.980 6.313,19.980 12.000 C 19.980 17.687,19.975 18.203,19.912 18.472 C 19.814 18.891,19.696 19.104,19.400 19.401 C 19.120 19.681,18.838 19.841,18.480 19.923 C 18.314 19.960,17.240 19.977,14.130 19.988 L 10.000 20.004 10.000 11.999 L 10.000 3.995 14.110 4.011 C 17.729 4.025,18.253 4.035,18.492 4.092 M12.240 6.037 C 11.792 6.175,11.512 6.546,11.512 7.000 C 11.512 7.405,11.719 7.724,12.100 7.905 L 12.300 7.999 15.000 7.999 L 17.700 7.999 17.900 7.905 C 18.281 7.724,18.488 7.405,18.488 7.000 C 18.488 6.615,18.293 6.297,17.940 6.106 C 17.781 6.020,17.765 6.020,15.060 6.013 C 13.564 6.009,12.295 6.020,12.240 6.037 M12.240 10.037 C 11.792 10.175,11.512 10.546,11.512 11.000 C 11.512 11.405,11.719 11.724,12.100 11.905 L 12.300 11.999 15.000 11.999 L 17.700 11.999 17.900 11.905 C 18.281 11.724,18.488 11.405,18.488 11.000 C 18.488 10.615,18.293 10.297,17.940 10.106 C 17.781 10.020,17.765 10.020,15.060 10.013 C 13.564 10.009,12.295 10.020,12.240 10.037 M12.240 14.037 C 11.792 14.175,11.512 14.546,11.512 15.000 C 11.512 15.405,11.719 15.724,12.100 15.905 L 12.300 15.999 15.000 15.999 L 17.700 15.999 17.900 15.905 C 18.281 15.724,18.488 15.405,18.488 15.000 C 18.488 14.615,18.293 14.297,17.940 14.106 C 17.781 14.020,17.765 14.020,15.060 14.013 C 13.564 14.009,12.295 14.020,12.240 14.037 " stroke="none" fill-rule="evenodd" fill="black"></path></svg>