<svg width="24" height="24" viewBox="0 0 24 24" fill="none" xmlns="http://www.w3.org/2000/svg"><path d="M2.992 1.590 C 2.581 1.743,2.288 2.037,2.111 2.474 L 2.020 2.700 2.009 6.354 C 2.002 8.723,2.012 10.087,2.038 10.230 C 2.230 11.267,3.192 11.770,4.138 11.327 C 4.287 11.257,5.335 10.499,6.793 9.404 C 9.488 7.383,9.495 7.376,9.617 6.842 C 9.694 6.501,9.694 6.499,9.617 6.158 C 9.495 5.623,9.487 5.616,6.791 3.594 C 5.282 2.463,4.283 1.740,4.120 1.663 C 3.792 1.508,3.297 1.476,2.992 1.590 M11.670 3.061 C 11.448 3.142,11.250 3.309,11.128 3.516 C 11.037 3.672,11.020 3.746,11.020 4.000 C 11.020 4.256,11.036 4.328,11.131 4.489 C 11.256 4.702,11.449 4.864,11.670 4.943 C 11.892 5.022,21.108 5.022,21.330 4.943 C 21.551 4.864,21.744 4.702,21.869 4.489 C 21.964 4.328,21.980 4.256,21.980 4.000 C 21.980 3.746,21.963 3.672,21.872 3.516 C 21.747 3.303,21.550 3.141,21.316 3.058 C 21.075 2.974,11.901 2.976,11.670 3.061 M7.272 6.459 C 7.314 6.497,6.993 6.756,5.662 7.754 L 4.000 9.000 4.000 6.500 L 4.000 3.999 5.610 5.205 C 6.495 5.868,7.243 6.432,7.272 6.459 M11.800 8.277 C 11.310 8.378,10.961 8.848,11.012 9.340 C 11.050 9.717,11.254 10.000,11.600 10.157 C 11.778 10.237,11.837 10.238,16.500 10.238 C 21.163 10.238,21.222 10.237,21.400 10.157 C 21.746 10.000,21.950 9.717,21.988 9.340 C 22.030 8.938,21.812 8.556,21.423 8.347 L 21.260 8.260 16.600 8.254 C 14.037 8.251,11.877 8.261,11.800 8.277 M2.600 13.843 C 2.254 14.000,2.050 14.283,2.012 14.660 C 1.970 15.062,2.188 15.444,2.577 15.653 L 2.740 15.740 12.000 15.740 L 21.260 15.740 21.423 15.653 C 22.196 15.239,22.183 14.197,21.400 13.843 C 21.221 13.762,21.190 13.762,12.000 13.762 C 2.810 13.762,2.779 13.762,2.600 13.843 M2.695 19.057 C 2.466 19.129,2.256 19.299,2.128 19.516 C 2.037 19.672,2.020 19.746,2.020 20.000 C 2.020 20.256,2.036 20.328,2.131 20.489 C 2.256 20.702,2.449 20.864,2.670 20.943 C 2.893 21.023,21.107 21.023,21.330 20.943 C 21.551 20.864,21.744 20.702,21.869 20.489 C 21.964 20.328,21.980 20.256,21.980 20.000 C 21.980 19.746,21.963 19.672,21.872 19.516 C 21.740 19.293,21.533 19.128,21.290 19.055 C 21.027 18.976,2.947 18.978,2.695 19.057 " stroke="none" fill-rule="evenodd" fill="black"></path></svg>