<svg width="24" height="24" viewBox="0 0 24 24" fill="none" xmlns="http://www.w3.org/2000/svg"><path d="M2.695 3.057 C 2.466 3.129,2.256 3.299,2.128 3.516 C 2.037 3.672,2.020 3.746,2.020 4.000 C 2.020 4.256,2.036 4.328,2.131 4.489 C 2.256 4.702,2.449 4.864,2.670 4.943 C 2.893 5.023,21.107 5.023,21.330 4.943 C 21.551 4.864,21.744 4.702,21.869 4.489 C 21.964 4.328,21.980 4.256,21.980 4.000 C 21.980 3.746,21.963 3.672,21.872 3.516 C 21.740 3.293,21.533 3.128,21.290 3.055 C 21.027 2.976,2.947 2.978,2.695 3.057 M2.992 7.190 C 2.581 7.343,2.288 7.637,2.111 8.074 L 2.020 8.300 2.009 11.954 C 2.002 14.323,2.012 15.687,2.038 15.830 C 2.230 16.867,3.192 17.370,4.138 16.927 C 4.287 16.857,5.335 16.099,6.793 15.004 C 9.488 12.983,9.495 12.976,9.617 12.442 C 9.694 12.101,9.694 12.099,9.617 11.758 C 9.495 11.223,9.487 11.216,6.791 9.194 C 5.282 8.063,4.283 7.340,4.120 7.263 C 3.792 7.108,3.297 7.076,2.992 7.190 M11.800 8.277 C 11.310 8.378,10.961 8.848,11.012 9.340 C 11.050 9.717,11.254 10.000,11.600 10.157 C 11.778 10.237,11.837 10.238,16.500 10.238 C 21.163 10.238,21.222 10.237,21.400 10.157 C 21.746 10.000,21.950 9.717,21.988 9.340 C 22.030 8.938,21.812 8.556,21.423 8.347 L 21.260 8.260 16.600 8.254 C 14.037 8.251,11.877 8.261,11.800 8.277 M7.272 12.059 C 7.314 12.097,6.993 12.356,5.662 13.354 L 4.000 14.600 4.000 12.100 L 4.000 9.599 5.610 10.805 C 6.495 11.468,7.243 12.032,7.272 12.059 M11.600 13.843 C 11.254 14.000,11.050 14.283,11.012 14.660 C 10.970 15.062,11.188 15.444,11.577 15.653 L 11.740 15.740 16.500 15.740 L 21.260 15.740 21.423 15.653 C 22.196 15.239,22.183 14.197,21.400 13.843 C 21.222 13.763,21.163 13.762,16.500 13.762 C 11.837 13.762,11.778 13.763,11.600 13.843 M2.695 19.057 C 2.466 19.129,2.256 19.299,2.128 19.516 C 2.037 19.672,2.020 19.746,2.020 20.000 C 2.020 20.256,2.036 20.328,2.131 20.489 C 2.256 20.702,2.449 20.864,2.670 20.943 C 2.893 21.023,21.107 21.023,21.330 20.943 C 21.551 20.864,21.744 20.702,21.869 20.489 C 21.964 20.328,21.980 20.256,21.980 20.000 C 21.980 19.746,21.963 19.672,21.872 19.516 C 21.740 19.293,21.533 19.128,21.290 19.055 C 21.027 18.976,2.947 18.978,2.695 19.057 " stroke="none" fill-rule="evenodd" fill="black"></path></svg>