<svg width="24" height="24" viewBox="0 0 24 24" fill="none" xmlns="http://www.w3.org/2000/svg"><path d="M2.695 2.057 C 2.466 2.129,2.256 2.299,2.128 2.516 L 2.020 2.700 2.020 12.003 L 2.020 21.306 2.141 21.503 C 2.543 22.156,3.457 22.156,3.859 21.503 L 3.980 21.306 3.980 12.003 L 3.980 2.700 3.872 2.516 C 3.628 2.101,3.150 1.915,2.695 2.057 M20.695 2.057 C 20.466 2.129,20.256 2.299,20.128 2.516 L 20.020 2.700 20.020 12.003 L 20.020 21.306 20.141 21.503 C 20.543 22.156,21.457 22.156,21.859 21.503 L 21.980 21.306 21.980 12.003 L 21.980 2.700 21.872 2.516 C 21.628 2.101,21.150 1.915,20.695 2.057 M11.473 5.815 C 11.169 5.940,10.956 6.115,10.770 6.394 C 10.638 6.592,6.277 16.114,6.073 16.650 C 5.931 17.021,6.017 17.419,6.299 17.701 C 6.689 18.091,7.312 18.092,7.697 17.703 C 7.834 17.565,7.988 17.256,8.660 15.770 L 9.460 14.001 12.000 14.001 L 14.540 14.001 15.340 15.770 C 16.012 17.256,16.166 17.565,16.303 17.703 C 16.688 18.092,17.311 18.091,17.701 17.701 C 17.983 17.419,18.069 17.021,17.927 16.650 C 17.723 16.114,13.362 6.592,13.230 6.394 C 12.933 5.951,12.515 5.722,12.000 5.722 C 11.777 5.722,11.642 5.746,11.473 5.815 M12.814 10.210 C 13.246 11.162,13.600 11.954,13.600 11.970 C 13.600 11.987,12.880 12.000,12.000 12.000 C 11.120 12.000,10.400 11.987,10.400 11.970 C 10.400 11.912,11.973 8.480,12.000 8.480 C 12.015 8.480,12.381 9.258,12.814 10.210 " stroke="none" fill-rule="evenodd" fill="black"></path></svg>