<svg width="24" height="24" viewBox="0 0 24 24" fill="none" xmlns="http://www.w3.org/2000/svg"><path d="M6.695 2.057 C 6.466 2.129,6.256 2.299,6.128 2.516 C 6.037 2.672,6.020 2.746,6.020 3.000 C 6.020 3.256,6.036 3.328,6.131 3.489 C 6.256 3.702,6.449 3.864,6.670 3.943 C 6.788 3.985,7.269 3.997,8.909 3.998 L 10.999 4.000 11.009 9.153 L 11.020 14.306 11.141 14.503 C 11.543 15.156,12.457 15.156,12.859 14.503 L 12.980 14.306 12.991 9.153 L 13.001 4.000 15.091 3.998 C 16.731 3.997,17.212 3.985,17.330 3.943 C 17.551 3.864,17.744 3.702,17.869 3.489 C 17.964 3.328,17.980 3.256,17.980 3.000 C 17.980 2.746,17.963 2.672,17.872 2.516 C 17.740 2.293,17.533 2.128,17.290 2.055 C 17.028 1.976,6.946 1.978,6.695 2.057 M4.640 14.069 C 4.488 14.121,4.208 14.381,2.847 15.735 C 1.960 16.618,1.186 17.421,1.127 17.520 C 1.037 17.672,1.020 17.746,1.020 18.000 C 1.020 18.254,1.036 18.328,1.127 18.480 C 1.261 18.704,4.371 21.807,4.555 21.899 C 5.009 22.128,5.601 21.944,5.867 21.492 C 5.964 21.327,5.980 21.258,5.979 21.000 C 5.979 20.787,5.957 20.660,5.904 20.560 C 5.864 20.483,5.514 20.101,5.127 19.710 L 4.423 19.000 12.000 19.000 L 19.577 19.000 18.873 19.710 C 18.486 20.101,18.139 20.481,18.101 20.555 C 17.872 21.008,18.056 21.601,18.508 21.867 C 18.673 21.964,18.742 21.980,19.000 21.979 C 19.212 21.979,19.341 21.957,19.440 21.905 C 19.632 21.804,22.739 18.704,22.873 18.480 C 22.964 18.328,22.980 18.254,22.980 18.000 C 22.980 17.746,22.963 17.672,22.873 17.520 C 22.814 17.421,22.040 16.618,21.153 15.736 C 19.714 14.305,19.519 14.124,19.343 14.066 C 18.863 13.906,18.382 14.084,18.128 14.516 C 18.036 14.672,18.020 14.745,18.021 15.000 C 18.021 15.213,18.043 15.340,18.096 15.440 C 18.136 15.517,18.486 15.900,18.873 16.290 L 19.577 17.000 12.000 17.000 L 4.423 17.000 5.127 16.290 C 5.514 15.900,5.864 15.517,5.904 15.440 C 5.957 15.340,5.979 15.213,5.979 15.000 C 5.980 14.745,5.964 14.672,5.872 14.516 C 5.617 14.083,5.121 13.902,4.640 14.069 " stroke="none" fill-rule="evenodd" fill="black"></path></svg>