<svg width="24" height="24" viewBox="0 0 24 24" fill="none" xmlns="http://www.w3.org/2000/svg"><path d="M11.280 1.023 C 11.203 1.032,10.951 1.059,10.720 1.083 C 9.527 1.210,8.337 1.558,7.180 2.120 C 6.045 2.671,5.193 3.285,4.238 4.239 C 3.277 5.198,2.643 6.080,2.097 7.220 C 0.301 10.968,0.728 15.286,3.226 18.633 C 3.701 19.269,4.753 20.316,5.400 20.797 C 9.364 23.745,14.666 23.734,18.637 20.770 C 19.246 20.316,20.316 19.246,20.770 18.637 C 23.744 14.652,23.744 9.348,20.770 5.363 C 20.316 4.755,19.247 3.686,18.640 3.235 C 17.045 2.049,15.365 1.360,13.423 1.096 C 13.000 1.038,11.574 0.990,11.280 1.023 M13.320 3.101 C 13.867 3.184,14.481 3.334,14.980 3.508 C 15.773 3.785,16.882 4.383,17.434 4.831 L 17.608 4.972 16.178 6.402 L 14.747 7.833 14.602 7.741 C 13.359 6.957,11.629 6.789,10.247 7.320 C 9.988 7.420,9.498 7.664,9.357 7.763 L 9.255 7.835 7.823 6.403 L 6.392 4.972 6.566 4.831 C 7.170 4.341,8.278 3.757,9.160 3.466 C 9.865 3.233,10.432 3.118,11.340 3.024 C 11.662 2.991,12.911 3.039,13.320 3.101 M7.744 9.370 C 7.230 10.252,7.020 11.015,7.020 12.000 C 7.020 12.985,7.230 13.749,7.744 14.629 L 7.820 14.759 6.402 16.178 C 5.035 17.546,4.980 17.595,4.907 17.529 C 4.740 17.378,4.176 16.472,3.920 15.942 C 3.279 14.617,3.023 13.493,3.023 12.000 C 3.023 10.865,3.162 10.013,3.508 9.020 C 3.785 8.227,4.383 7.118,4.831 6.566 L 4.972 6.392 6.396 7.816 L 7.820 9.241 7.744 9.370 M19.489 7.018 C 20.039 7.841,20.502 8.891,20.733 9.840 C 20.919 10.603,20.977 11.112,20.977 12.000 C 20.977 13.493,20.721 14.617,20.080 15.942 C 19.824 16.472,19.260 17.378,19.093 17.529 C 19.020 17.595,18.965 17.546,17.601 16.181 L 16.185 14.765 16.408 14.332 C 16.837 13.501,16.980 12.917,16.980 12.000 C 16.980 11.083,16.837 10.499,16.408 9.668 L 16.185 9.235 17.601 7.819 C 18.965 6.454,19.020 6.405,19.093 6.471 C 19.135 6.509,19.313 6.755,19.489 7.018 M12.861 9.129 C 13.804 9.405,14.584 10.183,14.875 11.139 C 14.958 11.412,14.973 11.542,14.973 12.000 C 14.973 12.458,14.958 12.588,14.875 12.861 C 14.588 13.803,13.845 14.555,12.887 14.872 C 12.620 14.961,12.508 14.974,12.020 14.977 C 11.539 14.980,11.418 14.967,11.160 14.886 C 10.180 14.580,9.418 13.822,9.125 12.861 C 9.042 12.588,9.027 12.458,9.027 12.000 C 9.027 11.542,9.042 11.412,9.125 11.139 C 9.456 10.054,10.371 9.245,11.499 9.040 C 11.832 8.980,12.500 9.023,12.861 9.129 M9.683 16.416 C 10.494 16.836,11.087 16.980,12.000 16.980 C 12.917 16.980,13.501 16.837,14.332 16.408 L 14.765 16.185 16.182 17.602 C 16.962 18.382,17.600 19.029,17.599 19.040 C 17.598 19.051,17.459 19.160,17.289 19.283 C 14.359 21.399,10.454 21.567,7.361 19.711 C 7.096 19.552,6.531 19.164,6.402 19.053 C 6.382 19.035,9.205 16.200,9.243 16.200 C 9.256 16.200,9.454 16.297,9.683 16.416 " stroke="none" fill-rule="evenodd" fill="black"></path></svg>