<svg width="24" height="24" viewBox="0 0 24 24" fill="none" xmlns="http://www.w3.org/2000/svg"><path d="M11.280 1.023 C 11.203 1.032,10.951 1.059,10.720 1.083 C 9.527 1.210,8.337 1.558,7.180 2.120 C 6.045 2.671,5.193 3.285,4.238 4.239 C 3.277 5.198,2.643 6.080,2.097 7.220 C 0.301 10.968,0.728 15.286,3.226 18.633 C 3.701 19.269,4.753 20.316,5.400 20.797 C 9.364 23.745,14.666 23.734,18.637 20.770 C 19.246 20.316,20.316 19.246,20.770 18.637 C 23.744 14.652,23.744 9.348,20.770 5.363 C 20.316 4.755,19.247 3.686,18.640 3.235 C 17.045 2.049,15.365 1.360,13.423 1.096 C 13.000 1.038,11.574 0.990,11.280 1.023 M13.320 3.101 C 13.867 3.184,14.481 3.334,14.980 3.508 C 15.773 3.785,16.882 4.383,17.434 4.831 L 17.608 4.972 16.539 6.041 L 15.471 7.110 15.266 6.974 C 13.776 5.990,11.785 5.743,10.060 6.328 C 9.671 6.460,9.064 6.756,8.734 6.974 L 8.529 7.110 7.461 6.041 L 6.392 4.972 6.566 4.831 C 7.170 4.341,8.278 3.757,9.160 3.466 C 9.865 3.233,10.432 3.118,11.340 3.024 C 11.662 2.991,12.911 3.039,13.320 3.101 M6.970 8.734 C 6.608 9.271,6.276 10.088,6.115 10.840 C 5.984 11.450,5.984 12.558,6.114 13.160 C 6.277 13.915,6.609 14.730,6.970 15.266 L 7.109 15.472 6.040 16.540 L 4.972 17.608 4.831 17.434 C 4.383 16.882,3.785 15.773,3.508 14.980 C 3.162 13.987,3.023 13.135,3.023 12.000 C 3.023 10.865,3.162 10.013,3.508 9.020 C 3.785 8.227,4.383 7.118,4.831 6.566 L 4.972 6.392 6.040 7.460 L 7.109 8.528 6.970 8.734 M19.489 7.018 C 20.039 7.841,20.502 8.891,20.733 9.840 C 20.919 10.603,20.977 11.112,20.977 12.000 C 20.977 13.135,20.838 13.987,20.492 14.980 C 20.215 15.773,19.617 16.882,19.169 17.434 L 19.028 17.608 17.959 16.539 L 16.890 15.471 17.040 15.245 C 17.410 14.687,17.723 13.916,17.885 13.160 C 18.015 12.554,18.015 11.446,17.885 10.840 C 17.723 10.084,17.390 9.268,17.028 8.740 L 16.891 8.540 17.954 7.471 C 18.978 6.442,19.019 6.405,19.093 6.471 C 19.135 6.509,19.313 6.755,19.489 7.018 M12.605 8.058 C 14.074 8.280,15.310 9.324,15.797 10.755 C 15.897 11.050,16.000 11.680,16.000 12.000 C 16.000 12.322,15.897 12.951,15.796 13.245 C 15.321 14.632,14.195 15.628,12.773 15.917 C 10.563 16.368,8.396 14.845,8.058 12.605 C 7.986 12.121,7.986 11.879,8.058 11.395 C 8.314 9.698,9.675 8.324,11.358 8.061 C 11.816 7.990,12.144 7.989,12.605 8.058 M9.320 17.359 C 9.791 17.594,10.293 17.768,10.840 17.885 C 11.446 18.015,12.554 18.015,13.160 17.885 C 13.916 17.723,14.687 17.410,15.245 17.040 L 15.471 16.890 16.543 17.963 C 17.134 18.554,17.608 19.044,17.598 19.053 C 17.468 19.165,16.904 19.553,16.635 19.714 C 13.788 21.422,10.211 21.421,7.361 19.711 C 7.096 19.552,6.531 19.164,6.402 19.053 C 6.392 19.044,6.866 18.554,7.456 17.964 L 8.528 16.891 8.734 17.030 C 8.847 17.106,9.111 17.254,9.320 17.359 " stroke="none" fill-rule="evenodd" fill="black"></path></svg>