<svg width="24" height="24" viewBox="0 0 24 24" fill="none" xmlns="http://www.w3.org/2000/svg"><path d="M11.695 1.057 C 11.466 1.129,11.256 1.299,11.128 1.516 C 11.020 1.699,11.020 1.703,11.020 2.503 L 11.020 3.306 11.141 3.503 C 11.543 4.156,12.457 4.156,12.859 3.503 L 12.980 3.306 12.980 2.503 C 12.980 1.703,12.980 1.699,12.872 1.516 C 12.628 1.101,12.150 0.915,11.695 1.057 M4.444 4.025 C 3.940 4.276,3.745 4.967,4.051 5.420 C 4.173 5.600,4.758 6.191,4.943 6.320 C 5.258 6.541,5.741 6.539,6.065 6.317 C 6.498 6.018,6.619 5.372,6.321 4.943 C 6.139 4.680,5.507 4.088,5.316 4.002 C 5.055 3.883,4.711 3.892,4.444 4.025 M18.684 4.002 C 18.494 4.088,17.861 4.680,17.681 4.940 C 17.372 5.387,17.489 6.010,17.942 6.321 C 18.239 6.526,18.741 6.539,19.019 6.351 C 19.202 6.226,19.791 5.642,19.920 5.457 C 20.147 5.133,20.136 4.646,19.895 4.308 C 19.642 3.952,19.097 3.814,18.684 4.002 M11.540 5.023 C 10.715 5.102,10.250 5.200,9.620 5.427 C 7.452 6.207,5.779 8.052,5.223 10.275 C 5.061 10.918,5.022 11.263,5.023 12.040 C 5.023 13.223,5.215 14.040,5.741 15.100 C 6.114 15.851,6.457 16.335,7.024 16.909 L 7.468 17.359 7.493 18.809 C 7.511 19.780,7.538 20.359,7.575 20.560 C 7.823 21.885,8.805 22.788,10.180 22.956 C 10.649 23.013,13.351 23.013,13.820 22.956 C 15.229 22.784,16.233 21.827,16.440 20.459 C 16.463 20.305,16.493 19.545,16.507 18.769 L 16.532 17.359 16.976 16.909 C 17.543 16.335,17.886 15.851,18.259 15.100 C 18.785 14.040,18.977 13.223,18.977 12.040 C 18.978 11.055,18.881 10.474,18.573 9.620 C 17.715 7.237,15.581 5.473,13.102 5.098 C 12.726 5.041,11.813 4.997,11.540 5.023 M12.552 7.043 C 14.610 7.268,16.321 8.752,16.840 10.763 C 17.126 11.871,17.001 13.120,16.503 14.140 C 16.133 14.897,15.785 15.325,14.952 16.049 C 14.484 16.455,14.504 16.355,14.479 18.480 C 14.464 19.743,14.443 20.333,14.411 20.408 C 14.328 20.598,14.082 20.833,13.887 20.908 C 13.717 20.973,13.544 20.980,12.000 20.980 C 10.456 20.980,10.283 20.973,10.113 20.908 C 9.918 20.833,9.672 20.598,9.589 20.408 C 9.557 20.333,9.536 19.743,9.521 18.480 C 9.496 16.355,9.516 16.455,9.048 16.049 C 8.215 15.325,7.867 14.897,7.497 14.140 C 6.999 13.120,6.874 11.871,7.160 10.763 C 7.783 8.350,10.072 6.771,12.552 7.043 M1.695 11.057 C 1.466 11.129,1.256 11.299,1.128 11.516 C 1.037 11.672,1.020 11.746,1.020 12.000 C 1.020 12.256,1.036 12.328,1.131 12.489 C 1.256 12.702,1.449 12.864,1.670 12.943 C 1.878 13.017,3.122 13.017,3.330 12.943 C 3.551 12.864,3.744 12.702,3.869 12.489 C 3.964 12.328,3.980 12.256,3.980 12.000 C 3.980 11.746,3.963 11.672,3.872 11.516 C 3.740 11.293,3.533 11.128,3.290 11.055 C 3.050 10.983,1.928 10.984,1.695 11.057 M20.695 11.057 C 20.466 11.129,20.256 11.299,20.128 11.516 C 20.037 11.672,20.020 11.746,20.020 12.000 C 20.020 12.256,20.036 12.328,20.131 12.489 C 20.256 12.702,20.449 12.864,20.670 12.943 C 20.878 13.017,22.122 13.017,22.330 12.943 C 22.551 12.864,22.744 12.702,22.869 12.489 C 22.964 12.328,22.980 12.256,22.980 12.000 C 22.980 11.746,22.963 11.672,22.872 11.516 C 22.740 11.293,22.533 11.128,22.290 11.055 C 22.050 10.983,20.928 10.984,20.695 11.057 M9.600 12.584 C 9.267 12.728,9.001 13.135,9.001 13.500 C 9.001 13.745,9.136 14.049,9.325 14.228 C 9.560 14.450,9.714 14.492,10.390 14.512 L 11.000 14.530 11.000 16.615 L 11.001 18.700 11.095 18.900 C 11.276 19.281,11.595 19.488,12.000 19.488 C 12.405 19.488,12.724 19.281,12.905 18.900 L 12.999 18.700 13.000 16.615 L 13.000 14.530 13.610 14.512 C 14.286 14.492,14.440 14.450,14.675 14.228 C 14.864 14.049,14.999 13.745,14.999 13.500 C 14.999 13.130,14.730 12.723,14.391 12.582 C 14.171 12.490,9.813 12.492,9.600 12.584 " stroke="none" fill-rule="evenodd" fill="black"></path></svg>