<svg width="24" height="24" viewBox="0 0 24 24" fill="none" xmlns="http://www.w3.org/2000/svg"><path d="M11.340 1.025 C 10.097 1.155,9.265 1.386,8.260 1.880 C 6.896 2.551,5.769 3.536,4.922 4.798 C 3.375 7.103,3.073 10.122,4.126 12.740 C 4.824 14.473,6.179 16.077,7.678 16.941 L 7.994 17.123 8.010 18.792 C 8.024 20.353,8.031 20.481,8.112 20.780 C 8.401 21.840,9.152 22.592,10.220 22.888 C 10.524 22.973,10.614 22.977,12.000 22.977 C 13.387 22.977,13.476 22.973,13.778 22.888 C 14.852 22.588,15.592 21.845,15.889 20.772 C 15.969 20.481,15.976 20.349,15.990 18.792 L 16.006 17.123 16.322 16.941 C 17.821 16.077,19.176 14.473,19.874 12.740 C 20.927 10.124,20.624 7.101,19.078 4.798 C 18.270 3.594,17.193 2.630,15.907 1.961 C 15.087 1.534,14.169 1.233,13.280 1.100 C 12.869 1.038,11.657 0.991,11.340 1.025 M13.073 3.099 C 15.462 3.519,17.351 5.125,18.153 7.420 C 18.446 8.258,18.555 9.399,18.436 10.380 C 18.186 12.434,16.831 14.419,15.027 15.375 L 14.753 15.520 12.000 15.520 L 9.247 15.520 8.973 15.375 C 7.423 14.554,6.158 12.924,5.720 11.185 C 5.410 9.953,5.458 8.531,5.847 7.420 C 6.721 4.923,8.886 3.245,11.520 3.024 C 11.830 2.998,12.751 3.042,13.073 3.099 M13.993 18.890 C 13.978 20.249,13.977 20.262,13.880 20.454 C 13.772 20.667,13.616 20.817,13.400 20.916 C 13.191 21.011,10.809 21.011,10.600 20.916 C 10.382 20.817,10.215 20.656,10.114 20.449 C 10.024 20.265,10.022 20.223,10.006 18.890 L 9.991 17.520 12.000 17.520 L 14.009 17.520 13.993 18.890 " stroke="none" fill-rule="evenodd" fill="black"></path></svg>