<svg width="24" height="24" viewBox="0 0 24 24" fill="none" xmlns="http://www.w3.org/2000/svg"><path d="M11.695 1.057 C 11.466 1.129,11.256 1.299,11.128 1.516 C 11.020 1.699,11.020 1.703,11.020 2.503 L 11.020 3.306 11.141 3.503 C 11.543 4.156,12.457 4.156,12.859 3.503 L 12.980 3.306 12.980 2.503 C 12.980 1.703,12.980 1.699,12.872 1.516 C 12.628 1.101,12.150 0.915,11.695 1.057 M4.444 4.025 C 3.940 4.276,3.745 4.967,4.051 5.420 C 4.173 5.600,4.758 6.191,4.943 6.320 C 5.258 6.541,5.741 6.539,6.065 6.317 C 6.498 6.018,6.619 5.372,6.321 4.943 C 6.139 4.680,5.507 4.088,5.316 4.002 C 5.055 3.883,4.711 3.892,4.444 4.025 M18.684 4.002 C 18.494 4.088,17.861 4.680,17.681 4.940 C 17.372 5.387,17.489 6.010,17.942 6.321 C 18.239 6.526,18.741 6.539,19.019 6.351 C 19.202 6.226,19.791 5.642,19.920 5.457 C 20.147 5.133,20.136 4.646,19.895 4.308 C 19.642 3.952,19.097 3.814,18.684 4.002 M11.540 5.023 C 10.715 5.102,10.250 5.200,9.620 5.427 C 7.452 6.207,5.779 8.052,5.223 10.275 C 5.064 10.908,5.023 11.264,5.023 12.000 C 5.023 12.736,5.064 13.092,5.223 13.725 C 5.699 15.629,7.057 17.337,8.794 18.217 L 8.993 18.318 9.009 19.449 C 9.025 20.491,9.033 20.602,9.117 20.860 C 9.435 21.840,10.184 22.582,11.160 22.886 C 11.594 23.021,12.406 23.021,12.840 22.886 C 13.816 22.582,14.565 21.840,14.883 20.860 C 14.967 20.602,14.975 20.491,14.991 19.449 L 15.007 18.318 15.206 18.217 C 16.733 17.443,17.983 16.018,18.573 14.380 C 18.876 13.538,18.977 12.944,18.977 12.000 C 18.977 11.056,18.876 10.462,18.573 9.620 C 17.715 7.237,15.581 5.473,13.102 5.098 C 12.726 5.041,11.813 4.997,11.540 5.023 M12.552 7.043 C 14.413 7.246,16.001 8.479,16.680 10.248 C 17.092 11.320,17.085 12.720,16.663 13.793 C 16.120 15.174,14.991 16.256,13.600 16.732 C 13.044 16.922,12.670 16.980,12.000 16.980 C 11.330 16.980,10.956 16.922,10.400 16.732 C 8.808 16.188,7.580 14.864,7.161 13.240 C 6.920 12.307,6.983 11.125,7.320 10.248 C 8.146 8.096,10.274 6.793,12.552 7.043 M1.695 11.057 C 1.466 11.129,1.256 11.299,1.128 11.516 C 1.037 11.672,1.020 11.746,1.020 12.000 C 1.020 12.256,1.036 12.328,1.131 12.489 C 1.256 12.702,1.449 12.864,1.670 12.943 C 1.878 13.017,3.122 13.017,3.330 12.943 C 3.551 12.864,3.744 12.702,3.869 12.489 C 3.964 12.328,3.980 12.256,3.980 12.000 C 3.980 11.746,3.963 11.672,3.872 11.516 C 3.740 11.293,3.533 11.128,3.290 11.055 C 3.050 10.983,1.928 10.984,1.695 11.057 M20.695 11.057 C 20.466 11.129,20.256 11.299,20.128 11.516 C 20.037 11.672,20.020 11.746,20.020 12.000 C 20.020 12.256,20.036 12.328,20.131 12.489 C 20.256 12.702,20.449 12.864,20.670 12.943 C 20.878 13.017,22.122 13.017,22.330 12.943 C 22.551 12.864,22.744 12.702,22.869 12.489 C 22.964 12.328,22.980 12.256,22.980 12.000 C 22.980 11.746,22.963 11.672,22.872 11.516 C 22.740 11.293,22.533 11.128,22.290 11.055 C 22.050 10.983,20.928 10.984,20.695 11.057 M12.000 18.980 C 12.363 18.980,12.737 18.966,12.830 18.950 L 13.000 18.919 13.000 19.513 C 13.000 20.356,12.896 20.630,12.484 20.872 C 12.328 20.963,12.254 20.980,12.000 20.980 C 11.746 20.980,11.672 20.963,11.516 20.872 C 11.415 20.813,11.284 20.700,11.225 20.623 C 11.035 20.374,11.000 20.205,11.000 19.534 L 11.000 18.919 11.170 18.950 C 11.263 18.966,11.637 18.980,12.000 18.980 " stroke="none" fill-rule="evenodd" fill="black"></path></svg>