<svg width="24" height="24" viewBox="0 0 24 24" fill="none" xmlns="http://www.w3.org/2000/svg"><path d="M11.207 1.043 C 9.656 1.193,8.096 1.846,6.900 2.847 C 5.985 3.612,5.307 4.477,4.800 5.529 C 3.602 8.009,3.758 10.879,5.218 13.234 C 5.845 14.246,6.867 15.264,7.805 15.813 L 7.990 15.922 8.011 16.691 C 8.027 17.297,8.049 17.528,8.116 17.780 C 8.394 18.833,9.154 19.595,10.220 19.889 C 10.523 19.973,10.617 19.977,12.000 19.977 C 13.380 19.977,13.477 19.972,13.772 19.890 C 14.852 19.587,15.602 18.837,15.884 17.778 C 15.951 17.527,15.973 17.298,15.989 16.691 L 16.010 15.922 16.195 15.815 C 16.565 15.601,17.269 15.039,17.649 14.654 C 20.073 12.199,20.685 8.602,19.200 5.529 C 18.693 4.477,18.015 3.612,17.100 2.847 C 15.482 1.493,13.338 0.837,11.207 1.043 M12.564 3.039 C 14.921 3.269,16.913 4.837,17.671 7.060 C 18.200 8.611,18.071 10.312,17.316 11.758 C 16.740 12.862,15.917 13.696,14.823 14.286 C 14.605 14.404,14.358 14.569,14.276 14.652 C 14.034 14.896,14.008 15.039,13.990 16.222 C 13.974 17.225,13.970 17.271,13.878 17.456 C 13.772 17.667,13.616 17.817,13.400 17.916 C 13.281 17.970,13.069 17.980,12.000 17.980 C 10.762 17.980,10.737 17.978,10.551 17.887 C 10.447 17.836,10.314 17.737,10.255 17.667 C 10.042 17.415,10.030 17.338,10.011 16.220 C 9.992 15.040,9.965 14.896,9.724 14.652 C 9.642 14.569,9.395 14.404,9.177 14.286 C 8.632 13.992,8.209 13.682,7.802 13.280 C 5.657 11.156,5.406 7.820,7.209 5.400 C 7.316 5.257,7.551 4.989,7.731 4.805 C 9.008 3.503,10.757 2.864,12.564 3.039 M9.240 21.037 C 8.792 21.175,8.512 21.546,8.512 22.000 C 8.512 22.405,8.719 22.724,9.100 22.905 L 9.300 22.999 12.000 22.999 L 14.700 22.999 14.900 22.905 C 15.281 22.724,15.488 22.405,15.488 22.000 C 15.488 21.615,15.293 21.297,14.940 21.106 C 14.781 21.020,14.765 21.020,12.060 21.013 C 10.564 21.009,9.295 21.020,9.240 21.037 " stroke="none" fill-rule="evenodd" fill="black"></path></svg>