<svg width="24" height="24" viewBox="0 0 24 24" fill="none" xmlns="http://www.w3.org/2000/svg"><path d="M7.959 1.054 C 7.670 1.117,7.408 1.274,7.200 1.509 C 7.073 1.653,6.476 2.811,4.757 6.246 C 3.507 8.747,2.447 10.901,2.402 11.035 C 2.196 11.646,2.393 12.303,2.896 12.679 C 3.314 12.992,3.159 12.978,6.325 13.000 L 9.150 13.020 7.840 17.386 C 7.120 19.787,6.518 21.818,6.503 21.898 C 6.440 22.233,6.703 22.705,7.054 22.890 C 7.287 23.013,7.714 23.013,7.948 22.889 C 8.064 22.828,10.092 20.751,14.424 16.259 C 17.894 12.661,20.816 9.614,20.918 9.486 C 21.627 8.603,21.354 7.496,20.331 7.109 C 20.102 7.022,20.071 7.021,16.776 7.001 L 13.453 6.980 14.346 4.600 C 15.348 1.928,15.338 1.967,15.130 1.557 C 15.007 1.316,14.764 1.107,14.529 1.042 C 14.307 0.980,8.250 0.992,7.959 1.054 M12.781 3.070 C 12.275 4.358,11.022 7.789,11.009 7.920 C 10.973 8.297,11.168 8.667,11.508 8.867 L 11.700 8.980 15.163 9.000 L 18.626 9.020 14.164 13.648 C 11.710 16.193,9.695 18.268,9.687 18.260 C 9.678 18.251,10.081 16.880,10.582 15.212 C 11.549 11.995,11.560 11.948,11.421 11.616 C 11.340 11.422,11.149 11.220,10.940 11.106 C 10.780 11.020,10.771 11.020,7.710 11.009 C 6.021 11.003,4.640 10.990,4.640 10.979 C 4.640 10.969,5.535 9.169,6.630 6.980 L 8.620 3.000 10.714 3.000 C 12.693 3.000,12.807 3.004,12.781 3.070 " stroke="none" fill-rule="evenodd" fill="black"></path></svg>