<svg width="24" height="24" viewBox="0 0 24 24" fill="none" xmlns="http://www.w3.org/2000/svg"><path d="M2.695 2.057 C 2.466 2.129,2.256 2.299,2.128 2.516 C 2.037 2.672,2.020 2.746,2.020 3.000 C 2.020 3.256,2.036 3.328,2.131 3.489 C 2.256 3.702,2.449 3.864,2.670 3.943 C 2.893 4.023,21.107 4.023,21.330 3.943 C 21.551 3.864,21.744 3.702,21.869 3.489 C 21.964 3.328,21.980 3.256,21.980 3.000 C 21.980 2.746,21.963 2.672,21.872 2.516 C 21.740 2.293,21.533 2.128,21.290 2.055 C 21.027 1.976,2.947 1.978,2.695 2.057 M11.473 5.815 C 11.169 5.940,10.956 6.115,10.770 6.394 C 10.638 6.592,6.277 16.114,6.073 16.650 C 5.931 17.021,6.017 17.419,6.299 17.701 C 6.689 18.091,7.312 18.092,7.697 17.703 C 7.834 17.565,7.988 17.256,8.660 15.770 L 9.460 14.001 12.000 14.001 L 14.540 14.001 15.340 15.770 C 16.012 17.256,16.166 17.565,16.303 17.703 C 16.688 18.092,17.311 18.091,17.701 17.701 C 17.983 17.419,18.069 17.021,17.927 16.650 C 17.723 16.114,13.362 6.592,13.230 6.394 C 12.933 5.951,12.515 5.722,12.000 5.722 C 11.777 5.722,11.642 5.746,11.473 5.815 M12.814 10.210 C 13.246 11.162,13.600 11.954,13.600 11.970 C 13.600 11.987,12.880 12.000,12.000 12.000 C 11.120 12.000,10.400 11.987,10.400 11.970 C 10.400 11.912,11.973 8.480,12.000 8.480 C 12.015 8.480,12.381 9.258,12.814 10.210 M2.695 20.057 C 2.466 20.129,2.256 20.299,2.128 20.516 C 2.037 20.672,2.020 20.746,2.020 21.000 C 2.020 21.256,2.036 21.328,2.131 21.489 C 2.256 21.702,2.449 21.864,2.670 21.943 C 2.893 22.023,21.107 22.023,21.330 21.943 C 21.551 21.864,21.744 21.702,21.869 21.489 C 21.964 21.328,21.980 21.256,21.980 21.000 C 21.980 20.746,21.963 20.672,21.872 20.516 C 21.740 20.293,21.533 20.128,21.290 20.055 C 21.027 19.976,2.947 19.978,2.695 20.057 " stroke="none" fill-rule="evenodd" fill="black"></path></svg>