<svg width="24" height="24" viewBox="0 0 24 24" fill="none" xmlns="http://www.w3.org/2000/svg"><path d="M2.695 2.057 C 2.466 2.129,2.256 2.299,2.128 2.516 L 2.020 2.700 2.010 11.411 C 1.998 20.934,1.987 20.425,2.227 20.919 C 2.366 21.205,2.795 21.634,3.081 21.773 C 3.570 22.011,3.071 21.999,12.520 21.998 C 19.651 21.997,21.206 21.987,21.330 21.943 C 21.551 21.864,21.744 21.702,21.869 21.489 C 21.964 21.328,21.980 21.256,21.980 21.000 C 21.980 20.746,21.963 20.672,21.872 20.516 C 21.740 20.293,21.533 20.128,21.290 20.055 C 21.138 20.009,19.686 20.000,12.554 20.000 L 4.001 20.000 3.990 11.350 L 3.980 2.700 3.872 2.516 C 3.628 2.101,3.150 1.915,2.695 2.057 M16.695 6.057 C 16.466 6.129,16.256 6.299,16.128 6.516 C 16.037 6.672,16.020 6.746,16.020 7.000 C 16.020 7.256,16.036 7.328,16.131 7.489 C 16.192 7.592,16.304 7.725,16.381 7.783 C 16.635 7.977,16.753 7.996,17.700 7.998 L 18.580 8.000 16.791 9.789 L 15.002 11.578 13.951 10.538 C 13.243 9.837,12.835 9.463,12.700 9.392 C 12.272 9.166,11.731 9.166,11.300 9.391 C 11.153 9.468,10.454 10.139,8.667 11.918 C 7.329 13.250,6.189 14.416,6.134 14.508 C 5.862 14.968,6.032 15.587,6.508 15.867 C 6.673 15.964,6.742 15.980,7.000 15.979 C 7.212 15.979,7.341 15.957,7.440 15.905 C 7.517 15.865,8.574 14.840,9.789 13.627 L 11.999 11.422 13.049 12.465 C 13.977 13.386,14.133 13.524,14.379 13.644 C 14.630 13.766,14.693 13.780,15.000 13.780 C 15.306 13.780,15.370 13.766,15.621 13.645 C 15.879 13.520,16.057 13.353,17.947 11.468 L 19.995 9.427 20.007 10.367 L 20.020 11.307 20.141 11.503 C 20.543 12.156,21.457 12.156,21.859 11.503 L 21.980 11.306 21.980 9.003 L 21.980 6.700 21.872 6.516 C 21.740 6.293,21.533 6.128,21.290 6.055 C 21.033 5.978,16.943 5.979,16.695 6.057 " stroke="none" fill-rule="evenodd" fill="black"></path></svg>