<svg width="24" height="24" viewBox="0 0 24 24" fill="none" xmlns="http://www.w3.org/2000/svg"><path d="M11.280 1.023 C 11.203 1.032,10.951 1.059,10.720 1.083 C 9.527 1.210,8.337 1.558,7.180 2.120 C 6.045 2.671,5.193 3.285,4.238 4.239 C 3.277 5.198,2.643 6.080,2.097 7.220 C 0.301 10.968,0.728 15.286,3.226 18.633 C 3.701 19.269,4.753 20.316,5.400 20.797 C 9.364 23.745,14.666 23.734,18.637 20.770 C 19.246 20.316,20.316 19.246,20.770 18.637 C 23.744 14.652,23.744 9.348,20.770 5.363 C 20.316 4.755,19.247 3.686,18.640 3.235 C 17.045 2.049,15.365 1.360,13.423 1.096 C 13.000 1.038,11.574 0.990,11.280 1.023 M13.320 3.101 C 15.883 3.488,18.124 4.931,19.560 7.120 C 19.863 7.583,20.303 8.479,20.492 9.020 C 20.838 10.013,20.977 10.865,20.977 12.000 C 20.977 13.493,20.720 14.621,20.080 15.940 C 19.375 17.394,18.311 18.607,16.927 19.532 C 16.138 20.060,14.876 20.588,13.908 20.797 C 11.266 21.366,8.479 20.708,6.370 19.019 C 4.857 17.807,3.722 16.029,3.267 14.160 C 3.081 13.397,3.023 12.888,3.023 12.000 C 3.023 10.507,3.280 9.379,3.920 8.060 C 4.971 5.891,6.877 4.221,9.160 3.466 C 9.865 3.233,10.432 3.118,11.340 3.024 C 11.662 2.991,12.911 3.039,13.320 3.101 M5.695 9.057 C 5.466 9.129,5.256 9.299,5.128 9.516 C 5.037 9.672,5.020 9.746,5.020 10.000 C 5.020 10.254,5.036 10.328,5.127 10.480 C 5.186 10.580,6.097 11.519,7.167 12.585 C 8.946 14.356,9.122 14.520,9.379 14.645 C 9.630 14.766,9.693 14.780,10.000 14.780 C 10.307 14.780,10.370 14.766,10.621 14.645 C 10.875 14.521,11.040 14.370,12.450 12.965 L 14.001 11.422 15.710 13.127 C 16.651 14.064,17.483 14.865,17.560 14.905 C 17.659 14.957,17.788 14.979,18.000 14.979 C 18.258 14.980,18.327 14.964,18.492 14.867 C 18.968 14.587,19.138 13.968,18.866 13.508 C 18.811 13.416,17.896 12.475,16.833 11.418 C 15.436 10.029,14.845 9.467,14.700 9.391 C 14.270 9.166,13.730 9.166,13.300 9.392 C 13.158 9.466,12.650 9.944,11.550 11.037 L 10.000 12.577 8.270 10.852 C 6.616 9.203,6.530 9.125,6.323 9.064 C 6.066 8.988,5.919 8.987,5.695 9.057 " stroke="none" fill-rule="evenodd" fill="black"></path></svg>