<svg width="24" height="24" viewBox="0 0 24 24" fill="none" xmlns="http://www.w3.org/2000/svg"><path d="M5.920 2.041 C 5.151 2.092,4.672 2.205,4.180 2.451 C 3.089 2.996,2.357 3.961,2.124 5.160 C 2.013 5.729,2.000 6.455,2.000 12.000 C 2.000 18.358,2.006 18.526,2.245 19.320 C 2.577 20.422,3.578 21.423,4.680 21.755 C 5.474 21.994,5.642 22.000,12.000 22.000 C 18.358 22.000,18.526 21.994,19.320 21.755 C 20.422 21.423,21.423 20.422,21.755 19.320 C 21.994 18.526,22.000 18.358,22.000 12.000 C 22.000 5.642,21.994 5.474,21.755 4.680 C 21.424 3.581,20.465 2.622,19.320 2.246 C 18.644 2.024,18.800 2.029,12.340 2.019 C 9.062 2.014,6.173 2.024,5.920 2.041 M18.492 4.091 C 18.894 4.188,19.109 4.309,19.400 4.600 C 19.696 4.895,19.814 5.109,19.912 5.528 C 19.975 5.797,19.980 6.313,19.980 12.000 C 19.980 17.687,19.975 18.203,19.912 18.472 C 19.874 18.633,19.802 18.849,19.752 18.952 C 19.626 19.211,19.190 19.638,18.918 19.768 C 18.466 19.985,18.627 19.980,12.000 19.980 C 5.383 19.980,5.538 19.985,5.082 19.771 C 4.812 19.643,4.377 19.217,4.248 18.952 C 4.023 18.490,4.028 18.594,4.011 13.820 L 3.996 9.420 5.548 10.965 C 6.960 12.370,7.125 12.521,7.379 12.645 C 7.630 12.766,7.693 12.780,8.000 12.780 C 8.307 12.780,8.370 12.766,8.621 12.644 C 8.867 12.524,9.023 12.386,9.951 11.465 L 11.002 10.422 12.791 12.211 L 14.580 14.000 13.736 14.000 C 12.812 14.000,12.634 14.029,12.382 14.221 C 12.302 14.282,12.187 14.415,12.128 14.516 C 12.037 14.672,12.020 14.746,12.020 15.000 C 12.020 15.256,12.036 15.328,12.131 15.489 C 12.256 15.702,12.449 15.864,12.670 15.943 C 12.889 16.021,17.111 16.021,17.330 15.943 C 17.551 15.864,17.744 15.702,17.869 15.489 L 17.980 15.300 17.980 13.000 L 17.980 10.700 17.871 10.514 C 17.479 9.848,16.521 9.848,16.129 10.514 L 16.020 10.700 16.007 11.636 L 15.995 12.572 13.947 10.534 C 12.459 9.053,11.845 8.468,11.700 8.391 C 11.269 8.166,10.729 8.166,10.300 8.392 C 10.165 8.463,9.757 8.837,9.049 9.538 L 7.998 10.578 6.001 8.581 L 4.004 6.585 4.026 6.182 C 4.069 5.403,4.189 5.036,4.520 4.667 C 4.883 4.262,5.282 4.091,5.980 4.039 C 6.200 4.023,9.044 4.013,12.300 4.018 C 17.643 4.024,18.247 4.032,18.492 4.091 " stroke="none" fill-rule="evenodd" fill="black"></path></svg>