<svg width="24" height="24" viewBox="0 0 24 24" fill="none" xmlns="http://www.w3.org/2000/svg"><path d="M5.920 2.041 C 5.151 2.092,4.672 2.205,4.180 2.451 C 3.089 2.996,2.357 3.961,2.124 5.160 C 2.013 5.729,2.000 6.455,2.000 12.000 C 2.000 18.358,2.006 18.526,2.245 19.320 C 2.577 20.422,3.578 21.423,4.680 21.755 C 5.474 21.994,5.642 22.000,12.000 22.000 C 18.358 22.000,18.526 21.994,19.320 21.755 C 20.422 21.423,21.423 20.422,21.755 19.320 C 21.994 18.526,22.000 18.358,22.000 12.000 C 22.000 5.642,21.994 5.474,21.755 4.680 C 21.424 3.581,20.465 2.622,19.320 2.246 C 18.644 2.024,18.800 2.029,12.340 2.019 C 9.062 2.014,6.173 2.024,5.920 2.041 M18.492 4.091 C 18.894 4.188,19.109 4.309,19.400 4.600 C 19.696 4.895,19.814 5.109,19.912 5.528 C 19.975 5.797,19.980 6.313,19.980 12.000 C 19.980 17.687,19.975 18.203,19.912 18.472 C 19.814 18.891,19.696 19.104,19.400 19.401 C 19.101 19.701,18.820 19.851,18.418 19.928 C 18.010 20.005,5.990 20.005,5.582 19.927 C 5.170 19.850,4.898 19.704,4.600 19.403 C 4.193 18.993,4.072 18.657,4.026 17.818 L 4.004 17.415 6.001 15.419 L 7.998 13.422 9.049 14.465 C 9.977 15.386,10.133 15.524,10.379 15.644 C 10.630 15.766,10.693 15.780,11.000 15.780 C 11.306 15.780,11.370 15.766,11.621 15.645 C 11.879 15.520,12.057 15.353,13.947 13.468 L 15.995 11.427 16.007 12.367 L 16.020 13.307 16.141 13.503 C 16.543 14.156,17.457 14.156,17.859 13.503 L 17.980 13.306 17.980 11.003 L 17.980 8.700 17.872 8.516 C 17.747 8.303,17.550 8.141,17.316 8.058 C 17.079 7.975,12.987 7.972,12.710 8.055 C 12.467 8.128,12.260 8.293,12.128 8.516 C 12.037 8.672,12.020 8.746,12.020 9.000 C 12.020 9.256,12.036 9.328,12.131 9.489 C 12.192 9.592,12.304 9.725,12.381 9.783 C 12.635 9.977,12.753 9.996,13.700 9.998 L 14.580 10.000 12.791 11.789 L 11.002 13.578 9.951 12.538 C 9.243 11.837,8.835 11.463,8.700 11.392 C 8.271 11.166,7.730 11.166,7.300 11.392 C 7.158 11.466,6.648 11.945,5.548 13.038 L 3.996 14.580 4.011 10.180 C 4.025 6.286,4.034 5.749,4.092 5.508 C 4.177 5.152,4.298 4.913,4.520 4.667 C 4.883 4.262,5.282 4.091,5.980 4.039 C 6.200 4.023,9.044 4.013,12.300 4.018 C 17.643 4.024,18.247 4.032,18.492 4.091 " stroke="none" fill-rule="evenodd" fill="black"></path></svg>