<svg width="24" height="24" viewBox="0 0 24 24" fill="none" xmlns="http://www.w3.org/2000/svg"><path d="M5.920 2.041 C 5.151 2.092,4.672 2.205,4.180 2.451 C 3.089 2.996,2.357 3.961,2.124 5.160 C 2.013 5.729,2.000 6.455,2.000 12.000 C 2.000 18.358,2.006 18.526,2.245 19.320 C 2.577 20.422,3.578 21.423,4.680 21.755 C 5.474 21.994,5.642 22.000,12.000 22.000 C 18.358 22.000,18.526 21.994,19.320 21.755 C 20.422 21.423,21.423 20.422,21.755 19.320 C 21.994 18.526,22.000 18.358,22.000 12.000 C 22.000 5.642,21.994 5.474,21.755 4.680 C 21.424 3.581,20.465 2.622,19.320 2.246 C 18.644 2.024,18.800 2.029,12.340 2.019 C 9.062 2.014,6.173 2.024,5.920 2.041 M18.492 4.091 C 18.894 4.188,19.109 4.309,19.400 4.600 C 19.909 5.108,19.957 5.321,19.984 7.140 L 20.004 8.500 17.060 10.596 L 14.115 12.692 12.467 11.053 C 10.962 9.556,10.798 9.405,10.560 9.297 C 10.334 9.196,10.252 9.180,9.940 9.180 C 9.636 9.180,9.546 9.196,9.360 9.284 C 9.239 9.341,8.024 10.185,6.660 11.159 C 5.296 12.134,4.139 12.958,4.087 12.992 L 3.994 13.053 4.011 9.417 C 4.025 6.245,4.036 5.745,4.092 5.508 C 4.176 5.153,4.298 4.914,4.520 4.667 C 4.883 4.262,5.282 4.091,5.980 4.039 C 6.200 4.023,9.044 4.013,12.300 4.018 C 17.643 4.024,18.247 4.032,18.492 4.091 M19.989 14.820 C 19.971 18.494,19.970 18.504,19.752 18.952 C 19.626 19.211,19.190 19.638,18.918 19.768 C 18.466 19.985,18.627 19.980,12.000 19.980 C 5.383 19.980,5.538 19.985,5.082 19.771 C 4.812 19.643,4.377 19.217,4.248 18.952 C 4.062 18.569,4.031 18.280,4.025 16.842 L 4.020 15.504 6.954 13.407 L 9.889 11.311 11.514 12.930 C 12.496 13.908,13.211 14.589,13.320 14.649 C 13.717 14.870,14.230 14.898,14.632 14.722 C 14.749 14.670,16.000 13.803,17.412 12.794 L 19.980 10.959 19.993 11.190 C 20.000 11.316,19.998 12.950,19.989 14.820 " stroke="none" fill-rule="evenodd" fill="black"></path></svg>