<svg width="24" height="24" viewBox="0 0 24 24" fill="none" xmlns="http://www.w3.org/2000/svg"><path d="M5.358 2.061 C 3.731 2.315,2.417 3.584,2.083 5.227 C 2.001 5.627,2.000 5.723,2.000 12.000 C 2.000 18.277,2.001 18.373,2.083 18.773 C 2.311 19.892,2.985 20.851,3.956 21.436 C 4.285 21.635,4.810 21.832,5.243 21.921 C 5.622 21.998,5.805 22.000,12.000 22.000 C 18.195 22.000,18.378 21.998,18.757 21.921 C 20.117 21.643,21.193 20.755,21.704 19.488 C 21.779 19.300,21.877 18.972,21.921 18.757 C 21.998 18.378,22.000 18.195,22.000 12.000 C 22.000 5.805,21.998 5.622,21.921 5.243 C 21.628 3.806,20.637 2.680,19.245 2.204 C 18.646 1.999,18.690 2.000,11.960 2.004 C 6.959 2.007,5.631 2.018,5.358 2.061 M18.523 4.073 C 19.240 4.260,19.841 4.917,19.960 5.640 C 19.988 5.814,19.999 7.082,19.991 9.473 L 19.980 13.046 17.420 11.216 C 16.012 10.210,14.761 9.341,14.640 9.284 C 14.450 9.194,14.367 9.180,14.040 9.181 C 13.396 9.184,13.446 9.147,11.533 11.052 L 9.885 12.692 6.945 10.596 L 4.004 8.500 4.002 7.148 C 4.000 6.062,4.012 5.742,4.062 5.522 C 4.215 4.850,4.801 4.250,5.477 4.073 C 5.720 4.010,6.211 4.005,12.000 4.005 C 17.789 4.005,18.280 4.010,18.523 4.073 M6.610 12.810 C 7.991 13.796,9.215 14.652,9.330 14.712 C 9.518 14.809,9.582 14.820,9.940 14.819 C 10.606 14.817,10.545 14.862,12.466 12.950 L 14.112 11.311 17.046 13.407 L 19.980 15.503 19.991 16.802 C 20.004 18.247,19.981 18.488,19.792 18.880 C 19.639 19.197,19.228 19.624,18.930 19.775 C 18.462 20.012,18.828 20.000,12.000 20.000 C 5.194 20.000,5.535 20.011,5.083 19.781 C 4.816 19.646,4.449 19.297,4.281 19.017 C 3.996 18.544,4.005 18.680,4.002 14.608 C 4.000 11.696,4.010 10.962,4.050 10.986 C 4.077 11.003,5.230 11.824,6.610 12.810 " stroke="none" fill-rule="evenodd" fill="black"></path></svg>