<svg width="24" height="24" viewBox="0 0 24 24" fill="none" xmlns="http://www.w3.org/2000/svg"><path d="M2.695 2.057 C 2.466 2.129,2.256 2.299,2.128 2.516 L 2.020 2.700 2.010 11.411 C 1.998 20.934,1.987 20.425,2.227 20.919 C 2.366 21.205,2.795 21.634,3.081 21.773 C 3.570 22.011,3.071 21.999,12.520 21.998 C 19.651 21.997,21.206 21.987,21.330 21.943 C 21.551 21.864,21.744 21.702,21.869 21.489 C 21.964 21.328,21.980 21.256,21.980 21.000 C 21.980 20.746,21.963 20.672,21.872 20.516 C 21.740 20.293,21.533 20.128,21.290 20.055 C 21.138 20.009,19.686 20.000,12.554 20.000 L 4.001 20.000 3.990 11.350 L 3.980 2.700 3.872 2.516 C 3.628 2.101,3.150 1.915,2.695 2.057 M6.695 6.057 C 6.466 6.129,6.256 6.299,6.128 6.516 C 6.037 6.672,6.020 6.746,6.020 7.000 C 6.020 7.254,6.036 7.328,6.127 7.480 C 6.187 7.581,7.299 8.721,8.667 10.085 C 10.929 12.339,11.120 12.519,11.379 12.645 C 11.629 12.766,11.694 12.780,12.000 12.780 C 12.307 12.780,12.370 12.766,12.621 12.644 C 12.867 12.524,13.023 12.386,13.951 11.465 L 15.002 10.422 16.791 12.211 L 18.580 14.000 17.736 14.000 C 16.812 14.000,16.634 14.029,16.382 14.221 C 16.302 14.282,16.187 14.415,16.128 14.516 C 16.037 14.672,16.020 14.746,16.020 15.000 C 16.020 15.256,16.036 15.328,16.131 15.489 C 16.256 15.702,16.449 15.864,16.670 15.943 C 16.889 16.021,21.111 16.021,21.330 15.943 C 21.551 15.864,21.744 15.702,21.869 15.489 L 21.980 15.300 21.980 13.000 L 21.980 10.700 21.871 10.514 C 21.479 9.848,20.521 9.848,20.129 10.514 L 20.020 10.700 20.007 11.636 L 19.995 12.572 17.947 10.534 C 16.459 9.053,15.845 8.468,15.700 8.391 C 15.269 8.166,14.729 8.166,14.300 8.392 C 14.165 8.463,13.758 8.837,13.049 9.537 L 11.999 10.577 9.769 8.352 C 7.622 6.209,7.532 6.125,7.323 6.064 C 7.066 5.988,6.919 5.987,6.695 6.057 " stroke="none" fill-rule="evenodd" fill="black"></path></svg>