<svg width="24" height="24" viewBox="0 0 24 24" fill="none" xmlns="http://www.w3.org/2000/svg"><path d="M11.280 1.023 C 11.203 1.032,10.951 1.059,10.720 1.083 C 9.527 1.210,8.337 1.558,7.180 2.120 C 6.045 2.671,5.193 3.285,4.238 4.239 C 3.277 5.198,2.643 6.080,2.097 7.220 C 0.301 10.968,0.728 15.286,3.226 18.633 C 3.701 19.269,4.753 20.316,5.400 20.797 C 9.364 23.745,14.666 23.734,18.637 20.770 C 19.246 20.316,20.316 19.246,20.770 18.637 C 23.744 14.652,23.744 9.348,20.770 5.363 C 20.316 4.755,19.247 3.686,18.640 3.235 C 17.045 2.049,15.365 1.360,13.423 1.096 C 13.000 1.038,11.574 0.990,11.280 1.023 M13.320 3.101 C 15.883 3.488,18.124 4.931,19.560 7.120 C 19.863 7.583,20.303 8.479,20.492 9.020 C 20.838 10.013,20.977 10.865,20.977 12.000 C 20.977 13.493,20.720 14.621,20.080 15.940 C 19.375 17.394,18.311 18.607,16.927 19.532 C 16.138 20.060,14.876 20.588,13.908 20.797 C 11.266 21.366,8.479 20.708,6.370 19.019 C 4.857 17.807,3.722 16.029,3.267 14.160 C 3.081 13.397,3.023 12.888,3.023 12.000 C 3.023 10.507,3.280 9.379,3.920 8.060 C 4.971 5.891,6.877 4.221,9.160 3.466 C 9.865 3.233,10.432 3.118,11.340 3.024 C 11.662 2.991,12.911 3.039,13.320 3.101 M17.640 9.068 C 17.488 9.121,17.196 9.394,15.730 10.854 L 14.000 12.577 12.450 11.037 C 11.350 9.944,10.842 9.466,10.700 9.392 C 10.270 9.166,9.730 9.166,9.300 9.391 C 9.155 9.467,8.564 10.029,7.167 11.418 C 6.104 12.475,5.189 13.416,5.134 13.508 C 4.862 13.968,5.032 14.587,5.508 14.867 C 5.673 14.964,5.742 14.980,6.000 14.979 C 6.212 14.979,6.341 14.957,6.440 14.905 C 6.517 14.865,7.349 14.064,8.290 13.127 L 9.999 11.422 11.550 12.965 C 12.960 14.370,13.125 14.521,13.379 14.645 C 13.630 14.766,13.693 14.780,14.000 14.780 C 14.307 14.780,14.370 14.766,14.621 14.645 C 14.878 14.520,15.054 14.356,16.833 12.585 C 17.903 11.519,18.814 10.580,18.873 10.480 C 18.964 10.328,18.980 10.254,18.980 10.000 C 18.980 9.746,18.963 9.672,18.872 9.516 C 18.617 9.083,18.121 8.903,17.640 9.068 " stroke="none" fill-rule="evenodd" fill="black"></path></svg>