<svg width="24" height="24" viewBox="0 0 24 24" fill="none" xmlns="http://www.w3.org/2000/svg"><path d="M2.695 2.057 C 2.466 2.129,2.256 2.299,2.128 2.516 L 2.020 2.700 2.010 11.411 C 1.998 20.934,1.987 20.425,2.227 20.919 C 2.366 21.205,2.795 21.634,3.081 21.773 C 3.570 22.011,3.071 21.999,12.520 21.998 C 19.651 21.997,21.206 21.987,21.330 21.943 C 21.551 21.864,21.744 21.702,21.869 21.489 C 21.964 21.328,21.980 21.256,21.980 21.000 C 21.980 20.746,21.963 20.672,21.872 20.516 C 21.740 20.293,21.533 20.128,21.290 20.055 C 21.138 20.009,19.686 20.000,12.554 20.000 L 4.001 20.000 3.990 11.350 L 3.980 2.700 3.872 2.516 C 3.628 2.101,3.150 1.915,2.695 2.057 M6.673 7.054 C 6.446 7.139,6.216 7.343,6.113 7.551 C 5.979 7.824,5.982 8.236,6.120 8.467 C 6.225 8.642,9.905 12.588,10.391 13.046 C 10.590 13.233,10.741 13.338,10.906 13.400 C 11.222 13.521,11.622 13.525,11.929 13.411 C 12.055 13.365,12.890 12.946,13.784 12.481 C 14.679 12.016,15.433 11.644,15.461 11.655 C 15.489 11.666,16.382 12.603,17.446 13.738 C 18.920 15.311,19.423 15.823,19.560 15.891 C 19.833 16.026,20.238 16.017,20.489 15.869 C 20.960 15.592,21.139 14.964,20.873 14.521 C 20.772 14.354,17.071 10.389,16.610 9.954 C 16.408 9.765,16.261 9.664,16.094 9.601 C 15.802 9.492,15.382 9.483,15.100 9.580 C 14.990 9.618,14.162 10.032,13.260 10.501 C 12.357 10.970,11.601 11.360,11.579 11.367 C 11.557 11.374,10.657 10.439,9.579 9.289 C 8.124 7.736,7.576 7.177,7.449 7.115 C 7.233 7.010,6.867 6.981,6.673 7.054 " stroke="none" fill-rule="evenodd" fill="black"></path></svg>