<svg width="24" height="24" viewBox="0 0 24 24" fill="none" xmlns="http://www.w3.org/2000/svg"><path d="M2.695 2.057 C 2.466 2.129,2.256 2.299,2.128 2.516 L 2.020 2.700 2.010 11.411 C 1.998 20.934,1.987 20.425,2.227 20.919 C 2.366 21.205,2.795 21.634,3.081 21.773 C 3.570 22.011,3.071 21.999,12.520 21.998 C 19.651 21.997,21.206 21.987,21.330 21.943 C 21.551 21.864,21.744 21.702,21.869 21.489 C 21.964 21.328,21.980 21.256,21.980 21.000 C 21.980 20.746,21.963 20.672,21.872 20.516 C 21.740 20.293,21.533 20.128,21.290 20.055 C 21.138 20.009,19.686 20.000,12.554 20.000 L 4.001 20.000 3.990 11.350 L 3.980 2.700 3.872 2.516 C 3.628 2.101,3.150 1.915,2.695 2.057 M19.674 7.061 C 19.567 7.095,19.410 7.193,19.307 7.290 C 19.208 7.384,18.299 8.344,17.288 9.425 L 15.450 11.390 13.795 10.529 C 12.885 10.055,12.041 9.632,11.920 9.589 C 11.620 9.482,11.212 9.487,10.906 9.601 C 10.739 9.664,10.592 9.765,10.391 9.954 C 9.925 10.393,6.227 14.354,6.127 14.521 C 5.861 14.965,6.040 15.592,6.511 15.869 C 6.762 16.017,7.167 16.026,7.440 15.891 C 7.578 15.823,8.075 15.315,9.560 13.724 C 10.627 12.582,11.522 11.645,11.549 11.643 C 11.576 11.642,12.328 12.020,13.220 12.483 C 14.112 12.947,14.945 13.365,15.071 13.411 C 15.378 13.525,15.778 13.521,16.094 13.400 C 16.259 13.338,16.410 13.233,16.610 13.046 C 17.071 12.611,20.772 8.646,20.873 8.479 C 21.147 8.022,20.936 7.357,20.436 7.098 C 20.257 7.006,19.900 6.988,19.674 7.061 " stroke="none" fill-rule="evenodd" fill="black"></path></svg>