<svg width="24" height="24" viewBox="0 0 24 24" fill="none" xmlns="http://www.w3.org/2000/svg"><path d="M6.380 6.041 C 3.766 6.314,1.681 8.214,1.114 10.840 C 0.984 11.446,0.984 12.554,1.114 13.160 C 1.638 15.587,3.402 17.352,5.840 17.887 C 6.243 17.976,6.331 17.980,8.000 17.980 C 9.669 17.980,9.757 17.976,10.160 17.887 C 10.391 17.836,10.742 17.739,10.940 17.672 C 13.284 16.869,14.953 14.614,14.975 12.220 C 14.980 11.721,14.976 11.692,14.871 11.514 C 14.482 10.853,13.520 10.847,13.136 11.503 C 13.053 11.645,13.026 11.762,12.996 12.110 C 12.929 12.890,12.838 13.242,12.557 13.804 C 12.014 14.892,10.989 15.670,9.773 15.917 C 9.410 15.991,9.224 16.000,8.000 16.000 C 6.776 16.000,6.590 15.991,6.227 15.917 C 4.566 15.579,3.309 14.265,3.058 12.605 C 2.986 12.121,2.986 11.879,3.058 11.395 C 3.280 9.926,4.324 8.690,5.755 8.203 C 6.115 8.081,6.702 8.001,7.240 8.000 C 7.640 7.999,7.726 7.987,7.900 7.905 C 8.281 7.724,8.488 7.405,8.488 7.000 C 8.488 6.615,8.292 6.296,7.940 6.108 C 7.802 6.034,7.706 6.021,7.240 6.015 C 6.943 6.011,6.556 6.022,6.380 6.041 M14.380 6.043 C 11.430 6.334,9.051 8.883,9.025 11.783 C 9.020 12.298,9.022 12.308,9.141 12.503 C 9.539 13.150,10.457 13.157,10.852 12.514 C 10.949 12.356,10.972 12.264,11.004 11.894 C 11.073 11.090,11.164 10.746,11.464 10.160 C 11.829 9.446,12.446 8.829,13.160 8.464 C 13.942 8.064,14.330 8.000,16.000 8.000 C 17.670 8.000,18.058 8.064,18.840 8.464 C 19.739 8.924,20.462 9.771,20.797 10.755 C 20.897 11.050,21.000 11.680,21.000 12.000 C 21.000 12.322,20.897 12.951,20.796 13.245 C 20.416 14.354,19.607 15.231,18.545 15.684 C 18.054 15.893,17.687 15.964,16.920 15.996 C 16.322 16.021,16.197 16.037,16.060 16.109 C 15.708 16.294,15.512 16.614,15.512 17.003 C 15.512 17.423,15.768 17.785,16.175 17.940 C 16.338 18.003,16.450 18.009,17.071 17.988 C 18.105 17.954,18.839 17.778,19.656 17.371 C 21.332 16.535,22.483 15.033,22.885 13.160 C 23.015 12.554,23.015 11.446,22.885 10.840 C 22.626 9.631,22.109 8.660,21.269 7.805 C 20.258 6.775,19.009 6.180,17.564 6.039 C 17.109 5.995,14.838 5.997,14.380 6.043 " stroke="none" fill-rule="evenodd" fill="black"></path></svg>