<svg width="24" height="24" viewBox="0 0 24 24" fill="none" xmlns="http://www.w3.org/2000/svg"><path d="M8.695 1.057 C 8.466 1.129,8.256 1.299,8.128 1.516 L 8.020 1.700 8.020 3.003 L 8.020 4.306 8.141 4.503 C 8.543 5.156,9.457 5.156,9.859 4.503 L 9.980 4.306 9.980 3.003 L 9.980 1.700 9.872 1.516 C 9.628 1.101,9.150 0.915,8.695 1.057 M16.500 2.081 C 15.659 2.152,14.924 2.412,14.160 2.911 C 13.687 3.220,11.238 5.640,11.096 5.940 C 10.923 6.304,10.985 6.686,11.269 7.001 C 11.467 7.222,11.715 7.336,11.996 7.335 C 12.388 7.333,12.414 7.313,13.760 5.982 C 15.007 4.748,15.316 4.486,15.748 4.295 C 16.473 3.974,17.554 3.995,18.246 4.342 C 19.047 4.744,19.629 5.447,19.846 6.274 C 19.940 6.634,19.958 7.331,19.882 7.693 C 19.813 8.020,19.636 8.431,19.436 8.727 C 19.342 8.866,18.705 9.546,18.018 10.240 C 16.687 11.586,16.667 11.612,16.665 12.004 C 16.664 12.285,16.778 12.533,16.999 12.731 C 17.209 12.921,17.413 13.000,17.685 13.000 C 18.044 12.999,18.172 12.896,19.525 11.534 C 20.221 10.833,20.881 10.138,20.992 9.988 C 21.262 9.625,21.616 8.903,21.743 8.460 C 22.157 7.006,21.929 5.522,21.098 4.275 C 20.412 3.244,19.276 2.460,18.067 2.182 C 17.841 2.130,16.948 2.028,16.880 2.046 C 16.869 2.049,16.698 2.065,16.500 2.081 M3.044 2.625 C 2.518 2.888,2.344 3.573,2.681 4.060 C 2.742 4.148,3.149 4.573,3.586 5.004 C 4.291 5.700,4.404 5.795,4.594 5.858 C 5.378 6.118,6.117 5.378,5.858 4.594 C 5.795 4.403,5.700 4.291,4.967 3.550 C 4.040 2.613,3.907 2.520,3.500 2.520 C 3.316 2.520,3.203 2.546,3.044 2.625 M1.695 8.057 C 1.466 8.129,1.256 8.299,1.128 8.516 C 1.037 8.672,1.020 8.746,1.020 9.000 C 1.020 9.256,1.036 9.328,1.131 9.489 C 1.256 9.702,1.449 9.864,1.670 9.943 C 1.885 10.020,4.115 10.020,4.330 9.943 C 4.551 9.864,4.744 9.702,4.869 9.489 C 4.964 9.328,4.980 9.256,4.980 9.000 C 4.980 8.746,4.963 8.672,4.872 8.516 C 4.740 8.293,4.533 8.128,4.290 8.055 C 4.039 7.979,1.937 7.981,1.695 8.057 M6.080 11.035 C 6.025 11.053,5.926 11.096,5.860 11.131 C 5.701 11.216,3.262 13.672,3.027 13.985 C 2.626 14.519,2.292 15.282,2.146 16.001 C 1.821 17.605,2.341 19.298,3.521 20.479 C 4.380 21.337,5.397 21.809,6.640 21.925 C 7.226 21.980,7.847 21.918,8.460 21.743 C 8.903 21.616,9.625 21.262,9.988 20.992 C 10.138 20.881,10.833 20.221,11.534 19.525 C 12.896 18.172,12.999 18.044,13.000 17.685 C 13.000 17.588,12.979 17.439,12.953 17.352 C 12.891 17.147,12.625 16.848,12.422 16.755 C 12.220 16.664,11.813 16.657,11.610 16.742 C 11.514 16.782,11.024 17.237,10.201 18.053 C 9.508 18.740,8.836 19.371,8.710 19.454 C 8.176 19.803,7.726 19.935,7.060 19.936 C 6.683 19.937,6.513 19.918,6.268 19.848 C 5.419 19.606,4.743 19.043,4.342 18.246 C 3.995 17.554,3.974 16.473,4.295 15.748 C 4.486 15.316,4.748 15.007,5.982 13.760 C 7.312 12.416,7.334 12.387,7.334 12.000 C 7.334 11.629,7.121 11.284,6.786 11.113 C 6.611 11.024,6.239 10.983,6.080 11.035 M19.695 14.057 C 19.466 14.129,19.256 14.299,19.128 14.516 C 19.037 14.672,19.020 14.746,19.020 15.000 C 19.020 15.256,19.036 15.328,19.131 15.489 C 19.256 15.702,19.449 15.864,19.670 15.943 C 19.885 16.020,22.115 16.020,22.330 15.943 C 22.551 15.864,22.744 15.702,22.869 15.489 C 22.964 15.328,22.980 15.256,22.980 15.000 C 22.980 14.746,22.963 14.672,22.872 14.516 C 22.740 14.293,22.533 14.128,22.290 14.055 C 22.039 13.979,19.937 13.981,19.695 14.057 M18.860 18.116 C 18.280 18.266,17.957 18.847,18.142 19.406 C 18.205 19.596,18.300 19.709,18.996 20.414 C 19.427 20.851,19.853 21.259,19.943 21.321 C 20.382 21.625,21.033 21.497,21.331 21.046 C 21.539 20.732,21.535 20.251,21.321 19.943 C 21.146 19.692,19.678 18.263,19.520 18.190 C 19.347 18.110,19.021 18.074,18.860 18.116 M14.695 19.057 C 14.466 19.129,14.256 19.299,14.128 19.516 L 14.020 19.700 14.020 21.003 L 14.020 22.306 14.141 22.503 C 14.543 23.156,15.457 23.156,15.859 22.503 L 15.980 22.306 15.980 21.003 L 15.980 19.700 15.872 19.516 C 15.628 19.101,15.150 18.915,14.695 19.057 " stroke="none" fill-rule="evenodd" fill="black"></path></svg>