<svg width="24" height="24" viewBox="0 0 24 24" fill="none" xmlns="http://www.w3.org/2000/svg"><path d="M6.380 6.043 C 3.784 6.299,1.681 8.215,1.114 10.840 C 0.984 11.446,0.984 12.554,1.114 13.160 C 1.636 15.578,3.403 17.352,5.820 17.883 C 6.179 17.962,6.366 17.973,7.662 17.989 C 8.633 18.001,9.157 17.993,9.266 17.964 C 9.497 17.901,9.737 17.713,9.867 17.492 C 9.964 17.327,9.980 17.257,9.980 17.000 C 9.980 16.746,9.963 16.672,9.872 16.516 C 9.813 16.415,9.698 16.282,9.618 16.221 C 9.350 16.017,9.217 16.000,7.870 16.000 C 6.777 16.000,6.585 15.990,6.227 15.917 C 4.566 15.579,3.309 14.265,3.058 12.605 C 2.986 12.121,2.986 11.879,3.058 11.395 C 3.280 9.926,4.324 8.690,5.755 8.203 C 6.224 8.044,6.694 8.001,7.980 7.998 C 9.270 7.996,9.354 7.985,9.619 7.783 C 9.696 7.725,9.808 7.592,9.869 7.489 C 9.964 7.328,9.980 7.256,9.980 7.000 C 9.980 6.746,9.963 6.672,9.872 6.516 C 9.740 6.293,9.533 6.128,9.290 6.055 C 9.086 5.993,6.967 5.984,6.380 6.043 M15.431 6.041 C 14.981 6.117,14.453 6.500,14.228 6.913 C 14.011 7.310,14.000 7.429,14.000 9.288 L 14.000 11.000 10.946 11.000 C 7.633 11.000,7.675 10.997,7.382 11.221 C 7.302 11.282,7.187 11.415,7.128 11.516 C 7.037 11.672,7.020 11.746,7.020 12.000 C 7.020 12.256,7.036 12.328,7.131 12.489 C 7.256 12.702,7.449 12.864,7.670 12.943 C 7.790 12.986,8.433 12.997,10.910 12.998 L 14.000 13.000 14.000 14.712 C 14.000 16.536,14.012 16.671,14.205 17.049 C 14.335 17.305,14.702 17.665,14.967 17.797 C 15.353 17.990,15.545 18.011,16.718 17.989 C 17.605 17.972,17.846 17.954,18.180 17.882 C 20.594 17.358,22.366 15.581,22.885 13.160 C 23.015 12.554,23.015 11.446,22.885 10.840 C 22.626 9.631,22.109 8.660,21.269 7.805 C 20.258 6.775,19.009 6.180,17.564 6.039 C 17.107 5.995,15.699 5.996,15.431 6.041 M17.605 8.058 C 19.074 8.280,20.310 9.324,20.797 10.755 C 20.897 11.050,21.000 11.680,21.000 12.000 C 21.000 13.365,20.213 14.747,19.047 15.431 C 18.335 15.849,17.707 16.000,16.684 16.000 L 16.000 16.000 16.000 14.500 L 16.000 13.000 17.090 12.998 C 18.262 12.996,18.357 12.983,18.619 12.783 C 18.696 12.725,18.808 12.592,18.869 12.489 C 18.964 12.328,18.980 12.256,18.980 12.000 C 18.980 11.746,18.963 11.672,18.872 11.516 C 18.813 11.415,18.698 11.282,18.618 11.221 C 18.356 11.022,18.203 11.000,17.054 11.000 L 16.000 11.000 16.000 9.500 L 16.000 8.000 16.610 8.000 C 16.945 8.000,17.393 8.027,17.605 8.058 " stroke="none" fill-rule="evenodd" fill="black"></path></svg>