<svg width="24" height="24" viewBox="0 0 24 24" fill="none" xmlns="http://www.w3.org/2000/svg"><path d="M15.560 1.804 C 14.490 1.923,13.491 2.330,12.580 3.016 C 12.149 3.341,10.509 4.975,10.408 5.180 C 10.161 5.683,10.355 6.267,10.857 6.532 C 11.072 6.645,11.516 6.652,11.720 6.544 C 11.797 6.504,12.274 6.062,12.780 5.563 C 13.779 4.577,14.104 4.327,14.720 4.069 C 15.260 3.843,15.610 3.779,16.280 3.784 C 16.767 3.787,16.922 3.804,17.244 3.890 C 18.648 4.264,19.736 5.351,20.109 6.753 C 20.196 7.079,20.213 7.232,20.216 7.720 C 20.221 8.391,20.157 8.741,19.930 9.280 C 19.666 9.910,19.426 10.222,18.439 11.220 C 17.939 11.726,17.496 12.203,17.456 12.280 C 17.348 12.484,17.355 12.928,17.468 13.143 C 17.734 13.646,18.323 13.841,18.820 13.590 C 19.157 13.419,20.815 11.702,21.208 11.117 C 22.573 9.082,22.581 6.462,21.228 4.432 C 19.989 2.572,17.794 1.555,15.560 1.804 M15.080 7.603 C 14.941 7.665,14.099 8.484,11.347 11.232 C 9.393 13.183,7.743 14.853,7.680 14.943 C 7.375 15.379,7.503 16.033,7.952 16.330 C 8.247 16.525,8.746 16.536,9.017 16.352 C 9.195 16.231,16.185 9.250,16.318 9.060 C 16.656 8.576,16.483 7.888,15.956 7.625 C 15.688 7.492,15.346 7.483,15.080 7.603 M5.453 10.323 C 5.361 10.341,5.226 10.384,5.153 10.421 C 5.080 10.457,4.615 10.895,4.119 11.393 C 3.058 12.461,2.747 12.853,2.391 13.574 C 1.652 15.069,1.561 16.798,2.140 18.336 C 3.396 21.672,7.232 23.188,10.426 21.609 C 11.149 21.252,11.542 20.940,12.607 19.882 C 13.148 19.343,13.545 18.916,13.592 18.820 C 13.715 18.570,13.736 18.354,13.662 18.100 C 13.503 17.556,12.963 17.261,12.415 17.420 C 12.194 17.484,12.138 17.531,11.261 18.395 C 10.108 19.532,9.943 19.661,9.301 19.927 C 8.740 20.160,8.438 20.217,7.760 20.218 C 7.208 20.218,7.097 20.206,6.749 20.110 C 5.325 19.715,4.265 18.652,3.890 17.244 C 3.804 16.922,3.787 16.767,3.784 16.280 C 3.779 15.610,3.843 15.260,4.069 14.720 C 4.327 14.104,4.577 13.779,5.563 12.780 C 6.062 12.274,6.501 11.799,6.539 11.725 C 6.896 11.020,6.241 10.175,5.453 10.323 " stroke="none" fill-rule="evenodd" fill="black"></path></svg>