<svg width="24" height="24" viewBox="0 0 24 24" fill="none" xmlns="http://www.w3.org/2000/svg"><path d="M16.060 1.138 C 15.355 1.257,15.000 1.366,14.403 1.646 C 13.646 2.000,13.304 2.264,12.123 3.406 C 10.807 4.678,10.759 4.741,10.761 5.193 C 10.763 5.742,11.198 6.168,11.757 6.168 C 11.881 6.168,12.053 6.139,12.138 6.103 C 12.241 6.060,12.634 5.702,13.316 5.028 C 14.387 3.969,14.652 3.751,15.180 3.488 C 16.213 2.974,17.475 2.942,18.529 3.404 C 19.351 3.764,20.061 4.417,20.466 5.187 C 20.820 5.860,20.939 6.411,20.909 7.238 C 20.892 7.709,20.868 7.888,20.782 8.178 C 20.655 8.607,20.392 9.125,20.123 9.480 C 20.015 9.623,19.155 10.507,18.213 11.444 C 16.401 13.246,16.228 13.393,15.601 13.665 C 15.026 13.914,14.735 13.972,14.040 13.976 C 13.355 13.980,13.079 13.933,12.530 13.717 C 11.921 13.478,11.366 13.074,10.930 12.554 C 10.618 12.181,10.424 12.053,10.119 12.017 C 9.391 11.932,8.826 12.617,9.056 13.307 C 9.191 13.716,10.064 14.604,10.770 15.053 C 12.569 16.196,14.782 16.309,16.696 15.355 C 17.505 14.952,17.711 14.776,19.704 12.783 C 21.705 10.783,21.872 10.587,22.287 9.770 C 23.325 7.723,23.108 5.300,21.721 3.440 C 21.484 3.122,20.947 2.587,20.600 2.323 C 19.866 1.765,19.048 1.386,18.168 1.198 C 17.667 1.090,16.534 1.058,16.060 1.138 M9.160 8.062 C 7.939 8.233,6.872 8.744,5.911 9.617 C 5.088 10.364,2.463 13.050,2.213 13.400 C 1.552 14.326,1.172 15.356,1.085 16.463 C 0.873 19.152,2.461 21.625,5.004 22.563 C 5.681 22.812,6.289 22.919,7.040 22.919 C 8.171 22.919,9.127 22.663,10.100 22.100 C 10.562 21.833,10.957 21.492,11.975 20.484 C 13.144 19.326,13.239 19.201,13.239 18.820 C 13.239 18.450,12.970 18.043,12.631 17.902 C 12.440 17.822,12.040 17.822,11.849 17.902 C 11.754 17.942,11.343 18.318,10.700 18.955 C 10.150 19.500,9.578 20.037,9.429 20.149 C 9.090 20.403,8.606 20.642,8.139 20.785 C 7.804 20.888,7.732 20.895,7.060 20.895 C 6.391 20.895,6.315 20.887,5.980 20.786 C 5.170 20.541,4.464 20.074,3.962 19.453 C 3.533 18.923,3.279 18.377,3.138 17.680 C 3.037 17.182,3.074 16.308,3.216 15.828 C 3.332 15.437,3.530 15.022,3.771 14.660 C 3.948 14.395,7.159 11.143,7.524 10.859 C 7.988 10.498,8.542 10.232,9.120 10.093 C 9.341 10.040,9.573 10.022,10.000 10.023 C 10.731 10.025,11.118 10.113,11.745 10.419 C 12.283 10.682,12.701 11.005,13.067 11.442 C 13.382 11.819,13.590 11.957,13.888 11.987 C 14.615 12.062,15.172 11.379,14.944 10.693 C 14.804 10.270,13.903 9.362,13.191 8.926 C 11.941 8.162,10.558 7.865,9.160 8.062 " stroke="none" fill-rule="evenodd" fill="black"></path></svg>