<svg width="24" height="24" viewBox="0 0 24 24" fill="none" xmlns="http://www.w3.org/2000/svg"><path d="M5.920 2.042 C 5.155 2.091,4.674 2.204,4.180 2.451 C 3.089 2.996,2.357 3.961,2.124 5.160 C 2.013 5.729,2.000 6.455,2.000 12.000 C 2.000 18.358,2.006 18.526,2.245 19.320 C 2.577 20.422,3.578 21.423,4.680 21.755 C 5.474 21.994,5.642 22.000,12.000 22.000 C 18.358 22.000,18.526 21.994,19.320 21.755 C 20.422 21.423,21.425 20.421,21.755 19.320 C 21.971 18.600,22.008 18.034,21.993 15.660 L 21.980 13.700 21.871 13.514 C 21.479 12.848,20.521 12.848,20.129 13.514 L 20.020 13.700 19.994 15.960 C 19.966 18.378,19.953 18.539,19.752 18.952 C 19.626 19.211,19.190 19.638,18.918 19.768 C 18.466 19.985,18.627 19.980,12.000 19.980 C 5.383 19.980,5.538 19.985,5.082 19.771 C 4.812 19.643,4.377 19.217,4.248 18.952 C 4.198 18.849,4.126 18.633,4.088 18.472 C 4.025 18.203,4.020 17.687,4.020 12.000 C 4.020 6.313,4.025 5.797,4.088 5.528 C 4.126 5.367,4.198 5.151,4.248 5.048 C 4.366 4.806,4.806 4.366,5.048 4.248 C 5.461 4.047,5.622 4.034,8.040 4.006 L 10.300 3.980 10.492 3.867 C 11.248 3.423,11.123 2.306,10.290 2.055 C 10.145 2.011,9.721 2.001,8.244 2.006 C 7.219 2.009,6.173 2.025,5.920 2.042 M14.695 2.057 C 14.466 2.129,14.256 2.299,14.128 2.516 C 14.037 2.672,14.020 2.746,14.020 3.000 C 14.020 3.256,14.036 3.328,14.131 3.489 C 14.256 3.702,14.449 3.864,14.670 3.943 C 14.787 3.985,15.234 3.997,16.700 3.998 L 18.579 4.000 14.874 7.710 C 12.836 9.751,11.135 11.483,11.095 11.560 C 11.043 11.659,11.021 11.788,11.021 12.000 C 11.020 12.258,11.036 12.327,11.133 12.492 C 11.263 12.714,11.502 12.901,11.736 12.965 C 11.938 13.019,12.266 12.989,12.445 12.899 C 12.519 12.862,14.249 11.165,16.289 9.128 L 19.997 5.424 20.009 7.365 L 20.020 9.306 20.141 9.503 C 20.543 10.156,21.457 10.156,21.859 9.503 L 21.980 9.306 21.980 6.003 L 21.980 2.700 21.872 2.516 C 21.740 2.293,21.533 2.128,21.290 2.055 C 21.030 1.977,14.945 1.979,14.695 2.057 " stroke="none" fill-rule="evenodd" fill="black"></path></svg>