<svg width="24" height="24" viewBox="0 0 24 24" fill="none" xmlns="http://www.w3.org/2000/svg"><path d="M3.477 4.073 C 2.806 4.249,2.238 4.823,2.060 5.508 C 1.941 5.962,2.003 6.492,2.225 6.930 C 2.361 7.199,2.801 7.639,3.070 7.775 C 3.659 8.073,4.341 8.073,4.930 7.775 C 5.196 7.640,5.638 7.200,5.771 6.937 C 5.994 6.498,6.052 6.007,5.940 5.529 C 5.858 5.182,5.720 4.927,5.465 4.653 C 4.948 4.097,4.211 3.882,3.477 4.073 M8.695 5.057 C 8.466 5.129,8.256 5.299,8.128 5.516 C 8.037 5.672,8.020 5.746,8.020 6.000 C 8.020 6.256,8.036 6.328,8.131 6.489 C 8.256 6.702,8.449 6.864,8.670 6.943 C 8.892 7.022,21.108 7.022,21.330 6.943 C 21.551 6.864,21.744 6.702,21.869 6.489 C 21.964 6.328,21.980 6.256,21.980 6.000 C 21.980 5.746,21.963 5.672,21.872 5.516 C 21.740 5.293,21.533 5.128,21.290 5.055 C 21.028 4.976,8.947 4.978,8.695 5.057 M3.477 10.073 C 3.130 10.164,2.802 10.366,2.535 10.653 C 2.178 11.038,2.000 11.485,2.000 12.000 C 2.000 12.546,2.193 13.001,2.596 13.404 C 2.741 13.550,2.955 13.716,3.070 13.775 C 3.659 14.073,4.341 14.073,4.930 13.775 C 5.196 13.640,5.638 13.200,5.771 12.937 C 6.161 12.168,6.043 11.275,5.471 10.659 C 5.074 10.232,4.563 10.005,4.000 10.005 C 3.857 10.005,3.622 10.036,3.477 10.073 M8.695 11.057 C 8.466 11.129,8.256 11.299,8.128 11.516 C 8.037 11.672,8.020 11.746,8.020 12.000 C 8.020 12.256,8.036 12.328,8.131 12.489 C 8.256 12.702,8.449 12.864,8.670 12.943 C 8.793 12.987,9.938 12.996,15.000 12.996 C 20.062 12.996,21.207 12.987,21.330 12.943 C 21.551 12.864,21.744 12.702,21.869 12.489 C 21.964 12.328,21.980 12.256,21.980 12.000 C 21.980 11.746,21.963 11.672,21.872 11.516 C 21.740 11.293,21.533 11.128,21.290 11.055 C 21.028 10.976,8.947 10.978,8.695 11.057 M3.477 16.073 C 3.130 16.164,2.802 16.366,2.535 16.653 C 2.178 17.038,2.000 17.485,2.000 18.000 C 2.000 18.546,2.193 19.001,2.596 19.404 C 2.999 19.807,3.454 20.000,4.000 20.000 C 4.546 20.000,5.001 19.807,5.404 19.404 C 5.920 18.889,6.106 18.236,5.940 17.529 C 5.858 17.182,5.720 16.927,5.465 16.653 C 5.074 16.232,4.560 16.005,4.000 16.005 C 3.857 16.005,3.622 16.036,3.477 16.073 M8.695 17.057 C 8.466 17.129,8.256 17.299,8.128 17.516 C 8.037 17.672,8.020 17.746,8.020 18.000 C 8.020 18.256,8.036 18.328,8.131 18.489 C 8.256 18.702,8.449 18.864,8.670 18.943 C 8.793 18.987,9.938 18.996,15.000 18.996 C 20.062 18.996,21.207 18.987,21.330 18.943 C 21.551 18.864,21.744 18.702,21.869 18.489 C 21.964 18.328,21.980 18.256,21.980 18.000 C 21.980 17.746,21.963 17.672,21.872 17.516 C 21.740 17.293,21.533 17.128,21.290 17.055 C 21.028 16.976,8.947 16.978,8.695 17.057 " stroke="none" fill-rule="evenodd" fill="black"></path></svg>