<svg width="24" height="24" viewBox="0 0 24 24" fill="none" xmlns="http://www.w3.org/2000/svg"><path d="M11.052 1.041 C 8.817 1.258,6.888 2.033,5.100 3.432 C 4.644 3.789,3.606 4.861,3.233 5.360 C 2.756 5.998,2.484 6.441,2.141 7.140 C 1.667 8.104,1.362 9.022,1.180 10.038 C 0.757 12.388,1.084 14.711,2.141 16.860 C 2.707 18.013,3.277 18.802,4.238 19.762 C 5.198 20.723,5.987 21.293,7.140 21.859 C 10.238 23.382,13.767 23.382,16.860 21.860 C 18.015 21.292,18.802 20.722,19.762 19.762 C 20.722 18.802,21.292 18.015,21.860 16.860 C 23.381 13.769,23.381 10.231,21.860 7.140 C 21.296 5.995,20.722 5.198,19.782 4.258 C 19.129 3.604,18.745 3.283,18.100 2.852 C 16.752 1.950,15.215 1.361,13.580 1.120 C 12.938 1.025,11.634 0.984,11.052 1.041 M13.900 3.207 C 15.154 3.459,16.567 4.132,17.631 4.986 C 18.828 5.947,19.900 7.395,20.189 8.442 C 20.299 8.843,20.287 9.947,20.167 10.380 C 19.782 11.768,18.677 12.791,17.241 13.089 C 16.498 13.244,15.625 13.133,14.920 12.797 C 14.517 12.604,13.390 11.808,13.429 11.744 C 13.444 11.720,13.580 11.531,13.733 11.323 C 14.513 10.264,14.825 9.626,15.047 8.635 C 15.169 8.092,15.180 6.943,15.068 6.392 C 14.838 5.251,14.339 4.312,13.502 3.446 L 13.140 3.071 13.320 3.099 C 13.419 3.114,13.680 3.163,13.900 3.207 M10.120 3.786 C 11.263 3.988,12.223 4.727,12.763 5.820 C 13.063 6.426,13.132 6.734,13.133 7.480 C 13.134 8.188,13.070 8.500,12.809 9.060 C 12.695 9.305,11.979 10.380,11.805 10.569 C 11.790 10.585,11.496 10.396,11.151 10.149 C 10.156 9.436,9.430 9.101,8.520 8.934 C 7.944 8.828,6.868 8.838,6.332 8.953 C 5.184 9.200,4.279 9.687,3.426 10.516 L 3.073 10.860 3.100 10.680 C 3.336 9.112,3.995 7.608,4.987 6.369 C 5.857 5.282,7.140 4.284,8.130 3.922 C 8.773 3.687,9.340 3.648,10.120 3.786 M8.420 10.959 C 8.887 11.080,9.388 11.341,10.000 11.781 C 10.297 11.995,10.553 12.181,10.569 12.196 C 10.585 12.210,10.392 12.509,10.141 12.859 C 9.451 13.822,9.151 14.456,8.952 15.372 C 8.825 15.956,8.826 17.076,8.953 17.668 C 9.200 18.818,9.691 19.730,10.515 20.570 C 10.754 20.814,10.836 20.920,10.784 20.920 C 10.589 20.920,9.650 20.698,9.164 20.537 C 8.526 20.325,7.565 19.863,7.073 19.533 C 5.456 18.447,4.110 16.772,3.797 15.458 C 3.724 15.152,3.715 15.016,3.730 14.520 C 3.752 13.832,3.834 13.480,4.100 12.934 C 4.617 11.872,5.715 11.066,6.900 10.882 C 7.272 10.824,8.050 10.863,8.420 10.959 M20.863 13.545 C 20.446 15.948,19.014 18.142,16.980 19.496 C 16.027 20.131,15.167 20.380,14.274 20.280 C 13.208 20.161,12.328 19.693,11.706 18.915 C 11.233 18.325,10.974 17.723,10.880 17.000 C 10.786 16.280,10.904 15.551,11.219 14.900 C 11.390 14.546,12.178 13.412,12.240 13.429 C 12.258 13.434,12.547 13.635,12.883 13.876 C 13.819 14.547,14.463 14.851,15.372 15.048 C 15.902 15.163,17.075 15.175,17.582 15.071 C 18.738 14.834,19.832 14.249,20.618 13.447 C 20.772 13.291,20.903 13.170,20.910 13.177 C 20.918 13.185,20.896 13.350,20.863 13.545 " stroke="none" fill-rule="evenodd" fill="black"></path></svg>