<svg width="24" height="24" viewBox="0 0 24 24" fill="none" xmlns="http://www.w3.org/2000/svg"><path d="M11.800 1.277 C 11.599 1.318,11.435 1.413,11.268 1.585 C 11.010 1.851,11.000 1.925,11.000 3.500 C 11.000 5.076,11.010 5.149,11.269 5.415 C 11.495 5.649,11.696 5.737,12.000 5.737 C 12.304 5.737,12.505 5.649,12.731 5.415 C 12.990 5.149,13.000 5.076,13.000 3.500 C 13.000 1.924,12.990 1.851,12.731 1.585 C 12.478 1.324,12.131 1.209,11.800 1.277 M4.920 4.237 C 4.725 4.277,4.561 4.371,4.414 4.527 C 4.145 4.813,4.070 5.127,4.179 5.504 C 4.246 5.733,4.281 5.773,5.433 6.931 C 6.720 8.225,6.843 8.320,7.218 8.320 C 7.549 8.319,7.713 8.252,7.943 8.023 C 8.172 7.793,8.239 7.629,8.240 7.298 C 8.240 6.924,8.144 6.801,6.871 5.537 C 6.191 4.861,5.641 4.348,5.560 4.311 C 5.383 4.233,5.101 4.200,4.920 4.237 M18.180 4.556 C 18.061 4.625,17.654 5.001,17.174 5.488 C 16.436 6.235,16.363 6.322,16.304 6.519 C 16.220 6.801,16.223 6.912,16.321 7.175 C 16.544 7.769,17.289 8.014,17.799 7.661 C 18.055 7.483,19.501 5.990,19.578 5.823 C 19.682 5.597,19.678 5.223,19.567 4.995 C 19.389 4.627,19.083 4.440,18.661 4.440 C 18.425 4.441,18.348 4.459,18.180 4.556 M1.949 11.057 C 1.722 11.139,1.539 11.278,1.422 11.458 C 1.144 11.887,1.205 12.363,1.585 12.731 C 1.860 12.998,1.873 13.000,4.000 13.000 C 6.127 13.000,6.140 12.998,6.415 12.731 C 6.649 12.505,6.737 12.304,6.737 12.000 C 6.737 11.607,6.548 11.303,6.181 11.106 C 6.023 11.022,5.980 11.020,4.060 11.011 C 2.485 11.004,2.070 11.013,1.949 11.057 M19.480 11.036 C 18.613 11.311,18.502 12.463,19.300 12.894 C 19.452 12.976,19.511 12.980,20.500 12.980 C 21.489 12.980,21.548 12.976,21.700 12.894 C 22.036 12.712,22.238 12.377,22.238 12.000 C 22.238 11.623,22.036 11.288,21.700 11.106 C 21.550 11.025,21.480 11.020,20.560 11.012 C 20.021 11.008,19.535 11.019,19.480 11.036 M7.530 15.281 C 7.437 15.300,7.284 15.369,7.190 15.434 C 7.097 15.500,6.352 16.225,5.535 17.047 C 4.214 18.376,4.044 18.562,3.985 18.737 C 3.855 19.130,3.938 19.491,4.223 19.777 C 4.509 20.063,4.870 20.145,5.263 20.014 C 5.438 19.956,5.627 19.783,6.971 18.445 C 7.802 17.618,8.527 16.877,8.582 16.797 C 9.079 16.081,8.402 15.105,7.530 15.281 M17.460 16.794 C 16.875 16.985,16.590 17.644,16.859 18.184 C 16.995 18.456,17.800 19.249,18.055 19.362 C 18.878 19.726,19.726 18.878,19.362 18.055 C 19.249 17.800,18.456 16.995,18.184 16.859 C 17.984 16.760,17.655 16.730,17.460 16.794 M11.695 17.057 C 11.466 17.129,11.256 17.299,11.128 17.516 L 11.020 17.700 11.020 20.003 L 11.020 22.306 11.141 22.503 C 11.209 22.613,11.346 22.756,11.452 22.828 C 11.923 23.144,12.554 22.999,12.859 22.503 L 12.980 22.306 12.980 20.003 L 12.980 17.700 12.872 17.516 C 12.628 17.101,12.150 16.915,11.695 17.057 " stroke="none" fill-rule="evenodd" fill="black"></path></svg>