<svg width="24" height="24" viewBox="0 0 24 24" fill="none" xmlns="http://www.w3.org/2000/svg"><path d="M11.695 1.057 C 11.466 1.129,11.256 1.299,11.128 1.516 L 11.020 1.700 11.020 4.003 L 11.020 6.306 11.141 6.503 C 11.543 7.156,12.457 7.156,12.859 6.503 L 12.980 6.306 12.980 4.003 L 12.980 1.700 12.872 1.516 C 12.628 1.101,12.150 0.915,11.695 1.057 M4.593 4.063 C 4.349 4.138,4.070 4.414,3.984 4.666 C 3.903 4.906,3.903 5.095,3.986 5.343 C 4.044 5.518,4.217 5.707,5.555 7.051 C 6.382 7.882,7.123 8.607,7.201 8.661 C 7.279 8.715,7.444 8.779,7.566 8.804 C 8.241 8.940,8.867 8.314,8.727 7.643 C 8.702 7.524,8.637 7.362,8.582 7.283 C 8.527 7.204,7.803 6.463,6.971 5.635 C 5.624 4.294,5.439 4.124,5.263 4.065 C 5.026 3.987,4.843 3.986,4.593 4.063 M18.755 4.055 C 18.676 4.084,18.559 4.144,18.495 4.190 C 18.432 4.236,17.702 4.955,16.874 5.787 C 15.440 7.228,15.364 7.310,15.304 7.517 C 15.220 7.802,15.223 7.912,15.321 8.175 C 15.489 8.623,15.970 8.897,16.427 8.806 C 16.545 8.782,16.718 8.709,16.811 8.645 C 16.904 8.580,17.648 7.855,18.464 7.034 C 19.783 5.706,19.956 5.518,20.014 5.343 C 20.146 4.949,20.063 4.589,19.774 4.300 C 19.505 4.031,19.097 3.933,18.755 4.055 M1.695 11.057 C 1.466 11.129,1.256 11.299,1.128 11.516 C 1.037 11.672,1.020 11.746,1.020 12.000 C 1.020 12.256,1.036 12.328,1.131 12.489 C 1.256 12.702,1.449 12.864,1.670 12.943 C 1.889 13.021,6.111 13.021,6.330 12.943 C 6.551 12.864,6.744 12.702,6.869 12.489 C 6.964 12.328,6.980 12.256,6.980 12.000 C 6.980 11.746,6.963 11.672,6.872 11.516 C 6.740 11.293,6.533 11.128,6.290 11.055 C 6.033 10.978,1.943 10.979,1.695 11.057 M17.695 11.057 C 17.466 11.129,17.256 11.299,17.128 11.516 C 17.037 11.672,17.020 11.746,17.020 12.000 C 17.020 12.256,17.036 12.328,17.131 12.489 C 17.256 12.702,17.449 12.864,17.670 12.943 C 17.889 13.021,22.111 13.021,22.330 12.943 C 22.551 12.864,22.744 12.702,22.869 12.489 C 22.964 12.328,22.980 12.256,22.980 12.000 C 22.980 11.746,22.963 11.672,22.872 11.516 C 22.740 11.293,22.533 11.128,22.290 11.055 C 22.033 10.978,17.943 10.979,17.695 11.057 M7.530 15.281 C 7.437 15.300,7.284 15.369,7.190 15.434 C 7.097 15.500,6.352 16.225,5.535 17.047 C 4.214 18.376,4.044 18.562,3.985 18.737 C 3.855 19.130,3.938 19.491,4.223 19.777 C 4.509 20.063,4.870 20.145,5.263 20.014 C 5.438 19.956,5.627 19.783,6.971 18.445 C 7.802 17.618,8.527 16.877,8.582 16.797 C 9.079 16.081,8.402 15.105,7.530 15.281 M16.100 15.267 C 15.707 15.357,15.447 15.571,15.321 15.905 C 15.223 16.168,15.220 16.279,15.304 16.563 C 15.365 16.770,15.442 16.854,16.913 18.331 C 17.998 19.419,18.511 19.907,18.635 19.967 C 19.032 20.159,19.467 20.087,19.776 19.778 C 20.062 19.491,20.145 19.131,20.015 18.737 C 19.956 18.561,19.785 18.376,18.385 16.976 C 17.429 16.021,16.765 15.388,16.680 15.351 C 16.524 15.282,16.223 15.239,16.100 15.267 M11.695 17.057 C 11.466 17.129,11.256 17.299,11.128 17.516 L 11.020 17.700 11.020 20.003 L 11.020 22.306 11.141 22.503 C 11.209 22.613,11.346 22.756,11.452 22.828 C 11.923 23.144,12.554 22.999,12.859 22.503 L 12.980 22.306 12.980 20.003 L 12.980 17.700 12.872 17.516 C 12.628 17.101,12.150 16.915,11.695 17.057 " stroke="none" fill-rule="evenodd" fill="black"></path></svg>