<svg width="24" height="24" viewBox="0 0 24 24" fill="none" xmlns="http://www.w3.org/2000/svg"><path d="M11.380 2.043 C 8.792 2.298,6.692 4.204,6.117 6.820 C 6.038 7.180,6.027 7.365,6.011 8.683 L 5.993 10.147 5.706 10.238 C 4.545 10.610,3.580 11.568,3.245 12.680 C 3.039 13.362,3.000 13.896,3.000 16.000 C 3.000 18.104,3.039 18.638,3.245 19.320 C 3.577 20.422,4.578 21.423,5.680 21.755 C 6.460 21.990,6.716 22.000,12.000 22.000 C 17.284 22.000,17.540 21.990,18.320 21.755 C 19.422 21.423,20.423 20.422,20.755 19.320 C 20.961 18.638,21.000 18.104,21.000 16.000 C 21.000 13.896,20.961 13.362,20.755 12.680 C 20.421 11.570,19.453 10.610,18.294 10.238 L 18.007 10.147 17.989 8.683 C 17.973 7.365,17.962 7.180,17.883 6.820 C 17.619 5.618,17.102 4.653,16.269 3.805 C 14.978 2.490,13.230 1.860,11.380 2.043 M12.605 4.058 C 13.855 4.247,14.964 5.042,15.536 6.160 C 15.929 6.929,15.999 7.342,16.000 8.890 L 16.000 10.000 12.000 10.000 L 8.000 10.000 8.000 8.890 C 8.001 7.342,8.071 6.929,8.464 6.160 C 9.028 5.059,10.142 4.251,11.358 4.061 C 11.816 3.990,12.144 3.989,12.605 4.058 M17.492 12.091 C 17.893 12.188,18.109 12.309,18.400 12.600 C 18.697 12.896,18.815 13.111,18.910 13.528 C 18.969 13.782,18.978 14.103,18.978 16.000 C 18.978 18.358,18.966 18.513,18.752 18.952 C 18.626 19.211,18.190 19.638,17.918 19.768 C 17.471 19.983,17.547 19.980,12.000 19.980 C 6.462 19.980,6.533 19.983,6.082 19.771 C 5.812 19.643,5.377 19.217,5.248 18.952 C 5.034 18.513,5.022 18.358,5.022 16.000 C 5.022 14.103,5.031 13.782,5.090 13.528 C 5.175 13.156,5.293 12.919,5.520 12.667 C 5.883 12.262,6.281 12.091,6.980 12.039 C 7.200 12.023,9.594 12.013,12.300 12.018 C 16.701 12.025,17.249 12.033,17.492 12.091 " stroke="none" fill-rule="evenodd" fill="black"></path></svg>