<svg width="24" height="24" viewBox="0 0 24 24" fill="none" xmlns="http://www.w3.org/2000/svg"><path d="M11.380 2.040 C 8.764 2.321,6.681 4.215,6.119 6.820 C 6.049 7.143,6.028 7.405,6.011 8.184 L 5.990 9.147 5.705 9.239 C 4.545 9.610,3.579 10.568,3.245 11.680 C 3.032 12.388,3.000 12.880,3.000 15.500 C 3.000 18.120,3.032 18.612,3.245 19.320 C 3.577 20.422,4.578 21.423,5.680 21.755 C 6.460 21.990,6.716 22.000,12.000 22.000 C 17.284 22.000,17.540 21.990,18.320 21.755 C 19.422 21.423,20.423 20.422,20.755 19.320 C 20.968 18.612,21.000 18.120,21.000 15.500 C 21.000 12.880,20.968 12.388,20.755 11.680 C 20.424 10.581,19.465 9.622,18.320 9.246 C 17.665 9.031,17.664 9.031,12.650 9.012 L 8.000 8.995 8.000 8.387 C 8.000 7.714,8.072 7.142,8.203 6.755 C 8.444 6.048,8.937 5.337,9.490 4.899 C 10.285 4.270,11.245 3.959,12.221 4.015 C 13.674 4.098,14.937 4.934,15.581 6.237 C 15.831 6.742,16.091 6.950,16.522 6.990 C 17.078 7.040,17.574 6.573,17.577 5.997 C 17.580 5.601,17.074 4.687,16.468 3.990 C 15.678 3.082,14.315 2.318,13.094 2.101 C 12.660 2.024,11.810 1.993,11.380 2.040 M17.492 11.091 C 17.893 11.188,18.109 11.309,18.400 11.600 C 18.697 11.896,18.814 12.110,18.911 12.528 C 18.971 12.787,18.979 13.126,18.979 15.500 C 18.979 18.406,18.972 18.499,18.752 18.952 C 18.626 19.211,18.190 19.638,17.918 19.768 C 17.471 19.983,17.547 19.980,12.000 19.980 C 6.462 19.980,6.533 19.983,6.082 19.771 C 5.812 19.643,5.377 19.217,5.248 18.952 C 5.028 18.499,5.021 18.406,5.021 15.500 C 5.021 13.126,5.029 12.787,5.089 12.528 C 5.175 12.156,5.294 11.919,5.520 11.667 C 5.883 11.262,6.281 11.091,6.980 11.039 C 7.200 11.023,9.594 11.013,12.300 11.018 C 16.701 11.025,17.249 11.033,17.492 11.091 M11.600 13.584 C 11.399 13.671,11.205 13.869,11.095 14.100 C 11.002 14.297,11.001 14.321,11.001 15.500 C 11.001 16.679,11.002 16.703,11.095 16.900 C 11.276 17.281,11.595 17.488,12.000 17.488 C 12.405 17.488,12.724 17.281,12.905 16.900 C 12.998 16.703,12.999 16.679,12.999 15.500 C 12.999 14.321,12.998 14.297,12.905 14.100 C 12.793 13.865,12.599 13.669,12.391 13.582 C 12.203 13.503,11.783 13.504,11.600 13.584 " stroke="none" fill-rule="evenodd" fill="black"></path></svg>