<svg width="24" height="24" viewBox="0 0 24 24" fill="none" xmlns="http://www.w3.org/2000/svg"><path d="M5.920 2.041 C 5.151 2.092,4.672 2.205,4.180 2.451 C 3.089 2.996,2.357 3.961,2.124 5.160 C 2.013 5.729,2.000 6.455,2.000 12.000 C 2.000 18.358,2.006 18.526,2.245 19.320 C 2.577 20.422,3.578 21.423,4.680 21.755 C 5.474 21.994,5.642 22.000,12.000 22.000 C 18.358 22.000,18.526 21.994,19.320 21.755 C 20.422 21.423,21.423 20.422,21.755 19.320 C 21.994 18.526,22.000 18.358,22.000 12.000 C 22.000 5.642,21.994 5.474,21.755 4.680 C 21.424 3.581,20.465 2.622,19.320 2.246 C 18.644 2.024,18.800 2.029,12.340 2.019 C 9.062 2.014,6.173 2.024,5.920 2.041 M18.492 4.091 C 18.894 4.188,19.109 4.309,19.400 4.600 C 19.696 4.895,19.814 5.109,19.912 5.528 C 19.975 5.797,19.980 6.313,19.980 12.000 C 19.980 17.687,19.975 18.203,19.912 18.472 C 19.814 18.891,19.696 19.104,19.400 19.401 C 19.101 19.701,18.820 19.851,18.418 19.928 C 18.010 20.005,5.990 20.005,5.582 19.927 C 5.170 19.850,4.898 19.704,4.600 19.403 C 4.303 19.104,4.186 18.890,4.088 18.472 C 4.025 18.203,4.020 17.687,4.020 12.000 C 4.020 6.313,4.025 5.797,4.088 5.528 C 4.175 5.155,4.294 4.918,4.520 4.667 C 4.883 4.262,5.282 4.091,5.980 4.039 C 6.200 4.023,9.044 4.013,12.300 4.018 C 17.643 4.024,18.247 4.032,18.492 4.091 M11.358 6.061 C 10.230 6.237,9.143 6.974,8.569 7.953 C 7.660 9.502,7.864 11.401,9.082 12.734 L 9.286 12.958 8.760 14.542 C 8.179 16.295,8.139 16.485,8.257 16.902 C 8.413 17.450,8.829 17.836,9.392 17.955 C 9.686 18.017,14.314 18.017,14.608 17.955 C 15.171 17.836,15.587 17.450,15.743 16.902 C 15.861 16.487,15.820 16.299,15.240 14.545 L 14.715 12.957 14.920 12.732 C 15.796 11.774,16.170 10.469,15.921 9.243 C 15.721 8.264,15.197 7.415,14.438 6.843 C 13.866 6.412,13.276 6.160,12.605 6.058 C 12.144 5.989,11.816 5.990,11.358 6.061 M12.523 8.073 C 13.493 8.326,14.136 9.331,13.968 10.330 C 13.892 10.782,13.728 11.068,13.271 11.550 C 12.746 12.103,12.659 12.279,12.661 12.800 C 12.663 13.176,12.667 13.193,13.117 14.540 C 13.366 15.288,13.579 15.923,13.590 15.950 C 13.605 15.989,13.270 16.000,12.000 16.000 C 10.730 16.000,10.395 15.989,10.410 15.950 C 10.421 15.923,10.634 15.288,10.883 14.540 C 11.333 13.193,11.337 13.176,11.339 12.800 C 11.341 12.281,11.254 12.103,10.735 11.554 C 10.298 11.094,10.152 10.859,10.062 10.477 C 9.763 9.210,10.709 8.005,12.000 8.005 C 12.143 8.005,12.378 8.036,12.523 8.073 " stroke="none" fill-rule="evenodd" fill="black"></path></svg>