<svg width="24" height="24" viewBox="0 0 24 24" fill="none" xmlns="http://www.w3.org/2000/svg"><path d="M11.280 1.023 C 11.203 1.032,10.951 1.059,10.720 1.083 C 9.527 1.210,8.337 1.558,7.180 2.120 C 6.045 2.671,5.193 3.285,4.238 4.239 C 3.277 5.198,2.643 6.080,2.097 7.220 C 0.301 10.968,0.728 15.286,3.226 18.633 C 3.701 19.269,4.753 20.316,5.400 20.797 C 9.364 23.745,14.666 23.734,18.637 20.770 C 19.246 20.316,20.316 19.246,20.770 18.637 C 23.744 14.652,23.744 9.348,20.770 5.363 C 20.316 4.755,19.247 3.686,18.640 3.235 C 17.045 2.049,15.365 1.360,13.423 1.096 C 13.000 1.038,11.574 0.990,11.280 1.023 M13.320 3.101 C 15.883 3.488,18.124 4.931,19.560 7.120 C 19.863 7.583,20.303 8.479,20.492 9.020 C 20.838 10.013,20.977 10.865,20.977 12.000 C 20.977 13.493,20.720 14.621,20.080 15.940 C 19.375 17.394,18.311 18.607,16.927 19.532 C 16.138 20.060,14.876 20.588,13.908 20.797 C 11.266 21.366,8.479 20.708,6.370 19.019 C 4.857 17.807,3.722 16.029,3.267 14.160 C 3.081 13.397,3.023 12.888,3.023 12.000 C 3.023 10.507,3.280 9.379,3.920 8.060 C 4.971 5.891,6.877 4.221,9.160 3.466 C 9.865 3.233,10.432 3.118,11.340 3.024 C 11.662 2.991,12.911 3.039,13.320 3.101 M11.358 6.061 C 10.230 6.237,9.143 6.974,8.569 7.953 C 7.660 9.502,7.864 11.401,9.082 12.734 L 9.286 12.958 8.760 14.542 C 8.179 16.295,8.139 16.485,8.257 16.902 C 8.413 17.450,8.829 17.836,9.392 17.955 C 9.686 18.017,14.314 18.017,14.608 17.955 C 15.171 17.836,15.587 17.450,15.743 16.902 C 15.861 16.487,15.820 16.299,15.240 14.545 L 14.715 12.957 14.920 12.732 C 15.796 11.774,16.170 10.469,15.921 9.243 C 15.721 8.264,15.197 7.415,14.438 6.843 C 13.866 6.412,13.276 6.160,12.605 6.058 C 12.144 5.989,11.816 5.990,11.358 6.061 M12.523 8.073 C 13.493 8.326,14.136 9.331,13.968 10.330 C 13.892 10.782,13.728 11.068,13.271 11.550 C 12.746 12.103,12.659 12.279,12.661 12.800 C 12.663 13.176,12.667 13.193,13.117 14.540 C 13.366 15.288,13.579 15.923,13.590 15.950 C 13.605 15.989,13.270 16.000,12.000 16.000 C 10.730 16.000,10.395 15.989,10.410 15.950 C 10.421 15.923,10.634 15.288,10.883 14.540 C 11.333 13.193,11.337 13.176,11.339 12.800 C 11.341 12.281,11.254 12.103,10.735 11.554 C 10.298 11.094,10.152 10.859,10.062 10.477 C 9.763 9.210,10.709 8.005,12.000 8.005 C 12.143 8.005,12.378 8.036,12.523 8.073 " stroke="none" fill-rule="evenodd" fill="black"></path></svg>