<svg width="24" height="24" viewBox="0 0 24 24" fill="none" xmlns="http://www.w3.org/2000/svg"><path d="M11.380 2.043 C 8.792 2.298,6.692 4.204,6.117 6.820 C 6.038 7.180,6.027 7.365,6.011 8.683 L 5.993 10.147 5.706 10.238 C 4.545 10.610,3.580 11.568,3.245 12.680 C 3.039 13.362,3.000 13.896,3.000 16.000 C 3.000 18.104,3.039 18.638,3.245 19.320 C 3.577 20.422,4.578 21.423,5.680 21.755 C 6.460 21.990,6.716 22.000,12.000 22.000 C 17.284 22.000,17.540 21.990,18.320 21.755 C 19.422 21.423,20.423 20.422,20.755 19.320 C 20.961 18.638,21.000 18.104,21.000 16.000 C 21.000 13.896,20.961 13.362,20.755 12.680 C 20.424 11.581,19.465 10.622,18.320 10.246 C 17.665 10.031,17.664 10.031,12.650 10.012 L 8.000 9.995 8.000 8.887 C 8.001 7.342,8.071 6.928,8.464 6.160 C 8.924 5.261,9.771 4.538,10.756 4.203 C 11.363 3.997,12.196 3.955,12.870 4.097 C 14.293 4.399,15.482 5.544,15.864 6.983 C 15.922 7.201,15.992 7.425,16.021 7.480 C 16.102 7.635,16.321 7.827,16.520 7.917 C 16.869 8.075,17.298 7.991,17.593 7.708 C 17.959 7.358,17.978 6.961,17.673 6.060 C 17.160 4.544,16.023 3.275,14.560 2.585 C 13.550 2.109,12.507 1.931,11.380 2.043 M17.492 12.091 C 17.893 12.188,18.109 12.309,18.400 12.600 C 18.697 12.896,18.815 13.111,18.910 13.528 C 18.969 13.782,18.978 14.103,18.978 16.000 C 18.978 18.358,18.966 18.513,18.752 18.952 C 18.626 19.211,18.190 19.638,17.918 19.768 C 17.471 19.983,17.547 19.980,12.000 19.980 C 6.462 19.980,6.533 19.983,6.082 19.771 C 5.812 19.643,5.377 19.217,5.248 18.952 C 5.034 18.513,5.022 18.358,5.022 16.000 C 5.022 14.103,5.031 13.782,5.090 13.528 C 5.175 13.156,5.293 12.919,5.520 12.667 C 5.883 12.262,6.281 12.091,6.980 12.039 C 7.200 12.023,9.594 12.013,12.300 12.018 C 16.701 12.025,17.249 12.033,17.492 12.091 " stroke="none" fill-rule="evenodd" fill="black"></path></svg>