<svg width="24" height="24" viewBox="0 0 24 24" fill="none" xmlns="http://www.w3.org/2000/svg"><path d="M11.380 2.043 C 8.792 2.298,6.691 4.205,6.117 6.820 C 6.039 7.178,6.027 7.369,6.011 8.630 L 5.992 10.040 5.866 10.040 C 5.631 10.041,4.941 10.160,4.680 10.246 C 3.534 10.622,2.576 11.579,2.245 12.680 C 2.039 13.362,2.000 13.896,2.000 16.000 C 2.000 18.104,2.039 18.638,2.245 19.320 C 2.577 20.422,3.578 21.423,4.680 21.755 C 5.474 21.994,5.642 22.000,12.000 22.000 C 18.358 22.000,18.526 21.994,19.320 21.755 C 20.422 21.423,21.423 20.422,21.755 19.320 C 21.961 18.638,22.000 18.104,22.000 16.000 C 22.000 13.896,21.961 13.362,21.755 12.680 C 21.424 11.581,20.464 10.621,19.320 10.246 C 19.059 10.160,18.369 10.041,18.134 10.040 L 18.008 10.040 17.989 8.630 C 17.973 7.369,17.961 7.178,17.883 6.820 C 17.619 5.619,17.102 4.653,16.269 3.805 C 14.978 2.490,13.230 1.860,11.380 2.043 M12.605 4.058 C 13.855 4.247,14.964 5.042,15.536 6.160 C 15.929 6.929,15.999 7.342,16.000 8.890 L 16.000 10.000 12.000 10.000 L 8.000 10.000 8.000 8.890 C 8.001 7.342,8.071 6.929,8.464 6.160 C 9.028 5.059,10.142 4.251,11.358 4.061 C 11.816 3.990,12.144 3.989,12.605 4.058 M18.492 12.091 C 18.894 12.188,19.109 12.309,19.400 12.600 C 19.697 12.896,19.815 13.111,19.910 13.528 C 19.969 13.782,19.978 14.103,19.978 16.000 C 19.978 18.358,19.966 18.513,19.752 18.952 C 19.626 19.211,19.190 19.638,18.918 19.768 C 18.466 19.985,18.627 19.980,12.000 19.980 C 5.383 19.980,5.538 19.985,5.082 19.771 C 4.812 19.643,4.377 19.217,4.248 18.952 C 4.034 18.513,4.022 18.358,4.022 16.000 C 4.022 14.103,4.031 13.782,4.090 13.528 C 4.175 13.156,4.293 12.919,4.520 12.667 C 4.883 12.262,5.282 12.091,5.980 12.039 C 6.200 12.023,9.044 12.013,12.300 12.018 C 17.643 12.024,18.247 12.032,18.492 12.091 " stroke="none" fill-rule="evenodd" fill="black"></path></svg>