<svg width="24" height="24" viewBox="0 0 24 24" fill="none" xmlns="http://www.w3.org/2000/svg"><path d="M11.380 2.043 C 8.792 2.298,6.688 4.208,6.118 6.820 C 6.042 7.168,6.028 7.381,6.011 8.463 L 5.992 9.707 5.769 9.983 C 3.837 12.384,3.458 15.694,4.800 18.471 C 5.197 19.294,5.611 19.886,6.259 20.554 C 6.951 21.270,7.648 21.775,8.526 22.199 C 11.317 23.547,14.624 23.164,17.040 21.211 C 17.394 20.925,18.067 20.239,18.326 19.900 C 19.581 18.257,20.176 16.166,19.958 14.168 C 19.792 12.652,19.174 11.156,18.231 9.983 L 18.008 9.707 17.989 8.463 C 17.972 7.381,17.958 7.168,17.882 6.820 C 17.621 5.622,17.102 4.654,16.269 3.805 C 14.978 2.490,13.230 1.860,11.380 2.043 M12.605 4.058 C 14.074 4.280,15.310 5.324,15.797 6.755 C 15.886 7.017,15.999 7.669,16.000 7.920 L 16.000 8.061 15.493 7.813 C 13.296 6.739,10.704 6.739,8.507 7.813 L 8.000 8.061 8.000 7.920 C 8.001 7.669,8.114 7.017,8.203 6.755 C 8.444 6.048,8.937 5.337,9.490 4.899 C 10.402 4.178,11.475 3.888,12.605 4.058 M12.564 9.039 C 14.921 9.269,16.913 10.837,17.671 13.060 C 18.168 14.517,18.068 16.251,17.410 17.580 C 16.550 19.316,15.056 20.478,13.160 20.885 C 12.810 20.960,12.617 20.975,12.000 20.975 C 11.383 20.975,11.190 20.960,10.840 20.885 C 8.941 20.478,7.451 19.319,6.590 17.580 C 5.932 16.251,5.832 14.517,6.329 13.060 C 6.618 12.212,7.080 11.470,7.731 10.805 C 9.008 9.503,10.757 8.864,12.564 9.039 M11.695 13.057 C 11.466 13.129,11.256 13.299,11.128 13.516 L 11.020 13.700 11.020 15.003 L 11.020 16.306 11.141 16.503 C 11.543 17.156,12.457 17.156,12.859 16.503 L 12.980 16.306 12.980 15.003 L 12.980 13.700 12.872 13.516 C 12.628 13.101,12.150 12.915,11.695 13.057 " stroke="none" fill-rule="evenodd" fill="black"></path></svg>