<svg width="24" height="24" viewBox="0 0 24 24" fill="none" xmlns="http://www.w3.org/2000/svg"><path d="M17.360 1.504 C 17.283 1.514,16.977 1.549,16.680 1.583 C 15.273 1.744,8.300 2.692,8.000 2.763 C 7.589 2.860,6.948 3.161,6.616 3.413 C 6.313 3.642,5.898 4.078,5.689 4.387 C 5.199 5.110,4.976 5.913,5.006 6.852 C 5.019 7.275,5.028 7.320,5.141 7.503 C 5.541 8.153,6.457 8.156,6.856 7.508 C 6.965 7.331,6.975 7.278,7.002 6.788 C 7.045 5.986,7.147 5.708,7.564 5.263 C 7.834 4.973,8.210 4.756,8.569 4.683 C 8.844 4.627,16.031 3.669,17.020 3.557 C 17.519 3.501,17.920 3.477,18.189 3.489 C 18.561 3.505,18.625 3.520,18.894 3.653 C 19.107 3.759,19.258 3.871,19.429 4.055 C 19.719 4.365,19.825 4.575,19.913 5.009 C 19.973 5.310,19.979 5.951,19.979 12.000 C 19.979 18.049,19.973 18.690,19.913 18.991 C 19.825 19.425,19.719 19.635,19.429 19.945 C 19.256 20.130,19.108 20.241,18.887 20.350 C 18.602 20.491,18.559 20.501,18.142 20.514 C 17.894 20.522,17.445 20.499,17.120 20.463 C 15.795 20.313,8.683 19.352,8.480 19.295 C 8.122 19.194,7.816 19.007,7.559 18.732 C 7.148 18.293,7.045 18.012,7.002 17.215 C 6.977 16.748,6.962 16.671,6.867 16.509 C 6.480 15.848,5.519 15.850,5.130 16.514 C 5.031 16.681,5.019 16.746,5.006 17.152 C 4.976 18.087,5.195 18.877,5.691 19.620 C 5.921 19.964,6.573 20.590,6.902 20.783 C 7.244 20.983,7.696 21.170,8.040 21.254 C 8.312 21.321,15.597 22.303,16.880 22.446 C 17.869 22.557,18.657 22.535,19.172 22.383 C 19.851 22.183,20.383 21.857,20.881 21.335 C 21.570 20.614,21.864 19.876,21.959 18.636 C 22.012 17.937,22.013 6.049,21.959 5.360 C 21.860 4.071,21.522 3.272,20.772 2.556 C 20.390 2.191,20.181 2.045,19.750 1.839 C 19.223 1.587,18.882 1.515,18.140 1.500 C 17.788 1.493,17.437 1.495,17.360 1.504 M11.670 7.061 C 11.448 7.142,11.250 7.309,11.128 7.516 C 11.036 7.672,11.020 7.745,11.021 8.000 C 11.021 8.213,11.043 8.341,11.095 8.440 C 11.136 8.517,11.711 9.125,12.374 9.790 L 13.578 11.000 8.235 11.000 C 3.824 11.000,2.861 11.010,2.710 11.055 C 2.467 11.128,2.260 11.293,2.128 11.516 C 2.037 11.672,2.020 11.746,2.020 12.000 C 2.020 12.256,2.036 12.328,2.131 12.489 C 2.256 12.702,2.449 12.864,2.670 12.943 C 2.792 12.987,3.810 12.997,8.199 12.998 L 13.578 13.000 12.374 14.210 C 11.711 14.876,11.138 15.481,11.101 15.555 C 10.872 16.009,11.056 16.601,11.508 16.867 C 11.673 16.964,11.743 16.980,12.000 16.980 C 12.254 16.980,12.328 16.964,12.480 16.873 C 12.705 16.739,16.805 12.632,16.905 12.440 C 16.957 12.341,16.979 12.212,16.979 12.000 C 16.980 11.745,16.964 11.673,16.873 11.520 C 16.813 11.419,15.834 10.412,14.653 9.235 C 12.748 7.338,12.521 7.124,12.343 7.065 C 12.107 6.987,11.874 6.986,11.670 7.061 " stroke="none" fill-rule="evenodd" fill="black"></path></svg>