<svg width="24" height="24" viewBox="0 0 24 24" fill="none" xmlns="http://www.w3.org/2000/svg"><path d="M5.920 2.042 C 5.155 2.091,4.674 2.204,4.180 2.451 C 3.089 2.996,2.357 3.961,2.124 5.160 C 2.013 5.729,2.000 6.455,2.000 12.000 C 2.000 18.358,2.006 18.526,2.245 19.320 C 2.577 20.422,3.578 21.423,4.680 21.755 C 5.344 21.955,5.908 22.000,7.720 21.998 C 9.290 21.996,9.349 21.990,9.619 21.783 C 9.696 21.725,9.808 21.592,9.869 21.489 C 9.964 21.328,9.980 21.256,9.980 21.000 C 9.980 20.746,9.963 20.672,9.872 20.516 C 9.760 20.326,9.569 20.156,9.373 20.072 C 9.294 20.038,8.742 20.015,7.520 19.997 C 6.396 19.981,5.695 19.954,5.540 19.922 C 5.159 19.844,4.887 19.693,4.600 19.403 C 4.303 19.104,4.186 18.890,4.088 18.472 C 4.025 18.203,4.020 17.687,4.020 12.000 C 4.020 6.313,4.025 5.797,4.088 5.528 C 4.186 5.109,4.304 4.895,4.600 4.600 C 5.128 4.072,5.273 4.042,7.540 4.007 L 9.300 3.980 9.492 3.867 C 10.248 3.423,10.123 2.306,9.290 2.055 C 9.149 2.012,8.798 2.001,7.744 2.006 C 6.994 2.009,6.173 2.025,5.920 2.042 M15.695 6.057 C 15.466 6.129,15.256 6.299,15.128 6.516 C 15.036 6.672,15.020 6.745,15.021 7.000 C 15.021 7.212,15.043 7.341,15.095 7.440 C 15.135 7.517,15.936 8.350,16.874 9.290 L 18.579 11.000 13.736 11.000 C 9.748 11.000,8.861 11.010,8.710 11.055 C 8.467 11.128,8.260 11.293,8.128 11.516 C 8.037 11.672,8.020 11.746,8.020 12.000 C 8.020 12.256,8.036 12.328,8.131 12.489 C 8.256 12.702,8.449 12.864,8.670 12.943 C 8.792 12.987,9.728 12.997,13.699 12.998 L 18.579 13.000 16.874 14.710 C 15.936 15.650,15.135 16.483,15.095 16.560 C 15.043 16.659,15.021 16.788,15.021 17.000 C 15.020 17.258,15.036 17.327,15.133 17.492 C 15.413 17.968,16.033 18.139,16.492 17.865 C 16.708 17.737,21.808 12.625,21.905 12.440 C 21.957 12.341,21.979 12.212,21.979 12.000 C 21.980 11.745,21.964 11.673,21.873 11.520 C 21.812 11.418,20.630 10.207,19.153 8.734 C 16.627 6.214,16.533 6.125,16.323 6.064 C 16.066 5.988,15.919 5.987,15.695 6.057 " stroke="none" fill-rule="evenodd" fill="black"></path></svg>