<svg width="24" height="24" viewBox="0 0 24 24" fill="none" xmlns="http://www.w3.org/2000/svg"><path d="M5.940 2.026 C 4.916 2.088,4.270 2.309,3.562 2.843 C 2.816 3.405,2.320 4.194,2.105 5.160 C 2.020 5.539,2.020 5.564,2.020 12.000 C 2.020 18.436,2.020 18.461,2.105 18.840 C 2.311 19.762,2.774 20.527,3.464 21.084 C 4.130 21.621,4.768 21.874,5.675 21.960 C 6.224 22.012,9.034 22.011,9.489 21.959 C 10.795 21.810,11.966 20.981,12.570 19.780 C 12.906 19.112,13.016 18.486,12.993 17.373 C 12.980 16.723,12.976 16.694,12.871 16.514 C 12.480 15.849,11.520 15.848,11.131 16.512 C 11.026 16.690,11.023 16.720,10.992 17.571 C 10.962 18.384,10.952 18.466,10.854 18.713 C 10.618 19.308,10.205 19.701,9.600 19.905 C 9.398 19.974,9.229 19.980,7.540 19.980 C 5.897 19.980,5.672 19.972,5.440 19.909 C 4.760 19.722,4.214 19.144,4.070 18.460 C 4.031 18.273,4.020 16.846,4.020 12.000 C 4.020 5.316,4.014 5.520,4.227 5.080 C 4.366 4.795,4.795 4.366,5.080 4.227 C 5.481 4.033,5.640 4.020,7.600 4.021 L 9.420 4.022 9.690 4.129 C 10.268 4.359,10.628 4.717,10.854 5.287 C 10.952 5.534,10.962 5.617,10.992 6.433 L 11.024 7.312 11.143 7.506 C 11.543 8.156,12.458 8.155,12.859 7.503 C 12.979 7.308,12.980 7.303,12.993 6.631 C 13.010 5.816,12.957 5.281,12.816 4.834 C 12.610 4.182,12.291 3.652,11.819 3.181 C 11.157 2.519,10.332 2.128,9.411 2.041 C 9.032 2.005,6.477 1.994,5.940 2.026 M15.695 6.057 C 15.466 6.129,15.256 6.299,15.128 6.516 C 15.036 6.672,15.020 6.745,15.021 7.000 C 15.021 7.212,15.043 7.341,15.095 7.440 C 15.135 7.517,15.936 8.350,16.874 9.290 L 18.579 11.000 13.736 11.000 C 9.748 11.000,8.861 11.010,8.710 11.055 C 8.467 11.128,8.260 11.293,8.128 11.516 C 8.037 11.672,8.020 11.746,8.020 12.000 C 8.020 12.256,8.036 12.328,8.131 12.489 C 8.256 12.702,8.449 12.864,8.670 12.943 C 8.792 12.987,9.728 12.997,13.699 12.998 L 18.579 13.000 16.874 14.710 C 15.936 15.650,15.135 16.483,15.095 16.560 C 15.043 16.659,15.021 16.788,15.021 17.000 C 15.020 17.258,15.036 17.327,15.133 17.492 C 15.413 17.968,16.033 18.139,16.492 17.865 C 16.708 17.737,21.808 12.625,21.905 12.440 C 21.957 12.341,21.979 12.212,21.979 12.000 C 21.980 11.745,21.964 11.673,21.873 11.520 C 21.812 11.418,20.630 10.207,19.153 8.734 C 16.627 6.214,16.533 6.125,16.323 6.064 C 16.066 5.988,15.919 5.987,15.695 6.057 " stroke="none" fill-rule="evenodd" fill="black"></path></svg>