<svg width="24" height="24" viewBox="0 0 24 24" fill="none" xmlns="http://www.w3.org/2000/svg"><path d="M9.800 2.044 C 7.981 2.218,6.275 2.903,4.821 4.041 C 4.343 4.415,3.488 5.276,3.111 5.763 C 1.757 7.508,1.001 9.744,1.001 12.000 C 1.001 13.633,1.376 15.195,2.119 16.660 C 3.078 18.551,4.687 20.145,6.540 21.039 C 8.454 21.964,10.517 22.222,12.611 21.798 C 13.630 21.592,15.295 20.892,15.699 20.498 C 16.361 19.855,15.825 18.716,14.905 18.811 C 14.752 18.827,14.555 18.907,14.152 19.118 C 12.448 20.010,10.635 20.228,8.822 19.760 C 5.674 18.949,3.375 16.168,3.041 12.766 C 2.732 9.626,4.323 6.493,6.996 4.981 C 8.841 3.936,11.003 3.724,13.020 4.390 C 13.262 4.470,13.756 4.685,14.117 4.868 C 14.710 5.167,14.797 5.200,15.000 5.200 C 15.433 5.200,15.852 4.882,15.963 4.469 C 16.066 4.087,15.916 3.646,15.605 3.417 C 15.312 3.201,14.269 2.704,13.693 2.505 C 12.507 2.098,11.044 1.924,9.800 2.044 M17.670 7.061 C 17.448 7.142,17.250 7.309,17.128 7.516 C 17.036 7.672,17.020 7.745,17.021 8.000 C 17.021 8.213,17.043 8.341,17.095 8.440 C 17.136 8.517,17.711 9.125,18.374 9.790 L 19.578 11.000 14.235 11.000 C 9.824 11.000,8.861 11.010,8.710 11.055 C 8.467 11.128,8.260 11.293,8.128 11.516 C 8.037 11.672,8.020 11.746,8.020 12.000 C 8.020 12.256,8.036 12.328,8.131 12.489 C 8.256 12.702,8.449 12.864,8.670 12.943 C 8.792 12.987,9.810 12.997,14.199 12.998 L 19.578 13.000 18.374 14.210 C 17.711 14.876,17.138 15.481,17.101 15.555 C 16.872 16.009,17.056 16.601,17.508 16.867 C 17.673 16.964,17.743 16.980,18.000 16.980 C 18.254 16.980,18.328 16.964,18.480 16.873 C 18.705 16.739,22.805 12.632,22.905 12.440 C 22.957 12.341,22.979 12.212,22.979 12.000 C 22.980 11.745,22.964 11.673,22.873 11.520 C 22.813 11.419,21.834 10.412,20.653 9.235 C 18.748 7.338,18.521 7.124,18.343 7.065 C 18.107 6.987,17.874 6.986,17.670 7.061 " stroke="none" fill-rule="evenodd" fill="black"></path></svg>