<svg width="24" height="24" viewBox="0 0 24 24" fill="none" xmlns="http://www.w3.org/2000/svg"><path d="M14.695 2.054 C 14.048 2.267,13.799 3.040,14.198 3.591 C 14.263 3.681,14.403 3.805,14.508 3.867 L 14.700 3.980 16.460 4.007 C 18.727 4.042,18.872 4.072,19.400 4.600 C 19.696 4.895,19.814 5.109,19.912 5.528 C 19.975 5.797,19.980 6.313,19.980 12.000 C 19.980 17.687,19.975 18.203,19.912 18.472 C 19.814 18.891,19.696 19.104,19.400 19.401 C 19.112 19.689,18.830 19.846,18.460 19.922 C 18.305 19.954,17.605 19.980,16.480 19.997 C 15.258 20.015,14.706 20.038,14.627 20.072 C 14.431 20.156,14.240 20.326,14.128 20.516 C 14.037 20.672,14.020 20.746,14.020 21.000 C 14.020 21.256,14.036 21.328,14.131 21.489 C 14.192 21.592,14.304 21.725,14.381 21.783 C 14.651 21.990,14.710 21.996,16.280 21.998 C 18.092 22.000,18.656 21.955,19.320 21.755 C 20.422 21.423,21.423 20.422,21.755 19.320 C 21.994 18.526,22.000 18.358,22.000 12.000 C 22.000 5.642,21.994 5.474,21.755 4.680 C 21.424 3.581,20.464 2.621,19.320 2.246 C 18.780 2.069,18.364 2.034,16.560 2.017 C 15.199 2.003,14.827 2.011,14.695 2.054 M9.695 6.057 C 9.466 6.129,9.256 6.299,9.128 6.516 C 9.036 6.672,9.020 6.745,9.021 7.000 C 9.021 7.212,9.043 7.341,9.095 7.440 C 9.135 7.517,9.936 8.350,10.874 9.290 L 12.579 11.000 7.736 11.000 C 3.748 11.000,2.861 11.010,2.710 11.055 C 2.467 11.128,2.260 11.293,2.128 11.516 C 2.037 11.672,2.020 11.746,2.020 12.000 C 2.020 12.256,2.036 12.328,2.131 12.489 C 2.256 12.702,2.449 12.864,2.670 12.943 C 2.792 12.987,3.728 12.997,7.699 12.998 L 12.579 13.000 10.874 14.710 C 9.936 15.650,9.135 16.483,9.095 16.560 C 9.043 16.659,9.021 16.788,9.021 17.000 C 9.020 17.258,9.036 17.327,9.133 17.492 C 9.413 17.968,10.033 18.139,10.492 17.865 C 10.708 17.737,15.808 12.625,15.905 12.440 C 15.957 12.341,15.979 12.212,15.979 12.000 C 15.980 11.745,15.964 11.673,15.873 11.520 C 15.812 11.418,14.630 10.207,13.153 8.734 C 10.627 6.214,10.533 6.125,10.323 6.064 C 10.066 5.988,9.919 5.987,9.695 6.057 " stroke="none" fill-rule="evenodd" fill="black"></path></svg>