<svg width="24" height="24" viewBox="0 0 24 24" fill="none" xmlns="http://www.w3.org/2000/svg"><path d="M8.516 2.043 C 7.233 2.172,6.035 3.017,5.430 4.220 C 5.094 4.889,4.984 5.514,5.007 6.631 C 5.020 7.303,5.021 7.308,5.141 7.503 C 5.542 8.155,6.457 8.156,6.857 7.506 L 6.976 7.312 7.008 6.437 C 7.037 5.648,7.049 5.537,7.139 5.298 C 7.349 4.740,7.728 4.362,8.310 4.128 L 8.580 4.020 13.380 4.020 C 17.766 4.020,18.205 4.026,18.472 4.088 C 18.891 4.186,19.105 4.304,19.400 4.600 C 19.696 4.895,19.814 5.109,19.912 5.528 C 19.975 5.797,19.980 6.313,19.980 12.000 C 19.980 17.687,19.975 18.203,19.912 18.472 C 19.874 18.633,19.802 18.849,19.752 18.952 C 19.626 19.211,19.190 19.638,18.918 19.768 C 18.473 19.982,18.517 19.980,13.380 19.980 C 8.842 19.980,8.610 19.977,8.400 19.905 C 7.793 19.700,7.359 19.285,7.138 18.699 C 7.050 18.464,7.037 18.350,7.008 17.566 C 6.977 16.720,6.974 16.690,6.869 16.512 C 6.480 15.848,5.520 15.849,5.129 16.514 C 5.024 16.694,5.020 16.723,5.007 17.373 C 4.999 17.742,5.012 18.222,5.036 18.439 C 5.182 19.785,5.999 20.956,7.220 21.570 C 7.606 21.764,8.097 21.912,8.511 21.959 C 8.982 22.013,17.593 22.013,18.180 21.959 C 18.928 21.891,19.387 21.775,19.859 21.535 C 20.749 21.085,21.482 20.228,21.755 19.320 C 21.994 18.526,22.000 18.358,22.000 12.000 C 22.000 5.642,21.994 5.474,21.755 4.680 C 21.424 3.581,20.465 2.622,19.320 2.246 C 18.661 2.029,18.677 2.030,13.580 2.019 C 10.984 2.013,8.705 2.024,8.516 2.043 M11.670 7.061 C 11.448 7.142,11.250 7.309,11.128 7.516 C 11.036 7.672,11.020 7.745,11.021 8.000 C 11.021 8.213,11.043 8.341,11.095 8.440 C 11.136 8.517,11.711 9.125,12.374 9.790 L 13.578 11.000 8.235 11.000 C 3.824 11.000,2.861 11.010,2.710 11.055 C 2.467 11.128,2.260 11.293,2.128 11.516 C 2.037 11.672,2.020 11.746,2.020 12.000 C 2.020 12.256,2.036 12.328,2.131 12.489 C 2.256 12.702,2.449 12.864,2.670 12.943 C 2.792 12.987,3.810 12.997,8.199 12.998 L 13.578 13.000 12.374 14.210 C 11.711 14.876,11.138 15.481,11.101 15.555 C 10.872 16.009,11.056 16.601,11.508 16.867 C 11.673 16.964,11.743 16.980,12.000 16.980 C 12.254 16.980,12.328 16.964,12.480 16.873 C 12.705 16.739,16.805 12.632,16.905 12.440 C 16.957 12.341,16.979 12.212,16.979 12.000 C 16.980 11.745,16.964 11.673,16.873 11.520 C 16.813 11.419,15.834 10.412,14.653 9.235 C 12.748 7.338,12.521 7.124,12.343 7.065 C 12.107 6.987,11.874 6.986,11.670 7.061 " stroke="none" fill-rule="evenodd" fill="black"></path></svg>