<svg width="24" height="24" viewBox="0 0 24 24" fill="none" xmlns="http://www.w3.org/2000/svg"><path d="M5.202 2.443 C 3.887 2.678,2.643 3.760,2.244 5.017 C 2.015 5.739,2.020 5.589,2.020 12.000 C 2.020 18.411,2.015 18.261,2.244 18.983 C 2.572 20.016,3.473 20.953,4.530 21.361 C 5.251 21.640,5.933 21.671,7.560 21.501 C 9.449 21.304,9.827 21.248,10.279 21.097 C 11.557 20.670,12.519 19.643,12.868 18.332 C 12.957 17.995,12.973 17.853,12.976 17.320 C 12.980 16.715,12.977 16.696,12.872 16.516 C 12.475 15.841,11.526 15.838,11.132 16.511 C 11.040 16.667,11.024 16.752,10.997 17.214 C 10.965 17.756,10.928 17.910,10.739 18.283 C 10.594 18.569,10.197 18.954,9.904 19.093 C 9.566 19.253,9.311 19.300,8.040 19.438 C 5.871 19.673,5.602 19.672,5.096 19.422 C 4.585 19.169,4.234 18.735,4.091 18.177 C 4.025 17.918,4.020 17.522,4.020 12.020 C 4.020 6.539,4.025 6.120,4.091 5.840 C 4.226 5.267,4.570 4.838,5.108 4.572 L 5.417 4.420 6.118 4.423 C 6.649 4.426,7.133 4.463,8.105 4.574 C 8.811 4.655,9.477 4.747,9.585 4.779 C 10.044 4.916,10.538 5.320,10.746 5.732 C 10.927 6.089,10.965 6.249,10.997 6.789 C 11.025 7.277,11.037 7.334,11.145 7.509 C 11.543 8.156,12.459 8.153,12.859 7.503 L 12.980 7.306 12.976 6.683 C 12.973 6.147,12.957 6.005,12.868 5.668 C 12.508 4.315,11.470 3.249,10.131 2.858 C 9.297 2.614,5.863 2.325,5.202 2.443 M15.670 6.061 C 15.448 6.142,15.250 6.309,15.128 6.516 C 15.036 6.672,15.020 6.745,15.021 7.000 C 15.021 7.212,15.043 7.341,15.095 7.440 C 15.135 7.517,15.936 8.350,16.874 9.290 L 18.579 11.000 13.714 11.000 C 8.416 11.000,8.687 10.989,8.377 11.225 C 8.300 11.284,8.187 11.415,8.128 11.516 C 8.037 11.672,8.020 11.746,8.020 12.000 C 8.020 12.256,8.036 12.328,8.131 12.489 C 8.256 12.702,8.449 12.864,8.670 12.943 C 8.792 12.987,9.728 12.997,13.699 12.998 L 18.579 13.000 16.874 14.710 C 15.936 15.650,15.135 16.483,15.095 16.560 C 15.043 16.659,15.021 16.788,15.021 17.000 C 15.020 17.258,15.036 17.327,15.133 17.492 C 15.413 17.968,16.033 18.139,16.492 17.865 C 16.708 17.737,21.808 12.625,21.905 12.440 C 21.957 12.341,21.979 12.212,21.979 12.000 C 21.980 11.745,21.964 11.673,21.873 11.520 C 21.812 11.418,20.632 10.210,19.153 8.735 C 16.783 6.372,16.522 6.124,16.343 6.065 C 16.107 5.987,15.874 5.986,15.670 6.061 " stroke="none" fill-rule="evenodd" fill="black"></path></svg>