<svg width="24" height="24" viewBox="0 0 24 24" fill="none" xmlns="http://www.w3.org/2000/svg"><path d="M6.920 1.040 C 6.150 1.092,5.672 1.205,5.180 1.451 C 4.089 1.996,3.357 2.961,3.124 4.160 C 3.013 4.729,3.000 5.455,3.000 11.000 C 3.000 16.545,3.013 17.271,3.124 17.840 C 3.272 18.605,3.580 19.203,4.117 19.772 C 4.771 20.464,5.627 20.857,6.673 20.944 L 6.993 20.971 7.007 21.639 C 7.020 22.302,7.021 22.308,7.141 22.503 C 7.543 23.156,8.457 23.156,8.859 22.503 C 8.979 22.308,8.980 22.300,8.993 21.653 L 9.007 21.000 12.000 21.000 L 14.993 21.000 15.007 21.653 C 15.020 22.300,15.021 22.308,15.141 22.503 C 15.543 23.156,16.457 23.156,16.859 22.503 C 16.979 22.308,16.980 22.302,16.993 21.639 L 17.007 20.971 17.327 20.944 C 18.373 20.857,19.229 20.464,19.883 19.772 C 20.565 19.050,20.851 18.362,20.959 17.180 C 21.014 16.585,21.014 5.415,20.959 4.820 C 20.891 4.072,20.775 3.613,20.535 3.141 C 20.088 2.259,19.268 1.557,18.320 1.246 C 17.657 1.028,17.701 1.030,12.340 1.019 C 9.612 1.014,7.173 1.023,6.920 1.040 M17.492 3.091 C 17.893 3.188,18.109 3.309,18.400 3.600 C 18.696 3.895,18.814 4.109,18.912 4.528 C 18.975 4.797,18.980 5.313,18.980 11.000 C 18.980 16.687,18.975 17.203,18.912 17.472 C 18.814 17.891,18.696 18.104,18.400 18.401 C 18.101 18.701,17.820 18.851,17.418 18.928 C 17.011 19.004,6.989 19.004,6.582 18.927 C 6.170 18.850,5.898 18.704,5.600 18.403 C 5.303 18.104,5.186 17.890,5.088 17.472 C 5.025 17.203,5.020 16.687,5.020 11.000 C 5.020 5.313,5.025 4.797,5.088 4.528 C 5.175 4.155,5.294 3.918,5.520 3.667 C 5.883 3.262,6.281 3.091,6.980 3.039 C 7.200 3.023,9.594 3.013,12.300 3.018 C 16.701 3.025,17.249 3.033,17.492 3.091 M9.240 6.035 C 8.929 6.137,8.651 6.393,8.555 6.665 C 8.474 6.895,8.474 15.105,8.555 15.335 C 8.682 15.696,9.114 15.999,9.500 15.999 C 9.886 15.999,10.318 15.696,10.445 15.335 C 10.526 15.105,10.526 6.895,10.445 6.665 C 10.375 6.466,10.150 6.217,9.946 6.113 C 9.771 6.024,9.399 5.983,9.240 6.035 M14.240 6.035 C 13.929 6.137,13.651 6.393,13.555 6.665 C 13.510 6.792,13.500 7.562,13.500 11.000 C 13.500 14.438,13.510 15.208,13.555 15.335 C 13.682 15.696,14.114 15.999,14.500 15.999 C 14.886 15.999,15.318 15.696,15.445 15.335 C 15.526 15.105,15.526 6.895,15.445 6.665 C 15.375 6.466,15.150 6.217,14.946 6.113 C 14.771 6.024,14.399 5.983,14.240 6.035 " stroke="none" fill-rule="evenodd" fill="black"></path></svg>