<svg width="24" height="24" viewBox="0 0 24 24" fill="none" xmlns="http://www.w3.org/2000/svg"><path d="M10.516 2.044 C 9.239 2.168,8.035 3.016,7.430 4.220 C 7.188 4.702,7.003 5.435,7.000 5.924 C 7.000 5.980,6.866 5.990,5.870 6.013 C 4.346 6.047,3.817 6.133,3.180 6.451 C 2.089 6.996,1.357 7.961,1.124 9.160 C 1.018 9.702,1.000 10.421,1.000 14.000 C 1.000 18.212,1.016 18.561,1.245 19.320 C 1.577 20.422,2.578 21.423,3.680 21.755 C 4.485 21.998,4.567 22.000,12.000 22.000 C 19.433 22.000,19.515 21.998,20.320 21.755 C 21.422 21.423,22.423 20.422,22.755 19.320 C 22.984 18.561,23.000 18.212,23.000 14.000 C 23.000 10.421,22.982 9.702,22.876 9.160 C 22.644 7.963,21.909 6.995,20.820 6.451 C 20.183 6.133,19.654 6.047,18.130 6.013 C 17.134 5.990,17.000 5.980,17.000 5.924 C 16.998 5.676,16.902 5.108,16.815 4.831 C 16.610 4.182,16.290 3.651,15.819 3.181 C 15.157 2.519,14.332 2.128,13.411 2.041 C 12.910 1.993,11.018 1.995,10.516 2.044 M13.693 4.134 C 13.996 4.250,14.146 4.343,14.374 4.556 C 14.716 4.876,14.960 5.386,14.960 5.781 L 14.960 6.000 12.000 6.000 L 9.040 6.000 9.040 5.781 C 9.040 5.139,9.563 4.433,10.245 4.155 C 10.553 4.030,10.909 4.005,12.240 4.018 C 13.402 4.030,13.424 4.032,13.693 4.134 M19.492 8.091 C 19.894 8.188,20.110 8.309,20.400 8.600 C 20.696 8.895,20.814 9.109,20.912 9.528 C 20.974 9.794,20.980 10.199,20.980 14.000 C 20.980 18.557,20.984 18.476,20.752 18.952 C 20.626 19.211,20.190 19.638,19.918 19.768 C 19.463 19.987,19.707 19.980,12.000 19.980 C 4.304 19.980,4.541 19.986,4.082 19.771 C 3.812 19.643,3.377 19.217,3.248 18.952 C 3.016 18.476,3.020 18.557,3.020 14.000 C 3.020 10.199,3.026 9.794,3.088 9.528 C 3.175 9.155,3.294 8.918,3.520 8.667 C 3.883 8.262,4.282 8.090,4.980 8.039 C 5.200 8.023,8.494 8.013,12.300 8.017 C 18.585 8.024,19.245 8.031,19.492 8.091 M12.109 12.563 C 11.599 12.685,11.200 13.089,11.060 13.625 C 10.972 13.965,10.972 17.035,11.060 17.375 C 11.221 17.992,11.674 18.382,12.341 18.478 C 12.735 18.535,17.799 18.533,18.172 18.476 C 18.546 18.419,18.817 18.288,19.053 18.053 C 19.288 17.817,19.419 17.546,19.476 17.172 C 19.534 16.792,19.534 14.208,19.476 13.828 C 19.393 13.287,19.113 12.891,18.648 12.656 L 18.420 12.540 15.340 12.533 C 13.621 12.530,12.193 12.543,12.109 12.563 M17.480 15.520 L 17.480 16.520 15.240 16.520 L 13.000 16.520 13.000 15.520 L 13.000 14.520 15.240 14.520 L 17.480 14.520 17.480 15.520 " stroke="none" fill-rule="evenodd" fill="black"></path></svg>