<svg width="24" height="24" viewBox="0 0 24 24" fill="none" xmlns="http://www.w3.org/2000/svg"><path d="M10.516 2.044 C 9.239 2.168,8.035 3.016,7.430 4.220 C 7.188 4.702,7.003 5.435,7.000 5.924 C 7.000 5.980,6.866 5.990,5.870 6.013 C 4.346 6.047,3.817 6.133,3.180 6.451 C 2.089 6.996,1.357 7.961,1.124 9.160 C 1.018 9.702,1.000 10.421,1.000 14.000 C 1.000 18.212,1.016 18.561,1.245 19.320 C 1.577 20.422,2.578 21.423,3.680 21.755 C 4.485 21.998,4.567 22.000,12.000 22.000 C 19.433 22.000,19.515 21.998,20.320 21.755 C 21.422 21.423,22.423 20.422,22.755 19.320 C 22.984 18.561,23.000 18.212,23.000 14.000 C 23.000 10.421,22.982 9.702,22.876 9.160 C 22.644 7.963,21.909 6.995,20.820 6.451 C 20.183 6.133,19.654 6.047,18.130 6.013 C 17.134 5.990,17.000 5.980,17.000 5.924 C 16.998 5.676,16.902 5.108,16.815 4.831 C 16.610 4.182,16.290 3.651,15.819 3.181 C 15.157 2.519,14.332 2.128,13.411 2.041 C 12.910 1.993,11.018 1.995,10.516 2.044 M13.693 4.134 C 13.996 4.250,14.146 4.343,14.374 4.556 C 14.711 4.871,14.960 5.391,14.960 5.777 L 14.960 6.000 12.000 6.000 L 9.040 6.000 9.040 5.781 C 9.040 5.139,9.563 4.433,10.245 4.155 C 10.553 4.030,10.909 4.005,12.240 4.018 C 13.402 4.030,13.424 4.032,13.693 4.134 M7.000 14.005 L 7.000 20.010 5.890 19.989 C 4.708 19.968,4.432 19.934,4.080 19.769 C 3.812 19.643,3.376 19.216,3.248 18.952 C 3.016 18.476,3.020 18.557,3.020 14.000 C 3.020 9.442,3.017 9.517,3.248 9.051 C 3.371 8.805,3.654 8.496,3.903 8.336 C 4.308 8.077,4.726 8.017,6.190 8.006 L 7.000 8.000 7.000 14.005 M15.000 10.258 L 15.000 12.515 13.550 12.528 L 12.100 12.540 11.875 12.645 C 11.451 12.844,11.178 13.172,11.060 13.625 C 10.972 13.965,10.972 17.035,11.060 17.375 C 11.221 17.992,11.674 18.382,12.341 18.478 C 12.495 18.500,13.155 18.519,13.810 18.519 L 15.000 18.520 15.000 19.260 L 15.000 20.000 12.000 20.000 L 9.000 20.000 9.000 14.000 L 9.000 8.000 12.000 8.000 L 15.000 8.000 15.000 10.258 M19.492 8.098 C 19.885 8.183,20.105 8.305,20.400 8.600 C 20.696 8.895,20.814 9.109,20.912 9.528 C 20.974 9.794,20.980 10.199,20.980 14.000 C 20.980 18.557,20.984 18.476,20.752 18.952 C 20.627 19.210,20.190 19.638,19.920 19.767 C 19.571 19.934,19.297 19.968,18.110 19.989 L 17.000 20.010 17.000 19.265 L 17.000 18.520 17.442 18.520 C 18.292 18.520,18.705 18.400,19.053 18.053 C 19.288 17.817,19.419 17.546,19.476 17.172 C 19.534 16.792,19.534 14.208,19.476 13.828 C 19.393 13.287,19.112 12.890,18.648 12.657 C 18.427 12.546,18.397 12.542,17.710 12.527 L 17.000 12.512 17.000 10.250 L 17.000 7.988 18.110 8.013 C 18.853 8.030,19.310 8.058,19.492 8.098 M17.480 15.520 L 17.480 16.520 15.240 16.520 L 13.000 16.520 13.000 15.520 L 13.000 14.520 15.240 14.520 L 17.480 14.520 17.480 15.520 " stroke="none" fill-rule="evenodd" fill="black"></path></svg>