<svg width="24" height="24" viewBox="0 0 24 24" fill="none" xmlns="http://www.w3.org/2000/svg"><path d="M14.709 1.055 C 14.384 1.176,14.171 1.389,14.057 1.709 C 13.975 1.939,13.979 3.515,14.062 3.795 C 14.273 4.504,15.188 4.726,15.716 4.197 C 15.983 3.931,15.998 3.853,15.998 2.760 C 15.998 1.860,15.992 1.765,15.917 1.600 C 15.757 1.246,15.467 1.043,15.083 1.015 C 14.950 1.005,14.799 1.021,14.709 1.055 M9.680 3.035 C 9.080 3.232,8.793 3.868,9.056 4.420 C 9.179 4.679,10.385 5.884,10.619 5.982 C 10.971 6.129,11.441 6.033,11.716 5.757 C 12.001 5.472,12.084 5.010,11.917 4.640 C 11.811 4.407,10.656 3.247,10.403 3.120 C 10.213 3.025,9.844 2.981,9.680 3.035 M19.708 3.055 C 19.456 3.149,19.278 3.296,18.686 3.897 C 18.052 4.540,17.962 4.685,17.962 5.060 C 17.962 5.467,18.182 5.806,18.554 5.970 C 18.772 6.067,19.126 6.072,19.341 5.982 C 19.575 5.884,20.781 4.679,20.904 4.420 C 21.132 3.940,20.935 3.355,20.463 3.112 C 20.261 3.008,19.906 2.981,19.708 3.055 M13.010 6.979 C 12.733 7.057,12.549 7.154,12.259 7.374 C 12.128 7.473,9.740 9.838,6.954 12.627 C 3.361 16.225,1.842 17.772,1.730 17.947 C 1.322 18.585,1.322 19.417,1.731 20.053 C 1.941 20.381,3.619 22.059,3.947 22.269 C 4.583 22.678,5.415 22.678,6.053 22.270 C 6.228 22.158,7.770 20.644,11.353 17.066 C 14.132 14.291,16.492 11.912,16.597 11.780 C 16.942 11.349,17.079 10.985,17.079 10.500 C 17.079 10.016,16.943 9.653,16.599 9.220 C 16.311 8.858,14.809 7.396,14.571 7.245 C 14.456 7.173,14.267 7.077,14.151 7.032 C 13.873 6.924,13.300 6.898,13.010 6.979 M20.240 8.036 C 19.373 8.311,19.262 9.463,20.060 9.894 C 20.212 9.976,20.271 9.980,21.260 9.980 C 22.249 9.980,22.308 9.976,22.460 9.894 C 22.796 9.712,22.998 9.377,22.998 9.000 C 22.998 8.623,22.796 8.288,22.460 8.106 C 22.310 8.025,22.240 8.020,21.320 8.012 C 20.781 8.008,20.295 8.019,20.240 8.036 M14.040 11.540 L 13.000 12.580 12.210 11.790 L 11.420 11.000 12.460 9.960 L 13.499 8.920 14.290 9.710 L 15.080 10.500 14.040 11.540 M18.680 12.035 C 18.080 12.232,17.793 12.868,18.056 13.420 C 18.179 13.679,19.385 14.884,19.619 14.982 C 19.971 15.129,20.441 15.033,20.716 14.757 C 21.001 14.472,21.084 14.010,20.917 13.640 C 20.811 13.407,19.656 12.247,19.403 12.120 C 19.213 12.025,18.844 11.981,18.680 12.035 M10.800 13.220 L 11.580 14.000 8.290 17.290 L 5.000 20.580 4.210 19.790 L 3.420 19.000 6.700 15.720 C 8.504 13.916,9.989 12.440,10.000 12.440 C 10.012 12.440,10.372 12.791,10.800 13.220 " stroke="none" fill-rule="evenodd" fill="black"></path></svg>