<svg width="24" height="24" viewBox="0 0 24 24" fill="none" xmlns="http://www.w3.org/2000/svg"><path d="M4.920 3.041 C 4.152 3.092,3.672 3.205,3.180 3.451 C 2.073 4.004,1.327 5.001,1.121 6.200 C 1.096 6.343,1.059 6.558,1.038 6.677 C 0.985 6.976,0.988 16.605,1.041 17.180 C 1.109 17.928,1.225 18.387,1.464 18.858 C 1.999 19.913,2.979 20.647,4.160 20.876 C 4.738 20.988,5.470 21.000,12.000 21.000 C 18.530 21.000,19.262 20.988,19.840 20.876 C 21.021 20.647,22.001 19.913,22.536 18.858 C 22.775 18.387,22.891 17.928,22.959 17.180 C 23.012 16.605,23.015 6.976,22.962 6.677 C 22.941 6.558,22.904 6.343,22.879 6.200 C 22.642 4.820,21.660 3.686,20.320 3.246 C 19.635 3.021,19.900 3.028,12.340 3.019 C 8.512 3.014,5.173 3.024,4.920 3.041 M19.492 5.091 C 19.849 5.177,20.087 5.299,20.333 5.520 C 20.578 5.739,20.771 6.034,20.854 6.313 L 20.917 6.523 18.368 8.217 C 16.967 9.149,15.759 9.931,15.684 9.956 C 15.492 10.018,8.508 10.018,8.316 9.956 C 8.241 9.931,7.033 9.149,5.632 8.217 L 3.083 6.523 3.146 6.313 C 3.259 5.931,3.571 5.539,3.945 5.307 C 4.182 5.161,4.521 5.073,4.980 5.039 C 5.200 5.023,8.494 5.013,12.300 5.017 C 18.585 5.024,19.245 5.031,19.492 5.091 M5.073 10.249 C 6.157 10.972,7.147 11.615,7.273 11.678 C 7.398 11.742,7.635 11.835,7.800 11.887 L 8.100 11.980 12.000 11.980 L 15.900 11.980 16.199 11.886 C 16.363 11.835,16.601 11.740,16.729 11.676 C 16.856 11.611,17.846 10.969,18.930 10.247 C 20.013 9.526,20.924 8.921,20.953 8.904 C 20.996 8.878,21.003 9.602,20.989 13.046 C 20.972 17.571,20.976 17.492,20.752 17.952 C 20.626 18.211,20.190 18.638,19.918 18.768 C 19.463 18.987,19.707 18.980,12.000 18.980 C 4.304 18.980,4.541 18.986,4.082 18.771 C 3.812 18.643,3.377 18.217,3.248 17.952 C 3.024 17.492,3.028 17.571,3.011 13.046 C 2.997 9.602,3.004 8.878,3.047 8.904 C 3.076 8.921,3.988 9.527,5.073 10.249 " stroke="none" fill-rule="evenodd" fill="black"></path></svg>