<svg width="24" height="24" viewBox="0 0 24 24" fill="none" xmlns="http://www.w3.org/2000/svg"><path d="M11.720 0.903 C 11.249 0.986,11.111 1.020,10.911 1.104 C 10.548 1.257,10.313 1.405,5.977 4.223 C 3.234 6.006,1.786 6.971,1.620 7.126 C 1.477 7.259,1.318 7.459,1.244 7.598 C 0.995 8.066,1.001 7.917,1.001 13.060 C 1.000 18.280,1.010 18.541,1.245 19.320 C 1.577 20.422,2.578 21.423,3.680 21.755 C 4.485 21.998,4.567 22.000,12.000 22.000 C 19.433 22.000,19.515 21.998,20.320 21.755 C 21.422 21.423,22.423 20.422,22.755 19.320 C 22.990 18.541,23.000 18.280,22.999 13.060 C 22.999 7.917,23.005 8.066,22.756 7.598 C 22.682 7.460,22.523 7.260,22.383 7.129 C 22.222 6.978,20.734 5.987,18.019 4.222 C 15.754 2.750,13.769 1.467,13.609 1.372 C 13.254 1.162,12.928 1.024,12.654 0.966 C 12.412 0.915,11.864 0.878,11.720 0.903 M12.568 3.084 C 12.728 3.178,14.318 4.202,16.100 5.360 C 19.865 7.807,20.118 7.973,20.118 8.000 C 20.117 8.011,20.050 8.066,19.968 8.123 C 19.603 8.375,12.829 12.765,12.561 12.923 C 12.289 13.084,12.238 13.100,12.001 13.100 C 11.777 13.100,11.706 13.080,11.500 12.962 C 11.279 12.836,4.421 8.392,4.047 8.133 C 3.957 8.071,3.883 8.011,3.882 8.000 C 3.881 7.974,3.862 7.987,7.520 5.606 C 11.085 3.286,11.528 3.004,11.720 2.931 C 11.958 2.842,12.238 2.892,12.568 3.084 M6.388 12.042 C 7.118 12.514,7.717 12.909,7.718 12.920 C 7.720 12.944,3.085 17.134,3.035 17.153 C 3.015 17.161,3.000 15.563,3.000 13.505 L 3.000 9.843 4.030 10.513 C 4.596 10.882,5.658 11.570,6.388 12.042 M21.000 13.503 C 21.000 15.562,20.985 17.161,20.965 17.153 C 20.915 17.134,16.280 12.944,16.282 12.920 C 16.284 12.905,20.944 9.859,20.990 9.843 C 20.996 9.842,21.000 11.489,21.000 13.503 M10.045 14.420 C 10.653 14.807,11.035 14.980,11.467 15.063 C 12.309 15.224,12.969 15.051,13.975 14.406 C 14.259 14.225,14.512 14.082,14.538 14.088 C 14.564 14.095,15.902 15.288,17.511 16.740 L 20.438 19.380 20.284 19.521 C 20.075 19.713,19.751 19.864,19.418 19.928 C 19.009 20.005,4.991 20.005,4.582 19.927 C 4.237 19.862,3.937 19.723,3.725 19.529 L 3.562 19.380 6.491 16.733 C 8.102 15.277,9.440 14.084,9.465 14.083 C 9.490 14.081,9.751 14.233,10.045 14.420 " stroke="none" fill-rule="evenodd" fill="black"></path></svg>