<svg width="24" height="24" viewBox="0 0 24 24" fill="none" xmlns="http://www.w3.org/2000/svg"><path d="M4.920 3.041 C 4.152 3.092,3.672 3.205,3.180 3.451 C 2.073 4.004,1.327 5.001,1.121 6.200 C 1.096 6.343,1.059 6.558,1.038 6.677 C 0.985 6.976,0.988 16.605,1.041 17.180 C 1.109 17.928,1.225 18.387,1.464 18.858 C 1.999 19.913,2.979 20.647,4.160 20.876 C 4.738 20.988,5.470 21.000,12.000 21.000 C 18.530 21.000,19.262 20.988,19.840 20.876 C 21.021 20.647,22.001 19.913,22.536 18.858 C 22.775 18.387,22.891 17.928,22.959 17.180 C 23.012 16.605,23.015 6.976,22.962 6.677 C 22.941 6.558,22.904 6.343,22.879 6.200 C 22.642 4.820,21.660 3.686,20.320 3.246 C 19.635 3.021,19.900 3.028,12.340 3.019 C 8.512 3.014,5.173 3.024,4.920 3.041 M19.492 5.091 C 20.001 5.214,20.400 5.491,20.663 5.902 C 20.772 6.072,20.942 6.513,20.910 6.543 C 20.816 6.628,12.661 12.308,12.495 12.404 C 12.294 12.521,12.223 12.540,12.000 12.540 C 11.777 12.540,11.706 12.521,11.505 12.404 C 11.339 12.308,3.184 6.628,3.090 6.543 C 3.057 6.513,3.229 6.072,3.339 5.902 C 3.701 5.345,4.170 5.099,4.980 5.039 C 5.200 5.023,8.494 5.013,12.300 5.017 C 18.585 5.024,19.245 5.031,19.492 5.091 M7.474 12.061 C 7.518 12.102,7.119 12.480,5.299 14.125 C 4.073 15.233,3.055 16.146,3.035 16.153 C 3.015 16.161,3.000 14.618,3.000 12.545 L 3.000 8.924 5.210 10.468 C 6.425 11.317,7.444 12.034,7.474 12.061 M21.000 12.543 C 21.000 14.617,20.985 16.161,20.965 16.153 C 20.882 16.122,16.477 12.110,16.499 12.086 C 16.522 12.062,20.967 8.932,20.990 8.924 C 20.996 8.922,21.000 10.550,21.000 12.543 M9.978 13.795 C 10.882 14.406,11.244 14.539,12.000 14.539 C 12.771 14.539,13.125 14.405,14.107 13.740 C 14.451 13.507,14.747 13.312,14.766 13.308 C 14.784 13.304,16.068 14.443,17.618 15.840 L 20.438 18.380 20.284 18.521 C 20.075 18.713,19.751 18.864,19.418 18.928 C 19.009 19.005,4.991 19.005,4.582 18.927 C 4.237 18.862,3.937 18.723,3.725 18.529 L 3.562 18.380 6.389 15.831 L 9.216 13.282 9.319 13.351 C 9.376 13.389,9.673 13.589,9.978 13.795 " stroke="none" fill-rule="evenodd" fill="black"></path></svg>