<svg width="24" height="24" viewBox="0 0 24 24" fill="none" xmlns="http://www.w3.org/2000/svg"><path d="M8.700 1.049 C 8.634 1.073,6.969 2.012,5.001 3.136 C 2.580 4.518,1.374 5.229,1.274 5.331 C 0.978 5.636,1.000 4.933,1.000 14.000 C 1.000 23.144,0.974 22.376,1.299 22.701 C 1.568 22.970,1.964 23.065,2.307 22.944 C 2.394 22.914,3.935 22.049,5.732 21.022 L 9.000 19.154 12.310 21.046 C 14.535 22.317,15.679 22.950,15.801 22.975 C 16.225 23.062,16.097 23.135,19.535 20.843 C 22.876 18.616,22.854 18.632,22.959 18.260 C 22.991 18.143,23.000 15.892,22.992 9.897 L 22.980 1.694 22.860 1.502 C 22.624 1.125,22.169 0.929,21.770 1.033 C 21.632 1.069,20.811 1.596,18.785 2.945 C 17.131 4.046,15.963 4.800,15.925 4.790 C 15.889 4.780,14.411 3.944,12.640 2.933 C 10.869 1.921,9.359 1.072,9.284 1.047 C 9.119 0.990,8.862 0.991,8.700 1.049 M8.000 10.572 L 8.000 17.423 5.590 18.799 C 4.264 19.555,3.139 20.200,3.090 20.232 L 3.000 20.289 3.000 13.435 L 3.001 6.580 5.490 5.154 C 6.860 4.369,7.985 3.726,7.990 3.724 C 7.995 3.722,8.000 6.803,8.000 10.572 M15.000 13.435 L 15.000 20.289 14.910 20.232 C 14.861 20.200,13.736 19.555,12.410 18.799 L 10.000 17.423 10.000 10.574 L 10.000 3.726 12.500 5.153 L 14.999 6.580 15.000 13.435 M21.000 10.673 L 21.000 17.467 19.110 18.726 C 18.070 19.419,17.171 20.018,17.110 20.058 L 17.000 20.129 17.000 13.331 L 17.000 6.533 18.990 5.207 C 20.085 4.477,20.984 3.880,20.990 3.880 C 20.996 3.880,21.000 6.937,21.000 10.673 " stroke="none" fill-rule="evenodd" fill="black"></path></svg>