<svg width="24" height="24" viewBox="0 0 24 24" fill="none" xmlns="http://www.w3.org/2000/svg"><path d="M5.920 2.041 C 5.151 2.092,4.672 2.205,4.180 2.451 C 3.089 2.996,2.357 3.961,2.124 5.160 C 2.013 5.729,2.000 6.455,2.000 12.000 C 2.000 18.358,2.006 18.526,2.245 19.320 C 2.577 20.422,3.578 21.423,4.680 21.755 C 5.474 21.994,5.642 22.000,12.000 22.000 C 18.358 22.000,18.526 21.994,19.320 21.755 C 20.422 21.423,21.423 20.422,21.755 19.320 C 21.994 18.526,22.000 18.358,22.000 12.000 C 22.000 5.642,21.994 5.474,21.755 4.680 C 21.424 3.581,20.465 2.622,19.320 2.246 C 18.644 2.024,18.800 2.029,12.340 2.019 C 9.062 2.014,6.173 2.024,5.920 2.041 M9.013 7.750 C 9.930 9.813,10.680 11.521,10.680 11.547 C 10.680 11.586,4.090 15.280,4.020 15.280 C 4.006 15.280,4.002 13.143,4.011 10.530 C 4.027 5.370,4.021 5.507,4.248 5.051 C 4.371 4.805,4.654 4.496,4.903 4.336 C 5.279 4.096,5.730 4.020,6.863 4.006 L 7.347 4.000 9.013 7.750 M18.492 4.092 C 18.893 4.187,19.109 4.308,19.400 4.600 C 19.696 4.895,19.814 5.109,19.912 5.528 C 19.975 5.797,19.980 6.313,19.980 12.000 C 19.980 17.687,19.975 18.203,19.912 18.472 C 19.814 18.891,19.696 19.104,19.400 19.401 C 18.937 19.865,18.642 19.954,17.439 19.988 L 16.658 20.011 13.132 12.076 C 11.192 7.711,9.592 4.107,9.577 4.067 C 9.550 3.998,9.710 3.995,13.885 4.011 C 17.717 4.025,18.252 4.034,18.492 4.092 M12.969 16.650 C 13.753 18.416,14.407 19.892,14.423 19.932 C 14.449 20.001,14.272 20.003,10.095 19.988 C 5.445 19.972,5.518 19.975,5.080 19.769 C 4.812 19.643,4.376 19.216,4.248 18.952 C 4.129 18.709,4.047 18.301,4.035 17.900 L 4.025 17.580 7.743 15.511 C 9.787 14.373,11.479 13.441,11.501 13.441 C 11.524 13.440,12.184 14.885,12.969 16.650 " stroke="none" fill-rule="evenodd" fill="black"></path></svg>