<svg width="24" height="24" viewBox="0 0 24 24" fill="none" xmlns="http://www.w3.org/2000/svg"><path d="M11.340 1.024 C 10.026 1.160,9.091 1.415,8.060 1.918 C 6.244 2.804,4.840 4.202,3.939 6.020 C 2.469 8.985,2.734 12.411,4.628 14.923 C 5.268 15.771,5.917 16.404,7.540 17.760 C 8.801 18.813,9.243 19.213,9.653 19.671 C 10.362 20.462,10.728 21.114,10.978 22.031 C 11.108 22.509,11.233 22.706,11.508 22.867 C 11.673 22.964,11.743 22.980,12.000 22.980 C 12.257 22.980,12.327 22.964,12.492 22.867 C 12.767 22.706,12.892 22.509,13.022 22.031 C 13.212 21.334,13.414 20.904,13.824 20.320 C 14.319 19.615,14.816 19.132,16.460 17.760 C 18.329 16.199,19.007 15.505,19.710 14.434 C 21.283 12.039,21.427 8.803,20.084 6.060 C 18.773 3.384,16.266 1.546,13.320 1.101 C 12.911 1.039,11.662 0.991,11.340 1.024 M13.102 3.098 C 16.048 3.543,18.454 5.944,18.898 8.880 C 19.163 10.635,18.839 12.175,17.923 13.512 C 17.636 13.931,17.091 14.552,16.657 14.954 C 16.483 15.116,15.800 15.700,15.140 16.251 C 13.773 17.394,12.741 18.395,12.300 19.008 C 12.146 19.222,12.011 19.396,12.000 19.396 C 11.989 19.396,11.854 19.222,11.700 19.008 C 11.256 18.392,10.225 17.391,8.860 16.251 C 7.452 15.075,7.147 14.798,6.670 14.260 C 5.296 12.712,4.774 10.926,5.099 8.880 C 5.494 6.390,7.241 4.284,9.620 3.427 C 10.250 3.200,10.715 3.102,11.540 3.023 C 11.813 2.997,12.726 3.041,13.102 3.098 M11.358 6.061 C 10.230 6.237,9.143 6.974,8.569 7.953 C 7.320 10.083,8.233 12.785,10.512 13.704 C 12.558 14.528,14.877 13.538,15.704 11.488 C 16.090 10.530,16.090 9.469,15.705 8.516 C 15.172 7.197,14.001 6.269,12.605 6.058 C 12.144 5.989,11.816 5.990,11.358 6.061 M12.523 8.073 C 13.262 8.266,13.850 8.924,13.967 9.690 C 14.067 10.343,13.873 10.933,13.403 11.404 C 13.002 11.807,12.547 12.000,12.000 12.000 C 11.485 12.000,11.038 11.822,10.653 11.465 C 9.323 10.229,10.189 8.005,12.000 8.005 C 12.143 8.005,12.378 8.036,12.523 8.073 " stroke="none" fill-rule="evenodd" fill="black"></path></svg>