<svg width="24" height="24" viewBox="0 0 24 24" fill="none" xmlns="http://www.w3.org/2000/svg"><path d="M11.340 1.024 C 10.026 1.160,9.091 1.415,8.060 1.918 C 6.244 2.804,4.840 4.202,3.939 6.020 C 2.886 8.144,2.718 10.561,3.472 12.760 C 4.134 14.691,5.294 16.456,7.439 18.799 C 8.248 19.683,11.333 22.763,11.520 22.874 C 11.672 22.963,11.747 22.980,12.000 22.980 C 12.253 22.980,12.328 22.963,12.480 22.874 C 12.667 22.763,15.755 19.681,16.561 18.799 C 18.707 16.454,19.866 14.689,20.528 12.760 C 21.275 10.579,21.115 8.166,20.084 6.060 C 18.773 3.384,16.266 1.546,13.320 1.101 C 12.911 1.039,11.662 0.991,11.340 1.024 M13.102 3.098 C 15.581 3.473,17.715 5.237,18.573 7.620 C 18.869 8.442,18.977 9.086,18.974 10.020 C 18.970 11.162,18.730 12.095,18.130 13.300 C 17.301 14.966,16.145 16.406,13.492 19.080 L 12.004 20.580 10.918 19.500 C 8.031 16.628,6.747 15.053,5.883 13.325 C 5.266 12.091,5.029 11.170,5.026 10.000 C 5.024 9.297,5.070 8.894,5.224 8.275 C 5.771 6.061,7.452 4.207,9.620 3.427 C 10.250 3.200,10.715 3.102,11.540 3.023 C 11.813 2.997,12.726 3.041,13.102 3.098 M11.358 6.061 C 10.230 6.237,9.143 6.974,8.569 7.953 C 7.320 10.083,8.233 12.785,10.512 13.704 C 12.558 14.528,14.877 13.538,15.704 11.488 C 16.090 10.530,16.090 9.469,15.705 8.516 C 15.172 7.197,14.001 6.269,12.605 6.058 C 12.144 5.989,11.816 5.990,11.358 6.061 M12.523 8.073 C 13.262 8.266,13.850 8.924,13.967 9.690 C 14.067 10.343,13.873 10.933,13.403 11.404 C 13.002 11.807,12.547 12.000,12.000 12.000 C 11.485 12.000,11.038 11.822,10.653 11.465 C 9.323 10.229,10.189 8.005,12.000 8.005 C 12.143 8.005,12.378 8.036,12.523 8.073 " stroke="none" fill-rule="evenodd" fill="black"></path></svg>