<svg width="24" height="24" viewBox="0 0 24 24" fill="none" xmlns="http://www.w3.org/2000/svg"><path d="M11.358 2.061 C 9.731 2.315,8.417 3.584,8.083 5.227 C 7.700 7.105,8.756 9.031,10.540 9.711 C 10.716 9.778,10.891 9.843,10.929 9.855 C 10.994 9.875,10.999 10.111,11.009 13.592 L 11.020 17.306 11.141 17.503 C 11.543 18.156,12.457 18.156,12.859 17.503 L 12.980 17.306 12.991 13.592 C 13.001 10.111,13.006 9.875,13.071 9.855 C 14.340 9.452,15.237 8.645,15.704 7.488 C 16.090 6.530,16.090 5.469,15.705 4.516 C 15.172 3.197,14.001 2.269,12.605 2.058 C 12.144 1.989,11.816 1.990,11.358 2.061 M12.523 4.073 C 13.262 4.266,13.850 4.924,13.967 5.690 C 14.029 6.098,13.967 6.522,13.793 6.880 C 13.638 7.198,13.227 7.625,12.930 7.775 C 12.492 7.997,11.962 8.059,11.508 7.940 C 10.823 7.762,10.249 7.194,10.073 6.523 C 9.683 5.028,11.028 3.683,12.523 4.073 M7.880 12.388 C 7.268 12.482,5.993 12.829,5.242 13.105 C 4.714 13.299,3.651 13.829,3.230 14.108 C 1.700 15.122,0.936 16.346,1.013 17.658 C 1.042 18.156,1.116 18.438,1.339 18.900 C 1.563 19.363,1.811 19.687,2.310 20.165 C 5.070 22.811,12.044 23.792,17.480 22.299 C 19.305 21.798,20.751 21.065,21.690 20.165 C 22.189 19.687,22.437 19.363,22.661 18.900 C 22.877 18.453,22.956 18.162,22.986 17.700 C 23.136 15.415,20.750 13.429,16.757 12.516 C 15.870 12.313,15.588 12.354,15.252 12.736 C 14.897 13.139,14.921 13.689,15.310 14.089 C 15.474 14.258,15.625 14.316,16.277 14.460 C 18.518 14.953,20.357 15.953,20.843 16.940 C 20.961 17.180,20.980 17.258,20.978 17.504 C 20.977 17.749,20.957 17.829,20.839 18.062 C 20.571 18.590,19.904 19.150,19.011 19.597 C 15.281 21.465,8.719 21.465,4.989 19.597 C 4.094 19.149,3.426 18.589,3.162 18.065 C 2.872 17.491,3.008 16.949,3.584 16.372 C 4.397 15.559,5.893 14.872,7.780 14.445 C 8.415 14.301,8.472 14.280,8.662 14.113 C 9.072 13.753,9.110 13.147,8.748 12.736 C 8.513 12.469,8.191 12.340,7.880 12.388 " stroke="none" fill-rule="evenodd" fill="black"></path></svg>