<svg width="24" height="24" viewBox="0 0 24 24" fill="none" xmlns="http://www.w3.org/2000/svg"><path d="M11.695 2.057 C 11.466 2.129,11.256 2.299,11.128 2.516 L 11.020 2.700 11.020 10.003 L 11.020 17.306 11.141 17.503 C 11.543 18.156,12.457 18.156,12.859 17.503 L 12.980 17.306 12.991 14.203 L 13.002 11.099 15.529 9.740 C 16.919 8.992,18.162 8.310,18.292 8.224 C 18.611 8.013,18.820 7.739,18.925 7.392 C 19.125 6.734,18.876 6.111,18.241 5.681 C 17.579 5.233,12.433 2.100,12.284 2.054 C 12.069 1.988,11.912 1.989,11.695 2.057 M14.831 5.919 C 15.739 6.477,16.468 6.946,16.451 6.962 C 16.412 6.997,13.163 8.746,13.069 8.782 C 13.004 8.807,13.000 8.680,13.000 6.800 L 13.000 4.791 13.090 4.848 C 13.139 4.879,13.923 5.361,14.831 5.919 M7.880 12.388 C 7.268 12.482,5.993 12.829,5.242 13.105 C 4.714 13.299,3.651 13.829,3.230 14.108 C 1.700 15.122,0.936 16.346,1.013 17.658 C 1.042 18.156,1.116 18.438,1.339 18.900 C 1.563 19.363,1.811 19.687,2.310 20.165 C 5.070 22.811,12.044 23.792,17.480 22.299 C 19.305 21.798,20.751 21.065,21.690 20.165 C 22.189 19.687,22.437 19.363,22.661 18.900 C 22.877 18.453,22.956 18.162,22.986 17.700 C 23.136 15.415,20.750 13.429,16.757 12.516 C 15.870 12.313,15.588 12.354,15.252 12.736 C 14.897 13.139,14.921 13.689,15.310 14.089 C 15.474 14.258,15.625 14.316,16.277 14.460 C 18.518 14.953,20.357 15.953,20.843 16.940 C 20.961 17.180,20.980 17.258,20.978 17.504 C 20.977 17.749,20.957 17.829,20.839 18.062 C 20.571 18.590,19.904 19.150,19.011 19.597 C 15.281 21.465,8.719 21.465,4.989 19.597 C 4.094 19.149,3.426 18.589,3.162 18.065 C 2.872 17.491,3.008 16.949,3.584 16.372 C 4.397 15.559,5.893 14.872,7.780 14.445 C 8.415 14.301,8.472 14.280,8.662 14.113 C 9.072 13.753,9.110 13.147,8.748 12.736 C 8.513 12.469,8.191 12.340,7.880 12.388 " stroke="none" fill-rule="evenodd" fill="black"></path></svg>