<svg width="24" height="24" viewBox="0 0 24 24" fill="none" xmlns="http://www.w3.org/2000/svg"><path d="M11.540 1.023 C 10.715 1.102,10.250 1.200,9.620 1.427 C 7.452 2.207,5.779 4.052,5.223 6.275 C 5.060 6.924,5.022 7.262,5.024 8.040 C 5.025 8.648,5.041 8.853,5.113 9.190 C 5.363 10.349,5.888 11.413,6.739 12.480 C 7.120 12.959,8.201 14.117,8.611 14.488 C 9.018 14.855,10.067 15.969,10.412 16.400 C 10.561 16.587,10.811 16.952,10.966 17.211 C 11.121 17.470,11.306 17.726,11.377 17.780 C 11.748 18.063,12.252 18.063,12.622 17.781 C 12.693 17.727,12.872 17.480,13.021 17.232 C 13.169 16.983,13.406 16.632,13.547 16.450 C 13.864 16.043,14.958 14.877,15.407 14.468 C 15.841 14.072,16.876 12.963,17.261 12.480 C 18.495 10.931,19.064 9.368,18.987 7.743 C 18.948 6.924,18.836 6.352,18.573 5.620 C 17.716 3.238,15.581 1.473,13.102 1.098 C 12.726 1.041,11.813 0.997,11.540 1.023 M12.552 3.043 C 14.413 3.246,16.001 4.479,16.680 6.248 C 16.814 6.596,16.913 7.033,16.963 7.500 C 17.109 8.871,16.671 10.070,15.514 11.460 C 15.331 11.680,14.586 12.463,13.858 13.200 C 13.131 13.937,12.420 14.675,12.280 14.840 C 12.139 15.005,12.014 15.140,12.000 15.140 C 11.986 15.140,11.861 15.005,11.720 14.840 C 11.580 14.675,10.869 13.937,10.142 13.200 C 8.428 11.464,7.940 10.876,7.511 10.022 C 6.994 8.995,6.874 7.880,7.161 6.760 C 7.778 4.354,10.073 2.771,12.552 3.043 M11.477 6.073 C 10.806 6.249,10.238 6.823,10.060 7.508 C 9.941 7.962,10.003 8.492,10.225 8.930 C 10.361 9.199,10.801 9.639,11.070 9.775 C 11.659 10.073,12.341 10.073,12.930 9.775 C 13.196 9.640,13.638 9.200,13.771 8.937 C 13.994 8.498,14.052 8.007,13.940 7.529 C 13.858 7.182,13.720 6.927,13.465 6.653 C 13.074 6.232,12.560 6.005,12.000 6.005 C 11.857 6.005,11.622 6.036,11.477 6.073 M4.800 13.307 C 4.650 13.336,3.931 13.685,3.511 13.933 C 2.792 14.358,2.131 14.926,1.710 15.480 C 1.476 15.789,1.193 16.358,1.094 16.720 C 0.995 17.081,0.995 17.919,1.094 18.280 C 1.193 18.642,1.476 19.211,1.711 19.520 C 2.012 19.916,2.663 20.518,3.126 20.827 C 6.380 23.002,12.599 23.640,17.480 22.299 C 19.305 21.798,20.751 21.065,21.690 20.165 C 22.189 19.687,22.437 19.363,22.661 18.900 C 22.884 18.438,22.958 18.156,22.987 17.658 C 23.044 16.690,22.645 15.771,21.814 14.951 C 21.223 14.369,20.592 13.941,19.689 13.509 C 19.309 13.327,19.230 13.304,19.000 13.304 C 18.403 13.304,17.951 13.796,18.011 14.380 C 18.057 14.825,18.230 15.014,18.896 15.348 C 19.910 15.856,20.560 16.388,20.839 16.939 C 20.959 17.175,20.978 17.250,20.978 17.500 C 20.978 17.897,20.813 18.220,20.399 18.639 C 19.003 20.048,15.617 21.000,12.000 21.000 C 8.387 21.000,5.009 20.051,3.602 18.642 C 3.189 18.227,3.022 17.900,3.022 17.500 C 3.022 17.250,3.041 17.175,3.161 16.939 C 3.440 16.388,4.090 15.856,5.104 15.348 C 5.769 15.015,5.943 14.825,5.988 14.381 C 6.044 13.847,5.639 13.358,5.099 13.306 C 4.990 13.296,4.855 13.296,4.800 13.307 " stroke="none" fill-rule="evenodd" fill="black"></path></svg>