<svg width="24" height="24" viewBox="0 0 24 24" fill="none" xmlns="http://www.w3.org/2000/svg"><path d="M11.695 1.057 C 11.466 1.129,11.256 1.299,11.128 1.516 C 11.024 1.693,11.020 1.724,11.007 2.385 L 10.994 3.069 10.758 3.094 C 9.665 3.208,8.136 3.774,7.120 4.440 C 5.723 5.357,4.668 6.544,3.940 8.020 C 3.509 8.894,3.230 9.764,3.108 10.620 L 3.056 10.980 2.398 11.002 C 2.033 11.015,1.690 11.046,1.627 11.072 C 1.026 11.326,0.817 12.065,1.198 12.591 C 1.263 12.681,1.403 12.805,1.508 12.867 C 1.693 12.976,1.724 12.981,2.378 13.000 L 3.056 13.020 3.108 13.380 C 3.317 14.835,3.993 16.377,4.960 17.604 C 5.286 18.016,5.924 18.660,6.341 18.997 C 7.556 19.976,9.148 20.681,10.620 20.892 L 10.980 20.944 11.000 21.625 C 11.020 22.298,11.022 22.309,11.141 22.503 C 11.543 23.156,12.457 23.156,12.859 22.503 C 12.978 22.309,12.980 22.298,13.000 21.625 L 13.020 20.944 13.380 20.892 C 14.851 20.681,16.445 19.975,17.657 18.998 C 19.365 17.620,20.588 15.497,20.892 13.380 L 20.944 13.020 21.622 13.000 C 22.276 12.981,22.307 12.976,22.492 12.867 C 23.210 12.445,23.141 11.397,22.373 11.072 C 22.310 11.046,21.967 11.015,21.602 11.002 L 20.944 10.980 20.892 10.620 C 20.681 9.151,19.975 7.555,19.001 6.347 C 18.448 5.661,17.658 4.951,16.880 4.440 C 15.869 3.777,14.331 3.208,13.242 3.094 L 13.006 3.069 12.993 2.385 C 12.980 1.724,12.976 1.693,12.872 1.516 C 12.628 1.101,12.150 0.915,11.695 1.057 M13.102 5.098 C 16.099 5.551,18.491 7.985,18.924 11.020 C 18.990 11.483,18.990 12.517,18.924 12.980 C 18.487 16.047,16.126 18.424,13.020 18.926 C 12.607 18.992,11.393 18.992,10.980 18.926 C 7.873 18.424,5.513 16.047,5.076 12.980 C 4.967 12.217,5.022 11.093,5.205 10.340 C 5.753 8.084,7.433 6.214,9.620 5.427 C 10.250 5.200,10.715 5.102,11.540 5.023 C 11.813 4.997,12.726 5.041,13.102 5.098 M11.358 8.061 C 10.230 8.237,9.143 8.974,8.569 9.953 C 7.320 12.083,8.233 14.785,10.512 15.704 C 12.558 16.528,14.877 15.538,15.704 13.488 C 16.090 12.530,16.090 11.469,15.705 10.516 C 15.172 9.197,14.001 8.269,12.605 8.058 C 12.144 7.989,11.816 7.990,11.358 8.061 M12.523 10.073 C 13.262 10.266,13.850 10.924,13.967 11.690 C 14.067 12.343,13.873 12.933,13.403 13.404 C 13.002 13.807,12.547 14.000,12.000 14.000 C 11.485 14.000,11.038 13.822,10.653 13.465 C 9.323 12.229,10.189 10.005,12.000 10.005 C 12.143 10.005,12.378 10.036,12.523 10.073 " stroke="none" fill-rule="evenodd" fill="black"></path></svg>