<svg width="24" height="24" viewBox="0 0 24 24" fill="none" xmlns="http://www.w3.org/2000/svg"><path d="M11.340 1.024 C 10.432 1.118,9.865 1.233,9.160 1.466 C 7.260 2.094,5.614 3.359,4.468 5.073 C 4.129 5.580,3.667 6.541,3.464 7.160 C 2.590 9.832,2.951 12.400,4.537 14.798 C 5.220 15.830,5.725 16.402,7.802 18.500 C 9.894 20.613,10.468 21.291,11.021 22.300 C 11.105 22.454,11.241 22.645,11.324 22.725 C 11.682 23.073,12.281 23.083,12.655 22.748 C 12.733 22.677,12.914 22.416,13.058 22.166 C 13.630 21.170,14.112 20.607,16.198 18.500 C 18.280 16.397,18.780 15.830,19.468 14.789 C 21.047 12.404,21.408 9.820,20.535 7.160 C 19.488 3.970,16.676 1.608,13.320 1.101 C 12.911 1.039,11.662 0.991,11.340 1.024 M13.102 3.098 C 15.844 3.513,18.135 5.623,18.795 8.340 C 19.002 9.194,19.040 10.330,18.886 11.109 C 18.627 12.426,17.951 13.672,16.742 15.060 C 16.589 15.236,15.707 16.145,14.781 17.080 C 13.345 18.531,12.658 19.272,12.110 19.962 L 12.000 20.100 11.890 19.962 C 11.342 19.272,10.655 18.531,9.219 17.080 C 8.293 16.145,7.411 15.236,7.258 15.060 C 6.048 13.670,5.377 12.434,5.113 11.109 C 5.007 10.581,4.990 9.568,5.077 9.000 C 5.469 6.422,7.200 4.298,9.620 3.427 C 10.250 3.200,10.715 3.102,11.540 3.023 C 11.813 2.997,12.726 3.041,13.102 3.098 M11.306 5.559 C 10.148 5.769,9.065 6.545,8.502 7.568 C 7.116 10.090,8.771 13.211,11.634 13.475 C 13.967 13.691,15.997 11.841,15.997 9.500 C 15.997 7.729,14.819 6.171,13.092 5.656 C 12.792 5.567,12.648 5.549,12.120 5.538 C 11.779 5.530,11.413 5.540,11.306 5.559 M12.606 7.599 C 13.756 7.954,14.322 9.291,13.785 10.379 C 13.439 11.079,12.782 11.487,12.000 11.487 C 11.217 11.487,10.563 11.082,10.218 10.383 C 9.677 9.289,10.235 7.967,11.392 7.597 C 11.712 7.495,12.273 7.496,12.606 7.599 " stroke="none" fill-rule="evenodd" fill="black"></path></svg>