<svg width="24" height="24" viewBox="0 0 24 24" fill="none" xmlns="http://www.w3.org/2000/svg"><path d="M9.686 2.040 C 9.068 2.133,8.487 2.551,8.222 3.093 C 8.015 3.516,8.001 3.687,8.001 5.928 L 8.000 7.995 5.810 8.008 C 3.643 8.021,3.617 8.022,3.365 8.113 C 2.860 8.294,2.434 8.660,2.222 9.093 C 2.014 9.518,2.001 9.681,2.001 12.000 C 2.001 14.329,2.013 14.479,2.227 14.919 C 2.366 15.205,2.795 15.634,3.081 15.773 C 3.519 15.986,3.678 15.999,5.930 15.999 L 8.000 16.000 8.001 18.070 C 8.001 20.322,8.014 20.481,8.227 20.919 C 8.366 21.205,8.795 21.634,9.081 21.773 C 9.521 21.987,9.671 21.999,12.000 21.999 C 14.334 21.999,14.483 21.987,14.919 21.771 C 15.203 21.630,15.630 21.203,15.771 20.919 C 15.986 20.485,15.999 20.327,15.999 18.070 L 16.000 16.000 18.070 15.999 C 20.327 15.999,20.485 15.986,20.919 15.771 C 21.203 15.630,21.630 15.203,21.771 14.919 C 21.987 14.483,21.999 14.334,21.999 12.000 C 21.999 9.681,21.986 9.518,21.778 9.093 C 21.566 8.660,21.140 8.294,20.635 8.113 C 20.383 8.022,20.357 8.021,18.190 8.008 L 16.000 7.995 15.999 5.928 C 15.999 3.687,15.985 3.516,15.778 3.093 C 15.566 2.660,15.140 2.294,14.635 2.113 C 14.381 2.021,14.368 2.021,12.140 2.014 C 10.908 2.011,9.804 2.022,9.686 2.040 M14.001 6.070 C 14.001 8.322,14.014 8.481,14.227 8.919 C 14.366 9.205,14.795 9.634,15.081 9.773 C 15.519 9.986,15.678 9.999,17.930 9.999 L 20.000 10.000 20.000 11.998 L 20.000 13.995 17.810 14.008 C 15.643 14.021,15.617 14.022,15.365 14.113 C 14.860 14.294,14.434 14.660,14.222 15.093 C 14.015 15.516,14.001 15.687,14.001 17.930 L 14.000 20.000 12.000 20.000 L 10.000 20.000 9.999 17.930 C 9.999 15.687,9.985 15.516,9.778 15.093 C 9.566 14.660,9.140 14.294,8.635 14.113 C 8.383 14.022,8.357 14.021,6.190 14.008 L 4.000 13.995 4.000 11.998 L 4.000 10.000 6.070 9.999 C 8.327 9.999,8.485 9.986,8.919 9.771 C 9.203 9.630,9.630 9.203,9.771 8.919 C 9.986 8.485,9.999 8.327,9.999 6.070 L 10.000 4.000 12.000 4.000 L 14.000 4.000 14.001 6.070 " stroke="none" fill-rule="evenodd" fill="black"></path></svg>