<svg width="24" height="24" viewBox="0 0 24 24" fill="none" xmlns="http://www.w3.org/2000/svg"><path d="M5.920 2.041 C 5.151 2.092,4.672 2.205,4.180 2.451 C 3.089 2.996,2.357 3.961,2.124 5.160 C 2.013 5.729,2.000 6.455,2.000 12.000 C 2.000 18.358,2.006 18.526,2.245 19.320 C 2.577 20.422,3.578 21.423,4.680 21.755 C 5.474 21.994,5.642 22.000,12.000 22.000 C 18.358 22.000,18.526 21.994,19.320 21.755 C 20.422 21.423,21.423 20.422,21.755 19.320 C 21.994 18.526,22.000 18.358,22.000 12.000 C 22.000 5.642,21.994 5.474,21.755 4.680 C 21.424 3.581,20.465 2.622,19.320 2.246 C 18.644 2.024,18.800 2.029,12.340 2.019 C 9.062 2.014,6.173 2.024,5.920 2.041 M18.492 4.091 C 18.894 4.188,19.109 4.309,19.400 4.600 C 19.696 4.895,19.814 5.109,19.912 5.528 C 19.975 5.797,19.980 6.313,19.980 12.000 C 19.980 17.687,19.975 18.203,19.912 18.472 C 19.814 18.891,19.696 19.104,19.400 19.401 C 19.101 19.701,18.820 19.851,18.418 19.928 C 18.010 20.005,5.990 20.005,5.582 19.927 C 5.170 19.850,4.898 19.704,4.600 19.403 C 4.303 19.104,4.186 18.890,4.088 18.472 C 4.025 18.203,4.020 17.687,4.020 12.000 C 4.020 6.313,4.025 5.797,4.088 5.528 C 4.175 5.155,4.294 4.918,4.520 4.667 C 4.883 4.262,5.282 4.091,5.980 4.039 C 6.200 4.023,9.044 4.013,12.300 4.018 C 17.643 4.024,18.247 4.032,18.492 4.091 M10.300 5.557 C 9.817 5.682,9.463 5.996,9.260 6.480 C 9.193 6.640,9.183 6.798,9.169 7.907 L 9.154 9.153 7.927 9.168 C 6.770 9.183,6.687 9.189,6.474 9.273 C 6.023 9.452,5.708 9.788,5.568 10.239 C 5.509 10.431,5.500 10.659,5.500 12.000 C 5.500 13.341,5.509 13.569,5.568 13.761 C 5.708 14.210,6.060 14.581,6.500 14.743 C 6.674 14.807,6.860 14.818,7.927 14.831 L 9.154 14.845 9.169 16.093 C 9.187 17.484,9.190 17.504,9.484 17.904 C 9.662 18.146,9.935 18.337,10.239 18.432 C 10.431 18.491,10.659 18.500,12.000 18.500 C 13.341 18.500,13.569 18.491,13.761 18.432 C 14.212 18.292,14.547 17.978,14.728 17.526 C 14.814 17.311,14.819 17.238,14.832 16.073 L 14.845 14.845 16.073 14.831 C 17.140 14.818,17.326 14.807,17.500 14.743 C 17.940 14.581,18.292 14.210,18.432 13.761 C 18.491 13.569,18.500 13.341,18.500 12.000 C 18.500 10.659,18.491 10.431,18.432 10.239 C 18.292 9.788,17.977 9.452,17.526 9.273 C 17.313 9.189,17.230 9.183,16.070 9.168 L 14.840 9.153 14.840 8.025 C 14.840 6.857,14.816 6.634,14.652 6.290 C 14.551 6.075,14.244 5.787,13.980 5.658 L 13.740 5.540 12.080 5.533 C 11.167 5.529,10.366 5.540,10.300 5.557 M12.840 8.672 C 12.840 9.982,12.866 10.159,13.111 10.520 C 13.197 10.646,13.354 10.803,13.480 10.889 C 13.841 11.134,14.018 11.160,15.328 11.160 L 16.480 11.160 16.480 12.000 L 16.480 12.840 15.328 12.840 C 14.031 12.840,13.847 12.866,13.490 13.102 C 13.375 13.178,13.218 13.326,13.141 13.430 C 12.875 13.794,12.867 13.846,12.842 15.240 L 12.820 16.500 12.000 16.500 L 11.180 16.500 11.158 15.240 C 11.133 13.846,11.125 13.794,10.859 13.430 C 10.782 13.326,10.625 13.178,10.510 13.102 C 10.153 12.866,9.969 12.840,8.672 12.840 L 7.520 12.840 7.520 12.000 L 7.520 11.160 8.672 11.160 C 9.982 11.160,10.159 11.134,10.520 10.889 C 10.646 10.803,10.803 10.646,10.889 10.520 C 11.134 10.159,11.160 9.982,11.160 8.672 L 11.160 7.520 12.000 7.520 L 12.840 7.520 12.840 8.672 " stroke="none" fill-rule="evenodd" fill="black"></path></svg>