<svg width="24" height="24" viewBox="0 0 24 24" fill="none" xmlns="http://www.w3.org/2000/svg"><path d="M2.695 5.057 C 2.466 5.129,2.256 5.299,2.128 5.516 C 2.037 5.672,2.020 5.746,2.020 6.000 C 2.020 6.256,2.036 6.328,2.131 6.489 C 2.256 6.702,2.449 6.864,2.670 6.943 C 2.893 7.023,21.107 7.023,21.330 6.943 C 21.551 6.864,21.744 6.702,21.869 6.489 C 21.964 6.328,21.980 6.256,21.980 6.000 C 21.980 5.746,21.963 5.672,21.872 5.516 C 21.740 5.293,21.533 5.128,21.290 5.055 C 21.027 4.976,2.947 4.978,2.695 5.057 M2.695 11.057 C 2.466 11.129,2.256 11.299,2.128 11.516 C 2.037 11.672,2.020 11.746,2.020 12.000 C 2.020 12.256,2.036 12.328,2.131 12.489 C 2.256 12.702,2.449 12.864,2.670 12.943 C 2.893 13.023,21.107 13.023,21.330 12.943 C 21.551 12.864,21.744 12.702,21.869 12.489 C 21.964 12.328,21.980 12.256,21.980 12.000 C 21.980 11.746,21.963 11.672,21.872 11.516 C 21.740 11.293,21.533 11.128,21.290 11.055 C 21.027 10.976,2.947 10.978,2.695 11.057 M2.695 17.057 C 2.466 17.129,2.256 17.299,2.128 17.516 C 2.037 17.672,2.020 17.746,2.020 18.000 C 2.020 18.256,2.036 18.328,2.131 18.489 C 2.256 18.702,2.449 18.864,2.670 18.943 C 2.793 18.987,3.938 18.996,9.000 18.996 C 14.062 18.996,15.207 18.987,15.330 18.943 C 15.551 18.864,15.744 18.702,15.869 18.489 C 15.964 18.328,15.980 18.256,15.980 18.000 C 15.980 17.746,15.963 17.672,15.872 17.516 C 15.740 17.293,15.533 17.128,15.290 17.055 C 15.028 16.976,2.947 16.978,2.695 17.057 " stroke="none" fill-rule="evenodd" fill="black"></path></svg>