<svg width="24" height="24" viewBox="0 0 24 24" fill="none" xmlns="http://www.w3.org/2000/svg"><path d="M2.600 7.584 C 2.267 7.728,2.001 8.135,2.001 8.500 C 2.001 8.886,2.304 9.318,2.665 9.445 C 2.896 9.527,21.104 9.527,21.335 9.445 C 21.696 9.318,21.999 8.886,21.999 8.500 C 21.999 8.130,21.730 7.723,21.391 7.582 C 21.258 7.527,20.261 7.520,11.991 7.522 C 3.821 7.523,2.724 7.530,2.600 7.584 M2.600 14.584 C 2.267 14.728,2.001 15.135,2.001 15.500 C 2.001 15.886,2.304 16.318,2.665 16.445 C 2.896 16.527,21.104 16.527,21.335 16.445 C 21.696 16.318,21.999 15.886,21.999 15.500 C 21.999 15.130,21.730 14.723,21.391 14.582 C 21.258 14.527,20.261 14.520,11.991 14.522 C 3.821 14.523,2.724 14.530,2.600 14.584 " stroke="none" fill-rule="evenodd" fill="black"></path></svg>