<svg width="24" height="24" viewBox="0 0 24 24" fill="none" xmlns="http://www.w3.org/2000/svg"><path d="M5.920 2.041 C 5.667 2.058,5.343 2.092,5.200 2.118 C 4.027 2.326,2.999 3.086,2.465 4.141 C 2.225 4.613,2.109 5.072,2.041 5.820 C 1.987 6.407,1.987 15.018,2.041 15.489 C 2.190 16.795,3.019 17.966,4.220 18.570 C 4.705 18.814,5.436 18.997,5.930 19.000 C 5.995 19.000,6.000 19.074,6.000 19.995 C 6.000 20.542,6.018 21.085,6.040 21.202 C 6.237 22.237,7.240 22.745,8.166 22.277 C 8.292 22.214,9.183 21.531,10.147 20.760 C 12.016 19.266,12.240 19.116,12.720 19.041 C 12.874 19.017,13.952 19.000,15.360 19.000 C 18.126 19.000,18.606 18.970,19.320 18.755 C 20.422 18.423,21.423 17.422,21.755 16.320 C 21.987 15.549,22.000 15.248,22.000 10.500 C 22.000 5.752,21.987 5.451,21.755 4.680 C 21.424 3.581,20.465 2.622,19.320 2.246 C 18.644 2.024,18.800 2.029,12.340 2.019 C 9.062 2.014,6.173 2.024,5.920 2.041 M18.492 4.091 C 18.894 4.188,19.109 4.309,19.400 4.600 C 19.696 4.895,19.814 5.109,19.912 5.528 C 19.974 5.795,19.980 6.228,19.980 10.500 C 19.980 15.608,19.986 15.472,19.752 15.952 C 19.627 16.210,19.190 16.638,18.920 16.767 C 18.516 16.961,18.432 16.966,15.360 17.000 C 12.389 17.033,12.316 17.037,11.800 17.206 C 11.177 17.410,10.986 17.539,9.272 18.905 L 8.005 19.916 7.992 18.808 L 7.980 17.700 7.872 17.516 C 7.759 17.325,7.565 17.153,7.373 17.074 C 7.310 17.048,6.888 17.014,6.420 16.997 C 5.729 16.972,5.538 16.951,5.346 16.884 C 4.772 16.682,4.366 16.284,4.128 15.690 L 4.020 15.420 4.020 10.620 C 4.020 6.234,4.026 5.795,4.088 5.528 C 4.175 5.155,4.294 4.918,4.520 4.667 C 4.883 4.262,5.282 4.091,5.980 4.039 C 6.200 4.023,9.044 4.013,12.300 4.018 C 17.643 4.024,18.247 4.032,18.492 4.091 M11.695 6.057 C 11.466 6.129,11.256 6.299,11.128 6.516 L 11.020 6.700 11.008 8.680 C 10.996 10.893,10.992 10.857,11.276 11.173 C 11.659 11.598,12.341 11.598,12.724 11.173 C 13.008 10.857,13.004 10.893,12.992 8.680 L 12.980 6.700 12.872 6.516 C 12.628 6.101,12.150 5.915,11.695 6.057 M11.695 13.055 C 11.464 13.130,11.255 13.300,11.128 13.516 C 11.037 13.672,11.020 13.746,11.020 14.000 C 11.020 14.257,11.036 14.327,11.133 14.492 C 11.651 15.374,12.998 15.018,12.998 14.000 C 12.998 13.623,12.792 13.281,12.463 13.112 C 12.265 13.010,11.911 12.984,11.695 13.055 " stroke="none" fill-rule="evenodd" fill="black"></path></svg>