<svg width="24" height="24" viewBox="0 0 24 24" fill="none" xmlns="http://www.w3.org/2000/svg"><path d="M13.360 1.025 C 11.568 1.189,10.003 1.781,8.586 2.831 C 8.061 3.220,7.182 4.103,6.774 4.651 C 5.623 6.195,5.000 8.087,5.000 10.041 L 5.000 10.583 4.785 10.689 C 3.891 11.127,2.974 11.947,2.379 12.840 C 1.642 13.945,1.282 15.135,1.279 16.480 C 1.277 17.257,1.360 17.818,1.577 18.500 L 1.678 18.820 1.336 20.360 C 1.058 21.609,0.997 21.941,1.014 22.116 C 1.054 22.518,1.356 22.859,1.771 22.967 C 1.943 23.012,2.123 22.995,3.631 22.789 L 5.300 22.562 5.680 22.682 C 6.430 22.919,6.793 22.975,7.580 22.978 C 8.645 22.981,9.287 22.845,10.260 22.412 C 11.559 21.834,12.736 20.661,13.368 19.316 L 13.510 19.012 14.265 18.988 C 15.351 18.953,16.041 18.830,17.045 18.492 L 17.470 18.349 19.305 18.620 C 21.315 18.916,21.608 18.936,21.971 18.800 C 22.292 18.680,22.635 18.356,22.776 18.041 C 22.957 17.638,22.951 17.471,22.684 15.328 L 22.444 13.396 22.565 13.068 C 22.739 12.599,22.944 11.773,23.024 11.218 C 23.118 10.573,23.118 9.427,23.024 8.782 C 22.551 5.527,20.424 2.839,17.359 1.625 C 16.826 1.414,16.004 1.194,15.400 1.102 C 14.992 1.039,13.724 0.991,13.360 1.025 M15.205 3.103 C 17.425 3.462,19.354 4.883,20.375 6.911 C 20.844 7.841,21.080 8.864,21.080 9.967 C 21.080 10.930,20.988 11.467,20.659 12.440 C 20.538 12.795,20.468 13.076,20.455 13.260 C 20.441 13.459,20.493 14.005,20.637 15.157 C 20.748 16.047,20.830 16.784,20.819 16.794 C 20.808 16.805,20.078 16.709,19.197 16.582 C 17.306 16.307,17.237 16.307,16.500 16.559 C 15.699 16.834,14.863 16.997,14.250 16.999 L 14.000 17.000 13.999 16.550 C 13.995 14.064,12.653 11.817,10.521 10.726 C 9.521 10.214,8.748 10.027,7.627 10.023 L 6.994 10.021 7.020 9.640 C 7.092 8.613,7.265 7.926,7.681 7.019 C 8.410 5.429,9.911 4.061,11.610 3.438 C 12.200 3.222,12.777 3.101,13.580 3.023 C 13.871 2.995,14.831 3.042,15.205 3.103 M8.161 12.042 C 10.003 12.268,11.485 13.669,11.903 15.580 C 12.000 16.021,12.000 16.979,11.903 17.420 C 11.624 18.696,10.896 19.733,9.821 20.386 C 9.212 20.755,8.556 20.951,7.800 20.987 C 7.248 21.013,6.802 20.946,6.161 20.738 C 5.534 20.536,5.374 20.531,4.305 20.678 C 3.801 20.747,3.368 20.798,3.342 20.792 C 3.310 20.784,3.349 20.544,3.473 20.000 C 3.711 18.955,3.717 18.657,3.512 17.978 C 3.314 17.321,3.265 16.943,3.291 16.285 C 3.334 15.217,3.697 14.300,4.400 13.483 C 5.322 12.412,6.743 11.868,8.161 12.042 " stroke="none" fill-rule="evenodd" fill="black"></path></svg>