<svg width="24" height="24" viewBox="0 0 24 24" fill="none" xmlns="http://www.w3.org/2000/svg"><path d="M5.920 2.041 C 5.667 2.058,5.343 2.092,5.200 2.118 C 4.027 2.326,2.999 3.086,2.465 4.141 C 2.225 4.613,2.109 5.072,2.041 5.820 C 1.987 6.407,1.987 15.018,2.041 15.489 C 2.190 16.795,3.019 17.966,4.220 18.570 C 4.705 18.814,5.436 18.997,5.930 19.000 C 5.995 19.000,6.000 19.074,6.000 19.995 C 6.000 20.542,6.018 21.085,6.040 21.202 C 6.237 22.237,7.240 22.745,8.166 22.277 C 8.292 22.214,9.183 21.531,10.147 20.760 C 12.016 19.266,12.240 19.116,12.720 19.041 C 12.874 19.017,13.952 19.000,15.360 19.000 C 18.126 19.000,18.606 18.970,19.320 18.755 C 20.422 18.423,21.423 17.422,21.755 16.320 C 21.987 15.549,22.000 15.248,22.000 10.500 C 22.000 5.752,21.987 5.451,21.755 4.680 C 21.424 3.581,20.465 2.622,19.320 2.246 C 18.644 2.024,18.800 2.029,12.340 2.019 C 9.062 2.014,6.173 2.024,5.920 2.041 M18.492 4.091 C 18.894 4.188,19.109 4.309,19.400 4.600 C 19.696 4.895,19.814 5.109,19.912 5.528 C 19.974 5.795,19.980 6.228,19.980 10.500 C 19.980 15.608,19.986 15.472,19.752 15.952 C 19.627 16.210,19.190 16.638,18.920 16.767 C 18.516 16.961,18.432 16.966,15.360 17.000 C 12.389 17.033,12.316 17.037,11.800 17.206 C 11.177 17.410,10.986 17.539,9.272 18.905 L 8.005 19.916 7.992 18.808 L 7.980 17.700 7.872 17.516 C 7.759 17.325,7.565 17.153,7.373 17.074 C 7.310 17.048,6.888 17.014,6.420 16.997 C 5.729 16.972,5.538 16.951,5.346 16.884 C 4.772 16.682,4.366 16.284,4.128 15.690 L 4.020 15.420 4.020 10.620 C 4.020 6.234,4.026 5.795,4.088 5.528 C 4.175 5.155,4.294 4.918,4.520 4.667 C 4.883 4.262,5.282 4.091,5.980 4.039 C 6.200 4.023,9.044 4.013,12.300 4.018 C 17.643 4.024,18.247 4.032,18.492 4.091 M9.240 7.035 C 8.784 7.184,8.512 7.546,8.512 8.003 C 8.512 8.394,8.584 8.493,9.616 9.520 C 10.135 10.037,10.560 10.478,10.560 10.500 C 10.560 10.522,10.135 10.963,9.616 11.480 C 8.954 12.139,8.648 12.472,8.592 12.595 C 8.493 12.811,8.487 13.164,8.578 13.382 C 8.723 13.730,9.126 14.000,9.500 13.999 C 9.868 13.998,9.986 13.911,11.030 12.869 L 12.000 11.901 12.970 12.869 C 14.014 13.911,14.132 13.998,14.500 13.999 C 14.874 14.000,15.277 13.730,15.422 13.382 C 15.513 13.164,15.507 12.811,15.408 12.595 C 15.352 12.472,15.046 12.139,14.384 11.480 C 13.865 10.963,13.440 10.522,13.440 10.500 C 13.440 10.478,13.865 10.037,14.384 9.520 C 15.416 8.493,15.488 8.394,15.488 8.003 C 15.488 7.615,15.293 7.296,14.940 7.108 C 14.729 6.995,14.284 6.989,14.080 7.095 C 14.003 7.135,13.503 7.602,12.970 8.134 L 12.000 9.099 11.030 8.134 C 10.497 7.602,9.999 7.137,9.924 7.100 C 9.768 7.022,9.389 6.986,9.240 7.035 " stroke="none" fill-rule="evenodd" fill="black"></path></svg>