<svg width="24" height="24" viewBox="0 0 24 24" fill="none" xmlns="http://www.w3.org/2000/svg"><path d="M17.358 2.061 C 16.230 2.237,15.146 2.972,14.569 3.953 C 14.070 4.800,13.887 5.834,14.075 6.744 C 14.360 8.118,15.241 9.191,16.502 9.700 C 17.033 9.914,17.386 9.980,18.000 9.980 C 18.384 9.980,18.631 9.959,18.854 9.906 C 20.385 9.548,21.548 8.385,21.906 6.854 C 22.008 6.422,22.008 5.578,21.906 5.146 C 21.687 4.212,21.161 3.388,20.432 2.839 C 19.866 2.412,19.274 2.159,18.605 2.058 C 18.144 1.989,17.816 1.990,17.358 2.061 M11.360 2.068 C 11.045 2.101,10.313 2.250,9.900 2.366 C 7.418 3.059,5.229 4.855,4.045 7.170 C 3.362 8.506,3.000 9.997,3.000 11.480 C 3.000 12.417,3.131 13.279,3.426 14.287 L 3.609 14.914 2.599 16.782 C 2.043 17.810,1.547 18.769,1.495 18.915 C 1.267 19.563,1.476 20.247,2.016 20.619 C 2.275 20.797,2.569 20.879,2.956 20.880 C 3.119 20.880,4.469 20.754,5.956 20.600 C 7.443 20.446,8.723 20.318,8.800 20.315 C 8.877 20.312,9.154 20.385,9.417 20.477 C 10.511 20.862,11.248 20.979,12.540 20.976 C 13.392 20.973,13.565 20.961,14.080 20.869 C 16.067 20.511,17.694 19.682,19.115 18.301 C 20.646 16.814,21.593 14.959,21.902 12.840 C 21.985 12.273,21.963 12.011,21.811 11.766 C 21.508 11.275,20.862 11.142,20.384 11.471 C 20.150 11.633,20.043 11.825,19.976 12.206 C 19.742 13.528,19.677 13.773,19.376 14.469 C 18.977 15.391,18.545 16.014,17.760 16.802 C 17.311 17.252,17.071 17.456,16.700 17.704 C 15.748 18.338,14.722 18.741,13.580 18.926 C 13.163 18.993,11.837 18.993,11.420 18.926 C 10.946 18.849,10.407 18.706,9.801 18.498 C 9.334 18.337,9.219 18.312,8.941 18.312 C 8.765 18.312,7.543 18.424,6.228 18.560 C 4.912 18.697,3.828 18.801,3.818 18.792 C 3.809 18.782,4.170 18.092,4.621 17.257 C 5.102 16.367,5.476 15.627,5.525 15.467 C 5.652 15.055,5.617 14.613,5.403 13.920 C 5.187 13.222,5.096 12.777,5.038 12.138 C 4.884 10.441,5.325 8.755,6.308 7.285 C 6.748 6.626,7.640 5.733,8.280 5.309 C 9.313 4.626,10.245 4.268,11.484 4.078 C 12.049 3.991,12.230 3.921,12.426 3.714 C 12.627 3.499,12.695 3.330,12.695 3.040 C 12.694 2.735,12.608 2.538,12.373 2.312 C 12.128 2.075,11.874 2.013,11.360 2.068 M18.523 4.073 C 19.262 4.266,19.850 4.924,19.967 5.690 C 20.213 7.300,18.534 8.517,17.083 7.781 C 16.628 7.551,16.203 7.022,16.073 6.523 C 15.683 5.028,17.028 3.683,18.523 4.073 " stroke="none" fill-rule="evenodd" fill="black"></path></svg>