<svg width="24" height="24" viewBox="0 0 24 24" fill="none" xmlns="http://www.w3.org/2000/svg"><path d="M11.600 2.046 C 9.478 2.240,7.460 3.173,5.905 4.680 C 4.596 5.948,3.713 7.471,3.284 9.200 C 3.109 9.904,3.041 10.399,3.013 11.160 C 2.974 12.250,3.092 13.146,3.426 14.287 L 3.609 14.914 2.599 16.782 C 2.043 17.810,1.547 18.769,1.495 18.915 C 1.267 19.563,1.476 20.247,2.016 20.619 C 2.275 20.797,2.569 20.879,2.956 20.880 C 3.119 20.880,4.469 20.754,5.956 20.600 C 7.443 20.446,8.723 20.318,8.800 20.315 C 8.877 20.312,9.155 20.385,9.418 20.477 C 10.939 21.012,12.662 21.141,14.249 20.838 C 17.546 20.210,20.259 17.912,21.414 14.770 C 22.568 11.633,21.992 8.146,19.892 5.539 C 19.490 5.040,18.730 4.304,18.231 3.928 C 16.324 2.495,13.976 1.828,11.600 2.046 M13.223 4.043 C 14.965 4.217,16.563 4.972,17.795 6.205 C 19.807 8.216,20.506 11.181,19.604 13.877 C 18.948 15.840,17.455 17.492,15.580 18.331 C 15.037 18.574,14.383 18.780,13.814 18.887 C 13.425 18.960,13.196 18.976,12.540 18.977 C 11.459 18.979,10.927 18.886,9.801 18.498 C 9.334 18.337,9.219 18.312,8.941 18.312 C 8.765 18.312,7.543 18.424,6.228 18.560 C 4.912 18.697,3.828 18.801,3.818 18.792 C 3.809 18.782,4.170 18.092,4.621 17.257 C 5.102 16.367,5.476 15.627,5.525 15.467 C 5.652 15.055,5.617 14.613,5.403 13.920 C 5.177 13.188,5.086 12.730,5.031 12.031 C 4.862 9.881,5.656 7.754,7.205 6.205 C 8.795 4.614,11.000 3.822,13.223 4.043 M7.600 8.584 C 7.267 8.728,7.001 9.135,7.001 9.500 C 7.001 9.886,7.304 10.318,7.665 10.445 C 7.892 10.526,12.108 10.526,12.335 10.445 C 12.696 10.318,12.999 9.886,12.999 9.500 C 12.999 9.128,12.725 8.721,12.374 8.575 C 12.170 8.490,7.799 8.497,7.600 8.584 M7.695 12.057 C 7.466 12.129,7.256 12.299,7.128 12.516 C 7.037 12.672,7.020 12.746,7.020 13.000 C 7.020 13.256,7.036 13.328,7.131 13.489 C 7.256 13.702,7.449 13.864,7.670 13.943 C 7.791 13.986,8.528 13.997,11.483 13.998 C 15.610 14.000,15.377 14.017,15.697 13.697 C 16.098 13.296,16.097 12.703,15.694 12.300 C 15.379 11.985,15.580 12.000,11.483 12.003 C 8.638 12.005,7.824 12.016,7.695 12.057 " stroke="none" fill-rule="evenodd" fill="black"></path></svg>