<svg width="24" height="24" viewBox="0 0 24 24" fill="none" xmlns="http://www.w3.org/2000/svg"><path d="M11.080 2.045 C 9.507 2.184,7.883 2.751,6.540 3.630 C 5.905 4.045,5.499 4.378,4.919 4.958 C 2.953 6.926,1.919 9.544,2.013 12.320 C 2.051 13.437,2.237 14.402,2.616 15.447 C 2.717 15.726,2.800 15.992,2.800 16.039 C 2.800 16.085,2.646 17.045,2.457 18.171 C 2.065 20.512,2.058 20.615,2.274 21.054 C 2.510 21.534,2.967 21.838,3.498 21.870 C 3.722 21.883,4.203 21.816,5.829 21.543 C 6.955 21.354,7.915 21.200,7.961 21.200 C 8.008 21.200,8.274 21.283,8.553 21.384 C 9.171 21.608,9.938 21.805,10.580 21.904 C 11.249 22.007,12.746 22.009,13.400 21.907 C 15.638 21.557,17.504 20.620,19.062 19.062 C 20.620 17.504,21.557 15.638,21.907 13.400 C 22.008 12.753,22.008 11.247,21.907 10.600 C 21.624 8.786,20.959 7.238,19.847 5.800 C 19.510 5.365,18.639 4.494,18.200 4.154 C 16.133 2.555,13.646 1.818,11.080 2.045 M12.734 4.041 C 14.574 4.216,16.228 4.976,17.554 6.256 C 20.043 8.658,20.702 12.394,19.183 15.499 C 17.957 18.008,15.585 19.661,12.780 19.963 C 12.255 20.019,11.257 19.990,10.740 19.903 C 10.199 19.813,9.663 19.664,9.051 19.435 C 8.216 19.122,8.184 19.123,6.027 19.482 C 5.066 19.642,4.268 19.761,4.253 19.747 C 4.239 19.732,4.359 18.933,4.521 17.970 C 4.868 15.897,4.873 15.802,4.659 15.220 C 4.241 14.085,4.105 13.511,4.030 12.570 C 3.921 11.195,4.198 9.758,4.816 8.500 C 6.162 5.760,8.867 4.049,11.920 4.005 C 12.129 4.003,12.495 4.019,12.734 4.041 M7.600 8.584 C 7.267 8.728,7.001 9.135,7.001 9.500 C 7.001 9.886,7.304 10.318,7.665 10.445 C 7.892 10.526,12.108 10.526,12.335 10.445 C 12.696 10.318,12.999 9.886,12.999 9.500 C 12.999 9.130,12.730 8.723,12.391 8.582 C 12.171 8.490,7.813 8.492,7.600 8.584 M7.695 12.057 C 7.466 12.129,7.256 12.299,7.128 12.516 C 7.037 12.672,7.020 12.746,7.020 13.000 C 7.020 13.256,7.036 13.328,7.131 13.489 C 7.256 13.702,7.449 13.864,7.670 13.943 C 7.891 14.022,15.109 14.022,15.330 13.943 C 15.551 13.864,15.744 13.702,15.869 13.489 C 15.964 13.328,15.980 13.256,15.980 13.000 C 15.980 12.746,15.963 12.672,15.872 12.516 C 15.740 12.293,15.533 12.128,15.290 12.055 C 15.030 11.977,7.945 11.979,7.695 12.057 " stroke="none" fill-rule="evenodd" fill="black"></path></svg>