<svg width="24" height="24" viewBox="0 0 24 24" fill="none" xmlns="http://www.w3.org/2000/svg"><path d="M5.920 2.041 C 5.667 2.058,5.343 2.092,5.200 2.118 C 4.027 2.326,2.999 3.086,2.465 4.141 C 2.225 4.613,2.109 5.072,2.041 5.820 C 1.987 6.407,1.987 15.018,2.041 15.489 C 2.190 16.795,3.019 17.966,4.220 18.570 C 4.705 18.814,5.436 18.997,5.930 19.000 C 5.995 19.000,6.000 19.074,6.000 19.995 C 6.000 20.542,6.018 21.085,6.040 21.202 C 6.237 22.237,7.240 22.745,8.166 22.277 C 8.292 22.214,9.183 21.531,10.147 20.760 C 12.016 19.266,12.240 19.116,12.720 19.041 C 12.874 19.017,13.952 19.000,15.360 19.000 C 18.126 19.000,18.606 18.970,19.320 18.755 C 20.422 18.423,21.423 17.422,21.755 16.320 C 21.987 15.549,22.000 15.248,22.000 10.500 C 22.000 5.752,21.987 5.451,21.755 4.680 C 21.424 3.581,20.465 2.622,19.320 2.246 C 18.644 2.024,18.800 2.029,12.340 2.019 C 9.062 2.014,6.173 2.024,5.920 2.041 M18.492 4.091 C 18.894 4.188,19.109 4.309,19.400 4.600 C 19.696 4.895,19.814 5.109,19.912 5.528 C 19.974 5.795,19.980 6.228,19.980 10.500 C 19.980 15.608,19.986 15.472,19.752 15.952 C 19.627 16.210,19.190 16.638,18.920 16.767 C 18.516 16.961,18.432 16.966,15.360 17.000 C 12.389 17.033,12.316 17.037,11.800 17.206 C 11.177 17.410,10.986 17.539,9.272 18.905 L 8.005 19.916 7.992 18.808 L 7.980 17.700 7.872 17.516 C 7.759 17.325,7.565 17.153,7.373 17.074 C 7.310 17.048,6.888 17.014,6.420 16.997 C 5.729 16.972,5.538 16.951,5.346 16.884 C 4.772 16.682,4.366 16.284,4.128 15.690 L 4.020 15.420 4.020 10.620 C 4.020 6.234,4.026 5.795,4.088 5.528 C 4.175 5.155,4.294 4.918,4.520 4.667 C 4.883 4.262,5.282 4.091,5.980 4.039 C 6.200 4.023,9.044 4.013,12.300 4.018 C 17.643 4.024,18.247 4.032,18.492 4.091 M8.934 6.042 C 8.519 6.124,8.070 6.481,7.883 6.880 C 7.794 7.071,7.780 7.153,7.780 7.500 C 7.780 7.827,7.796 7.935,7.867 8.089 C 8.332 9.095,9.616 9.306,10.354 8.499 C 10.623 8.204,10.731 7.918,10.731 7.500 C 10.731 7.094,10.624 6.799,10.373 6.521 C 9.997 6.103,9.486 5.932,8.934 6.042 M14.375 6.054 C 13.933 6.167,13.518 6.533,13.356 6.952 C 13.235 7.267,13.235 7.733,13.357 8.050 C 13.479 8.365,13.778 8.685,14.103 8.844 C 14.857 9.215,15.769 8.876,16.133 8.089 C 16.204 7.935,16.220 7.827,16.220 7.500 C 16.220 7.153,16.206 7.071,16.117 6.880 C 15.821 6.249,15.048 5.883,14.375 6.054 M8.122 11.583 C 7.730 11.753,7.510 12.085,7.513 12.503 C 7.515 12.932,7.743 13.248,8.417 13.758 C 10.609 15.415,13.391 15.415,15.583 13.758 C 16.257 13.248,16.485 12.932,16.487 12.503 C 16.491 11.930,16.070 11.520,15.480 11.520 C 15.174 11.520,14.984 11.613,14.661 11.919 C 14.196 12.360,13.561 12.713,12.920 12.886 C 12.431 13.019,11.569 13.019,11.080 12.886 C 10.436 12.712,9.804 12.360,9.333 11.913 C 9.197 11.784,9.008 11.643,8.913 11.600 C 8.703 11.505,8.320 11.497,8.122 11.583 " stroke="none" fill-rule="evenodd" fill="black"></path></svg>