<svg width="24" height="24" viewBox="0 0 24 24" fill="none" xmlns="http://www.w3.org/2000/svg"><path d="M11.600 2.046 C 9.478 2.240,7.460 3.173,5.905 4.680 C 4.596 5.948,3.713 7.471,3.284 9.200 C 3.109 9.904,3.041 10.399,3.013 11.160 C 2.974 12.250,3.092 13.146,3.426 14.287 L 3.609 14.914 2.599 16.782 C 2.043 17.810,1.547 18.769,1.495 18.915 C 1.267 19.563,1.476 20.247,2.016 20.619 C 2.275 20.797,2.569 20.879,2.956 20.880 C 3.119 20.880,4.469 20.754,5.956 20.600 C 7.443 20.446,8.723 20.318,8.800 20.315 C 8.877 20.312,9.155 20.385,9.418 20.477 C 10.939 21.012,12.662 21.141,14.249 20.838 C 17.546 20.210,20.259 17.912,21.414 14.770 C 22.568 11.633,21.992 8.146,19.892 5.539 C 19.490 5.040,18.730 4.304,18.231 3.928 C 16.324 2.495,13.976 1.828,11.600 2.046 M13.223 4.043 C 14.965 4.217,16.563 4.972,17.795 6.205 C 19.807 8.216,20.506 11.181,19.604 13.877 C 18.948 15.840,17.455 17.492,15.580 18.331 C 15.037 18.574,14.383 18.780,13.814 18.887 C 13.425 18.960,13.196 18.976,12.540 18.977 C 11.459 18.979,10.927 18.886,9.801 18.498 C 9.334 18.337,9.219 18.312,8.941 18.312 C 8.765 18.312,7.543 18.424,6.228 18.560 C 4.912 18.697,3.828 18.801,3.818 18.792 C 3.809 18.782,4.170 18.092,4.621 17.257 C 5.102 16.367,5.476 15.627,5.525 15.467 C 5.652 15.055,5.617 14.613,5.403 13.920 C 5.177 13.188,5.086 12.730,5.031 12.031 C 4.862 9.881,5.656 7.754,7.205 6.205 C 8.795 4.614,11.000 3.822,13.223 4.043 M9.670 8.061 C 9.448 8.142,9.250 8.309,9.128 8.516 C 9.037 8.672,9.020 8.746,9.020 9.000 C 9.020 9.254,9.036 9.328,9.127 9.480 C 9.186 9.579,9.650 10.074,10.157 10.579 L 11.079 11.499 10.124 12.459 C 9.599 12.988,9.138 13.481,9.101 13.555 C 8.872 14.009,9.056 14.601,9.508 14.867 C 9.673 14.964,9.742 14.980,10.000 14.979 C 10.214 14.979,10.340 14.957,10.440 14.904 C 10.517 14.863,11.012 14.400,11.541 13.876 L 12.502 12.921 13.421 13.843 C 13.926 14.350,14.416 14.810,14.508 14.865 C 14.882 15.088,15.376 15.018,15.696 14.698 C 15.983 14.411,16.065 14.049,15.934 13.657 C 15.876 13.486,15.738 13.330,14.896 12.480 L 13.924 11.500 14.896 10.520 C 15.738 9.671,15.876 9.514,15.934 9.343 C 16.066 8.950,15.983 8.589,15.694 8.300 C 15.414 8.020,15.043 7.936,14.657 8.066 C 14.486 8.124,14.330 8.262,13.480 9.104 L 12.500 10.076 11.520 9.102 C 10.607 8.196,10.524 8.124,10.322 8.064 C 10.063 7.987,9.873 7.986,9.670 8.061 " stroke="none" fill-rule="evenodd" fill="black"></path></svg>