<svg width="24" height="24" viewBox="0 0 24 24" fill="none" xmlns="http://www.w3.org/2000/svg"><path d="M4.920 1.041 C 4.151 1.092,3.672 1.205,3.180 1.451 C 2.089 1.996,1.357 2.961,1.124 4.160 C 1.019 4.698,1.000 5.417,1.000 8.785 C 1.000 12.640,1.001 12.665,1.237 13.349 C 1.467 14.019,1.921 14.650,2.518 15.130 C 3.051 15.558,3.480 15.746,4.447 15.975 L 4.554 16.000 4.570 17.290 C 4.584 18.509,4.590 18.594,4.675 18.828 C 4.886 19.405,5.435 19.772,6.088 19.772 C 6.322 19.772,6.405 19.750,6.670 19.621 C 6.956 19.482,7.057 19.394,7.984 18.461 L 8.989 17.452 9.016 17.899 C 9.074 18.870,9.332 19.491,9.916 20.063 C 10.187 20.328,10.542 20.557,10.877 20.683 C 11.386 20.875,11.550 20.888,13.660 20.915 C 15.522 20.938,15.670 20.945,15.800 21.016 C 15.877 21.058,16.519 21.495,17.228 21.988 C 17.964 22.500,18.595 22.910,18.702 22.947 C 19.075 23.074,19.545 22.932,19.783 22.619 C 19.966 22.380,19.996 22.229,19.998 21.555 C 20.000 20.858,19.989 20.883,20.300 20.880 C 20.562 20.877,20.998 20.753,21.340 20.583 C 22.125 20.194,22.645 19.560,22.891 18.690 C 22.978 18.384,22.979 18.342,22.979 15.520 C 22.980 12.872,22.974 12.636,22.906 12.340 C 22.806 11.912,22.685 11.621,22.477 11.315 C 21.972 10.570,21.215 10.131,20.303 10.054 L 20.000 10.028 20.000 7.644 C 20.000 4.875,19.970 4.394,19.755 3.680 C 19.424 2.581,18.465 1.622,17.320 1.246 C 16.650 1.026,16.750 1.029,10.840 1.019 C 7.837 1.014,5.173 1.024,4.920 1.041 M16.492 3.091 C 16.642 3.127,16.849 3.198,16.952 3.248 C 17.194 3.366,17.634 3.806,17.752 4.048 C 17.961 4.478,17.969 4.583,17.989 7.390 L 18.008 10.000 15.134 10.000 C 11.638 10.000,11.264 10.027,10.671 10.321 C 9.849 10.729,9.303 11.420,9.096 12.311 C 9.053 12.498,9.027 12.886,9.012 13.584 L 8.991 14.588 7.777 15.824 L 6.564 17.060 6.562 16.432 C 6.561 16.087,6.540 15.709,6.516 15.592 C 6.347 14.785,5.666 14.173,4.720 13.981 C 4.226 13.880,3.910 13.717,3.599 13.404 C 3.291 13.093,3.110 12.749,3.040 12.340 C 3.005 12.131,2.997 11.132,3.010 8.420 C 3.025 5.247,3.036 4.745,3.092 4.508 C 3.176 4.153,3.298 3.914,3.520 3.667 C 3.883 3.262,4.281 3.091,4.980 3.039 C 5.200 3.023,7.819 3.013,10.800 3.018 C 15.672 3.025,16.248 3.032,16.492 3.091 M20.374 12.075 C 20.585 12.145,20.862 12.431,20.928 12.646 C 20.969 12.782,20.980 13.403,20.980 15.500 L 20.980 18.180 20.862 18.394 C 20.623 18.825,20.358 18.915,19.309 18.918 C 18.944 18.919,18.756 18.937,18.651 18.981 C 18.276 19.138,18.046 19.445,18.011 19.837 L 17.989 20.075 17.437 19.699 C 16.790 19.260,16.592 19.154,16.194 19.034 C 15.913 18.950,15.809 18.946,13.840 18.923 L 11.780 18.900 11.550 18.787 C 11.219 18.624,11.088 18.421,11.039 17.990 C 10.989 17.557,10.989 13.358,11.039 12.923 C 11.103 12.366,11.350 12.103,11.866 12.041 C 12.017 12.023,13.958 12.012,16.180 12.016 C 19.341 12.022,20.254 12.035,20.374 12.075 " stroke="none" fill-rule="evenodd" fill="black"></path></svg>