<svg width="24" height="24" viewBox="0 0 24 24" fill="none" xmlns="http://www.w3.org/2000/svg"><path d="M11.600 2.046 C 9.478 2.240,7.460 3.173,5.905 4.680 C 4.596 5.948,3.713 7.471,3.284 9.200 C 3.109 9.904,3.041 10.399,3.013 11.160 C 2.974 12.250,3.092 13.146,3.426 14.287 L 3.609 14.914 2.599 16.782 C 2.043 17.810,1.547 18.769,1.495 18.915 C 1.267 19.563,1.476 20.247,2.016 20.619 C 2.275 20.797,2.569 20.879,2.956 20.880 C 3.119 20.880,4.469 20.754,5.956 20.600 C 7.443 20.446,8.723 20.318,8.800 20.315 C 8.877 20.312,9.155 20.385,9.418 20.477 C 10.939 21.012,12.662 21.141,14.249 20.838 C 17.546 20.210,20.259 17.912,21.414 14.770 C 22.568 11.633,21.992 8.146,19.892 5.539 C 19.490 5.040,18.730 4.304,18.231 3.928 C 16.324 2.495,13.976 1.828,11.600 2.046 M13.223 4.043 C 14.965 4.217,16.563 4.972,17.795 6.205 C 19.807 8.216,20.506 11.181,19.604 13.877 C 18.948 15.840,17.455 17.492,15.580 18.331 C 15.037 18.574,14.383 18.780,13.814 18.887 C 13.425 18.960,13.196 18.976,12.540 18.977 C 11.459 18.979,10.927 18.886,9.801 18.498 C 9.334 18.337,9.219 18.312,8.941 18.312 C 8.765 18.312,7.543 18.424,6.228 18.560 C 4.912 18.697,3.828 18.801,3.818 18.792 C 3.809 18.782,4.170 18.092,4.621 17.257 C 5.102 16.367,5.476 15.627,5.525 15.467 C 5.652 15.055,5.617 14.613,5.403 13.920 C 5.177 13.188,5.086 12.730,5.031 12.031 C 4.862 9.881,5.656 7.754,7.205 6.205 C 8.795 4.614,11.000 3.822,13.223 4.043 M9.194 7.613 C 8.702 7.820,8.384 8.215,8.279 8.751 C 8.122 9.548,8.721 10.366,9.544 10.477 C 10.190 10.565,10.798 10.238,11.089 9.648 C 11.209 9.404,11.220 9.350,11.220 9.001 C 11.220 8.672,11.205 8.589,11.114 8.393 C 10.971 8.089,10.733 7.840,10.430 7.677 C 10.205 7.557,10.142 7.542,9.800 7.530 C 9.472 7.519,9.389 7.530,9.194 7.613 M14.804 7.565 C 14.606 7.624,14.281 7.843,14.124 8.021 C 14.049 8.107,13.941 8.276,13.884 8.398 C 13.795 8.588,13.780 8.674,13.780 9.000 C 13.780 9.329,13.795 9.411,13.887 9.609 C 14.333 10.560,15.562 10.792,16.292 10.062 C 16.897 9.457,16.897 8.543,16.292 7.938 C 16.005 7.651,15.740 7.543,15.300 7.532 C 15.102 7.527,14.879 7.542,14.804 7.565 M8.665 13.059 C 8.261 13.203,8.020 13.562,8.020 14.019 C 8.020 14.253,8.038 14.331,8.130 14.486 C 8.374 14.902,9.216 15.541,10.040 15.936 C 10.847 16.322,11.565 16.484,12.480 16.487 C 13.408 16.489,14.148 16.325,14.960 15.936 C 15.774 15.545,16.627 14.902,16.863 14.498 C 17.217 13.895,16.819 13.095,16.125 13.013 C 15.780 12.972,15.535 13.077,15.148 13.430 C 14.370 14.140,13.492 14.489,12.480 14.489 C 11.498 14.489,10.615 14.132,9.838 13.419 C 9.405 13.021,9.065 12.916,8.665 13.059 " stroke="none" fill-rule="evenodd" fill="black"></path></svg>