<svg width="24" height="24" viewBox="0 0 24 24" fill="none" xmlns="http://www.w3.org/2000/svg"><path d="M5.920 2.041 C 5.667 2.058,5.343 2.092,5.200 2.118 C 4.027 2.326,2.999 3.086,2.465 4.141 C 2.225 4.613,2.109 5.072,2.041 5.820 C 1.987 6.407,1.987 15.018,2.041 15.489 C 2.190 16.795,3.019 17.966,4.220 18.570 C 4.705 18.814,5.436 18.997,5.930 19.000 C 5.995 19.000,6.000 19.074,6.000 19.995 C 6.000 20.542,6.018 21.085,6.040 21.202 C 6.237 22.237,7.240 22.745,8.166 22.277 C 8.292 22.214,9.183 21.531,10.147 20.760 C 12.016 19.266,12.240 19.116,12.720 19.041 C 12.874 19.017,13.952 19.000,15.360 19.000 C 18.126 19.000,18.606 18.970,19.320 18.755 C 20.422 18.423,21.423 17.422,21.755 16.320 C 21.987 15.549,22.000 15.248,22.000 10.500 C 22.000 5.752,21.987 5.451,21.755 4.680 C 21.424 3.581,20.465 2.622,19.320 2.246 C 18.644 2.024,18.800 2.029,12.340 2.019 C 9.062 2.014,6.173 2.024,5.920 2.041 M18.492 4.091 C 18.894 4.188,19.109 4.309,19.400 4.600 C 19.696 4.895,19.814 5.109,19.912 5.528 C 19.974 5.795,19.980 6.228,19.980 10.500 C 19.980 15.608,19.986 15.472,19.752 15.952 C 19.627 16.210,19.190 16.638,18.920 16.767 C 18.516 16.961,18.432 16.966,15.360 17.000 C 12.389 17.033,12.316 17.037,11.800 17.206 C 11.177 17.410,10.986 17.539,9.272 18.905 L 8.005 19.916 7.992 18.808 L 7.980 17.700 7.872 17.516 C 7.759 17.325,7.565 17.153,7.373 17.074 C 7.310 17.048,6.888 17.014,6.420 16.997 C 5.729 16.972,5.538 16.951,5.346 16.884 C 4.772 16.682,4.366 16.284,4.128 15.690 L 4.020 15.420 4.020 10.620 C 4.020 6.234,4.026 5.795,4.088 5.528 C 4.175 5.155,4.294 4.918,4.520 4.667 C 4.883 4.262,5.282 4.091,5.980 4.039 C 6.200 4.023,9.044 4.013,12.300 4.018 C 17.643 4.024,18.247 4.032,18.492 4.091 M7.174 9.039 C 6.750 9.129,6.329 9.477,6.132 9.900 C 6.035 10.107,6.020 10.190,6.020 10.500 C 6.020 10.811,6.035 10.894,6.133 11.104 C 6.276 11.413,6.585 11.721,6.900 11.868 C 7.107 11.965,7.190 11.980,7.500 11.980 C 7.810 11.980,7.893 11.965,8.100 11.868 C 8.415 11.721,8.724 11.413,8.867 11.104 C 8.965 10.894,8.980 10.811,8.980 10.500 C 8.980 10.189,8.965 10.106,8.867 9.896 C 8.727 9.592,8.415 9.278,8.119 9.143 C 7.870 9.030,7.441 8.982,7.174 9.039 M11.637 9.055 C 10.808 9.233,10.294 10.202,10.599 11.010 C 10.759 11.435,11.144 11.812,11.538 11.930 C 11.747 11.992,12.253 11.992,12.462 11.930 C 12.855 11.812,13.242 11.434,13.399 11.013 C 13.707 10.190,13.190 9.230,12.344 9.053 C 12.051 8.991,11.930 8.992,11.637 9.055 M16.174 9.039 C 15.750 9.129,15.329 9.477,15.132 9.900 C 15.035 10.107,15.020 10.190,15.020 10.500 C 15.020 10.811,15.035 10.894,15.133 11.104 C 15.276 11.413,15.585 11.721,15.900 11.868 C 16.107 11.965,16.190 11.980,16.500 11.980 C 16.810 11.980,16.893 11.965,17.100 11.868 C 17.415 11.721,17.724 11.413,17.867 11.104 C 17.965 10.894,17.980 10.811,17.980 10.500 C 17.980 10.189,17.965 10.106,17.867 9.896 C 17.727 9.592,17.415 9.278,17.119 9.143 C 16.870 9.030,16.441 8.982,16.174 9.039 " stroke="none" fill-rule="evenodd" fill="black"></path></svg>