<svg width="24" height="24" viewBox="0 0 24 24" fill="none" xmlns="http://www.w3.org/2000/svg"><path d="M5.920 2.041 C 5.667 2.058,5.343 2.092,5.200 2.118 C 4.027 2.326,2.999 3.086,2.465 4.141 C 2.225 4.613,2.109 5.072,2.041 5.820 C 1.987 6.407,1.987 15.018,2.041 15.489 C 2.190 16.795,3.019 17.966,4.220 18.570 C 4.705 18.814,5.436 18.997,5.930 19.000 C 5.995 19.000,6.000 19.074,6.000 19.995 C 6.000 20.542,6.018 21.085,6.040 21.202 C 6.237 22.237,7.240 22.745,8.166 22.277 C 8.292 22.214,9.183 21.531,10.147 20.760 C 12.016 19.266,12.240 19.116,12.720 19.041 C 12.874 19.017,13.952 19.000,15.360 19.000 C 18.126 19.000,18.606 18.970,19.320 18.755 C 20.422 18.423,21.423 17.422,21.755 16.320 C 21.987 15.549,22.000 15.248,22.000 10.500 C 22.000 5.752,21.987 5.451,21.755 4.680 C 21.424 3.581,20.465 2.622,19.320 2.246 C 18.644 2.024,18.800 2.029,12.340 2.019 C 9.062 2.014,6.173 2.024,5.920 2.041 M18.492 4.091 C 18.894 4.188,19.109 4.309,19.400 4.600 C 19.696 4.895,19.814 5.109,19.912 5.528 C 19.974 5.795,19.980 6.228,19.980 10.500 C 19.980 15.608,19.986 15.472,19.752 15.952 C 19.627 16.210,19.190 16.638,18.920 16.767 C 18.516 16.961,18.432 16.966,15.360 17.000 C 12.389 17.033,12.316 17.037,11.800 17.206 C 11.177 17.410,10.986 17.539,9.272 18.905 L 8.005 19.916 7.992 18.808 L 7.980 17.700 7.872 17.516 C 7.759 17.325,7.565 17.153,7.373 17.074 C 7.310 17.048,6.888 17.014,6.420 16.997 C 5.729 16.972,5.538 16.951,5.346 16.884 C 4.772 16.682,4.366 16.284,4.128 15.690 L 4.020 15.420 4.020 10.620 C 4.020 6.234,4.026 5.795,4.088 5.528 C 4.175 5.155,4.294 4.918,4.520 4.667 C 4.883 4.262,5.282 4.091,5.980 4.039 C 6.200 4.023,9.044 4.013,12.300 4.018 C 17.643 4.024,18.247 4.032,18.492 4.091 M11.320 5.600 C 10.291 5.873,9.407 6.670,9.080 7.619 C 8.984 7.898,8.979 8.090,9.061 8.322 C 9.244 8.842,9.791 9.116,10.306 8.945 C 10.608 8.844,10.772 8.683,10.959 8.302 C 11.145 7.924,11.305 7.759,11.632 7.609 C 11.820 7.523,11.890 7.513,12.175 7.528 C 12.439 7.541,12.542 7.567,12.715 7.661 C 13.089 7.865,13.322 8.224,13.349 8.640 C 13.365 8.876,13.356 8.917,13.246 9.087 C 13.039 9.409,12.541 9.752,11.920 10.003 C 11.391 10.217,11.120 10.554,11.120 11.000 C 11.120 11.531,11.593 12.000,12.127 12.000 C 12.445 12.000,13.210 11.661,13.806 11.256 C 14.617 10.706,15.080 10.117,15.283 9.380 C 15.356 9.112,15.366 8.994,15.349 8.602 C 15.325 8.042,15.256 7.772,15.020 7.300 C 14.703 6.668,14.160 6.131,13.540 5.835 C 13.059 5.605,12.815 5.552,12.180 5.535 C 11.715 5.523,11.569 5.534,11.320 5.600 M11.880 13.037 C 11.020 13.299,10.902 14.479,11.695 14.887 C 11.890 14.987,12.211 15.022,12.421 14.965 C 12.648 14.904,12.903 14.704,13.031 14.486 C 13.124 14.328,13.140 14.255,13.140 14.000 C 13.140 13.746,13.123 13.672,13.032 13.516 C 12.801 13.123,12.293 12.912,11.880 13.037 " stroke="none" fill-rule="evenodd" fill="black"></path></svg>