<svg width="24" height="24" viewBox="0 0 24 24" fill="none" xmlns="http://www.w3.org/2000/svg"><path d="M17.358 2.061 C 16.241 2.235,15.156 2.965,14.579 3.932 C 14.384 4.258,14.185 4.756,14.094 5.146 C 13.992 5.578,13.992 6.422,14.094 6.854 C 14.452 8.385,15.615 9.548,17.146 9.906 C 17.578 10.008,18.422 10.008,18.854 9.906 C 20.385 9.548,21.548 8.385,21.906 6.854 C 22.008 6.422,22.008 5.578,21.906 5.146 C 21.687 4.212,21.161 3.388,20.432 2.839 C 19.866 2.412,19.274 2.159,18.605 2.058 C 18.144 1.989,17.816 1.990,17.358 2.061 M5.920 3.042 C 5.667 3.058,5.343 3.092,5.200 3.118 C 4.027 3.326,2.999 4.086,2.465 5.141 C 2.225 5.613,2.109 6.072,2.041 6.820 C 1.987 7.404,1.987 15.020,2.041 15.489 C 2.190 16.795,3.019 17.966,4.220 18.570 C 4.705 18.814,5.436 18.997,5.930 19.000 C 5.995 19.000,6.000 19.074,6.000 19.995 C 6.000 20.542,6.018 21.085,6.040 21.202 C 6.237 22.237,7.240 22.745,8.166 22.277 C 8.292 22.214,9.183 21.531,10.147 20.760 C 12.016 19.266,12.240 19.116,12.720 19.041 C 12.868 19.018,13.789 19.000,14.860 19.000 C 17.109 19.000,17.630 18.963,18.320 18.755 C 19.228 18.482,20.085 17.749,20.536 16.858 C 20.899 16.143,21.016 15.322,20.993 13.660 L 20.980 12.700 20.871 12.514 C 20.479 11.848,19.521 11.848,19.129 12.514 L 19.020 12.700 18.993 13.940 C 18.956 15.658,18.896 15.904,18.400 16.401 C 18.118 16.683,17.833 16.844,17.480 16.920 C 17.337 16.950,16.421 16.978,14.860 17.000 C 12.421 17.034,12.300 17.042,11.800 17.206 C 11.177 17.410,10.986 17.539,9.272 18.905 L 8.005 19.916 7.992 18.808 L 7.980 17.700 7.872 17.516 C 7.759 17.325,7.565 17.153,7.373 17.074 C 7.310 17.048,6.888 17.014,6.420 16.997 C 5.729 16.972,5.538 16.951,5.346 16.884 C 4.772 16.682,4.366 16.284,4.128 15.690 L 4.020 15.420 4.020 11.120 C 4.020 6.431,4.016 6.525,4.248 6.048 C 4.366 5.806,4.806 5.366,5.048 5.248 C 5.477 5.039,5.575 5.032,8.540 5.005 L 11.300 4.980 11.492 4.867 C 12.248 4.423,12.123 3.306,11.290 3.055 C 11.143 3.011,10.644 3.001,8.744 3.006 C 7.444 3.009,6.173 3.025,5.920 3.042 M18.523 4.073 C 19.262 4.266,19.850 4.924,19.967 5.690 C 20.067 6.343,19.873 6.933,19.403 7.404 C 19.109 7.699,18.844 7.852,18.471 7.940 C 17.801 8.098,17.151 7.928,16.653 7.465 C 16.366 7.198,16.164 6.870,16.073 6.523 C 15.683 5.028,17.028 3.683,18.523 4.073 " stroke="none" fill-rule="evenodd" fill="black"></path></svg>