<svg width="24" height="24" viewBox="0 0 24 24" fill="none" xmlns="http://www.w3.org/2000/svg"><path d="M11.600 2.046 C 9.478 2.240,7.460 3.173,5.905 4.680 C 4.596 5.948,3.713 7.471,3.284 9.200 C 3.109 9.904,3.041 10.399,3.013 11.160 C 2.974 12.249,3.092 13.146,3.426 14.287 L 3.609 14.914 2.598 16.785 C 2.042 17.814,1.545 18.774,1.494 18.918 C 1.267 19.562,1.477 20.248,2.016 20.619 C 2.275 20.797,2.569 20.879,2.956 20.880 C 3.119 20.880,4.469 20.754,5.956 20.600 C 7.443 20.446,8.723 20.318,8.800 20.315 C 8.877 20.312,9.155 20.385,9.418 20.477 C 10.939 21.012,12.662 21.141,14.249 20.838 C 17.546 20.210,20.259 17.912,21.414 14.770 C 22.568 11.633,21.992 8.146,19.892 5.539 C 19.490 5.040,18.730 4.304,18.231 3.928 C 16.324 2.495,13.976 1.828,11.600 2.046 M13.223 4.043 C 14.965 4.217,16.563 4.972,17.795 6.205 C 19.807 8.216,20.506 11.181,19.604 13.877 C 18.948 15.840,17.455 17.492,15.580 18.331 C 15.037 18.574,14.383 18.780,13.814 18.887 C 13.425 18.960,13.196 18.976,12.540 18.977 C 11.457 18.979,10.954 18.892,9.855 18.516 C 9.334 18.337,9.221 18.312,8.940 18.312 C 8.764 18.312,7.543 18.424,6.228 18.560 C 4.912 18.697,3.828 18.801,3.818 18.792 C 3.809 18.782,4.170 18.092,4.621 17.257 C 5.102 16.367,5.476 15.627,5.525 15.467 C 5.652 15.055,5.617 14.613,5.403 13.920 C 5.177 13.188,5.086 12.730,5.031 12.031 C 4.862 9.881,5.656 7.754,7.205 6.205 C 8.795 4.614,11.000 3.822,13.223 4.043 M10.020 7.026 C 9.263 7.148,8.593 7.521,7.989 8.158 C 7.808 8.350,7.592 8.622,7.509 8.763 C 6.768 10.026,6.848 11.600,7.712 12.770 C 8.118 13.319,9.315 14.509,10.759 15.799 C 11.533 16.491,11.857 16.652,12.480 16.654 C 13.074 16.657,13.405 16.515,14.000 16.003 C 15.003 15.140,16.666 13.531,17.092 13.010 C 17.759 12.195,18.039 11.390,17.987 10.440 C 17.934 9.460,17.575 8.685,16.863 8.008 C 16.395 7.564,15.897 7.272,15.332 7.113 C 14.917 6.996,14.167 6.988,13.700 7.096 C 13.367 7.173,12.930 7.348,12.667 7.511 L 12.513 7.605 12.107 7.402 C 11.581 7.138,11.186 7.039,10.600 7.021 C 10.347 7.013,10.086 7.015,10.020 7.026 M10.860 9.054 C 11.170 9.137,11.359 9.251,11.693 9.553 C 12.124 9.945,12.372 10.023,12.792 9.899 C 12.947 9.853,13.071 9.769,13.296 9.561 C 13.621 9.260,13.865 9.118,14.189 9.042 C 14.654 8.932,15.156 9.115,15.552 9.538 C 15.868 9.875,15.972 10.137,15.977 10.600 C 15.983 11.231,15.796 11.530,14.743 12.580 C 13.989 13.331,12.593 14.612,12.509 14.631 C 12.363 14.663,9.490 11.883,9.251 11.478 C 8.860 10.813,8.942 10.075,9.472 9.514 C 9.898 9.062,10.340 8.916,10.860 9.054 " stroke="none" fill-rule="evenodd" fill="black"></path></svg>