<svg width="24" height="24" viewBox="0 0 24 24" fill="none" xmlns="http://www.w3.org/2000/svg"><path d="M5.920 2.041 C 5.667 2.058,5.343 2.092,5.200 2.118 C 4.027 2.326,2.999 3.086,2.465 4.141 C 2.225 4.613,2.109 5.072,2.041 5.820 C 1.985 6.421,1.985 20.910,2.040 21.202 C 2.237 22.237,3.240 22.745,4.166 22.277 C 4.292 22.214,5.183 21.531,6.147 20.760 C 8.016 19.266,8.240 19.116,8.720 19.041 C 8.884 19.016,10.600 19.000,13.360 19.000 C 18.258 19.000,18.547 18.988,19.320 18.755 C 20.422 18.423,21.423 17.422,21.755 16.320 C 21.987 15.549,22.000 15.248,22.000 10.500 C 22.000 5.752,21.987 5.451,21.755 4.680 C 21.424 3.581,20.465 2.622,19.320 2.246 C 18.644 2.024,18.800 2.029,12.340 2.019 C 9.062 2.014,6.173 2.024,5.920 2.041 M18.492 4.091 C 18.894 4.188,19.109 4.309,19.400 4.600 C 19.696 4.895,19.814 5.109,19.912 5.528 C 19.974 5.795,19.980 6.228,19.980 10.500 C 19.980 15.608,19.986 15.472,19.752 15.952 C 19.627 16.210,19.190 16.638,18.920 16.767 C 18.490 16.974,18.586 16.970,13.360 17.000 C 8.265 17.030,8.347 17.027,7.800 17.206 C 7.178 17.410,6.889 17.606,5.089 19.049 L 3.997 19.924 4.011 12.852 C 4.023 6.438,4.031 5.755,4.091 5.508 C 4.177 5.151,4.299 4.913,4.520 4.667 C 4.883 4.262,5.282 4.091,5.980 4.039 C 6.200 4.023,9.044 4.013,12.300 4.018 C 17.643 4.024,18.247 4.032,18.492 4.091 " stroke="none" fill-rule="evenodd" fill="black"></path></svg>