<svg width="24" height="24" viewBox="0 0 24 24" fill="none" xmlns="http://www.w3.org/2000/svg"><path d="M1.670 1.061 C 1.448 1.142,1.250 1.309,1.128 1.516 C 1.036 1.672,1.020 1.745,1.021 2.000 C 1.021 2.212,1.043 2.341,1.095 2.440 C 1.135 2.517,2.480 3.894,4.083 5.500 L 6.997 8.420 7.011 11.060 C 7.026 13.934,7.022 13.878,7.268 14.600 C 7.687 15.828,8.569 16.849,9.713 17.433 C 10.412 17.790,11.031 17.955,11.800 17.989 C 12.991 18.043,14.115 17.679,15.092 16.924 L 15.324 16.744 16.031 17.451 L 16.737 18.158 16.563 18.309 C 15.976 18.818,15.101 19.323,14.330 19.598 C 12.571 20.225,10.550 20.101,8.886 19.263 C 6.824 18.225,5.400 16.256,5.079 14.000 C 5.053 13.813,5.020 13.219,5.005 12.680 C 4.980 11.706,4.979 11.699,4.870 11.514 C 4.479 10.848,3.521 10.848,3.129 11.514 C 3.021 11.698,3.020 11.708,3.007 12.540 C 2.986 13.861,3.110 14.763,3.461 15.831 C 4.208 18.109,5.877 20.014,8.060 21.084 C 10.553 22.305,13.431 22.304,15.940 21.082 C 16.710 20.707,17.671 20.057,18.038 19.663 L 18.136 19.558 19.778 21.195 C 20.681 22.095,21.483 22.865,21.560 22.905 C 21.659 22.957,21.788 22.979,22.000 22.979 C 22.258 22.980,22.327 22.964,22.492 22.867 C 22.968 22.587,23.139 21.967,22.865 21.508 C 22.810 21.416,18.215 16.793,12.653 11.235 C 3.300 1.889,2.525 1.125,2.343 1.065 C 2.107 0.987,1.874 0.986,1.670 1.061 M11.340 2.045 C 10.517 2.149,9.686 2.487,9.036 2.984 C 8.605 3.314,8.481 3.525,8.480 3.931 C 8.480 4.177,8.566 4.381,8.752 4.573 C 8.928 4.756,9.049 4.824,9.295 4.879 C 9.588 4.945,9.811 4.874,10.239 4.579 C 10.679 4.275,11.092 4.106,11.556 4.038 C 13.032 3.823,14.434 4.710,14.877 6.139 C 14.976 6.459,14.976 6.465,14.998 8.583 L 15.020 10.706 15.141 10.903 C 15.543 11.556,16.457 11.556,16.859 10.903 L 16.980 10.706 16.980 8.543 C 16.980 6.603,16.973 6.345,16.907 6.040 C 16.539 4.320,15.370 2.941,13.753 2.320 C 13.056 2.052,12.126 1.946,11.340 2.045 M13.880 15.325 C 13.880 15.368,13.392 15.668,13.180 15.754 C 12.725 15.941,12.517 15.980,11.980 15.979 C 11.550 15.979,11.408 15.963,11.160 15.886 C 10.183 15.583,9.422 14.826,9.123 13.861 C 9.026 13.547,9.024 13.508,9.010 11.980 L 8.996 10.420 11.438 12.860 C 12.781 14.202,13.880 15.311,13.880 15.325 " stroke="none" fill-rule="evenodd" fill="black"></path></svg>