<svg width="24" height="24" viewBox="0 0 24 24" fill="none" xmlns="http://www.w3.org/2000/svg"><path d="M6.900 1.045 C 6.211 1.131,5.422 1.450,4.857 1.871 C 3.880 2.598,3.269 3.586,3.062 4.775 C 3.009 5.079,3.000 5.685,2.999 8.955 L 2.999 12.780 2.835 12.940 C 2.509 13.259,2.258 13.701,2.097 14.240 C 2.030 14.467,2.020 14.628,2.020 15.500 C 2.020 16.372,2.030 16.533,2.097 16.760 C 2.425 17.860,3.178 18.606,4.260 18.903 C 4.525 18.976,4.704 18.980,7.500 18.980 C 10.296 18.980,10.475 18.976,10.740 18.903 C 11.822 18.606,12.575 17.860,12.903 16.760 C 12.970 16.533,12.980 16.372,12.980 15.500 C 12.980 14.628,12.970 14.467,12.903 14.240 C 12.742 13.701,12.491 13.259,12.165 12.940 L 12.001 12.780 12.001 9.932 L 12.000 7.084 12.150 7.052 C 12.382 7.003,13.578 7.019,13.980 7.076 C 17.061 7.515,19.483 9.937,19.924 13.020 C 20.001 13.558,19.991 14.612,19.904 15.140 C 19.666 16.591,18.980 17.908,17.903 18.982 C 17.280 19.603,16.630 20.044,15.789 20.418 C 15.546 20.526,15.391 20.625,15.285 20.739 C 14.907 21.149,14.911 21.706,15.294 22.113 C 15.450 22.278,15.588 22.353,15.821 22.396 C 16.089 22.446,16.302 22.389,16.888 22.109 C 18.392 21.389,19.560 20.372,20.498 18.964 C 21.481 17.487,21.998 15.784,22.000 14.020 C 22.001 11.639,21.059 9.353,19.379 7.663 C 18.000 6.274,16.268 5.401,14.280 5.093 C 13.934 5.039,13.591 5.022,12.895 5.023 L 11.969 5.025 11.945 4.818 C 11.932 4.704,11.875 4.453,11.819 4.259 C 11.198 2.119,9.129 0.767,6.900 1.045 M8.020 3.060 C 8.741 3.211,9.395 3.713,9.715 4.362 C 10.005 4.951,9.999 4.854,9.999 8.630 L 10.000 12.000 7.500 12.000 L 5.000 12.000 5.001 8.630 C 5.001 4.854,4.995 4.951,5.285 4.362 C 5.774 3.371,6.914 2.828,8.020 3.060 M10.316 14.063 C 10.610 14.150,10.854 14.398,10.941 14.699 C 10.993 14.877,11.004 15.062,10.993 15.593 C 10.981 16.219,10.973 16.276,10.878 16.461 C 10.763 16.684,10.512 16.896,10.289 16.958 C 10.085 17.015,4.915 17.015,4.711 16.958 C 4.488 16.896,4.237 16.684,4.122 16.461 C 4.027 16.276,4.019 16.219,4.007 15.593 C 3.990 14.764,4.036 14.562,4.299 14.299 C 4.600 13.998,4.517 14.006,7.483 14.003 C 9.752 14.000,10.134 14.008,10.316 14.063 M2.695 21.057 C 2.466 21.129,2.256 21.299,2.128 21.516 C 2.037 21.672,2.020 21.746,2.020 22.000 C 2.020 22.256,2.036 22.328,2.131 22.489 C 2.256 22.702,2.449 22.864,2.670 22.943 C 2.892 23.022,12.108 23.022,12.330 22.943 C 12.551 22.864,12.744 22.702,12.869 22.489 C 12.964 22.328,12.980 22.256,12.980 22.000 C 12.980 21.746,12.963 21.672,12.872 21.516 C 12.740 21.293,12.533 21.128,12.290 21.055 C 12.029 20.976,2.946 20.978,2.695 21.057 " stroke="none" fill-rule="evenodd" fill="black"></path></svg>