<svg width="24" height="24" viewBox="0 0 24 24" fill="none" xmlns="http://www.w3.org/2000/svg"><path d="M1.670 1.061 C 1.448 1.142,1.250 1.309,1.128 1.516 C 1.037 1.672,1.020 1.746,1.020 2.000 C 1.020 2.254,1.036 2.327,1.127 2.480 C 1.189 2.582,2.696 4.120,4.617 6.040 L 8.000 9.420 8.000 10.894 C 8.000 12.225,8.008 12.407,8.083 12.773 C 8.357 14.118,9.249 15.195,10.512 15.704 C 11.231 15.994,12.023 16.070,12.757 15.921 C 13.132 15.844,13.740 15.627,13.932 15.502 C 14.020 15.444,14.042 15.461,14.741 16.163 L 15.460 16.885 15.340 16.982 C 15.149 17.136,14.334 17.539,13.940 17.673 C 13.244 17.909,12.821 17.975,12.000 17.975 C 11.179 17.975,10.754 17.909,10.060 17.672 C 8.365 17.094,6.957 15.707,6.361 14.029 C 6.070 13.209,6.035 12.933,6.006 11.200 L 5.980 9.700 5.871 9.514 C 5.479 8.848,4.521 8.848,4.129 9.514 L 4.020 9.700 4.007 11.020 C 3.993 12.413,4.025 12.935,4.166 13.620 C 4.399 14.756,4.948 15.949,5.674 16.900 C 5.933 17.239,6.606 17.925,6.960 18.211 C 7.687 18.799,8.620 19.307,9.500 19.595 C 9.979 19.751,10.703 19.920,10.898 19.920 L 11.000 19.920 11.000 20.460 L 11.000 21.000 9.446 21.000 C 7.758 21.000,7.658 21.011,7.382 21.221 C 7.302 21.282,7.187 21.415,7.128 21.516 C 7.037 21.672,7.020 21.746,7.020 22.000 C 7.020 22.256,7.036 22.328,7.131 22.489 C 7.256 22.702,7.449 22.864,7.670 22.943 C 7.892 23.022,16.108 23.022,16.330 22.943 C 16.551 22.864,16.744 22.702,16.869 22.489 C 16.964 22.328,16.980 22.256,16.980 22.000 C 16.980 21.746,16.963 21.672,16.872 21.516 C 16.813 21.415,16.698 21.282,16.618 21.221 C 16.342 21.011,16.242 21.000,14.554 21.000 L 13.000 21.000 13.000 20.465 L 13.000 19.930 13.235 19.904 C 13.575 19.865,14.332 19.667,14.787 19.497 C 15.349 19.287,15.972 18.965,16.475 18.625 L 16.911 18.331 19.125 20.548 C 20.349 21.773,21.421 22.813,21.520 22.873 C 21.673 22.964,21.746 22.980,22.000 22.980 C 22.257 22.980,22.327 22.964,22.492 22.867 C 22.968 22.587,23.139 21.967,22.865 21.508 C 22.810 21.416,21.767 20.343,20.548 19.125 L 18.331 16.911 18.632 16.465 C 19.183 15.650,19.638 14.574,19.834 13.620 C 19.975 12.935,20.007 12.413,19.993 11.020 L 19.980 9.700 19.871 9.514 C 19.479 8.848,18.521 8.848,18.129 9.514 L 18.020 9.700 17.994 11.200 C 17.965 12.933,17.930 13.209,17.639 14.029 C 17.474 14.493,17.025 15.355,16.911 15.426 C 16.889 15.439,13.647 12.228,9.706 8.290 C 3.096 1.685,2.525 1.125,2.343 1.065 C 2.107 0.987,1.874 0.986,1.670 1.061 M11.423 1.044 C 10.652 1.157,9.864 1.535,9.270 2.078 C 8.992 2.332,8.649 2.780,8.474 3.118 C 8.357 3.343,8.340 3.413,8.340 3.678 C 8.340 3.938,8.356 4.007,8.454 4.173 C 8.588 4.402,8.843 4.577,9.138 4.643 C 9.312 4.682,9.384 4.679,9.575 4.623 C 9.861 4.540,10.062 4.363,10.273 4.006 C 10.728 3.241,11.590 2.865,12.449 3.056 C 12.954 3.169,13.382 3.473,13.686 3.937 C 13.985 4.394,13.974 4.282,13.998 7.143 L 14.020 9.706 14.141 9.903 C 14.543 10.556,15.457 10.556,15.859 9.903 L 15.980 9.706 15.991 7.175 C 16.002 4.770,15.998 4.624,15.922 4.248 C 15.830 3.800,15.639 3.297,15.421 2.932 C 14.961 2.161,14.142 1.511,13.245 1.204 C 12.735 1.029,11.979 0.963,11.423 1.044 M12.468 13.945 C 12.416 13.997,11.820 14.010,11.596 13.963 C 10.886 13.816,10.255 13.220,10.073 12.523 C 10.031 12.360,10.004 12.101,10.002 11.840 L 10.000 11.420 11.248 12.668 C 11.935 13.355,12.484 13.929,12.468 13.945 " stroke="none" fill-rule="evenodd" fill="black"></path></svg>