<svg width="24" height="24" viewBox="0 0 24 24" fill="none" xmlns="http://www.w3.org/2000/svg"><path d="M11.400 2.044 C 9.761 2.229,8.261 3.290,7.526 4.785 C 7.333 5.177,7.187 5.599,7.093 6.040 C 7.025 6.355,7.020 6.651,7.020 10.000 C 7.020 13.349,7.025 13.645,7.093 13.960 C 7.526 15.984,9.016 17.474,11.040 17.907 C 11.511 18.008,12.489 18.008,12.960 17.907 C 14.488 17.580,15.748 16.630,16.433 15.288 C 16.662 14.839,16.805 14.439,16.907 13.960 C 16.975 13.645,16.980 13.349,16.980 10.000 C 16.980 6.651,16.975 6.355,16.907 6.040 C 16.576 4.491,15.600 3.219,14.213 2.525 C 13.352 2.095,12.397 1.932,11.400 2.044 M12.861 4.129 C 13.815 4.408,14.611 5.213,14.888 6.178 L 14.980 6.500 14.980 10.000 L 14.980 13.500 14.888 13.822 C 14.610 14.792,13.830 15.578,12.840 15.886 C 12.406 16.021,11.594 16.021,11.160 15.886 C 10.170 15.578,9.390 14.792,9.112 13.822 L 9.020 13.500 9.020 10.000 L 9.020 6.500 9.112 6.178 C 9.426 5.083,10.359 4.247,11.499 4.040 C 11.832 3.980,12.500 4.023,12.861 4.129 M3.695 11.057 C 3.466 11.129,3.256 11.299,3.128 11.516 C 3.021 11.698,3.020 11.710,3.007 12.540 C 2.986 13.861,3.110 14.763,3.461 15.831 C 4.208 18.109,5.877 20.014,8.060 21.084 C 10.548 22.302,13.452 22.302,15.940 21.084 C 18.768 19.698,20.648 16.986,20.961 13.840 C 20.986 13.587,21.001 13.002,20.993 12.540 C 20.980 11.708,20.979 11.698,20.871 11.514 C 20.479 10.848,19.521 10.848,19.130 11.514 C 19.021 11.699,19.020 11.706,18.995 12.680 C 18.959 14.018,18.880 14.529,18.573 15.380 C 17.793 17.546,15.946 19.221,13.725 19.777 C 13.092 19.936,12.736 19.977,12.000 19.977 C 11.264 19.977,10.908 19.936,10.275 19.777 C 8.052 19.221,6.207 17.548,5.427 15.380 C 5.120 14.529,5.041 14.018,5.005 12.680 C 4.980 11.709,4.979 11.698,4.872 11.516 C 4.628 11.101,4.150 10.915,3.695 11.057 " stroke="none" fill-rule="evenodd" fill="black"></path></svg>