<svg width="24" height="24" viewBox="0 0 24 24" fill="none" xmlns="http://www.w3.org/2000/svg"><path d="M4.709 0.963 C 4.451 1.025,4.345 1.102,3.943 1.525 C 3.221 2.285,2.624 3.150,2.140 4.140 C 1.096 6.275,0.761 8.582,1.164 10.880 C 1.408 12.275,1.934 13.659,2.658 14.813 C 2.780 15.006,2.880 15.178,2.880 15.194 C 2.880 15.210,2.771 15.275,2.637 15.338 C 1.899 15.689,1.345 16.371,1.111 17.220 C 1.027 17.523,1.023 17.617,1.023 19.000 C 1.023 20.386,1.027 20.476,1.112 20.780 C 1.411 21.859,2.162 22.602,3.244 22.890 L 3.580 22.980 12.000 22.980 L 20.420 22.980 20.756 22.890 C 21.837 22.602,22.585 21.860,22.890 20.772 C 22.972 20.477,22.977 20.380,22.977 19.000 C 22.977 17.620,22.972 17.523,22.890 17.228 C 22.649 16.370,22.122 15.711,21.390 15.353 C 21.242 15.280,21.120 15.208,21.120 15.191 C 21.120 15.174,21.201 15.034,21.300 14.879 C 21.867 13.995,22.394 12.772,22.660 11.721 C 23.307 9.164,23.027 6.516,21.859 4.140 C 21.367 3.138,20.778 2.283,20.057 1.525 C 19.643 1.090,19.553 1.026,19.267 0.962 C 18.689 0.832,18.080 1.308,18.080 1.890 C 18.080 2.237,18.151 2.385,18.519 2.796 C 19.280 3.648,19.668 4.210,20.080 5.060 C 20.720 6.379,20.977 7.507,20.977 9.000 C 20.977 10.135,20.838 10.987,20.492 11.980 C 20.182 12.869,19.525 14.033,18.940 14.730 L 18.714 15.000 15.858 15.000 L 13.002 15.000 12.991 11.850 L 12.980 8.700 12.871 8.514 C 12.479 7.848,11.521 7.848,11.129 8.514 L 11.020 8.700 11.009 11.850 L 10.998 15.000 8.142 15.000 L 5.286 15.000 5.060 14.730 C 4.475 14.033,3.818 12.869,3.508 11.980 C 3.162 10.987,3.023 10.135,3.023 9.000 C 3.023 7.507,3.280 6.380,3.919 5.060 C 4.331 4.210,4.724 3.640,5.480 2.796 C 5.848 2.385,5.920 2.237,5.920 1.893 C 5.920 1.534,5.640 1.131,5.300 1.001 C 5.154 0.946,4.862 0.927,4.709 0.963 M7.471 3.797 C 7.198 3.885,6.806 4.259,6.373 4.844 C 5.315 6.271,4.833 8.118,5.062 9.868 C 5.255 11.342,5.820 12.568,6.835 13.712 C 7.197 14.121,7.378 14.220,7.760 14.220 C 8.014 14.220,8.088 14.203,8.244 14.112 C 8.457 13.987,8.619 13.790,8.702 13.556 C 8.834 13.181,8.741 12.842,8.405 12.473 C 7.894 11.911,7.526 11.317,7.304 10.697 C 6.903 9.573,6.915 8.279,7.337 7.208 C 7.574 6.603,7.915 6.068,8.405 5.527 C 8.745 5.152,8.832 4.826,8.697 4.429 C 8.627 4.224,8.396 3.961,8.194 3.857 C 8.044 3.779,7.631 3.745,7.471 3.797 M15.913 3.814 C 15.404 4.004,15.129 4.566,15.297 5.072 C 15.341 5.202,15.445 5.362,15.594 5.526 C 15.954 5.923,16.176 6.233,16.394 6.642 C 16.737 7.286,16.889 7.791,16.964 8.530 C 17.110 9.969,16.641 11.320,15.595 12.473 C 15.257 12.845,15.166 13.182,15.301 13.562 C 15.386 13.803,15.531 13.980,15.751 14.109 C 15.912 14.204,15.984 14.220,16.240 14.220 C 16.494 14.220,16.568 14.203,16.723 14.112 C 17.003 13.948,17.601 13.247,17.954 12.670 C 19.340 10.403,19.340 7.597,17.954 5.330 C 17.605 4.760,17.003 4.052,16.731 3.893 C 16.518 3.768,16.134 3.731,15.913 3.814 M20.449 17.117 C 20.675 17.232,20.761 17.320,20.886 17.560 C 20.979 17.738,20.980 17.756,20.980 19.000 L 20.980 20.260 20.881 20.454 C 20.772 20.667,20.615 20.818,20.400 20.916 C 20.273 20.974,19.483 20.980,12.000 20.980 C 4.517 20.980,3.727 20.974,3.600 20.916 C 3.383 20.817,3.215 20.656,3.117 20.454 C 3.034 20.282,3.026 20.201,3.010 19.305 C 2.988 18.112,3.028 17.662,3.175 17.440 C 3.335 17.199,3.556 17.071,3.873 17.038 C 4.020 17.023,7.767 17.013,12.200 17.015 L 20.260 17.020 20.449 17.117 " stroke="none" fill-rule="evenodd" fill="black"></path></svg>