<svg width="24" height="24" viewBox="0 0 24 24" fill="none" xmlns="http://www.w3.org/2000/svg"><path d="M4.220 1.477 C 3.905 1.554,3.629 1.816,3.100 2.540 C 1.294 5.016,0.604 8.187,1.220 11.179 C 1.359 11.851,1.429 12.053,1.589 12.240 C 1.799 12.485,2.005 12.578,2.340 12.578 C 2.549 12.578,2.661 12.556,2.783 12.492 C 3.026 12.363,3.227 12.119,3.302 11.858 C 3.366 11.638,3.365 11.619,3.264 11.164 C 3.066 10.270,3.025 9.911,3.024 9.020 C 3.023 8.073,3.079 7.609,3.297 6.746 C 3.611 5.506,4.169 4.389,4.988 3.368 C 5.348 2.918,5.438 2.733,5.439 2.438 C 5.442 1.811,4.830 1.329,4.220 1.477 M19.240 1.499 C 18.726 1.665,18.445 2.226,18.606 2.765 C 18.632 2.850,18.786 3.086,18.950 3.290 C 20.785 5.572,21.398 8.332,20.714 11.235 C 20.592 11.749,20.674 12.047,21.018 12.350 C 21.480 12.756,22.106 12.659,22.511 12.117 C 22.580 12.024,22.750 11.363,22.838 10.840 C 23.078 9.419,23.044 8.021,22.735 6.644 C 22.528 5.719,22.220 4.838,21.839 4.080 C 21.299 3.006,20.386 1.757,19.997 1.558 C 19.790 1.453,19.463 1.427,19.240 1.499 M7.040 4.315 C 6.713 4.422,6.486 4.642,6.114 5.212 C 5.115 6.747,4.767 8.685,5.165 10.500 C 5.300 11.113,5.477 11.355,5.891 11.495 C 6.130 11.576,6.301 11.577,6.522 11.499 C 6.759 11.416,6.939 11.270,7.061 11.063 C 7.208 10.811,7.224 10.573,7.125 10.080 C 6.834 8.619,7.101 7.312,7.938 6.100 C 8.222 5.690,8.280 5.549,8.280 5.273 C 8.280 4.762,7.878 4.331,7.370 4.297 C 7.244 4.289,7.095 4.297,7.040 4.315 M16.385 4.336 C 16.006 4.477,15.720 4.874,15.720 5.259 C 15.720 5.549,15.775 5.686,16.062 6.100 C 16.897 7.308,17.176 8.678,16.873 10.080 C 16.742 10.688,16.836 11.080,17.174 11.338 C 17.455 11.553,17.778 11.607,18.106 11.496 C 18.492 11.365,18.679 11.134,18.803 10.638 C 19.191 9.080,18.997 7.356,18.270 5.900 C 17.882 5.123,17.455 4.551,17.145 4.392 C 16.939 4.287,16.586 4.261,16.385 4.336 M11.670 8.061 C 11.448 8.142,11.250 8.309,11.128 8.516 L 11.020 8.700 11.009 11.350 L 10.998 14.000 7.629 14.000 C 4.252 14.000,3.623 14.020,3.141 14.145 C 2.340 14.352,1.569 15.028,1.260 15.795 C 1.033 16.356,1.020 16.506,1.020 18.520 C 1.020 20.321,1.023 20.391,1.111 20.735 C 1.225 21.184,1.379 21.505,1.650 21.858 C 2.038 22.363,2.594 22.719,3.265 22.889 L 3.620 22.980 11.980 22.980 C 19.988 22.980,20.353 22.977,20.660 22.906 C 21.269 22.764,21.711 22.526,22.118 22.118 C 22.526 21.711,22.764 21.269,22.906 20.660 C 22.972 20.373,22.980 20.152,22.980 18.500 C 22.980 16.848,22.972 16.627,22.906 16.340 C 22.688 15.404,22.167 14.737,21.329 14.321 C 20.723 14.021,20.406 14.000,16.371 14.000 L 13.002 14.000 12.991 11.350 L 12.980 8.700 12.872 8.516 C 12.624 8.094,12.110 7.899,11.670 8.061 M20.374 16.074 C 20.586 16.146,20.863 16.432,20.928 16.646 C 20.967 16.778,20.980 17.228,20.980 18.500 C 20.980 19.772,20.967 20.222,20.928 20.354 C 20.863 20.567,20.591 20.849,20.376 20.925 C 20.143 21.007,3.857 21.007,3.624 20.925 C 3.421 20.853,3.139 20.569,3.077 20.374 C 3.011 20.165,2.978 17.476,3.035 16.964 C 3.068 16.675,3.101 16.552,3.179 16.434 C 3.333 16.201,3.547 16.080,3.866 16.042 C 4.017 16.024,7.758 16.012,12.180 16.016 C 18.671 16.021,20.250 16.032,20.374 16.074 M5.044 17.625 C 4.197 18.048,4.397 19.302,5.339 19.477 C 5.659 19.536,9.341 19.536,9.661 19.477 C 10.594 19.304,10.796 18.044,9.957 17.626 L 9.744 17.520 7.500 17.520 L 5.256 17.520 5.044 17.625 " stroke="none" fill-rule="evenodd" fill="black"></path></svg>