<svg width="24" height="24" viewBox="0 0 24 24" fill="none" xmlns="http://www.w3.org/2000/svg"><path d="M4.920 2.041 C 4.152 2.092,3.672 2.205,3.180 2.451 C 2.089 2.996,1.357 3.961,1.124 5.160 C 1.018 5.702,1.000 6.421,1.000 10.000 C 1.000 14.212,1.016 14.561,1.245 15.320 C 1.577 16.422,2.578 17.423,3.680 17.755 C 4.485 17.998,4.567 18.000,12.000 18.000 C 19.433 18.000,19.515 17.998,20.320 17.755 C 21.422 17.423,22.423 16.422,22.755 15.320 C 22.984 14.561,23.000 14.212,23.000 10.000 C 23.000 5.788,22.984 5.439,22.755 4.680 C 22.424 3.581,21.465 2.622,20.320 2.246 C 19.635 2.021,19.900 2.028,12.340 2.019 C 8.512 2.014,5.173 2.024,4.920 2.041 M19.492 4.091 C 19.894 4.188,20.110 4.309,20.400 4.600 C 20.696 4.895,20.814 5.109,20.912 5.528 C 20.974 5.794,20.980 6.199,20.980 10.000 C 20.980 14.557,20.984 14.476,20.752 14.952 C 20.626 15.211,20.190 15.638,19.918 15.768 C 19.463 15.987,19.707 15.980,12.000 15.980 C 4.304 15.980,4.541 15.986,4.082 15.771 C 3.812 15.643,3.377 15.217,3.248 14.952 C 3.016 14.476,3.020 14.557,3.020 10.000 C 3.020 6.199,3.026 5.794,3.088 5.528 C 3.175 5.155,3.294 4.918,3.520 4.667 C 3.883 4.262,4.282 4.090,4.980 4.039 C 5.200 4.023,8.494 4.013,12.300 4.017 C 18.585 4.024,19.245 4.031,19.492 4.091 M11.280 19.024 C 9.947 19.141,8.931 19.368,7.880 19.781 C 7.382 19.977,7.006 20.168,6.873 20.291 C 6.359 20.769,6.558 21.691,7.227 21.931 C 7.507 22.032,7.710 22.018,8.046 21.875 C 9.487 21.264,10.672 21.002,12.000 21.002 C 13.328 21.002,14.513 21.264,15.954 21.875 C 16.290 22.018,16.493 22.032,16.773 21.931 C 17.442 21.691,17.641 20.769,17.127 20.291 C 16.994 20.168,16.618 19.977,16.120 19.781 C 15.274 19.449,14.400 19.225,13.455 19.099 C 12.995 19.038,11.647 18.992,11.280 19.024 " stroke="none" fill-rule="evenodd" fill="black"></path></svg>