<svg width="24" height="24" viewBox="0 0 24 24" fill="none" xmlns="http://www.w3.org/2000/svg"><path d="M3.749 2.045 C 2.967 2.120,2.402 2.371,1.890 2.870 C 1.491 3.260,1.236 3.731,1.094 4.340 C 1.024 4.643,1.020 4.936,1.020 10.020 L 1.020 15.380 1.111 15.735 C 1.225 16.184,1.379 16.505,1.650 16.858 C 2.032 17.356,2.590 17.715,3.244 17.886 C 3.566 17.970,3.674 17.974,5.788 17.990 L 7.997 18.006 8.008 19.653 L 8.020 21.300 8.131 21.489 C 8.256 21.702,8.449 21.864,8.670 21.943 C 8.891 22.022,15.109 22.022,15.330 21.943 C 15.551 21.864,15.744 21.702,15.869 21.489 L 15.980 21.300 15.992 19.653 L 16.003 18.006 18.212 17.990 C 20.295 17.974,20.438 17.969,20.740 17.890 C 21.156 17.781,21.384 17.681,21.690 17.473 C 22.324 17.044,22.722 16.449,22.906 15.660 C 22.976 15.357,22.980 15.064,22.980 10.000 C 22.980 4.936,22.976 4.643,22.906 4.340 C 22.688 3.404,22.167 2.737,21.329 2.321 C 21.019 2.168,20.706 2.091,20.180 2.042 C 19.643 1.991,4.277 1.994,3.749 2.045 M20.374 4.074 C 20.586 4.146,20.863 4.432,20.928 4.646 C 21.005 4.902,21.005 15.098,20.928 15.354 C 20.863 15.567,20.591 15.849,20.376 15.925 C 20.143 16.007,3.857 16.007,3.624 15.925 C 3.422 15.854,3.140 15.571,3.074 15.374 C 3.008 15.176,2.974 5.516,3.037 4.947 C 3.102 4.365,3.341 4.104,3.866 4.042 C 4.017 4.024,7.758 4.012,12.180 4.016 C 18.671 4.021,20.250 4.032,20.374 4.074 M14.000 19.000 L 14.000 20.000 12.000 20.000 L 10.000 20.000 10.000 19.000 L 10.000 18.000 12.000 18.000 L 14.000 18.000 14.000 19.000 " stroke="none" fill-rule="evenodd" fill="black"></path></svg>