<svg width="24" height="24" viewBox="0 0 24 24" fill="none" xmlns="http://www.w3.org/2000/svg"><path d="M13.749 3.045 C 12.967 3.120,12.402 3.371,11.890 3.870 C 11.491 4.260,11.236 4.731,11.094 5.340 C 11.024 5.645,11.020 5.962,11.020 12.020 L 11.020 18.380 11.111 18.735 C 11.225 19.184,11.379 19.505,11.650 19.858 C 12.038 20.363,12.594 20.719,13.265 20.889 C 13.620 20.980,13.621 20.980,16.980 20.980 C 20.114 20.980,20.362 20.975,20.660 20.906 C 21.459 20.720,22.041 20.327,22.486 19.671 C 22.685 19.378,22.807 19.084,22.906 18.660 C 22.976 18.355,22.980 18.039,22.980 12.000 C 22.980 5.961,22.976 5.645,22.906 5.340 C 22.688 4.404,22.167 3.737,21.329 3.321 C 21.019 3.168,20.706 3.091,20.180 3.042 C 19.655 2.992,14.269 2.995,13.749 3.045 M3.749 5.045 C 2.967 5.120,2.402 5.371,1.890 5.870 C 1.491 6.260,1.236 6.731,1.094 7.340 C 1.025 7.638,1.020 7.886,1.020 11.020 C 1.020 14.379,1.020 14.380,1.111 14.735 C 1.225 15.184,1.379 15.505,1.650 15.858 C 2.032 16.356,2.590 16.715,3.244 16.886 C 3.566 16.970,3.671 16.974,5.845 16.990 C 7.377 17.001,8.161 16.992,8.269 16.963 C 8.498 16.901,8.738 16.712,8.867 16.492 C 8.964 16.327,8.980 16.257,8.980 16.000 C 8.980 15.746,8.963 15.672,8.872 15.516 C 8.761 15.327,8.571 15.158,8.373 15.071 C 8.289 15.034,7.672 15.016,6.000 15.000 L 3.740 14.980 3.550 14.886 C 3.325 14.776,3.137 14.562,3.069 14.340 C 2.995 14.100,2.999 7.890,3.072 7.646 C 3.138 7.430,3.416 7.144,3.626 7.077 C 3.737 7.041,4.418 7.021,6.040 7.004 L 8.300 6.980 8.492 6.867 C 9.248 6.423,9.123 5.306,8.290 5.055 C 8.144 5.011,7.698 5.001,6.104 5.005 C 5.002 5.008,3.942 5.026,3.749 5.045 M20.374 5.075 C 20.585 5.145,20.862 5.431,20.928 5.646 C 21.005 5.902,21.005 18.098,20.928 18.354 C 20.863 18.567,20.591 18.849,20.376 18.925 C 20.145 19.006,13.855 19.006,13.624 18.925 C 13.422 18.854,13.140 18.571,13.074 18.374 C 13.008 18.177,12.973 6.518,13.037 5.945 C 13.102 5.366,13.342 5.104,13.866 5.041 C 14.017 5.023,15.508 5.012,17.180 5.016 C 19.507 5.023,20.256 5.037,20.374 5.075 M16.695 8.055 C 16.464 8.130,16.255 8.300,16.128 8.516 C 16.037 8.672,16.020 8.746,16.020 9.000 C 16.020 9.257,16.036 9.327,16.133 9.492 C 16.651 10.374,17.998 10.018,17.998 9.000 C 17.998 8.623,17.792 8.281,17.463 8.112 C 17.265 8.010,16.911 7.984,16.695 8.055 M16.477 13.073 C 15.806 13.249,15.238 13.823,15.060 14.508 C 14.941 14.962,15.003 15.492,15.225 15.930 C 15.361 16.199,15.801 16.639,16.070 16.775 C 16.659 17.073,17.341 17.073,17.930 16.775 C 18.196 16.640,18.638 16.200,18.771 15.937 C 19.161 15.168,19.043 14.275,18.471 13.659 C 18.074 13.232,17.563 13.005,17.000 13.005 C 16.857 13.005,16.622 13.036,16.477 13.073 M5.240 19.037 C 4.794 19.173,4.512 19.546,4.512 20.000 C 4.512 20.405,4.719 20.724,5.100 20.905 C 5.299 20.999,5.307 20.999,6.740 20.998 C 8.289 20.996,8.349 20.990,8.619 20.783 C 8.696 20.725,8.808 20.592,8.869 20.489 C 8.964 20.328,8.980 20.256,8.980 20.000 C 8.980 19.746,8.963 19.672,8.872 19.516 C 8.813 19.415,8.698 19.282,8.618 19.221 C 8.345 19.013,8.230 19.000,6.724 19.003 C 5.963 19.005,5.295 19.021,5.240 19.037 " stroke="none" fill-rule="evenodd" fill="black"></path></svg>