<svg width="24" height="24" viewBox="0 0 24 24" fill="none" xmlns="http://www.w3.org/2000/svg"><path d="M17.659 1.064 C 17.316 1.185,17.244 1.286,16.637 2.483 C 15.881 3.975,15.969 3.887,14.482 4.638 C 13.275 5.248,13.184 5.315,13.061 5.675 C 12.984 5.902,12.984 6.098,13.061 6.325 C 13.183 6.684,13.274 6.750,14.483 7.363 C 15.972 8.118,15.882 8.028,16.637 9.517 C 17.250 10.726,17.316 10.817,17.675 10.939 C 17.902 11.016,18.098 11.016,18.325 10.939 C 18.684 10.817,18.750 10.726,19.363 9.517 C 20.118 8.028,20.028 8.118,21.517 7.363 C 22.726 6.750,22.817 6.684,22.939 6.325 C 23.053 5.989,22.987 5.628,22.759 5.352 C 22.667 5.240,22.392 5.082,21.519 4.640 C 20.029 3.884,20.118 3.973,19.363 2.483 C 18.742 1.258,18.677 1.170,18.303 1.059 C 18.061 0.987,17.871 0.988,17.659 1.064 M9.940 2.080 C 8.103 2.359,6.362 3.128,4.900 4.308 C 4.389 4.720,3.547 5.585,3.156 6.100 C 2.046 7.561,1.346 9.268,1.072 11.180 C 0.993 11.733,1.006 13.349,1.094 13.920 C 1.389 15.833,2.083 17.469,3.232 18.960 C 3.570 19.398,4.602 20.430,5.040 20.768 C 6.520 21.908,8.182 22.617,10.040 22.899 C 10.627 22.988,11.792 23.020,12.400 22.964 C 14.428 22.778,16.282 22.063,17.900 20.845 C 18.412 20.459,19.495 19.377,19.886 18.860 C 21.028 17.352,21.768 15.522,21.965 13.720 C 22.019 13.226,21.987 13.055,21.789 12.792 C 21.513 12.425,20.999 12.299,20.579 12.494 C 20.347 12.602,20.251 12.710,19.886 13.267 C 18.511 15.371,16.038 16.507,13.544 16.180 C 11.332 15.890,9.464 14.559,8.458 12.557 C 7.538 10.725,7.539 8.518,8.460 6.679 C 9.001 5.599,9.758 4.754,10.807 4.059 C 11.086 3.874,11.358 3.664,11.411 3.591 C 11.813 3.050,11.548 2.251,10.903 2.059 C 10.658 1.986,10.543 1.988,9.940 2.080 M18.180 4.531 C 18.399 4.928,19.072 5.601,19.469 5.820 C 19.628 5.908,19.758 5.989,19.758 6.000 C 19.758 6.011,19.628 6.092,19.469 6.180 C 19.071 6.401,18.398 7.073,18.180 7.469 C 18.092 7.628,18.011 7.758,18.000 7.758 C 17.989 7.758,17.908 7.628,17.820 7.469 C 17.708 7.267,17.534 7.054,17.240 6.760 C 16.946 6.466,16.733 6.292,16.531 6.180 C 16.372 6.092,16.242 6.011,16.242 6.000 C 16.242 5.989,16.372 5.908,16.531 5.820 C 16.928 5.600,17.600 4.928,17.820 4.531 C 17.908 4.372,17.989 4.242,18.000 4.242 C 18.011 4.242,18.092 4.372,18.180 4.531 M6.665 5.790 C 5.342 8.433,5.484 11.596,7.039 14.140 C 7.681 15.190,8.810 16.319,9.860 16.961 C 12.408 18.518,15.563 18.660,18.210 17.335 C 18.447 17.216,18.640 17.128,18.640 17.140 C 18.640 17.177,18.345 17.579,18.096 17.880 C 17.786 18.254,17.019 19.006,16.700 19.247 C 14.104 21.213,10.677 21.548,7.770 20.121 C 6.386 19.441,5.293 18.481,4.414 17.171 C 4.111 16.719,3.661 15.819,3.483 15.306 C 2.529 12.565,3.034 9.508,4.820 7.220 C 5.102 6.859,5.988 5.983,6.321 5.738 C 6.441 5.649,6.603 5.528,6.680 5.470 C 6.757 5.411,6.834 5.363,6.850 5.362 C 6.867 5.361,6.784 5.554,6.665 5.790 " stroke="none" fill-rule="evenodd" fill="black"></path></svg>