<svg width="24" height="24" viewBox="0 0 24 24" fill="none" xmlns="http://www.w3.org/2000/svg"><path d="M10.400 1.120 C 8.697 1.385,7.270 1.939,5.861 2.883 C 4.097 4.065,2.660 5.810,1.855 7.747 C 0.341 11.394,0.853 15.446,3.233 18.640 C 3.683 19.245,4.754 20.316,5.363 20.770 C 7.234 22.167,9.330 22.907,11.640 22.987 C 14.171 23.074,16.565 22.317,18.633 20.774 C 19.246 20.316,20.314 19.248,20.770 18.637 C 21.852 17.188,22.534 15.616,22.836 13.880 C 22.965 13.135,22.977 12.920,22.902 12.662 C 22.748 12.133,22.168 11.839,21.635 12.021 C 21.376 12.109,21.202 12.270,20.983 12.626 C 19.629 14.822,17.265 16.098,14.760 15.986 C 12.917 15.904,11.333 15.215,10.059 13.941 C 7.376 11.258,7.319 6.925,9.931 4.174 C 10.298 3.787,10.680 3.475,11.227 3.114 C 11.751 2.769,11.825 2.704,11.927 2.505 C 12.172 2.027,11.985 1.416,11.523 1.182 C 11.251 1.044,10.986 1.029,10.400 1.120 M6.963 4.970 C 6.354 6.181,6.058 7.342,6.011 8.700 C 5.925 11.192,6.875 13.594,8.643 15.358 C 9.388 16.101,10.072 16.592,11.020 17.061 C 12.366 17.729,13.806 18.041,15.300 17.989 C 16.658 17.942,17.819 17.646,19.030 17.037 C 19.366 16.869,19.640 16.738,19.640 16.748 C 19.640 16.789,19.281 17.294,19.009 17.635 C 17.102 20.025,14.022 21.295,10.992 20.941 C 7.912 20.580,5.261 18.706,3.920 15.940 C 3.280 14.621,3.023 13.493,3.023 12.000 C 3.023 10.504,3.281 9.372,3.921 8.060 C 4.609 6.647,5.603 5.489,6.900 4.586 C 7.076 4.463,7.231 4.362,7.245 4.362 C 7.258 4.361,7.131 4.635,6.963 4.970 " stroke="none" fill-rule="evenodd" fill="black"></path></svg>