<svg width="24" height="24" viewBox="0 0 24 24" fill="none" xmlns="http://www.w3.org/2000/svg"><path d="M7.860 1.054 C 7.655 1.122,6.992 1.457,6.580 1.700 C 3.751 3.369,1.698 6.365,1.165 9.600 C 0.751 12.117,1.125 14.532,2.282 16.800 C 3.381 18.955,5.261 20.786,7.460 21.843 C 9.654 22.898,12.015 23.236,14.400 22.837 C 17.489 22.320,20.313 20.468,22.049 17.820 C 22.488 17.151,22.965 16.194,22.990 15.932 C 23.016 15.658,22.915 15.365,22.726 15.171 C 22.365 14.799,21.985 14.767,21.300 15.050 C 19.571 15.766,17.666 15.949,15.807 15.577 C 14.421 15.300,12.956 14.620,11.823 13.730 C 11.395 13.394,10.490 12.468,10.170 12.040 C 9.191 10.729,8.578 9.282,8.341 7.720 C 8.250 7.124,8.220 6.041,8.277 5.440 C 8.367 4.488,8.575 3.636,8.943 2.714 C 9.062 2.414,9.160 2.107,9.160 2.031 C 9.160 1.649,8.922 1.265,8.586 1.105 C 8.386 1.011,8.059 0.988,7.860 1.054 M6.332 4.744 C 6.231 5.376,6.231 7.233,6.332 7.880 C 6.665 10.009,7.463 11.859,8.745 13.469 C 9.145 13.971,10.029 14.855,10.531 15.255 C 12.141 16.537,13.998 17.338,16.120 17.667 C 16.771 17.768,18.628 17.769,19.256 17.668 C 19.496 17.630,19.699 17.606,19.708 17.614 C 19.743 17.650,18.839 18.547,18.463 18.850 C 16.991 20.036,15.369 20.724,13.540 20.938 C 10.430 21.303,7.207 20.021,5.233 17.634 C 4.050 16.204,3.321 14.547,3.082 12.747 C 2.932 11.617,3.019 10.258,3.317 9.091 C 3.617 7.916,4.326 6.552,5.187 5.493 C 5.479 5.134,6.352 4.259,6.386 4.292 C 6.394 4.301,6.370 4.504,6.332 4.744 " stroke="none" fill-rule="evenodd" fill="black"></path></svg>