<svg width="24" height="24" viewBox="0 0 24 24" fill="none" xmlns="http://www.w3.org/2000/svg"><path d="M11.280 1.023 C 11.203 1.032,10.951 1.059,10.720 1.083 C 9.527 1.210,8.337 1.558,7.180 2.120 C 6.045 2.671,5.193 3.285,4.238 4.239 C 3.277 5.198,2.643 6.080,2.097 7.220 C 0.301 10.968,0.728 15.286,3.226 18.633 C 3.701 19.269,4.753 20.316,5.400 20.797 C 8.053 22.770,11.378 23.457,14.580 22.694 C 15.479 22.480,16.740 21.987,17.034 21.736 C 17.464 21.368,17.486 20.685,17.080 20.292 C 16.831 20.050,16.733 20.025,15.900 19.995 C 15.482 19.980,14.969 19.940,14.760 19.906 C 12.809 19.584,11.116 18.618,9.847 17.100 C 7.848 14.711,7.440 11.302,8.816 8.500 C 9.588 6.929,10.812 5.677,12.344 4.890 C 13.468 4.313,14.478 4.064,15.927 4.006 C 16.770 3.972,16.836 3.955,17.077 3.713 C 17.265 3.525,17.373 3.264,17.372 3.000 C 17.370 2.405,17.036 2.132,15.731 1.656 C 14.601 1.245,13.490 1.045,12.200 1.021 C 11.771 1.013,11.357 1.014,11.280 1.023 M11.560 3.017 C 11.560 3.026,11.410 3.115,11.227 3.215 C 10.364 3.685,9.658 4.219,8.919 4.958 C 6.106 7.773,5.241 11.936,6.695 15.654 C 7.199 16.942,7.921 18.042,8.919 19.042 C 9.668 19.792,10.387 20.335,11.242 20.796 C 11.450 20.907,11.593 20.999,11.560 20.999 C 11.381 21.001,10.431 20.870,10.092 20.797 C 9.099 20.582,7.861 20.061,7.040 19.511 C 5.157 18.249,3.791 16.312,3.267 14.160 C 3.081 13.397,3.023 12.888,3.023 12.000 C 3.023 10.507,3.280 9.379,3.920 8.060 C 5.316 5.181,8.084 3.304,11.340 3.027 C 11.428 3.020,11.513 3.010,11.530 3.007 C 11.547 3.003,11.560 3.008,11.560 3.017 M19.643 5.066 C 19.287 5.197,19.000 5.615,19.000 6.002 C 19.000 6.241,19.091 6.437,19.454 6.975 C 20.112 7.950,20.601 9.118,20.815 10.220 C 20.940 10.864,20.973 11.236,20.973 12.000 C 20.973 12.764,20.940 13.136,20.815 13.780 C 20.601 14.883,20.112 16.050,19.453 17.027 C 19.053 17.620,18.980 17.798,19.012 18.106 C 19.086 18.819,19.884 19.223,20.504 18.860 C 20.706 18.741,20.996 18.371,21.387 17.733 C 22.195 16.413,22.714 14.910,22.925 13.280 C 22.957 13.040,22.980 12.492,22.980 12.000 C 22.980 11.508,22.957 10.960,22.925 10.720 C 22.714 9.090,22.195 7.587,21.387 6.267 C 20.998 5.632,20.706 5.259,20.506 5.142 C 20.276 5.007,19.896 4.973,19.643 5.066 " stroke="none" fill-rule="evenodd" fill="black"></path></svg>