<svg width="24" height="24" viewBox="0 0 24 24" fill="none" xmlns="http://www.w3.org/2000/svg"><path d="M11.640 1.069 C 11.488 1.121,11.208 1.381,9.847 2.735 C 8.960 3.618,8.186 4.421,8.127 4.520 C 8.037 4.672,8.020 4.746,8.020 5.000 C 8.020 5.257,8.036 5.327,8.133 5.492 C 8.263 5.714,8.502 5.901,8.736 5.965 C 8.939 6.019,9.267 5.989,9.445 5.899 C 9.519 5.861,9.900 5.514,10.290 5.127 L 11.000 4.423 11.000 7.711 L 11.000 11.000 7.711 11.000 L 4.423 11.000 5.127 10.290 C 5.514 9.900,5.864 9.517,5.904 9.440 C 5.957 9.340,5.979 9.213,5.979 9.000 C 5.980 8.745,5.964 8.672,5.872 8.516 C 5.618 8.084,5.137 7.906,4.657 8.066 C 4.481 8.124,4.286 8.305,2.847 9.736 C 1.960 10.618,1.186 11.421,1.127 11.520 C 1.036 11.673,1.020 11.746,1.021 12.000 C 1.021 12.212,1.043 12.341,1.095 12.440 C 1.193 12.626,4.293 15.738,4.508 15.865 C 4.967 16.138,5.587 15.968,5.867 15.492 C 5.964 15.327,5.980 15.258,5.979 15.000 C 5.979 14.787,5.957 14.660,5.904 14.560 C 5.864 14.483,5.514 14.101,5.127 13.710 L 4.423 13.000 7.711 13.000 L 11.000 13.000 11.000 16.287 L 11.000 19.574 10.270 18.854 C 9.655 18.247,9.509 18.123,9.343 18.067 C 8.865 17.905,8.383 18.083,8.128 18.516 C 8.036 18.672,8.020 18.745,8.021 19.000 C 8.021 19.212,8.043 19.341,8.095 19.440 C 8.196 19.632,11.296 22.739,11.520 22.873 C 11.672 22.964,11.746 22.980,12.000 22.980 C 12.254 22.980,12.328 22.964,12.480 22.873 C 12.704 22.739,15.804 19.632,15.905 19.440 C 15.957 19.341,15.979 19.212,15.979 19.000 C 15.980 18.745,15.964 18.672,15.872 18.516 C 15.617 18.083,15.135 17.905,14.657 18.067 C 14.491 18.123,14.345 18.247,13.730 18.854 L 13.000 19.574 13.000 16.287 L 13.000 13.000 16.289 13.000 L 19.577 13.000 18.873 13.710 C 18.486 14.101,18.136 14.483,18.096 14.560 C 18.043 14.660,18.021 14.787,18.021 15.000 C 18.020 15.258,18.036 15.327,18.133 15.492 C 18.413 15.968,19.033 16.138,19.492 15.865 C 19.707 15.738,22.807 12.626,22.905 12.440 C 22.957 12.341,22.979 12.212,22.979 12.000 C 22.980 11.746,22.964 11.673,22.873 11.520 C 22.814 11.421,22.040 10.618,21.153 9.736 C 19.714 8.305,19.519 8.124,19.343 8.066 C 18.863 7.906,18.382 8.084,18.128 8.516 C 18.036 8.672,18.020 8.745,18.021 9.000 C 18.021 9.213,18.043 9.340,18.096 9.440 C 18.136 9.517,18.486 9.900,18.873 10.290 L 19.577 11.000 16.289 11.000 L 13.000 11.000 13.000 7.711 L 13.000 4.423 13.710 5.127 C 14.101 5.514,14.483 5.864,14.560 5.904 C 14.660 5.957,14.787 5.979,15.000 5.979 C 15.258 5.980,15.327 5.964,15.492 5.867 C 15.968 5.587,16.138 4.968,15.866 4.508 C 15.811 4.416,15.040 3.618,14.153 2.736 C 12.714 1.305,12.519 1.124,12.343 1.066 C 12.102 0.985,11.878 0.986,11.640 1.069 " stroke="none" fill-rule="evenodd" fill="black"></path></svg>