<svg width="24" height="24" viewBox="0 0 24 24" fill="none" xmlns="http://www.w3.org/2000/svg"><path d="M14.960 2.692 C 14.463 2.834,13.968 3.231,13.760 3.654 C 13.496 4.193,13.507 3.939,13.491 9.486 L 13.476 14.513 13.173 14.373 C 13.006 14.296,12.696 14.187,12.485 14.130 C 12.153 14.042,12.017 14.028,11.500 14.028 C 10.985 14.028,10.846 14.042,10.520 14.129 C 8.596 14.642,7.344 16.412,7.525 18.366 C 7.714 20.421,9.456 22.007,11.515 21.999 C 13.577 21.990,15.277 20.421,15.479 18.338 C 15.502 18.100,15.518 15.269,15.519 11.310 C 15.520 7.075,15.534 4.680,15.559 4.680 C 15.580 4.680,16.634 5.197,17.902 5.830 L 20.207 6.980 20.493 6.978 C 20.830 6.977,21.035 6.888,21.239 6.655 C 21.418 6.451,21.492 6.261,21.492 6.000 C 21.492 5.737,21.402 5.509,21.228 5.326 C 21.135 5.228,20.443 4.864,18.720 4.004 C 17.411 3.350,16.241 2.783,16.120 2.744 C 15.837 2.651,15.202 2.623,14.960 2.692 M6.240 3.035 C 5.941 3.133,5.693 3.351,5.573 3.620 C 5.512 3.758,5.500 3.933,5.488 4.888 L 5.473 5.995 4.347 6.008 C 3.280 6.019,3.211 6.025,3.060 6.106 C 2.707 6.297,2.512 6.615,2.512 7.000 C 2.512 7.405,2.719 7.724,3.100 7.905 C 3.295 7.997,3.327 7.999,4.387 8.000 L 5.473 8.000 5.488 9.110 C 5.500 10.067,5.512 10.242,5.573 10.380 C 5.731 10.735,6.127 10.999,6.500 10.999 C 6.873 10.999,7.269 10.735,7.427 10.380 C 7.488 10.242,7.500 10.067,7.512 9.110 L 7.527 8.000 8.613 8.000 C 9.673 7.999,9.705 7.997,9.900 7.905 C 10.281 7.724,10.488 7.405,10.488 7.000 C 10.488 6.615,10.293 6.297,9.940 6.106 C 9.789 6.025,9.720 6.019,8.653 6.008 L 7.527 5.995 7.512 4.888 C 7.500 3.933,7.488 3.758,7.427 3.620 C 7.337 3.418,7.145 3.216,6.943 3.112 C 6.771 3.024,6.399 2.983,6.240 3.035 M11.885 16.040 C 12.373 16.131,12.923 16.509,13.200 16.946 C 13.578 17.542,13.577 18.459,13.198 19.057 C 12.405 20.306,10.595 20.306,9.802 19.057 C 9.423 18.459,9.422 17.542,9.800 16.946 C 9.984 16.657,10.302 16.373,10.618 16.217 C 11.037 16.011,11.431 15.956,11.885 16.040 " stroke="none" fill-rule="evenodd" fill="black"></path></svg>