<svg width="24" height="24" viewBox="0 0 24 24" fill="none" xmlns="http://www.w3.org/2000/svg"><path d="M19.580 2.229 C 18.875 2.327,9.604 3.894,9.440 3.943 C 9.078 4.051,8.834 4.197,8.580 4.457 C 8.448 4.592,8.290 4.801,8.230 4.922 C 7.998 5.385,8.001 5.300,8.001 10.110 C 8.000 12.536,7.990 14.520,7.979 14.520 C 7.967 14.520,7.855 14.469,7.729 14.406 C 7.245 14.164,6.548 14.000,6.000 14.000 C 4.635 14.000,3.253 14.787,2.569 15.953 C 1.320 18.083,2.233 20.785,4.512 21.704 C 6.558 22.528,8.877 21.538,9.704 19.488 C 9.779 19.300,9.877 18.972,9.921 18.757 C 9.998 18.378,10.000 18.196,10.000 12.104 C 10.000 8.659,10.009 5.840,10.021 5.840 C 10.032 5.840,12.256 5.471,14.963 5.020 C 17.670 4.569,19.910 4.200,19.942 4.200 C 19.992 4.200,20.000 4.760,20.000 8.360 C 20.000 10.648,19.990 12.520,19.979 12.520 C 19.967 12.520,19.855 12.469,19.729 12.406 C 19.245 12.164,18.548 12.000,18.000 12.000 C 16.635 12.000,15.253 12.787,14.569 13.953 C 13.320 16.083,14.233 18.785,16.512 19.704 C 17.231 19.994,18.023 20.070,18.757 19.921 C 20.386 19.589,21.589 18.384,21.921 16.753 C 22.000 16.367,22.001 16.232,21.991 10.090 L 21.980 3.820 21.889 3.550 C 21.563 2.591,20.667 2.078,19.580 2.229 M18.523 14.073 C 19.262 14.266,19.850 14.924,19.967 15.690 C 20.067 16.343,19.873 16.933,19.403 17.404 C 19.002 17.807,18.547 18.000,18.000 18.000 C 17.485 18.000,17.038 17.822,16.653 17.465 C 15.323 16.229,16.189 14.005,18.000 14.005 C 18.143 14.005,18.378 14.036,18.523 14.073 M6.523 16.073 C 7.262 16.266,7.850 16.924,7.967 17.690 C 8.067 18.343,7.873 18.933,7.403 19.404 C 7.002 19.807,6.547 20.000,6.000 20.000 C 5.485 20.000,5.038 19.822,4.653 19.465 C 3.323 18.229,4.189 16.005,6.000 16.005 C 6.143 16.005,6.378 16.036,6.523 16.073 " stroke="none" fill-rule="evenodd" fill="black"></path></svg>