<svg width="24" height="24" viewBox="0 0 24 24" fill="none" xmlns="http://www.w3.org/2000/svg"><path d="M12.351 2.731 C 11.852 2.906,11.422 3.284,11.228 3.720 C 11.012 4.204,11.024 3.897,11.010 9.410 C 11.003 12.221,10.989 14.520,10.978 14.520 C 10.967 14.520,10.855 14.469,10.729 14.406 C 10.245 14.164,9.548 14.000,9.000 14.000 C 7.635 14.000,6.253 14.787,5.569 15.953 C 4.320 18.083,5.233 20.785,7.512 21.704 C 8.471 22.090,9.529 22.090,10.488 21.704 C 11.755 21.193,12.643 20.117,12.921 18.757 C 12.998 18.377,13.000 18.194,13.000 11.546 C 13.000 6.475,13.012 4.717,13.046 4.696 C 13.071 4.681,14.130 5.186,15.399 5.819 C 17.273 6.754,17.744 6.974,17.909 6.990 C 18.623 7.058,19.172 6.358,18.939 5.675 C 18.804 5.280,18.826 5.293,16.285 4.025 C 14.995 3.381,13.823 2.813,13.680 2.763 C 13.501 2.700,13.296 2.667,13.020 2.654 C 12.674 2.639,12.583 2.650,12.351 2.731 M9.523 16.073 C 10.262 16.266,10.850 16.924,10.967 17.690 C 11.067 18.343,10.873 18.933,10.403 19.404 C 10.002 19.807,9.547 20.000,9.000 20.000 C 8.485 20.000,8.038 19.822,7.653 19.465 C 6.323 18.229,7.189 16.005,9.000 16.005 C 9.143 16.005,9.378 16.036,9.523 16.073 " stroke="none" fill-rule="evenodd" fill="black"></path></svg>