<svg width="24" height="24" viewBox="0 0 24 24" fill="none" xmlns="http://www.w3.org/2000/svg"><path d="M20.686 1.463 C 20.494 1.517,3.739 8.041,2.708 8.463 C 1.968 8.766,1.646 9.030,1.475 9.477 C 1.355 9.788,1.358 10.218,1.481 10.540 C 1.605 10.864,1.920 11.175,2.320 11.368 C 2.485 11.448,4.204 12.128,6.140 12.880 C 8.076 13.631,9.681 14.267,9.707 14.293 C 9.733 14.319,10.369 15.924,11.120 17.860 C 11.872 19.796,12.552 21.515,12.632 21.680 C 12.825 22.080,13.136 22.395,13.460 22.519 C 13.958 22.710,14.554 22.612,14.934 22.277 C 15.177 22.063,15.350 21.767,15.600 21.140 C 16.592 18.653,22.489 3.478,22.541 3.278 C 22.731 2.549,22.429 1.856,21.782 1.539 C 21.496 1.399,21.027 1.367,20.686 1.463 M20.228 3.790 C 20.219 3.806,18.820 7.388,17.118 11.750 C 15.417 16.112,14.014 19.680,14.000 19.680 C 13.986 19.680,13.429 18.271,12.761 16.550 C 12.094 14.829,11.493 13.315,11.427 13.187 C 11.262 12.869,10.992 12.638,10.590 12.471 C 10.409 12.395,8.923 11.814,7.290 11.179 C 5.656 10.544,4.320 10.013,4.320 9.999 C 4.320 9.981,20.149 3.776,20.232 3.762 C 20.239 3.761,20.237 3.774,20.228 3.790 " stroke="none" fill-rule="evenodd" fill="black"></path></svg>