<svg width="24" height="24" viewBox="0 0 24 24" fill="none" xmlns="http://www.w3.org/2000/svg"><path d="M20.688 1.463 C 20.500 1.516,11.776 4.905,11.053 5.206 C 10.580 5.402,10.345 5.726,10.345 6.180 C 10.345 6.698,10.810 7.159,11.334 7.160 C 11.513 7.160,13.811 6.283,20.049 3.836 L 20.237 3.762 20.203 3.851 C 20.184 3.900,19.426 5.839,18.519 8.160 C 17.235 11.444,16.864 12.430,16.850 12.606 C 16.825 12.902,16.918 13.179,17.108 13.374 C 17.337 13.610,17.456 13.658,17.823 13.659 C 18.113 13.660,18.166 13.648,18.342 13.539 C 18.457 13.468,18.583 13.344,18.648 13.239 C 18.780 13.026,22.444 3.648,22.541 3.277 C 22.731 2.549,22.429 1.856,21.782 1.539 C 21.497 1.400,21.027 1.367,20.688 1.463 M2.695 2.057 C 2.466 2.129,2.256 2.299,2.128 2.516 C 2.036 2.672,2.020 2.745,2.021 3.000 C 2.021 3.212,2.043 3.341,2.095 3.440 C 2.135 3.517,2.987 4.401,3.989 5.405 C 4.990 6.409,5.793 7.239,5.774 7.251 C 5.755 7.262,5.038 7.546,4.180 7.881 C 2.269 8.627,2.085 8.713,1.797 8.999 C 1.507 9.286,1.389 9.575,1.389 10.000 C 1.389 10.609,1.703 11.069,2.320 11.368 C 2.485 11.448,4.204 12.128,6.140 12.880 C 8.076 13.631,9.681 14.267,9.707 14.293 C 9.733 14.319,10.369 15.924,11.120 17.860 C 11.872 19.796,12.552 21.515,12.632 21.680 C 12.931 22.297,13.391 22.611,14.000 22.611 C 14.425 22.611,14.714 22.493,15.001 22.203 C 15.290 21.913,15.380 21.719,16.121 19.820 C 16.455 18.962,16.738 18.245,16.749 18.226 C 16.761 18.207,17.591 19.010,18.595 20.011 C 19.599 21.013,20.483 21.865,20.560 21.905 C 20.752 22.006,21.247 22.007,21.432 21.907 C 21.639 21.795,21.867 21.535,21.937 21.331 C 22.017 21.095,22.017 20.905,21.935 20.657 C 21.875 20.475,21.181 19.770,12.705 11.293 C 3.702 2.288,3.536 2.125,3.323 2.063 C 3.066 1.988,2.919 1.987,2.695 2.057 M11.297 12.717 L 15.214 16.634 14.620 18.157 C 14.294 18.995,14.015 19.680,14.001 19.680 C 13.987 19.680,13.429 18.271,12.761 16.550 C 12.094 14.829,11.493 13.315,11.427 13.187 C 11.262 12.869,10.992 12.638,10.590 12.471 C 10.409 12.395,8.924 11.814,7.290 11.179 C 5.657 10.544,4.320 10.013,4.320 9.999 C 4.320 9.973,7.263 8.808,7.340 8.803 C 7.362 8.801,9.143 10.563,11.297 12.717 " stroke="none" fill-rule="evenodd" fill="black"></path></svg>