<svg width="24" height="24" viewBox="0 0 24 24" fill="none" xmlns="http://www.w3.org/2000/svg"><path d="M1.670 1.061 C 1.448 1.142,1.250 1.309,1.128 1.516 C 1.036 1.672,1.020 1.745,1.021 2.000 C 1.021 2.212,1.043 2.341,1.095 2.440 C 1.135 2.517,2.650 4.065,4.462 5.880 L 7.755 9.180 5.315 14.740 C 3.972 17.798,2.827 20.435,2.769 20.600 C 2.636 20.977,2.621 21.445,2.733 21.719 C 2.915 22.164,3.304 22.506,3.759 22.623 C 4.050 22.697,4.406 22.658,4.810 22.505 C 4.948 22.453,6.621 21.723,8.528 20.884 L 11.996 19.358 15.506 20.902 C 17.437 21.751,19.152 22.492,19.318 22.548 C 19.755 22.695,20.138 22.694,20.468 22.544 C 20.604 22.482,20.747 22.397,20.784 22.355 C 20.851 22.282,20.862 22.288,21.137 22.554 C 21.519 22.924,21.629 22.978,22.000 22.979 C 22.258 22.980,22.327 22.964,22.492 22.867 C 22.968 22.587,23.139 21.967,22.865 21.508 C 22.810 21.416,18.215 16.793,12.653 11.235 C 3.300 1.889,2.525 1.125,2.343 1.065 C 2.107 0.987,1.874 0.986,1.670 1.061 M11.500 1.830 C 11.198 1.963,11.089 2.038,10.930 2.219 C 10.718 2.459,10.581 2.730,9.997 4.060 C 9.601 4.962,9.502 5.225,9.488 5.411 C 9.427 6.202,10.255 6.720,10.962 6.335 C 11.222 6.194,11.322 6.036,11.683 5.203 C 11.846 4.829,11.991 4.535,12.006 4.551 C 12.022 4.567,12.685 6.064,13.480 7.877 C 15.059 11.479,15.069 11.500,15.207 11.628 C 15.361 11.772,15.681 11.895,15.900 11.895 C 16.119 11.895,16.439 11.772,16.593 11.628 C 16.811 11.425,16.941 11.010,16.876 10.721 C 16.837 10.547,13.771 3.509,13.411 2.768 C 13.202 2.337,12.958 2.062,12.636 1.896 C 12.453 1.802,12.363 1.783,12.040 1.772 C 11.744 1.763,11.625 1.775,11.500 1.830 M14.000 15.421 C 18.473 19.895,18.688 20.118,18.460 20.017 C 18.328 19.959,16.951 19.353,15.400 18.670 C 13.849 17.987,12.501 17.404,12.404 17.374 C 12.153 17.297,11.795 17.307,11.529 17.398 C 11.403 17.441,9.914 18.087,8.220 18.833 C 6.526 19.580,5.135 20.187,5.129 20.181 C 5.113 20.167,9.257 10.721,9.280 10.721 C 9.291 10.720,11.415 12.836,14.000 15.421 " stroke="none" fill-rule="evenodd" fill="black"></path></svg>