<svg width="24" height="24" viewBox="0 0 24 24" fill="none" xmlns="http://www.w3.org/2000/svg"><path d="M11.500 1.830 C 11.070 2.020,10.866 2.217,10.629 2.670 C 10.423 3.065,2.929 20.159,2.786 20.560 C 2.637 20.979,2.616 21.433,2.733 21.719 C 2.915 22.164,3.304 22.506,3.759 22.623 C 4.050 22.697,4.406 22.658,4.810 22.505 C 4.948 22.453,6.621 21.723,8.528 20.884 L 11.996 19.358 15.506 20.902 C 17.437 21.751,19.152 22.492,19.318 22.548 C 19.955 22.763,20.491 22.655,20.912 22.227 C 21.330 21.802,21.445 21.269,21.247 20.667 C 21.153 20.382,13.727 3.417,13.412 2.768 C 13.202 2.337,12.957 2.062,12.636 1.896 C 12.453 1.802,12.363 1.783,12.040 1.772 C 11.744 1.763,11.625 1.775,11.500 1.830 M15.421 12.300 C 17.284 16.546,18.823 20.059,18.842 20.108 C 18.883 20.213,19.270 20.374,15.394 18.668 C 13.818 17.974,12.459 17.387,12.374 17.363 C 12.137 17.297,11.781 17.312,11.529 17.398 C 11.403 17.441,9.914 18.087,8.220 18.833 C 6.526 19.580,5.135 20.187,5.130 20.182 C 5.124 20.177,6.663 16.652,8.550 12.349 C 10.436 8.046,11.992 4.538,12.007 4.553 C 12.022 4.568,13.558 8.054,15.421 12.300 " stroke="none" fill-rule="evenodd" fill="black"></path></svg>