<svg width="24" height="24" viewBox="0 0 24 24" fill="none" xmlns="http://www.w3.org/2000/svg"><path d="M17.358 2.061 C 16.241 2.235,15.156 2.965,14.579 3.932 C 14.384 4.258,14.185 4.756,14.094 5.146 C 13.992 5.578,13.992 6.422,14.094 6.854 C 14.452 8.385,15.615 9.548,17.146 9.906 C 17.578 10.008,18.422 10.008,18.854 9.906 C 20.385 9.548,21.548 8.385,21.906 6.854 C 22.008 6.422,22.008 5.578,21.906 5.146 C 21.687 4.212,21.161 3.388,20.432 2.839 C 19.866 2.412,19.274 2.159,18.605 2.058 C 18.144 1.989,17.816 1.990,17.358 2.061 M5.920 3.042 C 5.155 3.091,4.674 3.204,4.180 3.451 C 3.089 3.996,2.357 4.961,2.124 6.160 C 2.014 6.724,2.000 7.447,2.000 12.500 C 2.000 18.321,2.008 18.533,2.245 19.320 C 2.577 20.422,3.578 21.423,4.680 21.755 C 5.467 21.992,5.679 22.000,11.500 22.000 C 17.321 22.000,17.533 21.992,18.320 21.755 C 19.422 21.423,20.425 20.421,20.755 19.320 C 20.978 18.576,21.007 18.072,20.992 15.160 L 20.980 12.700 20.871 12.514 C 20.479 11.848,19.521 11.848,19.129 12.514 L 19.020 12.700 18.995 15.460 C 18.968 18.425,18.961 18.523,18.752 18.952 C 18.626 19.211,18.190 19.638,17.918 19.768 C 17.468 19.984,17.587 19.980,11.500 19.980 C 5.422 19.980,5.536 19.984,5.082 19.771 C 4.812 19.643,4.377 19.217,4.248 18.952 C 4.198 18.849,4.126 18.633,4.088 18.472 C 4.026 18.204,4.020 17.715,4.020 12.500 C 4.020 7.285,4.026 6.796,4.088 6.528 C 4.126 6.367,4.198 6.151,4.248 6.048 C 4.366 5.806,4.806 5.366,5.048 5.248 C 5.477 5.039,5.575 5.032,8.540 5.005 L 11.300 4.980 11.492 4.867 C 12.248 4.423,12.123 3.306,11.290 3.055 C 11.143 3.011,10.644 3.001,8.744 3.006 C 7.444 3.009,6.173 3.025,5.920 3.042 M18.523 4.073 C 19.262 4.266,19.850 4.924,19.967 5.690 C 20.067 6.343,19.873 6.933,19.403 7.404 C 19.109 7.699,18.844 7.852,18.471 7.940 C 17.801 8.098,17.151 7.928,16.653 7.465 C 16.366 7.198,16.164 6.870,16.073 6.523 C 15.683 5.028,17.028 3.683,18.523 4.073 M6.695 12.057 C 6.466 12.129,6.256 12.299,6.128 12.516 C 6.037 12.672,6.020 12.746,6.020 13.000 C 6.020 13.256,6.036 13.328,6.131 13.489 C 6.256 13.702,6.449 13.864,6.670 13.943 C 6.892 14.022,15.108 14.022,15.330 13.943 C 15.551 13.864,15.744 13.702,15.869 13.489 C 15.964 13.328,15.980 13.256,15.980 13.000 C 15.980 12.746,15.963 12.672,15.872 12.516 C 15.740 12.293,15.533 12.128,15.290 12.055 C 15.029 11.976,6.946 11.979,6.695 12.057 M6.695 16.057 C 6.466 16.129,6.256 16.299,6.128 16.516 C 6.037 16.672,6.020 16.746,6.020 17.000 C 6.020 17.256,6.036 17.328,6.131 17.489 C 6.256 17.702,6.449 17.864,6.670 17.943 C 6.891 18.022,13.109 18.022,13.330 17.943 C 13.551 17.864,13.744 17.702,13.869 17.489 C 13.964 17.328,13.980 17.256,13.980 17.000 C 13.980 16.746,13.963 16.672,13.872 16.516 C 13.740 16.293,13.533 16.128,13.290 16.055 C 13.030 15.977,6.945 15.979,6.695 16.057 " stroke="none" fill-rule="evenodd" fill="black"></path></svg>