<svg width="24" height="24" viewBox="0 0 24 24" fill="none" xmlns="http://www.w3.org/2000/svg"><path d="M7.980 1.027 C 7.769 1.057,7.471 1.168,7.242 1.303 C 7.084 1.397,6.196 2.260,4.172 4.287 C 1.715 6.749,1.310 7.170,1.224 7.360 C 0.992 7.869,1.000 7.713,1.000 12.000 C 1.000 16.286,0.992 16.131,1.224 16.640 C 1.310 16.830,1.715 17.252,4.232 19.768 C 6.748 22.285,7.170 22.690,7.360 22.776 C 7.869 23.008,7.714 23.000,12.000 23.000 C 16.286 23.000,16.131 23.008,16.640 22.776 C 16.830 22.690,17.252 22.285,19.768 19.768 C 22.285 17.252,22.690 16.830,22.776 16.640 C 23.008 16.131,23.000 16.286,23.000 12.000 C 23.000 7.713,23.008 7.869,22.776 7.360 C 22.690 7.170,22.285 6.749,19.828 4.287 C 16.926 1.381,16.816 1.280,16.340 1.098 C 16.148 1.024,15.981 1.021,12.120 1.016 C 9.909 1.013,8.046 1.018,7.980 1.027 M18.370 5.630 L 21.000 8.260 21.000 12.000 L 21.000 15.740 18.370 18.370 L 15.740 21.000 12.000 21.000 L 8.260 21.000 5.630 18.370 L 3.000 15.740 3.000 12.000 L 3.000 8.260 5.630 5.630 L 8.260 3.000 12.000 3.000 L 15.740 3.000 18.370 5.630 " stroke="none" fill-rule="evenodd" fill="black"></path></svg>