<svg width="24" height="24" viewBox="0 0 24 24" fill="none" xmlns="http://www.w3.org/2000/svg"><path d="M11.419 1.241 C 11.167 1.321,3.165 5.742,2.836 5.983 C 2.414 6.292,2.159 6.676,2.058 7.155 C 1.974 7.548,1.974 16.452,2.058 16.845 C 2.171 17.381,2.492 17.813,3.018 18.139 C 3.557 18.473,11.090 22.638,11.314 22.726 C 11.625 22.849,12.232 22.875,12.529 22.779 C 12.879 22.666,13.529 22.311,13.703 22.137 C 13.973 21.870,14.065 21.475,13.941 21.122 C 13.817 20.773,13.573 20.559,13.199 20.472 L 13.000 20.426 13.001 16.503 L 13.003 12.580 16.464 10.660 C 18.368 9.604,19.943 8.734,19.963 8.727 C 19.985 8.719,20.000 9.505,20.000 10.707 L 20.001 12.700 20.095 12.900 C 20.276 13.281,20.595 13.488,21.000 13.488 C 21.405 13.488,21.724 13.281,21.905 12.900 L 21.999 12.700 21.999 10.060 C 21.999 7.200,21.992 7.098,21.781 6.681 C 21.657 6.438,21.424 6.173,21.164 5.983 C 20.808 5.722,12.833 1.321,12.568 1.239 C 12.233 1.136,11.748 1.137,11.419 1.241 M15.509 5.092 C 17.383 6.130,18.918 6.989,18.918 7.000 C 18.919 7.017,17.969 7.552,16.841 8.169 L 16.496 8.357 13.060 6.449 C 11.170 5.399,9.625 4.522,9.627 4.500 C 9.633 4.435,11.972 3.156,12.039 3.181 C 12.073 3.193,13.634 4.053,15.509 5.092 M11.075 7.629 C 12.888 8.637,14.371 9.479,14.371 9.501 C 14.373 9.556,12.075 10.838,11.993 10.828 C 11.918 10.819,5.081 7.032,5.082 7.000 C 5.082 6.989,5.626 6.680,6.290 6.313 L 7.497 5.647 7.638 5.721 C 7.716 5.762,9.263 6.620,11.075 7.629 M7.536 10.660 L 10.997 12.580 10.999 16.433 C 11.000 18.979,10.986 20.282,10.960 20.273 C 10.938 20.266,9.363 19.396,7.461 18.340 L 4.001 16.420 4.001 12.567 C 4.000 10.227,4.015 8.719,4.037 8.727 C 4.057 8.734,5.632 9.604,7.536 10.660 M16.240 15.035 C 15.784 15.184,15.512 15.546,15.512 16.003 C 15.512 16.394,15.584 16.493,16.616 17.520 C 17.135 18.037,17.560 18.478,17.560 18.500 C 17.560 18.522,17.135 18.963,16.616 19.480 C 15.954 20.139,15.648 20.472,15.592 20.595 C 15.493 20.811,15.487 21.164,15.578 21.382 C 15.723 21.730,16.126 22.000,16.500 21.999 C 16.868 21.998,16.986 21.911,18.030 20.869 L 19.000 19.901 19.970 20.869 C 21.014 21.911,21.132 21.998,21.500 21.999 C 21.874 22.000,22.277 21.730,22.422 21.382 C 22.513 21.164,22.507 20.811,22.408 20.595 C 22.352 20.472,22.046 20.139,21.384 19.480 C 20.865 18.963,20.440 18.522,20.440 18.500 C 20.440 18.478,20.865 18.037,21.384 17.520 C 22.416 16.493,22.488 16.394,22.488 16.003 C 22.488 15.615,22.293 15.296,21.940 15.108 C 21.729 14.995,21.284 14.989,21.080 15.095 C 21.003 15.135,20.503 15.602,19.970 16.134 L 19.000 17.099 18.030 16.134 C 17.497 15.602,16.999 15.137,16.924 15.100 C 16.768 15.022,16.389 14.986,16.240 15.035 " stroke="none" fill-rule="evenodd" fill="black"></path></svg>