<svg width="24" height="24" viewBox="0 0 24 24" fill="none" xmlns="http://www.w3.org/2000/svg"><path d="M11.420 1.241 C 11.288 1.283,10.478 1.707,9.620 2.183 C 8.762 2.660,7.808 3.188,7.500 3.358 C 5.153 4.654,2.990 5.871,2.836 5.983 C 2.415 6.292,2.159 6.676,2.058 7.155 C 1.974 7.548,1.974 16.452,2.058 16.845 C 2.171 17.381,2.492 17.813,3.018 18.139 C 3.538 18.461,11.086 22.636,11.314 22.729 C 11.504 22.805,11.614 22.820,12.000 22.820 C 12.386 22.820,12.496 22.805,12.686 22.729 C 12.914 22.636,20.462 18.461,20.982 18.139 C 21.322 17.928,21.633 17.609,21.779 17.322 C 22.002 16.881,21.999 16.969,21.999 12.000 C 21.999 7.036,22.002 7.118,21.781 6.681 C 21.657 6.438,21.424 6.173,21.164 5.983 C 20.808 5.722,12.833 1.321,12.568 1.239 C 12.234 1.136,11.748 1.137,11.420 1.241 M15.509 5.092 C 17.383 6.130,18.918 6.989,18.918 7.000 C 18.919 7.030,16.555 8.333,16.500 8.333 C 16.452 8.333,9.553 4.513,9.571 4.497 C 9.576 4.492,10.120 4.189,10.779 3.823 C 11.472 3.439,12.004 3.168,12.039 3.181 C 12.073 3.193,13.634 4.053,15.509 5.092 M11.040 7.611 C 12.899 8.643,14.424 9.492,14.429 9.497 C 14.453 9.519,12.023 10.842,11.978 10.832 C 11.903 10.815,5.081 7.024,5.082 7.000 C 5.082 6.989,5.626 6.680,6.290 6.313 C 7.323 5.743,7.509 5.653,7.579 5.690 C 7.623 5.714,9.181 6.578,11.040 7.611 M7.536 10.660 L 10.997 12.580 10.999 16.433 C 11.000 18.979,10.986 20.282,10.960 20.273 C 10.938 20.266,9.363 19.396,7.461 18.340 L 4.001 16.420 4.001 12.567 C 4.000 10.227,4.015 8.719,4.037 8.727 C 4.057 8.734,5.632 9.604,7.536 10.660 M19.999 12.570 L 19.999 16.420 16.539 18.340 C 14.637 19.396,13.062 20.266,13.040 20.273 C 13.014 20.282,13.001 18.980,13.001 16.433 L 13.003 12.580 16.471 10.653 C 18.379 9.593,19.953 8.725,19.970 8.723 C 19.987 8.721,20.000 10.453,19.999 12.570 " stroke="none" fill-rule="evenodd" fill="black"></path></svg>