<svg width="24" height="24" viewBox="0 0 24 24" fill="none" xmlns="http://www.w3.org/2000/svg"><path d="M11.419 1.241 C 11.167 1.321,3.165 5.742,2.836 5.983 C 2.414 6.292,2.159 6.676,2.058 7.155 C 1.974 7.548,1.974 16.452,2.058 16.845 C 2.171 17.381,2.492 17.813,3.018 18.139 C 3.538 18.461,11.086 22.636,11.314 22.729 C 11.639 22.859,12.358 22.861,12.680 22.731 C 13.006 22.599,14.562 21.730,14.694 21.607 C 15.173 21.157,15.060 20.340,14.474 20.020 C 14.296 19.924,14.215 19.904,13.994 19.906 C 13.756 19.908,13.692 19.928,13.384 20.094 C 13.195 20.196,13.032 20.280,13.020 20.280 C 13.009 20.280,13.001 18.547,13.001 16.430 L 13.003 12.580 16.464 10.660 C 18.368 9.604,19.943 8.734,19.963 8.727 C 19.985 8.719,20.000 9.505,20.000 10.707 L 20.001 12.700 20.095 12.900 C 20.276 13.281,20.595 13.488,21.000 13.488 C 21.405 13.488,21.724 13.281,21.905 12.900 L 21.999 12.700 21.999 10.060 C 21.999 7.200,21.992 7.098,21.781 6.681 C 21.657 6.438,21.424 6.173,21.164 5.983 C 20.808 5.722,12.833 1.321,12.568 1.239 C 12.233 1.136,11.748 1.137,11.419 1.241 M15.509 5.092 C 17.383 6.130,18.918 6.989,18.918 7.000 C 18.919 7.017,17.969 7.552,16.841 8.169 L 16.496 8.357 13.060 6.449 C 11.170 5.399,9.625 4.522,9.627 4.500 C 9.633 4.435,11.972 3.156,12.039 3.181 C 12.073 3.193,13.634 4.053,15.509 5.092 M11.075 7.629 C 12.888 8.637,14.371 9.479,14.371 9.501 C 14.373 9.556,12.075 10.838,11.993 10.828 C 11.918 10.819,5.081 7.032,5.082 7.000 C 5.082 6.989,5.626 6.680,6.290 6.313 L 7.497 5.647 7.638 5.721 C 7.716 5.762,9.263 6.620,11.075 7.629 M7.536 10.660 L 10.997 12.580 10.999 16.433 C 11.000 18.979,10.986 20.282,10.960 20.273 C 10.938 20.266,9.363 19.396,7.461 18.340 L 4.001 16.420 4.001 12.567 C 4.000 10.227,4.015 8.719,4.037 8.727 C 4.057 8.734,5.632 9.604,7.536 10.660 M21.660 15.066 C 21.476 15.122,21.321 15.265,19.731 16.851 L 18.002 18.575 17.268 17.851 C 16.603 17.195,16.515 17.122,16.320 17.064 C 16.057 16.986,15.946 16.984,15.710 17.055 C 15.467 17.128,15.260 17.293,15.128 17.516 C 15.036 17.672,15.020 17.745,15.021 18.000 C 15.021 18.213,15.043 18.341,15.095 18.440 C 15.197 18.633,17.297 20.740,17.520 20.873 C 17.673 20.964,17.745 20.980,18.000 20.979 C 18.212 20.979,18.341 20.957,18.440 20.905 C 18.632 20.805,22.739 16.705,22.873 16.480 C 22.964 16.328,22.980 16.254,22.980 16.000 C 22.980 15.746,22.963 15.672,22.872 15.516 C 22.740 15.293,22.533 15.128,22.290 15.055 C 22.062 14.986,21.914 14.989,21.660 15.066 " stroke="none" fill-rule="evenodd" fill="black"></path></svg>