<svg width="24" height="24" viewBox="0 0 24 24" fill="none" xmlns="http://www.w3.org/2000/svg"><path d="M11.419 1.241 C 11.167 1.321,3.165 5.742,2.836 5.983 C 2.414 6.292,2.159 6.676,2.058 7.155 C 1.974 7.548,1.974 16.452,2.058 16.845 C 2.171 17.381,2.492 17.813,3.018 18.139 C 3.538 18.461,11.086 22.636,11.314 22.729 C 11.639 22.859,12.358 22.861,12.680 22.731 C 13.006 22.599,14.562 21.730,14.694 21.607 C 15.173 21.157,15.060 20.340,14.474 20.020 C 14.296 19.924,14.215 19.904,13.994 19.906 C 13.756 19.908,13.692 19.928,13.384 20.094 C 13.195 20.196,13.032 20.280,13.020 20.280 C 13.009 20.280,13.001 18.547,13.001 16.430 L 13.003 12.580 16.464 10.660 C 18.368 9.604,19.942 8.734,19.962 8.727 C 19.982 8.720,20.002 9.687,20.009 11.010 L 20.020 13.306 20.141 13.503 C 20.543 14.156,21.457 14.156,21.859 13.503 L 21.980 13.306 21.991 10.403 C 21.999 8.410,21.989 7.417,21.959 7.234 C 21.875 6.734,21.602 6.304,21.164 5.983 C 20.808 5.722,12.833 1.321,12.568 1.239 C 12.233 1.136,11.748 1.137,11.419 1.241 M15.509 5.092 C 17.383 6.130,18.918 6.989,18.918 7.000 C 18.919 7.017,17.969 7.552,16.841 8.169 L 16.496 8.357 13.060 6.449 C 11.170 5.399,9.625 4.522,9.627 4.500 C 9.633 4.435,11.972 3.156,12.039 3.181 C 12.073 3.193,13.634 4.053,15.509 5.092 M11.075 7.629 C 12.888 8.637,14.371 9.479,14.371 9.501 C 14.373 9.556,12.075 10.838,11.993 10.828 C 11.918 10.819,5.081 7.032,5.082 7.000 C 5.082 6.989,5.626 6.680,6.290 6.313 L 7.497 5.647 7.638 5.721 C 7.716 5.762,9.263 6.620,11.075 7.629 M7.536 10.660 L 10.997 12.580 10.999 16.433 C 11.000 18.979,10.986 20.282,10.960 20.273 C 10.938 20.266,9.363 19.396,7.461 18.340 L 4.001 16.420 4.001 12.567 C 4.000 10.227,4.015 8.719,4.037 8.727 C 4.057 8.734,5.632 9.604,7.536 10.660 M15.695 17.057 C 15.466 17.129,15.256 17.299,15.128 17.516 C 15.037 17.672,15.020 17.746,15.020 18.000 C 15.020 18.256,15.036 18.328,15.131 18.489 C 15.256 18.702,15.449 18.864,15.670 18.943 C 15.891 19.022,22.109 19.022,22.330 18.943 C 22.551 18.864,22.744 18.702,22.869 18.489 C 22.964 18.328,22.980 18.256,22.980 18.000 C 22.980 17.746,22.963 17.672,22.872 17.516 C 22.740 17.293,22.533 17.128,22.290 17.055 C 22.030 16.977,15.945 16.979,15.695 17.057 " stroke="none" fill-rule="evenodd" fill="black"></path></svg>