<svg width="24" height="24" viewBox="0 0 24 24" fill="none" xmlns="http://www.w3.org/2000/svg"><path d="M11.419 1.241 C 11.167 1.321,3.165 5.742,2.836 5.983 C 2.414 6.292,2.159 6.676,2.058 7.155 C 1.974 7.548,1.974 16.452,2.058 16.845 C 2.171 17.381,2.492 17.813,3.018 18.139 C 3.557 18.473,11.090 22.638,11.314 22.726 C 11.625 22.849,12.232 22.875,12.529 22.779 C 12.879 22.666,13.529 22.311,13.703 22.137 C 13.973 21.870,14.065 21.475,13.941 21.122 C 13.817 20.773,13.573 20.559,13.199 20.472 L 13.000 20.426 13.001 16.503 L 13.003 12.580 16.464 10.660 C 18.368 9.604,19.942 8.734,19.961 8.727 C 19.982 8.720,20.002 9.492,20.008 10.510 L 20.020 12.306 20.141 12.503 C 20.543 13.156,21.457 13.156,21.859 12.503 L 21.980 12.306 21.992 9.903 C 21.999 8.272,21.989 7.415,21.959 7.234 C 21.875 6.734,21.602 6.304,21.164 5.983 C 20.808 5.722,12.833 1.321,12.568 1.239 C 12.233 1.136,11.748 1.137,11.419 1.241 M15.509 5.092 C 17.383 6.130,18.918 6.989,18.918 7.000 C 18.919 7.017,17.969 7.552,16.841 8.169 L 16.496 8.357 13.060 6.449 C 11.170 5.399,9.625 4.522,9.627 4.500 C 9.633 4.435,11.972 3.156,12.039 3.181 C 12.073 3.193,13.634 4.053,15.509 5.092 M11.075 7.629 C 12.888 8.637,14.371 9.479,14.371 9.501 C 14.373 9.556,12.075 10.838,11.993 10.828 C 11.918 10.819,5.081 7.032,5.082 7.000 C 5.082 6.989,5.626 6.680,6.290 6.313 L 7.497 5.647 7.638 5.721 C 7.716 5.762,9.263 6.620,11.075 7.629 M7.536 10.660 L 10.997 12.580 10.999 16.433 C 11.000 18.979,10.986 20.282,10.960 20.273 C 10.938 20.266,9.363 19.396,7.461 18.340 L 4.001 16.420 4.001 12.567 C 4.000 10.227,4.015 8.719,4.037 8.727 C 4.057 8.734,5.632 9.604,7.536 10.660 M18.358 14.061 C 17.230 14.237,16.143 14.974,15.569 15.953 C 14.320 18.083,15.233 20.785,17.512 21.704 C 18.460 22.086,19.466 22.090,20.471 21.717 L 20.722 21.623 21.091 21.990 C 21.502 22.398,21.666 22.488,22.000 22.488 C 22.405 22.488,22.724 22.281,22.905 21.900 C 23.109 21.469,22.994 21.082,22.528 20.625 L 22.247 20.349 22.407 20.088 C 22.769 19.497,23.000 18.684,23.000 18.000 C 23.000 17.327,22.776 16.525,22.421 15.932 C 21.834 14.949,20.756 14.232,19.605 14.058 C 19.144 13.989,18.816 13.990,18.358 14.061 M19.523 16.073 C 20.262 16.266,20.850 16.924,20.967 17.690 C 21.067 18.343,20.873 18.933,20.403 19.404 C 20.002 19.807,19.547 20.000,19.000 20.000 C 18.485 20.000,18.038 19.822,17.653 19.465 C 16.323 18.229,17.189 16.005,19.000 16.005 C 19.143 16.005,19.378 16.036,19.523 16.073 " stroke="none" fill-rule="evenodd" fill="black"></path></svg>