<svg width="24" height="24" viewBox="0 0 24 24" fill="none" xmlns="http://www.w3.org/2000/svg"><path d="M7.670 1.061 C 7.448 1.142,7.250 1.309,7.128 1.516 C 7.036 1.672,7.020 1.745,7.021 2.000 C 7.022 2.354,7.076 2.476,7.372 2.789 L 7.574 3.003 4.614 5.971 C 2.987 7.604,1.561 9.066,1.446 9.220 C 1.014 9.801,0.841 10.309,0.841 11.000 C 0.841 11.690,1.014 12.197,1.446 12.780 C 1.717 13.145,6.855 18.283,7.220 18.554 C 7.803 18.986,8.310 19.159,9.000 19.159 C 9.690 19.159,10.198 18.986,10.780 18.554 C 11.206 18.237,17.077 12.357,17.271 12.053 C 17.678 11.414,17.677 10.585,17.270 9.947 C 17.159 9.772,15.860 8.447,12.826 5.413 C 8.643 1.229,8.535 1.125,8.323 1.063 C 8.062 0.987,7.872 0.987,7.670 1.061 M11.800 7.220 L 14.580 10.000 9.000 10.000 L 3.420 10.000 6.200 7.220 C 7.729 5.691,8.989 4.440,9.000 4.440 C 9.011 4.440,10.271 5.691,11.800 7.220 M12.080 14.494 C 10.208 16.361,9.534 17.009,9.397 17.074 C 9.156 17.188,8.844 17.188,8.603 17.074 C 8.466 17.009,7.792 16.361,5.920 14.494 L 3.420 12.001 9.000 12.001 L 14.580 12.001 12.080 14.494 M19.673 12.056 C 19.491 12.121,19.292 12.279,18.978 12.607 C 17.915 13.717,17.276 14.684,17.072 15.494 C 16.875 16.270,17.121 17.240,17.679 17.891 C 18.107 18.391,18.570 18.702,19.160 18.886 C 19.418 18.967,19.539 18.980,20.020 18.977 C 20.508 18.974,20.620 18.961,20.887 18.872 C 22.087 18.474,22.913 17.425,22.988 16.202 C 23.006 15.892,22.995 15.758,22.927 15.490 C 22.793 14.961,22.401 14.238,21.924 13.640 C 21.591 13.223,21.018 12.587,20.775 12.364 C 20.402 12.023,20.046 11.923,19.673 12.056 M20.238 14.741 C 20.542 15.116,20.858 15.599,20.941 15.817 C 21.003 15.979,21.006 16.033,20.965 16.212 C 20.728 17.239,19.306 17.255,19.035 16.233 C 18.974 16.005,19.014 15.847,19.224 15.494 C 19.393 15.209,19.947 14.480,19.994 14.480 C 20.012 14.480,20.121 14.597,20.238 14.741 M1.695 21.057 C 1.466 21.129,1.256 21.299,1.128 21.516 C 1.037 21.672,1.020 21.746,1.020 22.000 C 1.020 22.257,1.036 22.327,1.133 22.492 C 1.261 22.710,1.502 22.901,1.722 22.961 C 1.821 22.987,3.997 22.997,8.086 22.990 C 13.987 22.981,14.307 22.976,14.432 22.908 C 14.759 22.729,15.000 22.344,15.000 22.000 C 15.000 21.595,14.691 21.174,14.310 21.061 C 14.131 21.007,13.353 21.000,7.983 21.003 C 3.094 21.005,1.827 21.016,1.695 21.057 " stroke="none" fill-rule="evenodd" fill="black"></path></svg>