<svg width="24" height="24" viewBox="0 0 24 24" fill="none" xmlns="http://www.w3.org/2000/svg"><path d="M11.280 1.023 C 11.203 1.032,10.951 1.059,10.720 1.083 C 8.832 1.283,6.991 2.023,5.360 3.235 C 4.751 3.688,3.684 4.755,3.226 5.367 C 0.728 8.714,0.301 13.032,2.097 16.780 C 2.642 17.918,3.276 18.800,4.238 19.763 C 5.202 20.728,6.132 21.391,7.290 21.938 C 8.732 22.620,10.390 22.999,11.934 23.000 C 13.903 23.000,15.529 21.678,15.921 19.757 C 15.984 19.447,16.000 19.208,16.000 18.590 C 16.000 17.457,16.112 17.085,16.599 16.599 C 17.085 16.112,17.457 16.000,18.590 16.000 C 19.208 16.000,19.447 15.984,19.757 15.921 C 21.678 15.529,23.000 13.903,23.000 11.934 C 22.999 9.620,22.209 7.290,20.770 5.363 C 20.316 4.755,19.247 3.686,18.640 3.235 C 17.045 2.049,15.365 1.360,13.423 1.096 C 13.000 1.038,11.574 0.990,11.280 1.023 M13.320 3.101 C 15.883 3.488,18.124 4.931,19.560 7.120 C 20.052 7.870,20.516 8.945,20.733 9.840 C 20.944 10.705,21.049 11.841,20.964 12.342 C 20.849 13.027,20.352 13.626,19.684 13.886 C 19.484 13.963,19.351 13.976,18.460 14.002 C 17.369 14.033,17.032 14.082,16.527 14.283 C 15.354 14.751,14.454 15.766,14.135 16.980 C 14.041 17.338,14.027 17.486,14.000 18.400 C 13.966 19.540,13.942 19.670,13.688 20.063 C 13.404 20.501,12.978 20.814,12.492 20.940 C 12.062 21.052,10.977 20.987,10.092 20.797 C 9.099 20.582,7.861 20.061,7.040 19.511 C 5.157 18.249,3.791 16.312,3.267 14.160 C 3.081 13.397,3.023 12.888,3.023 12.000 C 3.023 10.507,3.280 9.379,3.920 8.060 C 4.971 5.891,6.877 4.221,9.160 3.466 C 9.865 3.233,10.432 3.118,11.340 3.024 C 11.662 2.991,12.911 3.039,13.320 3.101 M9.477 5.073 C 8.806 5.249,8.238 5.823,8.060 6.508 C 7.941 6.962,8.003 7.492,8.225 7.930 C 8.361 8.199,8.801 8.639,9.070 8.775 C 9.659 9.073,10.341 9.073,10.930 8.775 C 11.196 8.640,11.638 8.200,11.771 7.937 C 11.994 7.498,12.052 7.007,11.940 6.529 C 11.858 6.182,11.720 5.927,11.465 5.653 C 11.074 5.232,10.560 5.005,10.000 5.005 C 9.857 5.005,9.622 5.036,9.477 5.073 M15.477 6.073 C 14.806 6.249,14.238 6.823,14.060 7.508 C 13.941 7.962,14.003 8.492,14.225 8.930 C 14.361 9.199,14.801 9.639,15.070 9.775 C 15.659 10.073,16.341 10.073,16.930 9.775 C 17.196 9.640,17.638 9.200,17.771 8.937 C 17.994 8.498,18.052 8.007,17.940 7.529 C 17.858 7.182,17.720 6.927,17.465 6.653 C 17.074 6.232,16.560 6.005,16.000 6.005 C 15.857 6.005,15.622 6.036,15.477 6.073 M6.477 10.073 C 5.806 10.249,5.238 10.823,5.060 11.508 C 4.941 11.962,5.003 12.492,5.225 12.930 C 5.361 13.199,5.801 13.639,6.070 13.775 C 6.659 14.073,7.341 14.073,7.930 13.775 C 8.196 13.640,8.638 13.200,8.771 12.937 C 9.161 12.168,9.043 11.275,8.471 10.659 C 8.074 10.232,7.563 10.005,7.000 10.005 C 6.857 10.005,6.622 10.036,6.477 10.073 " stroke="none" fill-rule="evenodd" fill="black"></path></svg>