<svg width="24" height="24" viewBox="0 0 24 24" fill="none" xmlns="http://www.w3.org/2000/svg"><path d="M5.640 3.069 C 5.488 3.121,5.208 3.381,3.847 4.735 C 2.960 5.618,2.186 6.421,2.127 6.520 C 2.037 6.672,2.020 6.746,2.020 7.000 C 2.020 7.257,2.036 7.327,2.133 7.492 C 2.263 7.714,2.502 7.901,2.736 7.965 C 2.939 8.019,3.267 7.989,3.445 7.899 C 3.519 7.861,3.900 7.514,4.290 7.127 L 5.000 6.423 5.000 11.998 L 5.000 17.574 4.270 16.854 C 3.655 16.247,3.509 16.123,3.343 16.067 C 2.865 15.905,2.383 16.083,2.128 16.516 C 2.036 16.672,2.020 16.745,2.021 17.000 C 2.021 17.212,2.043 17.341,2.095 17.440 C 2.196 17.632,5.296 20.739,5.520 20.873 C 5.672 20.964,5.746 20.980,6.000 20.980 C 6.254 20.980,6.328 20.964,6.480 20.873 C 6.704 20.739,9.804 17.632,9.905 17.440 C 9.957 17.341,9.979 17.212,9.979 17.000 C 9.980 16.745,9.964 16.672,9.872 16.516 C 9.617 16.083,9.135 15.905,8.657 16.067 C 8.491 16.123,8.345 16.247,7.730 16.854 L 7.000 17.574 7.000 11.998 L 7.000 6.423 7.710 7.127 C 8.101 7.514,8.483 7.864,8.560 7.904 C 8.660 7.957,8.787 7.979,9.000 7.979 C 9.258 7.980,9.327 7.964,9.492 7.867 C 9.968 7.587,10.138 6.968,9.866 6.508 C 9.811 6.416,9.040 5.618,8.153 4.736 C 6.714 3.305,6.519 3.124,6.343 3.066 C 6.102 2.985,5.878 2.986,5.640 3.069 M12.695 5.057 C 12.466 5.129,12.256 5.299,12.128 5.516 C 12.037 5.672,12.020 5.746,12.020 6.000 C 12.020 6.256,12.036 6.328,12.131 6.489 C 12.256 6.702,12.449 6.864,12.670 6.943 C 12.892 7.022,21.108 7.022,21.330 6.943 C 21.551 6.864,21.744 6.702,21.869 6.489 C 21.964 6.328,21.980 6.256,21.980 6.000 C 21.980 5.746,21.963 5.672,21.872 5.516 C 21.740 5.293,21.533 5.128,21.290 5.055 C 21.029 4.976,12.946 4.979,12.695 5.057 M12.695 9.057 C 12.466 9.129,12.256 9.299,12.128 9.516 C 12.037 9.672,12.020 9.746,12.020 10.000 C 12.020 10.256,12.036 10.328,12.131 10.489 C 12.256 10.702,12.449 10.864,12.670 10.943 C 12.892 11.022,21.108 11.022,21.330 10.943 C 21.551 10.864,21.744 10.702,21.869 10.489 C 21.964 10.328,21.980 10.256,21.980 10.000 C 21.980 9.746,21.963 9.672,21.872 9.516 C 21.740 9.293,21.533 9.128,21.290 9.055 C 21.029 8.976,12.946 8.979,12.695 9.057 M12.695 13.057 C 12.466 13.129,12.256 13.299,12.128 13.516 C 12.037 13.672,12.020 13.746,12.020 14.000 C 12.020 14.256,12.036 14.328,12.131 14.489 C 12.256 14.702,12.449 14.864,12.670 14.943 C 12.892 15.022,21.108 15.022,21.330 14.943 C 21.551 14.864,21.744 14.702,21.869 14.489 C 21.964 14.328,21.980 14.256,21.980 14.000 C 21.980 13.746,21.963 13.672,21.872 13.516 C 21.740 13.293,21.533 13.128,21.290 13.055 C 21.029 12.976,12.946 12.979,12.695 13.057 M12.695 17.057 C 12.466 17.129,12.256 17.299,12.128 17.516 C 12.037 17.672,12.020 17.746,12.020 18.000 C 12.020 18.256,12.036 18.328,12.131 18.489 C 12.256 18.702,12.449 18.864,12.670 18.943 C 12.892 19.022,21.108 19.022,21.330 18.943 C 21.551 18.864,21.744 18.702,21.869 18.489 C 21.964 18.328,21.980 18.256,21.980 18.000 C 21.980 17.746,21.963 17.672,21.872 17.516 C 21.740 17.293,21.533 17.128,21.290 17.055 C 21.029 16.976,12.946 16.979,12.695 17.057 " stroke="none" fill-rule="evenodd" fill="black"></path></svg>