<svg width="24" height="24" viewBox="0 0 24 24" fill="none" xmlns="http://www.w3.org/2000/svg"><path d="M6.920 1.040 C 6.150 1.092,5.672 1.205,5.180 1.451 C 4.089 1.996,3.357 2.961,3.124 4.160 C 3.012 4.738,3.000 5.470,3.000 12.000 C 3.000 19.433,3.002 19.515,3.245 20.320 C 3.577 21.422,4.578 22.423,5.680 22.755 C 6.460 22.990,6.716 23.000,12.000 23.000 C 17.284 23.000,17.540 22.990,18.320 22.755 C 19.422 22.423,20.423 21.422,20.755 20.320 C 20.998 19.515,21.000 19.433,21.000 12.000 C 21.000 4.567,20.998 4.485,20.755 3.680 C 20.424 2.581,19.465 1.622,18.320 1.246 C 17.657 1.028,17.701 1.030,12.340 1.019 C 9.612 1.014,7.173 1.023,6.920 1.040 M17.492 3.091 C 17.893 3.188,18.109 3.309,18.400 3.600 C 18.696 3.895,18.814 4.109,18.912 4.528 C 18.975 4.798,18.980 5.370,18.980 12.000 C 18.980 18.630,18.975 19.202,18.912 19.472 C 18.814 19.891,18.696 20.104,18.400 20.401 C 18.101 20.701,17.820 20.851,17.418 20.928 C 17.011 21.004,6.989 21.004,6.582 20.927 C 6.170 20.850,5.898 20.704,5.600 20.403 C 5.303 20.104,5.186 19.890,5.088 19.472 C 5.025 19.202,5.020 18.630,5.020 12.000 C 5.020 5.370,5.025 4.798,5.088 4.528 C 5.175 4.155,5.294 3.918,5.520 3.667 C 5.883 3.262,6.281 3.091,6.980 3.039 C 7.200 3.023,9.594 3.013,12.300 3.018 C 16.701 3.025,17.249 3.033,17.492 3.091 M11.358 5.061 C 10.230 5.237,9.143 5.974,8.569 6.953 C 7.320 9.083,8.233 11.785,10.512 12.704 C 12.558 13.528,14.877 12.538,15.704 10.488 C 16.090 9.530,16.090 8.469,15.705 7.516 C 15.172 6.197,14.001 5.269,12.605 5.058 C 12.144 4.989,11.816 4.990,11.358 5.061 M12.523 7.073 C 13.262 7.266,13.850 7.924,13.967 8.690 C 14.067 9.343,13.873 9.933,13.403 10.404 C 13.002 10.807,12.547 11.000,12.000 11.000 C 11.485 11.000,11.038 10.822,10.653 10.465 C 9.323 9.229,10.189 7.005,12.000 7.005 C 12.143 7.005,12.378 7.036,12.523 7.073 M9.695 15.057 C 9.466 15.129,9.256 15.299,9.128 15.516 C 9.037 15.672,9.020 15.746,9.020 16.000 C 9.020 16.256,9.036 16.328,9.131 16.489 C 9.256 16.702,9.449 16.864,9.670 16.943 C 9.889 17.021,14.111 17.021,14.330 16.943 C 14.551 16.864,14.744 16.702,14.869 16.489 C 14.964 16.328,14.980 16.256,14.980 16.000 C 14.980 15.746,14.963 15.672,14.872 15.516 C 14.740 15.293,14.533 15.128,14.290 15.055 C 14.033 14.978,9.943 14.979,9.695 15.057 " stroke="none" fill-rule="evenodd" fill="black"></path></svg>