<svg width="24" height="24" viewBox="0 0 24 24" fill="none" xmlns="http://www.w3.org/2000/svg"><path d="M3.749 4.045 C 2.967 4.120,2.402 4.371,1.890 4.870 C 1.491 5.260,1.236 5.731,1.094 6.340 C 1.025 6.638,1.020 6.886,1.020 10.020 C 1.020 13.379,1.020 13.380,1.111 13.735 C 1.225 14.184,1.379 14.505,1.650 14.858 C 2.031 15.355,2.587 15.713,3.244 15.887 C 3.578 15.975,3.605 15.976,7.349 15.990 C 9.885 15.999,11.168 15.990,11.273 15.962 C 11.498 15.901,11.738 15.711,11.867 15.492 C 11.964 15.327,11.980 15.257,11.980 15.000 C 11.980 14.746,11.963 14.672,11.872 14.516 C 11.761 14.328,11.572 14.158,11.373 14.070 C 11.286 14.032,10.387 14.015,7.500 14.000 L 3.740 13.980 3.550 13.886 C 3.325 13.776,3.137 13.562,3.069 13.340 C 2.995 13.100,2.999 6.890,3.072 6.646 C 3.142 6.418,3.418 6.142,3.646 6.072 C 3.903 5.995,20.097 5.995,20.354 6.072 C 20.570 6.138,20.856 6.416,20.923 6.626 C 20.959 6.737,20.979 7.418,20.996 9.043 L 21.020 11.306 21.141 11.503 C 21.543 12.156,22.457 12.156,22.859 11.503 L 22.980 11.306 22.980 8.983 C 22.980 6.860,22.974 6.632,22.906 6.340 C 22.688 5.404,22.167 4.737,21.329 4.321 C 21.019 4.168,20.706 4.091,20.180 4.042 C 19.643 3.991,4.277 3.994,3.749 4.045 M6.586 8.820 C 6.251 8.947,5.960 9.235,5.836 9.561 C 5.531 10.364,6.138 11.240,7.000 11.240 C 7.342 11.240,7.629 11.120,7.874 10.874 C 8.483 10.266,8.308 9.255,7.529 8.874 C 7.294 8.759,6.819 8.732,6.586 8.820 M11.586 8.820 C 11.251 8.947,10.960 9.235,10.836 9.561 C 10.531 10.364,11.138 11.240,12.000 11.240 C 12.342 11.240,12.629 11.120,12.874 10.874 C 13.483 10.266,13.308 9.255,12.529 8.874 C 12.294 8.759,11.819 8.732,11.586 8.820 M16.586 8.820 C 16.251 8.947,15.960 9.235,15.836 9.561 C 15.531 10.364,16.138 11.240,17.000 11.240 C 17.342 11.240,17.629 11.120,17.874 10.874 C 18.483 10.266,18.308 9.255,17.529 8.874 C 17.294 8.759,16.819 8.732,16.586 8.820 M16.768 12.599 C 16.026 12.799,15.359 13.358,15.016 14.067 C 14.822 14.468,14.762 14.799,14.761 15.462 L 14.760 16.023 14.543 16.069 C 14.192 16.143,13.883 16.316,13.597 16.599 C 13.075 17.117,13.001 17.415,13.001 19.000 C 13.001 20.584,13.075 20.881,13.597 21.403 C 13.896 21.702,14.173 21.853,14.581 21.939 C 14.993 22.027,20.007 22.027,20.419 21.940 C 20.818 21.855,21.102 21.699,21.401 21.401 C 21.925 20.876,21.999 20.582,21.999 19.000 C 21.999 17.418,21.926 17.124,21.401 16.599 C 21.118 16.316,20.810 16.143,20.461 16.070 L 20.249 16.025 20.232 15.343 C 20.216 14.734,20.203 14.628,20.110 14.367 C 19.959 13.941,19.779 13.662,19.440 13.321 C 19.106 12.986,18.751 12.761,18.360 12.633 C 17.976 12.508,17.168 12.491,16.768 12.599 M17.837 14.590 C 17.913 14.629,18.030 14.729,18.097 14.814 C 18.218 14.965,18.220 14.976,18.233 15.484 L 18.246 16.000 17.500 16.000 L 16.754 16.000 16.767 15.484 C 16.780 14.976,16.782 14.965,16.903 14.814 C 17.063 14.613,17.252 14.520,17.500 14.520 C 17.611 14.520,17.761 14.551,17.837 14.590 M20.000 19.000 L 20.000 20.000 17.500 20.000 L 15.000 20.000 15.000 19.000 L 15.000 18.000 17.500 18.000 L 20.000 18.000 20.000 19.000 " stroke="none" fill-rule="evenodd" fill="black"></path></svg>