<svg width="24" height="24" viewBox="0 0 24 24" fill="none" xmlns="http://www.w3.org/2000/svg"><path d="M3.749 6.045 C 2.967 6.120,2.402 6.371,1.890 6.870 C 1.491 7.260,1.236 7.731,1.094 8.340 C 1.025 8.638,1.020 8.886,1.020 12.020 C 1.020 15.379,1.020 15.380,1.111 15.735 C 1.225 16.184,1.379 16.505,1.650 16.858 C 2.038 17.363,2.594 17.719,3.265 17.889 L 3.620 17.980 11.980 17.980 C 19.988 17.980,20.353 17.977,20.660 17.906 C 21.269 17.764,21.711 17.526,22.118 17.118 C 22.526 16.711,22.764 16.269,22.906 15.660 C 22.975 15.362,22.980 15.114,22.980 12.000 C 22.980 8.886,22.975 8.638,22.906 8.340 C 22.688 7.404,22.167 6.737,21.329 6.321 C 21.019 6.168,20.706 6.091,20.180 6.042 C 19.643 5.991,4.277 5.994,3.749 6.045 M20.374 8.074 C 20.586 8.146,20.863 8.432,20.928 8.646 C 20.969 8.783,20.980 9.490,20.980 12.000 C 20.980 14.510,20.969 15.217,20.928 15.354 C 20.863 15.567,20.591 15.849,20.376 15.925 C 20.143 16.007,3.857 16.007,3.624 15.925 C 3.422 15.854,3.140 15.570,3.075 15.374 C 3.009 15.172,2.975 9.508,3.036 8.955 C 3.102 8.364,3.339 8.104,3.866 8.042 C 4.017 8.024,7.758 8.012,12.180 8.016 C 18.671 8.021,20.250 8.032,20.374 8.074 M6.586 10.820 C 6.251 10.947,5.960 11.235,5.836 11.561 C 5.531 12.364,6.138 13.240,7.000 13.240 C 7.342 13.240,7.629 13.120,7.874 12.874 C 8.483 12.266,8.308 11.255,7.529 10.874 C 7.294 10.759,6.819 10.732,6.586 10.820 M11.586 10.820 C 11.251 10.947,10.960 11.235,10.836 11.561 C 10.531 12.364,11.138 13.240,12.000 13.240 C 12.342 13.240,12.629 13.120,12.874 12.874 C 13.483 12.266,13.308 11.255,12.529 10.874 C 12.294 10.759,11.819 10.732,11.586 10.820 M16.586 10.820 C 16.251 10.947,15.960 11.235,15.836 11.561 C 15.531 12.364,16.138 13.240,17.000 13.240 C 17.342 13.240,17.629 13.120,17.874 12.874 C 18.483 12.266,18.308 11.255,17.529 10.874 C 17.294 10.759,16.819 10.732,16.586 10.820 " stroke="none" fill-rule="evenodd" fill="black"></path></svg>