<svg width="24" height="24" viewBox="0 0 24 24" fill="none" xmlns="http://www.w3.org/2000/svg"><path d="M5.920 2.041 C 5.151 2.092,4.672 2.205,4.180 2.451 C 3.089 2.996,2.357 3.961,2.124 5.160 C 2.013 5.729,2.000 6.455,2.000 12.000 C 2.000 18.358,2.006 18.526,2.245 19.320 C 2.577 20.422,3.578 21.423,4.680 21.755 C 5.474 21.994,5.642 22.000,12.000 22.000 C 18.358 22.000,18.526 21.994,19.320 21.755 C 20.422 21.423,21.423 20.422,21.755 19.320 C 21.994 18.526,22.000 18.358,22.000 12.000 C 22.000 5.642,21.994 5.474,21.755 4.680 C 21.424 3.581,20.465 2.622,19.320 2.246 C 18.644 2.024,18.800 2.029,12.340 2.019 C 9.062 2.014,6.173 2.024,5.920 2.041 M18.492 4.091 C 18.894 4.188,19.109 4.309,19.400 4.600 C 19.696 4.895,19.814 5.109,19.912 5.528 C 19.975 5.797,19.980 6.313,19.980 12.000 C 19.980 17.687,19.975 18.203,19.912 18.472 C 19.814 18.891,19.696 19.104,19.400 19.401 C 19.101 19.701,18.820 19.851,18.418 19.928 C 18.010 20.005,5.990 20.005,5.582 19.927 C 5.170 19.850,4.898 19.704,4.600 19.403 C 4.303 19.104,4.186 18.890,4.088 18.472 C 4.025 18.203,4.020 17.687,4.020 12.000 C 4.020 6.313,4.025 5.797,4.088 5.528 C 4.175 5.155,4.294 4.918,4.520 4.667 C 4.883 4.262,5.282 4.091,5.980 4.039 C 6.200 4.023,9.044 4.013,12.300 4.018 C 17.643 4.024,18.247 4.032,18.492 4.091 M9.240 8.035 C 8.929 8.137,8.651 8.393,8.555 8.665 C 8.474 8.894,8.474 15.106,8.555 15.335 C 8.682 15.696,9.114 15.999,9.500 15.999 C 9.886 15.999,10.318 15.696,10.445 15.335 C 10.490 15.209,10.500 14.591,10.500 12.000 C 10.500 9.409,10.490 8.791,10.445 8.665 C 10.375 8.466,10.150 8.217,9.946 8.113 C 9.771 8.024,9.399 7.983,9.240 8.035 M14.240 8.035 C 13.929 8.137,13.651 8.393,13.555 8.665 C 13.510 8.791,13.500 9.409,13.500 12.000 C 13.500 15.507,13.490 15.357,13.755 15.652 C 14.165 16.107,14.835 16.107,15.245 15.652 C 15.510 15.357,15.500 15.507,15.500 12.000 C 15.500 9.409,15.490 8.791,15.445 8.665 C 15.375 8.466,15.150 8.217,14.946 8.113 C 14.771 8.024,14.399 7.983,14.240 8.035 " stroke="none" fill-rule="evenodd" fill="black"></path></svg>