<svg width="24" height="24" viewBox="0 0 24 24" fill="none" xmlns="http://www.w3.org/2000/svg"><path d="M11.280 1.023 C 11.203 1.032,10.951 1.059,10.720 1.083 C 9.527 1.210,8.337 1.558,7.180 2.120 C 6.045 2.671,5.193 3.285,4.238 4.239 C 3.277 5.198,2.643 6.080,2.097 7.220 C 0.301 10.968,0.728 15.286,3.226 18.633 C 3.701 19.269,4.753 20.316,5.400 20.797 C 9.364 23.745,14.666 23.734,18.637 20.770 C 19.246 20.316,20.316 19.246,20.770 18.637 C 23.744 14.652,23.744 9.348,20.770 5.363 C 20.316 4.755,19.247 3.686,18.640 3.235 C 17.045 2.049,15.365 1.360,13.423 1.096 C 13.000 1.038,11.574 0.990,11.280 1.023 M13.320 3.101 C 15.883 3.488,18.124 4.931,19.560 7.120 C 19.863 7.583,20.303 8.479,20.492 9.020 C 20.838 10.013,20.977 10.865,20.977 12.000 C 20.977 13.493,20.720 14.621,20.080 15.940 C 19.375 17.394,18.311 18.607,16.927 19.532 C 16.138 20.060,14.876 20.588,13.908 20.797 C 11.266 21.366,8.479 20.708,6.370 19.019 C 4.857 17.807,3.722 16.029,3.267 14.160 C 3.081 13.397,3.023 12.888,3.023 12.000 C 3.023 10.507,3.280 9.379,3.920 8.060 C 4.971 5.891,6.877 4.221,9.160 3.466 C 9.865 3.233,10.432 3.118,11.340 3.024 C 11.662 2.991,12.911 3.039,13.320 3.101 M9.240 8.035 C 8.929 8.137,8.651 8.393,8.555 8.665 C 8.474 8.894,8.474 15.106,8.555 15.335 C 8.682 15.696,9.114 15.999,9.500 15.999 C 9.886 15.999,10.318 15.696,10.445 15.335 C 10.490 15.209,10.500 14.591,10.500 12.000 C 10.500 9.409,10.490 8.791,10.445 8.665 C 10.375 8.466,10.150 8.217,9.946 8.113 C 9.771 8.024,9.399 7.983,9.240 8.035 M14.240 8.035 C 13.929 8.137,13.651 8.393,13.555 8.665 C 13.510 8.791,13.500 9.409,13.500 12.000 C 13.500 15.507,13.490 15.357,13.755 15.652 C 14.165 16.107,14.835 16.107,15.245 15.652 C 15.510 15.357,15.500 15.507,15.500 12.000 C 15.500 9.409,15.490 8.791,15.445 8.665 C 15.375 8.466,15.150 8.217,14.946 8.113 C 14.771 8.024,14.399 7.983,14.240 8.035 " stroke="none" fill-rule="evenodd" fill="black"></path></svg>