<svg width="24" height="24" viewBox="0 0 24 24" fill="none" xmlns="http://www.w3.org/2000/svg"><path d="M4.695 1.057 C 4.466 1.129,4.256 1.299,4.128 1.516 L 4.020 1.700 4.008 2.850 L 3.995 4.000 2.944 4.000 C 1.797 4.000,1.643 4.022,1.382 4.221 C 1.302 4.282,1.187 4.415,1.128 4.516 C 1.037 4.672,1.020 4.746,1.020 5.000 C 1.020 5.256,1.036 5.328,1.131 5.489 C 1.192 5.592,1.304 5.725,1.381 5.783 C 1.642 5.983,1.738 5.996,2.908 5.998 L 3.995 6.000 4.008 7.153 L 4.020 8.307 4.141 8.503 C 4.543 9.156,5.457 9.156,5.859 8.503 L 5.980 8.307 5.992 7.153 L 6.005 6.000 7.092 5.998 C 8.262 5.996,8.358 5.983,8.619 5.783 C 8.696 5.725,8.808 5.592,8.869 5.489 C 8.964 5.328,8.980 5.256,8.980 5.000 C 8.980 4.746,8.963 4.672,8.872 4.516 C 8.813 4.415,8.698 4.282,8.618 4.221 C 8.357 4.022,8.203 4.000,7.056 4.000 L 6.005 4.000 5.992 2.850 L 5.980 1.700 5.872 1.516 C 5.628 1.101,5.150 0.915,4.695 1.057 M16.740 2.444 C 16.439 2.480,16.151 2.588,15.896 2.760 C 15.625 2.943,13.924 4.650,13.745 4.920 C 13.529 5.244,13.430 5.587,13.425 6.035 L 13.420 6.411 10.791 7.163 C 9.230 7.609,8.053 7.967,7.891 8.044 C 7.551 8.207,7.213 8.538,7.042 8.876 C 6.864 9.228,2.999 21.796,3.002 22.015 C 3.007 22.522,3.401 22.944,3.910 22.987 C 4.126 23.005,4.540 22.883,10.506 21.046 C 14.299 19.878,16.974 19.033,17.124 18.958 C 17.459 18.789,17.810 18.433,17.961 18.110 C 18.026 17.970,18.420 16.669,18.834 15.218 L 19.589 12.580 19.965 12.575 C 20.413 12.570,20.756 12.471,21.080 12.255 C 21.395 12.046,23.077 10.354,23.269 10.053 C 23.678 9.417,23.678 8.585,23.270 7.947 C 23.049 7.601,18.397 2.949,18.051 2.728 C 17.679 2.490,17.207 2.388,16.740 2.444 M19.300 6.720 L 21.580 9.000 20.790 9.790 L 20.000 10.580 17.710 8.290 L 15.420 6.000 16.200 5.220 C 16.629 4.791,16.988 4.440,17.000 4.440 C 17.011 4.440,18.046 5.466,19.300 6.720 M16.288 9.710 L 17.876 11.300 17.035 14.240 C 16.573 15.856,16.187 17.186,16.178 17.195 C 16.154 17.219,7.627 19.840,7.614 19.827 C 7.608 19.821,8.300 19.121,9.152 18.271 L 10.700 16.726 11.060 16.851 C 11.395 16.967,11.459 16.976,11.980 16.978 C 12.459 16.980,12.583 16.966,12.840 16.886 C 13.827 16.578,14.579 15.826,14.886 14.840 C 15.021 14.406,15.021 13.594,14.886 13.160 C 14.581 12.181,13.822 11.418,12.861 11.125 C 12.588 11.042,12.458 11.027,12.000 11.027 C 11.542 11.027,11.412 11.042,11.139 11.125 C 10.178 11.418,9.420 12.180,9.114 13.160 C 9.034 13.417,9.020 13.541,9.022 14.020 C 9.024 14.541,9.033 14.605,9.149 14.940 L 9.274 15.300 7.729 16.848 C 6.879 17.700,6.179 18.392,6.173 18.386 C 6.160 18.373,8.781 9.846,8.805 9.822 C 8.817 9.810,14.580 8.144,14.680 8.124 C 14.691 8.122,15.415 8.835,16.288 9.710 M12.310 13.061 C 12.688 13.173,13.000 13.598,13.000 14.001 C 13.000 14.331,12.784 14.696,12.484 14.872 C 12.328 14.963,12.254 14.980,12.000 14.980 C 11.746 14.980,11.672 14.963,11.516 14.872 C 11.415 14.813,11.282 14.698,11.221 14.618 C 10.908 14.208,10.943 13.664,11.304 13.303 C 11.583 13.024,11.916 12.944,12.310 13.061 " stroke="none" fill-rule="evenodd" fill="black"></path></svg>