<svg width="24" height="24" viewBox="0 0 24 24" fill="none" xmlns="http://www.w3.org/2000/svg"><path d="M1.670 1.057 C 1.452 1.135,1.257 1.298,1.138 1.499 C 0.920 1.871,0.829 1.422,2.677 9.080 C 3.603 12.919,4.399 16.168,4.446 16.300 C 4.647 16.864,5.074 17.309,5.602 17.504 C 5.700 17.540,7.047 17.824,8.596 18.136 L 11.412 18.703 11.422 19.021 C 11.434 19.412,11.547 19.784,11.745 20.080 C 11.954 20.395,13.646 22.077,13.947 22.269 C 14.583 22.678,15.415 22.678,16.053 22.270 C 16.399 22.050,22.050 16.399,22.270 16.053 C 22.678 15.415,22.678 14.583,22.269 13.947 C 22.058 13.617,20.381 11.941,20.051 11.729 C 19.753 11.538,19.405 11.438,19.002 11.428 L 18.704 11.420 18.137 8.600 C 17.825 7.049,17.540 5.700,17.504 5.602 C 17.337 5.151,16.965 4.754,16.509 4.539 C 16.275 4.429,14.878 4.079,9.166 2.702 C 5.286 1.766,2.046 1.001,1.966 1.002 C 1.886 1.003,1.752 1.028,1.670 1.057 M10.480 5.078 C 13.219 5.740,15.501 6.292,15.550 6.305 C 15.600 6.319,15.650 6.368,15.661 6.415 C 15.672 6.462,15.959 7.886,16.298 9.580 L 16.915 12.660 14.787 14.787 L 12.660 16.915 9.580 16.298 C 7.886 15.959,6.462 15.672,6.415 15.661 C 6.368 15.650,6.319 15.600,6.305 15.550 C 6.292 15.501,5.740 13.219,5.078 10.480 C 4.417 7.741,3.859 5.437,3.839 5.361 C 3.808 5.245,4.183 5.603,6.038 7.461 L 8.275 9.700 8.149 10.060 C 8.033 10.395,8.024 10.459,8.022 10.980 C 8.020 11.459,8.034 11.583,8.114 11.840 C 8.422 12.827,9.174 13.579,10.160 13.886 C 10.594 14.021,11.406 14.021,11.840 13.886 C 12.826 13.579,13.579 12.826,13.886 11.840 C 14.021 11.406,14.021 10.594,13.886 10.160 C 13.581 9.181,12.822 8.418,11.861 8.125 C 11.588 8.042,11.458 8.027,11.000 8.027 C 10.535 8.027,10.416 8.041,10.140 8.128 C 9.964 8.183,9.793 8.240,9.760 8.254 C 9.717 8.273,9.050 7.630,7.461 6.041 C 5.603 4.183,5.245 3.808,5.361 3.839 C 5.437 3.859,7.741 4.417,10.480 5.078 M11.310 10.061 C 11.688 10.173,12.000 10.598,12.000 11.001 C 12.000 11.331,11.784 11.696,11.484 11.872 C 11.328 11.963,11.254 11.980,11.000 11.980 C 10.746 11.980,10.672 11.963,10.516 11.872 C 9.935 11.530,9.833 10.774,10.304 10.303 C 10.583 10.024,10.916 9.944,11.310 10.061 M19.800 14.220 L 20.580 15.000 17.790 17.790 L 15.000 20.580 14.210 19.790 L 13.420 19.000 16.200 16.220 C 17.729 14.691,18.989 13.440,19.000 13.440 C 19.012 13.440,19.372 13.791,19.800 14.220 " stroke="none" fill-rule="evenodd" fill="black"></path></svg>