<svg width="24" height="24" viewBox="0 0 24 24" fill="none" xmlns="http://www.w3.org/2000/svg"><path d="M18.611 1.204 C 17.995 1.261,17.415 1.468,16.867 1.825 C 16.644 1.970,15.252 3.338,10.647 7.936 C 7.384 11.194,4.598 14.003,4.457 14.178 C 4.316 14.353,4.130 14.632,4.044 14.798 C 3.869 15.138,1.585 21.049,1.524 21.323 C 1.462 21.598,1.568 21.967,1.775 22.194 C 1.971 22.409,2.390 22.541,2.677 22.476 C 2.952 22.415,8.862 20.131,9.202 19.956 C 9.368 19.870,9.647 19.684,9.822 19.543 C 9.997 19.402,12.806 16.616,16.064 13.353 C 22.247 7.161,22.182 7.228,22.480 6.592 C 22.827 5.851,22.916 4.860,22.707 4.060 C 22.225 2.217,20.518 1.027,18.611 1.204 M19.624 3.286 C 20.632 3.657,21.097 4.810,20.637 5.800 C 20.524 6.044,20.157 6.420,14.758 11.820 L 9.000 17.580 7.710 16.290 L 6.420 15.000 12.180 9.242 C 17.691 3.733,17.952 3.478,18.214 3.356 C 18.649 3.154,19.191 3.127,19.624 3.286 M7.130 18.645 C 7.091 18.660,6.538 18.873,5.900 19.120 C 5.262 19.366,4.628 19.610,4.490 19.662 L 4.241 19.756 4.293 19.628 C 4.321 19.558,4.577 18.893,4.862 18.150 L 5.380 16.800 6.289 17.709 C 7.011 18.430,7.185 18.624,7.130 18.645 M12.670 20.061 C 12.448 20.142,12.250 20.309,12.128 20.516 C 12.037 20.672,12.020 20.746,12.020 21.000 C 12.020 21.256,12.036 21.328,12.131 21.489 C 12.256 21.702,12.449 21.864,12.670 21.943 C 12.903 22.026,21.079 22.025,21.316 21.942 C 21.550 21.859,21.747 21.697,21.872 21.484 C 21.963 21.328,21.980 21.254,21.980 21.000 C 21.980 20.746,21.963 20.672,21.872 20.516 C 21.747 20.303,21.550 20.141,21.316 20.058 C 21.076 19.974,12.901 19.976,12.670 20.061 " stroke="none" fill-rule="evenodd" fill="black"></path></svg>