<svg width="24" height="24" viewBox="0 0 24 24" fill="none" xmlns="http://www.w3.org/2000/svg"><path d="M17.670 1.061 C 17.448 1.142,17.250 1.309,17.128 1.516 C 17.037 1.672,17.020 1.746,17.020 2.000 C 17.020 2.254,17.036 2.328,17.127 2.480 C 17.261 2.705,21.368 6.805,21.560 6.905 C 21.659 6.957,21.788 6.979,22.000 6.979 C 22.258 6.980,22.327 6.964,22.492 6.867 C 22.968 6.587,23.138 5.968,22.866 5.508 C 22.811 5.416,21.815 4.393,20.653 3.235 C 18.748 1.338,18.521 1.124,18.343 1.065 C 18.107 0.987,17.874 0.986,17.670 1.061 M14.679 4.252 C 14.557 4.280,14.368 4.353,14.259 4.416 C 14.121 4.494,12.335 6.254,8.475 10.115 C 2.567 16.022,2.699 15.883,2.498 16.440 C 2.356 16.835,1.000 21.868,1.000 22.002 C 1.000 22.526,1.474 23.000,1.998 23.000 C 2.132 23.000,7.166 21.644,7.560 21.502 C 8.110 21.303,7.989 21.418,13.905 15.503 C 19.236 10.175,19.517 9.886,19.645 9.621 C 19.766 9.371,19.780 9.306,19.780 9.000 C 19.780 8.693,19.766 8.630,19.645 8.379 C 19.521 8.124,19.363 7.953,17.785 6.368 C 16.805 5.384,15.959 4.567,15.826 4.478 C 15.475 4.242,15.076 4.163,14.679 4.252 M16.300 7.720 L 17.580 9.000 12.320 14.261 C 8.741 17.840,7.009 19.546,6.900 19.598 C 6.727 19.681,3.482 20.576,3.455 20.548 C 3.433 20.527,4.346 17.183,4.405 17.067 C 4.447 16.983,14.959 6.440,15.000 6.440 C 15.011 6.440,15.596 7.016,16.300 7.720 " stroke="none" fill-rule="evenodd" fill="black"></path></svg>