<svg width="24" height="24" viewBox="0 0 24 24" fill="none" xmlns="http://www.w3.org/2000/svg"><path d="M11.643 1.523 C 11.523 1.544,11.298 1.624,11.143 1.700 C 10.736 1.898,2.191 8.102,1.796 8.485 C 1.450 8.821,1.311 9.069,1.218 9.517 C 1.126 9.957,1.182 10.216,1.725 11.890 C 4.009 18.931,4.659 20.900,4.787 21.160 C 5.018 21.631,5.405 21.968,5.920 22.145 C 6.132 22.217,6.362 22.220,12.000 22.220 C 17.638 22.220,17.868 22.217,18.080 22.145 C 18.594 21.968,18.982 21.632,19.213 21.160 C 19.340 20.902,20.126 18.523,22.298 11.820 C 22.818 10.216,22.873 9.954,22.782 9.517 C 22.692 9.083,22.547 8.821,22.223 8.500 C 22.033 8.312,20.516 7.188,17.584 5.064 C 15.188 3.328,13.127 1.846,13.004 1.772 C 12.616 1.538,12.098 1.443,11.643 1.523 M16.273 6.586 C 18.598 8.273,20.569 9.706,20.653 9.772 C 20.782 9.872,20.802 9.908,20.780 9.996 C 20.744 10.144,17.528 20.041,17.481 20.150 L 17.442 20.240 11.991 20.230 L 6.540 20.220 6.453 19.960 C 6.406 19.817,5.653 17.504,4.780 14.820 C 3.700 11.501,3.204 9.922,3.229 9.884 C 3.280 9.802,11.929 3.525,11.993 3.522 C 12.023 3.521,13.949 4.900,16.273 6.586 " stroke="none" fill-rule="evenodd" fill="black"></path></svg>