<svg width="24" height="24" viewBox="0 0 24 24" fill="none" xmlns="http://www.w3.org/2000/svg"><path d="M11.280 1.023 C 11.203 1.032,10.951 1.059,10.720 1.083 C 9.527 1.210,8.337 1.558,7.180 2.120 C 6.045 2.671,5.193 3.285,4.238 4.239 C 3.277 5.198,2.643 6.080,2.097 7.220 C 0.301 10.968,0.728 15.286,3.226 18.633 C 3.701 19.269,4.753 20.316,5.400 20.797 C 9.364 23.745,14.666 23.734,18.637 20.770 C 19.246 20.316,20.316 19.246,20.770 18.637 C 23.744 14.652,23.744 9.348,20.770 5.363 C 20.316 4.755,19.247 3.686,18.640 3.235 C 17.045 2.049,15.365 1.360,13.423 1.096 C 13.000 1.038,11.574 0.990,11.280 1.023 M13.320 3.101 C 15.883 3.488,18.124 4.931,19.560 7.120 C 19.863 7.583,20.303 8.479,20.492 9.020 C 20.838 10.013,20.977 10.865,20.977 12.000 C 20.977 13.493,20.720 14.621,20.080 15.940 C 19.375 17.394,18.311 18.607,16.927 19.532 C 16.138 20.060,14.876 20.588,13.908 20.797 C 11.266 21.366,8.479 20.708,6.370 19.019 C 4.857 17.807,3.722 16.029,3.267 14.160 C 3.081 13.397,3.023 12.888,3.023 12.000 C 3.023 10.507,3.280 9.379,3.920 8.060 C 4.971 5.891,6.877 4.221,9.160 3.466 C 9.865 3.233,10.432 3.118,11.340 3.024 C 11.662 2.991,12.911 3.039,13.320 3.101 M15.640 7.068 C 15.484 7.121,14.921 7.668,11.347 11.235 C 8.973 13.605,7.189 15.416,7.127 15.520 C 7.036 15.672,7.020 15.746,7.020 16.000 C 7.020 16.257,7.036 16.327,7.133 16.492 C 7.263 16.714,7.502 16.901,7.736 16.965 C 7.938 17.019,8.266 16.989,8.445 16.899 C 8.630 16.807,16.737 8.708,16.873 8.480 C 16.964 8.328,16.980 8.254,16.980 8.000 C 16.980 7.746,16.963 7.672,16.872 7.516 C 16.617 7.083,16.122 6.903,15.640 7.068 M8.516 7.577 C 7.466 7.979,7.167 9.277,7.945 10.055 C 8.528 10.638,9.472 10.638,10.055 10.055 C 10.781 9.330,10.577 8.126,9.650 7.657 C 9.455 7.558,9.370 7.541,9.042 7.532 C 8.789 7.525,8.611 7.540,8.516 7.577 M14.516 13.577 C 13.466 13.979,13.167 15.277,13.945 16.055 C 14.807 16.918,16.314 16.420,16.477 15.218 C 16.566 14.564,16.245 13.958,15.650 13.657 C 15.455 13.558,15.370 13.541,15.042 13.532 C 14.789 13.525,14.611 13.540,14.516 13.577 " stroke="none" fill-rule="evenodd" fill="black"></path></svg>