<svg width="24" height="24" viewBox="0 0 24 24" fill="none" xmlns="http://www.w3.org/2000/svg"><path d="M6.499 4.040 C 5.363 4.246,4.460 5.049,4.114 6.160 C 3.979 6.594,3.979 7.406,4.114 7.840 C 4.421 8.826,5.174 9.579,6.160 9.886 C 6.594 10.021,7.406 10.021,7.840 9.886 C 8.826 9.579,9.579 8.826,9.886 7.840 C 10.021 7.406,10.021 6.594,9.886 6.160 C 9.581 5.179,8.810 4.407,7.861 4.129 C 7.500 4.023,6.832 3.980,6.499 4.040 M18.640 4.068 C 18.482 4.121,17.575 5.013,11.347 11.235 C 7.180 15.397,4.190 18.415,4.127 18.520 C 4.036 18.672,4.020 18.746,4.020 19.000 C 4.020 19.257,4.036 19.327,4.133 19.492 C 4.413 19.968,5.033 20.139,5.492 19.865 C 5.710 19.736,19.809 5.625,19.905 5.440 C 19.957 5.341,19.979 5.212,19.979 5.000 C 19.980 4.745,19.964 4.672,19.872 4.516 C 19.618 4.083,19.123 3.903,18.640 4.068 M7.310 6.061 C 7.688 6.173,8.000 6.598,8.000 7.001 C 8.000 7.331,7.784 7.696,7.484 7.872 C 7.328 7.963,7.254 7.980,7.000 7.980 C 6.746 7.980,6.672 7.963,6.516 7.872 C 5.935 7.530,5.833 6.774,6.304 6.303 C 6.583 6.024,6.916 5.944,7.310 6.061 M16.499 14.040 C 15.363 14.246,14.460 15.049,14.114 16.160 C 13.979 16.594,13.979 17.406,14.114 17.840 C 14.421 18.826,15.174 19.579,16.160 19.886 C 16.594 20.021,17.406 20.021,17.840 19.886 C 18.826 19.579,19.579 18.826,19.886 17.840 C 20.021 17.406,20.021 16.594,19.886 16.160 C 19.581 15.179,18.810 14.407,17.861 14.129 C 17.500 14.023,16.832 13.980,16.499 14.040 M17.334 16.064 C 17.698 16.188,18.000 16.613,18.000 17.001 C 18.000 17.331,17.784 17.696,17.484 17.872 C 17.328 17.963,17.254 17.980,17.000 17.980 C 16.746 17.980,16.672 17.963,16.516 17.872 C 15.934 17.529,15.831 16.775,16.304 16.303 C 16.587 16.019,16.954 15.935,17.334 16.064 " stroke="none" fill-rule="evenodd" fill="black"></path></svg>