<svg width="24" height="24" viewBox="0 0 24 24" fill="none" xmlns="http://www.w3.org/2000/svg"><path d="M18.640 4.068 C 18.482 4.121,17.575 5.013,11.347 11.235 C 7.180 15.397,4.190 18.415,4.127 18.520 C 4.036 18.672,4.020 18.746,4.020 19.000 C 4.020 19.257,4.036 19.327,4.133 19.492 C 4.413 19.968,5.033 20.139,5.492 19.865 C 5.710 19.736,19.809 5.625,19.905 5.440 C 19.957 5.341,19.979 5.212,19.979 5.000 C 19.980 4.745,19.964 4.672,19.872 4.516 C 19.618 4.083,19.123 3.903,18.640 4.068 M5.940 4.574 C 5.489 4.723,5.042 5.063,4.800 5.441 C 4.412 6.045,4.410 6.953,4.797 7.555 C 5.179 8.151,5.799 8.492,6.500 8.492 C 7.052 8.492,7.469 8.326,7.869 7.948 C 8.299 7.541,8.488 7.100,8.488 6.500 C 8.488 5.690,8.071 5.043,7.320 4.684 C 7.036 4.548,6.996 4.540,6.560 4.531 C 6.262 4.525,6.044 4.540,5.940 4.574 M16.940 15.574 C 16.489 15.723,16.042 16.063,15.800 16.441 C 15.412 17.045,15.410 17.953,15.797 18.555 C 16.179 19.151,16.799 19.492,17.500 19.492 C 18.052 19.492,18.469 19.326,18.869 18.948 C 19.299 18.541,19.488 18.100,19.488 17.500 C 19.488 16.690,19.071 16.043,18.320 15.684 C 18.036 15.548,17.996 15.540,17.560 15.531 C 17.262 15.525,17.044 15.540,16.940 15.574 " stroke="none" fill-rule="evenodd" fill="black"></path></svg>