<svg width="24" height="24" viewBox="0 0 24 24" fill="none" xmlns="http://www.w3.org/2000/svg"><path d="M3.686 2.039 C 2.865 2.166,2.233 2.765,2.061 3.581 C 1.976 3.978,1.976 6.022,2.061 6.419 C 2.147 6.827,2.298 7.104,2.597 7.403 C 2.913 7.719,3.194 7.864,3.658 7.952 L 4.000 8.017 4.000 12.007 L 4.000 15.996 3.850 16.019 C 3.241 16.111,2.956 16.244,2.597 16.599 C 2.075 17.117,2.001 17.415,2.001 19.000 C 2.001 20.584,2.075 20.881,2.597 21.403 C 2.896 21.702,3.173 21.853,3.581 21.939 C 3.978 22.024,6.022 22.024,6.419 21.940 C 6.777 21.864,7.081 21.709,7.344 21.470 C 7.760 21.090,7.946 20.662,7.993 19.981 L 8.020 19.583 12.000 19.013 C 14.189 18.699,15.999 18.442,16.022 18.441 C 16.046 18.441,16.088 18.530,16.116 18.639 C 16.222 19.055,16.662 19.568,17.093 19.778 C 17.477 19.966,17.758 19.999,19.000 19.999 C 20.582 19.999,20.876 19.925,21.401 19.401 C 21.925 18.876,21.999 18.582,21.999 17.000 C 21.999 15.418,21.926 15.124,21.401 14.599 C 21.045 14.244,20.761 14.112,20.150 14.019 L 20.000 13.996 20.000 12.007 L 20.000 10.017 20.342 9.952 C 20.798 9.866,21.085 9.717,21.401 9.401 C 21.699 9.102,21.855 8.818,21.940 8.419 C 22.024 8.022,22.024 5.978,21.939 5.581 C 21.791 4.881,21.332 4.364,20.635 4.112 C 20.387 4.023,20.341 4.020,19.000 4.020 C 17.659 4.020,17.613 4.023,17.365 4.112 C 16.751 4.334,16.270 4.815,16.116 5.360 C 16.088 5.459,16.061 5.547,16.055 5.554 C 16.049 5.562,14.234 5.311,12.022 4.995 L 8.000 4.421 7.999 4.140 C 7.997 3.156,7.501 2.420,6.635 2.114 C 6.394 2.029,6.312 2.024,5.140 2.015 C 4.458 2.010,3.804 2.021,3.686 2.039 M6.000 5.000 L 6.000 6.000 5.000 6.000 L 4.000 6.000 4.000 5.000 L 4.000 4.000 5.000 4.000 L 6.000 4.000 6.000 5.000 M20.000 7.000 L 20.000 8.000 19.000 8.000 L 18.000 8.000 18.000 7.000 L 18.000 6.000 19.000 6.000 L 20.000 6.000 20.000 7.000 M12.000 7.013 L 15.980 7.583 16.007 7.981 C 16.054 8.666,16.240 9.089,16.664 9.477 C 16.945 9.733,17.235 9.872,17.658 9.952 L 18.000 10.017 18.000 12.007 L 18.000 13.996 17.850 14.019 C 17.241 14.111,16.956 14.244,16.597 14.599 C 16.192 15.001,16.002 15.490,16.001 16.140 L 16.000 16.421 11.978 16.995 C 9.766 17.311,7.951 17.562,7.945 17.554 C 7.939 17.547,7.911 17.459,7.883 17.360 C 7.807 17.093,7.586 16.751,7.347 16.533 C 7.023 16.238,6.713 16.104,6.150 16.019 L 6.000 15.996 6.000 12.007 L 6.000 8.017 6.342 7.952 C 6.530 7.917,6.785 7.836,6.909 7.774 C 7.355 7.549,7.770 7.062,7.886 6.628 C 7.914 6.525,7.955 6.441,7.978 6.441 C 8.001 6.442,9.811 6.699,12.000 7.013 M20.000 17.000 L 20.000 18.000 19.000 18.000 L 18.000 18.000 18.000 17.000 L 18.000 16.000 19.000 16.000 L 20.000 16.000 20.000 17.000 M6.000 19.000 L 6.000 20.000 5.000 20.000 L 4.000 20.000 4.000 19.000 L 4.000 18.000 5.000 18.000 L 6.000 18.000 6.000 19.000 " stroke="none" fill-rule="evenodd" fill="black"></path></svg>