<svg width="24" height="24" viewBox="0 0 24 24" fill="none" xmlns="http://www.w3.org/2000/svg"><path d="M4.410 1.562 C 3.826 1.667,3.339 1.933,2.874 2.400 C 2.457 2.819,2.243 3.217,2.107 3.829 L 2.020 4.220 2.020 12.000 L 2.020 19.780 2.107 20.171 C 2.158 20.401,2.263 20.705,2.363 20.910 C 2.503 21.199,2.593 21.320,2.896 21.620 C 3.288 22.010,3.588 22.196,4.100 22.366 C 4.492 22.497,5.263 22.496,5.920 22.366 C 6.760 22.199,19.334 19.397,19.700 19.295 C 20.333 19.119,20.683 18.922,21.101 18.505 C 21.407 18.201,21.499 18.078,21.651 17.772 C 22.000 17.070,21.980 17.417,21.980 12.000 C 21.980 6.583,22.000 6.930,21.651 6.228 C 21.499 5.922,21.407 5.799,21.104 5.499 C 20.665 5.062,20.299 4.864,19.600 4.682 C 19.035 4.536,6.750 1.806,6.003 1.661 C 5.408 1.546,4.732 1.504,4.410 1.562 M5.292 3.563 C 5.536 3.599,8.722 4.284,8.930 4.345 C 8.996 4.364,9.000 4.558,9.000 7.683 L 9.000 11.000 6.500 11.000 L 4.000 11.000 4.001 7.950 C 4.002 4.914,4.026 4.220,4.136 4.010 C 4.217 3.855,4.435 3.655,4.600 3.584 C 4.769 3.511,4.913 3.506,5.292 3.563 M13.050 5.261 L 15.000 5.693 15.000 8.347 L 15.000 11.000 13.000 11.000 L 11.000 11.000 11.000 7.896 C 11.000 5.429,11.010 4.795,11.050 4.810 C 11.078 4.820,11.978 5.023,13.050 5.261 M18.003 6.361 C 19.213 6.632,19.521 6.729,19.698 6.895 C 19.978 7.160,19.975 7.133,19.992 9.170 L 20.008 11.000 18.504 11.000 L 17.000 11.000 17.000 8.580 C 17.000 6.587,17.009 6.160,17.053 6.160 C 17.083 6.160,17.510 6.250,18.003 6.361 M9.000 16.317 C 9.000 19.442,8.996 19.636,8.930 19.656 C 8.892 19.668,8.212 19.821,7.420 19.996 C 5.075 20.513,4.849 20.547,4.588 20.416 C 4.424 20.333,4.209 20.131,4.136 19.990 C 4.026 19.780,4.002 19.086,4.001 16.050 L 4.000 13.000 6.500 13.000 L 9.000 13.000 9.000 16.317 M15.000 15.660 C 15.000 17.123,14.991 18.320,14.979 18.320 C 14.961 18.320,11.312 19.127,11.090 19.180 L 11.000 19.202 11.000 16.101 L 11.000 13.000 13.000 13.000 L 15.000 13.000 15.000 15.660 M19.994 14.830 L 19.980 16.660 19.885 16.854 C 19.701 17.226,19.520 17.301,17.947 17.655 L 17.000 17.869 17.000 15.434 L 17.000 13.000 18.504 13.000 L 20.008 13.000 19.994 14.830 " stroke="none" fill-rule="evenodd" fill="black"></path></svg>