<svg width="24" height="24" viewBox="0 0 24 24" fill="none" xmlns="http://www.w3.org/2000/svg"><path d="M6.749 1.045 C 5.967 1.120,5.402 1.371,4.890 1.870 C 4.491 2.260,4.236 2.731,4.094 3.340 C 4.023 3.647,4.020 4.012,4.020 12.020 L 4.020 20.380 4.111 20.735 C 4.225 21.184,4.379 21.505,4.650 21.858 C 5.038 22.363,5.594 22.719,6.265 22.889 L 6.620 22.980 11.980 22.980 C 17.064 22.980,17.357 22.976,17.660 22.906 C 18.459 22.720,19.041 22.327,19.486 21.671 C 19.685 21.378,19.807 21.084,19.906 20.660 C 19.977 20.353,19.980 19.988,19.980 12.000 C 19.980 4.012,19.977 3.647,19.906 3.340 C 19.688 2.404,19.167 1.737,18.329 1.321 C 18.019 1.168,17.706 1.091,17.180 1.042 C 16.648 0.991,7.274 0.994,6.749 1.045 M17.374 3.074 C 17.585 3.145,17.862 3.432,17.928 3.646 C 18.005 3.903,18.005 20.097,17.928 20.354 C 17.863 20.567,17.591 20.849,17.376 20.925 C 17.144 21.007,6.856 21.007,6.624 20.925 C 6.423 20.854,6.141 20.571,6.074 20.374 C 6.032 20.250,6.019 18.672,6.010 12.260 C 6.002 7.181,6.012 4.171,6.038 3.944 C 6.102 3.365,6.342 3.104,6.866 3.042 C 7.017 3.024,9.408 3.012,12.180 3.016 C 16.174 3.021,17.252 3.034,17.374 3.074 M11.637 16.055 C 10.808 16.233,10.294 17.202,10.599 18.010 C 10.759 18.435,11.144 18.812,11.538 18.930 C 11.747 18.992,12.253 18.992,12.462 18.930 C 12.855 18.812,13.242 18.434,13.399 18.013 C 13.707 17.190,13.190 16.230,12.344 16.053 C 12.051 15.991,11.930 15.992,11.637 16.055 " stroke="none" fill-rule="evenodd" fill="black"></path></svg>