<svg width="24" height="24" viewBox="0 0 24 24" fill="none" xmlns="http://www.w3.org/2000/svg"><path d="M15.695 2.057 C 15.466 2.129,15.256 2.299,15.128 2.516 C 15.037 2.672,15.020 2.746,15.020 3.000 C 15.020 3.256,15.036 3.328,15.131 3.489 C 15.192 3.592,15.304 3.725,15.381 3.783 C 15.650 3.989,15.716 3.996,17.200 3.998 L 18.579 4.000 16.374 6.210 C 15.161 7.425,14.138 8.481,14.101 8.555 C 14.064 8.628,14.024 8.781,14.012 8.895 C 13.938 9.624,14.621 10.169,15.325 9.940 C 15.528 9.874,15.669 9.741,17.770 7.646 L 20.000 5.422 20.002 6.801 C 20.003 7.848,20.016 8.216,20.057 8.330 C 20.304 9.022,21.176 9.217,21.696 8.698 C 22.010 8.383,22.000 8.491,22.000 5.500 C 22.000 2.506,22.011 2.617,21.694 2.300 C 21.386 1.992,21.466 2.000,18.483 2.003 C 16.456 2.005,15.822 2.017,15.695 2.057 M5.020 2.583 C 4.379 2.732,4.060 2.871,3.660 3.172 C 3.281 3.458,1.802 4.981,1.588 5.306 C 1.255 5.811,1.048 6.398,0.957 7.095 C 0.867 7.778,1.006 8.483,1.540 10.064 C 2.516 12.954,4.102 15.499,6.300 17.702 C 8.508 19.915,10.827 21.396,13.760 22.467 C 14.337 22.677,15.573 23.035,15.953 23.101 C 16.968 23.278,18.118 23.003,18.946 22.385 C 19.282 22.134,20.301 21.148,20.725 20.663 C 21.059 20.282,21.252 19.951,21.405 19.500 C 21.488 19.255,21.500 19.146,21.499 18.640 C 21.499 18.190,21.482 18.006,21.424 17.820 C 21.334 17.528,21.169 17.186,20.994 16.931 C 20.832 16.693,19.630 15.466,19.280 15.181 C 18.732 14.734,18.117 14.517,17.400 14.516 C 16.521 14.515,15.921 14.774,15.203 15.463 C 14.987 15.670,14.789 15.840,14.764 15.840 C 14.637 15.840,13.761 15.346,13.020 14.857 C 11.120 13.603,9.497 11.792,8.474 9.785 L 8.232 9.310 8.469 9.065 C 8.880 8.639,9.070 8.405,9.212 8.149 C 9.734 7.205,9.713 6.086,9.157 5.150 C 8.965 4.827,7.831 3.641,7.320 3.229 C 6.994 2.966,6.598 2.760,6.220 2.657 C 5.989 2.594,5.186 2.545,5.020 2.583 M5.840 4.643 C 6.057 4.742,7.365 6.020,7.484 6.250 C 7.600 6.475,7.620 6.712,7.543 6.976 C 7.485 7.175,7.423 7.260,7.048 7.652 C 6.812 7.898,6.572 8.181,6.514 8.280 C 6.256 8.721,6.168 9.378,6.303 9.843 C 6.385 10.124,6.949 11.218,7.300 11.777 C 8.261 13.305,9.440 14.624,10.884 15.785 C 11.676 16.423,13.170 17.341,13.964 17.679 C 14.294 17.819,14.698 17.881,15.008 17.839 C 15.544 17.765,15.826 17.611,16.372 17.094 C 16.901 16.593,17.037 16.514,17.378 16.513 C 17.785 16.510,17.895 16.584,18.685 17.385 C 19.449 18.159,19.521 18.266,19.519 18.635 C 19.518 19.026,19.436 19.141,18.547 20.023 C 17.677 20.886,17.565 20.965,17.037 21.095 C 16.585 21.207,16.330 21.172,15.260 20.854 C 11.401 19.708,7.909 17.128,5.553 13.680 C 4.446 12.060,3.537 10.060,3.054 8.180 C 2.893 7.556,2.920 7.099,3.146 6.614 C 3.333 6.212,4.818 4.709,5.125 4.611 C 5.346 4.541,5.643 4.554,5.840 4.643 " stroke="none" fill-rule="evenodd" fill="black"></path></svg>