<svg width="24" height="24" viewBox="0 0 24 24" fill="none" xmlns="http://www.w3.org/2000/svg"><path d="M6.020 1.583 C 5.379 1.732,5.060 1.871,4.660 2.172 C 4.281 2.458,2.802 3.981,2.588 4.306 C 2.255 4.811,2.048 5.398,1.957 6.095 C 1.867 6.778,2.006 7.483,2.540 9.064 C 3.516 11.954,5.099 14.495,7.300 16.702 C 9.774 19.184,12.552 20.844,15.877 21.824 C 17.035 22.166,17.510 22.223,18.207 22.101 C 18.898 21.981,19.455 21.751,19.946 21.385 C 20.282 21.134,21.301 20.148,21.725 19.663 C 22.063 19.277,22.269 18.925,22.410 18.494 C 22.531 18.123,22.539 17.192,22.424 16.820 C 22.334 16.528,22.169 16.186,21.994 15.931 C 21.832 15.693,20.630 14.466,20.280 14.181 C 19.732 13.734,19.117 13.517,18.400 13.516 C 17.521 13.515,16.921 13.774,16.203 14.463 C 15.987 14.670,15.789 14.840,15.764 14.840 C 15.637 14.840,14.761 14.346,14.020 13.857 C 12.120 12.603,10.497 10.792,9.474 8.785 L 9.232 8.310 9.469 8.065 C 9.880 7.639,10.070 7.405,10.212 7.149 C 10.733 6.207,10.713 5.086,10.159 4.154 C 9.969 3.835,8.821 2.632,8.320 2.229 C 7.994 1.966,7.597 1.760,7.220 1.657 C 6.989 1.594,6.186 1.545,6.020 1.583 M6.840 3.643 C 7.057 3.742,8.365 5.020,8.484 5.250 C 8.600 5.475,8.620 5.712,8.543 5.976 C 8.485 6.175,8.423 6.260,8.048 6.652 C 7.812 6.898,7.572 7.181,7.514 7.280 C 7.256 7.721,7.168 8.378,7.303 8.843 C 7.385 9.124,7.949 10.218,8.300 10.777 C 9.261 12.305,10.440 13.624,11.884 14.785 C 12.684 15.429,14.335 16.437,15.040 16.713 C 15.330 16.826,15.725 16.878,16.008 16.839 C 16.544 16.765,16.826 16.611,17.372 16.094 C 17.901 15.593,18.037 15.514,18.378 15.513 C 18.785 15.510,18.895 15.584,19.685 16.385 C 20.449 17.159,20.521 17.266,20.519 17.635 C 20.518 18.025,20.436 18.142,19.548 19.023 C 18.679 19.886,18.569 19.964,18.037 20.095 C 17.659 20.189,17.469 20.177,16.872 20.023 C 14.696 19.464,12.451 18.374,10.680 17.017 C 9.381 16.022,8.168 14.819,7.174 13.540 C 5.764 11.724,4.626 9.405,4.054 7.180 C 3.893 6.556,3.920 6.099,4.146 5.614 C 4.333 5.212,5.818 3.709,6.125 3.611 C 6.346 3.541,6.643 3.554,6.840 3.643 " stroke="none" fill-rule="evenodd" fill="black"></path></svg>