<svg width="24" height="24" viewBox="0 0 24 24" fill="none" xmlns="http://www.w3.org/2000/svg"><path d="M6.020 1.583 C 5.379 1.732,5.060 1.871,4.660 2.172 C 4.281 2.458,2.802 3.981,2.588 4.306 C 2.255 4.811,2.048 5.398,1.957 6.095 C 1.873 6.735,1.990 7.385,2.440 8.780 C 2.828 9.981,3.472 11.435,4.095 12.513 C 4.714 13.585,4.858 13.744,5.299 13.843 C 5.997 13.999,6.668 13.236,6.426 12.560 C 6.399 12.483,6.234 12.186,6.061 11.900 C 5.169 10.432,4.445 8.721,4.037 7.120 C 3.894 6.556,3.928 6.082,4.146 5.614 C 4.346 5.184,5.822 3.706,6.149 3.608 C 6.383 3.538,6.635 3.551,6.840 3.643 C 7.057 3.742,8.365 5.020,8.484 5.250 C 8.600 5.475,8.620 5.712,8.543 5.976 C 8.485 6.175,8.423 6.260,8.048 6.652 C 7.812 6.898,7.572 7.181,7.514 7.280 C 7.256 7.722,7.167 8.381,7.304 8.842 C 7.411 9.200,7.905 10.145,8.075 10.315 C 8.430 10.670,9.011 10.687,9.413 10.355 C 9.619 10.186,9.728 9.953,9.750 9.640 C 9.767 9.385,9.762 9.369,9.501 8.843 L 9.235 8.307 9.471 8.063 C 9.880 7.639,10.071 7.404,10.212 7.149 C 10.733 6.207,10.713 5.086,10.159 4.154 C 9.969 3.835,8.821 2.632,8.320 2.229 C 7.994 1.966,7.597 1.760,7.220 1.657 C 6.989 1.594,6.186 1.545,6.020 1.583 M20.640 2.068 C 20.482 2.121,19.345 3.243,11.347 11.234 C 6.335 16.243,2.190 20.416,2.135 20.508 C 2.078 20.604,2.025 20.767,2.013 20.888 C 1.937 21.624,2.618 22.170,3.325 21.940 C 3.527 21.874,3.671 21.740,5.780 19.639 L 8.020 17.408 8.380 17.724 C 10.008 19.155,11.981 20.368,13.980 21.168 C 14.981 21.568,16.335 21.993,16.953 22.101 C 17.968 22.278,19.118 22.003,19.946 21.385 C 20.282 21.134,21.301 20.148,21.725 19.663 C 22.059 19.282,22.252 18.951,22.405 18.500 C 22.488 18.255,22.500 18.146,22.499 17.640 C 22.499 17.190,22.482 17.006,22.424 16.820 C 22.334 16.528,22.169 16.186,21.994 15.931 C 21.832 15.693,20.630 14.466,20.280 14.181 C 19.732 13.734,19.117 13.517,18.400 13.516 C 17.521 13.515,16.921 13.774,16.203 14.463 C 15.987 14.670,15.789 14.840,15.764 14.840 C 15.637 14.840,14.761 14.346,14.020 13.857 C 13.564 13.556,12.845 13.016,12.661 12.836 C 12.637 12.812,14.303 11.117,17.246 8.169 C 21.490 3.921,21.875 3.524,21.935 3.343 C 22.065 2.947,21.982 2.589,21.694 2.300 C 21.415 2.021,21.027 1.936,20.640 2.068 M11.537 14.499 C 12.497 15.315,13.990 16.265,14.964 16.679 C 15.294 16.819,15.698 16.881,16.008 16.839 C 16.544 16.765,16.826 16.611,17.372 16.094 C 17.616 15.863,17.886 15.638,17.972 15.594 C 18.185 15.485,18.568 15.484,18.804 15.590 C 19.036 15.695,20.362 17.032,20.455 17.255 C 20.545 17.469,20.537 17.819,20.437 18.040 C 20.313 18.314,18.815 19.790,18.520 19.928 C 18.246 20.056,17.831 20.160,17.597 20.160 C 17.060 20.159,15.215 19.559,13.920 18.963 C 12.477 18.300,10.893 17.271,9.707 16.227 L 9.434 15.987 10.307 15.113 C 10.787 14.633,11.191 14.240,11.206 14.240 C 11.221 14.240,11.370 14.357,11.537 14.499 " stroke="none" fill-rule="evenodd" fill="black"></path></svg>