<svg width="24" height="24" viewBox="0 0 24 24" fill="none" xmlns="http://www.w3.org/2000/svg"><path d="M11.280 2.023 C 11.203 2.032,10.951 2.059,10.720 2.083 C 8.435 2.325,6.130 3.401,4.464 5.003 C 3.959 5.488,3.872 5.635,3.872 6.002 C 3.872 6.405,4.080 6.725,4.460 6.905 C 4.707 7.021,4.995 7.028,5.229 6.921 C 5.322 6.879,5.594 6.667,5.833 6.450 C 7.291 5.125,8.831 4.383,10.720 4.094 C 11.354 3.997,12.646 3.997,13.280 4.094 C 15.169 4.383,16.709 5.125,18.167 6.450 C 18.406 6.667,18.678 6.879,18.771 6.921 C 19.236 7.132,19.857 6.873,20.062 6.382 C 20.147 6.178,20.146 5.826,20.060 5.611 C 19.971 5.390,19.242 4.686,18.630 4.229 C 17.055 3.053,15.362 2.360,13.423 2.096 C 13.000 2.038,11.574 1.990,11.280 2.023 M11.440 6.024 C 9.822 6.215,8.713 6.664,7.571 7.587 C 7.011 8.041,6.668 8.427,6.581 8.701 C 6.367 9.381,6.917 10.061,7.621 9.988 C 7.919 9.958,8.049 9.878,8.489 9.456 C 9.252 8.726,10.083 8.288,11.076 8.093 C 11.539 8.002,12.461 8.002,12.924 8.093 C 13.917 8.288,14.748 8.726,15.511 9.456 C 15.951 9.878,16.081 9.958,16.379 9.988 C 16.911 10.043,17.390 9.654,17.465 9.107 C 17.524 8.677,17.262 8.281,16.500 7.646 C 15.512 6.823,14.390 6.308,13.120 6.095 C 12.780 6.038,11.704 5.992,11.440 6.024 M10.808 12.040 C 8.797 12.181,6.933 12.612,5.160 13.348 C 4.443 13.646,3.207 14.270,2.788 14.546 C 2.031 15.045,1.436 15.880,1.133 16.869 C 1.027 17.214,1.025 17.239,1.022 18.360 C 1.020 19.591,1.034 19.699,1.269 20.234 C 1.537 20.846,2.151 21.465,2.750 21.726 C 3.238 21.939,3.416 21.968,4.345 21.989 C 5.075 22.006,5.288 21.998,5.565 21.942 C 6.216 21.810,6.722 21.525,7.189 21.025 C 7.716 20.462,8.000 19.726,8.000 18.924 L 8.000 18.683 8.441 18.543 C 9.767 18.123,11.317 17.938,12.710 18.032 C 13.813 18.107,14.661 18.259,15.559 18.543 L 16.000 18.683 16.001 18.951 C 16.006 19.756,16.295 20.485,16.834 21.052 C 17.290 21.531,17.798 21.813,18.435 21.942 C 18.922 22.040,20.419 22.007,20.800 21.889 C 21.872 21.558,22.581 20.840,22.903 19.760 C 22.972 19.528,22.980 19.375,22.978 18.360 C 22.975 17.238,22.974 17.214,22.868 16.869 C 22.561 15.872,21.966 15.041,21.200 14.541 C 20.764 14.256,19.557 13.646,18.840 13.348 C 17.280 12.701,15.623 12.284,13.880 12.100 C 13.177 12.026,11.483 11.993,10.808 12.040 M13.580 14.083 C 15.627 14.290,17.354 14.795,19.239 15.739 C 20.231 16.236,20.495 16.454,20.773 17.006 C 20.962 17.378,20.999 17.619,21.000 18.444 C 21.000 19.369,20.909 19.622,20.489 19.869 C 20.305 19.977,20.283 19.980,19.590 19.993 C 18.774 20.008,18.584 19.969,18.344 19.736 C 18.092 19.491,18.033 19.324,18.000 18.761 C 17.967 18.192,17.892 17.932,17.660 17.583 C 17.364 17.137,17.022 16.913,16.260 16.668 C 14.828 16.207,13.609 16.023,11.980 16.024 C 10.378 16.025,9.164 16.209,7.740 16.668 C 6.987 16.911,6.649 17.129,6.347 17.568 C 6.116 17.902,6.033 18.189,6.000 18.761 C 5.967 19.324,5.908 19.491,5.656 19.736 C 5.416 19.969,5.226 20.008,4.410 19.993 C 3.717 19.980,3.695 19.977,3.511 19.869 C 3.091 19.622,3.000 19.369,3.000 18.444 C 3.001 17.629,3.039 17.381,3.219 17.014 C 3.488 16.469,3.770 16.236,4.761 15.739 C 6.874 14.681,8.897 14.143,11.220 14.024 C 11.658 14.002,13.137 14.039,13.580 14.083 " stroke="none" fill-rule="evenodd" fill="black"></path></svg>