<svg width="24" height="24" viewBox="0 0 24 24" fill="none" xmlns="http://www.w3.org/2000/svg"><path d="M11.280 1.023 C 11.203 1.032,10.951 1.059,10.720 1.083 C 8.831 1.283,6.988 2.023,5.360 3.235 C 4.747 3.692,3.679 4.758,3.226 5.367 C 0.727 8.724,0.301 13.031,2.097 16.780 C 2.643 17.918,3.276 18.801,4.238 19.762 C 4.971 20.496,5.592 20.987,6.358 21.440 C 10.245 23.741,15.005 23.481,18.637 20.770 C 19.246 20.316,20.316 19.246,20.770 18.637 C 23.744 14.652,23.744 9.348,20.770 5.363 C 20.316 4.755,19.247 3.686,18.640 3.235 C 17.045 2.049,15.365 1.360,13.423 1.096 C 13.000 1.038,11.574 0.990,11.280 1.023 M11.045 7.254 C 11.023 9.121,10.996 10.657,10.985 10.668 C 10.974 10.679,9.321 10.248,7.312 9.709 C 3.832 8.775,3.660 8.725,3.670 8.641 C 3.676 8.593,3.776 8.352,3.894 8.107 C 4.771 6.272,6.339 4.713,8.152 3.873 C 9.045 3.460,9.837 3.222,10.720 3.103 L 11.060 3.058 11.072 3.459 C 11.079 3.679,11.066 5.387,11.045 7.254 M13.900 3.206 C 14.832 3.396,16.069 3.908,16.880 4.440 C 18.278 5.357,19.367 6.589,20.080 8.060 C 20.720 9.379,20.977 10.507,20.977 12.000 C 20.977 13.493,20.720 14.621,20.080 15.940 C 19.205 17.746,17.798 19.160,15.980 20.061 C 14.154 20.967,12.113 21.223,10.101 20.798 C 9.876 20.751,9.668 20.697,9.639 20.679 C 9.599 20.654,9.969 19.700,11.232 16.573 C 12.136 14.333,12.904 12.423,12.937 12.329 C 12.988 12.185,13.004 11.613,13.038 8.789 C 13.061 6.936,13.079 4.891,13.080 4.245 L 13.080 3.070 13.290 3.097 C 13.405 3.112,13.680 3.161,13.900 3.206 M7.328 11.801 C 9.104 12.270,10.575 12.664,10.597 12.678 C 10.620 12.693,10.044 14.169,9.204 16.248 C 8.416 18.198,7.760 19.823,7.746 19.859 C 7.724 19.916,7.698 19.911,7.530 19.814 C 6.877 19.438,6.220 18.933,5.663 18.379 C 3.794 16.523,2.840 13.964,3.039 11.343 C 3.064 11.014,3.092 10.732,3.102 10.716 C 3.112 10.701,3.341 10.746,3.610 10.818 C 3.880 10.890,5.553 11.332,7.328 11.801 " stroke="none" fill-rule="evenodd" fill="black"></path></svg>