<svg width="24" height="24" viewBox="0 0 24 24" fill="none" xmlns="http://www.w3.org/2000/svg"><path d="M11.280 1.023 C 11.203 1.032,10.951 1.059,10.720 1.083 C 9.527 1.210,8.337 1.558,7.180 2.120 C 6.045 2.671,5.193 3.285,4.238 4.239 C 3.277 5.198,2.643 6.080,2.097 7.220 C 0.301 10.968,0.728 15.286,3.226 18.633 C 3.701 19.269,4.753 20.316,5.400 20.797 C 9.364 23.745,14.670 23.734,18.637 20.770 C 19.250 20.312,20.321 19.242,20.771 18.637 C 21.382 17.817,21.858 16.971,22.212 16.080 C 23.642 12.483,23.104 8.490,20.770 5.363 C 20.316 4.755,19.247 3.686,18.640 3.235 C 17.045 2.049,15.365 1.360,13.423 1.096 C 13.000 1.038,11.574 0.990,11.280 1.023 M11.000 7.653 L 11.000 12.226 11.091 12.403 C 11.140 12.500,12.352 14.191,13.783 16.160 C 15.213 18.129,16.398 19.763,16.415 19.791 C 16.438 19.828,16.295 19.915,15.904 20.103 C 12.776 21.607,9.076 21.187,6.370 19.019 C 5.353 18.204,4.494 17.125,3.920 15.940 C 3.487 15.047,3.246 14.271,3.094 13.280 C 2.997 12.646,2.997 11.354,3.094 10.720 C 3.494 8.105,4.917 5.885,7.120 4.440 C 7.944 3.900,9.191 3.386,10.120 3.205 C 10.351 3.160,10.576 3.115,10.620 3.106 C 10.664 3.097,10.768 3.087,10.850 3.085 L 11.000 3.080 11.000 7.653 M13.559 3.140 C 16.006 3.570,18.201 5.027,19.557 7.120 C 19.852 7.574,20.260 8.395,20.454 8.920 C 20.674 9.518,20.920 10.557,20.920 10.890 L 20.920 11.000 16.960 11.000 L 13.000 11.000 13.000 7.040 L 13.000 3.080 13.110 3.080 C 13.171 3.080,13.373 3.107,13.559 3.140 M20.920 13.118 C 20.920 13.305,20.766 14.061,20.636 14.516 C 20.321 15.616,19.702 16.792,18.959 17.701 C 18.613 18.125,18.080 18.657,18.044 18.616 C 18.026 18.596,17.101 17.325,15.988 15.790 L 13.964 13.000 17.442 13.000 L 20.920 13.000 20.920 13.118 " stroke="none" fill-rule="evenodd" fill="black"></path></svg>