<svg width="24" height="24" viewBox="0 0 24 24" fill="none" xmlns="http://www.w3.org/2000/svg"><path d="M14.034 1.096 C 13.613 1.246,13.268 1.567,13.111 1.954 L 13.020 2.180 13.020 6.020 L 13.020 9.860 13.144 10.120 C 13.301 10.450,13.550 10.699,13.880 10.856 L 14.140 10.980 17.980 10.980 L 21.820 10.980 22.060 10.883 C 22.343 10.770,22.699 10.435,22.830 10.160 C 22.930 9.951,23.006 9.525,22.980 9.322 C 22.970 9.244,22.942 9.018,22.917 8.820 C 22.863 8.391,22.721 7.762,22.564 7.263 C 21.707 4.528,19.478 2.299,16.740 1.437 C 15.674 1.102,14.450 0.947,14.034 1.096 M15.560 3.185 C 15.986 3.279,16.554 3.476,16.980 3.677 C 19.057 4.659,20.508 6.573,20.898 8.850 L 20.924 9.000 17.962 9.000 L 15.000 9.000 15.000 6.038 L 15.000 3.076 15.150 3.102 C 15.232 3.116,15.417 3.154,15.560 3.185 M8.800 5.082 C 7.379 5.315,6.412 5.658,5.340 6.310 C 3.638 7.344,2.396 8.805,1.660 10.640 C 0.943 12.425,0.812 14.224,1.260 16.140 C 1.468 17.031,1.985 18.213,2.502 18.979 C 4.007 21.209,6.309 22.613,9.002 22.944 C 9.645 23.023,10.802 23.002,11.400 22.902 C 12.839 22.659,14.376 21.998,15.479 21.146 C 17.402 19.660,18.656 17.439,18.939 15.022 C 19.028 14.258,18.943 13.892,18.581 13.489 C 18.386 13.273,18.065 13.098,17.755 13.039 C 17.632 13.016,16.240 13.000,14.276 13.000 L 11.002 13.000 10.991 9.590 L 10.980 6.180 10.888 5.952 C 10.766 5.650,10.503 5.365,10.193 5.198 C 9.951 5.068,9.920 5.061,9.480 5.054 C 9.227 5.049,8.921 5.062,8.800 5.082 M9.009 10.470 L 9.020 13.860 9.144 14.120 C 9.301 14.450,9.550 14.699,9.880 14.856 L 10.140 14.980 13.530 14.991 C 15.957 14.999,16.920 15.015,16.920 15.046 C 16.920 15.188,16.691 16.078,16.572 16.400 C 15.756 18.602,13.935 20.230,11.649 20.800 C 9.798 21.261,7.751 20.905,6.160 19.845 C 3.498 18.072,2.367 14.820,3.361 11.796 C 3.532 11.276,3.990 10.371,4.299 9.940 C 5.297 8.552,6.778 7.562,8.420 7.186 C 8.662 7.131,8.891 7.084,8.929 7.083 C 8.993 7.080,8.998 7.295,9.009 10.470 " stroke="none" fill-rule="evenodd" fill="black"></path></svg>