<svg width="24" height="24" viewBox="0 0 24 24" fill="none" xmlns="http://www.w3.org/2000/svg"><path d="M11.996 1.099 C 11.613 1.240,11.264 1.578,11.111 1.954 L 11.020 2.180 11.020 7.020 L 11.020 11.860 11.144 12.120 C 11.301 12.450,11.550 12.699,11.880 12.856 L 12.140 12.980 16.980 12.980 L 21.820 12.980 22.050 12.887 C 22.345 12.768,22.687 12.456,22.819 12.185 C 22.986 11.845,23.014 11.551,22.941 10.903 C 22.707 8.817,21.997 7.006,20.770 5.363 C 20.370 4.828,19.308 3.745,18.800 3.353 C 17.193 2.116,15.379 1.359,13.403 1.100 C 12.845 1.027,12.192 1.026,11.996 1.099 M7.440 1.993 C 6.430 2.443,5.359 3.151,4.560 3.896 C 2.647 5.678,1.486 7.905,1.092 10.540 C 0.984 11.268,0.994 12.869,1.112 13.592 C 1.605 16.609,3.119 19.113,5.520 20.883 C 7.426 22.288,9.906 23.059,12.280 22.986 C 15.165 22.897,17.715 21.802,19.744 19.782 C 20.569 18.961,21.113 18.245,21.632 17.300 C 22.139 16.377,22.276 15.933,22.162 15.587 C 22.034 15.199,21.643 14.908,21.243 14.906 C 20.705 14.902,20.503 15.077,20.100 15.897 C 19.605 16.903,19.060 17.664,18.305 18.401 C 17.555 19.134,16.835 19.646,15.940 20.080 C 14.085 20.981,12.043 21.222,10.047 20.776 C 7.131 20.124,4.715 18.056,3.626 15.278 C 2.157 11.528,3.362 7.264,6.587 4.810 C 7.008 4.489,7.497 4.192,8.107 3.886 C 8.649 3.615,8.843 3.448,8.937 3.169 C 9.021 2.924,9.016 2.726,8.920 2.469 C 8.777 2.088,8.417 1.842,8.000 1.841 C 7.831 1.841,7.700 1.877,7.440 1.993 M13.800 3.186 C 16.730 3.776,19.222 5.852,20.338 8.634 C 20.621 9.339,20.833 10.133,20.902 10.750 L 20.930 11.000 16.965 11.000 L 13.000 11.000 13.000 7.035 L 13.000 3.070 13.250 3.098 C 13.388 3.113,13.635 3.153,13.800 3.186 " stroke="none" fill-rule="evenodd" fill="black"></path></svg>