<svg width="24" height="24" viewBox="0 0 24 24" fill="none" xmlns="http://www.w3.org/2000/svg"><path d="M10.900 2.045 C 10.211 2.131,9.422 2.450,8.857 2.871 C 7.602 3.805,6.939 5.197,7.012 6.742 L 7.035 7.229 6.767 7.423 C 6.377 7.707,5.621 8.484,5.310 8.921 C 4.766 9.686,4.295 10.773,4.130 11.645 L 4.062 12.009 3.867 11.986 C 3.504 11.943,3.187 11.681,3.058 11.316 C 2.906 10.883,3.075 10.422,3.490 10.143 C 3.721 9.987,3.903 9.743,3.962 9.508 C 4.172 8.675,3.316 8.009,2.536 8.398 C 1.920 8.706,1.381 9.369,1.136 10.120 C 1.037 10.421,1.025 10.522,1.023 11.000 C 1.021 11.457,1.035 11.586,1.114 11.840 C 1.488 13.041,2.531 13.893,3.742 13.986 L 4.075 14.011 4.101 14.176 C 4.293 15.390,4.898 16.642,5.778 17.651 L 5.980 17.882 6.000 19.371 L 6.020 20.860 6.144 21.120 C 6.301 21.450,6.549 21.699,6.880 21.856 L 7.140 21.980 8.629 21.993 C 9.877 22.003,10.157 21.995,10.361 21.943 C 11.118 21.749,11.515 21.148,11.519 20.190 L 11.520 20.000 12.000 20.000 L 12.480 20.000 12.480 20.210 C 12.482 21.144,12.887 21.750,13.639 21.943 C 13.843 21.995,14.123 22.003,15.371 21.993 L 16.860 21.980 17.120 21.856 C 17.452 21.699,17.700 21.449,17.854 21.120 C 17.974 20.864,17.976 20.848,17.992 20.088 L 18.009 19.317 18.254 19.194 C 19.083 18.778,20.016 17.990,20.573 17.235 L 20.740 17.009 21.300 16.991 C 21.818 16.974,21.880 16.964,22.120 16.853 C 22.449 16.701,22.698 16.452,22.856 16.120 L 22.980 15.860 22.980 13.500 L 22.980 11.140 22.856 10.880 C 22.620 10.383,22.171 10.073,21.608 10.018 L 21.316 9.989 21.196 9.752 C 20.964 9.293,20.653 8.847,20.194 8.315 L 20.007 8.100 19.992 7.220 C 19.978 6.419,19.968 6.319,19.885 6.110 C 19.757 5.786,19.458 5.472,19.127 5.314 C 18.890 5.201,18.823 5.187,18.520 5.189 C 18.218 5.191,18.055 5.227,17.069 5.510 L 15.959 5.829 15.936 5.724 C 15.674 4.498,15.098 3.582,14.143 2.871 C 13.240 2.198,12.066 1.899,10.900 2.045 M12.020 4.060 C 12.741 4.211,13.395 4.713,13.715 5.362 C 14.087 6.118,14.090 6.878,13.723 7.620 C 13.439 8.195,12.932 8.646,12.320 8.868 C 12.052 8.965,11.965 8.976,11.500 8.976 C 11.035 8.976,10.948 8.965,10.680 8.868 C 10.068 8.646,9.561 8.195,9.277 7.620 C 8.910 6.878,8.913 6.118,9.285 5.362 C 9.774 4.371,10.914 3.828,12.020 4.060 M18.144 8.920 C 18.218 9.076,18.378 9.300,18.544 9.480 C 19.044 10.021,19.200 10.247,19.565 10.960 C 19.896 11.606,20.203 11.866,20.756 11.969 L 21.000 12.014 21.000 13.501 L 21.000 14.989 20.570 15.010 C 19.853 15.045,19.597 15.193,19.102 15.853 C 18.516 16.637,18.002 17.074,17.139 17.524 C 16.562 17.825,16.406 17.941,16.246 18.191 C 16.058 18.484,16.000 18.774,16.000 19.428 L 16.000 20.000 15.266 20.000 L 14.532 20.000 14.506 19.626 C 14.460 18.979,14.289 18.605,13.910 18.319 C 13.527 18.031,13.458 18.020,12.000 18.020 C 10.542 18.020,10.473 18.031,10.090 18.319 C 9.710 18.605,9.536 18.988,9.493 19.630 L 9.468 20.000 8.736 20.000 L 8.004 20.000 7.992 18.670 L 7.980 17.340 7.856 17.080 C 7.781 16.922,7.623 16.702,7.454 16.520 C 7.064 16.099,6.824 15.774,6.615 15.382 C 6.259 14.713,6.109 14.212,6.034 13.444 C 5.891 11.981,6.430 10.500,7.489 9.450 L 7.822 9.120 8.066 9.396 C 8.741 10.164,9.452 10.606,10.437 10.871 C 10.778 10.963,10.895 10.974,11.500 10.974 C 12.105 10.974,12.222 10.963,12.563 10.871 C 13.977 10.491,15.064 9.575,15.620 8.298 C 15.692 8.132,15.760 7.987,15.770 7.976 C 15.781 7.966,16.282 7.816,16.885 7.644 L 17.980 7.332 18.000 7.996 C 18.019 8.636,18.025 8.670,18.144 8.920 " stroke="none" fill-rule="evenodd" fill="black"></path></svg>