<svg width="24" height="24" viewBox="0 0 24 24" fill="none" xmlns="http://www.w3.org/2000/svg"><path d="M5.920 2.041 C 5.151 2.092,4.672 2.205,4.180 2.451 C 3.089 2.996,2.357 3.961,2.124 5.160 C 2.013 5.729,2.000 6.455,2.000 12.000 C 2.000 18.358,2.006 18.526,2.245 19.320 C 2.577 20.422,3.578 21.423,4.680 21.755 C 5.474 21.994,5.642 22.000,12.000 22.000 C 18.358 22.000,18.526 21.994,19.320 21.755 C 20.422 21.423,21.423 20.422,21.755 19.320 C 21.994 18.526,22.000 18.358,22.000 12.000 C 22.000 5.642,21.994 5.474,21.755 4.680 C 21.424 3.581,20.465 2.622,19.320 2.246 C 18.644 2.024,18.800 2.029,12.340 2.019 C 9.062 2.014,6.173 2.024,5.920 2.041 M18.492 4.091 C 18.894 4.188,19.109 4.309,19.400 4.600 C 19.696 4.895,19.814 5.109,19.912 5.528 C 19.975 5.797,19.980 6.313,19.980 12.000 C 19.980 17.687,19.975 18.203,19.912 18.472 C 19.814 18.891,19.696 19.104,19.400 19.401 C 19.101 19.701,18.820 19.851,18.418 19.928 C 18.010 20.005,5.990 20.005,5.582 19.927 C 5.170 19.850,4.898 19.704,4.600 19.403 C 4.303 19.104,4.186 18.890,4.088 18.472 C 4.025 18.203,4.020 17.687,4.020 12.000 C 4.020 6.313,4.025 5.797,4.088 5.528 C 4.175 5.155,4.294 4.918,4.520 4.667 C 4.883 4.262,5.282 4.091,5.980 4.039 C 6.200 4.023,9.044 4.013,12.300 4.018 C 17.643 4.024,18.247 4.032,18.492 4.091 M10.358 6.061 C 9.230 6.237,8.143 6.974,7.569 7.953 C 6.320 10.083,7.233 12.785,9.512 13.704 C 10.184 13.975,10.424 14.000,12.315 14.000 L 13.997 14.000 14.008 15.653 L 14.020 17.306 14.141 17.503 C 14.543 18.156,15.457 18.156,15.859 17.503 L 15.980 17.306 15.980 12.003 L 15.980 6.700 15.872 6.516 C 15.740 6.293,15.533 6.128,15.290 6.055 C 15.032 5.977,10.862 5.983,10.358 6.061 M14.000 10.000 L 14.000 12.000 12.368 12.000 C 10.610 12.000,10.492 11.989,10.083 11.781 C 9.975 11.727,9.782 11.585,9.653 11.465 C 8.665 10.547,8.829 8.981,9.987 8.279 C 10.415 8.020,10.546 8.005,12.370 8.002 L 14.000 8.000 14.000 10.000 " stroke="none" fill-rule="evenodd" fill="black"></path></svg>