<svg width="24" height="24" viewBox="0 0 24 24" fill="none" xmlns="http://www.w3.org/2000/svg"><path d="M9.860 3.047 C 8.632 3.185,7.479 3.751,6.579 4.659 C 4.483 6.771,4.480 10.201,6.573 12.333 C 7.443 13.220,8.496 13.756,9.729 13.941 C 10.039 13.988,10.619 14.000,12.560 14.000 L 15.000 14.000 15.000 16.500 L 15.000 19.000 14.446 19.000 C 13.648 19.000,13.367 19.110,13.128 19.516 C 13.037 19.672,13.020 19.746,13.020 20.000 C 13.020 20.256,13.036 20.328,13.131 20.489 C 13.256 20.702,13.449 20.864,13.670 20.943 C 13.889 21.021,18.111 21.021,18.330 20.943 C 18.551 20.864,18.744 20.702,18.869 20.489 C 18.964 20.328,18.980 20.256,18.980 20.000 C 18.980 19.746,18.963 19.672,18.872 19.516 C 18.633 19.110,18.352 19.000,17.554 19.000 L 17.000 19.000 17.000 12.000 L 17.000 5.000 17.590 4.998 C 17.977 4.997,18.232 4.978,18.330 4.943 C 18.551 4.864,18.744 4.702,18.869 4.489 C 18.964 4.328,18.980 4.256,18.980 4.000 C 18.980 3.746,18.963 3.672,18.872 3.516 C 18.813 3.415,18.698 3.282,18.618 3.221 C 18.319 2.993,18.448 3.000,14.144 3.005 C 11.964 3.008,10.036 3.027,9.860 3.047 M15.000 8.502 L 15.000 12.004 12.430 11.990 C 9.934 11.977,9.852 11.974,9.580 11.891 C 8.568 11.580,7.811 10.943,7.342 10.005 C 7.095 9.513,7.028 9.191,7.028 8.500 C 7.028 8.017,7.044 7.840,7.111 7.595 C 7.467 6.286,8.634 5.235,9.942 5.044 C 10.073 5.025,11.264 5.008,12.590 5.005 L 15.000 5.000 15.000 8.502 " stroke="none" fill-rule="evenodd" fill="black"></path></svg>