<svg width="24" height="24" viewBox="0 0 24 24" fill="none" xmlns="http://www.w3.org/2000/svg"><path d="M8.400 3.044 C 6.759 3.231,5.261 4.290,4.526 5.785 C 4.158 6.533,4.020 7.136,4.020 8.000 C 4.020 8.448,4.040 8.714,4.093 8.960 C 4.523 10.968,5.970 12.429,8.000 12.904 C 8.264 12.966,8.584 12.976,10.650 12.989 L 13.000 13.004 13.000 16.002 L 13.000 19.000 12.446 19.000 C 11.648 19.000,11.367 19.110,11.128 19.516 C 11.037 19.672,11.020 19.746,11.020 20.000 C 11.020 20.256,11.036 20.328,11.131 20.489 C 11.256 20.702,11.449 20.864,11.670 20.943 C 11.791 20.986,12.572 20.997,15.760 20.998 L 19.700 20.999 19.900 20.905 C 20.281 20.724,20.488 20.405,20.488 20.000 C 20.488 19.615,20.292 19.296,19.940 19.107 C 19.800 19.032,19.702 19.019,19.150 19.007 L 18.520 18.993 18.520 11.996 L 18.520 5.000 19.110 5.000 C 19.647 4.999,19.718 4.991,19.900 4.905 C 20.281 4.724,20.488 4.405,20.488 4.000 C 20.488 3.615,20.293 3.297,19.940 3.106 L 19.780 3.020 14.240 3.015 C 11.193 3.012,8.565 3.025,8.400 3.044 M13.000 8.002 L 13.000 11.004 10.710 10.991 C 8.438 10.978,8.418 10.977,8.140 10.885 C 7.160 10.560,6.415 9.811,6.125 8.861 C 6.042 8.588,6.027 8.458,6.027 8.000 C 6.027 7.542,6.042 7.412,6.125 7.139 C 6.456 6.054,7.390 5.229,8.499 5.043 C 8.609 5.025,9.668 5.007,10.850 5.005 L 13.000 5.000 13.000 8.002 M16.480 12.000 L 16.480 19.000 15.740 19.000 L 15.000 19.000 15.000 12.000 L 15.000 5.000 15.740 5.000 L 16.480 5.000 16.480 12.000 " stroke="none" fill-rule="evenodd" fill="black"></path></svg>