<svg width="24" height="24" viewBox="0 0 24 24" fill="none" xmlns="http://www.w3.org/2000/svg"><path d="M13.778 1.321 C 13.435 1.430,13.076 1.675,12.862 1.947 C 12.627 2.247,12.467 2.580,11.699 4.380 L 11.068 5.860 10.194 6.741 L 9.320 7.621 7.230 8.037 C 4.773 8.526,4.156 8.672,3.802 8.846 C 3.434 9.026,3.116 9.355,2.930 9.748 C 2.795 10.031,2.780 10.097,2.767 10.460 C 2.755 10.792,2.767 10.904,2.840 11.120 C 3.009 11.621,3.198 11.842,5.127 13.781 L 6.957 15.623 4.456 18.121 C 3.080 19.496,1.910 20.696,1.855 20.788 C 1.569 21.268,1.779 21.922,2.302 22.182 C 2.515 22.287,2.921 22.288,3.140 22.183 C 3.246 22.133,4.159 21.251,5.841 19.574 L 8.381 17.041 9.901 18.564 C 11.837 20.506,12.199 20.836,12.627 21.048 C 12.923 21.195,12.993 21.213,13.328 21.230 C 14.285 21.280,14.975 20.772,15.317 19.765 C 15.364 19.625,15.620 18.428,15.885 17.105 L 16.366 14.700 17.248 13.815 L 18.130 12.930 19.515 12.339 C 21.303 11.576,21.808 11.332,22.080 11.100 C 22.836 10.454,22.982 9.412,22.435 8.560 C 22.198 8.192,15.810 1.803,15.440 1.565 C 14.938 1.243,14.314 1.151,13.778 1.321 M17.578 6.438 C 19.315 8.175,20.728 9.604,20.718 9.613 C 20.667 9.660,20.241 9.850,18.766 10.481 C 17.594 10.983,17.089 11.219,16.926 11.343 C 16.598 11.589,14.793 13.428,14.668 13.641 C 14.610 13.741,14.534 13.903,14.498 14.001 C 14.463 14.100,14.239 15.152,14.000 16.340 C 13.501 18.825,13.445 19.086,13.395 19.139 C 13.356 19.180,4.840 10.696,4.840 10.615 C 4.840 10.563,5.344 10.453,7.920 9.940 C 9.453 9.635,9.919 9.528,10.140 9.429 C 10.398 9.315,10.507 9.218,11.514 8.222 C 12.115 7.627,12.659 7.066,12.722 6.975 C 12.785 6.885,13.145 6.093,13.523 5.215 C 13.900 4.338,14.242 3.544,14.283 3.450 C 14.324 3.357,14.371 3.280,14.389 3.280 C 14.406 3.280,15.841 4.701,17.578 6.438 " stroke="none" fill-rule="evenodd" fill="black"></path></svg>