<svg width="24" height="24" viewBox="0 0 24 24" fill="none" xmlns="http://www.w3.org/2000/svg"><path d="M7.247 1.042 C 6.741 1.109,6.346 1.302,6.026 1.637 C 5.644 2.037,5.450 2.571,5.496 3.088 C 5.531 3.473,5.651 3.822,6.365 5.610 L 7.000 7.203 7.000 8.426 L 7.000 9.650 5.925 10.995 C 4.434 12.859,4.274 13.093,4.138 13.605 C 3.983 14.187,4.172 14.869,4.621 15.354 C 4.873 15.627,5.122 15.770,5.547 15.889 C 5.851 15.974,5.930 15.977,8.429 15.991 L 10.998 16.004 11.009 19.155 L 11.020 22.306 11.141 22.503 C 11.543 23.156,12.457 23.156,12.859 22.503 L 12.980 22.306 12.991 19.155 L 13.002 16.004 15.571 15.991 C 18.070 15.977,18.149 15.974,18.453 15.889 C 18.879 15.770,19.127 15.627,19.381 15.352 C 19.830 14.867,20.017 14.188,19.862 13.605 C 19.726 13.093,19.566 12.859,18.075 10.995 L 17.000 9.650 17.000 8.426 L 17.000 7.203 17.635 5.610 C 18.349 3.822,18.469 3.473,18.504 3.088 C 18.553 2.539,18.325 1.963,17.902 1.569 C 17.634 1.319,17.426 1.202,17.060 1.093 C 16.837 1.027,16.496 1.021,12.160 1.015 C 9.597 1.012,7.386 1.024,7.247 1.042 M16.460 3.040 C 16.474 3.063,16.175 3.859,15.795 4.810 C 15.416 5.762,15.082 6.639,15.053 6.760 C 14.986 7.045,14.978 9.732,15.044 10.048 C 15.131 10.466,15.294 10.715,16.306 11.981 C 17.587 13.583,17.844 13.921,17.817 13.964 C 17.788 14.012,6.212 14.012,6.182 13.964 C 6.157 13.922,6.469 13.514,7.774 11.881 C 8.704 10.718,8.870 10.460,8.956 10.048 C 9.022 9.732,9.014 7.045,8.947 6.760 C 8.918 6.639,8.584 5.762,8.205 4.810 C 7.825 3.859,7.526 3.063,7.540 3.040 C 7.574 2.984,16.426 2.984,16.460 3.040 " stroke="none" fill-rule="evenodd" fill="black"></path></svg>