<svg width="24" height="24" viewBox="0 0 24 24" fill="none" xmlns="http://www.w3.org/2000/svg"><path d="M18.960 1.108 C 18.453 1.193,17.840 1.459,17.409 1.781 C 17.295 1.866,16.500 2.659,15.643 3.544 L 14.083 5.154 13.851 5.100 C 6.364 3.357,5.952 3.267,5.520 3.265 C 5.047 3.263,4.793 3.333,4.453 3.561 C 4.179 3.745,2.767 5.174,2.584 5.453 C 2.064 6.248,2.154 7.249,2.804 7.886 C 3.180 8.255,3.491 8.382,6.370 9.343 C 7.816 9.825,9.000 10.229,9.000 10.240 C 9.000 10.251,8.465 10.795,7.810 11.448 L 6.620 12.636 5.580 12.519 C 4.071 12.349,3.772 12.360,3.272 12.597 C 2.838 12.804,1.705 13.962,1.462 14.446 C 1.188 14.994,1.188 15.567,1.461 16.140 C 1.681 16.599,1.922 16.800,3.654 17.956 L 5.207 18.993 6.244 20.546 C 7.396 22.270,7.598 22.515,8.060 22.742 C 8.619 23.016,9.178 23.017,9.748 22.743 C 10.052 22.597,10.591 22.137,11.092 21.598 C 11.491 21.168,11.622 20.968,11.732 20.621 C 11.845 20.261,11.839 19.917,11.703 18.728 C 11.646 18.238,11.600 17.770,11.600 17.688 C 11.600 17.547,11.657 17.482,12.778 16.362 C 13.427 15.714,13.964 15.192,13.972 15.202 C 13.981 15.212,14.380 16.394,14.859 17.829 C 15.382 19.396,15.800 20.582,15.906 20.799 C 16.463 21.938,17.705 22.295,18.747 21.616 C 19.042 21.424,20.511 19.966,20.678 19.700 C 20.960 19.249,21.023 18.751,20.882 18.074 C 20.827 17.810,19.344 11.344,19.065 10.153 C 19.054 10.109,19.532 9.580,20.495 8.571 C 21.290 7.738,22.036 6.950,22.153 6.822 C 22.443 6.502,22.698 6.054,22.846 5.600 C 22.952 5.278,22.973 5.140,22.990 4.697 C 23.029 3.659,22.754 2.906,22.070 2.179 C 21.565 1.642,20.937 1.284,20.241 1.137 C 20.000 1.086,19.199 1.068,18.960 1.108 M20.160 3.205 C 20.436 3.336,20.714 3.615,20.864 3.912 C 20.969 4.118,20.980 4.178,20.980 4.540 C 20.980 5.161,20.973 5.171,19.480 6.736 C 17.512 8.798,17.411 8.910,17.262 9.207 C 17.076 9.579,17.013 9.958,17.073 10.346 C 17.099 10.512,17.536 12.449,18.044 14.650 L 18.968 18.652 18.335 19.285 C 17.909 19.712,17.693 19.902,17.672 19.869 C 17.655 19.842,17.134 18.299,16.515 16.440 C 15.896 14.581,15.347 12.976,15.296 12.874 C 15.056 12.395,14.441 12.192,13.970 12.436 C 13.886 12.479,12.954 13.384,11.857 14.487 C 9.709 16.645,9.741 16.607,9.615 17.210 C 9.553 17.509,9.564 17.694,9.737 19.200 L 9.831 20.020 9.375 20.480 C 9.108 20.749,8.906 20.923,8.889 20.899 C 8.873 20.876,8.390 20.156,7.815 19.299 C 7.240 18.441,6.700 17.670,6.615 17.585 C 6.530 17.500,5.785 16.979,4.960 16.429 C 4.135 15.878,3.417 15.394,3.364 15.353 L 3.268 15.279 3.724 14.824 L 4.180 14.370 5.180 14.486 C 6.491 14.638,6.896 14.646,7.240 14.526 C 7.383 14.476,7.599 14.370,7.720 14.292 C 8.031 14.089,11.686 10.427,11.784 10.220 C 11.886 10.005,11.886 9.555,11.784 9.360 C 11.689 9.178,11.530 9.008,11.381 8.931 C 11.316 8.897,9.738 8.360,7.875 7.738 C 6.011 7.115,4.440 6.582,4.384 6.552 L 4.281 6.498 4.913 5.867 L 5.546 5.235 9.463 6.139 C 11.617 6.636,13.541 7.071,13.738 7.105 C 13.951 7.142,14.178 7.157,14.298 7.142 C 14.620 7.102,15.027 6.940,15.262 6.758 C 15.382 6.666,16.184 5.863,17.046 4.973 C 18.883 3.076,18.883 3.075,19.560 3.092 C 19.875 3.099,19.978 3.118,20.160 3.205 " stroke="none" fill-rule="evenodd" fill="black"></path></svg>