<svg width="24" height="24" viewBox="0 0 24 24" fill="none" xmlns="http://www.w3.org/2000/svg"><path d="M5.920 2.041 C 5.151 2.092,4.672 2.205,4.180 2.451 C 3.089 2.996,2.357 3.961,2.124 5.160 C 2.013 5.729,2.000 6.455,2.000 12.000 C 2.000 18.358,2.006 18.526,2.245 19.320 C 2.577 20.422,3.578 21.423,4.680 21.755 C 5.474 21.994,5.642 22.000,12.000 22.000 C 18.358 22.000,18.526 21.994,19.320 21.755 C 20.422 21.423,21.423 20.422,21.755 19.320 C 21.994 18.526,22.000 18.358,22.000 12.000 C 22.000 5.642,21.994 5.474,21.755 4.680 C 21.424 3.581,20.465 2.622,19.320 2.246 C 18.644 2.024,18.800 2.029,12.340 2.019 C 9.062 2.014,6.173 2.024,5.920 2.041 M18.492 4.091 C 18.894 4.188,19.109 4.309,19.400 4.600 C 19.696 4.895,19.814 5.109,19.912 5.528 C 19.975 5.797,19.980 6.313,19.980 12.000 C 19.980 17.687,19.975 18.203,19.912 18.472 C 19.814 18.891,19.696 19.104,19.400 19.401 C 19.101 19.701,18.820 19.851,18.418 19.928 C 18.010 20.005,5.990 20.005,5.582 19.927 C 5.170 19.850,4.898 19.704,4.600 19.403 C 4.303 19.104,4.186 18.890,4.088 18.472 C 4.025 18.203,4.020 17.687,4.020 12.000 C 4.020 6.313,4.025 5.797,4.088 5.528 C 4.175 5.155,4.294 4.918,4.520 4.667 C 4.883 4.262,5.282 4.091,5.980 4.039 C 6.200 4.023,9.044 4.013,12.300 4.018 C 17.643 4.024,18.247 4.032,18.492 4.091 M9.597 6.972 C 9.187 7.088,8.833 7.391,8.657 7.775 C 8.601 7.898,8.546 8.126,8.522 8.340 C 8.467 8.823,8.467 15.177,8.522 15.660 C 8.594 16.286,8.879 16.718,9.371 16.945 C 9.587 17.045,9.668 17.060,9.980 17.060 C 10.312 17.060,10.363 17.049,10.640 16.915 C 11.066 16.708,16.252 13.365,16.533 13.116 C 16.807 12.872,16.930 12.691,17.017 12.399 C 17.102 12.110,17.096 11.861,16.996 11.535 C 16.842 11.038,16.715 10.941,13.660 8.981 C 12.186 8.036,10.845 7.193,10.680 7.109 C 10.431 6.981,10.329 6.952,10.080 6.938 C 9.901 6.927,9.706 6.941,9.597 6.972 M12.460 10.593 C 13.472 11.242,14.377 11.825,14.472 11.890 L 14.643 12.006 12.652 13.287 C 11.556 13.991,10.628 14.585,10.590 14.605 C 10.524 14.641,10.520 14.505,10.520 11.999 C 10.520 9.895,10.530 9.361,10.570 9.384 C 10.598 9.400,11.448 9.944,12.460 10.593 " stroke="none" fill-rule="evenodd" fill="black"></path></svg>