<svg width="24" height="24" viewBox="0 0 24 24" fill="none" xmlns="http://www.w3.org/2000/svg"><path d="M5.503 1.925 C 5.217 1.992,4.846 2.206,4.610 2.440 C 4.358 2.690,4.208 2.956,4.094 3.360 C 4.023 3.609,4.020 3.981,4.020 12.000 C 4.020 20.019,4.023 20.391,4.094 20.640 C 4.208 21.045,4.355 21.306,4.611 21.558 C 5.296 22.234,6.201 22.303,7.140 21.751 C 7.294 21.660,10.088 19.807,13.349 17.633 C 17.608 14.794,19.355 13.608,19.553 13.421 C 20.416 12.607,20.416 11.393,19.552 10.578 C 19.353 10.390,17.601 9.201,13.278 6.319 C 9.980 4.121,7.137 2.249,6.960 2.160 C 6.784 2.071,6.537 1.972,6.411 1.939 C 6.161 1.874,5.748 1.867,5.503 1.925 M12.360 8.110 C 15.733 10.361,18.100 11.965,18.100 12.000 C 18.100 12.035,15.620 13.714,12.082 16.075 C 6.883 19.543,6.060 20.079,6.035 20.015 C 6.000 19.927,5.990 4.141,6.024 4.013 C 6.047 3.929,6.057 3.932,6.334 4.103 C 6.491 4.200,9.203 6.003,12.360 8.110 " stroke="none" fill-rule="evenodd" fill="black"></path></svg>