<svg width="24" height="24" viewBox="0 0 24 24" fill="none" xmlns="http://www.w3.org/2000/svg"><path d="M11.300 1.023 C 10.035 1.149,9.226 1.332,8.280 1.706 C 5.300 2.884,3.080 5.375,2.300 8.416 C 2.077 9.288,2.022 9.745,2.021 10.760 C 2.020 11.698,2.051 12.021,2.223 12.829 C 2.594 14.577,3.576 16.354,4.886 17.646 C 5.449 18.202,6.275 18.845,6.554 18.944 C 6.993 19.101,7.503 18.907,7.749 18.489 C 7.842 18.331,7.860 18.254,7.860 18.020 C 7.860 17.570,7.770 17.433,7.186 16.989 C 6.074 16.143,5.297 15.201,4.731 14.010 C 3.903 12.268,3.782 10.291,4.387 8.400 C 4.568 7.833,5.011 6.948,5.370 6.433 C 6.635 4.619,8.658 3.387,10.880 3.076 C 11.369 3.008,12.631 3.008,13.120 3.076 C 16.443 3.541,19.144 6.000,19.823 9.179 C 20.368 11.729,19.584 14.349,17.723 16.200 C 17.490 16.432,17.087 16.782,16.827 16.978 C 16.232 17.428,16.140 17.565,16.140 18.000 C 16.140 18.256,16.156 18.328,16.251 18.489 C 16.497 18.907,17.007 19.101,17.446 18.944 C 17.526 18.916,17.724 18.796,17.886 18.679 C 19.273 17.676,20.286 16.480,21.022 14.980 C 21.633 13.733,21.936 12.515,21.987 11.100 C 22.162 6.161,18.515 1.866,13.509 1.117 C 13.005 1.041,11.681 0.985,11.300 1.023 M11.361 5.043 C 10.045 5.170,8.788 5.737,7.838 6.631 C 7.058 7.365,6.592 8.085,6.281 9.037 C 5.659 10.941,6.095 12.947,7.472 14.509 C 7.802 14.883,7.985 14.980,8.360 14.979 C 8.706 14.978,8.841 14.921,9.079 14.676 C 9.436 14.308,9.452 13.774,9.118 13.372 C 8.512 12.642,8.268 12.225,8.114 11.655 C 7.988 11.189,7.988 10.349,8.114 9.880 C 8.514 8.393,9.773 7.297,11.355 7.058 C 11.841 6.985,12.159 6.985,12.645 7.058 C 14.224 7.297,15.493 8.401,15.886 9.880 C 16.002 10.315,16.012 11.148,15.907 11.575 C 15.764 12.155,15.470 12.692,15.022 13.195 C 14.748 13.502,14.679 13.632,14.651 13.900 C 14.577 14.622,15.268 15.169,15.965 14.939 C 16.448 14.779,17.265 13.685,17.636 12.700 C 18.243 11.087,18.057 9.215,17.149 7.800 C 15.911 5.869,13.705 4.818,11.361 5.043 M11.477 9.073 C 10.806 9.249,10.238 9.823,10.060 10.508 C 9.941 10.962,10.003 11.492,10.225 11.930 C 10.361 12.199,10.801 12.639,11.070 12.775 C 11.659 13.073,12.341 13.073,12.930 12.775 C 13.196 12.640,13.638 12.200,13.771 11.937 C 13.994 11.498,14.052 11.007,13.940 10.529 C 13.858 10.182,13.720 9.927,13.465 9.653 C 13.074 9.232,12.560 9.005,12.000 9.005 C 11.857 9.005,11.622 9.036,11.477 9.073 M11.499 15.040 C 10.363 15.246,9.461 16.048,9.114 17.160 C 9.022 17.453,9.020 17.497,9.020 19.000 C 9.020 20.503,9.022 20.547,9.114 20.840 C 9.422 21.827,10.174 22.579,11.160 22.886 C 11.412 22.964,11.547 22.979,12.000 22.979 C 12.453 22.979,12.588 22.964,12.840 22.886 C 13.826 22.579,14.578 21.827,14.886 20.840 C 14.978 20.547,14.980 20.503,14.980 19.000 C 14.980 17.497,14.978 17.453,14.886 17.160 C 14.580 16.178,13.810 15.407,12.861 15.129 C 12.500 15.023,11.832 14.980,11.499 15.040 M12.310 17.061 C 12.589 17.144,12.856 17.411,12.939 17.690 C 13.023 17.972,13.028 20.015,12.945 20.290 C 12.872 20.533,12.707 20.740,12.484 20.872 C 12.328 20.963,12.254 20.980,12.000 20.980 C 11.746 20.980,11.672 20.963,11.516 20.872 C 11.415 20.813,11.284 20.700,11.225 20.623 C 11.014 20.347,11.000 20.245,11.000 19.022 C 11.000 17.695,11.019 17.587,11.304 17.303 C 11.583 17.024,11.916 16.944,12.310 17.061 " stroke="none" fill-rule="evenodd" fill="black"></path></svg>