<svg width="24" height="24" viewBox="0 0 24 24" fill="none" xmlns="http://www.w3.org/2000/svg"><path d="M11.695 1.057 C 11.466 1.129,11.256 1.299,11.128 1.516 L 11.020 1.700 11.020 7.003 L 11.020 12.306 11.141 12.503 C 11.543 13.156,12.457 13.156,12.859 12.503 L 12.980 12.306 12.980 7.003 L 12.980 1.700 12.872 1.516 C 12.628 1.101,12.150 0.915,11.695 1.057 M5.310 5.694 C 5.077 5.781,4.999 5.845,4.636 6.246 C 4.208 6.718,4.029 6.939,3.751 7.340 C 2.899 8.569,2.372 9.915,2.098 11.560 C 1.996 12.171,1.976 13.511,2.058 14.160 C 2.458 17.296,4.152 19.918,6.845 21.572 C 7.259 21.827,8.136 22.246,8.604 22.414 C 10.511 23.099,12.639 23.187,14.600 22.662 C 15.923 22.308,17.371 21.546,18.460 20.630 C 20.144 19.213,21.334 17.205,21.795 15.000 C 21.949 14.263,21.980 13.919,21.977 12.980 C 21.974 12.049,21.923 11.573,21.738 10.760 C 21.335 8.987,20.430 7.328,19.168 6.048 C 18.944 5.820,18.849 5.754,18.678 5.703 C 18.417 5.626,18.305 5.624,18.070 5.695 C 17.827 5.768,17.620 5.933,17.488 6.156 C 17.396 6.312,17.380 6.385,17.381 6.640 C 17.382 7.010,17.425 7.096,17.826 7.532 C 19.094 8.907,19.784 10.467,19.963 12.360 C 20.112 13.933,19.714 15.650,18.870 17.085 C 17.752 18.984,15.764 20.404,13.618 20.835 C 12.422 21.076,11.156 21.048,10.020 20.758 C 8.357 20.332,6.744 19.283,5.711 17.954 C 3.849 15.560,3.481 12.367,4.750 9.620 C 5.115 8.829,5.530 8.221,6.188 7.510 C 6.530 7.141,6.617 6.965,6.617 6.640 C 6.617 6.246,6.423 5.935,6.063 5.752 C 5.861 5.648,5.506 5.622,5.310 5.694 " stroke="none" fill-rule="evenodd" fill="black"></path></svg>