<svg width="24" height="24" viewBox="0 0 24 24" fill="none" xmlns="http://www.w3.org/2000/svg"><path d="M1.695 2.057 C 1.466 2.129,1.256 2.299,1.128 2.516 C 1.036 2.672,1.020 2.746,1.020 3.003 C 1.020 3.271,1.034 3.329,1.141 3.503 C 1.288 3.742,1.578 3.946,1.821 3.982 L 2.000 4.009 2.000 8.375 C 2.000 12.567,2.016 13.287,2.124 13.840 C 2.419 15.361,3.537 16.515,5.045 16.855 C 5.450 16.947,5.894 16.972,7.458 16.995 L 9.216 17.020 7.211 18.691 C 4.954 20.571,5.020 20.502,5.020 21.020 C 5.020 21.254,5.038 21.331,5.131 21.489 C 5.264 21.715,5.442 21.858,5.699 21.946 C 5.916 22.020,6.243 22.002,6.428 21.906 C 6.493 21.873,7.544 21.014,8.763 19.997 L 10.980 18.150 11.000 19.728 L 11.020 21.306 11.141 21.503 C 11.209 21.613,11.346 21.756,11.452 21.828 C 11.923 22.144,12.554 21.999,12.859 21.503 L 12.980 21.306 13.000 19.728 L 13.020 18.150 15.237 19.997 C 16.456 21.014,17.507 21.873,17.572 21.906 C 17.757 22.002,18.084 22.020,18.301 21.946 C 18.558 21.858,18.736 21.715,18.869 21.489 C 18.962 21.331,18.980 21.254,18.980 21.020 C 18.980 20.502,19.046 20.571,16.789 18.691 L 14.784 17.020 16.542 16.995 C 18.427 16.968,18.674 16.946,19.320 16.754 C 20.417 16.428,21.423 15.422,21.755 14.320 C 21.988 13.547,22.000 13.257,22.000 8.375 L 22.000 4.009 22.179 3.982 C 22.422 3.946,22.712 3.742,22.859 3.503 C 22.966 3.329,22.980 3.271,22.980 3.003 C 22.980 2.746,22.964 2.672,22.872 2.516 C 22.740 2.293,22.533 2.128,22.290 2.055 C 22.027 1.976,1.948 1.978,1.695 2.057 M19.989 8.610 C 19.972 13.615,19.978 13.488,19.752 13.952 C 19.626 14.211,19.190 14.638,18.918 14.768 C 18.466 14.985,18.627 14.980,12.000 14.980 C 5.383 14.980,5.538 14.985,5.082 14.771 C 4.812 14.643,4.377 14.217,4.248 13.952 C 4.022 13.488,4.028 13.615,4.011 8.610 L 3.995 4.000 12.000 4.000 L 20.005 4.000 19.989 8.610 M7.695 6.057 C 7.466 6.129,7.256 6.299,7.128 6.516 L 7.020 6.700 7.020 9.503 L 7.020 12.306 7.141 12.503 C 7.543 13.156,8.457 13.156,8.859 12.503 L 8.980 12.306 8.980 9.503 L 8.980 6.700 8.872 6.516 C 8.628 6.101,8.150 5.915,7.695 6.057 M11.695 8.057 C 11.466 8.129,11.256 8.299,11.128 8.516 L 11.020 8.700 11.020 10.503 L 11.020 12.306 11.141 12.503 C 11.543 13.156,12.457 13.156,12.859 12.503 L 12.980 12.306 12.980 10.503 L 12.980 8.700 12.872 8.516 C 12.628 8.101,12.150 7.915,11.695 8.057 M15.695 10.057 C 15.466 10.129,15.256 10.299,15.128 10.516 C 15.020 10.699,15.020 10.703,15.020 11.503 L 15.020 12.306 15.141 12.503 C 15.543 13.156,16.457 13.156,16.859 12.503 L 16.980 12.306 16.980 11.503 C 16.980 10.703,16.980 10.699,16.872 10.516 C 16.628 10.101,16.150 9.915,15.695 10.057 " stroke="none" fill-rule="evenodd" fill="black"></path></svg>