<svg width="24" height="24" viewBox="0 0 24 24" fill="none" xmlns="http://www.w3.org/2000/svg"><path d="M7.749 1.045 C 7.140 1.103,6.706 1.253,6.263 1.558 C 5.868 1.829,5.458 2.325,5.276 2.750 C 5.065 3.242,5.031 3.503,5.011 4.810 L 4.992 6.040 4.866 6.040 C 4.631 6.041,3.941 6.160,3.680 6.246 C 2.730 6.558,1.913 7.256,1.465 8.141 C 1.225 8.613,1.109 9.072,1.041 9.820 C 0.988 10.390,0.988 15.031,1.041 15.489 C 1.190 16.795,2.019 17.966,3.220 18.570 C 3.703 18.812,4.435 18.997,4.924 19.000 C 4.980 19.000,4.992 19.094,5.012 19.710 C 5.047 20.774,5.191 21.260,5.650 21.858 C 6.038 22.363,6.594 22.719,7.265 22.889 L 7.620 22.980 11.980 22.980 C 16.089 22.980,16.358 22.976,16.660 22.906 C 17.457 22.720,18.041 22.326,18.482 21.677 C 18.836 21.156,18.954 20.696,18.988 19.710 C 19.009 19.096,19.021 19.000,19.076 19.000 C 19.324 18.998,19.892 18.902,20.169 18.815 C 21.235 18.479,22.073 17.768,22.570 16.780 C 22.764 16.394,22.912 15.903,22.959 15.489 C 23.012 15.031,23.012 10.390,22.959 9.820 C 22.891 9.072,22.775 8.613,22.535 8.141 C 22.088 7.259,21.267 6.557,20.320 6.246 C 20.059 6.160,19.369 6.041,19.135 6.040 L 19.009 6.040 18.989 4.810 C 18.968 3.504,18.934 3.238,18.724 2.750 C 18.542 2.325,18.132 1.829,17.737 1.558 C 17.275 1.240,16.875 1.107,16.180 1.042 C 15.650 0.992,8.272 0.994,7.749 1.045 M16.374 3.075 C 16.574 3.141,16.861 3.430,16.921 3.626 C 16.950 3.720,16.976 4.211,16.989 4.890 L 17.010 6.000 12.005 6.000 L 7.000 6.000 7.000 5.130 C 7.001 4.036,7.042 3.641,7.179 3.434 C 7.333 3.202,7.547 3.080,7.866 3.041 C 8.017 3.023,9.958 3.012,12.180 3.016 C 15.341 3.022,16.254 3.035,16.374 3.075 M19.492 8.091 C 19.894 8.188,20.110 8.309,20.400 8.600 C 20.697 8.896,20.814 9.110,20.911 9.528 C 20.971 9.787,20.978 10.137,20.979 12.620 L 20.980 15.420 20.864 15.700 C 20.721 16.045,20.582 16.253,20.352 16.465 C 20.034 16.758,19.652 16.929,19.216 16.974 L 19.012 16.995 18.988 16.287 C 18.954 15.297,18.837 14.846,18.473 14.310 C 18.090 13.744,17.483 13.306,16.859 13.145 C 16.370 13.019,15.751 13.000,12.000 13.000 C 8.249 13.000,7.630 13.019,7.141 13.145 C 6.517 13.306,5.910 13.744,5.527 14.310 C 5.162 14.848,5.044 15.300,5.012 16.287 L 4.989 16.995 4.784 16.974 C 4.022 16.895,3.426 16.433,3.128 15.690 L 3.020 15.420 3.021 12.620 C 3.022 10.137,3.029 9.787,3.089 9.528 C 3.175 9.156,3.294 8.919,3.520 8.667 C 3.883 8.262,4.282 8.090,4.980 8.039 C 5.200 8.023,8.494 8.013,12.300 8.017 C 18.585 8.024,19.245 8.031,19.492 8.091 M14.600 9.584 C 14.267 9.728,14.001 10.135,14.001 10.500 C 14.001 10.886,14.304 11.318,14.665 11.445 C 14.787 11.488,15.179 11.500,16.500 11.500 C 18.360 11.500,18.370 11.499,18.652 11.245 C 19.096 10.844,19.107 10.182,18.675 9.772 C 18.407 9.518,18.422 9.520,16.491 9.522 C 15.018 9.523,14.718 9.533,14.600 9.584 M16.374 15.075 C 16.585 15.145,16.862 15.431,16.928 15.646 C 17.004 15.898,17.004 20.102,16.928 20.354 C 16.863 20.567,16.591 20.849,16.376 20.925 C 16.144 21.007,7.856 21.007,7.624 20.925 C 7.421 20.853,7.139 20.570,7.077 20.374 C 7.041 20.264,7.022 19.669,7.010 18.279 C 6.991 16.098,7.016 15.680,7.179 15.434 C 7.333 15.202,7.547 15.080,7.866 15.041 C 8.017 15.023,9.958 15.012,12.180 15.016 C 15.341 15.022,16.254 15.035,16.374 15.075 " stroke="none" fill-rule="evenodd" fill="black"></path></svg>