<svg width="24" height="24" viewBox="0 0 24 24" fill="none" xmlns="http://www.w3.org/2000/svg"><path d="M9.580 1.024 C 8.701 1.153,7.814 1.642,7.294 2.286 C 6.785 2.916,6.548 3.574,6.496 4.504 L 6.469 4.988 5.544 5.013 C 4.593 5.038,4.064 5.101,3.680 5.233 C 2.621 5.598,1.709 6.466,1.300 7.499 C 1.088 8.037,1.037 8.402,1.012 9.570 C 0.986 10.778,1.001 10.867,1.276 11.173 C 1.548 11.475,1.639 11.495,2.840 11.519 C 3.827 11.539,3.913 11.546,4.093 11.629 C 4.749 11.932,5.081 12.565,4.960 13.281 C 4.876 13.779,4.510 14.209,4.006 14.405 C 3.801 14.484,3.681 14.495,2.720 14.517 C 1.556 14.543,1.542 14.546,1.292 14.807 C 1.222 14.880,1.128 15.021,1.083 15.120 C 1.005 15.292,1.002 15.377,1.001 17.020 C 1.000 19.101,1.040 19.639,1.245 20.320 C 1.577 21.422,2.578 22.423,3.680 22.755 C 4.344 22.955,4.908 23.000,6.720 22.998 C 8.290 22.996,8.349 22.990,8.619 22.783 C 8.696 22.725,8.808 22.592,8.869 22.489 L 8.980 22.300 9.000 21.120 C 9.019 20.026,9.027 19.927,9.106 19.755 C 9.228 19.490,9.453 19.259,9.714 19.131 C 10.026 18.978,10.484 18.973,10.775 19.120 C 11.009 19.239,11.255 19.476,11.373 19.698 C 11.454 19.850,11.461 19.931,11.481 21.040 C 11.500 22.045,11.514 22.244,11.574 22.380 C 11.671 22.601,11.863 22.792,12.100 22.905 C 12.297 22.998,12.320 22.999,13.520 23.000 C 15.089 23.000,15.677 22.949,16.320 22.755 C 17.228 22.482,18.085 21.749,18.536 20.858 C 18.899 20.141,19.000 19.443,19.000 17.636 L 19.000 16.532 19.489 16.504 C 20.461 16.449,21.142 16.195,21.770 15.653 C 23.599 14.072,23.344 11.237,21.259 9.981 C 20.739 9.668,20.171 9.522,19.470 9.521 L 19.000 9.520 19.000 9.307 C 19.000 8.947,18.916 8.238,18.837 7.928 C 18.572 6.893,17.801 5.944,16.825 5.452 C 16.182 5.129,15.744 5.047,14.456 5.013 L 13.531 4.988 13.504 4.505 C 13.474 3.973,13.402 3.604,13.258 3.236 C 13.035 2.665,12.647 2.142,12.165 1.759 C 11.842 1.502,11.187 1.186,10.800 1.099 C 10.503 1.033,9.811 0.990,9.580 1.024 M10.307 3.044 C 10.755 3.122,11.161 3.451,11.371 3.907 C 11.454 4.087,11.461 4.173,11.481 5.160 C 11.505 6.361,11.525 6.452,11.827 6.724 C 12.118 6.986,12.173 6.994,13.820 7.015 C 14.648 7.026,15.388 7.054,15.500 7.078 C 15.831 7.149,16.123 7.317,16.403 7.597 C 16.685 7.879,16.853 8.173,16.920 8.500 C 16.943 8.610,16.971 9.141,16.983 9.680 C 17.008 10.777,17.032 10.903,17.276 11.173 C 17.548 11.475,17.639 11.495,18.840 11.519 C 19.827 11.539,19.913 11.546,20.093 11.629 C 20.749 11.932,21.081 12.565,20.960 13.281 C 20.876 13.779,20.510 14.209,20.006 14.405 C 19.801 14.484,19.681 14.495,18.720 14.517 C 17.540 14.544,17.531 14.546,17.273 14.831 C 17.006 15.127,17.006 15.127,16.986 17.280 C 16.967 19.356,16.950 19.545,16.752 19.952 C 16.627 20.210,16.190 20.638,15.920 20.767 C 15.594 20.923,15.310 20.964,14.376 20.989 L 13.533 21.011 13.507 20.395 C 13.491 19.989,13.455 19.671,13.402 19.460 C 13.110 18.296,12.122 17.332,10.960 17.077 C 10.554 16.988,9.770 17.006,9.388 17.113 C 8.312 17.415,7.429 18.290,7.119 19.361 C 7.051 19.594,7.027 19.808,7.011 20.335 L 6.990 21.010 5.885 20.989 C 5.269 20.978,4.674 20.948,4.540 20.921 C 4.161 20.845,3.887 20.694,3.600 20.403 C 3.094 19.892,3.044 19.679,3.012 17.876 L 2.989 16.533 3.484 16.505 C 4.462 16.449,5.140 16.197,5.770 15.653 C 7.599 14.072,7.344 11.237,5.259 9.981 C 4.756 9.678,4.299 9.554,3.580 9.523 L 3.020 9.500 3.032 9.120 C 3.056 8.342,3.177 8.017,3.597 7.597 C 3.877 7.317,4.169 7.149,4.500 7.078 C 4.612 7.054,5.352 7.026,6.180 7.015 C 7.827 6.994,7.882 6.986,8.173 6.724 C 8.475 6.452,8.495 6.361,8.519 5.160 C 8.539 4.167,8.546 4.088,8.631 3.903 C 8.824 3.485,9.206 3.156,9.614 3.057 C 9.880 2.992,9.997 2.990,10.307 3.044 " stroke="none" fill-rule="evenodd" fill="black"></path></svg>