<svg width="24" height="24" viewBox="0 0 24 24" fill="none" xmlns="http://www.w3.org/2000/svg"><path d="M11.640 1.068 C 11.487 1.121,11.173 1.417,9.529 3.055 C 8.159 4.420,7.573 5.031,7.512 5.156 C 7.323 5.547,7.396 5.999,7.695 6.296 C 7.811 6.412,7.984 6.513,8.280 6.639 C 9.079 6.978,9.652 7.444,9.889 7.948 C 9.985 8.153,10.006 8.248,10.007 8.502 C 10.008 8.775,9.992 8.841,9.864 9.101 C 9.622 9.589,9.202 9.912,8.685 10.009 C 7.930 10.149,7.155 9.493,6.636 8.275 C 6.433 7.796,6.234 7.566,5.933 7.464 C 5.695 7.383,5.505 7.383,5.257 7.466 C 5.080 7.524,4.865 7.725,3.147 9.436 C 2.085 10.493,1.186 11.420,1.127 11.520 C 1.036 11.673,1.020 11.745,1.021 12.000 C 1.021 12.213,1.043 12.341,1.095 12.440 C 1.136 12.517,1.783 13.196,2.533 13.949 C 3.346 14.765,3.882 15.332,3.859 15.352 C 3.837 15.371,3.662 15.508,3.468 15.657 C 2.494 16.406,1.975 17.416,1.987 18.540 C 2.003 20.099,3.129 21.500,4.709 21.927 C 5.319 22.092,6.103 22.033,6.749 21.775 C 7.433 21.501,8.125 20.914,8.607 20.199 L 8.673 20.100 10.047 21.466 C 10.802 22.217,11.483 22.864,11.560 22.905 C 11.659 22.957,11.787 22.979,12.000 22.979 C 12.255 22.980,12.327 22.964,12.480 22.873 C 12.580 22.814,13.511 21.911,14.565 20.853 C 16.278 19.133,16.476 18.920,16.535 18.743 C 16.618 18.493,16.617 18.305,16.534 18.060 C 16.432 17.761,16.210 17.571,15.721 17.363 C 14.922 17.024,14.348 16.555,14.109 16.049 C 14.011 15.839,13.991 15.746,13.991 15.495 C 13.991 15.229,14.008 15.159,14.135 14.903 C 14.515 14.133,15.357 13.784,16.049 14.109 C 16.550 14.345,16.996 14.889,17.348 15.691 C 17.565 16.186,17.665 16.325,17.911 16.469 C 18.072 16.564,18.144 16.580,18.400 16.580 C 18.654 16.580,18.728 16.564,18.880 16.473 C 19.104 16.339,22.805 12.632,22.905 12.440 C 23.007 12.246,23.007 11.754,22.905 11.560 C 22.864 11.483,22.217 10.802,21.466 10.047 L 20.100 8.673 20.199 8.607 C 20.494 8.408,20.920 8.030,21.142 7.771 C 21.737 7.072,22.012 6.355,22.013 5.500 C 22.013 3.924,20.876 2.493,19.291 2.075 C 18.858 1.961,18.144 1.962,17.700 2.078 C 16.809 2.310,15.974 2.934,15.394 3.801 L 15.327 3.900 13.934 2.516 C 12.700 1.290,12.517 1.124,12.343 1.066 C 12.102 0.985,11.878 0.986,11.640 1.068 M13.480 4.903 C 14.283 5.707,15.021 6.413,15.120 6.473 C 15.273 6.564,15.346 6.580,15.600 6.580 C 15.856 6.580,15.928 6.564,16.089 6.469 C 16.336 6.324,16.432 6.189,16.668 5.658 C 17.308 4.216,18.227 3.669,19.169 4.169 C 19.465 4.326,19.734 4.615,19.887 4.941 C 20.128 5.458,20.020 6.026,19.588 6.504 C 19.282 6.842,18.724 7.194,18.100 7.442 C 17.540 7.665,17.283 8.192,17.465 8.743 C 17.524 8.919,17.696 9.106,19.055 10.470 L 20.578 12.001 19.640 12.940 C 19.123 13.457,18.690 13.880,18.677 13.880 C 18.664 13.880,18.583 13.777,18.497 13.651 C 18.284 13.340,17.755 12.812,17.448 12.604 C 17.101 12.370,16.680 12.177,16.300 12.078 C 15.856 11.962,15.142 11.961,14.709 12.075 C 13.429 12.413,12.418 13.423,12.074 14.709 C 11.909 15.325,11.967 16.104,12.225 16.749 C 12.499 17.433,13.082 18.121,13.801 18.607 L 13.900 18.674 12.951 19.626 L 12.002 20.578 10.471 19.055 C 9.108 17.699,8.918 17.524,8.743 17.466 C 8.495 17.383,8.306 17.383,8.067 17.464 C 7.769 17.565,7.567 17.796,7.370 18.261 C 6.958 19.227,6.427 19.812,5.803 19.986 C 5.597 20.043,5.519 20.046,5.315 20.009 C 4.798 19.912,4.378 19.589,4.136 19.100 C 4.008 18.841,3.991 18.771,3.991 18.505 C 3.991 18.254,4.011 18.161,4.109 17.951 C 4.348 17.444,4.919 16.979,5.720 16.639 C 6.211 16.430,6.431 16.241,6.534 15.940 C 6.617 15.695,6.618 15.507,6.535 15.257 C 6.476 15.081,6.304 14.894,4.945 13.529 L 3.421 11.999 4.374 11.049 L 5.326 10.100 5.393 10.199 C 5.879 10.918,6.567 11.501,7.251 11.775 C 7.897 12.033,8.681 12.092,9.291 11.927 C 11.385 11.361,12.545 9.176,11.775 7.251 C 11.494 6.550,11.045 6.023,10.180 5.383 C 10.104 5.327,10.143 5.281,11.040 4.382 C 11.557 3.864,11.989 3.440,12.000 3.440 C 12.011 3.440,12.677 4.098,13.480 4.903 " stroke="none" fill-rule="evenodd" fill="black"></path></svg>