<svg width="24" height="24" viewBox="0 0 24 24" fill="none" xmlns="http://www.w3.org/2000/svg"><path d="M11.695 1.057 C 11.466 1.129,11.256 1.299,11.128 1.516 L 11.020 1.700 11.020 5.003 L 11.020 8.306 11.141 8.503 C 11.543 9.156,12.457 9.156,12.859 8.503 L 12.980 8.306 12.980 5.003 L 12.980 1.700 12.872 1.516 C 12.628 1.101,12.150 0.915,11.695 1.057 M3.686 2.040 C 2.867 2.164,2.233 2.765,2.061 3.581 C 1.975 3.986,1.975 7.014,2.061 7.419 C 2.147 7.827,2.298 8.104,2.597 8.403 C 2.896 8.702,3.173 8.853,3.581 8.939 C 3.986 9.025,7.014 9.025,7.419 8.940 C 7.818 8.855,8.102 8.699,8.401 8.401 C 8.699 8.102,8.855 7.818,8.940 7.419 C 9.025 7.014,9.025 3.986,8.940 3.581 C 8.792 2.884,8.326 2.360,7.635 2.113 C 7.386 2.024,7.340 2.022,5.640 2.015 C 4.683 2.010,3.804 2.022,3.686 2.040 M16.686 2.040 C 15.867 2.164,15.233 2.765,15.061 3.581 C 14.975 3.986,14.975 7.014,15.061 7.419 C 15.147 7.827,15.298 8.104,15.597 8.403 C 15.896 8.702,16.173 8.853,16.581 8.939 C 16.986 9.025,20.014 9.025,20.419 8.940 C 20.818 8.855,21.102 8.699,21.401 8.401 C 21.699 8.102,21.855 7.818,21.940 7.419 C 22.025 7.014,22.025 3.986,21.939 3.581 C 21.791 2.880,21.330 2.361,20.635 2.113 C 20.386 2.024,20.340 2.022,18.640 2.015 C 17.683 2.010,16.804 2.022,16.686 2.040 M7.000 5.500 L 7.000 7.000 5.500 7.000 L 4.000 7.000 4.000 5.500 L 4.000 4.000 5.500 4.000 L 7.000 4.000 7.000 5.500 M20.000 5.500 L 20.000 7.000 18.500 7.000 L 17.000 7.000 17.000 5.500 L 17.000 4.000 18.500 4.000 L 20.000 4.000 20.000 5.500 M2.695 11.055 C 2.464 11.130,2.255 11.300,2.128 11.516 C 2.037 11.672,2.020 11.746,2.020 12.000 C 2.020 12.257,2.036 12.327,2.133 12.492 C 2.651 13.374,3.998 13.018,3.998 12.000 C 3.998 11.623,3.792 11.281,3.463 11.112 C 3.265 11.010,2.911 10.984,2.695 11.055 M6.695 11.057 C 6.466 11.129,6.256 11.299,6.128 11.516 C 6.037 11.672,6.020 11.746,6.020 12.000 C 6.020 12.256,6.036 12.328,6.131 12.489 C 6.256 12.702,6.449 12.864,6.670 12.943 C 6.788 12.985,7.269 12.997,8.909 12.998 L 10.997 13.000 11.009 15.153 L 11.020 17.306 11.141 17.503 C 11.543 18.156,12.457 18.156,12.859 17.503 L 12.980 17.306 12.980 14.503 L 12.980 11.700 12.872 11.516 C 12.740 11.293,12.533 11.128,12.290 11.055 C 12.031 10.977,6.944 10.979,6.695 11.057 M15.240 11.036 C 14.790 11.178,14.512 11.546,14.512 12.000 C 14.512 12.405,14.719 12.724,15.100 12.905 C 15.297 12.998,15.321 12.999,16.500 12.999 C 17.679 12.999,17.703 12.998,17.900 12.905 C 18.281 12.724,18.488 12.405,18.488 12.000 C 18.488 11.615,18.293 11.297,17.940 11.106 C 17.787 11.024,17.727 11.020,16.560 11.012 C 15.889 11.008,15.295 11.019,15.240 11.036 M20.695 11.055 C 20.464 11.130,20.255 11.300,20.128 11.516 C 20.037 11.672,20.020 11.746,20.020 12.000 C 20.020 12.257,20.036 12.327,20.133 12.492 C 20.651 13.374,21.998 13.018,21.998 12.000 C 21.998 11.623,21.792 11.281,21.463 11.112 C 21.265 11.010,20.911 10.984,20.695 11.055 M16.686 15.040 C 15.867 15.164,15.233 15.765,15.061 16.581 C 14.975 16.986,14.975 20.014,15.061 20.419 C 15.147 20.827,15.298 21.104,15.597 21.403 C 15.896 21.702,16.173 21.853,16.581 21.939 C 16.986 22.025,20.014 22.025,20.419 21.940 C 20.818 21.855,21.102 21.699,21.401 21.401 C 21.699 21.102,21.855 20.818,21.940 20.419 C 22.025 20.014,22.025 16.986,21.940 16.581 C 21.792 15.884,21.326 15.360,20.635 15.113 C 20.386 15.024,20.340 15.022,18.640 15.015 C 17.683 15.010,16.804 15.022,16.686 15.040 M2.695 16.056 C 2.465 16.130,2.255 16.300,2.128 16.516 C 2.037 16.672,2.020 16.746,2.020 17.000 C 2.020 17.256,2.036 17.328,2.131 17.489 C 2.192 17.592,2.304 17.725,2.381 17.783 C 2.637 17.979,2.749 17.996,3.760 17.998 C 4.667 17.999,4.707 17.996,4.900 17.905 C 5.281 17.724,5.488 17.405,5.488 17.000 C 5.488 16.615,5.293 16.297,4.940 16.106 C 4.790 16.025,4.719 16.019,3.820 16.011 C 3.112 16.005,2.817 16.017,2.695 16.056 M7.695 16.055 C 7.464 16.130,7.255 16.300,7.128 16.516 C 7.037 16.672,7.020 16.746,7.020 17.000 C 7.020 17.257,7.036 17.327,7.133 17.492 C 7.651 18.374,8.998 18.018,8.998 17.000 C 8.998 16.623,8.792 16.281,8.463 16.112 C 8.265 16.010,7.911 15.984,7.695 16.055 M20.000 18.500 L 20.000 20.000 18.500 20.000 L 17.000 20.000 17.000 18.500 L 17.000 17.000 18.500 17.000 L 20.000 17.000 20.000 18.500 M2.695 20.057 C 2.466 20.129,2.256 20.299,2.128 20.516 C 2.037 20.672,2.020 20.746,2.020 21.000 C 2.020 21.256,2.036 21.328,2.131 21.489 C 2.256 21.702,2.449 21.864,2.670 21.943 C 2.890 22.021,8.110 22.021,8.330 21.943 C 8.551 21.864,8.744 21.702,8.869 21.489 C 8.964 21.328,8.980 21.256,8.980 21.000 C 8.980 20.746,8.963 20.672,8.872 20.516 C 8.740 20.293,8.533 20.128,8.290 20.055 C 8.031 19.977,2.944 19.979,2.695 20.057 M11.695 20.055 C 11.464 20.130,11.255 20.300,11.128 20.516 C 11.037 20.672,11.020 20.746,11.020 21.000 C 11.020 21.257,11.036 21.327,11.133 21.492 C 11.651 22.374,12.998 22.018,12.998 21.000 C 12.998 20.623,12.792 20.281,12.463 20.112 C 12.265 20.010,11.911 19.984,11.695 20.055 " stroke="none" fill-rule="evenodd" fill="black"></path></svg>