<svg width="24" height="24" viewBox="0 0 24 24" fill="none" xmlns="http://www.w3.org/2000/svg"><path d="M3.686 2.040 C 2.869 2.163,2.233 2.765,2.061 3.581 C 1.973 3.993,1.973 9.007,2.061 9.419 C 2.147 9.827,2.298 10.104,2.597 10.403 C 2.896 10.702,3.173 10.853,3.581 10.939 C 3.993 11.027,9.007 11.027,9.419 10.940 C 9.818 10.855,10.102 10.699,10.401 10.401 C 10.699 10.102,10.855 9.818,10.940 9.419 C 11.027 9.007,11.027 3.993,10.940 3.581 C 10.792 2.885,10.328 2.363,9.635 2.112 L 9.380 2.020 6.640 2.014 C 5.133 2.011,3.804 2.022,3.686 2.040 M14.686 2.040 C 13.869 2.163,13.233 2.765,13.061 3.581 C 12.973 3.993,12.973 9.007,13.061 9.419 C 13.147 9.827,13.298 10.104,13.597 10.403 C 13.896 10.702,14.173 10.853,14.581 10.939 C 14.993 11.027,20.007 11.027,20.419 10.940 C 20.818 10.855,21.102 10.699,21.401 10.401 C 21.699 10.102,21.855 9.818,21.940 9.419 C 22.027 9.007,22.027 3.993,21.939 3.581 C 21.791 2.881,21.332 2.364,20.635 2.112 L 20.380 2.020 17.640 2.014 C 16.133 2.011,14.804 2.022,14.686 2.040 M9.000 6.500 L 9.000 9.000 6.500 9.000 L 4.000 9.000 4.000 6.500 L 4.000 4.000 6.500 4.000 L 9.000 4.000 9.000 6.500 M20.000 6.500 L 20.000 9.000 17.500 9.000 L 15.000 9.000 15.000 6.500 L 15.000 4.000 17.500 4.000 L 20.000 4.000 20.000 6.500 M6.044 5.625 C 5.212 6.040,5.396 7.305,6.313 7.472 C 6.872 7.573,7.371 7.236,7.486 6.680 C 7.652 5.880,6.794 5.252,6.044 5.625 M17.044 5.625 C 16.212 6.040,16.396 7.305,17.313 7.472 C 17.872 7.573,18.371 7.236,18.486 6.680 C 18.652 5.880,17.794 5.252,17.044 5.625 M12.695 12.055 C 12.464 12.130,12.255 12.300,12.128 12.516 C 12.037 12.672,12.020 12.746,12.020 13.000 C 12.020 13.257,12.036 13.327,12.133 13.492 C 12.651 14.374,13.998 14.018,13.998 13.000 C 13.998 12.623,13.792 12.281,13.463 12.112 C 13.265 12.010,12.911 11.984,12.695 12.055 M3.686 13.040 C 2.869 13.163,2.233 13.765,2.061 14.581 C 1.973 14.993,1.973 20.007,2.061 20.419 C 2.147 20.827,2.298 21.104,2.597 21.403 C 2.896 21.702,3.173 21.853,3.581 21.939 C 3.993 22.027,9.007 22.027,9.419 21.940 C 9.817 21.855,10.101 21.700,10.403 21.401 C 10.702 21.104,10.853 20.829,10.939 20.419 C 11.027 20.007,11.027 14.993,10.940 14.581 C 10.792 13.885,10.328 13.363,9.635 13.112 L 9.380 13.020 6.640 13.014 C 5.133 13.011,3.804 13.022,3.686 13.040 M16.240 13.037 C 15.794 13.173,15.512 13.546,15.512 14.000 C 15.512 14.405,15.719 14.724,16.100 14.905 L 16.300 14.999 18.740 14.998 C 20.674 14.997,21.211 14.985,21.330 14.943 C 21.551 14.864,21.744 14.702,21.869 14.489 C 21.964 14.328,21.980 14.256,21.980 14.000 C 21.980 13.746,21.963 13.672,21.872 13.516 C 21.813 13.415,21.698 13.282,21.618 13.221 C 21.329 13.001,21.312 13.000,18.724 13.003 C 17.413 13.005,16.295 13.021,16.240 13.037 M9.000 17.500 L 9.000 20.000 6.500 20.000 L 4.000 20.000 4.000 17.500 L 4.000 15.000 6.500 15.000 L 9.000 15.000 9.000 17.500 M13.580 15.595 C 13.377 15.687,13.151 15.937,13.064 16.164 C 13.004 16.323,12.998 16.579,13.009 18.823 L 13.020 21.306 13.141 21.503 C 13.543 22.156,14.457 22.156,14.859 21.503 L 14.980 21.306 14.991 18.823 C 15.004 16.050,15.013 16.148,14.724 15.828 C 14.528 15.609,14.320 15.522,14.000 15.522 C 13.834 15.522,13.682 15.548,13.580 15.595 M20.695 16.057 C 20.466 16.129,20.256 16.299,20.128 16.516 L 20.020 16.700 20.008 18.350 L 19.997 20.000 18.445 20.000 C 16.758 20.000,16.658 20.011,16.382 20.221 C 16.302 20.282,16.187 20.415,16.128 20.516 C 16.037 20.672,16.020 20.746,16.020 21.000 C 16.020 21.256,16.036 21.328,16.131 21.489 C 16.256 21.702,16.449 21.864,16.670 21.943 C 16.889 22.021,21.111 22.021,21.330 21.943 C 21.551 21.864,21.744 21.702,21.869 21.489 L 21.980 21.300 21.980 19.000 L 21.980 16.700 21.872 16.516 C 21.628 16.101,21.150 15.915,20.695 16.057 M6.044 16.625 C 5.212 17.040,5.396 18.305,6.313 18.472 C 6.872 18.573,7.371 18.236,7.486 17.680 C 7.652 16.880,6.794 16.252,6.044 16.625 M17.044 16.625 C 16.212 17.040,16.396 18.305,17.313 18.472 C 17.872 18.573,18.371 18.236,18.486 17.680 C 18.652 16.880,17.794 16.252,17.044 16.625 " stroke="none" fill-rule="evenodd" fill="black"></path></svg>