<svg width="24" height="24" viewBox="0 0 24 24" fill="none" xmlns="http://www.w3.org/2000/svg"><path d="M6.920 2.040 C 6.150 2.092,5.672 2.205,5.180 2.451 C 4.089 2.996,3.357 3.961,3.124 5.160 C 3.011 5.742,3.000 6.480,3.000 13.705 C 3.000 21.827,2.986 21.316,3.222 21.626 C 3.443 21.915,3.900 22.063,4.267 21.964 C 4.378 21.934,4.815 21.643,5.565 21.098 C 6.187 20.647,6.718 20.286,6.745 20.296 C 6.772 20.307,7.242 20.673,7.789 21.110 C 8.867 21.972,8.976 22.033,9.359 21.988 C 9.467 21.975,9.610 21.936,9.677 21.901 C 9.744 21.867,10.294 21.478,10.900 21.037 L 12.000 20.235 13.100 21.037 C 13.706 21.478,14.256 21.867,14.323 21.901 C 14.390 21.936,14.533 21.975,14.641 21.988 C 15.024 22.033,15.133 21.972,16.211 21.110 C 16.758 20.673,17.228 20.307,17.255 20.296 C 17.282 20.286,17.810 20.644,18.427 21.092 C 19.225 21.671,19.603 21.922,19.735 21.959 C 20.234 22.098,20.768 21.820,20.943 21.330 C 20.987 21.207,20.997 19.848,20.998 13.720 C 21.000 6.475,20.989 5.743,20.876 5.160 C 20.608 3.780,19.644 2.681,18.320 2.246 C 17.657 2.028,17.701 2.030,12.340 2.019 C 9.612 2.014,7.173 2.023,6.920 2.040 M17.492 4.091 C 17.893 4.188,18.109 4.309,18.400 4.600 C 18.691 4.890,18.812 5.106,18.909 5.508 C 18.969 5.754,18.977 6.413,18.989 12.410 L 19.004 19.039 18.393 18.596 C 18.057 18.352,17.727 18.123,17.661 18.087 C 17.478 17.989,17.023 17.999,16.820 18.107 C 16.732 18.154,16.229 18.536,15.703 18.957 C 15.140 19.408,14.723 19.714,14.691 19.702 C 14.660 19.690,14.152 19.329,13.562 18.900 C 12.490 18.120,12.282 18.000,12.000 18.000 C 11.718 18.000,11.510 18.120,10.438 18.900 C 9.848 19.329,9.340 19.690,9.309 19.702 C 9.277 19.714,8.860 19.408,8.297 18.957 C 7.771 18.536,7.268 18.154,7.180 18.107 C 6.977 17.999,6.522 17.989,6.339 18.087 C 6.273 18.123,5.943 18.352,5.607 18.596 L 4.996 19.039 5.011 12.410 C 5.023 6.413,5.031 5.754,5.091 5.508 C 5.177 5.151,5.299 4.913,5.520 4.667 C 5.883 4.262,6.281 4.091,6.980 4.039 C 7.200 4.023,9.594 4.013,12.300 4.018 C 16.701 4.025,17.249 4.033,17.492 4.091 " stroke="none" fill-rule="evenodd" fill="black"></path></svg>