<svg width="24" height="24" viewBox="0 0 24 24" fill="none" xmlns="http://www.w3.org/2000/svg"><path d="M11.695 2.057 C 11.466 2.129,11.256 2.299,11.128 2.516 L 11.020 2.700 11.020 12.003 L 11.020 21.306 11.141 21.503 C 11.543 22.156,12.457 22.156,12.859 21.503 L 12.980 21.306 12.980 12.003 L 12.980 2.700 12.872 2.516 C 12.628 2.101,12.150 1.915,11.695 2.057 M7.240 5.035 C 6.929 5.137,6.651 5.393,6.555 5.665 C 6.473 5.896,6.473 18.104,6.555 18.335 C 6.682 18.696,7.114 18.999,7.500 18.999 C 7.886 18.999,8.318 18.696,8.445 18.335 C 8.527 18.104,8.527 5.896,8.445 5.665 C 8.375 5.466,8.150 5.217,7.946 5.113 C 7.771 5.024,7.399 4.983,7.240 5.035 M16.240 5.035 C 15.929 5.137,15.651 5.393,15.555 5.665 C 15.473 5.896,15.473 18.104,15.555 18.335 C 15.682 18.696,16.114 18.999,16.500 18.999 C 16.886 18.999,17.318 18.696,17.445 18.335 C 17.491 18.206,17.500 17.132,17.500 12.000 C 17.500 6.868,17.491 5.794,17.445 5.665 C 17.375 5.466,17.150 5.217,16.946 5.113 C 16.771 5.024,16.399 4.983,16.240 5.035 M2.695 9.057 C 2.466 9.129,2.256 9.299,2.128 9.516 L 2.020 9.700 2.020 12.003 L 2.020 14.306 2.141 14.503 C 2.209 14.613,2.346 14.756,2.452 14.828 C 2.923 15.144,3.554 14.999,3.859 14.503 L 3.980 14.306 3.980 12.003 L 3.980 9.700 3.872 9.516 C 3.628 9.101,3.150 8.915,2.695 9.057 M20.695 9.057 C 20.466 9.129,20.256 9.299,20.128 9.516 L 20.020 9.700 20.020 12.003 L 20.020 14.306 20.141 14.503 C 20.209 14.613,20.346 14.756,20.452 14.828 C 20.923 15.144,21.554 14.999,21.859 14.503 L 21.980 14.306 21.980 12.003 L 21.980 9.700 21.872 9.516 C 21.628 9.101,21.150 8.915,20.695 9.057 " stroke="none" fill-rule="evenodd" fill="black"></path></svg>