<svg width="24" height="24" viewBox="0 0 24 24" fill="none" xmlns="http://www.w3.org/2000/svg"><path d="M16.240 2.035 C 15.929 2.137,15.651 2.393,15.555 2.665 C 15.473 2.896,15.473 21.104,15.555 21.335 C 15.682 21.696,16.114 21.999,16.500 21.999 C 16.886 21.999,17.318 21.696,17.445 21.335 C 17.527 21.104,17.527 2.896,17.445 2.665 C 17.375 2.466,17.150 2.217,16.946 2.113 C 16.771 2.024,16.399 1.983,16.240 2.035 M11.695 5.057 C 11.466 5.129,11.256 5.299,11.128 5.516 L 11.020 5.700 11.020 12.003 L 11.020 18.306 11.141 18.503 C 11.543 19.156,12.457 19.156,12.859 18.503 L 12.980 18.306 12.980 12.003 L 12.980 5.700 12.872 5.516 C 12.628 5.101,12.150 4.915,11.695 5.057 M2.695 9.057 C 2.466 9.129,2.256 9.299,2.128 9.516 L 2.020 9.700 2.020 12.003 L 2.020 14.306 2.141 14.503 C 2.209 14.613,2.346 14.756,2.452 14.828 C 2.923 15.144,3.554 14.999,3.859 14.503 L 3.980 14.306 3.980 12.003 L 3.980 9.700 3.872 9.516 C 3.628 9.101,3.150 8.915,2.695 9.057 M20.695 9.057 C 20.466 9.129,20.256 9.299,20.128 9.516 L 20.020 9.700 20.020 12.003 L 20.020 14.306 20.141 14.503 C 20.209 14.613,20.346 14.756,20.452 14.828 C 20.923 15.144,21.554 14.999,21.859 14.503 L 21.980 14.306 21.980 12.003 L 21.980 9.700 21.872 9.516 C 21.628 9.101,21.150 8.915,20.695 9.057 M7.240 10.035 C 6.929 10.137,6.651 10.393,6.555 10.665 C 6.476 10.888,6.476 13.112,6.555 13.335 C 6.682 13.696,7.114 13.999,7.500 13.999 C 7.886 13.999,8.318 13.696,8.445 13.335 C 8.524 13.112,8.524 10.888,8.445 10.665 C 8.375 10.466,8.150 10.217,7.946 10.113 C 7.771 10.024,7.399 9.983,7.240 10.035 " stroke="none" fill-rule="evenodd" fill="black"></path></svg>