<svg width="24" height="24" viewBox="0 0 24 24" fill="none" xmlns="http://www.w3.org/2000/svg"><path d="M11.280 1.023 C 11.203 1.032,10.951 1.059,10.720 1.083 C 9.527 1.210,8.337 1.558,7.180 2.120 C 6.045 2.671,5.193 3.285,4.238 4.239 C 3.277 5.198,2.643 6.080,2.097 7.220 C 0.301 10.968,0.728 15.286,3.226 18.633 C 3.701 19.269,4.753 20.316,5.400 20.797 C 9.364 23.745,14.666 23.734,18.637 20.770 C 19.246 20.316,20.316 19.246,20.770 18.637 C 23.744 14.652,23.744 9.348,20.770 5.363 C 20.316 4.755,19.247 3.686,18.640 3.235 C 17.045 2.049,15.365 1.360,13.423 1.096 C 13.000 1.038,11.574 0.990,11.280 1.023 M13.320 3.101 C 15.883 3.488,18.124 4.931,19.560 7.120 C 19.863 7.583,20.303 8.479,20.492 9.020 C 20.838 10.013,20.977 10.865,20.977 12.000 C 20.977 13.493,20.720 14.621,20.080 15.940 C 19.375 17.394,18.311 18.607,16.927 19.532 C 16.138 20.060,14.876 20.588,13.908 20.797 C 11.266 21.366,8.479 20.708,6.370 19.019 C 4.857 17.807,3.722 16.029,3.267 14.160 C 3.081 13.397,3.023 12.888,3.023 12.000 C 3.023 10.507,3.280 9.379,3.920 8.060 C 4.971 5.891,6.877 4.221,9.160 3.466 C 9.865 3.233,10.432 3.118,11.340 3.024 C 11.662 2.991,12.911 3.039,13.320 3.101 M13.695 6.057 C 13.466 6.129,13.256 6.299,13.128 6.516 L 13.020 6.700 13.020 12.003 L 13.020 17.306 13.141 17.503 C 13.543 18.156,14.457 18.156,14.859 17.503 L 14.980 17.306 14.980 12.003 L 14.980 6.700 14.872 6.516 C 14.628 6.101,14.150 5.915,13.695 6.057 M9.695 8.057 C 9.466 8.129,9.256 8.299,9.128 8.516 L 9.020 8.700 9.020 12.003 L 9.020 15.306 9.141 15.503 C 9.543 16.156,10.457 16.156,10.859 15.503 L 10.980 15.306 10.980 12.003 L 10.980 8.700 10.872 8.516 C 10.628 8.101,10.150 7.915,9.695 8.057 M5.695 10.057 C 5.466 10.129,5.256 10.299,5.128 10.516 L 5.020 10.700 5.020 12.003 L 5.020 13.306 5.141 13.503 C 5.543 14.156,6.457 14.156,6.859 13.503 L 6.980 13.306 6.980 12.003 L 6.980 10.700 6.872 10.516 C 6.628 10.101,6.150 9.915,5.695 10.057 M17.695 10.057 C 17.466 10.129,17.256 10.299,17.128 10.516 L 17.020 10.700 17.020 12.003 L 17.020 13.306 17.141 13.503 C 17.543 14.156,18.457 14.156,18.859 13.503 L 18.980 13.306 18.980 12.003 L 18.980 10.700 18.872 10.516 C 18.628 10.101,18.150 9.915,17.695 10.057 " stroke="none" fill-rule="evenodd" fill="black"></path></svg>