<svg width="24" height="24" viewBox="0 0 24 24" fill="none" xmlns="http://www.w3.org/2000/svg"><path d="M11.695 2.057 C 11.466 2.129,11.256 2.299,11.128 2.516 L 11.020 2.700 11.020 4.503 L 11.020 6.306 11.141 6.503 C 11.209 6.613,11.346 6.756,11.452 6.828 C 11.923 7.144,12.554 6.999,12.859 6.503 L 12.980 6.306 12.980 4.503 L 12.980 2.700 12.872 2.516 C 12.628 2.101,12.150 1.915,11.695 2.057 M2.075 6.573 C 1.651 6.693,1.291 7.029,1.111 7.474 L 1.020 7.700 1.009 11.855 C 1.002 14.556,1.012 16.088,1.039 16.231 C 1.239 17.316,2.354 17.810,3.299 17.231 C 3.558 17.073,8.441 13.318,8.693 13.083 C 8.949 12.845,9.070 12.630,9.142 12.284 C 9.249 11.772,9.089 11.286,8.693 10.917 C 8.547 10.781,4.419 7.588,3.510 6.908 C 3.427 6.846,3.240 6.740,3.094 6.671 C 2.786 6.527,2.378 6.487,2.075 6.573 M21.140 6.573 C 20.929 6.644,20.653 6.787,20.480 6.916 C 19.707 7.490,15.454 10.780,15.307 10.917 C 15.051 11.155,14.930 11.370,14.858 11.716 C 14.751 12.228,14.911 12.714,15.307 13.083 C 15.559 13.318,20.442 17.073,20.701 17.231 C 21.316 17.607,22.062 17.541,22.535 17.067 C 22.634 16.968,22.752 16.814,22.797 16.725 C 23.000 16.328,22.999 16.354,22.999 12.000 C 22.999 7.646,23.000 7.672,22.797 7.275 C 22.679 7.044,22.413 6.792,22.150 6.663 C 21.878 6.530,21.398 6.487,21.140 6.573 M4.960 10.540 C 5.983 11.326,6.820 11.983,6.820 12.000 C 6.820 12.017,5.983 12.674,4.960 13.460 C 3.937 14.247,3.078 14.908,3.050 14.930 C 3.010 14.962,3.000 14.370,3.000 12.000 C 3.000 9.630,3.010 9.038,3.050 9.070 C 3.078 9.092,3.937 9.753,4.960 10.540 M20.990 13.477 L 20.980 14.954 19.080 13.492 C 18.035 12.689,17.180 12.017,17.180 12.000 C 17.180 11.983,18.035 11.311,19.080 10.508 L 20.980 9.046 20.990 10.523 C 20.996 11.335,20.996 12.665,20.990 13.477 M11.600 9.584 C 11.399 9.671,11.205 9.869,11.095 10.100 L 11.001 10.300 11.001 12.000 L 11.001 13.700 11.095 13.900 C 11.276 14.281,11.595 14.488,12.000 14.488 C 12.405 14.488,12.724 14.281,12.905 13.900 L 12.999 13.700 12.999 12.000 L 12.999 10.300 12.905 10.100 C 12.793 9.865,12.599 9.669,12.391 9.582 C 12.203 9.503,11.783 9.504,11.600 9.584 M11.695 17.057 C 11.466 17.129,11.256 17.299,11.128 17.516 L 11.020 17.700 11.020 19.503 L 11.020 21.306 11.141 21.503 C 11.209 21.613,11.346 21.756,11.452 21.828 C 11.923 22.144,12.554 21.999,12.859 21.503 L 12.980 21.306 12.980 19.503 L 12.980 17.700 12.872 17.516 C 12.628 17.101,12.150 16.915,11.695 17.057 " stroke="none" fill-rule="evenodd" fill="black"></path></svg>