<svg width="24" height="24" viewBox="0 0 24 24" fill="none" xmlns="http://www.w3.org/2000/svg"><path d="M13.670 1.057 C 13.449 1.136,13.256 1.298,13.131 1.511 L 13.020 1.700 13.020 5.003 L 13.020 8.306 13.141 8.503 C 13.543 9.156,14.457 9.156,14.859 8.503 L 14.980 8.306 15.000 6.096 L 15.020 3.885 15.596 4.391 C 16.367 5.066,17.781 6.454,18.154 6.900 C 19.898 8.989,20.450 11.896,19.596 14.497 C 19.406 15.077,19.016 15.888,18.691 16.380 C 17.671 17.927,16.053 19.149,14.380 19.635 C 14.226 19.680,13.968 19.754,13.807 19.801 C 13.149 19.990,12.829 20.610,13.094 21.180 C 13.261 21.539,13.601 21.766,13.977 21.768 C 14.407 21.771,15.514 21.406,16.420 20.962 C 19.369 19.519,21.391 16.733,21.907 13.400 C 22.007 12.760,22.006 11.249,21.907 10.600 C 21.643 8.878,20.999 7.339,19.967 5.960 C 19.619 5.496,18.520 4.357,17.541 3.446 L 17.062 3.000 18.621 2.998 C 20.298 2.996,20.347 2.991,20.619 2.783 C 20.696 2.725,20.808 2.592,20.869 2.489 C 20.964 2.328,20.980 2.256,20.980 2.000 C 20.980 1.746,20.963 1.672,20.872 1.516 C 20.740 1.293,20.533 1.128,20.290 1.055 C 20.025 0.975,13.894 0.977,13.670 1.057 M9.540 2.306 C 8.913 2.487,8.620 2.583,8.269 2.723 C 6.579 3.401,5.086 4.554,3.976 6.040 C 2.995 7.353,2.355 8.902,2.093 10.600 C 1.993 11.245,1.993 12.755,2.093 13.400 C 2.360 15.131,2.999 16.659,4.033 18.040 C 4.381 18.504,5.480 19.643,6.459 20.554 L 6.938 21.000 5.415 21.000 C 3.761 21.000,3.657 21.011,3.382 21.221 C 3.302 21.282,3.187 21.415,3.128 21.516 C 3.037 21.672,3.020 21.746,3.020 22.000 C 3.020 22.256,3.036 22.328,3.131 22.489 C 3.256 22.702,3.449 22.864,3.670 22.943 C 3.891 23.022,10.109 23.022,10.330 22.943 C 10.551 22.864,10.744 22.702,10.869 22.489 L 10.980 22.300 10.980 19.000 L 10.980 15.700 10.871 15.514 C 10.479 14.848,9.521 14.848,9.129 15.514 L 9.020 15.700 9.000 17.911 L 8.980 20.121 8.360 19.571 C 7.536 18.840,6.221 17.548,5.847 17.100 C 4.540 15.538,3.870 13.445,4.030 11.430 C 4.118 10.333,4.358 9.439,4.817 8.501 C 5.248 7.619,5.731 6.953,6.426 6.278 C 7.508 5.229,8.492 4.686,10.192 4.200 C 11.150 3.926,11.290 2.783,10.421 2.324 C 10.231 2.224,9.852 2.216,9.540 2.306 " stroke="none" fill-rule="evenodd" fill="black"></path></svg>