<svg width="24" height="24" viewBox="0 0 24 24" fill="none" xmlns="http://www.w3.org/2000/svg"><path d="M11.080 2.045 C 7.656 2.347,4.553 4.483,3.038 7.580 C 2.590 8.494,2.229 9.595,2.234 10.028 C 2.239 10.406,2.460 10.739,2.820 10.906 C 3.203 11.085,3.586 11.012,3.906 10.701 C 4.084 10.528,4.125 10.459,4.198 10.200 C 4.410 9.455,4.582 8.976,4.802 8.523 C 5.309 7.477,5.985 6.614,6.900 5.847 C 8.980 4.103,11.895 3.550,14.497 4.404 C 15.417 4.706,16.363 5.230,17.100 5.847 C 17.548 6.221,18.840 7.536,19.571 8.360 L 20.121 8.980 17.931 9.000 C 16.301 9.015,15.711 9.033,15.627 9.070 C 15.428 9.158,15.239 9.328,15.128 9.516 C 15.037 9.672,15.020 9.746,15.020 10.000 C 15.020 10.256,15.036 10.328,15.131 10.489 C 15.256 10.702,15.449 10.864,15.670 10.943 C 15.891 11.022,22.109 11.022,22.330 10.943 C 22.551 10.864,22.744 10.702,22.869 10.489 L 22.980 10.300 22.980 7.000 L 22.980 3.700 22.871 3.514 C 22.479 2.848,21.521 2.848,21.129 3.514 L 21.020 3.700 21.000 5.311 L 20.980 6.923 20.372 6.270 C 19.522 5.359,18.691 4.550,18.220 4.177 C 16.196 2.573,13.662 1.816,11.080 2.045 M1.725 13.040 C 1.520 13.088,1.276 13.280,1.141 13.498 L 1.020 13.694 1.020 17.000 L 1.020 20.306 1.141 20.503 C 1.543 21.156,2.457 21.156,2.859 20.503 L 2.980 20.306 3.000 18.692 L 3.020 17.077 3.640 17.743 C 5.369 19.599,6.307 20.357,7.700 21.023 C 8.320 21.319,8.969 21.550,9.645 21.715 C 10.521 21.929,10.962 21.978,12.000 21.978 C 13.038 21.978,13.479 21.929,14.355 21.715 C 17.240 21.011,19.668 19.066,20.962 16.420 C 21.286 15.758,21.472 15.267,21.659 14.580 C 21.829 13.955,21.796 13.660,21.519 13.345 C 21.314 13.112,21.109 13.022,20.780 13.022 C 20.282 13.022,19.948 13.290,19.800 13.808 C 19.295 15.575,18.682 16.649,17.554 17.741 C 16.886 18.389,16.294 18.803,15.471 19.200 C 12.683 20.547,9.376 20.163,6.960 18.211 C 6.576 17.901,5.140 16.443,4.429 15.640 L 3.879 15.020 6.089 15.000 L 8.300 14.980 8.492 14.867 C 9.248 14.423,9.123 13.306,8.290 13.055 C 8.141 13.010,7.524 13.001,4.984 13.004 C 3.266 13.006,1.799 13.023,1.725 13.040 " stroke="none" fill-rule="evenodd" fill="black"></path></svg>