<svg width="24" height="24" viewBox="0 0 24 24" fill="none" xmlns="http://www.w3.org/2000/svg"><path d="M10.670 0.661 C 10.448 0.742,10.250 0.909,10.128 1.116 C 10.036 1.272,10.020 1.345,10.021 1.600 C 10.022 1.953,10.076 2.076,10.367 2.384 C 10.476 2.499,10.550 2.601,10.532 2.611 C 10.515 2.621,10.410 2.642,10.300 2.657 C 10.190 2.672,9.860 2.747,9.566 2.823 C 7.040 3.479,4.820 5.245,3.602 7.567 C 2.781 9.132,2.414 10.832,2.523 12.566 C 2.649 14.569,3.350 16.387,4.601 17.960 C 5.155 18.657,6.312 19.690,6.685 19.822 C 7.145 19.984,7.675 19.756,7.902 19.298 C 7.957 19.186,7.980 19.058,7.980 18.860 C 7.980 18.495,7.862 18.287,7.491 17.995 C 6.472 17.194,5.793 16.362,5.260 15.260 C 4.726 14.155,4.520 13.240,4.520 11.965 C 4.520 9.963,5.281 8.130,6.706 6.706 C 7.655 5.757,8.870 5.057,10.120 4.742 C 10.263 4.705,10.416 4.665,10.460 4.652 C 10.515 4.636,10.482 4.692,10.354 4.828 C 10.119 5.081,10.039 5.237,10.012 5.495 C 9.971 5.895,10.158 6.262,10.508 6.467 C 10.673 6.564,10.742 6.580,11.000 6.579 C 11.213 6.579,11.341 6.557,11.440 6.505 C 11.633 6.403,13.740 4.303,13.873 4.080 C 13.964 3.928,13.980 3.854,13.980 3.600 C 13.980 3.347,13.963 3.272,13.873 3.120 C 13.815 3.021,13.266 2.443,12.653 1.836 C 11.680 0.871,11.515 0.724,11.343 0.666 C 11.108 0.587,10.875 0.585,10.670 0.661 M16.715 4.175 C 16.230 4.349,15.963 4.748,16.012 5.228 C 16.044 5.530,16.191 5.758,16.531 6.027 C 17.559 6.841,18.204 7.633,18.740 8.740 C 19.244 9.779,19.434 10.570,19.468 11.760 C 19.498 12.805,19.418 13.409,19.132 14.300 C 18.356 16.718,16.312 18.644,13.867 19.262 C 13.731 19.296,13.584 19.335,13.540 19.348 C 13.485 19.364,13.518 19.308,13.646 19.172 C 13.925 18.872,13.978 18.749,13.979 18.400 C 13.980 18.145,13.964 18.072,13.872 17.916 C 13.618 17.484,13.136 17.305,12.657 17.466 C 12.485 17.524,12.320 17.671,11.347 18.636 C 10.734 19.243,10.185 19.821,10.127 19.920 C 10.036 20.072,10.020 20.146,10.021 20.400 C 10.021 20.613,10.043 20.741,10.095 20.840 C 10.194 21.027,12.294 23.139,12.508 23.266 C 12.968 23.538,13.587 23.368,13.867 22.892 C 13.964 22.727,13.980 22.658,13.979 22.400 C 13.978 22.047,13.924 21.924,13.631 21.614 C 13.440 21.413,13.436 21.403,13.526 21.384 C 13.578 21.373,13.764 21.335,13.940 21.299 C 15.315 21.018,16.766 20.340,17.896 19.450 C 18.262 19.162,19.162 18.262,19.450 17.896 C 21.767 14.954,22.150 10.923,20.426 7.620 C 19.934 6.679,19.401 5.965,18.634 5.219 C 17.640 4.253,17.187 4.007,16.715 4.175 " stroke="none" fill-rule="evenodd" fill="black"></path></svg>