<svg width="24" height="24" viewBox="0 0 24 24" fill="none" xmlns="http://www.w3.org/2000/svg"><path d="M12.640 0.669 C 12.492 0.721,12.265 0.925,11.347 1.836 C 10.734 2.443,10.185 3.021,10.127 3.120 C 10.037 3.272,10.020 3.347,10.020 3.600 C 10.020 3.854,10.036 3.928,10.127 4.080 C 10.260 4.303,12.367 6.403,12.560 6.505 C 12.659 6.557,12.787 6.579,13.000 6.579 C 13.258 6.580,13.327 6.564,13.492 6.467 C 13.842 6.262,14.029 5.895,13.988 5.495 C 13.961 5.237,13.881 5.081,13.646 4.828 C 13.518 4.691,13.485 4.636,13.540 4.652 C 13.584 4.665,13.701 4.695,13.800 4.720 C 16.286 5.335,18.350 7.263,19.132 9.700 C 19.418 10.591,19.498 11.195,19.468 12.240 C 19.434 13.430,19.244 14.221,18.740 15.260 C 18.191 16.393,17.576 17.138,16.428 18.059 C 16.056 18.357,15.919 18.777,16.058 19.195 C 16.222 19.689,16.808 19.994,17.284 19.834 C 17.661 19.708,18.786 18.713,19.374 17.988 C 22.174 14.525,22.206 9.610,19.450 6.104 C 19.138 5.706,18.202 4.782,17.818 4.492 C 17.072 3.928,16.255 3.467,15.434 3.145 C 14.960 2.959,14.064 2.707,13.700 2.657 C 13.590 2.642,13.485 2.621,13.468 2.611 C 13.450 2.601,13.524 2.499,13.633 2.384 C 13.924 2.076,13.978 1.953,13.979 1.600 C 13.980 1.345,13.964 1.272,13.872 1.116 C 13.617 0.683,13.120 0.502,12.640 0.669 M6.717 4.164 C 6.373 4.262,5.161 5.336,4.601 6.040 C 2.659 8.482,2.024 11.626,2.869 14.620 C 3.572 17.113,5.390 19.309,7.720 20.480 C 8.435 20.840,9.305 21.144,10.060 21.299 C 10.236 21.335,10.422 21.373,10.474 21.384 C 10.564 21.403,10.560 21.413,10.369 21.614 C 10.076 21.924,10.022 22.047,10.021 22.400 C 10.020 22.658,10.036 22.727,10.133 22.892 C 10.413 23.368,11.032 23.538,11.492 23.266 C 11.706 23.139,13.806 21.027,13.905 20.840 C 13.957 20.741,13.979 20.613,13.979 20.400 C 13.980 20.146,13.964 20.072,13.873 19.920 C 13.815 19.821,13.266 19.243,12.653 18.636 C 11.680 17.671,11.515 17.524,11.343 17.466 C 10.864 17.305,10.382 17.484,10.128 17.916 C 10.036 18.072,10.020 18.145,10.021 18.400 C 10.022 18.749,10.075 18.872,10.354 19.172 C 10.482 19.308,10.515 19.364,10.460 19.348 C 10.416 19.335,10.269 19.296,10.133 19.262 C 7.711 18.650,5.654 16.728,4.887 14.360 C 4.617 13.528,4.520 12.911,4.520 12.035 C 4.520 10.760,4.726 9.845,5.260 8.740 C 5.795 7.635,6.441 6.841,7.469 6.027 C 7.809 5.758,7.956 5.530,7.988 5.228 C 8.058 4.543,7.381 3.976,6.717 4.164 " stroke="none" fill-rule="evenodd" fill="black"></path></svg>