<svg width="24" height="24" viewBox="0 0 24 24" fill="none" xmlns="http://www.w3.org/2000/svg"><path d="M11.080 2.045 C 9.507 2.184,7.883 2.751,6.540 3.630 C 5.905 4.045,5.499 4.378,4.919 4.958 C 2.953 6.926,1.919 9.544,2.013 12.320 C 2.084 14.439,2.752 16.328,4.033 18.040 C 4.430 18.570,5.305 19.464,5.800 19.847 C 7.242 20.961,8.788 21.624,10.600 21.907 C 11.168 21.995,12.660 22.006,13.240 21.926 C 15.211 21.654,16.927 20.899,18.435 19.642 C 19.848 18.465,20.954 16.821,21.517 15.063 C 21.585 14.852,21.640 14.601,21.640 14.505 C 21.640 14.128,21.402 13.755,21.060 13.596 C 20.836 13.492,20.452 13.495,20.221 13.604 C 19.922 13.744,19.795 13.925,19.604 14.481 C 18.882 16.588,17.449 18.229,15.500 19.182 C 13.285 20.265,10.746 20.271,8.529 19.200 C 7.477 18.693,6.612 18.015,5.847 17.100 C 4.102 15.014,3.551 12.113,4.403 9.502 C 4.953 7.820,6.121 6.296,7.620 5.309 C 8.119 4.980,8.929 4.591,9.502 4.403 C 11.478 3.758,13.651 3.908,15.500 4.816 C 16.850 5.479,17.781 6.320,19.518 8.444 L 19.956 8.980 17.848 9.000 C 16.284 9.015,15.711 9.033,15.627 9.070 C 15.428 9.158,15.239 9.328,15.128 9.516 C 15.037 9.672,15.020 9.746,15.020 10.000 C 15.020 10.256,15.036 10.328,15.131 10.489 C 15.256 10.702,15.449 10.864,15.670 10.943 C 15.891 11.022,22.109 11.022,22.330 10.943 C 22.551 10.864,22.744 10.702,22.869 10.489 L 22.980 10.300 22.980 7.000 L 22.980 3.700 22.871 3.514 C 22.479 2.848,21.521 2.848,21.129 3.514 L 21.020 3.700 21.000 5.386 L 20.980 7.072 20.555 6.566 C 19.640 5.476,18.799 4.621,18.140 4.109 C 16.147 2.561,13.615 1.820,11.080 2.045 " stroke="none" fill-rule="evenodd" fill="black"></path></svg>