<svg width="24" height="24" viewBox="0 0 24 24" fill="none" xmlns="http://www.w3.org/2000/svg"><path d="M11.080 2.045 C 9.206 2.210,7.361 2.947,5.800 4.154 C 5.213 4.608,3.629 6.263,3.113 6.961 L 3.020 7.087 3.000 5.393 L 2.980 3.700 2.871 3.514 C 2.730 3.275,2.485 3.096,2.214 3.035 C 1.792 2.941,1.352 3.134,1.129 3.514 L 1.020 3.700 1.020 7.000 L 1.020 10.300 1.131 10.489 C 1.256 10.702,1.449 10.864,1.670 10.943 C 1.891 11.022,8.109 11.022,8.330 10.943 C 8.551 10.864,8.744 10.702,8.869 10.489 C 8.964 10.328,8.980 10.256,8.980 10.000 C 8.980 9.746,8.963 9.672,8.872 9.516 C 8.761 9.328,8.572 9.158,8.373 9.070 C 8.289 9.033,7.716 9.015,6.152 9.000 L 4.044 8.980 4.473 8.456 C 6.226 6.312,7.141 5.485,8.500 4.817 C 10.694 3.738,13.304 3.738,15.500 4.816 C 17.133 5.618,18.382 6.867,19.184 8.500 C 20.263 10.697,20.263 13.291,19.183 15.499 C 18.749 16.387,18.223 17.105,17.496 17.801 C 16.876 18.394,16.262 18.819,15.471 19.200 C 13.254 20.271,10.715 20.265,8.500 19.182 C 6.555 18.231,5.118 16.588,4.399 14.492 C 4.147 13.757,3.890 13.519,3.350 13.521 C 2.786 13.523,2.360 13.947,2.360 14.508 C 2.360 14.845,2.778 15.962,3.187 16.719 C 4.733 19.579,7.488 21.474,10.760 21.926 C 11.340 22.006,12.832 21.995,13.400 21.907 C 15.637 21.558,17.503 20.620,19.062 19.062 C 20.620 17.504,21.557 15.638,21.907 13.400 C 22.008 12.753,22.008 11.247,21.907 10.600 C 21.624 8.786,20.959 7.238,19.847 5.800 C 19.510 5.365,18.639 4.494,18.200 4.154 C 16.133 2.555,13.646 1.818,11.080 2.045 " stroke="none" fill-rule="evenodd" fill="black"></path></svg>