<svg width="24" height="24" viewBox="0 0 24 24" fill="none" xmlns="http://www.w3.org/2000/svg"><path d="M10.940 2.561 C 8.917 2.775,6.911 3.719,5.424 5.158 C 3.987 6.549,3.078 8.210,2.677 10.177 C 2.632 10.399,2.585 10.743,2.572 10.942 C 2.553 11.249,2.561 11.331,2.628 11.482 C 2.786 11.836,3.042 12.034,3.429 12.098 C 3.797 12.160,4.263 11.906,4.435 11.550 C 4.480 11.456,4.545 11.191,4.580 10.960 C 4.832 9.281,5.551 7.841,6.719 6.679 C 7.740 5.662,9.047 4.964,10.514 4.651 C 10.986 4.550,11.087 4.543,12.000 4.543 C 12.860 4.543,13.031 4.554,13.400 4.632 C 14.484 4.862,15.522 5.311,16.379 5.923 C 16.837 6.249,17.636 6.977,17.589 7.025 C 17.576 7.038,17.497 7.025,17.413 6.998 C 17.203 6.929,16.850 6.938,16.659 7.018 C 16.461 7.100,16.259 7.291,16.148 7.500 C 16.015 7.748,16.026 8.161,16.170 8.407 C 16.230 8.510,16.344 8.647,16.423 8.712 C 16.586 8.847,16.665 8.872,18.420 9.341 C 19.485 9.626,19.730 9.679,19.879 9.658 C 20.201 9.612,20.515 9.406,20.641 9.158 C 20.713 9.016,21.438 6.383,21.501 6.033 C 21.564 5.684,21.296 5.212,20.937 5.039 C 20.706 4.927,20.319 4.918,20.118 5.020 C 19.754 5.204,19.628 5.368,19.500 5.826 L 19.432 6.072 19.201 5.806 C 17.634 3.996,15.396 2.819,13.032 2.562 C 12.601 2.515,11.375 2.514,10.940 2.561 M20.243 11.924 C 19.938 11.983,19.634 12.241,19.522 12.534 C 19.498 12.597,19.451 12.831,19.418 13.054 C 19.296 13.865,19.112 14.481,18.782 15.181 C 17.699 17.479,15.611 19.031,13.076 19.425 C 12.466 19.519,11.472 19.511,10.836 19.406 C 9.376 19.164,8.062 18.534,6.946 17.540 C 6.617 17.248,6.354 16.960,6.414 16.960 C 6.425 16.960,6.544 16.988,6.679 17.023 C 7.061 17.121,7.410 17.025,7.666 16.753 C 8.019 16.378,8.051 15.871,7.747 15.472 C 7.675 15.377,7.544 15.260,7.456 15.212 C 7.205 15.072,4.466 14.349,4.196 14.350 C 3.857 14.352,3.503 14.560,3.359 14.842 C 3.287 14.984,2.562 17.617,2.499 17.967 C 2.425 18.378,2.774 18.892,3.215 19.020 C 3.502 19.104,3.733 19.070,4.008 18.906 C 4.263 18.753,4.375 18.594,4.482 18.232 L 4.565 17.956 5.103 18.515 C 5.975 19.420,6.682 19.947,7.740 20.482 C 8.688 20.962,9.806 21.297,10.940 21.443 C 11.478 21.512,12.613 21.501,13.220 21.422 C 14.650 21.234,16.059 20.703,17.265 19.897 C 17.883 19.485,18.263 19.168,18.803 18.614 C 19.698 17.696,20.343 16.707,20.819 15.523 C 21.134 14.738,21.386 13.717,21.428 13.052 C 21.450 12.709,21.444 12.669,21.344 12.464 C 21.139 12.045,20.706 11.833,20.243 11.924 " stroke="none" fill-rule="evenodd" fill="black"></path></svg>