<svg width="24" height="24" viewBox="0 0 24 24" fill="none" xmlns="http://www.w3.org/2000/svg"><path d="M3.695 1.057 C 3.466 1.129,3.256 1.299,3.128 1.516 C 3.037 1.672,3.020 1.746,3.020 2.000 C 3.020 2.256,3.036 2.328,3.131 2.489 C 3.192 2.592,3.304 2.725,3.381 2.783 C 3.653 2.991,3.702 2.996,5.379 2.998 L 6.938 3.000 6.459 3.446 C 5.480 4.357,4.381 5.496,4.033 5.960 C 2.999 7.341,2.360 8.869,2.093 10.600 C 1.993 11.245,1.993 12.755,2.093 13.400 C 2.608 16.732,4.630 19.519,7.580 20.962 C 8.486 21.406,9.593 21.771,10.023 21.768 C 10.722 21.764,11.201 21.012,10.906 20.380 C 10.768 20.084,10.543 19.902,10.193 19.801 C 10.032 19.754,9.774 19.680,9.620 19.635 C 7.944 19.147,6.331 17.930,5.309 16.380 C 3.994 14.387,3.653 11.791,4.404 9.503 C 4.706 8.583,5.230 7.637,5.847 6.900 C 6.221 6.452,7.536 5.160,8.360 4.429 L 8.980 3.879 9.000 6.093 L 9.020 8.306 9.141 8.503 C 9.543 9.156,10.457 9.156,10.859 8.503 L 10.980 8.306 10.980 5.003 L 10.980 1.700 10.869 1.511 C 10.744 1.298,10.551 1.136,10.330 1.057 C 10.114 0.980,3.941 0.980,3.695 1.057 M13.579 2.324 C 12.918 2.673,12.807 3.477,13.352 3.968 C 13.469 4.074,13.600 4.141,13.808 4.200 C 15.471 4.675,16.477 5.223,17.515 6.218 C 19.506 8.126,20.368 10.857,19.839 13.578 C 19.598 14.819,18.978 16.114,18.153 17.100 C 17.779 17.548,16.464 18.840,15.640 19.571 L 15.020 20.121 15.000 17.911 L 14.980 15.700 14.871 15.514 C 14.648 15.134,14.208 14.941,13.786 15.035 C 13.515 15.096,13.270 15.275,13.129 15.514 L 13.020 15.700 13.020 19.000 L 13.020 22.300 13.131 22.489 C 13.256 22.702,13.449 22.864,13.670 22.943 C 13.891 23.022,20.109 23.022,20.330 22.943 C 20.551 22.864,20.744 22.702,20.869 22.489 C 20.964 22.328,20.980 22.256,20.980 22.000 C 20.980 21.746,20.963 21.672,20.872 21.516 C 20.813 21.415,20.698 21.282,20.618 21.221 C 20.343 21.011,20.239 21.000,18.585 21.000 L 17.062 21.000 17.541 20.554 C 18.520 19.643,19.619 18.504,19.967 18.040 C 20.999 16.661,21.639 15.130,21.907 13.400 C 22.007 12.760,22.006 11.249,21.907 10.600 C 21.573 8.425,20.615 6.498,19.120 4.997 C 17.769 3.640,16.336 2.809,14.510 2.323 C 14.102 2.214,13.787 2.215,13.579 2.324 " stroke="none" fill-rule="evenodd" fill="black"></path></svg>