<svg width="24" height="24" viewBox="0 0 24 24" fill="none" xmlns="http://www.w3.org/2000/svg"><path d="M11.080 2.045 C 9.838 2.154,8.478 2.557,7.363 3.145 C 6.125 3.798,5.251 4.530,3.628 6.270 L 3.020 6.923 3.000 5.311 L 2.980 3.700 2.871 3.514 C 2.730 3.275,2.485 3.096,2.214 3.035 C 1.792 2.941,1.352 3.134,1.129 3.514 L 1.020 3.700 1.020 7.000 L 1.020 10.300 1.131 10.489 C 1.256 10.702,1.449 10.864,1.670 10.943 C 1.891 11.022,8.109 11.022,8.330 10.943 C 8.551 10.864,8.744 10.702,8.869 10.489 C 8.964 10.328,8.980 10.256,8.980 10.000 C 8.980 9.746,8.963 9.672,8.872 9.516 C 8.761 9.328,8.572 9.158,8.373 9.070 C 8.289 9.033,7.699 9.015,6.069 9.000 L 3.879 8.980 4.429 8.360 C 5.160 7.536,6.452 6.221,6.900 5.847 C 8.985 4.102,11.896 3.550,14.497 4.404 C 16.219 4.969,17.729 6.139,18.736 7.687 C 19.177 8.365,19.491 9.107,19.802 10.200 C 19.875 10.459,19.916 10.528,20.094 10.701 C 20.414 11.012,20.797 11.085,21.180 10.906 C 21.540 10.739,21.761 10.406,21.766 10.028 C 21.771 9.595,21.410 8.494,20.962 7.580 C 19.152 3.881,15.221 1.678,11.080 2.045 M2.960 13.035 C 2.663 13.132,2.405 13.362,2.293 13.629 C 2.171 13.922,2.252 14.404,2.587 15.380 C 2.787 15.961,3.303 16.989,3.665 17.527 C 5.088 19.640,7.199 21.118,9.645 21.715 C 10.521 21.929,10.962 21.978,12.000 21.978 C 13.038 21.978,13.479 21.929,14.355 21.715 C 15.024 21.552,15.674 21.320,16.300 21.022 C 17.688 20.361,18.630 19.600,20.360 17.743 L 20.980 17.077 21.000 18.692 L 21.020 20.306 21.141 20.503 C 21.543 21.156,22.457 21.156,22.859 20.503 L 22.980 20.306 22.980 17.000 L 22.980 13.694 22.859 13.498 C 22.719 13.272,22.482 13.090,22.257 13.038 C 22.170 13.018,20.717 13.001,18.996 13.001 C 15.628 13.000,15.676 12.997,15.382 13.221 C 15.083 13.449,14.935 13.893,15.035 14.264 C 15.099 14.498,15.286 14.737,15.508 14.867 L 15.700 14.980 17.907 15.000 L 20.115 15.020 19.607 15.599 C 18.948 16.351,17.426 17.900,17.041 18.211 C 14.621 20.164,11.318 20.548,8.529 19.200 C 7.706 18.803,7.114 18.389,6.446 17.741 C 5.318 16.649,4.705 15.575,4.200 13.808 C 4.106 13.478,3.928 13.247,3.666 13.113 C 3.491 13.024,3.119 12.983,2.960 13.035 " stroke="none" fill-rule="evenodd" fill="black"></path></svg>