<svg width="24" height="24" viewBox="0 0 24 24" fill="none" xmlns="http://www.w3.org/2000/svg"><path d="M10.800 2.581 C 9.140 2.787,7.584 3.431,6.182 4.493 C 5.758 4.813,4.986 5.569,4.621 6.020 C 3.523 7.375,2.828 8.994,2.575 10.780 C 2.477 11.479,2.485 12.615,2.595 13.340 C 2.690 13.973,2.822 14.519,3.020 15.093 C 3.132 15.420,3.144 15.482,3.088 15.460 C 2.894 15.383,2.495 15.327,2.344 15.355 C 1.949 15.430,1.647 15.693,1.539 16.056 C 1.464 16.308,1.465 16.393,1.545 16.629 C 1.629 16.876,1.810 17.103,2.002 17.201 C 2.086 17.244,2.832 17.460,3.661 17.682 C 5.252 18.109,5.292 18.115,5.621 17.977 C 5.793 17.905,5.977 17.747,6.077 17.585 C 6.121 17.513,6.340 16.772,6.564 15.939 C 7.003 14.299,7.014 14.218,6.846 13.893 C 6.669 13.550,6.343 13.352,5.957 13.352 C 5.483 13.352,5.133 13.627,4.989 14.112 L 4.903 14.405 4.830 14.192 C 4.660 13.697,4.557 13.038,4.533 12.300 C 4.487 10.903,4.721 9.807,5.320 8.620 C 6.355 6.568,8.220 5.141,10.500 4.655 C 10.889 4.572,11.131 4.549,11.780 4.532 C 12.967 4.500,13.620 4.611,14.771 5.037 C 15.362 5.255,15.488 5.273,15.765 5.179 C 16.427 4.953,16.665 4.099,16.207 3.590 C 15.852 3.195,14.390 2.719,13.041 2.560 C 12.579 2.505,11.312 2.517,10.800 2.581 M18.600 5.959 C 18.295 6.024,18.072 6.174,17.923 6.415 C 17.879 6.487,17.660 7.220,17.439 8.043 C 17.000 9.670,16.985 9.777,17.154 10.108 C 17.352 10.496,17.809 10.728,18.207 10.642 C 18.643 10.549,18.899 10.299,19.026 9.841 L 19.096 9.590 19.169 9.805 C 19.514 10.814,19.575 12.416,19.315 13.615 C 19.056 14.809,18.412 16.070,17.572 17.026 C 16.802 17.902,15.487 18.760,14.369 19.115 C 13.471 19.400,12.869 19.493,11.960 19.491 C 11.034 19.488,10.199 19.338,9.413 19.033 C 8.757 18.779,8.604 18.745,8.349 18.798 C 7.605 18.953,7.298 19.870,7.805 20.421 C 8.050 20.686,8.749 20.976,9.734 21.219 C 10.535 21.416,11.134 21.489,11.980 21.492 C 13.565 21.497,15.016 21.142,16.400 20.414 C 17.330 19.924,18.069 19.368,18.820 18.595 C 19.568 17.825,20.049 17.142,20.522 16.180 C 21.537 14.115,21.769 11.792,21.182 9.580 C 21.107 9.294,20.998 8.936,20.941 8.785 C 20.857 8.564,20.849 8.515,20.900 8.534 C 21.457 8.748,21.941 8.674,22.245 8.329 C 22.662 7.853,22.556 7.130,22.024 6.821 C 21.872 6.733,19.213 5.995,18.880 5.949 C 18.803 5.938,18.677 5.943,18.600 5.959 " stroke="none" fill-rule="evenodd" fill="black"></path></svg>