<svg width="24" height="24" viewBox="0 0 24 24" fill="none" xmlns="http://www.w3.org/2000/svg"><path d="M16.670 1.061 C 16.448 1.142,16.250 1.309,16.128 1.516 C 16.036 1.672,16.020 1.745,16.021 2.000 C 16.021 2.213,16.043 2.341,16.095 2.440 C 16.136 2.517,16.710 3.124,17.371 3.788 L 18.574 4.996 12.137 5.012 C 5.159 5.029,5.359 5.023,4.680 5.246 C 3.729 5.558,2.913 6.256,2.465 7.141 C 2.101 7.858,1.984 8.676,2.007 10.343 L 2.020 11.307 2.141 11.503 C 2.543 12.156,3.457 12.156,3.859 11.503 L 3.980 11.306 4.007 10.063 C 4.044 8.342,4.104 8.096,4.600 7.600 C 4.890 7.309,5.106 7.188,5.508 7.091 C 5.754 7.031,6.399 7.023,12.180 7.011 L 18.580 6.997 17.374 8.208 C 16.711 8.875,16.138 9.481,16.101 9.555 C 15.872 10.009,16.056 10.601,16.508 10.867 C 16.673 10.964,16.743 10.980,17.000 10.980 C 17.254 10.980,17.328 10.964,17.480 10.873 C 17.705 10.739,21.805 6.632,21.905 6.440 C 21.957 6.341,21.979 6.212,21.979 6.000 C 21.980 5.745,21.964 5.673,21.873 5.520 C 21.813 5.419,20.834 4.412,19.653 3.235 C 17.748 1.338,17.521 1.124,17.343 1.065 C 17.107 0.987,16.874 0.986,16.670 1.061 M20.695 12.057 C 20.466 12.129,20.256 12.299,20.128 12.516 L 20.020 12.700 19.993 13.940 C 19.956 15.658,19.896 15.904,19.400 16.401 C 19.121 16.681,18.839 16.841,18.480 16.923 C 18.309 16.963,16.836 16.977,11.840 16.988 L 5.420 17.002 6.626 15.791 C 7.289 15.125,7.864 14.517,7.905 14.440 C 7.957 14.341,7.979 14.213,7.979 14.000 C 7.980 13.745,7.964 13.672,7.872 13.516 C 7.618 13.084,7.138 12.906,6.657 13.065 C 6.479 13.124,6.252 13.338,4.347 15.235 C 3.166 16.412,2.187 17.419,2.127 17.520 C 2.036 17.673,2.020 17.745,2.021 18.000 C 2.021 18.212,2.043 18.341,2.095 18.440 C 2.195 18.632,6.295 22.739,6.520 22.873 C 6.672 22.964,6.746 22.980,7.000 22.980 C 7.257 22.980,7.327 22.964,7.492 22.867 C 7.714 22.737,7.901 22.498,7.965 22.264 C 8.019 22.061,7.989 21.733,7.899 21.555 C 7.862 21.481,7.289 20.875,6.626 20.210 L 5.422 19.000 11.581 19.000 C 18.389 19.000,18.521 18.996,19.320 18.755 C 20.228 18.482,21.085 17.749,21.536 16.858 C 21.899 16.143,22.016 15.322,21.993 13.660 L 21.980 12.700 21.872 12.516 C 21.628 12.101,21.150 11.915,20.695 12.057 " stroke="none" fill-rule="evenodd" fill="black"></path></svg>