<svg width="24" height="24" viewBox="0 0 24 24" fill="none" xmlns="http://www.w3.org/2000/svg"><path d="M10.670 1.061 C 10.448 1.142,10.250 1.309,10.128 1.516 C 10.036 1.672,10.020 1.745,10.021 2.000 C 10.021 2.213,10.043 2.340,10.096 2.440 C 10.136 2.517,10.485 2.898,10.870 3.287 L 11.571 3.993 8.155 4.010 C 4.487 4.029,4.314 4.038,3.680 4.246 C 2.534 4.622,1.576 5.579,1.245 6.680 C 1.014 7.446,1.000 7.768,1.000 12.285 C 1.000 16.688,0.999 16.657,1.237 17.349 C 1.650 18.551,2.724 19.536,3.980 19.864 C 4.299 19.947,4.508 19.973,5.010 19.990 C 5.732 20.014,5.892 19.977,6.173 19.724 C 6.574 19.362,6.600 18.715,6.228 18.326 C 5.984 18.072,5.845 18.028,5.180 17.998 C 4.724 17.978,4.524 17.951,4.346 17.887 C 3.701 17.656,3.245 17.151,3.075 16.480 C 2.997 16.169,2.995 16.066,3.011 11.971 C 3.028 7.428,3.024 7.508,3.248 7.048 C 3.366 6.806,3.806 6.366,4.048 6.248 C 4.496 6.030,4.506 6.029,8.180 6.011 L 11.580 5.995 10.875 6.707 C 10.487 7.099,10.139 7.481,10.101 7.555 C 9.872 8.008,10.056 8.601,10.508 8.867 C 10.673 8.964,10.742 8.980,11.000 8.979 C 11.212 8.979,11.341 8.957,11.440 8.905 C 11.632 8.804,14.739 5.704,14.873 5.480 C 14.964 5.328,14.980 5.254,14.980 5.000 C 14.980 4.746,14.963 4.672,14.873 4.520 C 14.814 4.421,14.040 3.618,13.153 2.736 C 11.714 1.305,11.519 1.124,11.343 1.066 C 11.108 0.987,10.875 0.986,10.670 1.061 M18.240 4.035 C 17.784 4.186,17.512 4.547,17.512 5.000 C 17.512 5.405,17.719 5.724,18.100 5.905 C 18.273 5.986,18.361 5.999,18.744 6.000 C 19.511 6.000,19.969 6.166,20.401 6.599 C 20.688 6.885,20.825 7.127,20.925 7.520 C 21.003 7.831,21.005 7.934,20.989 12.029 C 20.972 16.572,20.976 16.492,20.752 16.952 C 20.627 17.210,20.190 17.638,19.920 17.767 C 19.496 17.971,19.491 17.971,15.840 17.988 L 12.420 18.004 13.125 17.292 C 13.513 16.900,13.864 16.517,13.904 16.440 C 13.957 16.340,13.979 16.213,13.979 16.000 C 13.980 15.745,13.964 15.672,13.872 15.516 C 13.618 15.084,13.137 14.906,12.657 15.066 C 12.481 15.124,12.286 15.305,10.847 16.736 C 9.960 17.618,9.186 18.421,9.127 18.520 C 9.036 18.673,9.020 18.746,9.021 19.000 C 9.021 19.212,9.043 19.341,9.095 19.440 C 9.193 19.626,12.293 22.738,12.508 22.865 C 12.967 23.138,13.587 22.968,13.867 22.492 C 13.964 22.327,13.980 22.258,13.979 22.000 C 13.979 21.787,13.957 21.660,13.904 21.560 C 13.864 21.483,13.514 21.101,13.127 20.710 L 12.423 20.000 15.581 20.000 C 19.172 20.000,19.577 19.979,20.320 19.755 C 21.422 19.423,22.425 18.421,22.755 17.320 C 22.993 16.525,23.007 16.200,22.992 11.500 L 22.979 7.380 22.869 6.980 C 22.471 5.527,21.293 4.400,19.860 4.099 C 19.507 4.025,18.401 3.981,18.240 4.035 " stroke="none" fill-rule="evenodd" fill="black"></path></svg>