<svg width="24" height="24" viewBox="0 0 24 24" fill="none" xmlns="http://www.w3.org/2000/svg"><path d="M10.670 1.061 C 10.448 1.142,10.250 1.309,10.128 1.516 C 10.036 1.672,10.020 1.745,10.021 2.000 C 10.021 2.213,10.043 2.340,10.096 2.440 C 10.136 2.517,10.486 2.899,10.873 3.290 L 11.577 4.000 10.139 4.000 C 8.163 4.000,7.513 4.072,6.503 4.404 C 5.266 4.810,4.128 5.533,3.199 6.504 C 0.938 8.868,0.357 12.443,1.757 15.380 C 2.544 17.030,3.792 18.329,5.333 19.103 C 5.707 19.290,5.798 19.320,5.995 19.320 C 6.861 19.320,7.324 18.259,6.724 17.651 C 6.641 17.568,6.395 17.404,6.177 17.286 C 5.079 16.694,4.251 15.854,3.681 14.754 C 3.037 13.511,2.853 12.147,3.141 10.738 C 3.550 8.736,5.094 6.999,7.060 6.329 C 7.861 6.055,8.369 6.002,10.199 6.001 L 11.577 6.000 10.873 6.710 C 10.486 7.101,10.139 7.481,10.101 7.555 C 9.872 8.008,10.056 8.601,10.508 8.867 C 10.673 8.964,10.742 8.980,11.000 8.979 C 11.212 8.979,11.341 8.957,11.440 8.905 C 11.632 8.804,14.739 5.704,14.873 5.480 C 14.964 5.328,14.980 5.254,14.980 5.000 C 14.980 4.746,14.963 4.672,14.873 4.520 C 14.814 4.421,14.040 3.618,13.153 2.736 C 11.714 1.305,11.519 1.124,11.343 1.066 C 11.108 0.987,10.875 0.986,10.670 1.061 M17.665 4.739 C 17.003 4.975,16.790 5.852,17.274 6.348 C 17.356 6.431,17.602 6.596,17.821 6.714 C 18.909 7.296,19.739 8.137,20.316 9.242 C 21.071 10.688,21.200 12.389,20.671 13.940 C 19.991 15.936,18.308 17.413,16.180 17.883 C 15.811 17.965,15.649 17.973,14.100 17.989 L 12.420 18.006 13.125 17.293 C 13.513 16.901,13.864 16.517,13.904 16.440 C 13.957 16.340,13.979 16.213,13.979 16.000 C 13.980 15.745,13.964 15.672,13.872 15.516 C 13.618 15.084,13.137 14.906,12.657 15.066 C 12.481 15.124,12.286 15.305,10.847 16.736 C 9.960 17.618,9.186 18.421,9.127 18.520 C 9.036 18.673,9.020 18.746,9.021 19.000 C 9.021 19.212,9.043 19.341,9.095 19.440 C 9.193 19.626,12.293 22.738,12.508 22.865 C 12.967 23.138,13.587 22.968,13.867 22.492 C 13.964 22.327,13.980 22.258,13.979 22.000 C 13.979 21.787,13.957 21.660,13.904 21.560 C 13.864 21.483,13.514 21.101,13.127 20.710 L 12.423 20.000 13.933 20.000 C 14.764 20.000,15.618 19.981,15.832 19.958 C 17.297 19.797,18.721 19.226,19.900 18.326 C 20.239 18.067,20.925 17.394,21.211 17.040 C 23.140 14.654,23.544 11.350,22.243 8.620 C 21.451 6.959,20.210 5.675,18.626 4.878 C 18.195 4.661,17.973 4.629,17.665 4.739 " stroke="none" fill-rule="evenodd" fill="black"></path></svg>