<svg width="24" height="24" viewBox="0 0 24 24" fill="none" xmlns="http://www.w3.org/2000/svg"><path d="M7.640 2.068 C 7.486 2.121,7.151 2.438,5.347 4.235 C 4.166 5.411,3.187 6.419,3.127 6.520 C 3.037 6.672,3.020 6.746,3.020 7.000 C 3.020 7.254,3.036 7.328,3.127 7.480 C 3.261 7.705,7.368 11.805,7.560 11.905 C 7.659 11.957,7.788 11.979,8.000 11.979 C 8.258 11.980,8.327 11.964,8.492 11.867 C 8.714 11.737,8.901 11.498,8.965 11.264 C 9.019 11.061,8.989 10.733,8.899 10.555 C 8.862 10.481,8.289 9.876,7.626 9.210 L 6.422 8.000 10.292 8.000 C 14.268 8.000,14.657 8.013,15.240 8.162 C 16.795 8.559,18.095 9.725,18.680 11.248 C 19.092 12.320,19.085 13.720,18.663 14.793 C 18.120 16.174,16.990 17.258,15.600 17.732 C 14.839 17.991,15.245 17.974,9.220 17.998 C 4.959 18.015,3.715 18.031,3.627 18.070 C 3.428 18.158,3.239 18.328,3.128 18.516 C 3.037 18.672,3.020 18.746,3.020 19.000 C 3.020 19.257,3.036 19.327,3.133 19.492 C 3.261 19.711,3.502 19.901,3.725 19.961 C 3.828 19.989,5.674 19.998,9.349 19.988 C 15.181 19.973,14.939 19.980,15.720 19.783 C 17.947 19.219,19.794 17.543,20.573 15.380 C 20.876 14.538,20.977 13.944,20.977 13.000 C 20.977 12.056,20.876 11.462,20.573 10.620 C 19.794 8.457,17.946 6.780,15.720 6.217 C 14.975 6.029,15.011 6.030,10.603 6.013 L 6.426 5.996 7.629 4.788 C 8.290 4.124,8.864 3.517,8.905 3.440 C 8.957 3.341,8.979 3.213,8.979 3.000 C 8.980 2.745,8.964 2.672,8.872 2.516 C 8.617 2.083,8.121 1.903,7.640 2.068 " stroke="none" fill-rule="evenodd" fill="black"></path></svg>