<svg width="24" height="24" viewBox="0 0 24 24" fill="none" xmlns="http://www.w3.org/2000/svg"><path d="M15.670 2.061 C 15.448 2.142,15.250 2.309,15.128 2.516 C 15.036 2.672,15.020 2.745,15.021 3.000 C 15.021 3.213,15.043 3.341,15.095 3.440 C 15.136 3.517,15.710 4.124,16.371 4.788 L 17.574 5.996 13.397 6.013 C 8.989 6.030,9.025 6.029,8.280 6.217 C 5.820 6.839,3.836 8.823,3.223 11.275 C 3.064 11.908,3.023 12.264,3.023 13.000 C 3.023 13.736,3.064 14.092,3.223 14.725 C 3.830 17.154,5.800 19.143,8.214 19.764 C 9.064 19.983,8.756 19.972,14.651 19.988 C 18.326 19.998,20.172 19.989,20.275 19.961 C 20.498 19.901,20.739 19.711,20.867 19.492 C 20.964 19.327,20.980 19.257,20.980 19.000 C 20.980 18.746,20.963 18.672,20.872 18.516 C 20.761 18.328,20.572 18.158,20.373 18.070 C 20.285 18.031,19.041 18.015,14.780 17.998 C 8.755 17.974,9.161 17.991,8.400 17.732 C 6.810 17.189,5.580 15.864,5.161 14.240 C 4.920 13.307,4.983 12.125,5.320 11.248 C 5.905 9.725,7.205 8.559,8.760 8.162 C 9.343 8.013,9.732 8.000,13.708 8.000 L 17.578 8.000 16.374 9.210 C 15.711 9.876,15.138 10.481,15.101 10.555 C 14.872 11.009,15.056 11.601,15.508 11.867 C 15.673 11.964,15.743 11.980,16.000 11.980 C 16.254 11.980,16.328 11.964,16.480 11.873 C 16.705 11.739,20.805 7.632,20.905 7.440 C 20.957 7.341,20.979 7.212,20.979 7.000 C 20.980 6.745,20.964 6.673,20.873 6.520 C 20.813 6.419,19.834 5.412,18.653 4.235 C 16.748 2.338,16.521 2.124,16.343 2.065 C 16.107 1.987,15.874 1.986,15.670 2.061 " stroke="none" fill-rule="evenodd" fill="black"></path></svg>