<svg width="24" height="24" viewBox="0 0 24 24" fill="none" xmlns="http://www.w3.org/2000/svg"><path d="M2.695 3.057 C 2.466 3.129,2.256 3.299,2.128 3.516 C 2.037 3.672,2.020 3.746,2.020 4.000 C 2.020 4.256,2.036 4.328,2.131 4.489 C 2.256 4.702,2.449 4.864,2.670 4.943 C 2.893 5.023,21.107 5.023,21.330 4.943 C 21.551 4.864,21.744 4.702,21.869 4.489 C 21.964 4.328,21.980 4.256,21.980 4.000 C 21.980 3.746,21.963 3.672,21.872 3.516 C 21.740 3.293,21.533 3.128,21.290 3.055 C 21.027 2.976,2.947 2.978,2.695 3.057 M20.185 7.042 C 20.099 7.063,19.924 7.137,19.795 7.206 C 19.437 7.397,14.930 10.791,14.712 11.035 C 14.216 11.587,14.216 12.413,14.712 12.966 C 14.983 13.268,19.586 16.708,19.916 16.856 C 20.777 17.240,21.727 16.764,21.937 15.843 C 21.992 15.600,22.000 15.111,22.000 12.000 C 22.000 8.889,21.992 8.400,21.937 8.157 C 21.828 7.679,21.464 7.251,21.038 7.099 C 20.815 7.019,20.389 6.991,20.185 7.042 M2.800 8.277 C 2.310 8.378,1.961 8.848,2.012 9.340 C 2.050 9.717,2.254 10.000,2.600 10.157 C 2.778 10.237,2.837 10.238,7.500 10.238 C 12.163 10.238,12.222 10.237,12.400 10.157 C 12.746 10.000,12.950 9.717,12.988 9.340 C 13.030 8.938,12.812 8.556,12.423 8.347 L 12.260 8.260 7.600 8.254 C 5.037 8.251,2.877 8.261,2.800 8.277 M19.991 13.242 L 19.980 14.485 18.332 13.252 C 17.425 12.575,16.683 12.011,16.683 12.000 C 16.683 11.989,17.425 11.425,18.332 10.748 L 19.980 9.515 19.991 10.758 C 19.996 11.441,19.996 12.559,19.991 13.242 M2.600 13.843 C 2.254 14.000,2.050 14.283,2.012 14.660 C 1.970 15.062,2.188 15.444,2.577 15.653 L 2.740 15.740 7.500 15.740 L 12.260 15.740 12.423 15.653 C 13.196 15.239,13.183 14.197,12.400 13.843 C 12.222 13.763,12.163 13.762,7.500 13.762 C 2.837 13.762,2.778 13.763,2.600 13.843 M2.695 19.057 C 2.466 19.129,2.256 19.299,2.128 19.516 C 2.037 19.672,2.020 19.746,2.020 20.000 C 2.020 20.256,2.036 20.328,2.131 20.489 C 2.256 20.702,2.449 20.864,2.670 20.943 C 2.893 21.023,21.107 21.023,21.330 20.943 C 21.551 20.864,21.744 20.702,21.869 20.489 C 21.964 20.328,21.980 20.256,21.980 20.000 C 21.980 19.746,21.963 19.672,21.872 19.516 C 21.740 19.293,21.533 19.128,21.290 19.055 C 21.027 18.976,2.947 18.978,2.695 19.057 " stroke="none" fill-rule="evenodd" fill="black"></path></svg>