<svg width="24" height="24" viewBox="0 0 24 24" fill="none" xmlns="http://www.w3.org/2000/svg"><path d="M20.078 1.576 C 19.748 1.703,19.487 1.886,17.199 3.602 C 14.514 5.615,14.505 5.623,14.383 6.158 C 14.306 6.499,14.306 6.501,14.383 6.842 C 14.505 7.376,14.513 7.384,17.197 9.397 C 18.516 10.387,19.704 11.251,19.835 11.317 C 20.755 11.782,21.768 11.270,21.960 10.245 C 22.014 9.953,22.014 3.047,21.960 2.755 C 21.868 2.261,21.557 1.843,21.129 1.637 C 20.894 1.524,20.302 1.490,20.078 1.576 M2.670 3.061 C 2.448 3.142,2.250 3.309,2.128 3.516 C 2.037 3.672,2.020 3.746,2.020 4.000 C 2.020 4.256,2.036 4.328,2.131 4.489 C 2.256 4.702,2.449 4.864,2.670 4.943 C 2.892 5.022,12.108 5.022,12.330 4.943 C 12.551 4.864,12.744 4.702,12.869 4.489 C 12.964 4.328,12.980 4.256,12.980 4.000 C 12.980 3.746,12.963 3.672,12.872 3.516 C 12.747 3.303,12.550 3.141,12.316 3.058 C 12.075 2.974,2.901 2.976,2.670 3.061 M20.000 6.500 L 20.000 9.000 18.338 7.754 C 17.424 7.068,16.691 6.493,16.708 6.476 C 16.742 6.443,19.973 4.008,19.990 4.003 C 19.995 4.001,20.000 5.125,20.000 6.500 M2.800 8.277 C 2.310 8.378,1.961 8.848,2.012 9.340 C 2.050 9.717,2.254 10.000,2.600 10.157 C 2.778 10.237,2.837 10.238,7.500 10.238 C 12.163 10.238,12.222 10.237,12.400 10.157 C 12.746 10.000,12.950 9.717,12.988 9.340 C 13.030 8.938,12.812 8.556,12.423 8.347 L 12.260 8.260 7.600 8.254 C 5.037 8.251,2.877 8.261,2.800 8.277 M2.600 13.843 C 2.254 14.000,2.050 14.283,2.012 14.660 C 1.970 15.062,2.188 15.444,2.577 15.653 L 2.740 15.740 12.000 15.740 L 21.260 15.740 21.423 15.653 C 22.196 15.239,22.183 14.197,21.400 13.843 C 21.221 13.762,21.190 13.762,12.000 13.762 C 2.810 13.762,2.779 13.762,2.600 13.843 M2.695 19.057 C 2.466 19.129,2.256 19.299,2.128 19.516 C 2.037 19.672,2.020 19.746,2.020 20.000 C 2.020 20.256,2.036 20.328,2.131 20.489 C 2.256 20.702,2.449 20.864,2.670 20.943 C 2.893 21.023,21.107 21.023,21.330 20.943 C 21.551 20.864,21.744 20.702,21.869 20.489 C 21.964 20.328,21.980 20.256,21.980 20.000 C 21.980 19.746,21.963 19.672,21.872 19.516 C 21.740 19.293,21.533 19.128,21.290 19.055 C 21.027 18.976,2.947 18.978,2.695 19.057 " stroke="none" fill-rule="evenodd" fill="black"></path></svg>