<svg width="24" height="24" viewBox="0 0 24 24" fill="none" xmlns="http://www.w3.org/2000/svg"><path d="M16.708 1.697 C 15.217 1.949,13.903 2.185,13.788 2.222 C 13.459 2.329,13.051 2.541,12.776 2.749 C 12.635 2.856,11.741 3.775,10.755 4.830 C 9.783 5.870,8.968 6.720,8.945 6.720 C 8.922 6.720,8.386 6.548,7.753 6.338 C 6.346 5.872,6.101 5.828,5.600 5.955 C 5.412 6.002,5.167 6.099,5.052 6.170 C 4.795 6.330,1.969 8.716,1.716 8.987 C 1.331 9.399,1.141 10.037,1.235 10.606 C 1.333 11.197,1.713 11.754,2.205 12.029 C 2.323 12.094,2.849 12.307,3.374 12.500 L 4.328 12.851 4.302 12.976 C 4.177 13.588,4.176 14.630,4.301 15.200 C 4.439 15.833,4.710 16.513,5.033 17.033 L 5.230 17.350 4.012 18.565 C 3.342 19.233,2.744 19.852,2.682 19.940 C 2.371 20.385,2.494 21.027,2.948 21.328 C 3.126 21.445,3.301 21.491,3.549 21.486 C 3.915 21.479,4.019 21.397,5.384 20.035 L 6.668 18.754 6.941 18.921 C 7.423 19.216,8.110 19.486,8.720 19.620 C 9.168 19.719,10.208 19.743,10.678 19.666 C 10.887 19.631,11.063 19.610,11.072 19.618 C 11.080 19.626,11.247 20.068,11.443 20.599 C 11.639 21.130,11.848 21.648,11.908 21.749 C 12.265 22.360,13.062 22.770,13.762 22.705 C 14.287 22.656,14.684 22.463,15.064 22.072 C 15.285 21.844,17.313 19.459,17.631 19.053 C 17.913 18.693,18.069 18.148,18.022 17.680 C 18.006 17.513,17.854 16.988,17.598 16.218 C 17.379 15.557,17.200 14.998,17.200 14.975 C 17.200 14.952,17.960 14.224,18.890 13.357 C 20.996 11.391,21.107 11.279,21.358 10.872 C 21.690 10.334,21.752 10.070,22.244 7.120 C 22.656 4.644,22.685 4.433,22.665 4.071 C 22.623 3.314,22.331 2.682,21.762 2.116 C 21.476 1.831,21.350 1.739,21.038 1.586 C 20.572 1.357,20.290 1.283,19.800 1.258 C 19.452 1.241,19.188 1.279,16.708 1.697 M20.094 3.340 C 20.326 3.450,20.543 3.702,20.623 3.953 L 20.694 4.180 20.398 5.970 C 20.235 6.955,20.089 7.760,20.074 7.760 C 20.059 7.760,19.987 7.684,19.914 7.590 C 19.093 6.541,17.410 4.857,16.299 3.973 C 16.212 3.904,16.149 3.839,16.160 3.830 C 16.171 3.821,16.936 3.685,17.860 3.528 C 19.604 3.233,19.829 3.214,20.094 3.340 M14.740 5.295 C 16.388 6.580,18.008 8.272,19.168 9.922 L 19.353 10.184 15.726 13.572 C 13.732 15.435,12.019 17.017,11.921 17.087 C 11.379 17.471,10.768 17.674,10.052 17.708 C 9.367 17.741,8.807 17.637,8.269 17.377 L 8.118 17.304 10.994 14.422 C 13.610 11.800,13.875 11.522,13.935 11.343 C 14.065 10.948,13.982 10.589,13.694 10.300 C 13.414 10.020,13.045 9.937,12.657 10.065 C 12.478 10.125,12.199 10.391,9.571 13.013 C 7.982 14.599,6.675 15.888,6.666 15.878 C 6.602 15.808,6.423 15.386,6.333 15.092 C 6.235 14.770,6.226 14.683,6.226 14.080 C 6.226 13.534,6.241 13.367,6.310 13.115 C 6.397 12.798,6.627 12.312,6.836 12.000 C 6.903 11.901,8.483 10.188,10.348 8.193 L 13.738 4.566 14.059 4.791 C 14.236 4.914,14.542 5.141,14.740 5.295 M6.790 8.124 C 7.148 8.242,7.436 8.351,7.430 8.366 C 7.425 8.382,7.084 8.752,6.674 9.189 C 5.756 10.169,5.327 10.654,5.206 10.850 C 5.155 10.933,5.109 11.000,5.103 11.000 C 5.070 11.000,3.272 10.325,3.252 10.305 C 3.239 10.292,3.271 10.246,3.324 10.204 C 3.377 10.161,4.014 9.622,4.740 9.005 C 5.466 8.388,6.078 7.889,6.100 7.896 C 6.122 7.903,6.433 8.005,6.790 8.124 M15.810 17.168 C 16.033 17.841,16.037 17.858,15.965 17.938 C 15.905 18.004,13.698 20.619,13.653 20.677 C 13.646 20.686,13.630 20.683,13.617 20.671 C 13.599 20.652,12.920 18.846,12.920 18.815 C 12.920 18.810,12.988 18.765,13.070 18.714 C 13.261 18.597,13.944 17.990,14.840 17.145 C 15.225 16.781,15.549 16.483,15.561 16.482 C 15.572 16.481,15.684 16.790,15.810 17.168 " stroke="none" fill-rule="evenodd" fill="black"></path></svg>