<svg width="24" height="24" viewBox="0 0 24 24" fill="none" xmlns="http://www.w3.org/2000/svg"><path d="M21.220 1.026 C 20.668 1.060,19.996 1.132,19.572 1.203 C 17.140 1.612,14.746 2.744,12.820 4.397 C 12.295 4.848,11.453 5.737,11.001 6.317 C 10.625 6.800,10.579 6.845,10.484 6.824 C 10.082 6.734,9.169 6.598,8.700 6.558 C 7.716 6.473,6.746 6.579,6.082 6.845 C 5.164 7.212,4.465 7.949,3.886 9.160 C 3.380 10.216,2.946 11.718,3.016 12.169 C 3.055 12.423,3.255 12.710,3.497 12.859 L 3.694 12.980 6.138 12.991 L 8.583 13.002 9.791 14.211 L 10.998 15.420 11.009 17.863 L 11.020 20.306 11.141 20.503 C 11.290 20.745,11.577 20.945,11.831 20.984 C 12.100 21.026,12.740 20.887,13.618 20.598 C 15.468 19.987,16.616 19.150,17.099 18.060 C 17.539 17.066,17.594 15.646,17.258 13.921 C 17.205 13.647,17.174 13.411,17.191 13.396 C 17.207 13.382,17.454 13.183,17.739 12.955 C 18.670 12.212,19.659 11.193,20.334 10.285 C 21.999 8.040,22.967 5.153,22.977 2.400 C 22.980 1.709,22.979 1.698,22.872 1.516 C 22.604 1.061,22.275 0.963,21.220 1.026 M20.960 3.051 C 20.960 3.057,20.932 3.287,20.899 3.561 C 20.566 6.268,19.418 8.596,17.475 10.507 C 16.426 11.539,15.447 12.238,13.980 13.003 C 13.334 13.340,12.346 13.800,12.267 13.800 C 12.241 13.800,11.763 13.343,11.205 12.785 C 10.301 11.881,10.194 11.760,10.221 11.675 C 10.271 11.510,10.765 10.479,11.012 10.020 C 12.255 7.719,13.416 6.339,15.103 5.157 C 16.573 4.129,18.210 3.460,19.980 3.164 C 20.244 3.120,20.541 3.077,20.640 3.069 C 20.739 3.061,20.852 3.051,20.890 3.047 C 20.928 3.043,20.960 3.045,20.960 3.051 M9.090 8.603 C 9.283 8.629,9.440 8.667,9.440 8.686 C 9.440 8.706,9.345 8.897,9.229 9.111 C 9.028 9.481,8.583 10.401,8.406 10.810 L 8.324 11.000 6.822 11.000 C 5.921 11.000,5.320 10.985,5.320 10.963 C 5.320 10.880,5.576 10.238,5.744 9.900 C 6.194 8.994,6.551 8.708,7.440 8.544 C 7.610 8.513,8.721 8.552,9.090 8.603 M15.406 14.970 C 15.487 15.587,15.478 16.552,15.386 16.911 C 15.247 17.452,14.936 17.804,14.263 18.180 C 14.016 18.318,13.310 18.613,13.110 18.662 L 12.999 18.689 13.010 17.180 L 13.020 15.670 13.440 15.488 C 13.671 15.387,14.184 15.140,14.580 14.937 C 14.976 14.735,15.311 14.567,15.326 14.564 C 15.340 14.562,15.376 14.745,15.406 14.970 M5.289 15.044 C 5.173 15.064,4.937 15.134,4.764 15.201 C 3.659 15.627,2.838 16.674,2.220 18.444 C 1.807 19.629,1.438 21.336,1.518 21.693 C 1.605 22.075,1.923 22.392,2.305 22.473 C 2.698 22.557,4.320 22.211,5.556 21.780 C 7.897 20.963,9.003 19.777,9.004 18.080 C 9.004 17.518,8.914 17.127,8.672 16.640 C 8.536 16.367,8.432 16.229,8.141 15.940 C 7.646 15.447,7.186 15.189,6.567 15.058 C 6.275 14.996,5.622 14.989,5.289 15.044 M6.380 17.095 C 6.601 17.198,6.754 17.337,6.890 17.556 C 6.967 17.679,6.980 17.756,6.980 18.080 C 6.980 18.421,6.969 18.479,6.872 18.644 C 6.694 18.946,6.333 19.246,5.848 19.494 C 5.437 19.704,4.290 20.119,3.945 20.182 L 3.789 20.211 3.818 20.055 C 3.883 19.703,4.256 18.668,4.479 18.218 C 4.802 17.566,5.179 17.152,5.551 17.040 C 5.781 16.970,6.170 16.996,6.380 17.095 " stroke="none" fill-rule="evenodd" fill="black"></path></svg>