<svg width="24" height="24" viewBox="0 0 24 24" fill="none" xmlns="http://www.w3.org/2000/svg"><path d="M4.580 1.042 C 3.934 1.128,3.389 1.398,2.905 1.870 C 2.508 2.259,2.269 2.664,2.097 3.240 C 2.030 3.467,2.020 3.628,2.020 4.500 C 2.020 5.372,2.030 5.533,2.097 5.760 C 2.425 6.860,3.178 7.606,4.260 7.903 C 4.531 7.977,4.751 7.980,11.000 7.980 C 17.249 7.980,17.469 7.977,17.740 7.903 C 18.827 7.605,19.596 6.838,19.902 5.747 L 19.968 5.514 20.174 5.541 C 20.514 5.586,20.813 5.827,20.926 6.147 C 21.000 6.356,21.004 9.101,20.931 9.340 C 20.863 9.562,20.675 9.776,20.450 9.886 L 20.260 9.980 16.960 10.005 C 13.776 10.030,13.526 10.040,13.079 10.160 C 12.584 10.293,11.986 10.705,11.650 11.142 C 11.191 11.740,11.047 12.226,11.012 13.289 L 10.989 13.999 10.844 14.020 C 10.244 14.110,9.955 14.245,9.597 14.599 C 9.298 14.896,9.147 15.171,9.061 15.581 C 8.973 15.993,8.973 21.007,9.061 21.419 C 9.147 21.827,9.298 22.104,9.597 22.403 C 10.119 22.925,10.416 22.999,12.000 22.999 C 13.582 22.999,13.876 22.925,14.401 22.401 C 14.699 22.102,14.855 21.818,14.940 21.419 C 15.027 21.007,15.027 15.993,14.940 15.581 C 14.855 15.182,14.699 14.898,14.401 14.599 C 14.044 14.243,13.763 14.113,13.144 14.018 L 12.988 13.994 13.013 13.387 C 13.027 13.053,13.058 12.711,13.082 12.626 C 13.138 12.430,13.424 12.142,13.626 12.076 C 13.741 12.039,14.623 12.020,17.100 12.000 C 20.295 11.974,20.432 11.970,20.740 11.890 C 21.153 11.782,21.384 11.681,21.679 11.481 C 22.139 11.169,22.552 10.671,22.740 10.205 C 22.962 9.656,22.980 9.471,22.980 7.720 C 22.980 5.863,22.966 5.752,22.662 5.136 C 22.363 4.530,21.833 4.035,21.179 3.749 C 20.941 3.645,20.352 3.520,20.101 3.520 C 19.976 3.520,19.970 3.512,19.899 3.250 C 19.749 2.693,19.500 2.267,19.095 1.870 C 18.723 1.507,18.330 1.275,17.804 1.108 C 17.541 1.025,17.509 1.024,11.180 1.017 C 7.682 1.013,4.712 1.024,4.580 1.042 M17.316 3.063 C 17.610 3.150,17.854 3.398,17.941 3.699 C 17.993 3.877,18.004 4.062,17.993 4.593 C 17.981 5.219,17.973 5.276,17.878 5.461 C 17.763 5.684,17.512 5.896,17.289 5.958 C 17.082 6.016,4.918 6.016,4.711 5.958 C 4.488 5.896,4.237 5.684,4.122 5.461 C 4.027 5.276,4.019 5.219,4.007 4.593 C 3.990 3.764,4.036 3.562,4.299 3.299 C 4.614 2.984,4.122 3.006,10.983 3.003 C 16.429 3.000,17.129 3.007,17.316 3.063 M13.000 18.500 L 13.000 21.000 12.000 21.000 L 11.000 21.000 11.000 18.500 L 11.000 16.000 12.000 16.000 L 13.000 16.000 13.000 18.500 " stroke="none" fill-rule="evenodd" fill="black"></path></svg>