<svg width="24" height="24" viewBox="0 0 24 24" fill="none" xmlns="http://www.w3.org/2000/svg"><path d="M4.358 1.061 C 3.230 1.237,2.143 1.974,1.569 2.953 C 0.320 5.083,1.233 7.785,3.512 8.704 C 5.558 9.528,7.877 8.538,8.704 6.488 C 9.090 5.530,9.090 4.469,8.705 3.516 C 8.172 2.197,7.001 1.269,5.605 1.058 C 5.144 0.989,4.816 0.990,4.358 1.061 M5.523 3.073 C 6.262 3.266,6.850 3.924,6.967 4.690 C 7.029 5.098,6.967 5.522,6.793 5.880 C 6.638 6.198,6.227 6.625,5.930 6.775 C 5.492 6.997,4.962 7.059,4.508 6.940 C 3.823 6.762,3.249 6.194,3.073 5.523 C 2.683 4.028,4.028 2.683,5.523 3.073 M11.240 4.037 C 10.794 4.173,10.512 4.546,10.512 5.000 C 10.512 5.405,10.719 5.724,11.100 5.905 C 11.296 5.997,11.322 5.999,12.500 6.001 C 14.969 6.003,16.151 6.097,16.404 6.310 C 16.627 6.497,16.748 6.851,16.684 7.128 C 16.586 7.548,15.978 8.033,12.180 10.720 C 7.056 14.346,6.498 14.756,5.842 15.385 C 5.104 16.092,4.849 16.578,4.810 17.348 C 4.765 18.226,5.058 18.987,5.677 19.601 C 6.136 20.057,6.613 20.255,7.560 20.383 C 8.366 20.492,12.199 20.562,12.661 20.477 C 13.594 20.304,13.797 19.028,12.954 18.629 L 12.740 18.527 10.700 18.502 C 7.959 18.468,7.282 18.406,7.056 18.166 C 6.893 17.995,6.829 17.837,6.810 17.560 C 6.793 17.308,6.797 17.294,6.944 17.106 C 7.308 16.644,7.966 16.151,12.480 12.959 C 16.677 9.991,17.226 9.579,17.863 8.910 C 18.495 8.246,18.698 7.781,18.695 7.000 C 18.692 6.122,18.371 5.384,17.742 4.809 C 17.177 4.292,16.442 4.109,14.660 4.040 C 13.491 3.995,11.385 3.993,11.240 4.037 M18.358 15.061 C 17.230 15.237,16.143 15.974,15.569 16.953 C 14.320 19.083,15.233 21.785,17.512 22.704 C 19.558 23.528,21.877 22.538,22.704 20.488 C 23.090 19.530,23.090 18.469,22.705 17.516 C 22.172 16.197,21.001 15.269,19.605 15.058 C 19.144 14.989,18.816 14.990,18.358 15.061 M19.523 17.073 C 20.262 17.266,20.850 17.924,20.967 18.690 C 21.067 19.343,20.873 19.933,20.403 20.404 C 20.002 20.807,19.547 21.000,19.000 21.000 C 18.485 21.000,18.038 20.822,17.653 20.465 C 16.323 19.229,17.189 17.005,19.000 17.005 C 19.143 17.005,19.378 17.036,19.523 17.073 " stroke="none" fill-rule="evenodd" fill="black"></path></svg>