<svg width="24" height="24" viewBox="0 0 24 24" fill="none" xmlns="http://www.w3.org/2000/svg"><path d="M4.749 2.045 C 3.967 2.120,3.402 2.371,2.890 2.870 C 2.491 3.260,2.236 3.731,2.094 4.340 C 2.028 4.628,2.020 4.848,2.020 6.520 C 2.020 8.321,2.023 8.391,2.111 8.735 C 2.225 9.184,2.379 9.505,2.650 9.858 C 3.038 10.363,3.594 10.719,4.265 10.889 L 4.620 10.980 11.980 10.980 C 19.013 10.980,19.354 10.977,19.660 10.906 C 20.269 10.764,20.711 10.526,21.118 10.118 C 21.526 9.711,21.764 9.269,21.906 8.660 C 21.972 8.373,21.980 8.152,21.980 6.500 C 21.980 4.848,21.972 4.627,21.906 4.340 C 21.688 3.404,21.167 2.737,20.329 2.321 C 20.019 2.168,19.706 2.091,19.180 2.042 C 18.644 1.991,5.276 1.994,4.749 2.045 M19.374 4.074 C 19.586 4.145,19.863 4.432,19.928 4.646 C 19.967 4.778,19.980 5.228,19.980 6.500 C 19.980 7.772,19.967 8.222,19.928 8.354 C 19.863 8.567,19.591 8.849,19.376 8.925 C 19.143 9.007,4.857 9.007,4.624 8.925 C 4.420 8.853,4.139 8.569,4.078 8.374 C 4.011 8.163,3.978 5.472,4.035 4.964 C 4.067 4.676,4.101 4.552,4.179 4.434 C 4.333 4.201,4.547 4.080,4.866 4.042 C 5.017 4.024,8.308 4.012,12.180 4.016 C 17.839 4.021,19.250 4.032,19.374 4.074 M4.749 13.045 C 3.967 13.120,3.402 13.371,2.890 13.870 C 2.491 14.260,2.236 14.731,2.094 15.340 C 2.028 15.628,2.020 15.848,2.020 17.520 C 2.020 19.321,2.023 19.391,2.111 19.735 C 2.225 20.184,2.379 20.505,2.650 20.858 C 3.038 21.363,3.594 21.719,4.265 21.889 L 4.620 21.980 11.980 21.980 C 19.013 21.980,19.354 21.977,19.660 21.906 C 20.459 21.720,21.041 21.327,21.486 20.671 C 21.685 20.378,21.807 20.084,21.906 19.660 C 21.972 19.373,21.980 19.152,21.980 17.500 C 21.980 15.848,21.972 15.627,21.906 15.340 C 21.688 14.404,21.167 13.737,20.329 13.321 C 20.019 13.168,19.706 13.091,19.180 13.042 C 18.644 12.991,5.276 12.994,4.749 13.045 M19.374 15.074 C 19.586 15.145,19.863 15.432,19.928 15.646 C 19.967 15.778,19.980 16.228,19.980 17.500 C 19.980 18.772,19.967 19.222,19.928 19.354 C 19.863 19.567,19.591 19.849,19.376 19.925 C 19.143 20.007,4.857 20.007,4.624 19.925 C 4.420 19.853,4.139 19.569,4.078 19.374 C 4.011 19.163,3.978 16.472,4.035 15.964 C 4.067 15.676,4.101 15.552,4.179 15.434 C 4.333 15.201,4.547 15.080,4.866 15.042 C 5.017 15.024,8.308 15.012,12.180 15.016 C 17.839 15.021,19.250 15.032,19.374 15.074 " stroke="none" fill-rule="evenodd" fill="black"></path></svg>