<svg width="24" height="24" viewBox="0 0 24 24" fill="none" xmlns="http://www.w3.org/2000/svg"><path d="M5.920 2.041 C 5.151 2.092,4.672 2.205,4.180 2.451 C 3.089 2.996,2.357 3.961,2.124 5.160 C 2.013 5.729,2.000 6.455,2.000 12.000 C 2.000 18.358,2.006 18.526,2.245 19.320 C 2.577 20.422,3.578 21.423,4.680 21.755 C 5.474 21.994,5.642 22.000,12.000 22.000 C 18.358 22.000,18.526 21.994,19.320 21.755 C 20.422 21.423,21.423 20.422,21.755 19.320 C 21.994 18.526,22.000 18.358,22.000 12.000 C 22.000 5.642,21.994 5.474,21.755 4.680 C 21.424 3.581,20.465 2.622,19.320 2.246 C 18.644 2.024,18.800 2.029,12.340 2.019 C 9.062 2.014,6.173 2.024,5.920 2.041 M18.492 4.091 C 18.642 4.127,18.849 4.198,18.952 4.248 C 19.194 4.366,19.634 4.806,19.752 5.048 C 19.961 5.478,19.969 5.583,19.989 8.390 L 20.008 11.000 12.000 11.000 L 3.992 11.000 4.011 8.390 C 4.031 5.582,4.039 5.472,4.248 5.051 C 4.371 4.805,4.654 4.496,4.903 4.336 C 5.173 4.163,5.494 4.075,5.980 4.039 C 6.200 4.023,9.044 4.013,12.300 4.018 C 17.643 4.024,18.247 4.032,18.492 4.091 M19.989 15.610 C 19.969 18.417,19.961 18.522,19.752 18.952 C 19.626 19.211,19.190 19.638,18.918 19.768 C 18.466 19.985,18.627 19.980,12.000 19.980 C 5.383 19.980,5.538 19.985,5.082 19.771 C 4.812 19.643,4.377 19.217,4.248 18.952 C 4.039 18.522,4.031 18.417,4.011 15.610 L 3.992 13.000 12.000 13.000 L 20.008 13.000 19.989 15.610 " stroke="none" fill-rule="evenodd" fill="black"></path></svg>