<svg width="24" height="24" viewBox="0 0 24 24" fill="none" xmlns="http://www.w3.org/2000/svg"><path d="M3.198 2.038 C 2.658 2.076,2.493 2.142,2.250 2.418 C 1.885 2.832,1.933 3.445,2.358 3.809 C 2.621 4.034,2.723 4.048,3.853 4.018 C 8.490 3.895,12.546 5.427,15.560 8.440 C 17.785 10.665,19.202 13.460,19.760 16.722 C 19.935 17.742,19.973 18.282,19.978 19.820 C 19.982 20.826,19.998 21.334,20.029 21.406 C 20.222 21.853,20.793 22.102,21.267 21.944 C 21.482 21.873,21.744 21.635,21.860 21.404 C 22.015 21.096,22.040 18.823,21.901 17.580 C 21.595 14.840,20.799 12.423,19.464 10.186 C 18.142 7.971,16.075 5.904,13.824 4.549 C 11.576 3.195,9.099 2.382,6.360 2.099 C 5.644 2.025,3.873 1.991,3.198 2.038 M3.580 6.998 C 3.294 7.015,2.965 7.042,2.849 7.058 C 2.572 7.097,2.298 7.283,2.141 7.537 C 2.036 7.707,2.020 7.772,2.020 8.018 C 2.020 8.370,2.143 8.638,2.394 8.829 C 2.666 9.036,2.784 9.051,3.723 8.999 C 6.256 8.857,8.606 9.452,10.507 10.718 C 11.127 11.131,11.538 11.466,12.036 11.964 C 14.145 14.073,15.185 17.010,14.998 20.330 C 14.957 21.044,14.960 21.139,15.022 21.326 C 15.270 22.071,16.300 22.228,16.762 21.591 C 16.916 21.378,16.947 21.248,16.998 20.602 C 17.240 17.511,16.387 14.339,14.679 11.980 C 12.681 9.222,9.598 7.467,6.040 7.064 C 5.362 6.987,4.259 6.957,3.580 6.998 M3.720 11.946 C 2.720 12.044,2.586 12.076,2.354 12.274 C 1.903 12.661,1.888 13.332,2.322 13.738 C 2.617 14.014,2.815 14.056,3.462 13.981 C 5.125 13.786,6.615 14.099,7.800 14.892 C 8.189 15.152,8.851 15.816,9.116 16.211 C 9.526 16.823,9.844 17.637,9.982 18.420 C 10.078 18.969,10.098 19.887,10.027 20.505 C 9.945 21.215,9.994 21.428,10.307 21.726 C 10.709 22.110,11.344 22.075,11.728 21.649 C 11.962 21.388,12.026 21.065,12.064 19.940 C 12.117 18.398,11.835 17.035,11.213 15.830 C 10.074 13.625,7.959 12.247,5.272 11.961 C 4.912 11.923,4.046 11.915,3.720 11.946 M4.499 16.040 C 3.363 16.246,2.460 17.049,2.114 18.160 C 1.979 18.594,1.979 19.406,2.114 19.840 C 2.421 20.826,3.173 21.578,4.160 21.886 C 4.418 21.967,4.539 21.980,5.020 21.977 C 5.508 21.974,5.620 21.961,5.887 21.872 C 6.833 21.559,7.558 20.834,7.873 19.887 C 7.963 19.614,7.975 19.515,7.975 19.000 C 7.975 18.485,7.963 18.386,7.873 18.113 C 7.553 17.152,6.792 16.401,5.861 16.129 C 5.500 16.023,4.832 15.980,4.499 16.040 M5.310 18.061 C 5.688 18.173,6.000 18.598,6.000 19.000 C 6.000 19.220,5.880 19.510,5.722 19.673 C 5.481 19.921,5.347 19.978,5.000 19.979 C 4.745 19.980,4.672 19.964,4.516 19.872 C 3.935 19.530,3.833 18.774,4.304 18.303 C 4.583 18.024,4.916 17.944,5.310 18.061 " stroke="none" fill-rule="evenodd" fill="black"></path></svg>