<svg width="24" height="24" viewBox="0 0 24 24" fill="none" xmlns="http://www.w3.org/2000/svg"><path d="M3.695 3.057 C 3.051 3.258,2.799 4.040,3.198 4.591 C 3.263 4.681,3.401 4.804,3.504 4.864 C 3.680 4.968,3.730 4.976,4.395 5.007 C 6.919 5.128,8.853 5.633,10.953 6.722 C 15.353 9.003,18.354 13.391,18.897 18.340 C 18.931 18.648,18.974 19.219,18.993 19.608 C 19.025 20.295,19.030 20.323,19.144 20.508 C 19.543 21.156,20.459 21.153,20.859 20.503 L 20.980 20.305 20.976 19.543 C 20.956 16.196,19.713 12.622,17.579 9.780 C 16.436 8.257,14.972 6.883,13.360 5.821 C 10.844 4.162,8.074 3.238,5.021 3.041 C 4.208 2.989,3.901 2.992,3.695 3.057 M3.695 10.057 C 3.051 10.258,2.799 11.040,3.198 11.591 C 3.263 11.681,3.400 11.803,3.501 11.863 C 3.667 11.960,3.743 11.975,4.253 12.006 C 4.961 12.049,5.502 12.130,6.064 12.277 C 8.799 12.995,11.005 15.201,11.723 17.936 C 11.870 18.499,11.951 19.039,11.994 19.751 C 12.027 20.280,12.038 20.335,12.146 20.511 C 12.543 21.156,13.460 21.152,13.859 20.503 L 13.980 20.305 13.976 19.683 C 13.963 17.659,13.197 15.535,11.860 13.820 C 10.554 12.144,8.554 10.841,6.491 10.322 C 5.400 10.048,4.114 9.926,3.695 10.057 M4.477 17.073 C 3.806 17.249,3.238 17.823,3.060 18.508 C 2.941 18.962,3.003 19.492,3.225 19.930 C 3.361 20.199,3.801 20.639,4.070 20.775 C 4.659 21.073,5.341 21.073,5.930 20.775 C 6.196 20.640,6.638 20.200,6.771 19.937 C 6.994 19.498,7.052 19.007,6.940 18.529 C 6.858 18.182,6.720 17.927,6.465 17.653 C 6.074 17.232,5.560 17.005,5.000 17.005 C 4.857 17.005,4.622 17.036,4.477 17.073 " stroke="none" fill-rule="evenodd" fill="black"></path></svg>