<svg width="24" height="24" viewBox="0 0 24 24" fill="none" xmlns="http://www.w3.org/2000/svg"><path d="M16.679 1.252 C 16.557 1.280,16.368 1.353,16.259 1.416 C 16.121 1.495,13.834 3.755,8.775 8.815 C 1.826 15.763,1.483 16.113,1.355 16.379 C 1.234 16.629,1.220 16.694,1.220 17.000 C 1.220 17.306,1.234 17.371,1.355 17.621 C 1.480 17.881,1.650 18.060,3.795 20.205 C 5.941 22.351,6.119 22.520,6.379 22.645 C 6.630 22.766,6.694 22.780,7.000 22.780 C 7.306 22.780,7.371 22.766,7.621 22.645 C 7.887 22.517,8.239 22.172,15.205 15.205 C 22.173 8.238,22.517 7.887,22.645 7.621 C 22.766 7.371,22.780 7.306,22.780 7.000 C 22.780 6.694,22.766 6.630,22.645 6.379 C 22.520 6.121,22.346 5.936,20.285 3.868 C 18.989 2.568,17.962 1.570,17.826 1.478 C 17.475 1.242,17.076 1.163,16.679 1.252 M18.800 5.220 L 20.580 7.000 13.790 13.790 L 7.000 20.580 5.210 18.790 L 3.420 17.000 4.209 16.211 L 4.999 15.422 5.709 16.126 C 6.100 16.513,6.483 16.864,6.560 16.904 C 6.660 16.957,6.787 16.979,7.000 16.979 C 7.255 16.980,7.328 16.964,7.484 16.872 C 7.939 16.604,8.127 16.006,7.899 15.555 C 7.861 15.481,7.513 15.100,7.126 14.709 L 6.422 13.999 7.210 13.210 L 7.999 12.422 8.709 13.126 C 9.100 13.513,9.483 13.864,9.560 13.904 C 9.660 13.957,9.787 13.979,10.000 13.979 C 10.255 13.980,10.328 13.964,10.484 13.872 C 10.939 13.604,11.127 13.006,10.899 12.555 C 10.861 12.481,10.513 12.100,10.126 11.709 L 9.422 10.999 10.210 10.210 L 10.999 9.422 11.709 10.126 C 12.100 10.513,12.483 10.864,12.560 10.904 C 12.660 10.957,12.787 10.979,13.000 10.979 C 13.255 10.980,13.328 10.964,13.484 10.872 C 13.939 10.604,14.127 10.006,13.899 9.555 C 13.861 9.481,13.513 9.100,13.126 8.709 L 12.422 7.999 13.210 7.210 L 13.999 6.422 14.709 7.126 C 15.100 7.513,15.481 7.861,15.555 7.899 C 16.008 8.128,16.601 7.944,16.867 7.492 C 16.964 7.327,16.980 7.258,16.979 7.000 C 16.979 6.787,16.957 6.660,16.904 6.560 C 16.864 6.483,16.514 6.100,16.126 5.709 L 15.422 4.999 16.201 4.219 C 16.629 3.791,16.988 3.440,17.000 3.440 C 17.011 3.440,17.821 4.241,18.800 5.220 " stroke="none" fill-rule="evenodd" fill="black"></path></svg>