<svg width="24" height="24" viewBox="0 0 24 24" fill="none" xmlns="http://www.w3.org/2000/svg"><path d="M4.749 2.045 C 3.967 2.120,3.402 2.371,2.890 2.870 C 2.491 3.260,2.236 3.731,2.094 4.340 C 2.024 4.644,2.020 4.949,2.020 10.520 L 2.020 16.380 2.111 16.735 C 2.281 17.406,2.637 17.962,3.142 18.350 C 3.495 18.621,3.816 18.775,4.265 18.889 L 4.620 18.980 11.980 18.980 C 19.013 18.980,19.354 18.977,19.660 18.906 C 20.459 18.720,21.041 18.327,21.486 17.671 C 21.685 17.378,21.807 17.084,21.906 16.660 C 21.976 16.356,21.980 16.051,21.980 10.500 C 21.980 4.949,21.976 4.644,21.906 4.340 C 21.688 3.404,21.167 2.737,20.329 2.321 C 20.019 2.168,19.706 2.091,19.180 2.042 C 18.644 1.991,5.276 1.994,4.749 2.045 M19.374 4.074 C 19.586 4.145,19.863 4.432,19.928 4.646 C 20.005 4.902,20.005 16.098,19.928 16.354 C 19.863 16.567,19.591 16.849,19.376 16.925 C 19.143 17.007,4.857 17.007,4.624 16.925 C 4.422 16.854,4.140 16.571,4.074 16.374 C 4.008 16.177,3.974 5.517,4.037 4.946 C 4.102 4.365,4.342 4.104,4.866 4.042 C 5.017 4.024,8.308 4.012,12.180 4.016 C 17.839 4.021,19.250 4.032,19.374 4.074 M17.044 5.625 C 16.777 5.758,16.584 6.014,16.524 6.315 C 16.461 6.626,16.463 14.395,16.525 14.687 C 16.725 15.619,17.968 15.784,18.385 14.934 L 18.500 14.700 18.512 10.660 C 18.519 7.874,18.509 6.539,18.479 6.360 C 18.394 5.849,18.010 5.520,17.500 5.520 C 17.316 5.520,17.203 5.546,17.044 5.625 M8.405 7.058 C 7.996 7.136,7.752 7.220,7.381 7.413 C 6.216 8.017,5.512 9.181,5.512 10.500 C 5.513 11.363,5.795 12.131,6.347 12.770 C 7.760 14.406,10.240 14.406,11.653 12.770 C 12.205 12.131,12.487 11.362,12.487 10.500 C 12.487 9.414,12.014 8.433,11.165 7.759 C 10.842 7.502,10.187 7.186,9.800 7.099 C 9.388 7.007,8.768 6.989,8.405 7.058 M9.344 9.053 C 10.388 9.272,10.837 10.579,10.161 11.433 C 9.987 11.655,9.699 11.859,9.462 11.930 C 9.253 11.992,8.747 11.992,8.538 11.930 C 8.147 11.813,7.758 11.434,7.603 11.019 C 7.491 10.719,7.491 10.281,7.603 9.981 C 7.773 9.527,8.193 9.150,8.637 9.055 C 8.930 8.992,9.051 8.991,9.344 9.053 M5.695 20.057 C 5.466 20.129,5.256 20.299,5.128 20.516 C 5.037 20.672,5.020 20.746,5.020 21.000 C 5.020 21.256,5.036 21.328,5.131 21.489 C 5.192 21.592,5.304 21.725,5.381 21.783 C 5.656 21.993,5.692 21.996,7.500 21.996 C 9.308 21.996,9.344 21.993,9.619 21.783 C 9.696 21.725,9.808 21.592,9.869 21.489 C 9.964 21.328,9.980 21.256,9.980 21.000 C 9.980 20.746,9.963 20.672,9.872 20.516 C 9.740 20.293,9.533 20.128,9.290 20.055 C 9.035 19.978,5.941 19.980,5.695 20.057 M14.695 20.057 C 14.466 20.129,14.256 20.299,14.128 20.516 C 14.037 20.672,14.020 20.746,14.020 21.000 C 14.020 21.256,14.036 21.328,14.131 21.489 C 14.192 21.592,14.304 21.725,14.381 21.783 C 14.656 21.993,14.692 21.996,16.500 21.996 C 18.308 21.996,18.344 21.993,18.619 21.783 C 18.696 21.725,18.808 21.592,18.869 21.489 C 18.964 21.328,18.980 21.256,18.980 21.000 C 18.980 20.746,18.963 20.672,18.872 20.516 C 18.740 20.293,18.533 20.128,18.290 20.055 C 18.035 19.978,14.941 19.980,14.695 20.057 " stroke="none" fill-rule="evenodd" fill="black"></path></svg>