<svg width="24" height="24" viewBox="0 0 24 24" fill="none" xmlns="http://www.w3.org/2000/svg"><path d="M11.600 1.045 C 11.251 1.101,10.870 1.319,10.141 1.879 C 9.625 2.275,9.434 2.400,9.345 2.400 C 9.280 2.400,8.884 2.353,8.464 2.296 C 7.275 2.134,6.906 2.188,6.311 2.613 C 5.908 2.900,5.728 3.185,5.320 4.180 L 4.988 4.990 4.324 5.262 C 3.198 5.722,2.930 5.881,2.650 6.251 C 2.441 6.528,2.340 6.731,2.263 7.028 C 2.176 7.363,2.184 7.656,2.300 8.536 C 2.355 8.952,2.400 9.330,2.400 9.376 C 2.400 9.422,2.169 9.760,1.887 10.126 C 1.606 10.493,1.319 10.898,1.251 11.026 C 0.905 11.678,0.920 12.400,1.294 13.039 C 1.385 13.195,1.675 13.602,1.937 13.944 L 2.415 14.566 2.307 15.413 C 2.182 16.387,2.176 16.634,2.263 16.972 C 2.340 17.269,2.441 17.472,2.650 17.749 C 2.930 18.119,3.215 18.289,4.280 18.721 C 4.621 18.859,4.929 19.001,4.964 19.036 C 4.999 19.071,5.160 19.424,5.321 19.820 C 5.483 20.216,5.690 20.666,5.782 20.820 C 6.044 21.259,6.515 21.607,7.028 21.740 C 7.348 21.824,7.673 21.815,8.544 21.700 C 8.960 21.645,9.336 21.600,9.380 21.600 C 9.424 21.600,9.760 21.831,10.126 22.113 C 10.493 22.394,10.898 22.681,11.026 22.749 C 11.628 23.069,12.330 23.079,12.928 22.776 C 13.035 22.722,13.447 22.432,13.844 22.132 L 14.566 21.586 15.447 21.698 C 16.681 21.856,17.061 21.815,17.580 21.472 C 18.064 21.151,18.245 20.876,18.702 19.760 C 18.851 19.397,19.001 19.071,19.036 19.036 C 19.071 19.001,19.397 18.850,19.760 18.701 C 20.832 18.261,21.042 18.136,21.333 17.764 C 21.554 17.482,21.657 17.280,21.737 16.972 C 21.824 16.634,21.818 16.387,21.693 15.413 L 21.585 14.566 22.063 13.944 C 22.325 13.602,22.615 13.195,22.706 13.039 C 23.080 12.400,23.095 11.678,22.749 11.026 C 22.681 10.898,22.394 10.493,22.113 10.126 C 21.831 9.760,21.600 9.422,21.600 9.376 C 21.600 9.330,21.645 8.952,21.700 8.536 C 21.755 8.120,21.800 7.666,21.800 7.526 C 21.800 6.737,21.355 6.037,20.620 5.670 C 20.510 5.615,20.123 5.448,19.760 5.299 C 19.397 5.150,19.071 4.999,19.036 4.964 C 19.001 4.929,18.840 4.576,18.678 4.180 C 18.238 3.103,18.079 2.859,17.623 2.562 C 17.042 2.183,16.695 2.139,15.519 2.296 C 15.089 2.353,14.692 2.400,14.637 2.400 C 14.571 2.400,14.311 2.226,13.859 1.879 C 13.486 1.592,13.054 1.295,12.900 1.219 C 12.496 1.021,12.089 0.966,11.600 1.045 M12.652 3.475 C 13.382 4.035,13.565 4.161,13.780 4.250 C 14.231 4.438,14.506 4.445,15.643 4.298 C 16.132 4.234,16.498 4.204,16.517 4.224 C 16.535 4.244,16.697 4.620,16.878 5.060 C 17.251 5.967,17.301 6.059,17.573 6.349 C 17.853 6.646,18.038 6.751,18.940 7.121 C 19.380 7.301,19.756 7.464,19.776 7.482 C 19.796 7.501,19.764 7.865,19.698 8.348 C 19.564 9.337,19.560 9.685,19.679 10.037 C 19.787 10.356,19.908 10.545,20.513 11.334 C 20.781 11.682,21.000 11.982,21.000 12.000 C 21.000 12.018,20.767 12.336,20.482 12.706 C 19.540 13.930,19.498 14.091,19.705 15.672 C 19.766 16.142,19.796 16.499,19.776 16.518 C 19.756 16.535,19.365 16.706,18.906 16.896 C 17.544 17.460,17.452 17.553,16.879 18.935 C 16.609 19.584,16.510 19.783,16.452 19.792 C 16.409 19.798,16.032 19.758,15.613 19.702 C 14.477 19.550,14.133 19.569,13.658 19.811 C 13.546 19.867,13.136 20.158,12.745 20.457 C 12.354 20.756,12.017 21.000,11.996 21.000 C 11.974 21.000,11.692 20.796,11.368 20.547 C 10.472 19.857,10.343 19.778,9.900 19.656 C 9.609 19.576,9.243 19.587,8.390 19.702 C 7.974 19.759,7.597 19.799,7.552 19.792 C 7.487 19.782,7.400 19.610,7.120 18.934 C 6.752 18.047,6.639 17.847,6.354 17.575 C 6.096 17.329,5.939 17.245,5.060 16.882 C 4.620 16.700,4.244 16.536,4.224 16.518 C 4.204 16.499,4.236 16.134,4.301 15.652 C 4.435 14.659,4.439 14.315,4.321 13.959 C 4.216 13.644,4.110 13.479,3.486 12.666 C 3.219 12.318,3.000 12.018,3.000 12.000 C 3.000 11.982,3.219 11.682,3.487 11.334 C 4.492 10.025,4.510 9.956,4.298 8.347 C 4.235 7.867,4.204 7.501,4.224 7.483 C 4.244 7.465,4.620 7.303,5.060 7.122 C 5.961 6.752,6.147 6.646,6.427 6.349 C 6.701 6.057,6.751 5.964,7.121 5.060 C 7.301 4.620,7.463 4.244,7.482 4.224 C 7.501 4.204,7.865 4.235,8.348 4.299 C 9.912 4.505,10.064 4.465,11.294 3.519 C 11.664 3.233,11.982 3.000,12.000 3.000 C 12.018 3.000,12.311 3.214,12.652 3.475 M15.640 7.068 C 15.484 7.121,14.921 7.668,11.347 11.235 C 8.973 13.605,7.189 15.416,7.127 15.520 C 7.036 15.672,7.020 15.746,7.020 16.000 C 7.020 16.257,7.036 16.327,7.133 16.492 C 7.263 16.714,7.502 16.901,7.736 16.965 C 7.938 17.019,8.266 16.989,8.445 16.899 C 8.630 16.807,16.737 8.708,16.873 8.480 C 16.964 8.328,16.980 8.254,16.980 8.000 C 16.980 7.746,16.963 7.672,16.872 7.516 C 16.617 7.083,16.122 6.903,15.640 7.068 M8.516 7.577 C 7.466 7.979,7.167 9.277,7.945 10.055 C 8.528 10.638,9.472 10.638,10.055 10.055 C 10.781 9.330,10.577 8.126,9.650 7.657 C 9.455 7.558,9.370 7.541,9.042 7.532 C 8.789 7.525,8.611 7.540,8.516 7.577 M14.516 13.577 C 13.466 13.979,13.167 15.277,13.945 16.055 C 14.807 16.918,16.314 16.420,16.477 15.218 C 16.566 14.564,16.245 13.958,15.650 13.657 C 15.455 13.558,15.370 13.541,15.042 13.532 C 14.789 13.525,14.611 13.540,14.516 13.577 " stroke="none" fill-rule="evenodd" fill="black"></path></svg>