<svg width="24" height="24" viewBox="0 0 24 24" fill="none" xmlns="http://www.w3.org/2000/svg"><path d="M5.920 2.041 C 5.152 2.092,4.673 2.205,4.180 2.451 C 3.089 2.996,2.357 3.961,2.124 5.160 C 2.013 5.729,2.000 6.455,2.000 12.000 C 2.000 18.358,2.006 18.526,2.245 19.320 C 2.577 20.422,3.578 21.423,4.680 21.755 C 5.474 21.994,5.642 22.000,12.000 22.000 C 18.358 22.000,18.526 21.994,19.320 21.755 C 20.422 21.423,21.425 20.421,21.755 19.320 C 21.997 18.514,22.007 18.245,21.991 12.960 C 21.975 7.745,21.999 8.161,21.680 7.500 C 21.570 7.272,21.424 7.066,21.168 6.780 C 20.559 6.100,17.156 2.745,16.875 2.547 C 16.572 2.333,16.259 2.186,15.905 2.091 C 15.684 2.031,15.201 2.024,11.020 2.017 C 8.468 2.013,6.173 2.024,5.920 2.041 M15.600 4.094 C 15.793 4.196,19.740 8.137,19.873 8.360 L 19.980 8.540 19.980 13.360 C 19.979 17.750,19.973 18.206,19.911 18.472 C 19.825 18.845,19.706 19.082,19.480 19.333 C 19.155 19.696,18.761 19.893,18.263 19.944 L 18.000 19.971 17.999 16.916 C 17.999 14.375,17.989 13.813,17.940 13.581 C 17.792 12.885,17.328 12.363,16.635 12.112 L 16.380 12.020 12.000 12.020 L 7.620 12.020 7.365 12.112 C 6.859 12.295,6.433 12.660,6.222 13.093 C 6.005 13.535,6.001 13.603,6.001 16.910 L 6.000 19.960 5.887 19.960 C 5.413 19.960,4.955 19.762,4.600 19.403 C 4.303 19.104,4.186 18.890,4.088 18.472 C 4.025 18.203,4.020 17.687,4.020 12.000 C 4.020 6.313,4.025 5.797,4.088 5.528 C 4.287 4.676,4.878 4.157,5.761 4.057 L 6.000 4.030 6.001 5.585 C 6.001 7.280,6.023 7.499,6.227 7.919 C 6.366 8.205,6.795 8.634,7.081 8.773 C 7.546 8.999,7.536 8.999,11.520 8.998 C 14.474 8.997,15.209 8.986,15.330 8.943 C 15.551 8.864,15.744 8.702,15.869 8.489 C 15.964 8.328,15.980 8.256,15.980 8.000 C 15.980 7.746,15.963 7.672,15.872 7.516 C 15.813 7.415,15.698 7.282,15.618 7.221 C 15.322 6.995,15.410 7.000,11.554 7.000 L 8.000 7.000 8.000 5.499 L 8.000 3.998 11.730 4.009 C 15.273 4.019,15.467 4.024,15.600 4.094 M16.000 17.000 L 16.000 20.000 12.000 20.000 L 8.000 20.000 8.000 17.000 L 8.000 14.000 12.000 14.000 L 16.000 14.000 16.000 17.000 " stroke="none" fill-rule="evenodd" fill="black"></path></svg>