<svg width="24" height="24" viewBox="0 0 24 24" fill="none" xmlns="http://www.w3.org/2000/svg"><path d="M4.516 1.044 C 3.239 1.168,2.035 2.016,1.430 3.220 C 1.094 3.889,0.984 4.514,1.007 5.631 C 1.020 6.303,1.021 6.308,1.141 6.503 C 1.542 7.155,2.457 7.156,2.857 6.506 L 2.976 6.312 3.008 5.437 C 3.037 4.648,3.049 4.537,3.139 4.298 C 3.350 3.739,3.740 3.349,4.301 3.138 C 4.536 3.050,4.650 3.037,5.434 3.008 C 6.287 2.977,6.309 2.974,6.494 2.866 C 7.248 2.424,7.121 1.305,6.290 1.055 C 6.086 0.993,5.101 0.987,4.516 1.044 M9.695 1.057 C 9.466 1.129,9.256 1.299,9.128 1.516 C 9.037 1.672,9.020 1.746,9.020 2.000 C 9.020 2.256,9.036 2.328,9.131 2.489 C 9.256 2.702,9.449 2.864,9.670 2.943 C 9.889 3.021,14.111 3.021,14.330 2.943 C 14.551 2.864,14.744 2.702,14.869 2.489 C 14.964 2.328,14.980 2.256,14.980 2.000 C 14.980 1.746,14.963 1.672,14.872 1.516 C 14.740 1.293,14.533 1.128,14.290 1.055 C 14.033 0.978,9.943 0.979,9.695 1.057 M17.695 1.057 C 17.051 1.258,16.799 2.040,17.198 2.591 C 17.263 2.681,17.402 2.805,17.506 2.866 C 17.691 2.974,17.713 2.977,18.566 3.008 C 19.352 3.037,19.463 3.050,19.702 3.139 C 20.261 3.350,20.651 3.740,20.862 4.301 C 20.950 4.536,20.963 4.650,20.992 5.437 L 21.024 6.312 21.143 6.506 C 21.543 7.156,22.458 7.155,22.859 6.503 C 22.979 6.308,22.980 6.303,22.993 5.631 C 23.010 4.816,22.957 4.281,22.816 3.834 C 22.610 3.182,22.291 2.652,21.819 2.181 C 21.157 1.519,20.332 1.128,19.411 1.041 C 18.816 0.985,17.899 0.993,17.695 1.057 M1.695 9.057 C 1.466 9.129,1.256 9.299,1.128 9.516 L 1.020 9.700 1.008 14.160 C 0.994 19.228,1.005 19.521,1.245 20.320 C 1.575 21.421,2.578 22.423,3.680 22.755 C 4.456 22.989,4.735 23.000,9.720 22.998 C 13.341 22.997,14.208 22.986,14.330 22.943 C 14.551 22.864,14.744 22.702,14.869 22.489 C 14.964 22.328,14.980 22.256,14.980 22.000 C 14.980 21.746,14.963 21.672,14.872 21.516 C 14.813 21.415,14.698 21.282,14.618 21.221 C 14.368 21.030,14.186 21.000,13.290 21.000 C 12.841 21.000,12.480 20.987,12.488 20.970 C 12.930 20.091,13.000 19.548,13.000 17.000 C 13.000 14.896,12.961 14.362,12.755 13.680 C 12.426 12.587,11.489 11.644,10.345 11.255 C 9.731 11.046,9.366 11.021,7.000 11.021 C 5.115 11.021,4.760 11.030,4.375 11.091 C 3.916 11.163,3.503 11.285,3.211 11.434 C 3.119 11.482,3.035 11.520,3.024 11.520 C 3.014 11.520,3.000 11.111,2.993 10.610 C 2.980 9.704,2.980 9.699,2.872 9.516 C 2.628 9.101,2.150 8.915,1.695 9.057 M21.695 9.057 C 21.466 9.129,21.256 9.299,21.128 9.516 L 21.020 9.700 21.020 12.003 L 21.020 14.306 21.141 14.503 C 21.543 15.156,22.457 15.156,22.859 14.503 L 22.980 14.306 22.980 12.003 L 22.980 9.700 22.872 9.516 C 22.628 9.101,22.150 8.915,21.695 9.057 M9.492 13.095 C 9.889 13.185,10.107 13.307,10.400 13.600 C 10.697 13.896,10.815 14.111,10.910 14.528 C 10.969 14.782,10.978 15.103,10.978 17.000 C 10.978 19.358,10.966 19.513,10.752 19.952 C 10.626 20.211,10.190 20.638,9.918 20.768 C 9.505 20.966,9.316 20.980,7.000 20.980 C 4.690 20.980,4.499 20.966,4.082 20.771 C 3.812 20.643,3.377 20.217,3.248 19.952 C 3.034 19.513,3.022 19.358,3.022 17.000 C 3.022 14.641,3.035 14.481,3.248 14.051 C 3.454 13.639,3.900 13.266,4.343 13.137 C 4.720 13.028,5.257 13.006,7.300 13.020 C 8.861 13.030,9.271 13.044,9.492 13.095 M21.695 17.057 C 21.466 17.128,21.256 17.299,21.130 17.514 C 21.027 17.690,21.022 17.723,20.992 18.571 C 20.962 19.384,20.952 19.466,20.854 19.713 C 20.623 20.296,20.226 20.683,19.654 20.884 C 19.462 20.951,19.271 20.972,18.580 20.997 C 18.112 21.014,17.690 21.048,17.627 21.074 C 17.435 21.153,17.241 21.325,17.128 21.516 C 17.037 21.672,17.020 21.746,17.020 22.000 C 17.020 22.256,17.036 22.328,17.131 22.489 C 17.256 22.702,17.449 22.864,17.670 22.943 C 17.853 23.008,18.974 23.018,19.489 22.959 C 20.795 22.810,21.966 21.981,22.570 20.780 C 22.906 20.112,23.016 19.486,22.993 18.373 C 22.981 17.726,22.976 17.693,22.872 17.516 C 22.628 17.101,22.150 16.915,21.695 17.057 " stroke="none" fill-rule="evenodd" fill="black"></path></svg>