<svg width="24" height="24" viewBox="0 0 24 24" fill="none" xmlns="http://www.w3.org/2000/svg"><path d="M11.695 2.057 C 11.466 2.129,11.256 2.299,11.128 2.516 L 11.020 2.700 11.009 4.930 C 11.003 6.157,10.988 7.160,10.978 7.160 C 10.859 7.160,5.845 8.014,5.689 8.061 C 5.559 8.100,5.421 8.181,5.326 8.272 C 5.222 8.373,4.576 9.467,3.288 11.722 C 2.251 13.539,1.349 15.141,1.283 15.282 C 1.056 15.769,1.020 15.982,1.020 16.840 C 1.020 17.682,1.066 18.009,1.268 18.600 C 1.846 20.291,3.253 21.525,5.040 21.907 C 5.286 21.960,5.552 21.980,6.000 21.980 C 6.898 21.980,7.494 21.838,8.286 21.433 C 9.630 20.748,10.580 19.489,10.907 17.960 C 11.010 17.478,11.012 16.176,10.909 15.800 C 10.798 15.391,10.623 15.063,9.066 12.341 C 8.260 10.934,7.615 9.771,7.631 9.757 C 7.676 9.718,15.997 8.344,16.024 8.371 C 16.038 8.384,15.453 9.437,14.726 10.710 C 13.323 13.164,13.204 13.390,13.091 13.800 C 12.988 14.175,12.989 15.477,13.093 15.960 C 13.526 17.984,15.016 19.474,17.040 19.907 C 17.511 20.008,18.489 20.008,18.960 19.907 C 20.488 19.580,21.748 18.630,22.433 17.288 C 22.860 16.450,22.980 15.914,22.980 14.840 C 22.980 13.982,22.944 13.769,22.717 13.282 C 22.651 13.141,21.749 11.539,20.712 9.722 C 19.447 7.507,18.777 6.372,18.677 6.275 C 18.521 6.125,18.229 6.000,18.032 6.000 C 17.969 6.000,16.839 6.180,15.520 6.400 C 14.201 6.620,13.096 6.800,13.063 6.800 C 13.010 6.800,13.001 6.538,12.991 4.750 L 12.980 2.700 12.872 2.516 C 12.628 2.101,12.150 1.915,11.695 2.057 M19.147 11.021 L 20.274 13.000 18.000 13.000 L 15.726 13.000 16.853 11.021 C 17.473 9.933,17.989 9.043,18.000 9.043 C 18.011 9.043,18.527 9.933,19.147 11.021 M7.147 13.021 L 8.274 15.000 6.000 15.000 L 3.726 15.000 4.853 13.021 C 5.473 11.933,5.989 11.043,6.000 11.043 C 6.011 11.043,6.527 11.933,7.147 13.021 M20.982 15.286 C 20.862 16.505,20.029 17.516,18.840 17.886 C 18.406 18.021,17.594 18.021,17.160 17.886 C 16.579 17.705,16.107 17.391,15.695 16.911 C 15.320 16.473,15.078 15.893,15.018 15.286 L 14.990 15.000 18.000 15.000 L 21.010 15.000 20.982 15.286 M8.982 17.286 C 8.862 18.505,8.029 19.516,6.840 19.886 C 6.406 20.021,5.594 20.021,5.160 19.886 C 4.579 19.705,4.107 19.391,3.695 18.911 C 3.320 18.473,3.078 17.893,3.018 17.286 L 2.990 17.000 6.000 17.000 L 9.010 17.000 8.982 17.286 " stroke="none" fill-rule="evenodd" fill="black"></path></svg>