<svg width="24" height="24" viewBox="0 0 24 24" fill="none" xmlns="http://www.w3.org/2000/svg"><path d="M5.920 2.041 C 5.151 2.092,4.672 2.205,4.180 2.451 C 3.089 2.996,2.357 3.961,2.124 5.160 C 2.013 5.729,2.000 6.455,2.000 12.000 C 2.000 18.358,2.006 18.526,2.245 19.320 C 2.577 20.422,3.578 21.423,4.680 21.755 C 5.474 21.994,5.642 22.000,12.000 22.000 C 18.358 22.000,18.526 21.994,19.320 21.755 C 20.422 21.423,21.423 20.422,21.755 19.320 C 21.994 18.526,22.000 18.358,22.000 12.000 C 22.000 5.642,21.994 5.474,21.755 4.680 C 21.424 3.581,20.465 2.622,19.320 2.246 C 18.644 2.024,18.800 2.029,12.340 2.019 C 9.062 2.014,6.173 2.024,5.920 2.041 M11.160 4.038 C 11.160 4.058,11.128 4.198,11.090 4.348 C 11.027 4.595,11.020 4.887,11.020 7.480 C 11.020 10.494,11.020 10.496,11.207 11.057 L 11.286 11.294 9.653 12.927 L 8.020 14.561 8.000 13.130 L 7.980 11.700 7.871 11.514 C 7.479 10.848,6.521 10.848,6.129 11.514 L 6.020 11.700 6.020 14.500 L 6.020 17.300 6.131 17.489 C 6.256 17.702,6.449 17.864,6.670 17.943 C 6.890 18.021,12.110 18.021,12.330 17.943 C 12.551 17.864,12.744 17.702,12.869 17.489 C 12.964 17.328,12.980 17.256,12.980 17.000 C 12.980 16.746,12.963 16.672,12.872 16.516 C 12.813 16.415,12.698 16.282,12.618 16.221 C 12.347 16.015,12.225 16.000,10.764 16.000 L 9.420 16.000 11.060 14.359 C 12.408 13.009,12.714 12.722,12.780 12.743 C 12.824 12.757,13.022 12.816,13.220 12.874 L 13.580 12.979 16.480 12.979 C 19.113 12.980,19.405 12.974,19.652 12.910 C 19.802 12.872,19.944 12.840,19.966 12.840 C 19.994 12.840,20.002 13.696,19.989 15.530 C 19.969 18.424,19.963 18.520,19.752 18.952 C 19.626 19.211,19.190 19.638,18.918 19.768 C 18.466 19.985,18.627 19.980,12.000 19.980 C 5.383 19.980,5.538 19.985,5.082 19.771 C 4.812 19.643,4.377 19.217,4.248 18.952 C 4.198 18.849,4.126 18.633,4.088 18.472 C 4.025 18.203,4.020 17.687,4.020 12.000 C 4.020 6.313,4.025 5.797,4.088 5.528 C 4.175 5.155,4.294 4.918,4.520 4.667 C 4.884 4.261,5.283 4.090,5.980 4.040 C 6.600 3.996,11.160 3.994,11.160 4.038 M18.492 4.094 C 18.889 4.185,19.107 4.307,19.400 4.600 C 19.697 4.897,19.815 5.111,19.910 5.528 C 19.967 5.780,19.976 6.118,19.978 8.000 C 19.980 9.689,19.968 10.219,19.928 10.354 C 19.863 10.567,19.591 10.849,19.376 10.925 C 19.146 11.006,13.854 11.006,13.624 10.925 C 13.421 10.853,13.140 10.570,13.076 10.374 C 13.039 10.260,13.022 9.589,13.010 7.775 C 12.993 5.072,13.012 4.686,13.179 4.434 C 13.332 4.203,13.547 4.080,13.866 4.040 C 14.017 4.021,15.058 4.012,16.180 4.019 C 17.854 4.029,18.269 4.043,18.492 4.094 " stroke="none" fill-rule="evenodd" fill="black"></path></svg>