<svg width="24" height="24" viewBox="0 0 24 24" fill="none" xmlns="http://www.w3.org/2000/svg"><path d="M11.580 1.024 C 10.982 1.112,10.273 1.411,9.835 1.759 C 9.345 2.148,8.960 2.673,8.733 3.260 L 8.632 3.520 6.195 3.520 C 3.508 3.520,3.599 3.512,3.325 3.772 C 3.136 3.951,3.001 4.255,3.001 4.500 C 3.001 4.873,3.264 5.268,3.620 5.428 C 3.767 5.494,3.982 5.502,6.216 5.520 L 8.652 5.540 8.758 5.800 C 9.124 6.705,9.854 7.424,10.750 7.765 L 11.000 7.860 11.000 13.930 L 11.000 20.000 7.446 20.000 C 3.590 20.000,3.678 19.995,3.382 20.221 C 3.302 20.282,3.187 20.415,3.128 20.516 C 3.037 20.672,3.020 20.746,3.020 21.000 C 3.020 21.256,3.036 21.328,3.131 21.489 C 3.256 21.702,3.449 21.864,3.670 21.943 C 3.893 22.022,20.107 22.022,20.330 21.943 C 20.551 21.864,20.744 21.702,20.869 21.489 C 20.964 21.328,20.980 21.256,20.980 21.000 C 20.980 20.746,20.963 20.672,20.872 20.516 C 20.813 20.415,20.698 20.282,20.618 20.221 C 20.322 19.995,20.410 20.000,16.554 20.000 L 13.000 20.000 13.000 13.930 L 13.000 7.860 13.250 7.765 C 14.147 7.424,14.875 6.708,15.240 5.806 L 15.348 5.540 17.784 5.520 C 20.018 5.502,20.233 5.494,20.380 5.428 C 20.736 5.268,20.999 4.873,20.999 4.500 C 20.999 4.255,20.864 3.951,20.675 3.772 C 20.401 3.512,20.492 3.520,17.804 3.520 L 15.366 3.520 15.280 3.290 C 15.064 2.707,14.685 2.181,14.200 1.789 C 13.855 1.510,13.238 1.203,12.820 1.102 C 12.545 1.035,11.816 0.989,11.580 1.024 M12.367 3.055 C 12.659 3.123,12.969 3.323,13.162 3.567 C 13.703 4.252,13.542 5.274,12.817 5.754 C 12.561 5.923,12.361 5.978,12.000 5.978 C 11.639 5.978,11.439 5.923,11.183 5.754 C 10.290 5.162,10.299 3.818,11.199 3.241 C 11.546 3.018,11.943 2.955,12.367 3.055 M5.240 7.035 C 5.054 7.096,4.901 7.192,4.776 7.327 C 4.606 7.509,1.581 12.186,1.391 12.560 C 0.991 13.347,0.975 14.227,1.343 15.160 C 1.913 16.602,3.232 17.675,4.757 17.936 C 6.799 18.285,8.837 17.147,9.634 15.214 C 10.025 14.267,10.016 13.363,9.609 12.560 C 9.420 12.187,6.395 7.509,6.224 7.326 C 6.156 7.253,6.029 7.157,5.943 7.112 C 5.771 7.024,5.399 6.983,5.240 7.035 M18.240 7.035 C 18.054 7.096,17.901 7.192,17.776 7.327 C 17.606 7.509,14.581 12.186,14.391 12.560 C 13.991 13.347,13.975 14.227,14.343 15.160 C 14.913 16.602,16.232 17.675,17.757 17.936 C 19.799 18.285,21.837 17.147,22.634 15.214 C 23.025 14.267,23.016 13.363,22.609 12.560 C 22.420 12.187,19.395 7.509,19.224 7.326 C 19.156 7.253,19.029 7.157,18.943 7.112 C 18.771 7.024,18.399 6.983,18.240 7.035 M6.196 10.913 C 6.572 11.493,6.880 11.974,6.880 11.983 C 6.880 11.992,6.258 12.000,5.497 12.000 C 4.736 12.000,4.119 11.985,4.127 11.967 C 4.148 11.915,5.497 9.844,5.505 9.852 C 5.508 9.857,5.819 10.334,6.196 10.913 M19.196 10.913 C 19.572 11.493,19.880 11.974,19.880 11.983 C 19.880 11.992,19.258 12.000,18.497 12.000 C 17.736 12.000,17.119 11.985,17.127 11.967 C 17.148 11.915,18.497 9.844,18.505 9.852 C 18.508 9.857,18.819 10.334,19.196 10.913 M7.920 14.034 C 7.920 14.117,7.759 14.524,7.647 14.722 C 7.326 15.290,6.816 15.693,6.140 15.912 C 5.867 16.001,5.133 16.001,4.860 15.912 C 4.188 15.694,3.732 15.339,3.380 14.759 C 3.255 14.555,3.080 14.130,3.080 14.034 C 3.080 14.015,4.169 14.000,5.500 14.000 C 6.831 14.000,7.920 14.015,7.920 14.034 M20.920 14.034 C 20.920 14.117,20.759 14.524,20.647 14.722 C 20.326 15.290,19.816 15.693,19.140 15.912 C 18.867 16.001,18.133 16.001,17.860 15.912 C 17.188 15.694,16.732 15.339,16.380 14.759 C 16.255 14.555,16.080 14.130,16.080 14.034 C 16.080 14.015,17.169 14.000,18.500 14.000 C 19.831 14.000,20.920 14.015,20.920 14.034 " stroke="none" fill-rule="evenodd" fill="black"></path></svg>