<svg width="24" height="24" viewBox="0 0 24 24" fill="none" xmlns="http://www.w3.org/2000/svg"><path d="M5.920 2.042 C 5.667 2.058,5.343 2.092,5.200 2.118 C 4.027 2.326,2.999 3.086,2.465 4.141 C 2.101 4.858,1.984 5.676,2.007 7.343 L 2.020 8.307 2.141 8.503 C 2.543 9.156,3.457 9.156,3.859 8.503 L 3.980 8.306 4.007 7.063 C 4.044 5.342,4.104 5.096,4.600 4.600 C 5.096 4.104,5.342 4.044,7.060 4.007 L 8.300 3.980 8.492 3.867 C 9.248 3.423,9.123 2.306,8.290 2.055 C 8.089 1.994,6.763 1.987,5.920 2.042 M15.695 2.054 C 15.048 2.269,14.799 3.040,15.198 3.591 C 15.263 3.681,15.403 3.805,15.508 3.867 L 15.700 3.980 16.940 4.007 C 18.658 4.044,18.904 4.104,19.400 4.600 C 19.896 5.096,19.956 5.342,19.993 7.063 L 20.020 8.306 20.141 8.503 C 20.543 9.156,21.457 9.156,21.859 8.503 L 21.980 8.307 21.993 7.343 C 22.016 5.676,21.899 4.858,21.535 4.141 C 21.088 3.259,20.267 2.557,19.320 2.246 C 18.845 2.090,18.330 2.038,17.060 2.018 C 16.110 2.003,15.826 2.011,15.695 2.054 M2.695 11.055 C 2.464 11.130,2.255 11.300,2.128 11.516 C 2.037 11.672,2.020 11.746,2.020 12.000 C 2.020 12.257,2.036 12.327,2.133 12.492 C 2.651 13.374,3.998 13.018,3.998 12.000 C 3.998 11.623,3.792 11.281,3.463 11.112 C 3.265 11.010,2.911 10.984,2.695 11.055 M7.240 11.035 C 6.785 11.184,6.512 11.547,6.512 12.000 C 6.512 12.405,6.719 12.724,7.100 12.905 C 7.583 13.133,8.146 12.926,8.412 12.423 C 8.529 12.199,8.530 11.802,8.413 11.579 C 8.305 11.375,8.143 11.213,7.943 11.112 C 7.771 11.024,7.398 10.983,7.240 11.035 M11.695 11.055 C 11.464 11.130,11.255 11.300,11.128 11.516 C 11.037 11.672,11.020 11.746,11.020 12.000 C 11.020 12.257,11.036 12.327,11.133 12.492 C 11.651 13.374,12.998 13.018,12.998 12.000 C 12.998 11.623,12.792 11.281,12.463 11.112 C 12.265 11.010,11.911 10.984,11.695 11.055 M16.240 11.035 C 15.785 11.184,15.512 11.547,15.512 12.000 C 15.512 12.405,15.719 12.724,16.100 12.905 C 16.583 13.133,17.146 12.926,17.412 12.423 C 17.529 12.199,17.530 11.802,17.413 11.579 C 17.305 11.375,17.143 11.213,16.943 11.112 C 16.771 11.024,16.398 10.983,16.240 11.035 M20.695 11.055 C 20.464 11.130,20.255 11.300,20.128 11.516 C 20.037 11.672,20.020 11.746,20.020 12.000 C 20.020 12.257,20.036 12.327,20.133 12.492 C 20.651 13.374,21.998 13.018,21.998 12.000 C 21.998 11.623,21.792 11.281,21.463 11.112 C 21.265 11.010,20.911 10.984,20.695 11.055 M2.695 15.057 C 2.466 15.129,2.256 15.299,2.128 15.516 L 2.020 15.700 2.007 16.660 C 1.984 18.322,2.101 19.143,2.464 19.858 C 2.999 20.913,3.979 21.647,5.160 21.876 C 5.826 22.005,8.025 22.052,8.330 21.943 C 8.551 21.864,8.744 21.702,8.869 21.489 C 8.964 21.328,8.980 21.256,8.980 21.000 C 8.980 20.746,8.963 20.672,8.872 20.516 C 8.760 20.326,8.567 20.155,8.373 20.073 C 8.300 20.042,7.824 20.015,7.020 19.997 C 6.338 19.981,5.672 19.947,5.540 19.920 C 5.162 19.845,4.888 19.694,4.600 19.403 C 4.103 18.901,4.044 18.657,4.007 16.940 L 3.980 15.700 3.872 15.516 C 3.628 15.101,3.150 14.915,2.695 15.057 M20.695 15.057 C 20.466 15.129,20.256 15.299,20.128 15.516 L 20.020 15.700 19.993 16.940 C 19.956 18.658,19.896 18.904,19.400 19.401 C 19.111 19.690,18.828 19.847,18.460 19.920 C 18.328 19.947,17.662 19.981,16.980 19.997 C 16.176 20.015,15.700 20.042,15.627 20.073 C 15.433 20.155,15.240 20.326,15.128 20.516 C 15.037 20.672,15.020 20.746,15.020 21.000 C 15.020 21.256,15.036 21.328,15.131 21.489 C 15.256 21.702,15.449 21.864,15.670 21.943 C 15.975 22.052,18.174 22.005,18.840 21.876 C 20.021 21.647,21.001 20.913,21.536 19.858 C 21.899 19.143,22.016 18.322,21.993 16.660 L 21.980 15.700 21.872 15.516 C 21.628 15.101,21.150 14.915,20.695 15.057 " stroke="none" fill-rule="evenodd" fill="black"></path></svg>