<svg width="24" height="24" viewBox="0 0 24 24" fill="none" xmlns="http://www.w3.org/2000/svg"><path d="M5.358 2.061 C 3.150 2.405,1.636 4.582,2.082 6.772 C 2.302 7.851,2.946 8.797,3.853 9.373 C 3.967 9.445,5.153 10.060,6.490 10.739 C 7.827 11.418,8.920 11.987,8.920 12.003 C 8.920 12.019,7.796 12.604,6.422 13.302 C 3.691 14.690,3.450 14.836,2.980 15.387 C 1.191 17.484,1.966 20.677,4.512 21.704 C 6.558 22.528,8.877 21.538,9.704 19.488 C 10.263 18.101,10.004 16.540,9.023 15.391 C 8.885 15.229,8.644 15.000,8.487 14.880 C 8.330 14.760,8.215 14.650,8.231 14.636 C 8.247 14.621,8.917 14.275,9.720 13.866 L 11.180 13.124 15.780 15.469 C 18.310 16.758,20.479 17.855,20.600 17.906 C 20.998 18.073,21.405 17.997,21.701 17.701 C 22.093 17.309,22.093 16.685,21.700 16.303 C 21.568 16.174,20.682 15.708,17.470 14.080 C 15.236 12.947,13.419 12.007,13.435 11.991 C 13.450 11.975,15.271 11.042,17.481 9.917 C 19.691 8.793,21.563 7.823,21.640 7.762 C 21.717 7.701,21.823 7.567,21.876 7.465 C 22.273 6.693,21.577 5.813,20.750 6.042 C 20.667 6.065,18.480 7.162,15.890 8.481 L 11.180 10.878 9.820 10.186 C 9.072 9.806,8.401 9.464,8.329 9.426 L 8.199 9.357 8.502 9.113 C 9.653 8.188,10.211 6.666,9.921 5.243 C 9.721 4.264,9.197 3.415,8.438 2.843 C 7.866 2.412,7.276 2.160,6.605 2.058 C 6.144 1.989,5.816 1.990,5.358 2.061 M6.523 4.073 C 7.262 4.266,7.850 4.924,7.967 5.690 C 8.029 6.098,7.967 6.522,7.793 6.880 C 7.638 7.198,7.227 7.625,6.930 7.775 C 6.492 7.997,5.962 8.059,5.508 7.940 C 4.823 7.762,4.249 7.194,4.073 6.523 C 3.683 5.028,5.028 3.683,6.523 4.073 M6.523 16.073 C 7.262 16.266,7.850 16.924,7.967 17.690 C 8.067 18.343,7.873 18.933,7.403 19.404 C 7.002 19.807,6.547 20.000,6.000 20.000 C 5.485 20.000,5.038 19.822,4.653 19.465 C 3.323 18.229,4.189 16.005,6.000 16.005 C 6.143 16.005,6.378 16.036,6.523 16.073 " stroke="none" fill-rule="evenodd" fill="black"></path></svg>