<svg width="24" height="24" viewBox="0 0 24 24" fill="none" xmlns="http://www.w3.org/2000/svg"><path d="M5.358 2.061 C 4.230 2.237,3.143 2.974,2.569 3.953 C 1.320 6.083,2.233 8.785,4.512 9.704 C 5.473 10.091,6.529 10.090,7.494 9.701 C 7.684 9.625,7.881 9.535,7.931 9.502 C 8.020 9.444,8.053 9.473,9.301 10.721 L 10.580 12.000 9.303 13.277 L 8.026 14.554 7.763 14.423 C 7.244 14.163,6.564 14.000,6.000 14.000 C 4.635 14.000,3.253 14.787,2.569 15.953 C 1.320 18.083,2.233 20.785,4.512 21.704 C 6.558 22.528,8.877 21.538,9.704 19.488 C 9.994 18.769,10.070 17.977,9.921 17.243 C 9.844 16.868,9.627 16.260,9.502 16.069 C 9.444 15.980,9.473 15.947,10.721 14.699 L 12.000 13.421 15.710 17.126 C 17.750 19.164,19.481 20.862,19.555 20.899 C 20.010 21.128,20.601 20.944,20.867 20.492 C 20.964 20.327,20.980 20.258,20.979 20.000 C 20.979 19.788,20.957 19.659,20.905 19.560 C 20.865 19.483,19.164 17.750,17.126 15.710 L 13.421 12.000 17.126 8.290 C 19.164 6.249,20.865 4.517,20.905 4.440 C 20.957 4.341,20.979 4.212,20.979 4.000 C 20.980 3.745,20.964 3.672,20.872 3.516 C 20.618 3.084,20.138 2.906,19.657 3.065 C 19.477 3.125,19.141 3.448,15.730 6.855 L 12.000 10.579 10.721 9.301 C 9.473 8.053,9.444 8.020,9.502 7.931 C 9.627 7.740,9.844 7.132,9.921 6.757 C 10.070 6.024,9.994 5.230,9.705 4.516 C 9.172 3.197,8.001 2.269,6.605 2.058 C 6.144 1.989,5.816 1.990,5.358 2.061 M6.523 4.073 C 7.262 4.266,7.850 4.924,7.967 5.690 C 8.029 6.098,7.967 6.522,7.793 6.880 C 7.638 7.198,7.227 7.625,6.930 7.775 C 6.492 7.997,5.962 8.059,5.508 7.940 C 4.823 7.762,4.249 7.194,4.073 6.523 C 3.683 5.028,5.028 3.683,6.523 4.073 M6.523 16.073 C 7.262 16.266,7.850 16.924,7.967 17.690 C 8.067 18.343,7.873 18.933,7.403 19.404 C 7.002 19.807,6.547 20.000,6.000 20.000 C 5.485 20.000,5.038 19.822,4.653 19.465 C 3.323 18.229,4.189 16.005,6.000 16.005 C 6.143 16.005,6.378 16.036,6.523 16.073 " stroke="none" fill-rule="evenodd" fill="black"></path></svg>