<svg width="24" height="24" viewBox="0 0 24 24" fill="none" xmlns="http://www.w3.org/2000/svg"><path d="M10.600 2.046 C 8.478 2.240,6.460 3.173,4.905 4.680 C 3.028 6.499,2.000 8.912,2.000 11.500 C 2.000 14.774,3.694 17.816,6.500 19.581 C 7.667 20.315,9.149 20.813,10.594 20.958 C 12.882 21.188,15.326 20.509,17.142 19.140 L 17.472 18.891 18.906 20.328 C 19.695 21.118,20.416 21.810,20.508 21.865 C 20.967 22.139,21.587 21.968,21.867 21.492 C 21.964 21.327,21.980 21.257,21.980 21.000 C 21.980 20.746,21.964 20.673,21.873 20.520 C 21.814 20.421,21.118 19.695,20.328 18.906 L 18.891 17.472 19.140 17.142 C 19.651 16.465,20.079 15.675,20.399 14.820 C 21.575 11.681,21.003 8.159,18.892 5.539 C 18.490 5.040,17.730 4.304,17.231 3.928 C 15.323 2.494,12.977 1.828,10.600 2.046 M12.223 4.043 C 13.965 4.217,15.563 4.972,16.795 6.205 C 18.807 8.216,19.506 11.181,18.604 13.877 C 18.043 15.554,16.851 17.032,15.320 17.949 C 13.738 18.895,11.806 19.216,9.958 18.840 C 7.472 18.333,5.324 16.461,4.449 14.040 C 3.862 12.415,3.862 10.585,4.449 8.960 C 5.339 6.496,7.489 4.651,10.060 4.143 C 10.752 4.007,11.505 3.972,12.223 4.043 " stroke="none" fill-rule="evenodd" fill="black"></path></svg>