<svg width="24" height="24" viewBox="0 0 24 24" fill="none" xmlns="http://www.w3.org/2000/svg"><path d="M9.207 2.043 C 7.656 2.193,6.096 2.846,4.900 3.847 C 3.985 4.612,3.307 5.477,2.800 6.529 C 1.453 9.317,1.837 12.625,3.789 15.040 C 4.075 15.394,4.761 16.067,5.100 16.326 C 6.743 17.581,8.834 18.176,10.832 17.958 C 12.117 17.817,13.413 17.344,14.465 16.632 L 14.911 16.331 17.625 19.048 C 19.118 20.542,20.416 21.810,20.508 21.865 C 20.967 22.139,21.587 21.968,21.867 21.492 C 21.964 21.327,21.980 21.257,21.980 21.000 C 21.980 20.746,21.964 20.673,21.873 20.520 C 21.812 20.419,20.571 19.148,19.048 17.625 L 16.331 14.911 16.632 14.465 C 18.220 12.118,18.437 9.089,17.200 6.529 C 16.693 5.477,16.015 4.612,15.100 3.847 C 13.483 2.494,11.337 1.837,9.207 2.043 M10.564 4.039 C 12.921 4.269,14.913 5.837,15.671 8.060 C 16.168 9.517,16.068 11.251,15.410 12.580 C 14.550 14.316,13.056 15.478,11.160 15.885 C 10.554 16.015,9.446 16.015,8.840 15.885 C 6.941 15.478,5.451 14.319,4.590 12.580 C 3.932 11.251,3.832 9.517,4.329 8.060 C 4.618 7.212,5.080 6.470,5.731 5.805 C 7.008 4.503,8.757 3.864,10.564 4.039 " stroke="none" fill-rule="evenodd" fill="black"></path></svg>