<svg width="24" height="24" viewBox="0 0 24 24" fill="none" xmlns="http://www.w3.org/2000/svg"><path d="M20.686 1.463 C 20.494 1.517,3.739 8.041,2.708 8.463 C 1.968 8.766,1.646 9.030,1.475 9.477 C 1.355 9.788,1.358 10.218,1.481 10.540 C 1.605 10.864,1.920 11.175,2.320 11.368 C 2.485 11.448,4.204 12.128,6.140 12.880 C 8.076 13.631,9.681 14.267,9.707 14.293 C 9.733 14.319,10.369 15.924,11.120 17.860 C 11.872 19.796,12.552 21.515,12.632 21.680 C 12.825 22.080,13.136 22.395,13.460 22.519 C 13.958 22.710,14.554 22.612,14.934 22.277 C 15.177 22.063,15.350 21.767,15.600 21.140 C 16.614 18.597,22.488 3.481,22.541 3.280 C 22.731 2.548,22.430 1.856,21.782 1.539 C 21.496 1.399,21.027 1.367,20.686 1.463 M14.075 8.505 L 10.250 12.330 7.285 11.178 C 5.654 10.544,4.320 10.013,4.320 9.999 C 4.320 9.979,17.806 4.691,17.880 4.682 C 17.891 4.681,16.179 6.401,14.075 8.505 M19.267 6.250 C 19.238 6.322,18.047 9.373,16.620 13.030 C 15.193 16.687,14.014 19.680,14.000 19.680 C 13.986 19.680,13.456 18.346,12.822 16.715 L 11.670 13.750 15.485 9.935 C 17.583 7.837,19.305 6.120,19.310 6.120 C 19.316 6.120,19.297 6.179,19.267 6.250 " stroke="none" fill-rule="evenodd" fill="black"></path></svg>