<svg width="24" height="24" viewBox="0 0 24 24" fill="none" xmlns="http://www.w3.org/2000/svg"><path d="M11.573 1.794 C 11.206 1.921,10.939 2.162,10.703 2.580 C 10.538 2.871,2.673 20.271,2.550 20.616 C 2.417 20.988,2.425 21.505,2.567 21.808 C 2.703 22.099,2.981 22.377,3.272 22.513 C 3.475 22.608,3.547 22.620,3.920 22.619 L 4.340 22.617 8.180 21.336 L 12.020 20.054 15.860 21.337 L 19.700 22.620 20.100 22.620 C 20.450 22.620,20.529 22.607,20.728 22.513 C 21.395 22.200,21.707 21.460,21.483 20.721 C 21.408 20.475,13.835 3.510,13.460 2.750 C 13.205 2.231,12.915 1.943,12.505 1.798 C 12.226 1.700,11.849 1.699,11.573 1.794 M15.603 12.391 C 17.551 16.741,19.143 20.304,19.140 20.309 C 19.137 20.314,17.755 19.858,16.068 19.296 L 13.002 18.274 12.991 14.987 L 12.980 11.700 12.872 11.516 C 12.747 11.303,12.550 11.141,12.316 11.058 C 11.874 10.902,11.376 11.094,11.128 11.516 L 11.020 11.700 11.000 14.997 L 10.980 18.293 7.943 19.306 C 6.272 19.863,4.898 20.311,4.889 20.303 C 4.869 20.282,12.010 4.480,12.039 4.481 C 12.050 4.482,13.654 8.041,15.603 12.391 " stroke="none" fill-rule="evenodd" fill="black"></path></svg>