<svg width="24" height="24" viewBox="0 0 24 24" fill="none" xmlns="http://www.w3.org/2000/svg"><path d="M5.657 2.041 C 4.899 2.093,4.431 2.216,3.879 2.505 C 2.996 2.970,2.299 3.819,2.025 4.768 C 1.823 5.464,1.829 5.400,1.353 12.180 C 0.981 17.479,0.964 17.949,1.129 18.563 C 1.581 20.248,2.735 21.403,4.437 21.874 L 4.820 21.980 12.000 21.980 L 19.180 21.980 19.563 21.874 C 21.265 21.403,22.419 20.248,22.871 18.563 C 22.961 18.226,22.974 18.101,22.974 17.520 C 22.975 16.830,22.295 6.872,22.177 5.847 C 22.092 5.107,21.961 4.617,21.721 4.140 C 21.155 3.017,20.166 2.318,18.800 2.075 C 18.496 2.021,6.393 1.989,5.657 2.041 M18.680 4.077 C 19.000 4.150,19.290 4.305,19.553 4.544 C 19.954 4.906,20.102 5.282,20.198 6.180 C 20.253 6.701,20.725 13.529,20.707 13.547 C 20.699 13.554,20.558 13.498,20.392 13.422 C 19.995 13.238,19.502 13.098,19.060 13.044 C 18.555 12.983,5.445 12.983,4.940 13.044 C 4.498 13.098,4.005 13.238,3.608 13.422 C 3.442 13.498,3.301 13.554,3.293 13.547 C 3.275 13.528,3.750 6.653,3.804 6.160 C 3.914 5.150,4.122 4.725,4.694 4.346 C 4.981 4.156,5.236 4.079,5.700 4.042 C 5.920 4.024,8.881 4.014,12.280 4.018 C 17.062 4.025,18.510 4.038,18.680 4.077 M19.020 15.060 C 19.890 15.242,20.643 15.936,20.893 16.786 C 20.994 17.129,21.016 17.657,20.944 18.000 C 20.863 18.389,20.617 18.881,20.364 19.165 C 20.103 19.456,19.696 19.731,19.320 19.869 L 19.020 19.980 12.000 19.980 L 4.980 19.980 4.680 19.869 C 3.616 19.478,2.937 18.445,3.020 17.346 C 3.070 16.680,3.290 16.189,3.742 15.736 C 4.066 15.410,4.526 15.155,4.960 15.062 C 5.359 14.977,18.611 14.974,19.020 15.060 M5.600 16.584 C 5.267 16.728,5.001 17.135,5.001 17.500 C 5.001 17.874,5.270 18.277,5.618 18.422 C 5.834 18.512,6.188 18.507,6.406 18.410 C 6.603 18.323,6.808 18.134,6.911 17.946 C 7.005 17.771,7.005 17.229,6.911 17.054 C 6.812 16.872,6.606 16.679,6.421 16.595 C 6.222 16.504,5.797 16.499,5.600 16.584 M11.600 16.584 C 11.267 16.728,11.001 17.135,11.001 17.500 C 11.001 17.886,11.304 18.318,11.665 18.445 C 11.791 18.490,12.409 18.500,15.000 18.500 C 18.507 18.500,18.357 18.510,18.652 18.245 C 19.096 17.844,19.107 17.182,18.675 16.772 C 18.396 16.508,18.577 16.520,14.991 16.522 C 12.179 16.523,11.721 16.531,11.600 16.584 " stroke="none" fill-rule="evenodd" fill="black"></path></svg>