<svg width="24" height="24" viewBox="0 0 24 24" fill="none" xmlns="http://www.w3.org/2000/svg"><path d="M5.160 1.565 C 3.817 1.720,2.667 2.511,2.115 3.660 C 1.779 4.359,1.718 4.684,1.300 8.000 C 0.977 10.569,0.948 11.015,1.060 11.705 C 1.214 12.659,1.706 13.596,2.395 14.253 C 2.530 14.381,2.640 14.492,2.640 14.500 C 2.640 14.508,2.530 14.619,2.395 14.747 C 0.834 16.234,0.555 18.669,1.741 20.460 C 2.526 21.646,3.698 22.342,5.140 22.478 C 5.743 22.535,18.257 22.535,18.860 22.478 C 20.747 22.299,22.207 21.128,22.798 19.320 C 23.306 17.764,22.810 15.866,21.602 14.748 C 21.469 14.625,21.360 14.516,21.360 14.505 C 21.360 14.494,21.470 14.381,21.605 14.253 C 22.510 13.390,22.999 12.204,23.000 10.867 C 23.000 10.224,22.418 5.519,22.239 4.720 C 22.026 3.767,21.707 3.177,21.090 2.596 C 20.441 1.984,19.739 1.669,18.785 1.563 C 18.318 1.510,5.613 1.513,5.160 1.565 M18.667 3.562 C 19.458 3.669,20.062 4.217,20.252 5.000 C 20.287 5.143,20.362 5.602,20.418 6.020 C 20.475 6.438,20.529 6.827,20.538 6.884 L 20.555 6.987 20.184 6.838 C 19.383 6.515,20.062 6.540,12.000 6.540 C 4.023 6.540,4.638 6.520,3.899 6.804 C 3.431 6.983,3.448 6.981,3.464 6.873 C 3.472 6.822,3.525 6.438,3.582 6.020 C 3.638 5.602,3.713 5.143,3.748 5.000 C 3.932 4.242,4.543 3.670,5.280 3.566 C 5.661 3.513,18.272 3.509,18.667 3.562 M19.116 8.581 C 19.537 8.681,19.900 8.896,20.260 9.258 C 20.793 9.794,20.977 10.241,20.977 11.000 C 20.977 11.770,20.794 12.207,20.241 12.761 C 19.872 13.130,19.587 13.299,19.117 13.429 C 18.875 13.496,18.447 13.500,12.000 13.500 C 5.553 13.500,5.125 13.496,4.883 13.429 C 4.413 13.299,4.128 13.130,3.759 12.761 C 3.206 12.207,3.023 11.770,3.023 11.000 C 3.023 10.243,3.206 9.797,3.740 9.255 C 4.090 8.900,4.453 8.683,4.872 8.582 C 5.061 8.536,6.262 8.526,11.980 8.524 C 17.978 8.522,18.893 8.529,19.116 8.581 M5.695 10.055 C 5.464 10.130,5.255 10.300,5.128 10.516 C 5.037 10.672,5.020 10.746,5.020 11.000 C 5.020 11.257,5.036 11.327,5.133 11.492 C 5.651 12.374,6.998 12.018,6.998 11.000 C 6.998 10.623,6.792 10.281,6.463 10.112 C 6.265 10.010,5.911 9.984,5.695 10.055 M11.695 10.057 C 11.466 10.129,11.256 10.299,11.128 10.516 C 11.037 10.672,11.020 10.746,11.020 11.000 C 11.020 11.256,11.036 11.328,11.131 11.489 C 11.256 11.702,11.449 11.864,11.670 11.943 C 11.891 12.022,18.109 12.022,18.330 11.943 C 18.551 11.864,18.744 11.702,18.869 11.489 C 18.964 11.328,18.980 11.256,18.980 11.000 C 18.980 10.746,18.963 10.672,18.872 10.516 C 18.740 10.293,18.533 10.128,18.290 10.055 C 18.030 9.977,11.945 9.979,11.695 10.057 M19.116 15.581 C 19.537 15.681,19.900 15.896,20.260 16.258 C 20.793 16.794,20.977 17.241,20.977 18.000 C 20.977 18.770,20.794 19.207,20.241 19.761 C 19.872 20.130,19.587 20.299,19.117 20.429 C 18.875 20.496,18.447 20.500,12.000 20.500 C 5.553 20.500,5.125 20.496,4.883 20.429 C 4.413 20.299,4.128 20.130,3.759 19.761 C 3.206 19.207,3.023 18.770,3.023 18.000 C 3.023 17.243,3.206 16.797,3.740 16.255 C 4.090 15.900,4.453 15.683,4.872 15.582 C 5.061 15.536,6.262 15.526,11.980 15.524 C 17.978 15.522,18.893 15.529,19.116 15.581 M5.695 17.055 C 5.464 17.130,5.255 17.300,5.128 17.516 C 5.037 17.672,5.020 17.746,5.020 18.000 C 5.020 18.257,5.036 18.327,5.133 18.492 C 5.651 19.374,6.998 19.018,6.998 18.000 C 6.998 17.623,6.792 17.281,6.463 17.112 C 6.265 17.010,5.911 16.984,5.695 17.055 M11.695 17.057 C 11.466 17.129,11.256 17.299,11.128 17.516 C 11.037 17.672,11.020 17.746,11.020 18.000 C 11.020 18.256,11.036 18.328,11.131 18.489 C 11.256 18.702,11.449 18.864,11.670 18.943 C 11.891 19.022,18.109 19.022,18.330 18.943 C 18.551 18.864,18.744 18.702,18.869 18.489 C 18.964 18.328,18.980 18.256,18.980 18.000 C 18.980 17.746,18.963 17.672,18.872 17.516 C 18.740 17.293,18.533 17.128,18.290 17.055 C 18.030 16.977,11.945 16.979,11.695 17.057 " stroke="none" fill-rule="evenodd" fill="black"></path></svg>