<svg width="24" height="24" viewBox="0 0 24 24" fill="none" xmlns="http://www.w3.org/2000/svg"><path d="M3.749 1.045 C 2.967 1.120,2.402 1.371,1.890 1.870 C 1.491 2.260,1.236 2.731,1.094 3.340 C 1.026 3.633,1.020 3.861,1.020 6.020 C 1.020 8.340,1.022 8.386,1.111 8.735 C 1.225 9.184,1.379 9.505,1.650 9.858 C 2.038 10.363,2.594 10.719,3.265 10.889 L 3.620 10.980 11.980 10.980 C 19.988 10.980,20.353 10.977,20.660 10.906 C 21.269 10.764,21.711 10.526,22.118 10.118 C 22.526 9.711,22.764 9.269,22.906 8.660 C 22.974 8.367,22.980 8.140,22.980 6.000 C 22.980 3.860,22.974 3.633,22.906 3.340 C 22.688 2.404,22.167 1.737,21.329 1.321 C 21.019 1.168,20.706 1.091,20.180 1.042 C 19.643 0.991,4.277 0.994,3.749 1.045 M20.374 3.074 C 20.586 3.146,20.863 3.432,20.928 3.646 C 20.968 3.781,20.980 4.316,20.980 6.000 C 20.980 7.684,20.968 8.219,20.928 8.354 C 20.863 8.567,20.591 8.849,20.376 8.925 C 20.143 9.007,3.857 9.007,3.624 8.925 C 3.421 8.853,3.139 8.570,3.077 8.374 C 3.041 8.264,3.022 7.669,3.010 6.279 C 2.991 4.098,3.016 3.680,3.179 3.434 C 3.333 3.201,3.547 3.080,3.866 3.042 C 4.017 3.024,7.758 3.012,12.180 3.016 C 18.671 3.021,20.250 3.032,20.374 3.074 M5.695 5.055 C 5.464 5.130,5.255 5.300,5.128 5.516 C 5.037 5.672,5.020 5.746,5.020 6.000 C 5.020 6.257,5.036 6.327,5.133 6.492 C 5.651 7.374,6.998 7.018,6.998 6.000 C 6.998 5.623,6.792 5.281,6.463 5.112 C 6.265 5.010,5.911 4.984,5.695 5.055 M3.749 13.045 C 2.967 13.120,2.402 13.371,1.890 13.870 C 1.491 14.260,1.236 14.731,1.094 15.340 C 1.026 15.633,1.020 15.861,1.020 18.020 C 1.020 20.340,1.022 20.386,1.111 20.735 C 1.225 21.184,1.379 21.505,1.650 21.858 C 2.038 22.363,2.594 22.719,3.265 22.889 L 3.620 22.980 11.980 22.980 C 19.988 22.980,20.353 22.977,20.660 22.906 C 21.459 22.720,22.041 22.327,22.486 21.671 C 22.685 21.378,22.807 21.084,22.906 20.660 C 22.974 20.367,22.980 20.140,22.980 18.000 C 22.980 15.860,22.974 15.633,22.906 15.340 C 22.688 14.404,22.167 13.737,21.329 13.321 C 21.019 13.168,20.706 13.091,20.180 13.042 C 19.643 12.991,4.277 12.994,3.749 13.045 M20.374 15.074 C 20.586 15.146,20.863 15.432,20.928 15.646 C 20.968 15.781,20.980 16.316,20.980 18.000 C 20.980 19.684,20.968 20.219,20.928 20.354 C 20.863 20.567,20.591 20.849,20.376 20.925 C 20.143 21.007,3.857 21.007,3.624 20.925 C 3.421 20.853,3.139 20.570,3.077 20.374 C 3.041 20.264,3.022 19.669,3.010 18.279 C 2.991 16.098,3.016 15.680,3.179 15.434 C 3.333 15.201,3.547 15.080,3.866 15.042 C 4.017 15.024,7.758 15.012,12.180 15.016 C 18.671 15.021,20.250 15.032,20.374 15.074 M5.695 17.055 C 5.464 17.130,5.255 17.300,5.128 17.516 C 5.037 17.672,5.020 17.746,5.020 18.000 C 5.020 18.257,5.036 18.327,5.133 18.492 C 5.651 19.374,6.998 19.018,6.998 18.000 C 6.998 17.623,6.792 17.281,6.463 17.112 C 6.265 17.010,5.911 16.984,5.695 17.055 " stroke="none" fill-rule="evenodd" fill="black"></path></svg>