<svg width="24" height="24" viewBox="0 0 24 24" fill="none" xmlns="http://www.w3.org/2000/svg"><path d="M3.499 1.040 C 2.363 1.246,1.460 2.049,1.114 3.160 C 0.979 3.594,0.979 4.406,1.114 4.840 C 1.421 5.826,2.175 6.580,3.160 6.886 C 3.409 6.963,3.549 6.979,3.986 6.979 C 4.276 6.980,4.508 6.989,4.502 7.000 C 4.496 7.011,4.398 7.175,4.285 7.365 C 2.579 10.223,2.579 13.777,4.285 16.635 C 4.398 16.825,4.496 16.989,4.502 17.000 C 4.508 17.011,4.276 17.022,3.986 17.024 C 3.551 17.027,3.405 17.045,3.139 17.125 C 2.179 17.417,1.419 18.181,1.114 19.160 C 0.979 19.594,0.979 20.406,1.114 20.840 C 1.421 21.826,2.174 22.579,3.160 22.886 C 3.594 23.021,4.406 23.021,4.840 22.886 C 5.807 22.585,6.554 21.850,6.872 20.887 C 6.959 20.622,6.974 20.505,6.977 20.030 C 6.978 19.728,6.984 19.480,6.989 19.480 C 6.993 19.480,7.110 19.554,7.249 19.644 C 7.387 19.734,7.752 19.932,8.060 20.083 C 10.543 21.302,13.457 21.302,15.940 20.083 C 16.248 19.932,16.613 19.734,16.751 19.644 C 16.890 19.554,17.007 19.480,17.011 19.480 C 17.016 19.480,17.020 19.719,17.021 20.010 C 17.021 20.451,17.037 20.591,17.114 20.840 C 17.420 21.825,18.174 22.579,19.160 22.886 C 19.594 23.021,20.406 23.021,20.840 22.886 C 21.239 22.762,21.609 22.563,21.891 22.321 C 22.391 21.893,22.702 21.430,22.886 20.840 C 23.021 20.406,23.021 19.594,22.886 19.160 C 22.581 18.181,21.821 17.417,20.861 17.125 C 20.595 17.044,20.449 17.027,20.010 17.024 C 19.719 17.022,19.480 17.016,19.480 17.011 C 19.480 17.007,19.554 16.890,19.644 16.751 C 19.734 16.613,19.932 16.248,20.083 15.940 C 21.302 13.457,21.302 10.543,20.083 8.060 C 19.932 7.752,19.734 7.387,19.644 7.249 C 19.554 7.110,19.480 6.993,19.480 6.989 C 19.480 6.984,19.719 6.980,20.010 6.979 C 20.451 6.979,20.591 6.963,20.840 6.886 C 21.825 6.580,22.579 5.826,22.886 4.840 C 23.021 4.406,23.021 3.594,22.886 3.160 C 22.581 2.181,21.822 1.418,20.861 1.125 C 20.588 1.042,20.458 1.027,20.000 1.027 C 19.542 1.027,19.412 1.042,19.139 1.125 C 18.178 1.418,17.417 2.182,17.114 3.160 C 17.037 3.409,17.021 3.549,17.021 3.990 C 17.020 4.281,17.016 4.520,17.011 4.520 C 17.007 4.520,16.890 4.446,16.751 4.356 C 16.388 4.119,15.526 3.706,15.018 3.525 C 14.008 3.165,13.156 3.023,12.000 3.023 C 10.865 3.023,10.013 3.162,9.020 3.508 C 8.546 3.674,7.603 4.125,7.249 4.356 C 7.110 4.446,6.993 4.520,6.989 4.520 C 6.984 4.520,6.980 4.281,6.979 3.990 C 6.979 3.549,6.963 3.409,6.886 3.160 C 6.582 2.180,5.811 1.407,4.861 1.129 C 4.500 1.023,3.832 0.980,3.499 1.040 M4.310 3.061 C 4.688 3.173,5.000 3.598,5.000 4.001 C 5.000 4.331,4.784 4.696,4.484 4.872 C 4.328 4.963,4.254 4.980,4.000 4.980 C 3.746 4.980,3.672 4.963,3.516 4.872 C 2.935 4.530,2.833 3.774,3.304 3.303 C 3.583 3.024,3.916 2.944,4.310 3.061 M20.310 3.061 C 20.688 3.173,21.000 3.598,21.000 4.001 C 21.000 4.331,20.784 4.696,20.484 4.872 C 20.328 4.963,20.254 4.980,20.000 4.980 C 19.746 4.980,19.672 4.963,19.516 4.872 C 18.935 4.530,18.833 3.774,19.304 3.303 C 19.583 3.024,19.916 2.944,20.310 3.061 M9.401 5.944 C 8.622 7.372,8.056 9.160,7.888 10.720 L 7.860 10.980 6.469 10.991 L 5.079 11.001 5.104 10.831 C 5.149 10.520,5.281 10.025,5.427 9.620 C 6.032 7.939,7.269 6.552,8.889 5.735 C 9.178 5.590,9.650 5.398,9.671 5.418 C 9.677 5.424,9.555 5.661,9.401 5.944 M15.111 5.735 C 16.731 6.551,17.968 7.939,18.573 9.620 C 18.719 10.025,18.851 10.520,18.896 10.831 L 18.921 11.001 17.531 10.991 L 16.142 10.980 16.094 10.571 C 15.917 9.066,15.359 7.337,14.600 5.946 C 14.446 5.663,14.320 5.425,14.320 5.416 C 14.320 5.387,14.819 5.588,15.111 5.735 M12.361 6.103 C 12.954 7.009,13.457 8.098,13.745 9.098 C 13.889 9.599,14.056 10.379,14.102 10.770 L 14.129 11.000 12.000 11.000 L 9.871 11.000 9.898 10.770 C 9.944 10.379,10.111 9.599,10.255 9.098 C 10.442 8.448,10.681 7.849,11.023 7.173 C 11.300 6.625,11.937 5.600,12.000 5.600 C 12.017 5.600,12.179 5.827,12.361 6.103 M7.888 13.280 C 8.056 14.840,8.622 16.628,9.400 18.054 C 9.554 18.337,9.680 18.575,9.680 18.584 C 9.680 18.613,9.181 18.412,8.889 18.265 C 7.269 17.449,6.032 16.061,5.427 14.380 C 5.281 13.975,5.149 13.480,5.104 13.169 L 5.079 12.999 6.469 13.009 L 7.860 13.020 7.888 13.280 M14.102 13.230 C 14.056 13.621,13.889 14.401,13.745 14.902 C 13.558 15.552,13.319 16.151,12.977 16.827 C 12.700 17.375,12.063 18.400,12.000 18.400 C 11.937 18.400,11.300 17.375,11.023 16.827 C 10.681 16.151,10.442 15.552,10.255 14.902 C 10.111 14.401,9.944 13.621,9.898 13.230 L 9.871 13.000 12.000 13.000 L 14.129 13.000 14.102 13.230 M18.896 13.170 C 18.851 13.480,18.719 13.975,18.573 14.380 C 17.969 16.059,16.730 17.449,15.111 18.265 C 14.819 18.412,14.320 18.613,14.320 18.584 C 14.320 18.575,14.446 18.337,14.600 18.054 C 15.364 16.654,15.969 14.764,16.102 13.360 C 16.118 13.195,16.138 13.047,16.148 13.030 C 16.157 13.013,16.785 13.000,17.543 13.000 L 18.921 13.000 18.896 13.170 M4.310 19.061 C 4.688 19.173,5.000 19.598,5.000 20.001 C 5.000 20.331,4.784 20.696,4.484 20.872 C 4.328 20.963,4.254 20.980,4.000 20.980 C 3.746 20.980,3.672 20.963,3.516 20.872 C 2.935 20.530,2.833 19.774,3.304 19.303 C 3.583 19.024,3.916 18.944,4.310 19.061 M20.310 19.061 C 20.688 19.173,21.000 19.598,21.000 20.001 C 21.000 20.331,20.784 20.696,20.484 20.872 C 20.328 20.963,20.254 20.980,20.000 20.980 C 19.746 20.980,19.672 20.963,19.516 20.872 C 18.935 20.530,18.833 19.774,19.304 19.303 C 19.583 19.024,19.916 18.944,20.310 19.061 " stroke="none" fill-rule="evenodd" fill="black"></path></svg>