<svg width="24" height="24" viewBox="0 0 24 24" fill="none" xmlns="http://www.w3.org/2000/svg"><path d="M5.400 3.044 C 3.761 3.229,2.261 4.290,1.526 5.785 C 1.158 6.533,1.020 7.136,1.020 8.000 C 1.020 8.864,1.158 9.467,1.526 10.215 C 1.785 10.743,2.033 11.079,2.521 11.564 L 2.987 12.027 2.852 12.120 C 2.640 12.265,2.069 12.885,1.866 13.191 C 1.501 13.740,1.235 14.376,1.093 15.040 C 0.992 15.511,0.992 16.489,1.093 16.960 C 1.526 18.984,3.016 20.474,5.040 20.907 C 5.361 20.976,5.750 20.980,12.000 20.980 C 18.250 20.980,18.639 20.976,18.960 20.907 C 20.488 20.580,21.748 19.630,22.433 18.288 C 22.662 17.839,22.805 17.439,22.907 16.960 C 23.008 16.489,23.008 15.511,22.907 15.040 C 22.689 14.021,22.186 13.101,21.474 12.418 C 21.312 12.262,21.135 12.105,21.081 12.068 L 20.982 12.000 21.081 11.932 C 21.287 11.792,21.777 11.288,22.002 10.987 C 22.274 10.622,22.587 10.028,22.733 9.600 C 22.922 9.041,22.980 8.669,22.980 8.000 C 22.980 7.552,22.960 7.286,22.907 7.040 C 22.625 5.721,21.863 4.576,20.800 3.874 C 20.046 3.375,19.396 3.135,18.552 3.043 C 18.081 2.991,5.858 2.993,5.400 3.044 M18.861 5.121 C 19.825 5.426,20.585 6.187,20.875 7.139 C 20.958 7.412,20.973 7.542,20.973 8.000 C 20.973 8.458,20.958 8.588,20.875 8.861 C 20.582 9.822,19.820 10.580,18.840 10.886 L 18.540 10.980 12.000 10.980 L 5.460 10.980 5.160 10.886 C 4.180 10.580,3.418 9.822,3.125 8.861 C 3.042 8.588,3.027 8.458,3.027 8.000 C 3.027 7.542,3.042 7.412,3.125 7.139 C 3.456 6.054,4.387 5.231,5.499 5.043 C 5.609 5.024,8.589 5.011,12.120 5.014 L 18.540 5.020 18.861 5.121 M5.695 7.055 C 5.464 7.130,5.255 7.300,5.128 7.516 C 5.037 7.672,5.020 7.746,5.020 8.000 C 5.020 8.257,5.036 8.327,5.133 8.492 C 5.651 9.374,6.998 9.018,6.998 8.000 C 6.998 7.623,6.792 7.281,6.463 7.112 C 6.265 7.010,5.911 6.984,5.695 7.055 M18.861 13.121 C 19.825 13.426,20.585 14.187,20.875 15.139 C 20.958 15.412,20.973 15.542,20.973 16.000 C 20.973 16.458,20.958 16.588,20.875 16.861 C 20.582 17.822,19.820 18.580,18.840 18.886 L 18.540 18.980 12.000 18.980 L 5.460 18.980 5.160 18.886 C 4.180 18.580,3.417 17.821,3.125 16.861 C 3.000 16.447,2.983 15.650,3.091 15.240 C 3.385 14.126,4.360 13.236,5.499 13.043 C 5.609 13.024,8.589 13.011,12.120 13.014 L 18.540 13.020 18.861 13.121 M5.695 15.055 C 5.464 15.130,5.255 15.300,5.128 15.516 C 5.037 15.672,5.020 15.746,5.020 16.000 C 5.020 16.257,5.036 16.327,5.133 16.492 C 5.651 17.374,6.998 17.018,6.998 16.000 C 6.998 15.623,6.792 15.281,6.463 15.112 C 6.265 15.010,5.911 14.984,5.695 15.055 " stroke="none" fill-rule="evenodd" fill="black"></path></svg>