<svg width="24" height="24" viewBox="0 0 24 24" fill="none" xmlns="http://www.w3.org/2000/svg"><path d="M11.456 1.040 C 10.438 1.183,9.512 1.832,9.058 2.722 C 8.997 2.842,8.799 3.267,8.619 3.667 C 8.439 4.067,8.234 4.466,8.165 4.553 C 8.000 4.762,7.717 4.939,7.415 5.023 C 7.180 5.087,7.132 5.087,6.295 5.004 C 5.814 4.956,5.366 4.911,5.300 4.903 C 5.088 4.878,4.468 4.958,4.200 5.045 C 3.179 5.377,2.409 6.149,2.089 7.160 C 1.978 7.511,1.960 7.638,1.955 8.102 C 1.948 8.889,2.153 9.436,2.780 10.301 C 3.618 11.456,3.653 11.524,3.653 12.000 C 3.653 12.476,3.618 12.544,2.780 13.699 C 2.153 14.564,1.948 15.111,1.955 15.898 C 1.960 16.362,1.978 16.489,2.089 16.840 C 2.488 18.100,3.579 18.970,4.923 19.100 C 5.096 19.116,5.515 19.090,6.147 19.022 C 7.235 18.906,7.369 18.915,7.770 19.128 C 8.103 19.306,8.255 19.516,8.578 20.244 C 9.101 21.422,9.272 21.711,9.666 22.083 C 10.060 22.455,10.425 22.677,10.903 22.835 C 12.264 23.287,13.808 22.740,14.590 21.531 C 14.675 21.399,14.895 20.952,15.080 20.536 C 15.481 19.633,15.615 19.408,15.869 19.222 C 16.272 18.927,16.520 18.903,17.760 19.041 C 18.905 19.168,19.429 19.101,20.114 18.737 C 20.815 18.366,21.302 17.836,21.589 17.131 C 21.796 16.625,21.852 16.299,21.826 15.760 C 21.787 14.931,21.615 14.533,20.835 13.460 C 20.183 12.564,20.147 12.489,20.143 12.020 C 20.139 11.558,20.201 11.423,20.785 10.620 C 21.313 9.893,21.447 9.686,21.572 9.400 C 21.782 8.923,21.817 8.737,21.817 8.100 C 21.816 7.533,21.810 7.479,21.689 7.120 C 21.513 6.594,21.317 6.278,20.920 5.876 C 20.369 5.318,19.728 5.001,18.999 4.924 C 18.729 4.896,18.450 4.909,17.635 4.989 L 16.609 5.091 16.332 5.006 C 16.023 4.913,15.782 4.756,15.620 4.544 C 15.561 4.466,15.327 3.998,15.101 3.503 C 14.875 3.008,14.607 2.488,14.507 2.348 C 14.085 1.757,13.350 1.258,12.669 1.101 C 12.343 1.026,11.762 0.996,11.456 1.040 M12.422 3.131 C 12.754 3.299,12.911 3.510,13.217 4.200 C 13.752 5.409,13.899 5.660,14.301 6.062 C 14.848 6.610,15.568 6.954,16.360 7.047 C 16.689 7.086,16.852 7.080,17.580 7.001 C 18.042 6.950,18.532 6.910,18.670 6.912 C 19.107 6.916,19.516 7.171,19.729 7.571 C 19.804 7.710,19.819 7.803,19.819 8.100 C 19.819 8.542,19.819 8.543,19.139 9.480 C 18.303 10.633,18.142 11.040,18.142 12.000 C 18.143 12.981,18.301 13.382,19.146 14.541 C 19.433 14.937,19.701 15.323,19.741 15.400 C 19.844 15.602,19.866 16.027,19.785 16.265 C 19.641 16.685,19.352 16.953,18.920 17.063 C 18.690 17.122,18.622 17.121,17.867 17.039 C 16.857 16.930,16.328 16.930,15.900 17.038 C 15.474 17.146,14.909 17.429,14.551 17.714 C 14.024 18.134,13.820 18.442,13.316 19.584 C 12.978 20.349,12.928 20.439,12.723 20.641 C 12.282 21.078,11.645 21.120,11.154 20.744 C 10.951 20.589,10.841 20.400,10.481 19.580 C 10.011 18.512,9.755 18.123,9.260 17.725 C 8.716 17.288,8.088 17.029,7.400 16.958 C 7.077 16.925,6.871 16.934,6.088 17.018 C 5.378 17.094,5.112 17.109,4.957 17.079 C 4.541 17.001,4.264 16.796,4.083 16.433 C 3.982 16.232,3.960 16.138,3.960 15.919 C 3.960 15.771,3.987 15.574,4.020 15.480 C 4.053 15.387,4.284 15.029,4.533 14.685 C 5.302 13.624,5.374 13.500,5.546 12.932 C 5.640 12.620,5.652 12.513,5.652 12.000 C 5.652 11.487,5.640 11.380,5.546 11.068 C 5.374 10.500,5.302 10.376,4.533 9.315 C 4.284 8.971,4.053 8.613,4.020 8.520 C 3.987 8.426,3.960 8.229,3.960 8.081 C 3.960 7.629,4.224 7.211,4.630 7.018 C 4.898 6.891,5.129 6.886,6.094 6.991 C 6.908 7.079,7.069 7.086,7.420 7.048 C 8.322 6.948,9.194 6.479,9.729 5.805 C 9.993 5.473,10.088 5.298,10.504 4.367 C 10.664 4.009,10.842 3.636,10.899 3.539 C 11.013 3.343,11.285 3.136,11.536 3.054 C 11.783 2.973,12.179 3.008,12.422 3.131 M11.358 8.061 C 10.241 8.235,9.156 8.965,8.579 9.932 C 7.314 12.050,8.229 14.784,10.512 15.704 C 12.832 16.639,15.415 15.239,15.917 12.773 C 16.368 10.563,14.845 8.396,12.605 8.058 C 12.144 7.989,11.816 7.990,11.358 8.061 M12.478 10.062 C 13.150 10.215,13.750 10.801,13.927 11.477 C 14.118 12.211,13.903 12.948,13.347 13.465 C 12.721 14.046,11.839 14.165,11.063 13.771 C 10.773 13.624,10.360 13.195,10.207 12.880 C 9.848 12.143,9.981 11.249,10.539 10.649 C 11.044 10.105,11.741 9.895,12.478 10.062 " stroke="none" fill-rule="evenodd" fill="black"></path></svg>