<svg width="24" height="24" viewBox="0 0 24 24" fill="none" xmlns="http://www.w3.org/2000/svg"><path d="M17.358 4.061 C 15.851 4.296,14.597 5.415,14.143 6.930 C 14.124 6.996,13.820 7.000,8.508 7.000 C 3.866 7.000,2.861 7.010,2.710 7.055 C 2.467 7.128,2.260 7.293,2.128 7.516 C 2.037 7.672,2.020 7.746,2.020 8.000 C 2.020 8.256,2.036 8.328,2.131 8.489 C 2.256 8.702,2.449 8.864,2.670 8.943 C 2.793 8.987,3.855 8.997,8.471 8.998 C 13.818 9.000,14.124 9.004,14.143 9.070 C 14.510 10.292,15.362 11.240,16.512 11.704 C 18.558 12.528,20.877 11.538,21.704 9.488 C 22.090 8.530,22.090 7.469,21.705 6.516 C 21.172 5.197,20.001 4.269,18.605 4.058 C 18.144 3.989,17.816 3.990,17.358 4.061 M18.523 6.073 C 19.262 6.266,19.850 6.924,19.967 7.690 C 20.067 8.343,19.873 8.933,19.403 9.404 C 19.002 9.807,18.547 10.000,18.000 10.000 C 17.485 10.000,17.038 9.822,16.653 9.465 C 15.323 8.229,16.189 6.005,18.000 6.005 C 18.143 6.005,18.378 6.036,18.523 6.073 M5.358 12.061 C 4.230 12.237,3.143 12.974,2.569 13.953 C 1.320 16.083,2.233 18.785,4.512 19.704 C 5.471 20.090,6.529 20.090,7.488 19.704 C 8.522 19.287,9.323 18.478,9.711 17.460 C 9.778 17.284,9.843 17.109,9.855 17.070 C 9.876 17.004,10.183 17.000,15.529 16.998 C 20.145 16.997,21.207 16.987,21.330 16.943 C 21.551 16.864,21.744 16.702,21.869 16.489 C 21.964 16.328,21.980 16.256,21.980 16.000 C 21.980 15.746,21.963 15.672,21.872 15.516 C 21.740 15.293,21.533 15.128,21.290 15.055 C 21.139 15.010,20.134 15.000,15.492 15.000 C 10.180 15.000,9.876 14.996,9.855 14.930 C 9.843 14.892,9.778 14.716,9.711 14.540 C 9.213 13.232,8.008 12.270,6.605 12.058 C 6.144 11.989,5.816 11.990,5.358 12.061 M6.523 14.073 C 7.262 14.266,7.850 14.924,7.967 15.690 C 8.067 16.343,7.873 16.933,7.403 17.404 C 7.002 17.807,6.547 18.000,6.000 18.000 C 5.485 18.000,5.038 17.822,4.653 17.465 C 3.323 16.229,4.189 14.005,6.000 14.005 C 6.143 14.005,6.378 14.036,6.523 14.073 " stroke="none" fill-rule="evenodd" fill="black"></path></svg>