<svg width="24" height="24" viewBox="0 0 24 24" fill="none" xmlns="http://www.w3.org/2000/svg"><path d="M11.511 1.039 C 10.849 1.160,10.239 1.525,9.801 2.064 C 9.423 2.528,9.227 3.066,9.178 3.773 C 9.145 4.236,9.073 4.358,8.785 4.439 C 8.537 4.508,8.392 4.463,8.150 4.242 C 7.749 3.877,7.232 3.607,6.769 3.521 C 6.406 3.454,5.849 3.471,5.505 3.559 C 4.518 3.811,3.731 4.598,3.479 5.585 C 3.374 5.994,3.374 6.564,3.477 6.969 C 3.600 7.449,3.818 7.841,4.186 8.245 C 4.460 8.547,4.458 8.870,4.180 9.115 C 4.068 9.213,3.999 9.237,3.773 9.256 C 3.006 9.320,2.510 9.503,2.032 9.897 C 1.332 10.474,0.959 11.332,1.012 12.239 C 1.055 12.988,1.295 13.505,1.856 14.061 C 2.420 14.620,2.862 14.818,3.685 14.879 C 4.185 14.916,4.290 14.964,4.414 15.214 C 4.525 15.438,4.479 15.584,4.198 15.902 C 3.913 16.225,3.751 16.496,3.622 16.868 C 3.480 17.275,3.431 17.706,3.481 18.109 C 3.660 19.549,4.841 20.600,6.280 20.600 C 7.037 20.600,7.653 20.354,8.245 19.814 C 8.546 19.541,8.870 19.542,9.112 19.817 C 9.215 19.934,9.231 19.989,9.255 20.309 C 9.306 20.987,9.499 21.485,9.899 21.970 C 10.474 22.668,11.333 23.041,12.239 22.988 C 12.988 22.945,13.505 22.705,14.061 22.144 C 14.620 21.580,14.818 21.138,14.879 20.315 C 14.916 19.815,14.964 19.710,15.214 19.586 C 15.438 19.475,15.584 19.521,15.902 19.802 C 16.225 20.087,16.496 20.248,16.871 20.380 C 18.694 21.016,20.600 19.657,20.600 17.720 C 20.600 16.963,20.354 16.347,19.814 15.755 C 19.544 15.458,19.541 15.164,19.804 14.943 C 19.897 14.865,19.980 14.843,20.269 14.821 C 21.154 14.753,21.797 14.435,22.347 13.793 C 22.598 13.499,22.762 13.197,22.886 12.800 C 22.965 12.547,22.980 12.418,22.977 11.980 C 22.975 11.530,22.960 11.417,22.869 11.140 C 22.500 10.025,21.418 9.201,20.324 9.200 C 19.835 9.199,19.648 9.093,19.561 8.767 C 19.494 8.515,19.537 8.398,19.804 8.096 C 20.087 7.775,20.249 7.504,20.380 7.129 C 20.843 5.801,20.248 4.336,18.988 3.703 C 18.561 3.488,18.197 3.401,17.720 3.401 C 17.062 3.401,16.446 3.619,15.946 4.028 C 15.817 4.134,15.667 4.256,15.613 4.300 C 15.544 4.356,15.455 4.380,15.314 4.380 C 15.135 4.380,15.100 4.365,14.981 4.235 C 14.858 4.101,14.846 4.064,14.821 3.735 C 14.753 2.842,14.411 2.156,13.780 1.645 C 13.259 1.223,12.784 1.044,12.120 1.019 C 11.889 1.011,11.615 1.020,11.511 1.039 M12.457 3.150 C 12.701 3.321,12.785 3.504,12.818 3.934 C 12.855 4.423,12.900 4.598,13.088 4.995 C 13.371 5.592,13.931 6.064,14.640 6.305 C 14.976 6.419,15.689 6.410,16.060 6.287 C 16.432 6.164,16.728 5.994,17.024 5.735 C 17.313 5.481,17.490 5.400,17.749 5.401 C 17.981 5.401,18.203 5.519,18.374 5.731 C 18.470 5.850,18.498 5.929,18.512 6.116 C 18.535 6.431,18.480 6.574,18.230 6.862 C 17.740 7.424,17.550 7.892,17.544 8.560 C 17.537 9.340,17.768 9.930,18.280 10.440 C 18.764 10.922,19.256 11.130,20.039 11.184 C 20.505 11.216,20.675 11.293,20.858 11.554 C 20.965 11.706,20.980 11.760,20.980 12.000 C 20.980 12.240,20.965 12.294,20.858 12.447 C 20.672 12.711,20.491 12.792,19.975 12.837 C 19.259 12.900,18.812 13.101,18.337 13.577 C 17.390 14.523,17.360 15.990,18.266 17.027 C 18.385 17.163,18.508 17.338,18.541 17.416 C 18.731 17.871,18.449 18.411,17.967 18.515 C 17.670 18.579,17.445 18.497,17.100 18.199 C 16.036 17.281,14.608 17.315,13.636 18.281 C 13.141 18.773,12.886 19.403,12.881 20.144 C 12.876 21.024,11.753 21.330,11.359 20.559 C 11.312 20.466,11.267 20.256,11.244 20.014 C 11.222 19.797,11.175 19.521,11.139 19.400 C 10.990 18.902,10.563 18.332,10.132 18.057 C 9.099 17.396,7.931 17.468,6.993 18.251 C 6.616 18.567,6.506 18.614,6.207 18.593 C 5.795 18.563,5.514 18.278,5.487 17.864 C 5.468 17.561,5.527 17.409,5.767 17.140 C 6.174 16.684,6.379 16.245,6.451 15.676 C 6.579 14.665,5.997 13.606,5.075 13.168 C 4.674 12.978,4.500 12.934,4.000 12.899 C 3.527 12.866,3.324 12.778,3.157 12.536 C 2.873 12.122,3.003 11.583,3.441 11.359 C 3.534 11.312,3.744 11.267,3.986 11.244 C 4.720 11.172,5.156 10.971,5.642 10.483 C 5.989 10.134,6.193 9.761,6.328 9.227 C 6.521 8.464,6.302 7.624,5.741 6.980 C 5.465 6.663,5.400 6.528,5.401 6.272 C 5.401 6.017,5.511 5.803,5.731 5.626 C 5.856 5.525,5.928 5.501,6.133 5.488 C 6.440 5.468,6.590 5.526,6.860 5.767 C 7.145 6.022,7.382 6.173,7.680 6.291 C 8.223 6.506,8.741 6.527,9.349 6.358 C 9.812 6.230,10.100 6.061,10.440 5.720 C 10.920 5.237,11.127 4.750,11.183 3.971 C 11.215 3.524,11.288 3.339,11.497 3.180 C 11.684 3.037,11.820 2.999,12.078 3.019 C 12.234 3.031,12.342 3.068,12.457 3.150 M11.358 8.061 C 10.230 8.237,9.143 8.974,8.569 9.953 C 7.320 12.083,8.233 14.785,10.512 15.704 C 12.558 16.528,14.877 15.538,15.704 13.488 C 16.090 12.530,16.090 11.469,15.705 10.516 C 15.172 9.197,14.001 8.269,12.605 8.058 C 12.144 7.989,11.816 7.990,11.358 8.061 M12.523 10.073 C 13.262 10.266,13.850 10.924,13.967 11.690 C 14.067 12.343,13.873 12.933,13.403 13.404 C 13.002 13.807,12.547 14.000,12.000 14.000 C 11.485 14.000,11.038 13.822,10.653 13.465 C 9.323 12.229,10.189 10.005,12.000 10.005 C 12.143 10.005,12.378 10.036,12.523 10.073 " stroke="none" fill-rule="evenodd" fill="black"></path></svg>