<svg width="24" height="24" viewBox="0 0 24 24" fill="none" xmlns="http://www.w3.org/2000/svg"><path d="M11.098 2.635 C 10.888 2.689,10.562 2.888,10.413 3.053 C 10.241 3.244,10.095 3.551,10.040 3.838 C 10.016 3.964,10.000 4.903,10.000 6.137 L 10.000 8.222 9.510 8.374 C 6.800 9.211,4.498 11.137,3.198 13.656 C 2.565 14.882,2.170 16.233,2.043 17.600 C 1.982 18.253,1.990 19.303,2.057 19.490 C 2.241 20.006,2.797 20.273,3.325 20.099 C 3.502 20.041,3.589 19.975,3.820 19.724 C 5.048 18.390,6.134 17.581,7.553 16.943 C 8.210 16.648,9.198 16.338,9.850 16.223 L 10.000 16.196 10.000 18.073 C 10.000 19.166,10.017 20.038,10.040 20.162 C 10.134 20.655,10.394 21.020,10.809 21.242 C 11.024 21.357,11.108 21.378,11.400 21.392 C 11.812 21.411,12.072 21.328,12.438 21.059 C 12.755 20.825,21.575 13.264,21.796 13.037 C 22.139 12.682,22.296 12.191,22.205 11.753 C 22.144 11.456,22.013 11.191,21.832 10.999 C 21.700 10.858,12.927 3.325,12.530 3.012 C 12.174 2.730,11.916 2.627,11.544 2.614 C 11.366 2.608,11.165 2.618,11.098 2.635 M16.051 8.652 L 19.963 12.003 15.991 15.407 L 12.020 18.812 12.000 16.796 C 11.980 14.813,11.979 14.777,11.892 14.615 C 11.724 14.302,11.366 14.082,11.020 14.081 C 10.184 14.077,8.550 14.416,7.453 14.822 C 6.580 15.144,5.246 15.855,4.548 16.370 C 4.399 16.480,4.268 16.562,4.258 16.551 C 4.247 16.541,4.285 16.374,4.341 16.181 C 4.782 14.658,5.570 13.358,6.703 12.284 C 7.316 11.702,7.837 11.329,8.620 10.910 C 9.363 10.512,9.955 10.297,10.918 10.075 C 11.442 9.954,11.631 9.859,11.795 9.638 C 11.997 9.365,12.000 9.331,12.000 7.190 C 12.000 5.300,12.004 5.193,12.069 5.245 C 12.107 5.275,13.899 6.808,16.051 8.652 " stroke="none" fill-rule="evenodd" fill="black"></path></svg>