<svg width="24" height="24" viewBox="0 0 24 24" fill="none" xmlns="http://www.w3.org/2000/svg"><path d="M11.640 2.068 C 11.486 2.121,11.151 2.438,9.347 4.235 C 8.185 5.393,7.189 6.416,7.134 6.508 C 6.862 6.968,7.032 7.587,7.508 7.867 C 7.673 7.964,7.742 7.980,8.000 7.979 C 8.213 7.979,8.341 7.957,8.440 7.905 C 8.517 7.864,9.124 7.289,9.789 6.627 L 10.999 5.423 11.009 10.365 L 11.020 15.306 11.141 15.503 C 11.209 15.613,11.346 15.756,11.452 15.828 C 11.923 16.144,12.554 15.999,12.859 15.503 L 12.980 15.306 12.991 10.365 L 13.001 5.423 14.211 6.627 C 14.876 7.289,15.483 7.864,15.560 7.905 C 15.659 7.957,15.787 7.979,16.000 7.979 C 16.258 7.980,16.327 7.964,16.492 7.867 C 16.968 7.587,17.138 6.968,16.866 6.508 C 16.811 6.416,15.815 5.393,14.653 4.235 C 12.748 2.338,12.521 2.124,12.343 2.065 C 12.102 1.985,11.878 1.986,11.640 2.068 M2.695 11.057 C 2.466 11.129,2.256 11.299,2.128 11.516 L 2.020 11.700 2.008 14.660 C 1.993 18.110,2.016 18.557,2.245 19.320 C 2.575 20.421,3.578 21.423,4.680 21.755 C 5.474 21.994,5.642 22.000,12.000 22.000 C 18.358 22.000,18.526 21.994,19.320 21.755 C 20.422 21.423,21.425 20.421,21.755 19.320 C 21.984 18.557,22.007 18.110,21.992 14.660 L 21.980 11.700 21.871 11.514 C 21.479 10.848,20.521 10.848,20.129 11.514 L 20.020 11.700 19.996 14.960 C 19.969 18.473,19.967 18.511,19.752 18.952 C 19.626 19.211,19.190 19.638,18.918 19.768 C 18.466 19.985,18.627 19.980,12.000 19.980 C 5.383 19.980,5.538 19.985,5.082 19.771 C 4.812 19.643,4.377 19.217,4.248 18.952 C 4.033 18.511,4.031 18.473,4.004 14.960 L 3.980 11.700 3.872 11.516 C 3.628 11.101,3.150 10.915,2.695 11.057 " stroke="none" fill-rule="evenodd" fill="black"></path></svg>