<svg width="24" height="24" viewBox="0 0 24 24" fill="none" xmlns="http://www.w3.org/2000/svg"><path d="M5.920 2.042 C 5.155 2.091,4.674 2.204,4.180 2.451 C 3.089 2.996,2.357 3.961,2.124 5.160 C 2.013 5.729,2.000 6.455,2.000 12.000 C 2.000 18.358,2.006 18.526,2.245 19.320 C 2.577 20.422,3.578 21.423,4.680 21.755 C 5.474 21.994,5.642 22.000,12.000 22.000 C 18.358 22.000,18.526 21.994,19.320 21.755 C 20.422 21.423,21.425 20.421,21.755 19.320 C 21.971 18.600,22.008 18.034,21.993 15.660 L 21.980 13.700 21.871 13.514 C 21.479 12.848,20.521 12.848,20.129 13.514 L 20.020 13.700 19.994 15.960 C 19.966 18.378,19.953 18.539,19.752 18.952 C 19.626 19.211,19.190 19.638,18.918 19.768 C 18.466 19.985,18.627 19.980,12.000 19.980 C 5.383 19.980,5.538 19.985,5.082 19.771 C 4.812 19.643,4.377 19.217,4.248 18.952 C 4.198 18.849,4.126 18.633,4.088 18.472 C 4.025 18.203,4.020 17.687,4.020 12.000 C 4.020 6.313,4.025 5.797,4.088 5.528 C 4.126 5.367,4.198 5.151,4.248 5.048 C 4.366 4.806,4.806 4.366,5.048 4.248 C 5.461 4.047,5.622 4.034,8.040 4.006 L 10.300 3.980 10.492 3.867 C 11.248 3.423,11.123 2.306,10.290 2.055 C 10.145 2.011,9.721 2.001,8.244 2.006 C 7.219 2.009,6.173 2.025,5.920 2.042 M17.670 2.061 C 17.448 2.142,17.250 2.309,17.128 2.516 C 17.036 2.672,17.020 2.745,17.021 3.000 C 17.021 3.213,17.043 3.340,17.096 3.440 C 17.136 3.517,17.484 3.897,17.867 4.284 L 18.565 4.988 17.153 5.012 C 15.661 5.037,15.179 5.082,14.680 5.246 C 13.730 5.558,12.913 6.256,12.465 7.141 C 12.075 7.909,11.988 8.616,12.007 10.843 L 12.020 12.306 12.141 12.503 C 12.543 13.156,13.457 13.156,13.859 12.503 L 13.980 12.306 14.007 10.543 C 14.042 8.273,14.072 8.128,14.600 7.600 C 15.110 7.090,15.316 7.043,17.180 7.013 L 18.580 6.991 17.875 7.706 C 17.487 8.099,17.139 8.481,17.101 8.555 C 16.872 9.008,17.056 9.601,17.508 9.867 C 17.673 9.964,17.742 9.980,18.000 9.979 C 18.212 9.979,18.341 9.957,18.440 9.905 C 18.632 9.804,21.739 6.704,21.873 6.480 C 21.964 6.328,21.980 6.254,21.980 6.000 C 21.980 5.746,21.963 5.672,21.873 5.520 C 21.814 5.421,21.040 4.618,20.153 3.736 C 18.714 2.305,18.519 2.124,18.343 2.066 C 18.108 1.987,17.875 1.986,17.670 2.061 " stroke="none" fill-rule="evenodd" fill="black"></path></svg>