<svg width="24" height="24" viewBox="0 0 24 24" fill="none" xmlns="http://www.w3.org/2000/svg"><path d="M11.640 2.068 C 11.486 2.121,11.151 2.438,9.347 4.235 C 8.185 5.393,7.189 6.416,7.134 6.508 C 6.862 6.968,7.032 7.587,7.508 7.867 C 7.673 7.964,7.742 7.980,8.000 7.979 C 8.213 7.979,8.341 7.957,8.440 7.905 C 8.517 7.864,9.124 7.289,9.789 6.627 L 10.999 5.423 11.009 10.365 L 11.020 15.306 11.141 15.503 C 11.209 15.613,11.346 15.756,11.452 15.828 C 11.923 16.144,12.554 15.999,12.859 15.503 L 12.980 15.306 12.991 10.365 L 13.001 5.423 14.211 6.627 C 14.876 7.289,15.483 7.864,15.560 7.905 C 15.659 7.957,15.787 7.979,16.000 7.979 C 16.258 7.980,16.327 7.964,16.492 7.867 C 16.968 7.587,17.138 6.968,16.866 6.508 C 16.811 6.416,15.815 5.393,14.653 4.235 C 12.748 2.338,12.521 2.124,12.343 2.065 C 12.102 1.985,11.878 1.986,11.640 2.068 M5.516 10.044 C 4.678 10.125,3.817 10.544,3.181 11.181 C 2.548 11.814,2.140 12.648,2.041 13.511 C 1.988 13.967,1.988 17.612,2.041 18.180 C 2.109 18.928,2.225 19.387,2.465 19.859 C 2.915 20.749,3.772 21.482,4.680 21.755 C 5.474 21.994,5.642 22.000,12.000 22.000 C 18.358 22.000,18.526 21.994,19.320 21.755 C 20.228 21.482,21.085 20.749,21.535 19.859 C 21.775 19.387,21.891 18.928,21.959 18.180 C 22.012 17.612,22.012 13.967,21.959 13.511 C 21.810 12.205,20.981 11.034,19.780 10.430 C 19.149 10.113,18.533 10.000,17.436 10.000 C 16.656 10.000,16.365 10.113,16.135 10.504 C 15.863 10.969,16.031 11.587,16.506 11.866 C 16.691 11.974,16.713 11.977,17.566 12.008 C 18.350 12.037,18.464 12.050,18.699 12.138 C 19.259 12.349,19.638 12.727,19.871 13.307 L 19.980 13.580 19.979 15.880 C 19.977 18.369,19.967 18.511,19.752 18.952 C 19.626 19.211,19.190 19.638,18.918 19.768 C 18.466 19.985,18.627 19.980,12.000 19.980 C 5.383 19.980,5.538 19.985,5.082 19.771 C 4.812 19.643,4.377 19.217,4.248 18.952 C 4.033 18.511,4.023 18.369,4.021 15.880 L 4.020 13.580 4.129 13.307 C 4.362 12.727,4.741 12.349,5.301 12.138 C 5.536 12.050,5.650 12.037,6.434 12.008 C 7.287 11.977,7.309 11.974,7.494 11.866 C 8.248 11.424,8.121 10.305,7.290 10.055 C 7.086 9.993,6.101 9.987,5.516 10.044 " stroke="none" fill-rule="evenodd" fill="black"></path></svg>