<svg width="24" height="24" viewBox="0 0 24 24" fill="none" xmlns="http://www.w3.org/2000/svg"><path d="M14.695 2.057 C 14.466 2.129,14.256 2.299,14.128 2.516 C 14.037 2.672,14.020 2.746,14.020 3.000 C 14.020 3.256,14.036 3.328,14.131 3.489 C 14.256 3.702,14.449 3.864,14.670 3.943 C 14.787 3.985,15.234 3.997,16.700 3.998 L 18.579 4.000 15.374 7.210 C 13.611 8.976,12.135 10.483,12.095 10.560 C 12.043 10.659,12.021 10.788,12.021 11.000 C 12.020 11.258,12.036 11.327,12.133 11.492 C 12.263 11.714,12.502 11.901,12.736 11.965 C 12.938 12.019,13.266 11.989,13.445 11.899 C 13.519 11.862,15.024 10.390,16.789 8.628 L 19.997 5.424 20.009 7.365 L 20.020 9.306 20.141 9.503 C 20.543 10.156,21.457 10.156,21.859 9.503 L 21.980 9.306 21.980 6.003 L 21.980 2.700 21.872 2.516 C 21.747 2.303,21.550 2.141,21.316 2.058 C 21.085 1.977,14.955 1.976,14.695 2.057 M5.920 4.042 C 5.155 4.091,4.674 4.204,4.180 4.451 C 3.089 4.996,2.357 5.961,2.124 7.160 C 2.015 7.718,2.000 8.439,2.000 13.000 C 2.000 18.284,2.010 18.540,2.245 19.320 C 2.577 20.422,3.578 21.423,4.680 21.755 C 5.460 21.990,5.716 22.000,11.000 22.000 C 16.284 22.000,16.540 21.990,17.320 21.755 C 18.422 21.423,19.425 20.421,19.755 19.320 C 19.971 18.600,20.008 18.034,19.993 15.660 L 19.980 13.700 19.871 13.514 C 19.479 12.848,18.521 12.848,18.129 13.514 L 18.020 13.700 17.994 15.960 C 17.966 18.378,17.953 18.539,17.752 18.952 C 17.626 19.211,17.190 19.638,16.918 19.768 C 16.471 19.983,16.547 19.980,11.000 19.980 C 5.462 19.980,5.533 19.983,5.082 19.771 C 4.812 19.643,4.377 19.217,4.248 18.952 C 4.198 18.849,4.126 18.633,4.088 18.472 C 4.026 18.205,4.020 17.744,4.020 13.000 C 4.020 8.256,4.026 7.795,4.088 7.528 C 4.126 7.367,4.198 7.151,4.248 7.048 C 4.366 6.806,4.806 6.366,5.048 6.248 C 5.461 6.047,5.622 6.034,8.040 6.006 L 10.300 5.980 10.492 5.867 C 11.248 5.423,11.123 4.306,10.290 4.055 C 10.145 4.011,9.721 4.001,8.244 4.006 C 7.219 4.009,6.173 4.025,5.920 4.042 " stroke="none" fill-rule="evenodd" fill="black"></path></svg>