<svg width="24" height="24" viewBox="0 0 24 24" fill="none" xmlns="http://www.w3.org/2000/svg"><path d="M11.553 1.120 C 11.232 1.201,4.965 3.577,4.638 3.741 C 4.021 4.051,3.575 4.504,3.294 5.107 C 3.015 5.705,3.026 5.554,3.009 9.120 C 2.999 11.299,3.009 12.482,3.039 12.780 C 3.212 14.490,3.994 16.259,5.303 17.900 C 5.719 18.421,7.133 19.847,7.700 20.317 C 8.877 21.291,10.667 22.485,11.342 22.745 C 11.739 22.897,12.261 22.897,12.658 22.745 C 13.332 22.485,15.116 21.296,16.300 20.316 C 16.865 19.849,18.280 18.422,18.697 17.900 C 19.995 16.274,20.789 14.486,20.958 12.806 C 21.015 12.241,21.014 6.391,20.957 5.973 C 20.825 5.009,20.262 4.204,19.415 3.770 C 19.189 3.654,17.614 3.040,15.740 2.337 L 12.460 1.107 12.080 1.095 C 11.871 1.089,11.634 1.100,11.553 1.120 M15.024 4.204 C 16.672 4.822,18.155 5.389,18.319 5.465 C 18.662 5.623,18.773 5.715,18.894 5.940 C 18.980 6.099,18.980 6.117,18.993 9.120 C 19.002 11.156,18.991 12.283,18.961 12.580 C 18.782 14.338,17.847 16.036,16.098 17.780 C 14.996 18.879,13.521 20.000,12.170 20.764 L 12.000 20.860 11.830 20.764 C 10.479 20.000,9.004 18.879,7.902 17.780 C 6.153 16.036,5.218 14.338,5.039 12.580 C 5.009 12.283,4.998 11.156,5.007 9.120 C 5.020 6.117,5.020 6.099,5.106 5.940 C 5.225 5.719,5.335 5.626,5.660 5.474 C 5.942 5.342,11.902 3.088,11.984 3.083 C 12.007 3.081,13.375 3.586,15.024 4.204 M11.695 5.057 C 11.466 5.129,11.256 5.299,11.129 5.516 C 11.035 5.675,11.019 5.752,11.006 6.109 L 10.991 6.520 10.798 6.520 C 9.945 6.520,8.975 7.092,8.458 7.901 C 7.850 8.851,7.850 10.149,8.458 11.099 C 8.764 11.579,9.258 12.006,9.776 12.241 C 10.277 12.468,10.422 12.487,11.860 12.505 C 12.586 12.514,13.249 12.540,13.332 12.563 C 13.521 12.615,13.778 12.841,13.892 13.057 C 13.956 13.179,13.978 13.291,13.978 13.500 C 13.978 13.831,13.890 14.029,13.648 14.248 C 13.379 14.491,13.319 14.500,11.920 14.500 C 10.379 14.500,10.434 14.517,10.015 13.912 C 9.668 13.411,8.842 13.386,8.446 13.865 C 8.056 14.336,8.162 14.901,8.767 15.577 C 9.242 16.108,9.894 16.409,10.765 16.501 L 10.991 16.525 11.007 16.917 C 11.021 17.269,11.035 17.331,11.142 17.505 C 11.542 18.155,12.458 18.155,12.857 17.506 C 12.963 17.333,12.979 17.268,12.993 16.926 C 13.003 16.702,13.029 16.528,13.055 16.511 C 13.080 16.494,13.181 16.481,13.280 16.480 C 14.068 16.475,15.043 15.880,15.542 15.099 C 16.150 14.149,16.150 12.851,15.542 11.901 C 15.153 11.293,14.458 10.774,13.793 10.595 C 13.688 10.567,13.064 10.539,12.200 10.523 C 10.633 10.495,10.599 10.489,10.326 10.228 C 10.104 10.015,10.022 9.819,10.022 9.500 C 10.022 9.181,10.104 8.985,10.326 8.772 C 10.583 8.526,10.623 8.520,12.060 8.520 C 13.650 8.520,13.577 8.498,13.986 9.089 C 14.074 9.216,14.179 9.303,14.339 9.381 C 14.916 9.663,15.568 9.376,15.747 8.761 C 15.860 8.375,15.725 8.000,15.287 7.484 C 14.805 6.917,13.981 6.522,13.275 6.521 L 13.009 6.520 12.994 6.109 C 12.981 5.752,12.965 5.675,12.871 5.516 C 12.628 5.101,12.150 4.915,11.695 5.057 " stroke="none" fill-rule="evenodd" fill="black"></path></svg>