<svg width="24" height="24" viewBox="0 0 24 24" fill="none" xmlns="http://www.w3.org/2000/svg"><path d="M11.494 1.141 C 11.097 1.248,5.176 3.488,4.740 3.696 C 4.039 4.031,3.593 4.466,3.294 5.107 C 3.015 5.705,3.026 5.554,3.009 9.120 C 2.999 11.299,3.009 12.482,3.039 12.780 C 3.212 14.490,3.994 16.259,5.303 17.900 C 5.720 18.422,7.134 19.848,7.700 20.316 C 8.884 21.296,10.668 22.485,11.342 22.745 C 11.740 22.898,12.261 22.897,12.659 22.744 C 13.421 22.451,15.438 21.073,16.600 20.051 C 17.257 19.474,18.253 18.451,18.695 17.900 C 19.989 16.288,20.788 14.487,20.958 12.806 C 21.015 12.241,21.014 6.391,20.957 5.973 C 20.866 5.308,20.574 4.727,20.091 4.250 C 19.841 4.003,19.724 3.924,19.308 3.723 C 18.819 3.486,12.927 1.253,12.494 1.140 C 12.211 1.066,11.769 1.067,11.494 1.141 M15.024 4.204 C 16.672 4.822,18.155 5.389,18.319 5.465 C 18.662 5.623,18.773 5.715,18.894 5.940 C 18.980 6.099,18.980 6.117,18.993 9.120 C 19.007 12.360,18.993 12.707,18.814 13.440 C 18.268 15.684,16.248 18.098,13.260 20.081 C 12.619 20.506,12.065 20.840,12.000 20.840 C 11.937 20.840,11.206 20.399,10.655 20.028 C 9.582 19.306,8.730 18.610,7.880 17.760 C 6.149 16.028,5.217 14.329,5.039 12.580 C 5.009 12.283,4.998 11.156,5.007 9.120 C 5.020 6.117,5.020 6.099,5.106 5.940 C 5.225 5.719,5.335 5.626,5.660 5.474 C 5.942 5.342,11.902 3.088,11.984 3.083 C 12.007 3.081,13.375 3.586,15.024 4.204 M12.600 6.583 C 12.513 6.620,11.845 7.256,10.826 8.271 C 9.058 10.034,9.000 10.104,9.001 10.500 C 9.002 10.739,9.115 11.008,9.292 11.194 C 9.381 11.286,9.862 11.549,10.850 12.044 C 11.637 12.438,12.280 12.774,12.280 12.790 C 12.280 12.807,11.810 13.288,11.236 13.860 C 10.100 14.992,10.001 15.123,10.001 15.500 C 10.001 15.874,10.270 16.277,10.618 16.422 C 10.836 16.513,11.189 16.507,11.405 16.408 C 11.534 16.350,12.017 15.890,13.225 14.674 C 14.624 13.268,14.881 12.991,14.941 12.830 C 15.074 12.470,14.956 12.026,14.659 11.765 C 14.580 11.695,13.885 11.323,13.117 10.939 C 12.349 10.554,11.720 10.226,11.720 10.210 C 11.720 10.193,12.190 9.712,12.764 9.140 C 13.900 8.008,13.999 7.877,13.999 7.500 C 13.999 7.130,13.730 6.723,13.391 6.582 C 13.204 6.504,12.784 6.504,12.600 6.583 " stroke="none" fill-rule="evenodd" fill="black"></path></svg>