<svg width="24" height="24" viewBox="0 0 24 24" fill="none" xmlns="http://www.w3.org/2000/svg"><path d="M11.494 1.141 C 11.097 1.248,5.176 3.488,4.740 3.696 C 4.039 4.031,3.593 4.466,3.294 5.107 C 3.015 5.705,3.026 5.554,3.009 9.120 C 2.999 11.299,3.009 12.482,3.039 12.780 C 3.212 14.490,3.994 16.259,5.303 17.900 C 5.720 18.422,7.134 19.848,7.700 20.316 C 8.884 21.296,10.668 22.485,11.342 22.745 C 11.740 22.898,12.261 22.897,12.659 22.744 C 13.418 22.452,15.442 21.069,16.600 20.051 C 17.257 19.474,18.253 18.451,18.695 17.900 C 19.989 16.288,20.788 14.487,20.958 12.806 C 21.015 12.241,21.014 6.391,20.957 5.973 C 20.866 5.308,20.574 4.727,20.091 4.250 C 19.841 4.003,19.724 3.924,19.308 3.723 C 18.819 3.486,12.927 1.253,12.494 1.140 C 12.211 1.066,11.769 1.067,11.494 1.141 M15.024 4.204 C 16.672 4.822,18.155 5.389,18.319 5.465 C 18.662 5.623,18.773 5.715,18.894 5.940 C 18.980 6.099,18.980 6.117,18.993 9.120 C 19.007 12.360,18.993 12.707,18.814 13.440 C 18.268 15.684,16.248 18.098,13.260 20.081 C 12.619 20.506,12.065 20.840,12.000 20.840 C 11.937 20.840,11.206 20.399,10.655 20.028 C 9.582 19.306,8.730 18.610,7.880 17.760 C 6.149 16.028,5.217 14.329,5.039 12.580 C 5.009 12.283,4.998 11.156,5.007 9.120 C 5.020 6.117,5.020 6.099,5.106 5.940 C 5.225 5.719,5.335 5.626,5.660 5.474 C 5.942 5.342,11.902 3.088,11.984 3.083 C 12.007 3.081,13.375 3.586,15.024 4.204 " stroke="none" fill-rule="evenodd" fill="black"></path></svg>