<svg width="24" height="24" viewBox="0 0 24 24" fill="none" xmlns="http://www.w3.org/2000/svg"><path d="M11.566 1.461 C 11.241 1.532,10.983 1.679,10.337 2.163 C 9.074 3.108,8.283 3.454,6.508 3.838 C 4.778 4.212,4.458 4.342,3.897 4.899 C 3.590 5.204,3.504 5.319,3.346 5.640 C 3.019 6.303,3.028 6.200,3.010 9.460 C 2.999 11.404,3.009 12.483,3.039 12.780 C 3.213 14.492,3.994 16.259,5.303 17.900 C 5.719 18.421,7.133 19.847,7.700 20.317 C 8.877 21.291,10.667 22.485,11.342 22.745 C 11.739 22.897,12.261 22.897,12.658 22.745 C 13.332 22.485,15.116 21.296,16.300 20.316 C 16.865 19.849,18.280 18.422,18.697 17.900 C 20.010 16.255,20.798 14.467,20.961 12.760 C 20.991 12.455,21.000 11.337,20.990 9.440 C 20.972 6.203,20.981 6.303,20.655 5.640 C 20.496 5.318,20.412 5.205,20.104 4.900 C 19.539 4.342,19.220 4.212,17.492 3.838 C 15.717 3.454,14.926 3.108,13.663 2.163 C 13.007 1.671,12.761 1.533,12.415 1.460 C 12.081 1.389,11.898 1.389,11.566 1.461 M12.467 3.766 C 13.916 4.858,15.046 5.360,16.995 5.780 C 18.806 6.170,18.894 6.224,18.962 6.991 C 19.013 7.554,19.009 12.162,18.958 12.632 C 18.770 14.349,17.830 16.049,16.120 17.760 C 15.510 18.370,14.817 18.969,14.168 19.449 C 13.444 19.985,12.110 20.840,12.000 20.840 C 11.937 20.840,11.206 20.399,10.655 20.028 C 9.582 19.306,8.730 18.610,7.880 17.760 C 6.170 16.049,5.230 14.349,5.042 12.632 C 4.990 12.156,4.987 7.498,5.038 6.970 C 5.110 6.225,5.205 6.168,7.005 5.780 C 8.927 5.366,10.049 4.873,11.454 3.824 C 11.737 3.613,11.983 3.440,12.001 3.440 C 12.019 3.440,12.229 3.587,12.467 3.766 " stroke="none" fill-rule="evenodd" fill="black"></path></svg>