<svg width="24" height="24" viewBox="0 0 24 24" fill="none" xmlns="http://www.w3.org/2000/svg"><path d="M11.495 1.141 C 11.105 1.246,8.380 2.287,8.233 2.386 C 8.053 2.509,7.902 2.731,7.839 2.964 C 7.672 3.585,8.237 4.254,8.875 4.191 C 8.977 4.181,9.722 3.924,10.531 3.621 L 12.001 3.070 14.911 4.159 C 18.731 5.589,18.699 5.575,18.892 5.935 L 18.980 6.100 18.980 9.380 C 18.980 12.929,18.985 12.834,18.757 13.659 C 18.715 13.813,18.680 14.011,18.680 14.099 C 18.681 14.284,18.822 14.610,18.970 14.767 C 19.265 15.081,19.762 15.152,20.157 14.938 C 20.445 14.781,20.566 14.603,20.697 14.140 C 20.978 13.150,20.972 13.241,20.989 9.620 C 21.000 7.350,20.991 6.235,20.960 6.000 C 20.870 5.314,20.582 4.735,20.091 4.250 C 19.841 4.003,19.724 3.924,19.308 3.723 C 18.819 3.486,12.927 1.253,12.494 1.140 C 12.211 1.066,11.769 1.067,11.495 1.141 M2.670 2.061 C 2.448 2.142,2.250 2.309,2.128 2.516 C 2.036 2.672,2.020 2.745,2.021 3.000 C 2.021 3.214,2.043 3.340,2.096 3.440 C 2.137 3.517,2.420 3.833,2.726 4.143 L 3.282 4.705 3.186 4.923 C 3.134 5.042,3.070 5.235,3.045 5.352 C 2.985 5.635,2.982 12.278,3.042 12.832 C 3.226 14.520,4.011 16.280,5.303 17.900 C 5.720 18.422,7.134 19.848,7.700 20.316 C 8.884 21.296,10.668 22.485,11.342 22.745 C 11.573 22.834,11.684 22.852,12.000 22.852 C 12.560 22.852,12.815 22.742,13.981 21.999 C 15.195 21.226,16.360 20.313,17.270 19.423 L 17.640 19.062 19.030 20.446 C 19.795 21.208,20.483 21.864,20.560 21.905 C 20.659 21.957,20.788 21.979,21.000 21.979 C 21.255 21.980,21.328 21.964,21.484 21.872 C 21.963 21.590,22.138 20.966,21.865 20.508 C 21.810 20.416,17.665 16.243,12.653 11.235 C 4.231 2.820,3.525 2.125,3.343 2.065 C 3.107 1.987,2.874 1.986,2.670 2.061 M10.633 12.053 L 16.246 17.667 15.693 18.171 C 14.959 18.839,14.162 19.468,13.380 19.995 C 12.658 20.481,12.073 20.840,12.000 20.840 C 11.937 20.840,11.206 20.399,10.655 20.028 C 9.582 19.306,8.730 18.610,7.880 17.760 C 6.170 16.049,5.230 14.349,5.042 12.632 C 5.007 12.305,4.976 6.440,5.010 6.440 C 5.016 6.440,7.546 8.966,10.633 12.053 " stroke="none" fill-rule="evenodd" fill="black"></path></svg>