<svg width="24" height="24" viewBox="0 0 24 24" fill="none" xmlns="http://www.w3.org/2000/svg"><path d="M11.553 1.120 C 11.232 1.201,4.965 3.577,4.638 3.741 C 4.021 4.051,3.575 4.504,3.294 5.107 C 3.015 5.705,3.026 5.554,3.009 9.120 C 2.999 11.299,3.009 12.482,3.039 12.780 C 3.212 14.490,3.994 16.259,5.303 17.900 C 5.719 18.421,7.133 19.847,7.700 20.317 C 8.877 21.291,10.667 22.485,11.342 22.745 C 11.739 22.897,12.261 22.897,12.658 22.745 C 13.332 22.485,15.116 21.296,16.300 20.316 C 16.865 19.849,18.280 18.422,18.697 17.900 C 19.995 16.274,20.789 14.486,20.958 12.806 C 21.015 12.241,21.014 6.391,20.957 5.973 C 20.825 5.009,20.262 4.204,19.415 3.770 C 19.189 3.654,17.614 3.040,15.740 2.337 L 12.460 1.107 12.080 1.095 C 11.871 1.089,11.634 1.100,11.553 1.120 M11.000 11.841 L 11.000 20.242 10.890 20.185 C 10.669 20.070,9.553 19.249,9.035 18.820 C 8.743 18.578,8.233 18.110,7.902 17.780 C 6.153 16.036,5.218 14.338,5.039 12.580 C 5.009 12.283,4.998 11.156,5.007 9.120 C 5.020 6.117,5.020 6.099,5.106 5.940 C 5.225 5.719,5.335 5.626,5.660 5.474 C 5.853 5.384,10.815 3.493,10.990 3.443 C 10.995 3.441,11.000 7.220,11.000 11.841 M15.620 4.427 C 18.691 5.579,18.702 5.584,18.894 5.940 C 18.980 6.099,18.980 6.117,18.993 9.120 C 19.007 12.360,18.993 12.707,18.814 13.440 C 18.306 15.528,16.518 17.769,13.827 19.694 C 13.493 19.932,13.171 20.153,13.110 20.185 L 13.000 20.242 13.000 11.842 L 13.000 3.442 13.110 3.484 C 13.171 3.508,14.300 3.932,15.620 4.427 " stroke="none" fill-rule="evenodd" fill="black"></path></svg>