<svg width="24" height="24" viewBox="0 0 24 24" fill="none" xmlns="http://www.w3.org/2000/svg"><path d="M1.695 1.055 C 1.464 1.130,1.255 1.300,1.128 1.516 C 1.037 1.672,1.020 1.746,1.020 2.000 C 1.020 2.256,1.036 2.328,1.131 2.489 C 1.192 2.592,1.304 2.725,1.381 2.783 C 1.623 2.968,1.768 2.996,2.481 2.998 L 3.142 3.000 4.516 11.710 C 5.271 16.500,5.914 20.546,5.945 20.700 C 5.976 20.854,6.047 21.073,6.103 21.188 C 6.233 21.456,6.576 21.768,6.870 21.887 L 7.100 21.980 13.113 21.991 C 17.081 21.998,19.178 21.987,19.277 21.961 C 19.498 21.901,19.739 21.710,19.867 21.492 C 19.964 21.327,19.980 21.257,19.980 21.000 C 19.980 20.746,19.963 20.672,19.872 20.516 C 19.740 20.293,19.533 20.128,19.290 20.055 C 19.139 20.010,18.133 20.000,13.481 20.000 L 7.855 20.000 7.707 19.050 C 7.625 18.527,7.559 18.078,7.559 18.050 C 7.560 18.010,8.671 18.000,12.977 18.000 C 16.510 18.000,18.503 17.985,18.707 17.958 C 19.795 17.813,20.709 17.123,21.072 16.171 C 21.250 15.705,21.295 15.483,22.122 10.940 C 22.992 6.157,22.977 6.287,22.721 5.807 C 22.502 5.397,22.136 5.126,21.683 5.041 C 21.543 5.014,18.717 5.000,13.480 5.000 L 5.491 5.000 5.363 4.190 C 4.984 1.796,4.992 1.825,4.624 1.456 C 4.221 1.054,4.113 1.026,2.880 1.013 C 2.112 1.005,1.819 1.015,1.695 1.055 M20.783 7.110 C 20.770 7.170,20.455 8.894,20.083 10.940 C 19.228 15.640,19.260 15.501,19.003 15.733 C 18.712 15.996,19.096 15.980,12.882 15.980 L 7.223 15.980 6.535 11.620 C 6.156 9.222,5.837 7.202,5.826 7.130 L 5.805 7.000 13.306 7.000 L 20.806 7.000 20.783 7.110 " stroke="none" fill-rule="evenodd" fill="black"></path></svg>