<svg width="24" height="24" viewBox="0 0 24 24" fill="none" xmlns="http://www.w3.org/2000/svg"><path d="M11.400 1.044 C 9.808 1.224,8.347 2.227,7.598 3.653 C 7.379 4.072,7.231 4.446,7.159 4.769 C 7.102 5.022,7.069 5.039,6.645 5.041 C 5.503 5.045,4.343 5.593,3.648 6.456 C 3.244 6.958,3.070 7.317,2.900 7.997 C 2.761 8.550,2.719 8.929,2.320 13.172 C 1.891 17.737,1.840 18.352,1.840 18.920 C 1.840 20.134,2.175 21.005,2.940 21.781 C 3.695 22.547,4.414 22.854,5.696 22.958 C 6.398 23.015,17.602 23.015,18.304 22.958 C 19.585 22.854,20.300 22.549,21.060 21.783 C 21.490 21.350,21.788 20.870,21.958 20.341 C 22.174 19.666,22.206 19.061,22.099 17.733 C 21.996 16.459,21.324 9.369,21.258 8.860 C 21.190 8.332,21.051 7.733,20.919 7.397 C 20.380 6.025,18.900 5.046,17.355 5.041 C 16.961 5.039,16.891 5.012,16.861 4.846 C 16.817 4.608,16.640 4.122,16.474 3.785 C 15.842 2.500,14.630 1.517,13.240 1.162 C 12.669 1.016,12.019 0.974,11.400 1.044 M12.861 3.129 C 13.626 3.353,14.304 3.922,14.683 4.660 L 14.847 4.980 13.424 4.991 C 12.641 4.996,11.359 4.996,10.576 4.991 L 9.153 4.980 9.317 4.660 C 9.757 3.803,10.554 3.212,11.499 3.040 C 11.832 2.980,12.500 3.023,12.861 3.129 M15.008 8.153 L 15.020 9.307 15.141 9.503 C 15.543 10.156,16.457 10.156,16.859 9.503 L 16.980 9.307 16.992 8.173 L 17.005 7.040 17.255 7.040 C 17.847 7.040,18.285 7.210,18.672 7.590 C 19.060 7.972,19.174 8.295,19.296 9.360 C 19.402 10.283,20.080 17.582,20.129 18.325 C 20.207 19.505,20.107 19.899,19.603 20.403 C 19.306 20.699,19.101 20.812,18.675 20.911 C 18.402 20.975,17.897 20.980,12.000 20.980 C 6.103 20.980,5.598 20.975,5.325 20.911 C 4.899 20.812,4.694 20.699,4.397 20.403 C 3.894 19.900,3.797 19.519,3.872 18.343 C 3.919 17.606,4.592 10.342,4.704 9.360 C 4.825 8.296,4.939 7.972,5.328 7.590 C 5.715 7.210,6.153 7.040,6.745 7.040 L 6.995 7.040 7.008 8.173 L 7.020 9.307 7.141 9.503 C 7.543 10.156,8.457 10.156,8.859 9.503 L 8.980 9.307 8.992 8.153 L 9.005 7.000 12.000 7.000 L 14.995 7.000 15.008 8.153 " stroke="none" fill-rule="evenodd" fill="black"></path></svg>