<svg width="24" height="24" viewBox="0 0 24 24" fill="none" xmlns="http://www.w3.org/2000/svg"><path d="M6.143 1.044 C 5.812 1.093,5.439 1.279,5.173 1.528 C 4.947 1.741,2.656 4.758,2.407 5.172 C 2.239 5.451,2.096 5.862,2.041 6.221 C 2.011 6.414,2.001 8.635,2.010 13.460 L 2.022 20.420 2.112 20.756 C 2.288 21.416,2.646 21.969,3.142 22.350 C 3.495 22.621,3.816 22.775,4.265 22.889 L 4.620 22.980 11.980 22.980 C 19.013 22.980,19.354 22.977,19.660 22.906 C 20.457 22.720,21.041 22.326,21.482 21.677 C 21.679 21.387,21.780 21.156,21.892 20.740 L 21.978 20.420 21.990 13.460 C 21.999 8.629,21.989 6.415,21.960 6.221 C 21.904 5.862,21.761 5.451,21.593 5.172 C 21.344 4.758,19.053 1.741,18.827 1.528 C 18.550 1.269,18.191 1.095,17.820 1.042 C 17.472 0.992,6.487 0.994,6.143 1.044 M18.250 4.000 L 19.000 5.000 12.000 5.000 L 5.000 5.000 5.750 4.000 L 6.499 3.000 12.000 3.000 L 17.501 3.000 18.250 4.000 M19.990 13.610 C 19.980 18.898,19.967 20.251,19.926 20.374 C 19.859 20.571,19.577 20.854,19.376 20.925 C 19.143 21.007,4.857 21.007,4.624 20.925 C 4.423 20.854,4.141 20.571,4.074 20.374 C 4.033 20.251,4.020 18.898,4.010 13.610 L 3.998 7.000 12.000 7.000 L 20.002 7.000 19.990 13.610 M7.695 9.057 C 7.466 9.129,7.256 9.299,7.128 9.516 C 7.027 9.688,7.020 9.731,7.021 10.160 C 7.025 11.937,8.149 13.680,9.811 14.489 C 10.527 14.838,11.162 14.980,12.000 14.980 C 12.893 14.980,13.530 14.826,14.316 14.420 C 15.901 13.601,16.975 11.883,16.979 10.160 C 16.980 9.730,16.973 9.688,16.871 9.514 C 16.482 8.853,15.520 8.847,15.136 9.504 C 15.052 9.647,15.026 9.762,14.995 10.121 C 14.974 10.363,14.916 10.701,14.867 10.871 C 14.601 11.789,13.843 12.555,12.887 12.872 C 12.620 12.961,12.508 12.974,12.020 12.977 C 11.539 12.980,11.418 12.967,11.160 12.886 C 10.760 12.761,10.391 12.563,10.108 12.321 C 9.410 11.723,9.088 11.081,9.005 10.121 C 8.975 9.764,8.948 9.646,8.866 9.506 C 8.628 9.101,8.145 8.916,7.695 9.057 " stroke="none" fill-rule="evenodd" fill="black"></path></svg>