<svg width="24" height="24" viewBox="0 0 24 24" fill="none" xmlns="http://www.w3.org/2000/svg"><path d="M1.695 1.055 C 1.464 1.130,1.255 1.300,1.128 1.516 C 1.037 1.672,1.020 1.746,1.020 2.000 C 1.020 2.256,1.036 2.328,1.131 2.489 C 1.192 2.592,1.304 2.725,1.381 2.783 C 1.622 2.967,1.769 2.996,2.469 2.998 C 3.109 3.000,3.119 3.001,3.139 3.090 C 3.176 3.260,3.639 6.583,4.179 10.560 C 4.754 14.801,4.820 15.209,4.996 15.664 C 5.280 16.394,6.029 17.099,6.760 17.322 C 7.309 17.490,7.300 17.490,12.546 17.508 C 18.852 17.529,18.967 17.524,19.700 17.161 C 20.498 16.766,21.003 16.109,21.254 15.140 C 21.311 14.920,21.694 12.976,22.107 10.820 C 22.969 6.313,22.968 6.318,22.730 5.834 C 22.573 5.515,22.362 5.314,22.005 5.146 L 21.740 5.020 13.590 5.009 C 9.107 5.004,5.440 4.992,5.440 4.983 C 5.440 4.824,5.024 2.166,4.980 2.040 C 4.825 1.600,4.520 1.269,4.126 1.113 C 3.916 1.030,3.827 1.023,2.880 1.013 C 2.112 1.005,1.819 1.015,1.695 1.055 M20.776 7.070 C 20.767 7.109,20.462 8.706,20.098 10.620 C 19.373 14.440,19.275 14.895,19.146 15.088 C 19.043 15.240,18.849 15.380,18.645 15.447 C 18.461 15.508,8.685 15.544,7.912 15.487 C 7.472 15.455,7.378 15.435,7.221 15.343 C 6.982 15.203,6.857 15.005,6.783 14.653 C 6.750 14.496,6.505 12.768,6.240 10.813 C 5.974 8.859,5.747 7.202,5.734 7.130 L 5.711 7.000 13.252 7.000 C 20.413 7.000,20.792 7.004,20.776 7.070 M8.477 19.073 C 7.806 19.249,7.238 19.823,7.060 20.508 C 6.941 20.962,7.003 21.492,7.225 21.930 C 7.361 22.199,7.801 22.639,8.070 22.775 C 8.659 23.073,9.341 23.073,9.930 22.775 C 10.196 22.640,10.638 22.200,10.771 21.937 C 11.161 21.168,11.043 20.275,10.471 19.659 C 10.074 19.232,9.563 19.005,9.000 19.005 C 8.857 19.005,8.622 19.036,8.477 19.073 M16.477 19.073 C 15.806 19.249,15.238 19.823,15.060 20.508 C 14.941 20.962,15.003 21.492,15.225 21.930 C 15.361 22.199,15.801 22.639,16.070 22.775 C 16.659 23.073,17.341 23.073,17.930 22.775 C 18.196 22.640,18.638 22.200,18.771 21.937 C 18.994 21.498,19.052 21.007,18.940 20.529 C 18.858 20.182,18.720 19.927,18.465 19.653 C 18.074 19.232,17.560 19.005,17.000 19.005 C 16.857 19.005,16.622 19.036,16.477 19.073 " stroke="none" fill-rule="evenodd" fill="black"></path></svg>