<svg width="24" height="24" viewBox="0 0 24 24" fill="none" xmlns="http://www.w3.org/2000/svg"><path d="M1.695 1.055 C 1.049 1.264,0.799 2.040,1.198 2.591 C 1.263 2.681,1.403 2.805,1.508 2.867 C 1.693 2.976,1.724 2.981,2.380 3.000 L 3.059 3.020 3.506 10.220 C 3.752 14.180,3.973 17.543,3.997 17.693 C 4.021 17.844,4.087 18.063,4.142 18.181 C 4.272 18.456,4.609 18.766,4.910 18.887 L 5.140 18.980 12.134 18.991 C 16.754 18.998,19.178 18.987,19.278 18.961 C 19.498 18.901,19.739 18.710,19.867 18.492 C 19.964 18.327,19.980 18.257,19.980 18.000 C 19.980 17.746,19.963 17.672,19.872 17.516 C 19.761 17.328,19.572 17.158,19.373 17.070 C 19.285 17.031,17.809 17.016,12.600 17.000 L 5.940 16.980 5.880 15.991 L 5.820 15.002 12.740 14.991 L 19.660 14.979 19.980 14.890 C 21.038 14.595,21.793 13.840,22.079 12.792 C 22.178 12.428,22.241 11.933,22.621 8.520 C 22.970 5.385,22.975 5.251,22.769 4.831 C 22.561 4.409,22.190 4.129,21.723 4.041 C 21.583 4.014,18.690 4.000,13.315 4.000 L 5.120 4.000 5.120 3.886 C 5.120 3.594,5.034 2.474,4.996 2.260 C 4.901 1.733,4.558 1.300,4.090 1.115 C 3.876 1.030,3.791 1.023,2.860 1.013 C 2.109 1.005,1.819 1.015,1.695 1.055 M20.864 6.150 C 20.851 6.232,20.714 7.452,20.560 8.860 C 20.251 11.665,20.178 12.240,20.102 12.420 C 20.021 12.615,19.835 12.806,19.641 12.896 L 19.460 12.980 12.570 12.991 L 5.680 13.001 5.680 12.893 C 5.680 12.781,5.295 6.523,5.267 6.190 L 5.252 6.000 13.069 6.000 L 20.887 6.000 20.864 6.150 M7.174 20.039 C 6.750 20.129,6.329 20.477,6.132 20.900 C 6.035 21.107,6.020 21.190,6.020 21.500 C 6.020 21.811,6.035 21.894,6.133 22.104 C 6.276 22.413,6.585 22.721,6.900 22.868 C 7.107 22.965,7.190 22.980,7.500 22.980 C 7.810 22.980,7.893 22.965,8.100 22.868 C 8.415 22.721,8.724 22.413,8.867 22.104 C 8.965 21.894,8.980 21.811,8.980 21.500 C 8.980 21.189,8.965 21.106,8.867 20.896 C 8.727 20.592,8.415 20.278,8.119 20.143 C 7.870 20.030,7.441 19.982,7.174 20.039 M16.174 20.039 C 15.750 20.129,15.329 20.477,15.132 20.900 C 15.035 21.107,15.020 21.190,15.020 21.500 C 15.020 21.811,15.035 21.894,15.133 22.104 C 15.276 22.413,15.585 22.721,15.900 22.868 C 16.107 22.965,16.190 22.980,16.500 22.980 C 16.810 22.980,16.893 22.965,17.100 22.868 C 17.415 22.721,17.724 22.413,17.867 22.104 C 17.965 21.894,17.980 21.811,17.980 21.500 C 17.980 21.189,17.965 21.106,17.867 20.896 C 17.727 20.592,17.415 20.278,17.119 20.143 C 16.870 20.030,16.441 19.982,16.174 20.039 " stroke="none" fill-rule="evenodd" fill="black"></path></svg>