<svg width="24" height="24" viewBox="0 0 24 24" fill="none" xmlns="http://www.w3.org/2000/svg"><path d="M17.670 2.061 C 17.448 2.142,17.250 2.309,17.128 2.516 C 17.036 2.672,17.020 2.745,17.021 3.000 C 17.021 3.213,17.043 3.340,17.096 3.440 C 17.136 3.517,17.484 3.897,17.867 4.284 L 18.565 4.988 17.833 5.012 C 17.430 5.024,16.992 5.055,16.860 5.080 C 16.016 5.236,15.181 5.711,14.626 6.350 C 14.497 6.499,13.010 8.690,11.320 11.220 C 9.631 13.750,8.139 15.967,8.004 16.147 C 7.721 16.525,7.460 16.732,7.086 16.874 L 6.820 16.975 4.780 16.999 C 3.306 17.016,2.709 17.036,2.627 17.071 C 2.430 17.157,2.239 17.327,2.128 17.516 C 2.037 17.672,2.020 17.746,2.020 18.000 C 2.020 18.256,2.036 18.328,2.131 18.489 C 2.256 18.702,2.449 18.864,2.670 18.943 C 2.864 19.012,6.352 19.023,6.900 18.956 C 7.883 18.836,8.832 18.316,9.447 17.560 C 9.581 17.395,11.073 15.190,12.762 12.660 C 14.452 10.130,15.930 7.936,16.047 7.784 C 16.165 7.632,16.360 7.439,16.480 7.356 C 16.843 7.107,17.099 7.045,17.889 7.016 L 18.580 6.990 17.875 7.705 C 17.487 8.098,17.139 8.481,17.101 8.555 C 16.872 9.008,17.056 9.601,17.508 9.867 C 17.673 9.964,17.742 9.980,18.000 9.979 C 18.212 9.979,18.341 9.957,18.440 9.905 C 18.632 9.804,21.739 6.704,21.873 6.480 C 21.964 6.328,21.980 6.254,21.980 6.000 C 21.980 5.746,21.963 5.672,21.873 5.520 C 21.814 5.421,21.040 4.618,20.153 3.736 C 18.714 2.305,18.519 2.124,18.343 2.066 C 18.108 1.987,17.875 1.986,17.670 2.061 M2.695 5.055 C 2.464 5.130,2.255 5.300,2.128 5.516 C 2.037 5.672,2.020 5.746,2.020 6.000 C 2.020 6.256,2.036 6.328,2.131 6.489 C 2.192 6.592,2.304 6.725,2.381 6.783 C 2.655 6.992,2.693 6.996,4.500 7.000 C 6.594 7.004,6.862 7.024,7.263 7.215 C 7.636 7.392,7.829 7.588,8.297 8.264 C 9.025 9.316,8.984 9.266,9.222 9.383 C 9.826 9.678,10.505 9.349,10.641 8.694 C 10.717 8.331,10.656 8.177,10.122 7.386 C 9.862 7.001,9.544 6.558,9.415 6.401 C 8.890 5.762,8.092 5.287,7.220 5.092 C 6.827 5.005,2.949 4.973,2.695 5.055 M17.670 14.061 C 17.448 14.142,17.250 14.309,17.128 14.516 C 17.036 14.672,17.020 14.745,17.021 15.000 C 17.021 15.213,17.043 15.340,17.096 15.440 C 17.136 15.517,17.487 15.902,17.875 16.295 L 18.580 17.009 17.880 16.988 C 17.272 16.970,17.145 16.954,16.914 16.870 C 16.400 16.683,16.221 16.498,15.443 15.360 C 15.240 15.063,15.034 14.787,14.987 14.747 C 14.683 14.493,14.203 14.443,13.862 14.631 C 13.458 14.853,13.251 15.318,13.368 15.739 C 13.433 15.972,14.250 17.212,14.628 17.650 C 15.236 18.355,16.154 18.840,17.100 18.956 C 17.298 18.980,17.711 19.000,18.019 19.000 L 18.577 19.000 17.873 19.710 C 17.486 20.101,17.139 20.481,17.101 20.555 C 16.872 21.008,17.056 21.601,17.508 21.867 C 17.673 21.964,17.742 21.980,18.000 21.979 C 18.212 21.979,18.341 21.957,18.440 21.905 C 18.632 21.804,21.739 18.704,21.873 18.480 C 21.964 18.328,21.980 18.254,21.980 18.000 C 21.980 17.746,21.963 17.672,21.873 17.520 C 21.814 17.421,21.040 16.618,20.153 15.736 C 18.714 14.305,18.519 14.124,18.343 14.066 C 18.108 13.987,17.875 13.986,17.670 14.061 " stroke="none" fill-rule="evenodd" fill="black"></path></svg>