<svg width="24" height="24" viewBox="0 0 24 24" fill="none" xmlns="http://www.w3.org/2000/svg"><path d="M2.670 2.061 C 2.448 2.142,2.250 2.309,2.128 2.516 C 2.036 2.672,2.020 2.745,2.021 3.000 C 2.021 3.212,2.043 3.341,2.095 3.440 C 2.192 3.625,8.291 9.736,8.508 9.865 C 8.967 10.139,9.587 9.968,9.867 9.492 C 9.964 9.327,9.980 9.257,9.980 9.000 C 9.980 8.746,9.964 8.672,9.873 8.520 C 9.812 8.417,8.431 7.008,6.653 5.235 C 3.817 2.407,3.522 2.125,3.343 2.065 C 3.107 1.987,2.874 1.986,2.670 2.061 M15.695 2.057 C 15.466 2.129,15.256 2.299,15.128 2.516 C 15.037 2.672,15.020 2.746,15.020 3.000 C 15.020 3.256,15.036 3.328,15.131 3.489 C 15.192 3.592,15.304 3.725,15.381 3.783 C 15.650 3.989,15.716 3.996,17.200 3.998 L 18.580 4.000 10.374 12.210 C 5.860 16.726,2.135 20.483,2.095 20.560 C 2.043 20.659,2.021 20.788,2.021 21.000 C 2.020 21.258,2.036 21.327,2.133 21.492 C 2.263 21.714,2.502 21.901,2.736 21.965 C 2.938 22.019,3.266 21.989,3.445 21.899 C 3.519 21.862,7.274 18.140,11.788 13.628 L 19.996 5.424 20.008 6.865 L 20.020 8.306 20.141 8.503 C 20.543 9.156,21.457 9.156,21.859 8.503 L 21.980 8.306 21.980 5.503 L 21.980 2.700 21.872 2.516 C 21.747 2.303,21.550 2.141,21.316 2.058 C 21.086 1.977,15.954 1.976,15.695 2.057 M14.670 14.061 C 14.448 14.142,14.250 14.309,14.128 14.516 C 14.036 14.672,14.020 14.745,14.021 15.000 C 14.021 15.212,14.043 15.341,14.095 15.440 C 14.135 15.517,15.161 16.575,16.374 17.790 L 18.579 20.000 17.236 20.000 C 15.775 20.000,15.653 20.015,15.382 20.221 C 15.302 20.282,15.187 20.415,15.128 20.516 C 15.037 20.672,15.020 20.746,15.020 21.000 C 15.020 21.256,15.036 21.328,15.131 21.489 C 15.256 21.702,15.449 21.864,15.670 21.943 C 15.890 22.021,21.110 22.021,21.330 21.943 C 21.551 21.864,21.744 21.702,21.869 21.489 L 21.980 21.300 21.980 18.500 L 21.980 15.700 21.871 15.514 C 21.479 14.848,20.521 14.848,20.129 15.514 L 20.020 15.700 20.008 17.137 L 19.996 18.574 17.768 16.352 C 15.755 14.346,15.521 14.124,15.343 14.065 C 15.107 13.987,14.874 13.986,14.670 14.061 " stroke="none" fill-rule="evenodd" fill="black"></path></svg>