<svg width="24" height="24" viewBox="0 0 24 24" fill="none" xmlns="http://www.w3.org/2000/svg"><path d="M4.709 3.963 C 4.451 4.025,4.345 4.102,3.943 4.525 C 3.222 5.283,2.633 6.138,2.141 7.140 C 0.789 9.890,0.634 12.967,1.701 15.867 C 1.888 16.376,2.374 17.362,2.662 17.820 C 3.196 18.668,4.153 19.793,4.483 19.961 C 5.118 20.286,5.920 19.809,5.920 19.107 C 5.920 18.763,5.848 18.615,5.481 18.204 C 4.720 17.352,4.332 16.790,3.920 15.940 C 3.280 14.621,3.023 13.493,3.023 12.000 C 3.023 10.507,3.280 9.379,3.920 8.060 C 4.332 7.210,4.720 6.648,5.481 5.796 C 5.848 5.385,5.920 5.237,5.920 4.893 C 5.920 4.534,5.640 4.131,5.300 4.001 C 5.154 3.946,4.862 3.927,4.709 3.963 M18.847 3.962 C 18.438 4.045,18.080 4.477,18.080 4.890 C 18.080 5.245,18.148 5.378,18.572 5.854 C 19.295 6.668,19.720 7.295,20.122 8.140 C 20.725 9.408,20.977 10.545,20.977 12.000 C 20.977 13.455,20.725 14.592,20.122 15.860 C 19.720 16.705,19.295 17.332,18.572 18.146 C 18.308 18.442,18.159 18.645,18.128 18.750 C 17.870 19.609,18.733 20.361,19.517 19.961 C 19.847 19.793,20.804 18.668,21.338 17.820 C 21.626 17.362,22.112 16.376,22.299 15.867 C 23.231 13.335,23.231 10.665,22.299 8.133 C 22.112 7.624,21.626 6.638,21.338 6.180 C 20.778 5.292,19.798 4.152,19.490 4.029 C 19.279 3.945,19.049 3.921,18.847 3.962 M7.471 6.797 C 7.198 6.885,6.806 7.259,6.373 7.844 C 5.315 9.271,4.833 11.118,5.062 12.868 C 5.255 14.342,5.820 15.568,6.835 16.712 C 7.197 17.121,7.378 17.220,7.760 17.220 C 8.014 17.220,8.088 17.203,8.244 17.112 C 8.457 16.987,8.619 16.790,8.702 16.556 C 8.834 16.181,8.741 15.842,8.405 15.473 C 7.765 14.769,7.363 14.039,7.144 13.178 C 7.110 13.045,7.061 12.717,7.034 12.449 C 6.894 11.015,7.363 9.673,8.405 8.527 C 8.745 8.152,8.832 7.826,8.697 7.429 C 8.627 7.224,8.396 6.961,8.194 6.857 C 8.044 6.779,7.631 6.745,7.471 6.797 M15.913 6.814 C 15.404 7.004,15.129 7.566,15.297 8.072 C 15.341 8.202,15.445 8.362,15.594 8.526 C 15.954 8.923,16.176 9.233,16.394 9.642 C 16.737 10.286,16.889 10.791,16.964 11.530 C 17.110 12.969,16.641 14.320,15.595 15.473 C 15.257 15.845,15.166 16.182,15.301 16.562 C 15.386 16.803,15.531 16.980,15.751 17.109 C 15.912 17.204,15.984 17.220,16.240 17.220 C 16.494 17.220,16.568 17.203,16.723 17.112 C 17.003 16.948,17.601 16.247,17.954 15.670 C 19.340 13.403,19.340 10.597,17.954 8.330 C 17.605 7.760,17.003 7.052,16.731 6.893 C 16.518 6.768,16.134 6.731,15.913 6.814 M11.499 9.040 C 10.363 9.246,9.460 10.049,9.114 11.160 C 8.979 11.594,8.979 12.406,9.114 12.840 C 9.421 13.826,10.174 14.579,11.160 14.886 C 11.594 15.021,12.406 15.021,12.840 14.886 C 13.826 14.579,14.579 13.826,14.886 12.840 C 15.021 12.406,15.021 11.594,14.886 11.160 C 14.581 10.179,13.810 9.407,12.861 9.129 C 12.500 9.023,11.832 8.980,11.499 9.040 M12.310 11.061 C 12.688 11.173,13.000 11.598,13.000 12.001 C 13.000 12.331,12.784 12.696,12.484 12.872 C 12.328 12.963,12.254 12.980,12.000 12.980 C 11.746 12.980,11.672 12.963,11.516 12.872 C 10.935 12.530,10.833 11.774,11.304 11.303 C 11.583 11.024,11.916 10.944,12.310 11.061 " stroke="none" fill-rule="evenodd" fill="black"></path></svg>