<svg width="24" height="24" viewBox="0 0 24 24" fill="none" xmlns="http://www.w3.org/2000/svg"><path d="M11.052 1.041 C 8.937 1.246,7.045 1.974,5.363 3.230 C 5.084 3.438,4.636 3.839,4.238 4.238 C 3.277 5.198,2.707 5.987,2.141 7.140 C 1.667 8.104,1.362 9.022,1.180 10.038 C 0.826 12.006,1.001 13.965,1.701 15.867 C 1.888 16.376,2.374 17.362,2.662 17.820 C 3.196 18.668,4.153 19.793,4.483 19.961 C 5.118 20.286,5.920 19.809,5.920 19.107 C 5.920 18.763,5.848 18.615,5.481 18.204 C 4.720 17.352,4.332 16.790,3.920 15.940 C 3.280 14.621,3.023 13.493,3.023 12.000 C 3.023 10.507,3.280 9.379,3.920 8.060 C 4.799 6.247,6.247 4.799,8.060 3.920 C 9.379 3.280,10.507 3.023,12.000 3.023 C 13.493 3.023,14.621 3.280,15.940 3.920 C 17.756 4.800,19.189 6.234,20.079 8.060 C 20.719 9.372,20.977 10.504,20.977 12.000 C 20.977 13.455,20.725 14.592,20.122 15.860 C 19.720 16.705,19.295 17.332,18.572 18.146 C 18.308 18.442,18.159 18.645,18.128 18.750 C 17.870 19.609,18.733 20.361,19.517 19.961 C 19.847 19.793,20.804 18.668,21.338 17.820 C 21.626 17.362,22.112 16.376,22.299 15.867 C 23.231 13.335,23.231 10.665,22.299 8.133 C 22.112 7.624,21.626 6.638,21.338 6.180 C 20.598 5.006,19.481 3.827,18.336 3.011 C 16.973 2.040,15.296 1.373,13.580 1.120 C 12.938 1.025,11.634 0.984,11.052 1.041 M11.540 5.023 C 10.478 5.125,9.867 5.284,9.020 5.680 C 6.291 6.955,4.672 9.894,5.062 12.868 C 5.255 14.342,5.820 15.568,6.835 16.712 C 7.197 17.121,7.378 17.220,7.760 17.220 C 8.014 17.220,8.088 17.203,8.244 17.112 C 8.457 16.987,8.619 16.790,8.702 16.556 C 8.834 16.181,8.741 15.842,8.405 15.473 C 7.765 14.769,7.363 14.039,7.144 13.178 C 7.110 13.045,7.061 12.717,7.034 12.449 C 6.939 11.473,7.123 10.556,7.597 9.655 C 8.529 7.882,10.478 6.834,12.470 7.036 C 13.209 7.111,13.714 7.263,14.358 7.606 C 15.235 8.074,15.927 8.765,16.395 9.644 C 16.737 10.286,16.890 10.791,16.964 11.530 C 17.110 12.969,16.641 14.320,15.595 15.473 C 15.257 15.845,15.166 16.182,15.301 16.562 C 15.386 16.803,15.531 16.980,15.751 17.109 C 15.912 17.204,15.984 17.220,16.240 17.220 C 16.494 17.220,16.568 17.203,16.723 17.112 C 17.003 16.948,17.601 16.247,17.954 15.670 C 19.656 12.887,19.237 9.343,16.935 7.054 C 15.869 5.996,14.536 5.315,13.102 5.098 C 12.726 5.041,11.813 4.997,11.540 5.023 M11.499 9.040 C 10.363 9.246,9.460 10.049,9.114 11.160 C 8.979 11.594,8.979 12.407,9.114 12.839 C 9.275 13.353,9.465 13.676,9.831 14.056 C 10.073 14.307,10.272 14.398,10.582 14.399 C 11.212 14.401,11.695 13.821,11.560 13.221 C 11.507 12.984,11.467 12.907,11.275 12.679 C 11.011 12.366,10.948 12.071,11.061 11.690 C 11.173 11.312,11.598 11.000,12.000 11.000 C 12.518 11.000,13.000 11.483,13.000 12.001 C 13.000 12.203,12.885 12.489,12.729 12.674 C 12.533 12.907,12.493 12.983,12.440 13.221 C 12.305 13.821,12.788 14.401,13.418 14.399 C 13.728 14.398,13.927 14.307,14.169 14.056 C 14.535 13.676,14.725 13.353,14.886 12.839 C 15.021 12.407,15.021 11.594,14.886 11.160 C 14.581 10.179,13.810 9.407,12.861 9.129 C 12.500 9.023,11.832 8.980,11.499 9.040 " stroke="none" fill-rule="evenodd" fill="black"></path></svg>