<svg width="24" height="24" viewBox="0 0 24 24" fill="none" xmlns="http://www.w3.org/2000/svg"><path d="M4.709 1.963 C 4.451 2.025,4.345 2.102,3.943 2.525 C 2.082 4.482,1.001 7.229,1.001 10.000 C 1.001 12.771,2.082 15.518,3.943 17.475 C 4.347 17.900,4.520 18.020,4.794 18.064 C 5.344 18.152,5.920 17.663,5.920 17.107 C 5.920 16.763,5.848 16.615,5.481 16.204 C 4.720 15.352,4.332 14.790,3.920 13.940 C 3.280 12.621,3.023 11.493,3.023 10.000 C 3.023 8.507,3.280 7.380,3.919 6.060 C 4.331 5.210,4.724 4.640,5.480 3.796 C 5.848 3.385,5.920 3.237,5.920 2.893 C 5.920 2.534,5.640 2.131,5.300 2.001 C 5.154 1.946,4.862 1.927,4.709 1.963 M18.847 1.962 C 18.438 2.045,18.080 2.477,18.080 2.890 C 18.080 3.237,18.151 3.385,18.519 3.796 C 19.280 4.648,19.668 5.210,20.080 6.060 C 20.720 7.379,20.977 8.507,20.977 10.000 C 20.977 11.455,20.725 12.592,20.122 13.860 C 19.720 14.705,19.295 15.332,18.572 16.146 C 18.308 16.442,18.159 16.645,18.128 16.750 C 17.870 17.609,18.733 18.361,19.517 17.961 C 19.847 17.793,20.804 16.668,21.338 15.820 C 21.626 15.362,22.112 14.376,22.299 13.867 C 23.231 11.335,23.231 8.665,22.299 6.133 C 22.112 5.624,21.626 4.638,21.338 4.180 C 20.778 3.292,19.798 2.152,19.490 2.029 C 19.279 1.945,19.049 1.921,18.847 1.962 M7.471 4.797 C 7.198 4.885,6.806 5.259,6.373 5.844 C 5.315 7.271,4.833 9.118,5.062 10.868 C 5.255 12.342,5.820 13.568,6.835 14.712 C 7.197 15.121,7.378 15.220,7.760 15.220 C 8.014 15.220,8.088 15.203,8.244 15.112 C 8.457 14.987,8.619 14.790,8.702 14.556 C 8.834 14.181,8.741 13.842,8.405 13.473 C 7.894 12.911,7.526 12.317,7.304 11.697 C 6.903 10.573,6.915 9.279,7.337 8.208 C 7.574 7.603,7.915 7.068,8.405 6.527 C 8.745 6.152,8.832 5.826,8.697 5.429 C 8.627 5.224,8.396 4.961,8.194 4.857 C 8.044 4.779,7.631 4.745,7.471 4.797 M15.913 4.814 C 15.404 5.004,15.129 5.566,15.297 6.072 C 15.341 6.202,15.445 6.362,15.594 6.526 C 15.954 6.923,16.176 7.233,16.394 7.642 C 16.737 8.286,16.889 8.791,16.964 9.530 C 17.110 10.969,16.641 12.320,15.595 13.473 C 15.257 13.845,15.166 14.182,15.301 14.562 C 15.386 14.803,15.531 14.980,15.751 15.109 C 15.912 15.204,15.984 15.220,16.240 15.220 C 16.494 15.220,16.568 15.203,16.723 15.112 C 17.003 14.948,17.601 14.247,17.954 13.670 C 19.340 11.403,19.340 8.597,17.954 6.330 C 17.605 5.760,17.003 5.052,16.731 4.893 C 16.518 4.768,16.134 4.731,15.913 4.814 M11.499 7.040 C 10.363 7.246,9.460 8.049,9.114 9.160 C 8.979 9.594,8.979 10.406,9.114 10.840 C 9.363 11.640,9.928 12.314,10.660 12.684 L 10.980 12.845 11.000 17.076 L 11.020 21.306 11.141 21.503 C 11.209 21.613,11.346 21.756,11.452 21.828 C 11.923 22.144,12.554 21.999,12.859 21.503 L 12.980 21.306 13.000 17.076 L 13.020 12.845 13.340 12.684 C 14.072 12.314,14.637 11.640,14.886 10.840 C 15.021 10.406,15.021 9.594,14.886 9.160 C 14.581 8.179,13.810 7.407,12.861 7.129 C 12.500 7.023,11.832 6.980,11.499 7.040 M12.310 9.061 C 12.688 9.173,13.000 9.598,13.000 10.001 C 13.000 10.331,12.784 10.696,12.484 10.872 C 12.328 10.963,12.254 10.980,12.000 10.980 C 11.746 10.980,11.672 10.963,11.516 10.872 C 10.932 10.528,10.831 9.775,11.307 9.299 C 11.582 9.024,11.918 8.944,12.310 9.061 " stroke="none" fill-rule="evenodd" fill="black"></path></svg>