<svg width="24" height="24" viewBox="0 0 24 24" fill="none" xmlns="http://www.w3.org/2000/svg"><path d="M6.920 1.042 C 6.155 1.091,5.674 1.204,5.180 1.451 C 4.089 1.996,3.357 2.961,3.124 4.160 C 3.012 4.738,3.000 5.470,3.000 12.000 C 3.000 19.433,3.002 19.515,3.245 20.320 C 3.577 21.422,4.578 22.423,5.680 22.755 C 6.460 22.990,6.716 23.000,12.000 23.000 C 17.284 23.000,17.540 22.990,18.320 22.755 C 19.422 22.423,20.425 21.421,20.755 20.320 C 20.998 19.509,21.007 19.272,20.991 13.620 C 20.977 8.656,20.977 8.618,20.891 8.300 C 20.713 7.635,20.426 7.103,19.959 6.572 C 19.424 5.964,15.356 1.944,15.080 1.751 C 14.520 1.360,13.883 1.116,13.229 1.043 C 12.792 0.994,7.669 0.993,6.920 1.042 M13.029 3.037 C 13.228 3.060,13.417 3.117,13.629 3.218 C 13.932 3.361,13.997 3.422,16.288 5.712 C 18.578 8.003,18.639 8.068,18.782 8.371 C 18.893 8.605,18.939 8.765,18.967 9.023 C 18.989 9.225,18.998 11.376,18.989 14.292 C 18.973 19.647,18.980 19.485,18.752 19.952 C 18.626 20.211,18.190 20.638,17.918 20.768 C 17.471 20.983,17.547 20.980,12.000 20.980 C 6.462 20.980,6.533 20.983,6.082 20.771 C 5.812 20.643,5.377 20.217,5.248 19.952 C 5.198 19.849,5.126 19.633,5.088 19.472 C 5.025 19.202,5.020 18.630,5.020 12.000 C 5.020 5.370,5.025 4.798,5.088 4.528 C 5.175 4.155,5.294 3.918,5.520 3.667 C 5.884 3.261,6.283 3.090,6.980 3.040 C 7.552 3.000,12.683 2.997,13.029 3.037 M8.202 12.044 C 7.745 12.133,7.350 12.445,7.144 12.880 L 7.020 13.140 7.020 15.500 L 7.020 17.860 7.144 18.120 C 7.301 18.450,7.550 18.699,7.880 18.856 L 8.140 18.980 12.000 18.980 L 15.860 18.980 16.120 18.856 C 16.450 18.699,16.699 18.450,16.856 18.120 L 16.980 17.860 16.980 15.500 L 16.980 13.140 16.856 12.880 C 16.643 12.433,16.251 12.132,15.765 12.041 C 15.497 11.990,8.460 11.993,8.202 12.044 M15.000 15.500 L 15.000 17.000 12.000 17.000 L 9.000 17.000 9.000 15.500 L 9.000 14.000 12.000 14.000 L 15.000 14.000 15.000 15.500 " stroke="none" fill-rule="evenodd" fill="black"></path></svg>