<svg width="24" height="24" viewBox="0 0 24 24" fill="none" xmlns="http://www.w3.org/2000/svg"><path d="M4.686 2.039 C 3.865 2.166,3.233 2.765,3.061 3.581 C 2.976 3.978,2.976 6.022,3.061 6.419 C 3.147 6.827,3.298 7.104,3.597 7.403 C 3.907 7.713,4.186 7.860,4.629 7.947 L 4.948 8.010 4.915 8.175 C 4.897 8.266,4.584 10.014,4.220 12.060 C 3.857 14.106,3.549 15.827,3.538 15.884 C 3.517 15.987,3.511 15.988,3.062 16.012 C 2.347 16.051,1.903 16.241,1.512 16.676 C 1.070 17.167,1.001 17.480,1.001 19.000 C 1.001 20.584,1.075 20.881,1.597 21.403 C 2.119 21.925,2.416 21.999,4.000 21.999 C 5.582 21.999,5.873 21.926,6.403 21.401 C 6.719 21.087,6.864 20.808,6.952 20.342 L 7.017 20.000 11.000 20.000 L 14.983 20.000 15.048 20.342 C 15.136 20.806,15.281 21.087,15.597 21.403 C 16.119 21.925,16.416 21.999,18.000 21.999 C 19.582 21.999,19.876 21.925,20.401 21.401 C 20.699 21.102,20.855 20.818,20.940 20.419 C 21.024 20.022,21.024 17.978,20.940 17.581 C 20.794 16.893,20.301 16.333,19.663 16.131 C 19.541 16.092,19.441 16.042,19.442 16.020 C 19.442 15.998,19.699 14.189,20.013 12.000 L 20.582 8.020 20.964 7.995 C 21.173 7.981,21.452 7.939,21.583 7.901 C 22.264 7.704,22.789 7.131,22.940 6.419 C 23.024 6.022,23.024 3.978,22.939 3.581 C 22.791 2.881,22.332 2.364,21.635 2.112 C 21.387 2.023,21.341 2.020,20.000 2.020 C 18.659 2.020,18.613 2.023,18.365 2.112 C 18.022 2.236,17.739 2.423,17.512 2.676 C 17.263 2.952,17.127 3.241,17.048 3.658 L 16.983 4.000 13.000 4.000 L 9.017 4.000 8.952 3.658 C 8.809 2.903,8.353 2.368,7.635 2.114 C 7.394 2.029,7.312 2.024,6.140 2.015 C 5.458 2.010,4.804 2.021,4.686 2.039 M7.000 5.000 L 7.000 6.000 6.000 6.000 L 5.000 6.000 5.000 5.000 L 5.000 4.000 6.000 4.000 L 7.000 4.000 7.000 5.000 M21.000 5.000 L 21.000 6.000 20.000 6.000 L 19.000 6.000 19.000 5.000 L 19.000 4.000 20.000 4.000 L 21.000 4.000 21.000 5.000 M17.048 6.342 C 17.083 6.530,17.160 6.781,17.218 6.900 C 17.432 7.338,17.942 7.777,18.361 7.884 C 18.470 7.912,18.559 7.954,18.559 7.978 C 18.558 8.001,18.301 9.811,17.987 12.000 L 17.417 15.980 17.003 16.012 C 16.325 16.063,15.886 16.259,15.512 16.676 C 15.263 16.952,15.127 17.241,15.048 17.658 L 14.983 18.000 11.000 18.000 L 7.017 18.000 6.952 17.658 C 6.917 17.470,6.836 17.215,6.774 17.091 C 6.569 16.687,6.166 16.316,5.760 16.161 C 5.683 16.131,5.604 16.093,5.583 16.075 C 5.562 16.056,5.840 14.400,6.263 12.025 L 6.980 8.007 7.194 7.980 C 7.716 7.915,8.142 7.703,8.467 7.346 C 8.725 7.064,8.874 6.755,8.952 6.342 L 9.017 6.000 13.000 6.000 L 16.983 6.000 17.048 6.342 M5.000 19.000 L 5.000 20.000 4.000 20.000 L 3.000 20.000 3.000 19.000 L 3.000 18.000 4.000 18.000 L 5.000 18.000 5.000 19.000 M19.000 19.000 L 19.000 20.000 18.000 20.000 L 17.000 20.000 17.000 19.000 L 17.000 18.000 18.000 18.000 L 19.000 18.000 19.000 19.000 " stroke="none" fill-rule="evenodd" fill="black"></path></svg>