<svg width="24" height="24" viewBox="0 0 24 24" fill="none" xmlns="http://www.w3.org/2000/svg"><path d="M18.695 4.057 C 18.466 4.129,18.256 4.299,18.128 4.516 L 18.020 4.700 18.020 12.003 L 18.020 19.306 18.141 19.503 C 18.543 20.156,19.457 20.156,19.859 19.503 L 19.980 19.306 19.980 12.003 L 19.980 4.700 19.872 4.516 C 19.628 4.101,19.150 3.915,18.695 4.057 M5.680 4.108 C 5.273 4.176,4.829 4.415,4.544 4.720 C 4.328 4.950,4.195 5.215,4.092 5.620 C 4.024 5.883,4.020 6.265,4.020 11.980 C 4.020 17.706,4.024 18.078,4.092 18.368 C 4.132 18.538,4.218 18.784,4.284 18.916 C 4.506 19.360,5.057 19.764,5.592 19.876 C 6.164 19.995,6.664 19.855,7.323 19.392 C 7.834 19.034,14.569 13.624,14.791 13.395 C 15.243 12.927,15.376 12.608,15.375 12.000 C 15.373 11.381,15.246 11.077,14.791 10.605 C 14.570 10.377,7.829 4.963,7.320 4.605 C 6.716 4.182,6.191 4.022,5.680 4.108 M6.300 6.335 C 6.859 6.757,13.360 11.974,13.360 12.000 C 13.360 12.027,6.783 17.304,6.261 17.696 C 6.083 17.829,6.060 17.837,6.034 17.772 C 6.000 17.685,5.991 6.378,6.025 6.250 C 6.052 6.152,6.063 6.156,6.300 6.335 " stroke="none" fill-rule="evenodd" fill="black"></path></svg>