<svg width="24" height="24" viewBox="0 0 24 24" fill="none" xmlns="http://www.w3.org/2000/svg"><path d="M4.695 4.057 C 4.466 4.129,4.256 4.299,4.128 4.516 L 4.020 4.700 4.020 12.003 L 4.020 19.306 4.141 19.503 C 4.543 20.156,5.457 20.156,5.859 19.503 L 5.980 19.306 5.980 12.003 L 5.980 4.700 5.872 4.516 C 5.628 4.101,5.150 3.915,4.695 4.057 M17.640 4.133 C 17.348 4.201,17.038 4.354,16.677 4.608 C 16.214 4.933,9.444 10.362,9.226 10.583 C 8.768 11.047,8.626 11.382,8.626 12.000 C 8.626 12.618,8.768 12.952,9.226 13.417 C 9.443 13.637,16.215 19.068,16.678 19.393 C 17.364 19.875,17.877 20.009,18.462 19.859 C 18.819 19.767,19.097 19.617,19.360 19.373 C 19.638 19.116,19.803 18.812,19.908 18.368 C 19.976 18.078,19.980 17.706,19.980 11.980 C 19.980 6.265,19.976 5.883,19.908 5.620 C 19.807 5.225,19.675 4.956,19.474 4.737 C 19.016 4.238,18.258 3.988,17.640 4.133 M17.992 12.000 C 17.992 15.113,17.980 17.702,17.966 17.753 C 17.940 17.846,17.939 17.846,17.740 17.696 C 17.219 17.306,10.640 12.027,10.640 12.000 C 10.640 11.973,17.219 6.694,17.740 6.304 C 17.939 6.154,17.940 6.154,17.966 6.247 C 17.980 6.298,17.992 8.887,17.992 12.000 " stroke="none" fill-rule="evenodd" fill="black"></path></svg>