<svg width="24" height="24" viewBox="0 0 24 24" fill="none" xmlns="http://www.w3.org/2000/svg"><path d="M11.280 1.023 C 11.203 1.032,10.951 1.059,10.720 1.083 C 9.527 1.210,8.337 1.558,7.180 2.120 C 6.045 2.671,5.193 3.285,4.238 4.239 C 3.277 5.198,2.643 6.080,2.097 7.220 C 0.301 10.968,0.728 15.286,3.226 18.633 C 3.701 19.269,4.753 20.316,5.400 20.797 C 9.364 23.745,14.666 23.734,18.637 20.770 C 19.246 20.316,20.316 19.246,20.770 18.637 C 23.744 14.652,23.744 9.348,20.770 5.363 C 20.316 4.755,19.247 3.686,18.640 3.235 C 17.045 2.049,15.365 1.360,13.423 1.096 C 13.000 1.038,11.574 0.990,11.280 1.023 M13.320 3.101 C 14.263 3.244,15.055 3.491,15.942 3.920 C 16.472 4.176,17.378 4.740,17.529 4.907 C 17.595 4.980,17.496 5.084,14.799 7.781 L 12.000 10.580 9.201 7.781 C 6.504 5.084,6.405 4.980,6.471 4.907 C 6.621 4.741,7.526 4.177,8.058 3.918 C 9.093 3.414,10.026 3.160,11.340 3.024 C 11.662 2.991,12.911 3.039,13.320 3.101 M7.781 14.799 C 5.084 17.496,4.980 17.595,4.907 17.529 C 4.740 17.378,4.176 16.472,3.920 15.942 C 3.279 14.617,3.023 13.493,3.023 12.000 C 3.023 10.865,3.162 10.013,3.508 9.020 C 3.785 8.227,4.383 7.118,4.831 6.566 L 4.972 6.392 7.776 9.196 L 10.580 12.000 7.781 14.799 M19.489 7.018 C 20.039 7.841,20.502 8.891,20.733 9.840 C 20.919 10.603,20.977 11.112,20.977 12.000 C 20.977 13.493,20.721 14.617,20.080 15.942 C 19.824 16.472,19.260 17.378,19.093 17.529 C 19.020 17.595,18.916 17.496,16.219 14.799 L 13.420 12.000 16.219 9.201 C 18.916 6.504,19.020 6.405,19.093 6.471 C 19.135 6.509,19.313 6.755,19.489 7.018 M14.818 16.238 C 16.357 17.777,17.608 19.044,17.598 19.053 C 17.469 19.165,16.904 19.553,16.635 19.714 C 13.788 21.422,10.211 21.421,7.361 19.711 C 7.096 19.552,6.531 19.164,6.402 19.053 C 6.383 19.036,11.965 13.440,12.000 13.440 C 12.011 13.440,13.279 14.699,14.818 16.238 " stroke="none" fill-rule="evenodd" fill="black"></path></svg>