<svg width="24" height="24" viewBox="0 0 24 24" fill="none" xmlns="http://www.w3.org/2000/svg"><path d="M11.280 1.023 C 11.203 1.032,10.951 1.059,10.720 1.083 C 9.527 1.210,8.337 1.558,7.180 2.120 C 6.045 2.671,5.193 3.285,4.238 4.239 C 3.277 5.198,2.643 6.080,2.097 7.220 C 0.301 10.968,0.728 15.286,3.226 18.633 C 3.701 19.269,4.753 20.316,5.400 20.797 C 9.364 23.745,14.666 23.734,18.637 20.770 C 19.246 20.316,20.316 19.246,20.770 18.637 C 23.744 14.652,23.744 9.348,20.770 5.363 C 20.316 4.755,19.247 3.686,18.640 3.235 C 17.045 2.049,15.365 1.360,13.423 1.096 C 13.000 1.038,11.574 0.990,11.280 1.023 M13.320 3.101 C 15.883 3.488,18.124 4.931,19.560 7.120 C 19.863 7.583,20.303 8.479,20.492 9.020 C 20.838 10.013,20.977 10.865,20.977 12.000 C 20.977 13.493,20.721 14.617,20.080 15.942 C 19.824 16.472,19.260 17.378,19.093 17.529 C 19.020 17.595,18.790 17.370,12.704 11.284 L 6.392 4.972 6.566 4.831 C 7.170 4.341,8.278 3.757,9.160 3.466 C 9.865 3.233,10.432 3.118,11.340 3.024 C 11.662 2.991,12.911 3.039,13.320 3.101 M17.599 19.040 C 17.598 19.051,17.459 19.160,17.289 19.283 C 13.997 21.659,9.531 21.551,6.370 19.019 C 4.857 17.807,3.722 16.029,3.267 14.160 C 3.081 13.397,3.023 12.888,3.023 12.000 C 3.023 10.865,3.162 10.013,3.508 9.020 C 3.785 8.227,4.383 7.118,4.831 6.566 L 4.972 6.392 11.286 12.706 C 14.759 16.179,17.600 19.029,17.599 19.040 " stroke="none" fill-rule="evenodd" fill="black"></path></svg>