<svg width="24" height="24" viewBox="0 0 24 24" fill="none" xmlns="http://www.w3.org/2000/svg"><path d="M4.695 2.057 C 4.466 2.129,4.256 2.299,4.128 2.516 L 4.020 2.700 4.020 6.503 L 4.020 10.306 4.141 10.503 C 4.209 10.613,4.346 10.756,4.452 10.828 C 4.923 11.144,5.554 10.999,5.859 10.503 L 5.980 10.306 5.980 6.503 L 5.980 2.700 5.872 2.516 C 5.628 2.101,5.150 1.915,4.695 2.057 M11.695 2.057 C 11.466 2.129,11.256 2.299,11.128 2.516 L 11.020 2.700 11.009 4.850 L 10.997 7.000 9.945 7.000 C 8.797 7.000,8.643 7.022,8.382 7.221 C 8.302 7.282,8.187 7.415,8.128 7.516 C 8.037 7.672,8.020 7.746,8.020 8.000 C 8.020 8.256,8.036 8.328,8.131 8.489 C 8.256 8.702,8.449 8.864,8.670 8.943 C 8.891 9.022,15.109 9.022,15.330 8.943 C 15.551 8.864,15.744 8.702,15.869 8.489 C 15.964 8.328,15.980 8.256,15.980 8.000 C 15.980 7.746,15.963 7.672,15.872 7.516 C 15.813 7.415,15.698 7.282,15.618 7.221 C 15.357 7.022,15.203 7.000,14.055 7.000 L 13.003 7.000 12.991 4.850 L 12.980 2.700 12.872 2.516 C 12.628 2.101,12.150 1.915,11.695 2.057 M18.695 2.057 C 18.466 2.129,18.256 2.299,18.128 2.516 L 18.020 2.700 18.020 7.503 L 18.020 12.306 18.141 12.503 C 18.543 13.156,19.457 13.156,19.859 12.503 L 19.980 12.306 19.980 7.503 L 19.980 2.700 19.872 2.516 C 19.628 2.101,19.150 1.915,18.695 2.057 M11.695 11.057 C 11.466 11.129,11.256 11.299,11.128 11.516 L 11.020 11.700 11.020 16.503 L 11.020 21.306 11.141 21.503 C 11.543 22.156,12.457 22.156,12.859 21.503 L 12.980 21.306 12.980 16.503 L 12.980 11.700 12.872 11.516 C 12.628 11.101,12.150 10.915,11.695 11.057 M1.695 13.057 C 1.466 13.129,1.256 13.299,1.128 13.516 C 1.037 13.672,1.020 13.746,1.020 14.000 C 1.020 14.256,1.036 14.328,1.131 14.489 C 1.192 14.592,1.304 14.725,1.381 14.783 C 1.642 14.983,1.738 14.996,2.909 14.998 L 3.998 15.000 4.009 18.153 L 4.020 21.306 4.141 21.503 C 4.209 21.613,4.346 21.756,4.452 21.828 C 4.923 22.144,5.554 21.999,5.859 21.503 L 5.980 21.306 5.991 18.153 L 6.002 15.000 7.091 14.998 C 8.262 14.996,8.358 14.983,8.619 14.783 C 8.696 14.725,8.808 14.592,8.869 14.489 C 8.964 14.328,8.980 14.256,8.980 14.000 C 8.980 13.746,8.963 13.672,8.872 13.516 C 8.740 13.293,8.533 13.128,8.290 13.055 C 8.030 12.977,1.945 12.979,1.695 13.057 M15.695 15.057 C 15.466 15.129,15.256 15.299,15.128 15.516 C 15.037 15.672,15.020 15.746,15.020 16.000 C 15.020 16.256,15.036 16.328,15.131 16.489 C 15.192 16.592,15.304 16.725,15.381 16.783 C 15.642 16.983,15.738 16.996,16.909 16.998 L 17.997 17.000 18.009 19.153 L 18.020 21.306 18.141 21.503 C 18.543 22.156,19.457 22.156,19.859 21.503 L 19.980 21.306 19.991 19.153 L 20.003 17.000 21.091 16.998 C 22.262 16.996,22.358 16.983,22.619 16.783 C 22.696 16.725,22.808 16.592,22.869 16.489 C 22.964 16.328,22.980 16.256,22.980 16.000 C 22.980 15.746,22.963 15.672,22.872 15.516 C 22.740 15.293,22.533 15.128,22.290 15.055 C 22.030 14.977,15.945 14.979,15.695 15.057 " stroke="none" fill-rule="evenodd" fill="black"></path></svg>