<svg width="24" height="24" viewBox="0 0 24 24" fill="none" xmlns="http://www.w3.org/2000/svg"><path d="M4.695 2.057 C 4.466 2.129,4.256 2.299,4.128 2.516 L 4.020 2.700 4.020 5.003 L 4.020 7.306 4.141 7.503 C 4.446 7.999,5.077 8.144,5.548 7.828 C 5.654 7.756,5.791 7.613,5.859 7.503 L 5.980 7.306 5.980 5.003 L 5.980 2.700 5.872 2.516 C 5.628 2.101,5.150 1.915,4.695 2.057 M11.695 2.057 C 11.466 2.129,11.256 2.299,11.128 2.516 L 11.020 2.700 11.000 4.427 L 10.980 6.153 10.660 6.317 C 9.919 6.698,9.363 7.360,9.114 8.160 C 8.979 8.594,8.979 9.406,9.114 9.840 C 9.421 10.826,10.174 11.579,11.160 11.886 C 11.594 12.021,12.406 12.021,12.840 11.886 C 13.826 11.579,14.579 10.826,14.886 9.840 C 15.021 9.406,15.021 8.594,14.886 8.160 C 14.637 7.360,14.081 6.698,13.340 6.317 L 13.020 6.153 13.000 4.427 L 12.980 2.700 12.872 2.516 C 12.628 2.101,12.150 1.915,11.695 2.057 M18.695 2.057 C 18.466 2.129,18.256 2.299,18.128 2.516 L 18.020 2.700 18.020 6.003 L 18.020 9.306 18.141 9.503 C 18.543 10.156,19.457 10.156,19.859 9.503 L 19.980 9.306 19.980 6.003 L 19.980 2.700 19.872 2.516 C 19.628 2.101,19.150 1.915,18.695 2.057 M12.310 8.061 C 12.688 8.173,13.000 8.598,13.000 9.001 C 13.000 9.331,12.784 9.696,12.484 9.872 C 12.328 9.963,12.254 9.980,12.000 9.980 C 11.746 9.980,11.672 9.963,11.516 9.872 C 10.935 9.530,10.833 8.774,11.304 8.303 C 11.583 8.024,11.916 7.944,12.310 8.061 M4.499 10.040 C 3.363 10.246,2.460 11.049,2.114 12.160 C 1.979 12.594,1.979 13.406,2.114 13.840 C 2.363 14.640,2.928 15.314,3.660 15.684 L 3.980 15.845 4.000 18.576 L 4.020 21.306 4.141 21.503 C 4.209 21.613,4.346 21.756,4.452 21.828 C 4.923 22.144,5.554 21.999,5.859 21.503 L 5.980 21.306 6.000 18.576 L 6.020 15.845 6.340 15.684 C 7.072 15.314,7.637 14.640,7.886 13.840 C 8.021 13.406,8.021 12.594,7.886 12.160 C 7.581 11.179,6.810 10.407,5.861 10.129 C 5.500 10.023,4.832 9.980,4.499 10.040 M5.310 12.061 C 5.688 12.173,6.000 12.598,6.000 13.001 C 6.000 13.331,5.784 13.696,5.484 13.872 C 5.328 13.963,5.254 13.980,5.000 13.980 C 4.746 13.980,4.672 13.963,4.516 13.872 C 3.935 13.530,3.833 12.774,4.304 12.303 C 4.583 12.024,4.916 11.944,5.310 12.061 M18.499 12.040 C 17.363 12.246,16.460 13.049,16.114 14.160 C 15.979 14.594,15.979 15.406,16.114 15.840 C 16.363 16.640,16.928 17.314,17.660 17.684 L 17.980 17.845 18.000 19.576 L 18.020 21.306 18.141 21.503 C 18.543 22.156,19.457 22.156,19.859 21.503 L 19.980 21.306 20.000 19.576 L 20.020 17.845 20.340 17.684 C 21.072 17.314,21.637 16.640,21.886 15.840 C 22.021 15.406,22.021 14.594,21.886 14.160 C 21.581 13.179,20.810 12.407,19.861 12.129 C 19.500 12.023,18.832 11.980,18.499 12.040 M11.695 14.057 C 11.466 14.129,11.256 14.299,11.128 14.516 L 11.020 14.700 11.020 18.003 L 11.020 21.306 11.141 21.503 C 11.543 22.156,12.457 22.156,12.859 21.503 L 12.980 21.306 12.980 18.003 L 12.980 14.700 12.872 14.516 C 12.628 14.101,12.150 13.915,11.695 14.057 M19.310 14.061 C 19.688 14.173,20.000 14.598,20.000 15.001 C 20.000 15.331,19.784 15.696,19.484 15.872 C 19.328 15.963,19.254 15.980,19.000 15.980 C 18.746 15.980,18.672 15.963,18.516 15.872 C 17.935 15.530,17.833 14.774,18.304 14.303 C 18.583 14.024,18.916 13.944,19.310 14.061 " stroke="none" fill-rule="evenodd" fill="black"></path></svg>