<svg width="24" height="24" viewBox="0 0 24 24" fill="none" xmlns="http://www.w3.org/2000/svg"><path d="M11.695 1.057 C 11.466 1.129,11.256 1.299,11.128 1.516 L 11.020 1.700 11.009 3.637 L 10.997 5.574 9.269 3.853 C 7.721 2.312,7.519 2.124,7.343 2.066 C 6.863 1.906,6.382 2.084,6.128 2.516 C 6.037 2.672,6.020 2.746,6.020 3.000 C 6.020 3.254,6.036 3.327,6.127 3.480 C 6.187 3.580,7.294 4.718,8.617 6.040 L 11.000 8.420 11.000 9.710 L 11.000 11.000 9.711 11.000 L 8.422 11.000 5.981 8.564 C 3.624 6.211,3.533 6.125,3.323 6.064 C 3.057 5.986,2.945 5.984,2.710 6.055 C 2.467 6.128,2.260 6.293,2.128 6.516 C 2.036 6.672,2.020 6.745,2.021 7.000 C 2.021 7.212,2.043 7.341,2.095 7.440 C 2.135 7.517,2.936 8.349,3.874 9.290 L 5.579 11.000 3.736 11.000 C 1.735 11.000,1.663 11.007,1.382 11.221 C 1.302 11.282,1.187 11.415,1.128 11.516 C 1.037 11.672,1.020 11.746,1.020 12.000 C 1.020 12.256,1.036 12.328,1.131 12.489 C 1.256 12.702,1.449 12.864,1.670 12.943 C 1.787 12.985,2.234 12.997,3.699 12.998 L 5.579 13.000 3.874 14.710 C 2.936 15.650,2.135 16.483,2.095 16.560 C 2.043 16.659,2.021 16.788,2.021 17.000 C 2.020 17.258,2.036 17.327,2.133 17.492 C 2.413 17.968,3.033 18.139,3.492 17.865 C 3.584 17.810,4.731 16.693,6.040 15.383 L 8.420 13.000 9.710 13.000 L 11.000 13.000 11.000 14.290 L 11.000 15.580 8.617 17.960 C 7.307 19.269,6.190 20.416,6.135 20.508 C 5.861 20.967,6.032 21.587,6.508 21.867 C 6.673 21.964,6.742 21.980,7.000 21.979 C 7.212 21.979,7.341 21.957,7.440 21.905 C 7.517 21.865,8.349 21.065,9.289 20.128 L 10.997 18.424 11.009 20.365 L 11.020 22.306 11.141 22.503 C 11.543 23.156,12.457 23.156,12.859 22.503 L 12.980 22.306 12.991 20.365 L 13.003 18.424 14.711 20.128 C 15.651 21.065,16.483 21.865,16.560 21.905 C 16.659 21.957,16.788 21.979,17.000 21.979 C 17.258 21.980,17.327 21.964,17.492 21.867 C 17.968 21.587,18.139 20.967,17.865 20.508 C 17.810 20.416,16.693 19.269,15.383 17.960 L 13.000 15.580 13.000 14.290 L 13.000 13.000 14.290 13.000 L 15.580 13.000 17.960 15.383 C 19.269 16.693,20.416 17.810,20.508 17.865 C 20.967 18.139,21.587 17.968,21.867 17.492 C 21.964 17.327,21.980 17.258,21.979 17.000 C 21.979 16.788,21.957 16.659,21.905 16.560 C 21.865 16.483,21.064 15.650,20.126 14.710 L 18.421 13.000 20.301 12.998 C 21.766 12.997,22.213 12.985,22.330 12.943 C 22.551 12.864,22.744 12.702,22.869 12.489 C 22.964 12.328,22.980 12.256,22.980 12.000 C 22.980 11.746,22.963 11.672,22.872 11.516 C 22.813 11.415,22.698 11.282,22.618 11.221 C 22.337 11.007,22.265 11.000,20.264 11.000 L 18.421 11.000 20.126 9.290 C 21.064 8.350,21.865 7.517,21.905 7.440 C 21.957 7.341,21.979 7.212,21.979 7.000 C 21.980 6.745,21.964 6.672,21.872 6.516 C 21.740 6.293,21.533 6.128,21.290 6.055 C 21.055 5.984,20.943 5.986,20.677 6.064 C 20.467 6.125,20.376 6.211,18.019 8.564 L 15.578 11.000 14.289 11.000 L 13.000 11.000 13.000 9.710 L 13.000 8.420 15.383 6.040 C 16.706 4.718,17.813 3.580,17.873 3.480 C 17.964 3.327,17.980 3.254,17.980 3.000 C 17.980 2.746,17.963 2.672,17.872 2.516 C 17.618 2.084,17.137 1.906,16.657 2.066 C 16.481 2.124,16.279 2.312,14.731 3.853 L 13.003 5.574 12.991 3.637 L 12.980 1.700 12.872 1.516 C 12.628 1.101,12.150 0.915,11.695 1.057 " stroke="none" fill-rule="evenodd" fill="black"></path></svg>