<svg width="24" height="24" viewBox="0 0 24 24" fill="none" xmlns="http://www.w3.org/2000/svg"><path d="M8.670 1.061 C 8.448 1.142,8.250 1.309,8.128 1.516 C 8.037 1.672,8.020 1.746,8.020 2.000 C 8.020 2.254,8.036 2.327,8.127 2.480 C 8.186 2.579,8.857 3.281,9.617 4.040 L 11.000 5.420 11.000 7.830 C 11.000 9.155,10.989 10.240,10.975 10.240 C 10.908 10.240,6.832 7.859,6.803 7.804 C 6.784 7.769,6.550 6.921,6.283 5.920 C 6.015 4.919,5.760 4.024,5.715 3.931 C 5.394 3.263,4.363 3.244,3.979 3.898 C 3.771 4.253,3.783 4.346,4.273 6.160 C 4.513 7.051,4.706 7.784,4.702 7.789 C 4.698 7.794,3.994 7.986,3.138 8.216 C 2.281 8.446,1.526 8.655,1.460 8.680 C 0.815 8.926,0.639 9.803,1.135 10.296 C 1.311 10.471,1.609 10.601,1.835 10.600 C 1.909 10.600,2.818 10.372,3.855 10.094 C 4.892 9.815,5.758 9.588,5.780 9.588 C 5.832 9.587,9.960 11.972,9.960 12.002 C 9.960 12.044,5.822 14.415,5.760 14.410 C 5.727 14.407,4.890 14.185,3.900 13.916 C 1.965 13.390,1.752 13.354,1.429 13.496 C 0.647 13.838,0.667 15.015,1.460 15.321 C 1.526 15.346,2.282 15.556,3.139 15.786 C 3.997 16.017,4.701 16.209,4.704 16.213 C 4.707 16.217,4.513 16.949,4.273 17.840 C 3.893 19.248,3.838 19.490,3.854 19.690 C 3.886 20.088,4.132 20.403,4.518 20.539 C 4.869 20.663,5.275 20.567,5.548 20.294 C 5.748 20.094,5.723 20.170,6.335 17.888 C 6.584 16.958,6.804 16.180,6.824 16.160 C 6.862 16.122,10.865 13.804,10.950 13.771 C 10.990 13.755,11.000 14.251,11.000 16.166 L 11.000 18.580 9.617 19.960 C 8.857 20.719,8.190 21.416,8.135 21.508 C 7.861 21.967,8.032 22.587,8.508 22.867 C 8.673 22.964,8.742 22.980,9.000 22.979 C 9.213 22.979,9.341 22.957,9.440 22.905 C 9.517 22.864,10.125 22.289,10.790 21.626 L 12.000 20.422 13.210 21.626 C 13.876 22.289,14.483 22.864,14.560 22.905 C 14.659 22.957,14.787 22.979,15.000 22.979 C 15.258 22.980,15.327 22.964,15.492 22.867 C 15.968 22.587,16.139 21.967,15.865 21.508 C 15.810 21.416,15.143 20.719,14.383 19.960 L 13.000 18.580 13.000 16.166 C 13.000 14.251,13.010 13.755,13.050 13.771 C 13.135 13.804,17.138 16.122,17.176 16.160 C 17.196 16.180,17.416 16.958,17.665 17.888 C 18.277 20.171,18.252 20.094,18.452 20.293 C 18.732 20.571,19.125 20.665,19.482 20.539 C 19.868 20.403,20.114 20.088,20.146 19.690 C 20.162 19.490,20.106 19.246,19.727 17.840 C 19.487 16.949,19.292 16.217,19.295 16.213 C 19.298 16.209,20.003 16.017,20.860 15.786 C 21.718 15.555,22.474 15.346,22.540 15.320 C 23.190 15.072,23.362 14.190,22.857 13.700 C 22.650 13.498,22.319 13.378,22.066 13.413 C 21.975 13.426,21.090 13.654,20.100 13.920 C 19.110 14.187,18.273 14.407,18.240 14.410 C 18.178 14.415,14.040 12.044,14.040 12.002 C 14.040 11.972,18.168 9.587,18.220 9.588 C 18.242 9.588,19.108 9.815,20.145 10.094 C 21.182 10.372,22.091 10.600,22.165 10.600 C 22.391 10.601,22.689 10.471,22.865 10.296 C 23.361 9.803,23.185 8.926,22.540 8.680 C 22.474 8.655,21.719 8.446,20.862 8.216 C 20.006 7.986,19.301 7.794,19.297 7.789 C 19.293 7.784,19.487 7.051,19.727 6.160 C 20.216 4.346,20.229 4.252,20.021 3.898 C 19.637 3.244,18.606 3.263,18.285 3.931 C 18.240 4.024,17.985 4.919,17.717 5.920 C 17.450 6.921,17.216 7.768,17.198 7.803 C 17.169 7.858,13.091 10.240,13.026 10.240 C 13.012 10.240,13.000 9.155,13.000 7.830 L 13.000 5.420 14.383 4.040 C 15.143 3.281,15.814 2.579,15.873 2.480 C 15.964 2.327,15.980 2.254,15.980 2.000 C 15.980 1.746,15.963 1.672,15.872 1.516 C 15.618 1.084,15.137 0.905,14.657 1.066 C 14.484 1.124,14.312 1.279,13.230 2.354 L 12.000 3.576 10.770 2.354 C 9.688 1.279,9.516 1.124,9.343 1.066 C 9.108 0.987,8.875 0.985,8.670 1.061 " stroke="none" fill-rule="evenodd" fill="black"></path></svg>