<svg width="24" height="24" viewBox="0 0 24 24" fill="none" xmlns="http://www.w3.org/2000/svg"><path d="M2.695 2.057 C 2.466 2.129,2.256 2.299,2.128 2.516 C 2.037 2.672,2.020 2.746,2.020 3.000 C 2.020 3.256,2.036 3.328,2.131 3.489 C 2.256 3.702,2.449 3.864,2.670 3.943 C 2.893 4.023,21.107 4.023,21.330 3.943 C 21.551 3.864,21.744 3.702,21.869 3.489 C 21.964 3.328,21.980 3.256,21.980 3.000 C 21.980 2.746,21.963 2.672,21.872 2.516 C 21.740 2.293,21.533 2.128,21.290 2.055 C 21.027 1.976,2.947 1.978,2.695 2.057 M11.680 5.054 C 11.603 5.082,10.806 5.595,9.910 6.194 C 8.668 7.023,8.257 7.318,8.184 7.431 C 7.813 8.008,8.045 8.716,8.678 8.939 C 9.095 9.086,9.259 9.029,10.200 8.401 L 10.980 7.880 10.990 9.940 C 10.996 11.073,10.996 12.927,10.990 14.060 L 10.980 16.120 10.225 15.617 C 9.810 15.340,9.399 15.088,9.310 15.057 C 8.877 14.904,8.376 15.093,8.138 15.499 C 8.013 15.713,7.970 16.045,8.039 16.264 C 8.155 16.629,8.202 16.669,9.958 17.838 C 11.758 19.037,11.770 19.044,12.183 18.982 C 12.335 18.959,12.653 18.763,14.038 17.841 C 15.014 17.191,15.745 16.677,15.795 16.607 C 15.843 16.540,15.908 16.410,15.941 16.318 C 16.210 15.556,15.448 14.789,14.690 15.057 C 14.601 15.088,14.190 15.340,13.775 15.617 L 13.020 16.120 13.010 14.060 C 13.004 12.927,13.004 11.073,13.010 9.940 L 13.020 7.880 13.800 8.401 C 14.229 8.687,14.643 8.939,14.720 8.960 C 15.489 9.176,16.204 8.428,15.941 7.682 C 15.908 7.590,15.844 7.461,15.797 7.396 C 15.703 7.263,12.541 5.134,12.320 5.054 C 12.243 5.026,12.099 5.004,12.000 5.004 C 11.901 5.004,11.757 5.026,11.680 5.054 M2.695 20.057 C 2.466 20.129,2.256 20.299,2.128 20.516 C 2.037 20.672,2.020 20.746,2.020 21.000 C 2.020 21.256,2.036 21.328,2.131 21.489 C 2.256 21.702,2.449 21.864,2.670 21.943 C 2.893 22.023,21.107 22.023,21.330 21.943 C 21.551 21.864,21.744 21.702,21.869 21.489 C 21.964 21.328,21.980 21.256,21.980 21.000 C 21.980 20.746,21.963 20.672,21.872 20.516 C 21.740 20.293,21.533 20.128,21.290 20.055 C 21.027 19.976,2.947 19.978,2.695 20.057 " stroke="none" fill-rule="evenodd" fill="black"></path></svg>