<svg width="24" height="24" viewBox="0 0 24 24" fill="none" xmlns="http://www.w3.org/2000/svg"><path d="M2.695 2.057 C 2.466 2.129,2.256 2.299,2.128 2.516 L 2.020 2.700 2.020 12.003 L 2.020 21.306 2.141 21.503 C 2.543 22.156,3.457 22.156,3.859 21.503 L 3.980 21.306 3.980 12.003 L 3.980 2.700 3.872 2.516 C 3.628 2.101,3.150 1.915,2.695 2.057 M20.695 2.057 C 20.466 2.129,20.256 2.299,20.128 2.516 L 20.020 2.700 20.020 12.003 L 20.020 21.306 20.141 21.503 C 20.543 22.156,21.457 22.156,21.859 21.503 L 21.980 21.306 21.980 12.003 L 21.980 2.700 21.872 2.516 C 21.628 2.101,21.150 1.915,20.695 2.057 M6.240 8.035 C 5.929 8.137,5.651 8.393,5.555 8.665 C 5.474 8.894,5.474 15.106,5.555 15.335 C 5.682 15.696,6.114 15.999,6.500 15.999 C 6.873 15.999,7.269 15.735,7.427 15.380 C 7.488 15.242,7.500 15.067,7.512 14.110 L 7.527 13.000 12.000 13.000 L 16.473 13.000 16.488 14.110 C 16.503 15.337,16.516 15.405,16.772 15.675 C 17.182 16.107,17.844 16.096,18.245 15.652 C 18.510 15.357,18.500 15.507,18.500 12.000 C 18.500 8.497,18.510 8.642,18.248 8.352 C 18.029 8.110,17.831 8.022,17.500 8.022 C 17.181 8.022,16.985 8.104,16.772 8.326 C 16.516 8.594,16.503 8.663,16.488 9.890 L 16.473 11.000 12.000 11.000 L 7.527 11.000 7.512 9.890 C 7.500 8.933,7.488 8.758,7.427 8.620 C 7.337 8.418,7.145 8.216,6.943 8.112 C 6.771 8.024,6.399 7.983,6.240 8.035 " stroke="none" fill-rule="evenodd" fill="black"></path></svg>