<svg width="24" height="24" viewBox="0 0 24 24" fill="none" xmlns="http://www.w3.org/2000/svg"><path d="M2.695 2.057 C 2.466 2.129,2.256 2.299,2.128 2.516 C 2.037 2.672,2.020 2.746,2.020 3.000 C 2.020 3.256,2.036 3.328,2.131 3.489 C 2.256 3.702,2.449 3.864,2.670 3.943 C 2.893 4.023,21.107 4.023,21.330 3.943 C 21.551 3.864,21.744 3.702,21.869 3.489 C 21.964 3.328,21.980 3.256,21.980 3.000 C 21.980 2.746,21.963 2.672,21.872 2.516 C 21.740 2.293,21.533 2.128,21.290 2.055 C 21.027 1.976,2.947 1.978,2.695 2.057 M8.600 5.584 C 8.267 5.728,8.001 6.135,8.001 6.500 C 8.001 6.873,8.265 7.269,8.620 7.427 C 8.758 7.488,8.933 7.500,9.890 7.512 L 11.000 7.527 11.000 12.023 L 11.000 16.520 9.879 16.520 C 8.642 16.520,8.580 16.530,8.325 16.772 C 7.893 17.182,7.904 17.844,8.348 18.245 C 8.643 18.510,8.493 18.500,12.000 18.500 C 15.507 18.500,15.357 18.510,15.652 18.245 C 16.096 17.844,16.107 17.182,15.675 16.772 C 15.420 16.530,15.358 16.520,14.121 16.520 L 13.000 16.520 13.000 12.023 L 13.000 7.527 14.110 7.512 C 15.067 7.500,15.242 7.488,15.380 7.427 C 15.735 7.269,15.999 6.873,15.999 6.500 C 15.999 6.255,15.864 5.951,15.675 5.772 C 15.396 5.508,15.577 5.520,11.991 5.522 C 9.179 5.523,8.721 5.531,8.600 5.584 M2.695 20.057 C 2.466 20.129,2.256 20.299,2.128 20.516 C 2.037 20.672,2.020 20.746,2.020 21.000 C 2.020 21.256,2.036 21.328,2.131 21.489 C 2.256 21.702,2.449 21.864,2.670 21.943 C 2.893 22.023,21.107 22.023,21.330 21.943 C 21.551 21.864,21.744 21.702,21.869 21.489 C 21.964 21.328,21.980 21.256,21.980 21.000 C 21.980 20.746,21.963 20.672,21.872 20.516 C 21.740 20.293,21.533 20.128,21.290 20.055 C 21.027 19.976,2.947 19.978,2.695 20.057 " stroke="none" fill-rule="evenodd" fill="black"></path></svg>