<svg width="24" height="24" viewBox="0 0 24 24" fill="none" xmlns="http://www.w3.org/2000/svg"><path d="M2.695 2.057 C 2.466 2.129,2.256 2.299,2.128 2.516 L 2.020 2.700 2.020 12.003 L 2.020 21.306 2.141 21.503 C 2.543 22.156,3.457 22.156,3.859 21.503 L 3.980 21.306 3.980 12.003 L 3.980 2.700 3.872 2.516 C 3.628 2.101,3.150 1.915,2.695 2.057 M20.695 2.057 C 20.466 2.129,20.256 2.299,20.128 2.516 L 20.020 2.700 20.020 12.003 L 20.020 21.306 20.141 21.503 C 20.543 22.156,21.457 22.156,21.859 21.503 L 21.980 21.306 21.980 12.003 L 21.980 2.700 21.872 2.516 C 21.628 2.101,21.150 1.915,20.695 2.057 M7.668 8.061 C 7.585 8.092,7.462 8.156,7.394 8.204 C 7.322 8.255,6.815 8.977,6.159 9.962 C 5.237 11.347,5.041 11.665,5.018 11.817 C 4.956 12.230,4.963 12.242,6.162 14.042 C 7.331 15.798,7.371 15.845,7.736 15.961 C 7.955 16.030,8.287 15.987,8.501 15.862 C 8.907 15.624,9.096 15.123,8.943 14.690 C 8.912 14.601,8.660 14.190,8.383 13.775 L 7.880 13.020 9.940 13.010 C 11.073 13.004,12.927 13.004,14.060 13.010 L 16.120 13.020 15.599 13.800 C 14.971 14.741,14.914 14.905,15.061 15.322 C 15.284 15.956,15.992 16.187,16.571 15.815 C 16.688 15.739,16.975 15.338,17.838 14.042 C 19.037 12.242,19.044 12.230,18.982 11.817 C 18.959 11.665,18.763 11.347,17.841 9.962 C 17.191 8.986,16.677 8.255,16.607 8.205 C 16.540 8.157,16.410 8.092,16.318 8.059 C 15.574 7.797,14.824 8.513,15.040 9.280 C 15.061 9.357,15.313 9.771,15.599 10.200 L 16.120 10.980 14.060 10.990 C 12.927 10.996,11.073 10.996,9.940 10.990 L 7.880 10.980 8.383 10.225 C 8.660 9.810,8.912 9.399,8.943 9.310 C 9.212 8.550,8.428 7.782,7.668 8.061 " stroke="none" fill-rule="evenodd" fill="black"></path></svg>