<svg width="24" height="24" viewBox="0 0 24 24" fill="none" xmlns="http://www.w3.org/2000/svg"><path d="M5.920 1.041 C 5.151 1.092,4.672 1.205,4.180 1.451 C 3.089 1.996,2.357 2.961,2.124 4.160 C 2.015 4.718,2.000 5.439,2.000 10.000 C 2.000 15.284,2.010 15.540,2.245 16.320 C 2.580 17.434,3.586 18.431,4.710 18.765 L 5.000 18.852 5.001 19.996 C 5.002 21.585,5.075 21.881,5.597 22.403 C 5.896 22.702,6.173 22.853,6.581 22.939 C 6.999 23.028,17.001 23.028,17.419 22.940 C 17.818 22.855,18.102 22.699,18.401 22.401 C 18.925 21.876,18.998 21.583,18.999 19.996 L 19.000 18.852 19.290 18.765 C 20.414 18.431,21.420 17.434,21.755 16.320 C 21.990 15.540,22.000 15.284,22.000 10.000 C 22.000 4.716,21.990 4.460,21.755 3.680 C 21.424 2.581,20.465 1.622,19.320 1.246 C 18.644 1.024,18.800 1.029,12.340 1.019 C 9.062 1.014,6.173 1.024,5.920 1.041 M18.492 3.091 C 18.894 3.188,19.109 3.309,19.400 3.600 C 19.696 3.895,19.814 4.109,19.912 4.528 C 19.974 4.795,19.980 5.256,19.980 10.000 C 19.980 14.744,19.974 15.205,19.912 15.472 C 19.814 15.891,19.696 16.104,19.400 16.401 C 19.101 16.701,18.820 16.851,18.418 16.928 C 18.010 17.005,5.990 17.005,5.582 16.927 C 5.170 16.850,4.898 16.704,4.600 16.403 C 4.303 16.104,4.186 15.890,4.088 15.472 C 4.026 15.205,4.020 14.744,4.020 10.000 C 4.020 5.256,4.026 4.795,4.088 4.528 C 4.175 4.155,4.294 3.918,4.520 3.667 C 4.883 3.262,5.282 3.091,5.980 3.039 C 6.200 3.023,9.044 3.013,12.300 3.018 C 17.643 3.024,18.247 3.032,18.492 3.091 M11.380 4.043 C 8.784 4.299,6.676 6.219,6.115 8.840 C 5.984 9.450,5.984 10.558,6.114 11.160 C 6.639 13.588,8.417 15.365,10.840 15.885 C 11.446 16.015,12.554 16.015,13.160 15.885 C 14.397 15.620,15.412 15.068,16.269 14.195 C 17.109 13.340,17.626 12.369,17.885 11.160 C 18.015 10.554,18.015 9.446,17.885 8.840 C 17.626 7.631,17.109 6.660,16.269 5.805 C 14.978 4.490,13.230 3.860,11.380 4.043 M12.605 6.058 C 14.074 6.280,15.310 7.324,15.797 8.755 C 15.897 9.050,16.000 9.680,16.000 10.000 C 16.000 10.322,15.897 10.951,15.796 11.245 C 15.321 12.632,14.195 13.628,12.773 13.917 C 10.563 14.368,8.396 12.845,8.058 10.605 C 7.986 10.121,7.986 9.879,8.058 9.395 C 8.314 7.698,9.675 6.324,11.358 6.061 C 11.816 5.990,12.144 5.989,12.605 6.058 M11.516 8.577 C 10.466 8.979,10.167 10.277,10.945 11.055 C 11.807 11.918,13.314 11.420,13.477 10.218 C 13.566 9.564,13.245 8.958,12.650 8.657 C 12.455 8.558,12.370 8.541,12.042 8.532 C 11.789 8.525,11.611 8.540,11.516 8.577 M17.000 20.000 L 17.000 21.000 12.000 21.000 L 7.000 21.000 7.000 20.000 L 7.000 19.000 12.000 19.000 L 17.000 19.000 17.000 20.000 " stroke="none" fill-rule="evenodd" fill="black"></path></svg>