<svg width="24" height="24" viewBox="0 0 24 24" fill="none" xmlns="http://www.w3.org/2000/svg"><path d="M6.920 1.040 C 6.150 1.092,5.672 1.205,5.180 1.451 C 4.089 1.996,3.357 2.961,3.124 4.160 C 3.012 4.738,3.000 5.470,3.000 12.000 C 3.000 19.433,3.002 19.515,3.245 20.320 C 3.577 21.422,4.578 22.423,5.680 22.755 C 6.460 22.990,6.716 23.000,12.000 23.000 C 17.284 23.000,17.540 22.990,18.320 22.755 C 19.422 22.423,20.423 21.422,20.755 20.320 C 20.998 19.515,21.000 19.433,21.000 12.000 C 21.000 4.567,20.998 4.485,20.755 3.680 C 20.424 2.581,19.465 1.622,18.320 1.246 C 17.657 1.028,17.701 1.030,12.340 1.019 C 9.612 1.014,7.173 1.023,6.920 1.040 M17.492 3.091 C 17.893 3.188,18.109 3.309,18.400 3.600 C 18.696 3.895,18.814 4.109,18.912 4.528 C 18.975 4.798,18.980 5.370,18.980 12.000 C 18.980 18.630,18.975 19.202,18.912 19.472 C 18.814 19.891,18.696 20.104,18.400 20.401 C 18.101 20.701,17.820 20.851,17.418 20.928 C 17.011 21.004,6.989 21.004,6.582 20.927 C 6.170 20.850,5.898 20.704,5.600 20.403 C 5.303 20.104,5.186 19.890,5.088 19.472 C 5.025 19.202,5.020 18.630,5.020 12.000 C 5.020 5.370,5.025 4.798,5.088 4.528 C 5.175 4.155,5.294 3.918,5.520 3.667 C 5.883 3.262,6.281 3.091,6.980 3.039 C 7.200 3.023,9.594 3.013,12.300 3.018 C 16.701 3.025,17.249 3.033,17.492 3.091 M11.516 4.577 C 10.466 4.979,10.167 6.277,10.945 7.055 C 11.528 7.638,12.472 7.638,13.055 7.055 C 13.781 6.330,13.577 5.126,12.650 4.657 C 12.455 4.558,12.370 4.541,12.042 4.532 C 11.789 4.525,11.611 4.540,11.516 4.577 M11.400 9.044 C 9.761 9.229,8.261 10.290,7.526 11.785 C 7.158 12.533,7.020 13.136,7.020 14.000 C 7.020 14.670,7.078 15.044,7.268 15.600 C 7.846 17.291,9.253 18.525,11.040 18.907 C 11.511 19.008,12.489 19.008,12.960 18.907 C 14.488 18.580,15.748 17.630,16.433 16.288 C 16.838 15.494,16.980 14.899,16.980 14.000 C 16.980 13.101,16.838 12.506,16.433 11.713 C 15.794 10.461,14.604 9.510,13.240 9.162 C 12.669 9.016,12.019 8.974,11.400 9.044 M12.861 11.129 C 13.804 11.405,14.584 12.183,14.875 13.139 C 14.958 13.412,14.973 13.542,14.973 14.000 C 14.973 14.458,14.958 14.588,14.875 14.861 C 14.582 15.822,13.819 16.581,12.840 16.886 C 12.406 17.021,11.594 17.021,11.160 16.886 C 10.181 16.581,9.418 15.822,9.125 14.861 C 9.042 14.588,9.027 14.458,9.027 14.000 C 9.027 13.542,9.042 13.412,9.125 13.139 C 9.456 12.054,10.371 11.245,11.499 11.040 C 11.832 10.980,12.500 11.023,12.861 11.129 " stroke="none" fill-rule="evenodd" fill="black"></path></svg>