<svg width="24" height="24" viewBox="0 0 24 24" fill="none" xmlns="http://www.w3.org/2000/svg"><path d="M11.280 1.023 C 11.203 1.032,10.951 1.059,10.720 1.083 C 9.527 1.210,8.337 1.558,7.180 2.120 C 6.045 2.671,5.193 3.285,4.238 4.239 C 3.277 5.198,2.643 6.080,2.097 7.220 C 0.301 10.968,0.728 15.286,3.226 18.633 C 3.701 19.269,4.753 20.316,5.400 20.797 C 9.364 23.745,14.666 23.734,18.637 20.770 C 19.246 20.316,20.316 19.246,20.770 18.637 C 23.744 14.652,23.744 9.348,20.770 5.363 C 20.316 4.755,19.247 3.686,18.640 3.235 C 17.045 2.049,15.365 1.360,13.423 1.096 C 13.000 1.038,11.574 0.990,11.280 1.023 M13.320 3.101 C 15.883 3.488,18.124 4.931,19.560 7.120 C 19.863 7.583,20.303 8.479,20.492 9.020 C 20.838 10.013,20.977 10.865,20.977 12.000 C 20.977 13.493,20.720 14.621,20.080 15.940 C 19.375 17.394,18.311 18.607,16.927 19.532 C 16.138 20.060,14.876 20.588,13.908 20.797 C 11.266 21.366,8.479 20.708,6.370 19.019 C 4.857 17.807,3.722 16.029,3.267 14.160 C 3.081 13.397,3.023 12.888,3.023 12.000 C 3.023 10.507,3.280 9.379,3.920 8.060 C 4.971 5.891,6.877 4.221,9.160 3.466 C 9.865 3.233,10.432 3.118,11.340 3.024 C 11.662 2.991,12.911 3.039,13.320 3.101 M11.207 4.043 C 10.294 4.131,9.352 4.400,8.501 4.817 C 5.988 6.045,4.328 8.431,4.037 11.232 C 3.967 11.903,3.998 12.271,4.144 12.508 C 4.540 13.151,5.459 13.153,5.852 12.514 C 5.957 12.344,5.972 12.272,6.021 11.694 C 6.083 10.959,6.158 10.562,6.329 10.060 C 6.919 8.328,8.328 6.919,10.060 6.329 C 10.561 6.158,10.959 6.083,11.690 6.021 C 12.246 5.974,12.341 5.955,12.502 5.861 C 13.248 5.424,13.116 4.304,12.290 4.055 C 12.093 3.996,11.737 3.992,11.207 4.043 M16.058 6.619 C 15.910 6.693,15.435 7.143,14.185 8.394 L 12.511 10.070 12.365 10.036 C 11.962 9.942,11.372 10.047,10.983 10.281 C 10.068 10.831,9.741 11.975,10.225 12.930 C 10.361 13.199,10.801 13.639,11.070 13.775 C 11.659 14.073,12.341 14.073,12.930 13.775 C 13.196 13.640,13.638 13.200,13.771 12.937 C 13.970 12.544,14.051 11.991,13.962 11.620 C 13.934 11.504,13.993 11.440,15.625 9.800 C 16.940 8.478,17.335 8.059,17.398 7.914 C 17.695 7.240,17.231 6.520,16.500 6.520 C 16.320 6.520,16.204 6.546,16.058 6.619 " stroke="none" fill-rule="evenodd" fill="black"></path></svg>