<svg width="24" height="24" viewBox="0 0 24 24" fill="none" xmlns="http://www.w3.org/2000/svg"><path d="M11.280 1.023 C 11.203 1.032,10.951 1.059,10.720 1.083 C 8.832 1.283,6.991 2.023,5.360 3.235 C 4.751 3.688,3.684 4.755,3.226 5.367 C 0.728 8.714,0.301 13.032,2.097 16.780 C 3.909 20.561,7.792 23.000,12.000 23.000 C 17.303 23.000,21.883 19.174,22.820 13.962 C 23.368 10.918,22.641 7.869,20.770 5.363 C 20.316 4.755,19.247 3.686,18.640 3.235 C 17.045 2.049,15.365 1.360,13.423 1.096 C 13.000 1.038,11.574 0.990,11.280 1.023 M11.000 3.890 C 11.001 4.659,11.006 4.710,11.095 4.900 C 11.276 5.281,11.595 5.488,12.000 5.488 C 12.405 5.488,12.724 5.281,12.905 4.900 C 12.994 4.710,12.999 4.659,13.000 3.884 L 13.000 3.069 13.239 3.094 C 14.016 3.175,15.086 3.501,15.942 3.918 C 16.434 4.158,17.274 4.679,17.556 4.920 L 17.651 5.002 15.756 6.871 C 14.713 7.899,13.734 8.860,13.580 9.007 L 13.300 9.273 13.017 9.178 C 11.353 8.618,9.633 9.491,9.114 11.160 C 8.979 11.594,8.979 12.406,9.114 12.840 C 9.421 13.826,10.174 14.579,11.160 14.886 C 11.594 15.021,12.406 15.021,12.840 14.886 C 13.826 14.579,14.578 13.827,14.886 12.840 C 14.966 12.583,14.980 12.459,14.978 11.980 C 14.976 11.459,14.967 11.395,14.851 11.060 L 14.726 10.700 15.233 10.196 C 18.376 7.073,19.043 6.433,19.104 6.483 C 19.248 6.602,19.829 7.538,20.082 8.058 C 20.498 8.913,20.825 9.984,20.906 10.758 L 20.931 10.994 20.075 11.007 C 19.288 11.019,19.207 11.027,19.060 11.106 C 18.707 11.297,18.512 11.615,18.512 12.000 C 18.512 12.405,18.719 12.724,19.100 12.905 C 19.290 12.994,19.341 12.999,20.116 13.000 L 20.931 13.000 20.906 13.239 C 20.786 14.387,20.215 15.896,19.489 16.982 C 19.024 17.677,19.084 17.653,18.679 17.296 C 18.095 16.779,17.484 16.431,16.800 16.225 C 16.118 16.019,16.130 16.020,12.000 16.020 C 7.870 16.020,7.882 16.019,7.200 16.225 C 6.516 16.431,5.905 16.779,5.321 17.296 C 4.916 17.653,4.976 17.677,4.511 16.982 C 3.785 15.896,3.214 14.387,3.094 13.239 L 3.069 13.000 3.884 13.000 C 4.659 12.999,4.710 12.994,4.900 12.905 C 5.281 12.724,5.488 12.405,5.488 12.000 C 5.488 11.615,5.293 11.297,4.940 11.106 C 4.793 11.027,4.712 11.019,3.925 11.007 L 3.069 10.994 3.094 10.758 C 3.230 9.456,3.973 7.651,4.811 6.587 L 4.931 6.435 5.497 6.995 C 6.133 7.626,6.281 7.718,6.660 7.718 C 7.317 7.718,7.764 7.141,7.620 6.478 C 7.575 6.273,7.481 6.153,6.887 5.552 L 6.346 5.005 6.443 4.921 C 6.496 4.876,6.755 4.693,7.018 4.515 C 7.902 3.917,9.131 3.398,10.120 3.205 C 10.351 3.160,10.576 3.115,10.620 3.106 C 10.664 3.097,10.768 3.087,10.850 3.085 L 11.000 3.080 11.000 3.890 M12.310 11.061 C 12.688 11.173,13.000 11.598,13.000 12.001 C 13.000 12.331,12.784 12.696,12.484 12.872 C 12.328 12.963,12.254 12.980,12.000 12.980 C 11.746 12.980,11.672 12.963,11.516 12.872 C 10.935 12.530,10.833 11.774,11.304 11.303 C 11.583 11.024,11.916 10.944,12.310 11.061 M15.600 18.039 C 16.310 18.098,16.749 18.281,17.280 18.740 C 17.445 18.882,17.584 19.013,17.589 19.029 C 17.594 19.046,17.459 19.160,17.289 19.283 C 14.359 21.398,10.448 21.567,7.361 19.711 C 6.994 19.490,6.403 19.075,6.401 19.036 C 6.400 19.023,6.535 18.897,6.700 18.756 C 7.237 18.297,7.702 18.093,8.333 18.042 C 8.877 17.997,15.065 17.995,15.600 18.039 " stroke="none" fill-rule="evenodd" fill="black"></path></svg>