<svg width="24" height="24" viewBox="0 0 24 24" fill="none" xmlns="http://www.w3.org/2000/svg"><path d="M11.695 1.057 C 11.466 1.129,11.256 1.299,11.128 1.516 C 11.025 1.692,11.019 1.728,11.007 2.350 L 10.993 3.000 7.627 3.000 C 4.252 3.000,3.623 3.020,3.141 3.145 C 2.514 3.307,1.910 3.744,1.523 4.315 C 1.315 4.621,1.194 4.912,1.094 5.340 C 1.024 5.643,1.020 5.924,1.020 10.520 L 1.020 15.380 1.111 15.735 C 1.225 16.184,1.379 16.505,1.650 16.858 C 2.033 17.357,2.593 17.717,3.244 17.885 C 3.551 17.963,3.711 17.972,5.075 17.989 L 6.571 18.008 4.870 19.714 C 3.934 20.652,3.138 21.481,3.101 21.555 C 2.872 22.010,3.056 22.601,3.508 22.867 C 3.673 22.964,3.743 22.980,4.000 22.980 C 4.254 22.980,4.327 22.964,4.480 22.873 C 4.580 22.813,5.718 21.706,7.040 20.383 L 9.420 18.000 10.209 18.000 L 10.997 18.000 11.009 20.153 L 11.020 22.306 11.141 22.503 C 11.543 23.156,12.457 23.156,12.859 22.503 L 12.980 22.306 12.991 20.153 L 13.003 18.000 13.791 18.000 L 14.580 18.000 16.960 20.383 C 18.282 21.706,19.420 22.813,19.520 22.873 C 19.673 22.964,19.746 22.980,20.000 22.980 C 20.257 22.980,20.327 22.964,20.492 22.867 C 20.714 22.737,20.901 22.498,20.965 22.264 C 21.019 22.061,20.989 21.733,20.899 21.555 C 20.862 21.481,20.066 20.652,19.130 19.714 L 17.429 18.008 18.925 17.989 C 20.267 17.973,20.453 17.962,20.740 17.888 C 21.154 17.782,21.383 17.682,21.690 17.473 C 22.324 17.044,22.722 16.449,22.906 15.660 C 22.976 15.357,22.980 15.077,22.980 10.500 C 22.980 5.923,22.976 5.643,22.906 5.340 C 22.688 4.404,22.167 3.737,21.329 3.321 C 20.723 3.021,20.406 3.000,16.373 3.000 L 13.007 3.000 12.993 2.350 C 12.981 1.728,12.975 1.692,12.872 1.516 C 12.628 1.101,12.150 0.915,11.695 1.057 M20.374 5.074 C 20.586 5.146,20.863 5.432,20.928 5.646 C 21.005 5.902,21.005 15.098,20.928 15.354 C 20.863 15.567,20.591 15.849,20.376 15.925 C 20.143 16.007,3.857 16.007,3.624 15.925 C 3.422 15.854,3.140 15.571,3.075 15.374 C 3.008 15.175,2.974 6.515,3.037 5.949 C 3.102 5.365,3.341 5.104,3.866 5.042 C 4.017 5.024,7.758 5.012,12.180 5.016 C 18.671 5.021,20.250 5.032,20.374 5.074 " stroke="none" fill-rule="evenodd" fill="black"></path></svg>