<svg width="24" height="24" viewBox="0 0 24 24" fill="none" xmlns="http://www.w3.org/2000/svg"><path d="M11.680 1.061 C 11.444 1.135,11.227 1.318,11.126 1.530 C 11.081 1.623,10.691 3.113,10.259 4.840 C 9.827 6.567,9.421 8.116,9.356 8.283 C 9.162 8.789,8.778 9.174,8.280 9.365 C 8.159 9.411,6.603 9.815,4.822 10.263 C 1.268 11.156,1.374 11.120,1.149 11.486 C 0.855 11.960,1.042 12.641,1.530 12.874 C 1.623 12.919,3.113 13.309,4.840 13.741 C 6.567 14.173,8.124 14.582,8.300 14.650 C 8.578 14.756,8.660 14.813,8.923 15.076 C 9.168 15.322,9.247 15.433,9.338 15.660 C 9.399 15.814,9.816 17.397,10.263 19.178 C 11.156 22.732,11.120 22.626,11.486 22.851 C 11.960 23.145,12.641 22.958,12.874 22.470 C 12.919 22.377,13.309 20.887,13.741 19.160 C 14.173 17.433,14.579 15.885,14.643 15.720 C 14.833 15.228,15.203 14.848,15.679 14.656 C 15.823 14.598,17.397 14.184,19.178 13.737 C 22.732 12.844,22.626 12.880,22.851 12.514 C 23.145 12.040,22.958 11.360,22.470 11.126 C 22.377 11.081,20.931 10.702,19.258 10.284 C 16.061 9.485,15.670 9.377,15.435 9.231 C 15.064 8.998,14.795 8.676,14.644 8.283 C 14.579 8.116,14.173 6.567,13.741 4.840 C 13.309 3.113,12.919 1.624,12.875 1.531 C 12.734 1.236,12.338 0.996,12.005 1.003 C 11.925 1.004,11.779 1.031,11.680 1.061 M12.217 6.990 C 12.656 8.771,12.803 9.210,13.128 9.708 C 13.552 10.359,14.252 10.940,14.921 11.198 C 15.291 11.341,15.851 11.498,17.010 11.783 C 17.445 11.890,17.800 11.988,17.800 12.000 C 17.800 12.012,17.409 12.119,16.930 12.237 C 15.211 12.662,14.783 12.809,14.260 13.154 C 13.623 13.575,13.056 14.262,12.802 14.921 C 12.659 15.291,12.502 15.851,12.217 17.010 C 12.110 17.445,12.012 17.800,12.000 17.800 C 11.988 17.800,11.890 17.445,11.783 17.010 C 11.498 15.851,11.341 15.291,11.198 14.921 C 10.944 14.262,10.377 13.575,9.740 13.154 C 9.217 12.809,8.789 12.662,7.070 12.237 C 6.591 12.119,6.200 12.012,6.200 12.000 C 6.200 11.988,6.555 11.890,6.990 11.783 C 8.149 11.498,8.709 11.341,9.079 11.198 C 9.748 10.940,10.448 10.359,10.872 9.708 C 11.197 9.210,11.344 8.771,11.783 6.990 C 11.890 6.555,11.988 6.200,12.000 6.200 C 12.012 6.200,12.110 6.555,12.217 6.990 " stroke="none" fill-rule="evenodd" fill="black"></path></svg>