<svg width="24" height="24" viewBox="0 0 24 24" fill="none" xmlns="http://www.w3.org/2000/svg"><path d="M11.695 1.057 C 11.466 1.129,11.256 1.299,11.128 1.516 L 11.020 1.700 11.020 3.003 L 11.020 4.306 11.141 4.503 C 11.543 5.156,12.457 5.156,12.859 4.503 L 12.980 4.306 12.980 3.003 L 12.980 1.700 12.872 1.516 C 12.628 1.101,12.150 0.915,11.695 1.057 M4.780 3.947 C 4.543 4.001,4.414 4.064,4.272 4.192 C 3.963 4.471,3.863 4.824,3.979 5.224 C 4.045 5.451,4.082 5.494,4.914 6.324 C 5.454 6.862,5.839 7.214,5.937 7.259 C 6.130 7.347,6.526 7.352,6.723 7.270 C 6.932 7.182,7.142 6.982,7.242 6.775 C 7.354 6.545,7.361 6.161,7.258 5.937 C 7.167 5.735,5.554 4.117,5.360 4.031 C 5.204 3.962,4.903 3.919,4.780 3.947 M18.850 3.961 C 18.757 3.980,18.604 4.049,18.510 4.114 C 18.237 4.304,16.823 5.761,16.742 5.937 C 16.637 6.166,16.642 6.537,16.755 6.770 C 16.858 6.982,17.067 7.182,17.277 7.270 C 17.474 7.352,17.870 7.347,18.063 7.259 C 18.161 7.214,18.546 6.862,19.086 6.324 C 19.918 5.494,19.955 5.451,20.021 5.224 C 20.236 4.482,19.610 3.808,18.850 3.961 M11.655 6.065 C 11.296 6.192,11.235 6.283,10.481 7.805 L 9.780 9.220 8.227 9.448 C 6.869 9.648,6.651 9.689,6.498 9.779 C 6.079 10.025,5.905 10.506,6.065 10.977 C 6.138 11.190,6.171 11.226,7.530 12.553 C 8.083 13.093,8.400 13.431,8.400 13.482 C 8.400 13.525,8.292 14.187,8.160 14.953 C 8.028 15.720,7.920 16.436,7.920 16.545 C 7.920 16.795,8.072 17.115,8.268 17.276 C 8.345 17.339,8.509 17.423,8.633 17.462 C 8.996 17.576,9.123 17.530,10.623 16.741 C 11.356 16.355,11.975 16.040,12.000 16.040 C 12.025 16.040,12.642 16.354,13.372 16.738 C 14.103 17.122,14.784 17.458,14.886 17.485 C 15.448 17.634,16.080 17.138,16.080 16.549 C 16.080 16.437,15.972 15.720,15.840 14.953 C 15.708 14.187,15.600 13.525,15.600 13.482 C 15.600 13.431,15.917 13.093,16.470 12.553 C 17.829 11.226,17.862 11.190,17.935 10.977 C 18.095 10.506,17.921 10.025,17.502 9.779 C 17.349 9.689,17.131 9.648,15.773 9.448 L 14.220 9.220 13.519 7.804 C 12.750 6.252,12.697 6.176,12.305 6.059 C 12.060 5.987,11.871 5.988,11.655 6.065 M12.370 10.017 C 12.656 10.586,12.755 10.744,12.906 10.877 C 13.128 11.072,13.183 11.088,14.080 11.220 C 14.465 11.277,14.795 11.327,14.813 11.332 C 14.831 11.338,14.582 11.599,14.260 11.913 C 13.603 12.554,13.509 12.700,13.515 13.075 C 13.518 13.261,13.649 14.115,13.744 14.573 C 13.767 14.683,13.752 14.677,13.019 14.297 C 12.288 13.917,12.264 13.908,12.000 13.908 C 11.736 13.908,11.712 13.917,10.981 14.297 C 10.248 14.677,10.233 14.683,10.256 14.573 C 10.351 14.115,10.482 13.261,10.485 13.075 C 10.491 12.704,10.399 12.561,9.743 11.917 C 9.420 11.601,9.170 11.337,9.188 11.332 C 9.205 11.327,9.535 11.277,9.920 11.220 C 10.786 11.092,10.881 11.064,11.102 10.870 C 11.244 10.745,11.350 10.574,11.630 10.017 C 11.822 9.634,11.989 9.320,12.000 9.320 C 12.011 9.320,12.178 9.634,12.370 10.017 M1.695 11.057 C 1.466 11.129,1.256 11.299,1.128 11.516 C 1.037 11.672,1.020 11.746,1.020 12.000 C 1.020 12.256,1.036 12.328,1.131 12.489 C 1.256 12.702,1.449 12.864,1.670 12.943 C 1.885 13.020,4.115 13.020,4.330 12.943 C 4.551 12.864,4.744 12.702,4.869 12.489 C 4.964 12.328,4.980 12.256,4.980 12.000 C 4.980 11.746,4.963 11.672,4.872 11.516 C 4.740 11.293,4.533 11.128,4.290 11.055 C 4.039 10.979,1.937 10.981,1.695 11.057 M19.695 11.057 C 19.466 11.129,19.256 11.299,19.128 11.516 C 19.037 11.672,19.020 11.746,19.020 12.000 C 19.020 12.256,19.036 12.328,19.131 12.489 C 19.256 12.702,19.449 12.864,19.670 12.943 C 19.885 13.020,22.115 13.020,22.330 12.943 C 22.551 12.864,22.744 12.702,22.869 12.489 C 22.964 12.328,22.980 12.256,22.980 12.000 C 22.980 11.746,22.963 11.672,22.872 11.516 C 22.740 11.293,22.533 11.128,22.290 11.055 C 22.039 10.979,19.937 10.981,19.695 11.057 M5.897 16.777 C 5.752 16.851,5.458 17.119,4.871 17.712 C 4.088 18.503,4.043 18.556,3.979 18.778 C 3.867 19.163,3.961 19.517,4.246 19.786 C 4.532 20.054,4.847 20.130,5.221 20.021 C 5.442 19.957,5.498 19.911,6.252 19.167 C 6.690 18.734,7.098 18.308,7.159 18.220 C 7.477 17.760,7.353 17.141,6.878 16.821 C 6.727 16.718,6.655 16.698,6.400 16.688 C 6.142 16.677,6.072 16.689,5.897 16.777 M17.219 16.764 C 16.851 16.959,16.664 17.263,16.668 17.661 C 16.669 17.807,16.699 17.970,16.741 18.063 C 16.786 18.161,17.137 18.546,17.676 19.086 C 18.506 19.918,18.549 19.955,18.776 20.021 C 19.154 20.130,19.467 20.055,19.754 19.786 C 20.039 19.517,20.133 19.163,20.021 18.778 C 19.957 18.556,19.912 18.503,19.129 17.712 C 18.190 16.763,18.070 16.680,17.642 16.680 C 17.452 16.680,17.335 16.703,17.219 16.764 M11.695 19.057 C 11.466 19.129,11.256 19.299,11.128 19.516 L 11.020 19.700 11.020 21.003 L 11.020 22.306 11.141 22.503 C 11.543 23.156,12.457 23.156,12.859 22.503 L 12.980 22.306 12.980 21.003 L 12.980 19.700 12.872 19.516 C 12.628 19.101,12.150 18.915,11.695 19.057 " stroke="none" fill-rule="evenodd" fill="black"></path></svg>