<svg width="24" height="24" viewBox="0 0 24 24" fill="none" xmlns="http://www.w3.org/2000/svg"><path d="M14.700 1.049 C 14.488 1.126,14.283 1.276,14.183 1.430 C 14.130 1.513,13.831 2.246,13.519 3.060 C 12.470 5.797,12.460 5.818,12.133 6.145 C 11.838 6.440,11.672 6.516,9.426 7.379 C 8.417 7.767,7.523 8.130,7.439 8.185 C 6.904 8.539,6.864 9.363,7.362 9.766 C 7.455 9.841,8.095 10.109,9.202 10.536 C 11.896 11.575,11.818 11.539,12.139 11.861 C 12.459 12.181,12.472 12.209,13.519 14.940 C 13.831 15.754,14.131 16.486,14.186 16.567 C 14.548 17.096,15.365 17.133,15.766 16.638 C 15.841 16.545,16.109 15.903,16.542 14.778 C 17.541 12.180,17.540 12.182,17.861 11.861 C 18.183 11.539,18.142 11.558,20.700 10.575 C 21.646 10.211,22.484 9.870,22.563 9.816 C 23.074 9.468,23.142 8.739,22.704 8.302 C 22.553 8.152,22.388 8.081,20.680 7.424 C 18.371 6.536,18.163 6.441,17.867 6.145 C 17.539 5.817,17.576 5.899,16.541 3.214 C 16.167 2.246,15.844 1.468,15.781 1.385 C 15.555 1.088,15.039 0.928,14.700 1.049 M15.279 5.510 C 15.720 6.653,15.962 7.078,16.442 7.558 C 16.922 8.038,17.347 8.280,18.490 8.721 C 18.858 8.864,19.160 8.989,19.160 9.000 C 19.160 9.011,18.886 9.126,18.550 9.255 C 17.394 9.700,16.954 9.944,16.489 10.398 C 15.972 10.901,15.732 11.317,15.279 12.490 C 15.136 12.858,15.011 13.160,15.000 13.160 C 14.989 13.160,14.864 12.858,14.721 12.490 C 14.268 11.317,14.028 10.901,13.511 10.398 C 13.044 9.942,12.588 9.690,11.450 9.257 C 11.115 9.129,10.840 9.015,10.840 9.002 C 10.840 8.990,11.142 8.864,11.510 8.721 C 12.653 8.280,13.078 8.038,13.558 7.558 C 14.038 7.078,14.280 6.653,14.721 5.510 C 14.864 5.142,14.989 4.840,15.000 4.840 C 15.011 4.840,15.136 5.142,15.279 5.510 M6.240 12.035 C 6.044 12.099,5.890 12.198,5.767 12.338 C 5.699 12.416,5.370 13.021,5.037 13.683 C 4.208 15.330,4.327 15.210,2.713 16.022 C 2.002 16.380,1.410 16.704,1.322 16.783 C 1.238 16.859,1.129 17.014,1.080 17.129 C 0.920 17.501,1.027 17.960,1.338 18.232 C 1.416 18.301,2.024 18.631,2.690 18.966 C 4.322 19.786,4.213 19.677,5.051 21.343 C 5.727 22.688,5.804 22.799,6.174 22.940 C 6.526 23.074,6.974 22.956,7.232 22.662 C 7.301 22.584,7.631 21.976,7.966 21.310 C 8.786 19.678,8.677 19.787,10.343 18.949 C 11.688 18.273,11.799 18.196,11.940 17.826 C 12.074 17.474,11.956 17.026,11.662 16.767 C 11.584 16.699,10.964 16.363,10.284 16.021 C 8.671 15.210,8.791 15.331,7.959 13.673 C 7.624 13.004,7.295 12.400,7.225 12.326 C 7.156 12.253,7.029 12.157,6.943 12.112 C 6.771 12.024,6.399 11.983,6.240 12.035 M7.422 16.578 C 7.755 16.911,7.904 17.025,8.289 17.243 L 8.753 17.507 8.467 17.660 C 7.680 18.081,7.162 18.575,6.760 19.283 L 6.501 19.742 6.258 19.317 C 5.846 18.595,5.402 18.154,4.662 17.737 L 4.251 17.504 4.714 17.242 C 5.096 17.025,5.246 16.910,5.578 16.578 C 5.911 16.245,6.025 16.097,6.240 15.717 L 6.499 15.257 6.760 15.717 C 6.975 16.096,7.090 16.246,7.422 16.578 " stroke="none" fill-rule="evenodd" fill="black"></path></svg>