<svg width="24" height="24" viewBox="0 0 24 24" fill="none" xmlns="http://www.w3.org/2000/svg"><path d="M6.240 1.035 C 6.055 1.096,5.901 1.192,5.775 1.327 C 5.705 1.400,5.376 2.004,5.041 2.673 C 4.209 4.331,4.329 4.210,2.716 5.021 C 2.036 5.363,1.416 5.699,1.338 5.767 C 1.044 6.026,0.926 6.474,1.060 6.826 C 1.201 7.196,1.312 7.273,2.657 7.949 C 4.323 8.787,4.214 8.678,5.034 10.310 C 5.369 10.976,5.699 11.584,5.768 11.662 C 6.026 11.956,6.474 12.074,6.826 11.940 C 7.196 11.799,7.273 11.688,7.949 10.343 C 8.787 8.677,8.678 8.786,10.310 7.966 C 10.976 7.631,11.584 7.301,11.662 7.232 C 11.973 6.960,12.080 6.501,11.920 6.129 C 11.871 6.014,11.762 5.859,11.678 5.783 C 11.590 5.704,10.998 5.380,10.287 5.022 C 8.673 4.210,8.792 4.330,7.963 2.683 C 7.630 2.021,7.301 1.416,7.232 1.338 C 7.164 1.259,7.035 1.158,6.947 1.113 C 6.771 1.024,6.399 0.983,6.240 1.035 M18.240 2.035 C 17.940 2.133,17.692 2.352,17.574 2.620 C 17.516 2.752,17.501 2.932,17.488 3.650 L 17.472 4.520 16.615 4.520 C 15.931 4.520,15.727 4.533,15.609 4.582 C 15.270 4.723,15.001 5.130,15.001 5.500 C 15.001 5.874,15.266 6.271,15.620 6.426 C 15.751 6.484,15.931 6.499,16.626 6.512 L 17.472 6.528 17.488 7.374 C 17.501 8.069,17.516 8.249,17.574 8.380 C 17.729 8.734,18.126 8.999,18.500 8.999 C 18.874 8.999,19.271 8.734,19.426 8.380 C 19.484 8.249,19.499 8.069,19.512 7.374 L 19.528 6.528 20.374 6.512 C 21.069 6.499,21.249 6.484,21.380 6.426 C 21.734 6.271,21.999 5.874,21.999 5.500 C 21.999 5.130,21.730 4.723,21.391 4.582 C 21.273 4.533,21.069 4.520,20.385 4.520 L 19.528 4.520 19.512 3.650 C 19.499 2.932,19.484 2.752,19.426 2.620 C 19.338 2.418,19.146 2.217,18.943 2.112 C 18.771 2.024,18.399 1.983,18.240 2.035 M7.422 5.578 C 7.755 5.911,7.904 6.025,8.289 6.243 L 8.753 6.507 8.467 6.660 C 7.680 7.081,7.162 7.575,6.760 8.283 L 6.501 8.742 6.258 8.317 C 5.846 7.595,5.402 7.154,4.662 6.737 L 4.251 6.504 4.714 6.242 C 5.096 6.025,5.246 5.910,5.578 5.578 C 5.911 5.245,6.025 5.097,6.240 4.717 L 6.499 4.257 6.760 4.717 C 6.975 5.096,7.090 5.246,7.422 5.578 M16.680 11.061 C 16.310 11.176,16.264 11.244,15.474 12.811 C 14.511 14.723,14.720 14.515,12.812 15.474 C 11.249 16.260,11.188 16.302,11.061 16.675 C 10.984 16.902,10.984 17.098,11.061 17.325 C 11.188 17.697,11.249 17.739,12.811 18.526 C 14.721 19.488,14.512 19.279,15.474 21.189 C 16.261 22.751,16.303 22.812,16.675 22.939 C 17.012 23.054,17.372 22.987,17.650 22.757 C 17.768 22.661,17.938 22.356,18.526 21.189 C 19.488 19.279,19.279 19.488,21.189 18.526 C 22.751 17.739,22.812 17.697,22.939 17.325 C 23.016 17.098,23.016 16.902,22.939 16.675 C 22.812 16.302,22.751 16.260,21.188 15.474 C 19.280 14.515,19.489 14.723,18.526 12.811 C 17.739 11.249,17.697 11.188,17.325 11.061 C 17.108 10.987,16.919 10.987,16.680 11.061 M17.220 14.669 C 17.769 15.737,18.263 16.231,19.331 16.780 C 19.544 16.890,19.719 16.989,19.719 17.000 C 19.719 17.011,19.563 17.101,19.372 17.200 C 18.251 17.782,17.756 18.272,17.213 19.340 C 17.107 19.549,17.011 19.719,17.000 19.719 C 16.989 19.719,16.890 19.544,16.780 19.331 C 16.225 18.253,15.750 17.783,14.628 17.200 C 14.437 17.101,14.281 17.011,14.281 17.000 C 14.281 16.989,14.456 16.890,14.669 16.780 C 15.737 16.231,16.231 15.737,16.780 14.669 C 16.890 14.456,16.989 14.281,17.000 14.281 C 17.011 14.281,17.110 14.456,17.220 14.669 M5.240 15.035 C 4.940 15.133,4.692 15.352,4.574 15.620 C 4.516 15.752,4.501 15.932,4.488 16.650 L 4.472 17.520 3.615 17.520 C 2.931 17.520,2.727 17.533,2.609 17.582 C 2.270 17.723,2.001 18.130,2.001 18.500 C 2.001 18.874,2.266 19.271,2.620 19.426 C 2.751 19.484,2.931 19.499,3.626 19.512 L 4.472 19.528 4.488 20.374 C 4.501 21.069,4.516 21.249,4.574 21.380 C 4.729 21.734,5.126 21.999,5.500 21.999 C 5.874 21.999,6.271 21.734,6.426 21.380 C 6.484 21.249,6.499 21.069,6.512 20.374 L 6.528 19.528 7.374 19.512 C 8.069 19.499,8.249 19.484,8.380 19.426 C 8.734 19.271,8.999 18.874,8.999 18.500 C 8.999 18.130,8.730 17.723,8.391 17.582 C 8.273 17.533,8.069 17.520,7.385 17.520 L 6.528 17.520 6.512 16.650 C 6.499 15.932,6.484 15.752,6.426 15.620 C 6.338 15.418,6.146 15.217,5.943 15.112 C 5.771 15.024,5.399 14.983,5.240 15.035 " stroke="none" fill-rule="evenodd" fill="black"></path></svg>