<svg width="24" height="24" viewBox="0 0 24 24" fill="none" xmlns="http://www.w3.org/2000/svg"><path d="M11.469 1.617 C 11.164 1.742,10.988 1.882,10.786 2.157 C 10.695 2.282,10.154 3.198,9.584 4.192 L 8.547 6.000 6.384 6.000 C 5.194 6.000,4.115 6.018,3.987 6.039 C 3.483 6.121,3.050 6.438,2.848 6.871 C 2.756 7.068,2.741 7.153,2.741 7.480 C 2.740 7.834,2.750 7.880,2.884 8.160 C 2.963 8.325,3.490 9.257,4.055 10.230 L 5.082 12.000 4.055 13.770 C 3.490 14.743,2.963 15.675,2.884 15.840 C 2.750 16.120,2.740 16.166,2.741 16.520 C 2.741 16.847,2.756 16.932,2.848 17.129 C 3.044 17.551,3.466 17.866,3.958 17.960 C 4.085 17.984,5.057 18.000,6.359 18.000 L 8.547 18.000 9.584 19.808 C 10.154 20.802,10.696 21.720,10.789 21.847 C 11.093 22.262,11.520 22.488,12.000 22.488 C 12.480 22.488,12.907 22.262,13.211 21.847 C 13.304 21.719,13.846 20.802,14.416 19.808 L 15.452 18.000 17.641 18.000 C 18.943 18.000,19.915 17.984,20.042 17.960 C 20.534 17.866,20.956 17.551,21.152 17.129 C 21.244 16.932,21.259 16.847,21.259 16.520 C 21.260 16.166,21.250 16.120,21.116 15.840 C 21.037 15.675,20.510 14.743,19.945 13.770 L 18.918 12.000 19.945 10.230 C 20.510 9.256,21.037 8.325,21.116 8.160 C 21.250 7.880,21.260 7.835,21.259 7.480 C 21.259 7.153,21.244 7.068,21.152 6.871 C 20.950 6.438,20.517 6.121,20.013 6.039 C 19.885 6.018,18.806 6.000,17.616 6.000 L 15.452 6.000 14.416 4.192 C 13.308 2.259,13.133 1.988,12.876 1.802 C 12.471 1.509,11.911 1.435,11.469 1.617 M12.960 5.686 C 13.989 7.486,14.125 7.673,14.548 7.871 L 14.780 7.980 16.845 8.000 L 18.910 8.020 17.991 9.600 C 17.486 10.469,17.025 11.279,16.968 11.400 C 16.879 11.589,16.864 11.674,16.864 12.000 C 16.864 12.326,16.879 12.411,16.968 12.600 C 17.025 12.721,17.486 13.531,17.991 14.400 L 18.910 15.980 16.845 16.000 L 14.780 16.020 14.548 16.129 C 14.124 16.327,13.989 16.513,12.960 18.314 C 12.443 19.219,12.011 19.959,12.000 19.959 C 11.989 19.959,11.557 19.219,11.040 18.314 C 10.011 16.514,9.875 16.327,9.452 16.129 L 9.220 16.020 7.155 16.000 L 5.089 15.980 6.061 14.304 C 7.045 12.607,7.160 12.366,7.160 12.000 C 7.160 11.634,7.045 11.393,6.061 9.696 L 5.089 8.020 7.155 8.000 L 9.220 7.980 9.452 7.871 C 9.875 7.673,10.011 7.486,11.040 5.686 C 11.557 4.781,11.989 4.041,12.000 4.041 C 12.011 4.041,12.443 4.781,12.960 5.686 " stroke="none" fill-rule="evenodd" fill="black"></path></svg>