<svg width="24" height="24" viewBox="0 0 24 24" fill="none" xmlns="http://www.w3.org/2000/svg"><path d="M11.700 1.049 C 11.488 1.126,11.283 1.276,11.183 1.430 C 11.130 1.513,10.589 2.876,9.981 4.460 C 9.374 6.044,8.788 7.522,8.681 7.744 C 8.443 8.234,8.179 8.501,7.727 8.707 C 7.566 8.781,6.120 9.345,4.513 9.962 C 2.907 10.579,1.523 11.130,1.439 11.185 C 0.904 11.539,0.864 12.363,1.363 12.767 C 1.460 12.845,2.427 13.236,4.423 14.004 C 6.027 14.621,7.506 15.204,7.708 15.299 C 8.223 15.543,8.436 15.752,8.682 16.259 C 8.789 16.479,9.374 17.956,9.981 19.540 C 10.589 21.124,11.131 22.486,11.186 22.567 C 11.548 23.097,12.365 23.133,12.767 22.637 C 12.845 22.540,13.235 21.578,13.996 19.597 C 15.395 15.961,15.395 15.963,15.726 15.656 C 16.045 15.362,16.102 15.338,19.640 13.980 C 21.169 13.394,22.484 12.870,22.563 12.816 C 23.074 12.468,23.142 11.739,22.704 11.302 C 22.550 11.149,22.350 11.065,19.547 9.987 C 17.901 9.353,16.425 8.776,16.267 8.703 C 15.949 8.557,15.656 8.318,15.487 8.066 C 15.313 7.808,15.186 7.495,14.001 4.415 C 13.324 2.656,12.849 1.473,12.782 1.386 C 12.555 1.088,12.039 0.928,11.700 1.049 M12.655 6.490 C 13.004 7.398,13.356 8.295,13.438 8.484 C 13.840 9.419,14.581 10.160,15.516 10.562 C 15.705 10.644,16.602 10.996,17.510 11.345 C 18.417 11.694,19.160 11.990,19.160 12.002 C 19.160 12.014,18.390 12.319,17.450 12.680 C 16.509 13.041,15.551 13.430,15.320 13.545 C 14.625 13.891,14.182 14.276,13.776 14.886 C 13.536 15.247,13.434 15.486,12.655 17.510 C 12.306 18.417,12.011 19.160,12.000 19.160 C 11.989 19.160,11.694 18.417,11.345 17.510 C 10.566 15.486,10.464 15.247,10.224 14.886 C 9.818 14.276,9.375 13.891,8.680 13.545 C 8.449 13.430,7.490 13.041,6.550 12.680 C 5.610 12.319,4.840 12.014,4.840 12.002 C 4.840 11.990,5.492 11.729,6.290 11.423 C 8.909 10.419,9.140 10.304,9.722 9.722 C 10.304 9.140,10.419 8.909,11.423 6.290 C 11.729 5.492,11.989 4.840,12.000 4.840 C 12.011 4.840,12.306 5.583,12.655 6.490 " stroke="none" fill-rule="evenodd" fill="black"></path></svg>