<svg width="24" height="24" viewBox="0 0 24 24" fill="none" xmlns="http://www.w3.org/2000/svg"><path d="M11.476 1.692 C 11.187 1.814,11.034 1.924,10.868 2.132 C 10.681 2.365,10.665 2.394,9.780 4.100 C 9.346 4.936,8.978 5.634,8.962 5.651 C 8.946 5.669,8.152 5.527,7.197 5.336 C 5.725 5.042,5.396 4.988,5.040 4.985 C 4.662 4.980,4.597 4.991,4.391 5.088 C 3.955 5.292,3.640 5.709,3.554 6.196 C 3.484 6.595,3.566 6.839,4.401 8.721 C 4.823 9.672,5.151 10.461,5.131 10.475 C 4.991 10.568,2.457 12.741,2.284 12.917 C 2.156 13.047,2.019 13.242,1.945 13.398 C 1.838 13.626,1.821 13.704,1.821 14.000 C 1.820 14.285,1.837 14.377,1.925 14.565 C 2.047 14.824,2.274 15.090,2.489 15.226 C 2.712 15.367,3.061 15.472,4.860 15.940 C 5.762 16.175,6.503 16.370,6.507 16.374 C 6.510 16.377,6.533 17.082,6.558 17.940 C 6.632 20.494,6.660 20.668,7.077 21.081 C 7.416 21.419,7.612 21.499,8.100 21.500 C 8.470 21.500,8.520 21.490,8.760 21.372 C 8.903 21.301,9.682 20.748,10.491 20.142 C 11.300 19.536,11.979 19.040,12.001 19.040 C 12.022 19.040,12.701 19.536,13.510 20.142 C 14.318 20.748,15.097 21.302,15.240 21.372 C 15.480 21.490,15.531 21.500,15.900 21.500 C 16.391 21.499,16.588 21.418,16.926 21.075 C 17.342 20.654,17.368 20.493,17.441 17.940 C 17.466 17.083,17.489 16.378,17.493 16.374 C 17.497 16.370,18.238 16.175,19.140 15.940 C 21.402 15.351,21.491 15.318,21.815 14.960 C 22.074 14.673,22.178 14.398,22.178 14.000 C 22.177 13.624,22.111 13.428,21.872 13.094 C 21.773 12.957,19.113 10.636,18.870 10.475 C 18.849 10.461,19.173 9.678,19.590 8.735 C 20.475 6.733,20.524 6.586,20.438 6.171 C 20.336 5.675,20.041 5.290,19.609 5.088 C 19.403 4.991,19.338 4.980,18.960 4.985 C 18.605 4.989,18.271 5.043,16.803 5.335 C 15.847 5.526,15.053 5.668,15.037 5.651 C 15.021 5.634,14.644 4.918,14.199 4.060 C 13.753 3.202,13.327 2.406,13.252 2.292 C 12.955 1.841,12.576 1.628,12.040 1.610 C 11.756 1.600,11.663 1.614,11.476 1.692 M12.280 4.711 C 13.328 6.760,13.495 7.056,13.739 7.304 C 14.051 7.619,14.329 7.735,14.760 7.728 C 14.957 7.726,15.579 7.621,16.578 7.424 C 17.413 7.258,18.100 7.127,18.104 7.131 C 18.108 7.136,17.843 7.743,17.514 8.480 C 16.684 10.339,16.647 10.463,16.777 10.951 C 16.852 11.231,16.992 11.460,17.227 11.685 C 17.363 11.815,19.306 13.472,19.597 13.707 C 19.606 13.714,19.605 13.729,19.594 13.739 C 19.584 13.750,18.891 13.937,18.054 14.155 C 17.072 14.412,16.449 14.595,16.295 14.672 C 16.024 14.809,15.747 15.088,15.640 15.333 C 15.515 15.617,15.486 15.928,15.438 17.500 C 15.413 18.336,15.388 19.024,15.383 19.030 C 15.378 19.035,14.808 18.616,14.117 18.098 C 13.426 17.580,12.743 17.099,12.601 17.028 C 12.370 16.914,12.304 16.900,12.000 16.900 C 11.696 16.900,11.630 16.914,11.399 17.028 C 11.257 17.099,10.574 17.580,9.883 18.098 C 9.192 18.616,8.622 19.035,8.617 19.030 C 8.612 19.024,8.587 18.345,8.563 17.520 C 8.504 15.543,8.473 15.367,8.115 14.979 C 7.835 14.676,7.604 14.588,5.946 14.155 C 5.109 13.937,4.416 13.750,4.406 13.739 C 4.395 13.729,4.394 13.714,4.403 13.706 C 4.412 13.699,4.954 13.240,5.607 12.687 C 6.999 11.508,7.105 11.393,7.225 10.942 C 7.350 10.475,7.308 10.333,6.526 8.574 C 6.175 7.785,5.892 7.136,5.896 7.131 C 5.900 7.127,6.587 7.258,7.422 7.424 C 8.421 7.621,9.043 7.726,9.240 7.728 C 9.671 7.735,9.949 7.619,10.261 7.304 C 10.478 7.084,10.574 6.921,11.241 5.631 C 11.647 4.845,11.989 4.202,12.000 4.202 C 12.011 4.201,12.137 4.430,12.280 4.711 " stroke="none" fill-rule="evenodd" fill="black"></path></svg>