<svg width="24" height="24" viewBox="0 0 24 24" fill="none" xmlns="http://www.w3.org/2000/svg"><path d="M4.240 1.035 C 3.940 1.133,3.692 1.352,3.574 1.620 C 3.516 1.752,3.501 1.932,3.488 2.650 L 3.472 3.520 2.615 3.520 C 1.931 3.520,1.727 3.533,1.609 3.582 C 1.270 3.723,1.001 4.130,1.001 4.500 C 1.001 4.874,1.266 5.271,1.620 5.426 C 1.751 5.484,1.931 5.499,2.626 5.512 L 3.472 5.528 3.488 6.374 C 3.501 7.069,3.516 7.249,3.574 7.380 C 3.729 7.734,4.126 7.999,4.500 7.999 C 4.874 7.999,5.271 7.734,5.426 7.380 C 5.484 7.249,5.499 7.069,5.512 6.374 L 5.528 5.528 6.374 5.512 C 7.069 5.499,7.249 5.484,7.380 5.426 C 7.734 5.271,7.999 4.874,7.999 4.500 C 7.999 4.130,7.730 3.723,7.391 3.582 C 7.273 3.533,7.069 3.520,6.385 3.520 L 5.528 3.520 5.512 2.650 C 5.499 1.932,5.484 1.752,5.426 1.620 C 5.338 1.418,5.146 1.217,4.943 1.112 C 4.771 1.024,4.399 0.983,4.240 1.035 M12.698 2.051 C 12.478 2.140,12.293 2.277,12.189 2.430 C 12.133 2.512,11.651 3.714,11.119 5.100 C 10.587 6.486,10.082 7.771,9.996 7.956 C 9.724 8.540,9.446 8.802,8.820 9.062 C 8.622 9.144,7.345 9.640,5.982 10.165 C 4.310 10.808,3.458 11.156,3.362 11.234 C 2.867 11.635,2.904 12.453,3.433 12.813 C 3.514 12.868,4.714 13.348,6.100 13.880 C 7.486 14.412,8.787 14.926,8.990 15.021 C 9.474 15.249,9.741 15.509,9.961 15.969 C 10.048 16.151,10.569 17.469,11.119 18.898 C 11.794 20.652,12.157 21.543,12.234 21.638 C 12.635 22.133,13.453 22.096,13.813 21.567 C 13.868 21.486,14.348 20.286,14.880 18.900 C 15.412 17.514,15.926 16.213,16.021 16.010 C 16.249 15.526,16.509 15.259,16.969 15.039 C 17.151 14.952,18.469 14.431,19.898 13.881 C 21.652 13.206,22.543 12.843,22.638 12.766 C 23.166 12.339,23.087 11.474,22.490 11.149 C 22.386 11.092,21.313 10.667,20.108 10.203 C 16.653 8.875,16.628 8.863,16.302 8.465 C 16.087 8.202,15.949 7.876,14.881 5.102 C 14.228 3.406,13.842 2.456,13.770 2.367 C 13.539 2.081,13.010 1.925,12.698 2.051 M13.538 7.190 C 14.135 8.745,14.388 9.281,14.724 9.699 C 15.292 10.405,15.782 10.685,17.810 11.462 C 18.553 11.747,19.160 11.989,19.160 12.000 C 19.160 12.011,18.552 12.254,17.810 12.539 C 16.420 13.074,15.892 13.307,15.567 13.527 C 14.993 13.918,14.592 14.382,14.270 15.031 C 14.152 15.267,13.823 16.067,13.538 16.810 C 13.253 17.553,13.011 18.160,13.000 18.160 C 12.989 18.160,12.747 17.552,12.462 16.810 C 12.177 16.067,11.848 15.267,11.730 15.030 C 11.412 14.392,10.999 13.911,10.440 13.532 C 10.102 13.304,9.620 13.091,8.230 12.557 C 7.465 12.264,6.840 12.014,6.840 12.002 C 6.840 11.990,7.448 11.747,8.190 11.462 C 10.218 10.685,10.708 10.405,11.276 9.699 C 11.612 9.281,11.865 8.745,12.462 7.190 C 12.747 6.447,12.989 5.840,13.000 5.840 C 13.011 5.840,13.253 6.447,13.538 7.190 M4.240 16.035 C 3.940 16.133,3.692 16.352,3.574 16.620 C 3.516 16.752,3.501 16.932,3.488 17.650 L 3.472 18.520 2.615 18.520 C 1.931 18.520,1.727 18.533,1.609 18.582 C 1.270 18.723,1.001 19.130,1.001 19.500 C 1.001 19.874,1.266 20.271,1.620 20.426 C 1.751 20.484,1.931 20.499,2.626 20.512 L 3.472 20.528 3.488 21.374 C 3.501 22.069,3.516 22.249,3.574 22.380 C 3.729 22.734,4.126 22.999,4.500 22.999 C 4.874 22.999,5.271 22.734,5.426 22.380 C 5.484 22.249,5.499 22.069,5.512 21.374 L 5.528 20.528 6.374 20.512 C 7.069 20.499,7.249 20.484,7.380 20.426 C 7.734 20.271,7.999 19.874,7.999 19.500 C 7.999 19.130,7.730 18.723,7.391 18.582 C 7.273 18.533,7.069 18.520,6.385 18.520 L 5.528 18.520 5.512 17.650 C 5.499 16.932,5.484 16.752,5.426 16.620 C 5.338 16.418,5.146 16.217,4.943 16.112 C 4.771 16.024,4.399 15.983,4.240 16.035 " stroke="none" fill-rule="evenodd" fill="black"></path></svg>