<svg width="24" height="24" viewBox="0 0 24 24" fill="none" xmlns="http://www.w3.org/2000/svg"><path d="M5.920 2.042 C 5.155 2.091,4.674 2.204,4.180 2.451 C 3.089 2.996,2.357 3.961,2.124 5.160 C 2.013 5.729,2.000 6.455,2.000 12.000 C 2.000 18.358,2.006 18.526,2.245 19.320 C 2.577 20.422,3.578 21.423,4.680 21.755 C 5.474 21.994,5.642 22.000,12.000 22.000 C 18.358 22.000,18.526 21.994,19.320 21.755 C 20.422 21.423,21.425 20.421,21.755 19.320 C 21.986 18.549,22.008 18.111,21.991 14.620 C 21.976 11.714,21.973 11.610,21.890 11.300 C 21.770 10.846,21.586 10.433,21.330 10.040 C 21.143 9.753,20.582 9.174,17.744 6.334 C 15.894 4.483,14.263 2.884,14.120 2.780 C 13.568 2.379,12.895 2.117,12.229 2.043 C 11.792 1.994,6.669 1.993,5.920 2.042 M11.875 4.025 L 12.000 4.050 12.000 5.895 C 12.000 8.107,12.038 8.632,12.245 9.320 C 12.577 10.422,13.578 11.423,14.680 11.755 C 15.368 11.962,15.893 12.000,18.108 12.000 L 19.955 12.000 19.981 12.173 C 19.995 12.269,19.999 13.668,19.989 15.283 C 19.970 18.448,19.966 18.513,19.752 18.952 C 19.626 19.211,19.190 19.638,18.918 19.768 C 18.466 19.985,18.627 19.980,12.000 19.980 C 5.383 19.980,5.538 19.985,5.082 19.771 C 4.812 19.643,4.377 19.217,4.248 18.952 C 4.198 18.849,4.126 18.633,4.088 18.472 C 4.025 18.203,4.020 17.687,4.020 12.000 C 4.020 6.313,4.025 5.797,4.088 5.528 C 4.175 5.155,4.294 4.918,4.520 4.667 C 4.884 4.261,5.283 4.090,5.980 4.040 C 6.482 4.005,11.705 3.991,11.875 4.025 M18.451 9.994 C 18.201 10.026,15.726 9.963,15.520 9.919 C 15.158 9.843,14.882 9.688,14.600 9.403 C 14.089 8.887,14.043 8.684,14.014 6.820 L 13.992 5.420 16.277 7.700 C 18.366 9.785,18.552 9.981,18.451 9.994 " stroke="none" fill-rule="evenodd" fill="black"></path></svg>