<svg width="24" height="24" viewBox="0 0 24 24" fill="none" xmlns="http://www.w3.org/2000/svg"><path d="M11.160 1.024 C 8.994 1.215,7.258 1.819,5.600 2.957 C 3.592 4.336,2.136 6.270,1.336 8.620 C 1.177 9.086,1.142 9.242,1.128 9.547 C 1.107 10.002,1.200 10.349,1.446 10.725 C 1.682 11.085,12.915 22.318,13.275 22.554 C 13.651 22.800,13.998 22.893,14.453 22.872 C 15.204 22.837,16.738 22.207,17.916 21.449 C 21.054 19.432,22.997 15.874,23.000 12.140 C 23.002 8.079,20.804 4.349,17.252 2.388 C 15.637 1.496,13.996 1.058,12.140 1.023 C 11.700 1.015,11.259 1.015,11.160 1.024 M13.080 3.080 C 16.708 3.542,19.789 6.264,20.698 9.811 C 20.918 10.666,20.976 11.147,20.975 12.080 C 20.972 13.521,20.727 14.680,20.166 15.908 C 19.590 17.167,18.654 18.374,17.605 19.210 C 16.975 19.713,15.805 20.407,15.370 20.538 L 15.280 20.565 15.280 19.832 C 15.280 17.720,14.714 15.720,13.619 13.960 C 12.739 12.545,11.344 11.166,9.952 10.334 C 8.153 9.259,6.500 8.784,4.370 8.732 C 3.859 8.719,3.440 8.703,3.440 8.696 C 3.440 8.648,3.751 7.993,3.905 7.717 C 5.046 5.677,6.854 4.183,9.060 3.459 C 9.749 3.232,10.494 3.088,11.300 3.024 C 11.621 2.999,12.710 3.033,13.080 3.080 M5.252 10.780 C 9.485 11.275,12.821 14.674,13.241 18.920 C 13.266 19.173,13.280 19.466,13.273 19.570 L 13.260 19.761 8.740 15.240 L 4.220 10.720 4.480 10.720 C 4.623 10.720,4.971 10.747,5.252 10.780 " stroke="none" fill-rule="evenodd" fill="black"></path></svg>