<svg width="24" height="24" viewBox="0 0 24 24" fill="none" xmlns="http://www.w3.org/2000/svg"><path d="M11.280 1.023 C 11.203 1.032,10.951 1.059,10.720 1.083 C 9.527 1.210,8.337 1.558,7.180 2.120 C 6.045 2.671,5.193 3.285,4.238 4.239 C 3.277 5.198,2.643 6.080,2.097 7.220 C 0.301 10.968,0.728 15.286,3.226 18.633 C 3.701 19.269,4.753 20.316,5.400 20.797 C 9.364 23.745,14.666 23.734,18.637 20.770 C 19.246 20.316,20.316 19.246,20.770 18.637 C 23.744 14.652,23.744 9.348,20.770 5.363 C 20.316 4.755,19.247 3.686,18.640 3.235 C 17.045 2.049,15.365 1.360,13.423 1.096 C 13.000 1.038,11.574 0.990,11.280 1.023 M13.320 3.101 C 15.883 3.488,18.124 4.931,19.560 7.120 C 19.863 7.583,20.303 8.479,20.492 9.020 C 20.838 10.013,20.977 10.865,20.977 12.000 C 20.977 13.493,20.720 14.621,20.080 15.940 C 19.375 17.394,18.311 18.607,16.927 19.532 C 16.138 20.060,14.876 20.588,13.908 20.797 C 11.266 21.366,8.479 20.708,6.370 19.019 C 4.857 17.807,3.722 16.029,3.267 14.160 C 3.081 13.397,3.023 12.888,3.023 12.000 C 3.023 10.507,3.280 9.379,3.920 8.060 C 4.971 5.891,6.877 4.221,9.160 3.466 C 9.865 3.233,10.432 3.118,11.340 3.024 C 11.662 2.991,12.911 3.039,13.320 3.101 M8.686 7.040 C 7.869 7.162,7.233 7.765,7.061 8.581 C 6.973 8.995,6.973 15.005,7.061 15.419 C 7.147 15.827,7.298 16.104,7.597 16.403 C 7.896 16.702,8.173 16.853,8.581 16.939 C 8.995 17.027,15.005 17.027,15.419 16.940 C 15.818 16.855,16.102 16.699,16.401 16.401 C 16.699 16.102,16.855 15.818,16.940 15.419 C 17.027 15.005,17.027 8.995,16.939 8.581 C 16.791 7.881,16.332 7.364,15.635 7.112 L 15.380 7.020 12.140 7.014 C 10.358 7.011,8.804 7.023,8.686 7.040 M15.000 12.000 L 15.000 15.000 12.000 15.000 L 9.000 15.000 9.000 12.000 L 9.000 9.000 12.000 9.000 L 15.000 9.000 15.000 12.000 " stroke="none" fill-rule="evenodd" fill="black"></path></svg>