<svg width="24" height="24" viewBox="0 0 24 24" fill="none" xmlns="http://www.w3.org/2000/svg"><path d="M9.400 3.044 C 7.761 3.229,6.261 4.290,5.526 5.785 C 5.186 6.475,5.023 7.142,5.021 7.843 C 5.020 8.289,5.024 8.313,5.141 8.503 C 5.539 9.151,6.457 9.156,6.852 8.514 C 6.950 8.354,6.972 8.264,7.005 7.883 C 7.026 7.638,7.084 7.299,7.133 7.129 C 7.405 6.188,8.218 5.387,9.178 5.112 C 9.499 5.020,9.510 5.020,12.000 5.020 C 14.490 5.020,14.501 5.020,14.822 5.112 C 15.782 5.387,16.595 6.188,16.867 7.129 C 16.916 7.299,16.974 7.638,16.995 7.883 C 17.028 8.264,17.050 8.354,17.148 8.514 C 17.543 9.156,18.461 9.151,18.859 8.503 C 18.976 8.313,18.980 8.289,18.979 7.843 C 18.975 6.311,18.114 4.742,16.800 3.874 C 16.046 3.375,15.396 3.135,14.552 3.043 C 14.092 2.992,9.849 2.994,9.400 3.044 M2.695 11.057 C 2.051 11.258,1.799 12.040,2.198 12.591 C 2.263 12.681,2.403 12.805,2.508 12.867 L 2.700 12.980 8.620 13.000 L 14.540 13.020 14.861 13.121 C 15.825 13.426,16.585 14.187,16.875 15.139 C 16.958 15.412,16.973 15.542,16.973 16.000 C 16.973 16.458,16.958 16.588,16.875 16.861 C 16.582 17.822,15.820 18.580,14.840 18.886 L 14.540 18.980 12.000 18.980 L 9.460 18.980 9.160 18.886 C 8.760 18.761,8.391 18.563,8.108 18.321 C 7.410 17.723,7.088 17.081,7.005 16.121 C 6.974 15.762,6.948 15.647,6.864 15.504 C 6.480 14.847,5.518 14.853,5.129 15.514 C 5.027 15.688,5.020 15.730,5.021 16.160 C 5.022 16.660,5.098 17.103,5.268 17.600 C 5.846 19.291,7.253 20.525,9.040 20.907 C 9.349 20.973,9.618 20.980,12.000 20.980 C 14.382 20.980,14.651 20.973,14.960 20.907 C 16.488 20.580,17.748 19.630,18.433 18.288 C 18.838 17.494,18.980 16.899,18.980 16.000 C 18.980 15.330,18.922 14.957,18.732 14.400 C 18.605 14.029,18.361 13.534,18.155 13.230 L 17.999 13.000 19.590 12.998 C 21.300 12.996,21.346 12.992,21.619 12.783 C 21.696 12.725,21.808 12.592,21.869 12.489 C 21.964 12.328,21.980 12.256,21.980 12.000 C 21.980 11.746,21.963 11.672,21.872 11.516 C 21.740 11.293,21.533 11.128,21.290 11.055 C 21.027 10.976,2.947 10.978,2.695 11.057 " stroke="none" fill-rule="evenodd" fill="black"></path></svg>