<svg width="24" height="24" viewBox="0 0 24 24" fill="none" xmlns="http://www.w3.org/2000/svg"><path d="M9.400 3.044 C 7.761 3.229,6.261 4.290,5.526 5.785 C 5.186 6.475,5.023 7.142,5.021 7.843 C 5.020 8.289,5.024 8.313,5.141 8.503 C 5.539 9.151,6.457 9.156,6.852 8.514 C 6.950 8.354,6.972 8.264,7.005 7.883 C 7.026 7.638,7.084 7.299,7.133 7.129 C 7.403 6.196,8.223 5.382,9.150 5.125 C 9.309 5.081,9.440 5.053,9.440 5.062 C 9.440 5.071,9.373 5.182,9.292 5.309 C 8.817 6.050,8.526 6.993,8.514 7.827 C 8.506 8.410,8.662 8.697,9.100 8.905 C 9.475 9.082,9.930 8.989,10.228 8.675 C 10.413 8.480,10.474 8.299,10.519 7.812 C 10.569 7.282,10.609 7.107,10.757 6.780 C 11.060 6.112,11.577 5.594,12.251 5.282 C 12.753 5.049,12.924 5.020,13.760 5.021 C 14.409 5.021,14.540 5.033,14.822 5.113 C 15.780 5.385,16.595 6.188,16.867 7.129 C 16.916 7.299,16.974 7.638,16.995 7.883 C 17.028 8.264,17.050 8.354,17.148 8.514 C 17.543 9.156,18.461 9.151,18.859 8.503 C 18.976 8.313,18.980 8.289,18.979 7.843 C 18.975 6.311,18.114 4.742,16.800 3.874 C 16.046 3.375,15.396 3.135,14.552 3.043 C 14.092 2.992,9.849 2.994,9.400 3.044 M2.695 11.057 C 2.051 11.258,1.799 12.040,2.198 12.591 C 2.263 12.681,2.403 12.805,2.508 12.867 L 2.700 12.980 6.880 13.002 C 11.479 13.026,11.172 13.008,11.746 13.277 C 12.604 13.678,13.238 14.453,13.421 15.323 C 13.499 15.695,13.496 16.332,13.415 16.692 C 13.210 17.603,12.508 18.430,11.641 18.783 C 11.207 18.959,10.811 19.012,10.083 18.990 C 9.548 18.974,9.366 18.953,9.140 18.881 C 8.177 18.576,7.401 17.799,7.133 16.871 C 7.084 16.701,7.026 16.363,7.005 16.121 C 6.974 15.762,6.948 15.647,6.864 15.504 C 6.480 14.847,5.518 14.853,5.129 15.514 C 5.027 15.688,5.020 15.730,5.021 16.160 C 5.022 16.660,5.098 17.103,5.268 17.600 C 5.846 19.291,7.253 20.525,9.040 20.907 C 9.349 20.973,9.618 20.980,12.000 20.980 C 14.382 20.980,14.651 20.973,14.960 20.907 C 16.488 20.580,17.748 19.630,18.433 18.288 C 18.838 17.494,18.980 16.899,18.980 16.000 C 18.980 15.330,18.922 14.957,18.732 14.400 C 18.605 14.029,18.361 13.534,18.155 13.230 L 17.999 13.000 19.590 12.998 C 21.300 12.996,21.346 12.992,21.619 12.783 C 21.696 12.725,21.808 12.592,21.869 12.489 C 21.964 12.328,21.980 12.256,21.980 12.000 C 21.980 11.746,21.963 11.672,21.872 11.516 C 21.740 11.293,21.533 11.128,21.290 11.055 C 21.027 10.976,2.947 10.978,2.695 11.057 M15.407 13.349 C 16.098 13.722,16.647 14.392,16.875 15.139 C 16.958 15.412,16.973 15.542,16.973 16.000 C 16.973 16.458,16.958 16.588,16.875 16.861 C 16.585 17.813,15.814 18.586,14.864 18.877 C 14.712 18.923,14.581 18.954,14.572 18.945 C 14.563 18.936,14.623 18.823,14.706 18.694 C 15.750 17.064,15.751 14.937,14.708 13.309 C 14.627 13.182,14.560 13.071,14.560 13.062 C 14.560 13.015,15.174 13.224,15.407 13.349 " stroke="none" fill-rule="evenodd" fill="black"></path></svg>