<svg width="24" height="24" viewBox="0 0 24 24" fill="none" xmlns="http://www.w3.org/2000/svg"><path d="M5.920 2.041 C 5.151 2.092,4.672 2.205,4.180 2.451 C 3.089 2.996,2.357 3.961,2.124 5.160 C 2.013 5.729,2.000 6.455,2.000 12.000 C 2.000 18.358,2.006 18.526,2.245 19.320 C 2.577 20.422,3.578 21.423,4.680 21.755 C 5.474 21.994,5.642 22.000,12.000 22.000 C 18.358 22.000,18.526 21.994,19.320 21.755 C 20.422 21.423,21.423 20.422,21.755 19.320 C 21.994 18.526,22.000 18.358,22.000 12.000 C 22.000 5.642,21.994 5.474,21.755 4.680 C 21.424 3.581,20.465 2.622,19.320 2.246 C 18.644 2.024,18.800 2.029,12.340 2.019 C 9.062 2.014,6.173 2.024,5.920 2.041 M18.492 4.091 C 18.894 4.188,19.109 4.309,19.400 4.600 C 19.696 4.895,19.814 5.109,19.912 5.528 C 19.975 5.797,19.980 6.313,19.980 12.000 C 19.980 17.687,19.975 18.203,19.912 18.472 C 19.814 18.891,19.696 19.104,19.400 19.401 C 19.101 19.701,18.820 19.851,18.418 19.928 C 18.010 20.005,5.990 20.005,5.582 19.927 C 5.170 19.850,4.898 19.704,4.600 19.403 C 4.303 19.104,4.186 18.890,4.088 18.472 C 4.025 18.203,4.020 17.687,4.020 12.000 C 4.020 6.313,4.025 5.797,4.088 5.528 C 4.175 5.155,4.294 4.918,4.520 4.667 C 4.883 4.262,5.282 4.091,5.980 4.039 C 6.200 4.023,9.044 4.013,12.300 4.018 C 17.643 4.024,18.247 4.032,18.492 4.091 M10.462 6.044 C 9.378 6.202,8.353 6.953,7.874 7.938 C 7.747 8.201,7.720 8.297,7.721 8.498 C 7.724 9.227,8.437 9.691,9.110 9.401 C 9.347 9.298,9.514 9.129,9.660 8.840 C 9.858 8.450,10.182 8.183,10.607 8.061 C 10.801 8.006,11.029 7.998,12.167 8.008 C 13.435 8.019,13.509 8.024,13.687 8.106 C 13.976 8.240,14.223 8.494,14.407 8.848 C 14.636 9.290,14.927 9.490,15.340 9.491 C 15.926 9.492,16.426 8.939,16.342 8.382 C 16.311 8.174,16.099 7.723,15.887 7.410 C 15.415 6.719,14.508 6.160,13.663 6.043 C 13.299 5.992,10.812 5.993,10.462 6.044 M5.695 11.057 C 5.466 11.129,5.256 11.299,5.128 11.516 C 5.037 11.672,5.020 11.746,5.020 12.000 C 5.020 12.256,5.036 12.328,5.131 12.489 C 5.256 12.702,5.449 12.864,5.670 12.943 C 5.791 12.986,6.526 12.997,9.460 12.999 C 12.254 13.001,13.157 13.014,13.344 13.053 C 13.810 13.151,14.223 13.517,14.401 13.990 C 14.523 14.317,14.502 14.807,14.352 15.129 C 14.231 15.389,13.927 15.714,13.696 15.832 C 13.388 15.988,13.162 16.007,11.800 15.993 C 10.567 15.981,10.490 15.976,10.313 15.894 C 10.026 15.761,9.777 15.506,9.596 15.156 C 9.360 14.704,9.087 14.520,8.651 14.520 C 8.196 14.521,7.821 14.801,7.695 15.234 C 7.612 15.515,7.645 15.711,7.840 16.115 C 8.041 16.531,8.242 16.801,8.591 17.122 C 9.009 17.507,9.414 17.729,10.022 17.906 C 10.223 17.965,10.489 17.978,11.740 17.991 C 13.289 18.007,13.577 17.988,14.054 17.833 C 15.061 17.508,15.874 16.745,16.258 15.764 C 16.568 14.974,16.569 14.027,16.259 13.239 L 16.166 13.000 17.173 12.998 C 18.256 12.996,18.360 12.981,18.619 12.783 C 18.696 12.725,18.808 12.592,18.869 12.489 C 18.964 12.328,18.980 12.256,18.980 12.000 C 18.980 11.746,18.963 11.672,18.872 11.516 C 18.740 11.293,18.533 11.128,18.290 11.055 C 18.028 10.976,5.947 10.978,5.695 11.057 " stroke="none" fill-rule="evenodd" fill="black"></path></svg>