<svg width="24" height="24" viewBox="0 0 24 24" fill="none" xmlns="http://www.w3.org/2000/svg"><path d="M2.670 4.061 C 2.448 4.142,2.250 4.309,2.128 4.516 C 2.036 4.672,2.020 4.745,2.021 5.000 C 2.021 5.212,2.043 5.341,2.095 5.440 C 2.135 5.517,3.161 6.574,4.374 7.790 L 6.579 10.000 4.374 12.210 C 3.161 13.425,2.135 14.483,2.095 14.560 C 2.043 14.659,2.021 14.788,2.021 15.000 C 2.020 15.258,2.036 15.327,2.133 15.492 C 2.263 15.714,2.502 15.901,2.736 15.965 C 2.939 16.019,3.267 15.989,3.445 15.899 C 3.519 15.862,4.574 14.839,5.790 13.626 L 8.000 11.421 10.210 13.626 C 11.425 14.839,12.483 15.865,12.560 15.905 C 12.659 15.957,12.788 15.979,13.000 15.979 C 13.258 15.980,13.327 15.964,13.492 15.867 C 13.714 15.737,13.901 15.498,13.965 15.264 C 14.019 15.061,13.989 14.733,13.899 14.555 C 13.862 14.481,12.839 13.425,11.626 12.210 L 9.421 10.000 11.626 7.790 C 12.839 6.575,13.865 5.517,13.905 5.440 C 13.957 5.341,13.979 5.212,13.979 5.000 C 13.980 4.745,13.964 4.672,13.872 4.516 C 13.618 4.084,13.138 3.906,12.657 4.065 C 12.479 4.124,12.244 4.346,10.230 6.354 L 8.000 8.578 5.770 6.354 C 3.756 4.346,3.521 4.124,3.343 4.065 C 3.107 3.987,2.874 3.986,2.670 4.061 M18.314 11.058 C 17.708 11.185,17.237 11.446,16.757 11.920 C 16.471 12.203,16.381 12.324,16.225 12.640 C 15.996 13.101,15.951 13.380,16.060 13.666 C 16.215 14.072,16.587 14.334,17.001 14.331 C 17.410 14.327,17.721 14.116,17.927 13.703 C 18.071 13.415,18.241 13.225,18.460 13.107 C 18.688 12.985,19.193 12.985,19.420 13.107 C 19.734 13.276,20.000 13.660,20.000 13.946 C 20.000 14.277,19.723 14.660,19.267 14.960 C 19.131 15.049,18.680 15.295,18.265 15.507 C 17.102 16.099,16.674 16.466,16.352 17.149 C 16.125 17.630,16.029 18.104,16.024 18.760 C 16.020 19.282,16.024 19.306,16.131 19.489 C 16.256 19.702,16.449 19.864,16.670 19.943 C 16.889 20.021,21.111 20.021,21.330 19.943 C 21.551 19.864,21.744 19.702,21.869 19.489 C 21.964 19.328,21.980 19.256,21.980 19.000 C 21.980 18.746,21.963 18.672,21.872 18.516 C 21.761 18.327,21.571 18.158,21.373 18.070 C 21.292 18.034,20.820 18.015,19.702 18.000 L 18.145 17.980 18.276 17.831 C 18.367 17.727,18.589 17.590,19.010 17.376 C 20.207 16.770,20.717 16.439,21.143 15.993 C 21.571 15.544,21.795 15.152,21.920 14.630 C 22.287 13.101,21.317 11.533,19.739 11.102 C 19.406 11.011,18.648 10.988,18.314 11.058 " stroke="none" fill-rule="evenodd" fill="black"></path></svg>