<svg width="24" height="24" viewBox="0 0 24 24" fill="none" xmlns="http://www.w3.org/2000/svg"><path d="M11.695 2.057 C 11.466 2.129,11.256 2.299,11.128 2.516 L 11.020 2.700 11.020 4.003 L 11.020 5.306 11.141 5.503 C 11.543 6.156,12.457 6.156,12.859 5.503 L 12.980 5.306 12.980 4.003 L 12.980 2.700 12.872 2.516 C 12.628 2.101,12.150 1.915,11.695 2.057 M4.444 5.025 C 3.918 5.288,3.744 5.973,4.081 6.460 C 4.142 6.548,4.549 6.973,4.986 7.404 C 5.691 8.100,5.804 8.195,5.994 8.258 C 6.778 8.518,7.517 7.778,7.258 6.994 C 7.195 6.803,7.100 6.691,6.367 5.950 C 5.440 5.013,5.307 4.920,4.900 4.920 C 4.716 4.920,4.603 4.946,4.444 5.025 M18.656 5.019 C 18.515 5.090,18.220 5.358,17.634 5.949 C 16.897 6.693,16.804 6.802,16.741 6.994 C 16.484 7.779,17.222 8.517,18.006 8.258 C 18.197 8.195,18.309 8.099,19.051 7.366 C 19.976 6.451,20.086 6.296,20.086 5.909 C 20.086 5.164,19.321 4.688,18.656 5.019 M11.380 7.043 C 8.430 7.334,6.051 9.883,6.025 12.783 C 6.020 13.298,6.022 13.308,6.141 13.503 C 6.539 14.150,7.457 14.157,7.852 13.514 C 7.949 13.356,7.972 13.264,8.004 12.894 C 8.073 12.090,8.164 11.746,8.464 11.160 C 8.924 10.261,9.771 9.538,10.755 9.203 C 11.050 9.103,11.680 9.000,12.000 9.000 C 12.121 9.000,12.393 9.027,12.605 9.058 C 14.067 9.279,15.311 10.326,15.791 11.740 C 15.896 12.047,15.950 12.352,15.996 12.894 C 16.028 13.264,16.051 13.356,16.148 13.514 C 16.543 14.157,17.461 14.150,17.859 13.503 C 17.978 13.308,17.980 13.298,17.975 12.783 C 17.953 10.386,16.282 8.127,13.940 7.329 C 13.131 7.053,12.261 6.956,11.380 7.043 M1.695 12.057 C 1.466 12.129,1.256 12.299,1.128 12.516 C 1.037 12.672,1.020 12.746,1.020 13.000 C 1.020 13.256,1.036 13.328,1.131 13.489 C 1.256 13.702,1.449 13.864,1.670 13.943 C 1.885 14.020,4.115 14.020,4.330 13.943 C 4.551 13.864,4.744 13.702,4.869 13.489 C 4.964 13.328,4.980 13.256,4.980 13.000 C 4.980 12.746,4.963 12.672,4.872 12.516 C 4.740 12.293,4.533 12.128,4.290 12.055 C 4.039 11.979,1.937 11.981,1.695 12.057 M19.695 12.057 C 19.466 12.129,19.256 12.299,19.128 12.516 C 19.037 12.672,19.020 12.746,19.020 13.000 C 19.020 13.256,19.036 13.328,19.131 13.489 C 19.256 13.702,19.449 13.864,19.670 13.943 C 19.885 14.020,22.115 14.020,22.330 13.943 C 22.551 13.864,22.744 13.702,22.869 13.489 C 22.964 13.328,22.980 13.256,22.980 13.000 C 22.980 12.746,22.963 12.672,22.872 12.516 C 22.740 12.293,22.533 12.128,22.290 12.055 C 22.039 11.979,19.937 11.981,19.695 12.057 M1.600 15.584 C 1.267 15.728,1.001 16.135,1.001 16.500 C 1.001 16.886,1.304 17.318,1.665 17.445 C 1.897 17.527,22.103 17.527,22.335 17.445 C 22.696 17.318,22.999 16.886,22.999 16.500 C 22.999 16.130,22.730 15.723,22.391 15.582 C 22.258 15.527,21.164 15.520,11.991 15.522 C 2.929 15.523,1.724 15.530,1.600 15.584 M3.695 19.057 C 3.466 19.129,3.256 19.299,3.128 19.516 C 3.037 19.672,3.020 19.746,3.020 20.000 C 3.020 20.256,3.036 20.328,3.131 20.489 C 3.256 20.702,3.449 20.864,3.670 20.943 C 3.893 21.022,20.107 21.022,20.330 20.943 C 20.551 20.864,20.744 20.702,20.869 20.489 C 20.964 20.328,20.980 20.256,20.980 20.000 C 20.980 19.746,20.963 19.672,20.872 19.516 C 20.740 19.293,20.533 19.128,20.290 19.055 C 20.027 18.976,3.947 18.978,3.695 19.057 " stroke="none" fill-rule="evenodd" fill="black"></path></svg>