<svg width="24" height="24" viewBox="0 0 24 24" fill="none" xmlns="http://www.w3.org/2000/svg"><path d="M11.695 2.057 C 11.466 2.129,11.256 2.299,11.128 2.516 L 11.020 2.700 11.020 4.003 L 11.020 5.306 11.141 5.503 C 11.543 6.156,12.457 6.156,12.859 5.503 L 12.980 5.306 12.980 4.003 L 12.980 2.700 12.872 2.516 C 12.628 2.101,12.150 1.915,11.695 2.057 M3.444 5.025 C 2.918 5.288,2.744 5.973,3.081 6.460 C 3.142 6.548,3.549 6.973,3.986 7.404 C 4.691 8.100,4.804 8.195,4.994 8.258 C 5.778 8.518,6.517 7.778,6.258 6.994 C 6.195 6.803,6.100 6.691,5.367 5.950 C 4.440 5.013,4.307 4.920,3.900 4.920 C 3.716 4.920,3.603 4.946,3.444 5.025 M19.655 5.020 C 19.511 5.092,19.222 5.355,18.633 5.950 C 17.900 6.691,17.805 6.803,17.742 6.994 C 17.483 7.778,18.222 8.518,19.006 8.258 C 19.196 8.195,19.309 8.100,20.014 7.404 C 20.451 6.973,20.859 6.547,20.921 6.457 C 21.147 6.132,21.136 5.646,20.895 5.308 C 20.631 4.936,20.080 4.808,19.655 5.020 M11.540 8.023 C 10.715 8.102,10.250 8.200,9.620 8.427 C 7.709 9.115,6.187 10.615,5.456 12.531 C 5.321 12.884,5.153 13.498,5.100 13.830 L 5.073 14.000 3.483 14.000 C 1.755 14.000,1.659 14.010,1.382 14.221 C 1.302 14.282,1.187 14.415,1.128 14.516 C 1.037 14.672,1.020 14.746,1.020 15.000 C 1.020 15.256,1.036 15.328,1.131 15.489 C 1.256 15.702,1.449 15.864,1.670 15.943 C 1.893 16.023,22.107 16.023,22.330 15.943 C 22.551 15.864,22.744 15.702,22.869 15.489 C 22.964 15.328,22.980 15.256,22.980 15.000 C 22.980 14.746,22.963 14.672,22.872 14.516 C 22.813 14.415,22.698 14.282,22.618 14.221 C 22.341 14.010,22.245 14.000,20.517 14.000 L 18.927 14.000 18.900 13.830 C 18.849 13.508,18.717 13.019,18.573 12.620 C 17.715 10.237,15.581 8.473,13.102 8.098 C 12.726 8.041,11.813 7.997,11.540 8.023 M12.552 10.043 C 14.230 10.226,15.703 11.251,16.459 12.760 C 16.638 13.117,16.815 13.597,16.861 13.850 L 16.889 14.000 12.000 14.000 L 7.111 14.000 7.139 13.850 C 7.274 13.109,7.857 12.074,8.489 11.453 C 9.580 10.380,11.032 9.876,12.552 10.043 M4.695 18.057 C 4.466 18.129,4.256 18.299,4.128 18.516 C 4.037 18.672,4.020 18.746,4.020 19.000 C 4.020 19.256,4.036 19.328,4.131 19.489 C 4.256 19.702,4.449 19.864,4.670 19.943 C 4.893 20.022,19.107 20.022,19.330 19.943 C 19.551 19.864,19.744 19.702,19.869 19.489 C 19.964 19.328,19.980 19.256,19.980 19.000 C 19.980 18.746,19.963 18.672,19.872 18.516 C 19.740 18.293,19.533 18.128,19.290 18.055 C 19.027 17.976,4.947 17.978,4.695 18.057 " stroke="none" fill-rule="evenodd" fill="black"></path></svg>