<svg width="24" height="24" viewBox="0 0 24 24" fill="none" xmlns="http://www.w3.org/2000/svg"><path d="M11.695 2.057 C 11.466 2.129,11.256 2.299,11.128 2.516 L 11.020 2.700 11.020 4.003 L 11.020 5.306 11.141 5.503 C 11.543 6.156,12.457 6.156,12.859 5.503 L 12.980 5.306 12.980 4.003 L 12.980 2.700 12.872 2.516 C 12.628 2.101,12.150 1.915,11.695 2.057 M4.444 5.025 C 3.918 5.288,3.744 5.973,4.081 6.460 C 4.142 6.548,4.549 6.973,4.986 7.404 C 5.691 8.100,5.804 8.195,5.994 8.258 C 6.778 8.518,7.517 7.778,7.258 6.994 C 7.195 6.803,7.100 6.691,6.367 5.950 C 5.440 5.013,5.307 4.920,4.900 4.920 C 4.716 4.920,4.603 4.946,4.444 5.025 M18.656 5.019 C 18.515 5.090,18.220 5.358,17.634 5.949 C 16.897 6.693,16.804 6.802,16.741 6.994 C 16.484 7.779,17.222 8.517,18.006 8.258 C 18.197 8.195,18.309 8.099,19.051 7.366 C 19.976 6.451,20.086 6.296,20.086 5.909 C 20.086 5.164,19.321 4.688,18.656 5.019 M11.380 7.043 C 8.430 7.334,6.051 9.883,6.025 12.783 C 6.020 13.298,6.022 13.308,6.141 13.503 C 6.539 14.150,7.457 14.157,7.852 13.514 C 7.949 13.356,7.972 13.264,8.004 12.894 C 8.073 12.090,8.164 11.746,8.464 11.160 C 8.924 10.261,9.771 9.538,10.755 9.203 C 11.050 9.103,11.680 9.000,12.000 9.000 C 12.121 9.000,12.393 9.027,12.605 9.058 C 14.067 9.279,15.311 10.326,15.791 11.740 C 15.896 12.047,15.950 12.352,15.996 12.894 C 16.028 13.264,16.051 13.356,16.148 13.514 C 16.543 14.157,17.461 14.150,17.859 13.503 C 17.978 13.308,17.980 13.298,17.975 12.783 C 17.953 10.386,16.282 8.127,13.940 7.329 C 13.131 7.053,12.261 6.956,11.380 7.043 M1.695 12.057 C 1.466 12.129,1.256 12.299,1.128 12.516 C 1.037 12.672,1.020 12.746,1.020 13.000 C 1.020 13.256,1.036 13.328,1.131 13.489 C 1.256 13.702,1.449 13.864,1.670 13.943 C 1.885 14.020,4.115 14.020,4.330 13.943 C 4.551 13.864,4.744 13.702,4.869 13.489 C 4.964 13.328,4.980 13.256,4.980 13.000 C 4.980 12.746,4.963 12.672,4.872 12.516 C 4.740 12.293,4.533 12.128,4.290 12.055 C 4.039 11.979,1.937 11.981,1.695 12.057 M19.695 12.057 C 19.466 12.129,19.256 12.299,19.128 12.516 C 19.037 12.672,19.020 12.746,19.020 13.000 C 19.020 13.256,19.036 13.328,19.131 13.489 C 19.256 13.702,19.449 13.864,19.670 13.943 C 19.885 14.020,22.115 14.020,22.330 13.943 C 22.551 13.864,22.744 13.702,22.869 13.489 C 22.964 13.328,22.980 13.256,22.980 13.000 C 22.980 12.746,22.963 12.672,22.872 12.516 C 22.740 12.293,22.533 12.128,22.290 12.055 C 22.039 11.979,19.937 11.981,19.695 12.057 M3.440 16.043 C 2.795 16.105,1.919 16.356,1.553 16.585 C 0.929 16.976,0.977 17.945,1.638 18.290 C 1.929 18.442,2.212 18.440,2.622 18.282 C 3.135 18.084,3.481 18.023,4.080 18.023 C 4.727 18.023,5.034 18.085,5.731 18.357 C 6.606 18.699,7.179 18.811,8.040 18.811 C 8.901 18.811,9.474 18.699,10.349 18.357 C 11.046 18.085,11.353 18.023,12.000 18.023 C 12.647 18.023,12.954 18.085,13.651 18.357 C 14.526 18.699,15.099 18.811,15.960 18.811 C 16.821 18.811,17.394 18.699,18.269 18.357 C 18.966 18.085,19.273 18.023,19.920 18.023 C 20.519 18.023,20.865 18.084,21.378 18.282 C 22.048 18.540,22.582 18.351,22.827 17.770 C 22.952 17.474,22.868 16.992,22.648 16.746 C 22.369 16.434,21.394 16.121,20.430 16.036 C 19.471 15.951,18.568 16.091,17.593 16.476 C 16.922 16.740,16.581 16.810,15.960 16.810 C 15.339 16.810,14.998 16.740,14.327 16.476 C 13.351 16.091,12.450 15.951,11.487 16.036 C 10.844 16.093,10.322 16.220,9.673 16.476 C 9.002 16.740,8.661 16.810,8.040 16.810 C 7.415 16.810,7.088 16.742,6.370 16.463 C 5.345 16.065,4.493 15.943,3.440 16.043 M11.040 19.581 C 10.579 19.659,10.279 19.746,9.664 19.979 C 8.999 20.231,8.576 20.320,8.040 20.320 C 7.557 20.320,7.118 20.239,6.619 20.059 C 6.132 19.882,5.935 19.879,5.611 20.041 C 4.972 20.360,4.873 21.194,5.417 21.672 C 5.560 21.798,5.998 21.979,6.482 22.114 C 7.266 22.333,8.202 22.380,9.014 22.241 C 9.436 22.169,9.706 22.087,10.720 21.725 C 11.150 21.572,11.471 21.521,12.000 21.521 C 12.529 21.521,12.850 21.572,13.280 21.725 C 14.294 22.087,14.564 22.169,14.986 22.241 C 15.798 22.380,16.734 22.333,17.518 22.114 C 18.002 21.979,18.440 21.798,18.583 21.672 C 19.127 21.194,19.028 20.360,18.389 20.041 C 18.065 19.879,17.868 19.882,17.381 20.059 C 16.882 20.239,16.443 20.320,15.960 20.320 C 15.424 20.320,15.001 20.231,14.336 19.979 C 13.705 19.740,13.421 19.659,12.921 19.577 C 12.502 19.509,11.453 19.510,11.040 19.581 " stroke="none" fill-rule="evenodd" fill="black"></path></svg>