<svg width="24" height="24" viewBox="0 0 24 24" fill="none" xmlns="http://www.w3.org/2000/svg"><path d="M11.695 1.057 C 11.466 1.129,11.256 1.299,11.128 1.516 L 11.020 1.700 11.020 3.003 L 11.020 4.306 11.141 4.503 C 11.543 5.156,12.457 5.156,12.859 4.503 L 12.980 4.306 12.980 3.003 L 12.980 1.700 12.872 1.516 C 12.628 1.101,12.150 0.915,11.695 1.057 M4.444 4.025 C 3.918 4.288,3.744 4.973,4.081 5.460 C 4.142 5.548,4.549 5.973,4.986 6.404 C 5.691 7.100,5.804 7.195,5.994 7.258 C 6.778 7.518,7.517 6.778,7.258 5.994 C 7.195 5.803,7.100 5.691,6.367 4.950 C 5.440 4.013,5.307 3.920,4.900 3.920 C 4.716 3.920,4.603 3.946,4.444 4.025 M18.655 4.020 C 18.511 4.092,18.222 4.355,17.633 4.950 C 16.900 5.691,16.805 5.803,16.742 5.994 C 16.483 6.778,17.222 7.518,18.006 7.258 C 18.196 7.195,18.309 7.100,19.014 6.404 C 19.451 5.973,19.859 5.547,19.921 5.457 C 20.147 5.132,20.136 4.646,19.895 4.308 C 19.631 3.936,19.080 3.808,18.655 4.020 M11.380 6.043 C 8.784 6.299,6.676 8.219,6.115 10.840 C 5.984 11.450,5.984 12.558,6.114 13.160 C 6.639 15.588,8.417 17.365,10.840 17.885 C 11.446 18.015,12.554 18.015,13.160 17.885 C 14.397 17.620,15.412 17.068,16.269 16.195 C 17.109 15.340,17.626 14.369,17.885 13.160 C 18.015 12.554,18.015 11.446,17.885 10.840 C 17.626 9.631,17.109 8.660,16.269 7.805 C 14.978 6.490,13.230 5.860,11.380 6.043 M12.605 8.058 C 14.074 8.280,15.310 9.324,15.797 10.755 C 15.897 11.050,16.000 11.680,16.000 12.000 C 16.000 12.322,15.897 12.951,15.796 13.245 C 15.321 14.632,14.195 15.628,12.773 15.917 C 10.563 16.368,8.396 14.845,8.058 12.605 C 7.986 12.121,7.986 11.879,8.058 11.395 C 8.314 9.698,9.675 8.324,11.358 8.061 C 11.816 7.990,12.144 7.989,12.605 8.058 M1.695 11.057 C 1.466 11.129,1.256 11.299,1.128 11.516 C 1.037 11.672,1.020 11.746,1.020 12.000 C 1.020 12.256,1.036 12.328,1.131 12.489 C 1.256 12.702,1.449 12.864,1.670 12.943 C 1.885 13.020,4.115 13.020,4.330 12.943 C 4.551 12.864,4.744 12.702,4.869 12.489 C 4.964 12.328,4.980 12.256,4.980 12.000 C 4.980 11.746,4.963 11.672,4.872 11.516 C 4.740 11.293,4.533 11.128,4.290 11.055 C 4.039 10.979,1.937 10.981,1.695 11.057 M19.695 11.057 C 19.466 11.129,19.256 11.299,19.128 11.516 C 19.037 11.672,19.020 11.746,19.020 12.000 C 19.020 12.256,19.036 12.328,19.131 12.489 C 19.256 12.702,19.449 12.864,19.670 12.943 C 19.885 13.020,22.115 13.020,22.330 12.943 C 22.551 12.864,22.744 12.702,22.869 12.489 C 22.964 12.328,22.980 12.256,22.980 12.000 C 22.980 11.746,22.963 11.672,22.872 11.516 C 22.740 11.293,22.533 11.128,22.290 11.055 C 22.039 10.979,19.937 10.981,19.695 11.057 M6.116 16.716 C 6.037 16.732,5.893 16.792,5.796 16.850 C 5.580 16.978,4.115 18.450,4.023 18.631 C 3.721 19.229,4.054 19.946,4.697 20.079 C 4.939 20.130,5.221 20.083,5.419 19.960 C 5.485 19.919,5.911 19.511,6.364 19.053 C 7.104 18.306,7.196 18.198,7.259 18.005 C 7.494 17.288,6.855 16.568,6.116 16.716 M17.540 16.707 C 17.303 16.761,17.174 16.824,17.032 16.952 C 16.722 17.232,16.614 17.620,16.741 18.005 C 16.804 18.198,16.896 18.306,17.636 19.053 C 18.089 19.511,18.515 19.919,18.581 19.960 C 18.779 20.083,19.061 20.130,19.303 20.079 C 19.973 19.940,20.298 19.181,19.943 18.584 C 19.807 18.355,18.335 16.907,18.140 16.810 C 17.972 16.727,17.676 16.676,17.540 16.707 M11.695 19.057 C 11.466 19.129,11.256 19.299,11.128 19.516 L 11.020 19.700 11.020 21.003 L 11.020 22.306 11.141 22.503 C 11.543 23.156,12.457 23.156,12.859 22.503 L 12.980 22.306 12.980 21.003 L 12.980 19.700 12.872 19.516 C 12.628 19.101,12.150 18.915,11.695 19.057 " stroke="none" fill-rule="evenodd" fill="black"></path></svg>