<svg width="24" height="24" viewBox="0 0 24 24" fill="none" xmlns="http://www.w3.org/2000/svg"><path d="M11.695 1.057 C 11.466 1.129,11.256 1.299,11.128 1.516 L 11.020 1.700 11.009 4.137 L 10.998 6.574 9.769 5.353 C 8.687 4.279,8.516 4.124,8.343 4.066 C 7.863 3.905,7.382 4.084,7.128 4.516 C 7.037 4.672,7.020 4.746,7.020 5.000 C 7.020 5.254,7.036 5.328,7.127 5.480 C 7.261 5.705,11.368 9.805,11.560 9.905 C 11.660 9.957,11.787 9.978,12.000 9.978 C 12.213 9.978,12.340 9.957,12.440 9.905 C 12.632 9.805,16.739 5.705,16.873 5.480 C 16.964 5.328,16.980 5.254,16.980 5.000 C 16.980 4.746,16.963 4.672,16.872 4.516 C 16.618 4.084,16.137 3.905,15.657 4.066 C 15.484 4.124,15.313 4.279,14.231 5.353 L 13.002 6.574 12.991 4.137 L 12.980 1.700 12.872 1.516 C 12.628 1.101,12.150 0.915,11.695 1.057 M4.444 10.025 C 3.918 10.288,3.744 10.973,4.081 11.460 C 4.142 11.548,4.549 11.973,4.986 12.404 C 5.691 13.100,5.804 13.195,5.994 13.258 C 6.778 13.518,7.517 12.778,7.258 11.994 C 7.195 11.803,7.100 11.691,6.367 10.950 C 5.440 10.013,5.307 9.920,4.900 9.920 C 4.716 9.920,4.603 9.946,4.444 10.025 M18.655 10.020 C 18.511 10.092,18.222 10.355,17.633 10.950 C 16.900 11.691,16.805 11.803,16.742 11.994 C 16.483 12.778,17.222 13.517,18.006 13.258 C 18.197 13.195,18.309 13.099,19.051 12.366 C 19.659 11.764,19.909 11.489,19.981 11.342 C 20.310 10.668,19.847 9.920,19.100 9.920 C 18.920 9.920,18.803 9.946,18.655 10.020 M11.380 12.043 C 8.430 12.334,6.051 14.883,6.025 17.783 C 6.020 18.298,6.022 18.308,6.141 18.503 C 6.539 19.150,7.457 19.157,7.852 18.514 C 7.949 18.356,7.972 18.264,8.004 17.894 C 8.073 17.090,8.164 16.746,8.464 16.160 C 8.924 15.261,9.771 14.538,10.755 14.203 C 11.050 14.103,11.680 14.000,12.000 14.000 C 12.320 14.000,12.950 14.103,13.245 14.203 C 14.229 14.538,15.076 15.261,15.536 16.160 C 15.836 16.746,15.927 17.090,15.996 17.894 C 16.028 18.264,16.051 18.356,16.148 18.514 C 16.543 19.157,17.461 19.150,17.859 18.503 C 17.978 18.308,17.980 18.298,17.975 17.783 C 17.953 15.386,16.282 13.127,13.940 12.329 C 13.131 12.053,12.261 11.956,11.380 12.043 M1.695 17.057 C 1.466 17.129,1.256 17.299,1.128 17.516 C 1.037 17.672,1.020 17.746,1.020 18.000 C 1.020 18.256,1.036 18.328,1.131 18.489 C 1.256 18.702,1.449 18.864,1.670 18.943 C 1.885 19.020,4.115 19.020,4.330 18.943 C 4.551 18.864,4.744 18.702,4.869 18.489 C 4.964 18.328,4.980 18.256,4.980 18.000 C 4.980 17.746,4.963 17.672,4.872 17.516 C 4.740 17.293,4.533 17.128,4.290 17.055 C 4.039 16.979,1.937 16.981,1.695 17.057 M19.695 17.057 C 19.466 17.129,19.256 17.299,19.128 17.516 C 19.037 17.672,19.020 17.746,19.020 18.000 C 19.020 18.256,19.036 18.328,19.131 18.489 C 19.256 18.702,19.449 18.864,19.670 18.943 C 19.885 19.020,22.115 19.020,22.330 18.943 C 22.551 18.864,22.744 18.702,22.869 18.489 C 22.964 18.328,22.980 18.256,22.980 18.000 C 22.980 17.746,22.963 17.672,22.872 17.516 C 22.740 17.293,22.533 17.128,22.290 17.055 C 22.039 16.979,19.937 16.981,19.695 17.057 M1.695 21.057 C 1.466 21.129,1.256 21.299,1.128 21.516 C 1.037 21.672,1.020 21.746,1.020 22.000 C 1.020 22.256,1.036 22.328,1.131 22.489 C 1.256 22.702,1.449 22.864,1.670 22.943 C 1.893 23.023,22.107 23.023,22.330 22.943 C 22.551 22.864,22.744 22.702,22.869 22.489 C 22.964 22.328,22.980 22.256,22.980 22.000 C 22.980 21.746,22.963 21.672,22.872 21.516 C 22.740 21.293,22.533 21.128,22.290 21.055 C 22.027 20.976,1.948 20.978,1.695 21.057 " stroke="none" fill-rule="evenodd" fill="black"></path></svg>