<svg width="24" height="24" viewBox="0 0 24 24" fill="none" xmlns="http://www.w3.org/2000/svg"><path d="M6.640 3.068 C 6.486 3.121,6.151 3.438,4.347 5.235 C 3.185 6.393,2.189 7.416,2.134 7.508 C 1.862 7.968,2.032 8.587,2.508 8.867 C 2.673 8.964,2.742 8.980,3.000 8.979 C 3.213 8.979,3.341 8.957,3.440 8.905 C 3.517 8.864,4.124 8.289,4.790 7.627 L 5.999 6.423 6.010 13.364 L 6.020 20.306 6.141 20.503 C 6.543 21.156,7.457 21.156,7.859 20.503 L 7.980 20.306 7.990 13.364 L 8.001 6.423 9.210 7.627 C 9.876 8.289,10.483 8.864,10.560 8.905 C 10.659 8.957,10.787 8.979,11.000 8.979 C 11.258 8.980,11.327 8.964,11.492 8.867 C 11.968 8.587,12.138 7.968,11.866 7.508 C 11.811 7.416,10.815 6.393,9.653 5.235 C 7.748 3.338,7.521 3.124,7.343 3.065 C 7.102 2.985,6.878 2.986,6.640 3.068 M16.695 3.057 C 16.466 3.129,16.256 3.299,16.128 3.516 L 16.020 3.700 16.010 10.638 L 15.999 17.575 14.770 16.354 C 13.688 15.279,13.516 15.124,13.343 15.066 C 12.863 14.905,12.382 15.084,12.128 15.516 C 12.037 15.672,12.020 15.746,12.020 16.000 C 12.020 16.254,12.036 16.328,12.127 16.480 C 12.261 16.705,16.368 20.805,16.560 20.905 C 16.660 20.957,16.787 20.978,17.000 20.978 C 17.213 20.978,17.340 20.957,17.440 20.905 C 17.632 20.805,21.739 16.705,21.873 16.480 C 21.964 16.328,21.980 16.254,21.980 16.000 C 21.980 15.746,21.963 15.672,21.872 15.516 C 21.618 15.084,21.137 14.905,20.657 15.066 C 20.484 15.124,20.312 15.279,19.230 16.354 L 18.001 17.575 17.990 10.638 L 17.980 3.700 17.872 3.516 C 17.628 3.101,17.150 2.915,16.695 3.057 " stroke="none" fill-rule="evenodd" fill="black"></path></svg>