<svg width="24" height="24" viewBox="0 0 24 24" fill="none" xmlns="http://www.w3.org/2000/svg"><path d="M6.695 3.057 C 6.466 3.129,6.256 3.299,6.128 3.516 L 6.020 3.700 6.010 10.638 L 5.999 17.575 4.770 16.354 C 3.688 15.279,3.516 15.124,3.343 15.066 C 2.863 14.905,2.382 15.084,2.128 15.516 C 2.037 15.672,2.020 15.746,2.020 16.000 C 2.020 16.254,2.036 16.328,2.127 16.480 C 2.261 16.705,6.368 20.805,6.560 20.905 C 6.660 20.957,6.787 20.978,7.000 20.978 C 7.213 20.978,7.340 20.957,7.440 20.905 C 7.632 20.805,11.739 16.705,11.873 16.480 C 11.964 16.328,11.980 16.254,11.980 16.000 C 11.980 15.746,11.963 15.672,11.872 15.516 C 11.618 15.084,11.137 14.905,10.657 15.066 C 10.484 15.124,10.312 15.279,9.230 16.354 L 8.001 17.575 7.990 10.638 L 7.980 3.700 7.872 3.516 C 7.628 3.101,7.150 2.915,6.695 3.057 M16.640 3.068 C 16.486 3.121,16.151 3.438,14.347 5.235 C 13.185 6.393,12.189 7.416,12.134 7.508 C 11.862 7.968,12.032 8.587,12.508 8.867 C 12.673 8.964,12.742 8.980,13.000 8.979 C 13.213 8.979,13.341 8.957,13.440 8.905 C 13.517 8.864,14.124 8.289,14.790 7.627 L 15.999 6.423 16.010 13.364 L 16.020 20.306 16.141 20.503 C 16.543 21.156,17.457 21.156,17.859 20.503 L 17.980 20.306 17.990 13.364 L 18.001 6.423 19.210 7.627 C 19.876 8.289,20.483 8.864,20.560 8.905 C 20.659 8.957,20.787 8.979,21.000 8.979 C 21.258 8.980,21.327 8.964,21.492 8.867 C 21.968 8.587,22.138 7.968,21.866 7.508 C 21.811 7.416,20.815 6.393,19.653 5.235 C 17.748 3.338,17.521 3.124,17.343 3.065 C 17.102 2.985,16.878 2.986,16.640 3.068 " stroke="none" fill-rule="evenodd" fill="black"></path></svg>