<svg width="24" height="24" viewBox="0 0 24 24" fill="none" xmlns="http://www.w3.org/2000/svg"><path d="M5.749 1.045 C 4.967 1.120,4.402 1.371,3.890 1.870 C 3.491 2.260,3.236 2.731,3.094 3.340 C 3.023 3.647,3.020 4.012,3.020 12.020 L 3.020 20.380 3.111 20.735 C 3.225 21.184,3.379 21.505,3.650 21.858 C 4.038 22.363,4.594 22.719,5.265 22.889 L 5.620 22.980 11.980 22.980 C 18.038 22.980,18.355 22.976,18.660 22.906 C 19.459 22.720,20.041 22.327,20.486 21.671 C 20.685 21.378,20.807 21.084,20.906 20.660 C 20.977 20.353,20.980 19.988,20.980 12.000 C 20.980 4.012,20.977 3.647,20.906 3.340 C 20.688 2.404,20.167 1.737,19.329 1.321 C 19.019 1.168,18.706 1.091,18.180 1.042 C 17.646 0.991,6.275 0.994,5.749 1.045 M8.001 3.570 C 8.002 4.524,8.138 4.944,8.597 5.403 C 8.896 5.702,9.173 5.853,9.581 5.939 C 9.990 6.026,14.009 6.026,14.419 5.940 C 14.818 5.855,15.102 5.699,15.401 5.401 C 15.862 4.939,15.998 4.523,15.999 3.565 L 16.000 2.990 17.110 3.011 C 17.789 3.024,18.280 3.050,18.374 3.079 C 18.583 3.143,18.862 3.429,18.928 3.646 C 19.005 3.903,19.005 20.097,18.928 20.354 C 18.863 20.567,18.591 20.849,18.376 20.925 C 18.143 21.007,5.857 21.007,5.624 20.925 C 5.423 20.854,5.141 20.571,5.074 20.374 C 5.032 20.250,5.019 18.672,5.010 12.260 C 5.002 7.181,5.012 4.171,5.038 3.944 C 5.083 3.535,5.182 3.346,5.437 3.177 C 5.644 3.040,5.916 3.012,7.070 3.005 L 8.000 3.000 8.001 3.570 M14.000 3.500 L 14.000 4.000 12.000 4.000 L 10.000 4.000 10.000 3.500 L 10.000 3.000 12.000 3.000 L 14.000 3.000 14.000 3.500 " stroke="none" fill-rule="evenodd" fill="black"></path></svg>