<svg width="24" height="24" viewBox="0 0 24 24" fill="none" xmlns="http://www.w3.org/2000/svg"><path d="M5.749 1.045 C 4.967 1.120,4.402 1.371,3.890 1.870 C 3.491 2.260,3.236 2.731,3.094 3.340 C 3.023 3.647,3.020 4.012,3.020 12.020 L 3.020 20.380 3.111 20.735 C 3.225 21.184,3.379 21.505,3.650 21.858 C 4.038 22.363,4.594 22.719,5.265 22.889 L 5.620 22.980 11.980 22.980 C 18.038 22.980,18.355 22.976,18.660 22.906 C 19.459 22.720,20.041 22.327,20.486 21.671 C 20.685 21.378,20.807 21.084,20.906 20.660 C 20.977 20.353,20.980 19.988,20.980 12.000 C 20.980 4.012,20.977 3.647,20.906 3.340 C 20.688 2.404,20.167 1.737,19.329 1.321 C 19.019 1.168,18.706 1.091,18.180 1.042 C 17.646 0.991,6.275 0.994,5.749 1.045 M18.374 3.074 C 18.586 3.145,18.863 3.432,18.928 3.646 C 19.005 3.903,19.005 20.097,18.928 20.354 C 18.863 20.567,18.591 20.849,18.376 20.925 C 18.143 21.007,5.857 21.007,5.624 20.925 C 5.423 20.854,5.141 20.571,5.074 20.374 C 5.032 20.250,5.019 18.672,5.010 12.260 C 5.002 7.181,5.012 4.171,5.038 3.944 C 5.102 3.365,5.342 3.104,5.866 3.042 C 6.017 3.024,8.858 3.012,12.180 3.016 C 17.006 3.021,18.251 3.033,18.374 3.074 M11.637 16.055 C 10.808 16.233,10.294 17.202,10.599 18.010 C 10.759 18.435,11.144 18.812,11.538 18.930 C 11.747 18.992,12.253 18.992,12.462 18.930 C 12.855 18.812,13.242 18.434,13.399 18.013 C 13.707 17.190,13.190 16.230,12.344 16.053 C 12.051 15.991,11.930 15.992,11.637 16.055 " stroke="none" fill-rule="evenodd" fill="black"></path></svg>