<svg width="24" height="24" viewBox="0 0 24 24" fill="none" xmlns="http://www.w3.org/2000/svg"><path d="M5.695 1.057 C 5.466 1.129,5.256 1.299,5.128 1.516 C 5.037 1.672,5.020 1.746,5.020 2.000 C 5.020 2.256,5.036 2.328,5.131 2.489 C 5.256 2.702,5.449 2.864,5.670 2.943 C 5.789 2.985,6.333 2.997,8.280 3.000 C 9.633 3.002,10.869 3.018,11.026 3.037 C 11.204 3.057,11.422 3.119,11.606 3.202 C 11.896 3.333,11.960 3.394,16.160 7.583 C 18.503 9.920,20.483 11.864,20.560 11.905 C 20.659 11.957,20.788 11.979,21.000 11.979 C 21.258 11.980,21.327 11.964,21.492 11.867 C 21.968 11.587,22.139 10.967,21.865 10.508 C 21.735 10.289,13.460 2.032,13.120 1.782 C 12.577 1.383,11.899 1.118,11.229 1.043 C 10.644 0.978,5.910 0.990,5.695 1.057 M4.522 4.566 C 3.883 4.659,3.340 4.933,2.877 5.397 C 2.382 5.892,2.131 6.438,2.040 7.221 C 2.009 7.492,1.999 8.275,2.010 9.660 C 2.028 11.934,2.023 11.883,2.320 12.500 C 2.430 12.729,2.576 12.934,2.832 13.220 C 3.448 13.906,11.925 22.335,12.220 22.554 C 12.802 22.986,13.310 23.159,14.000 23.159 C 14.690 23.159,15.198 22.986,15.780 22.554 C 16.144 22.284,20.282 18.146,20.554 17.780 C 20.973 17.217,21.160 16.668,21.160 16.000 C 21.160 15.332,20.973 14.783,20.554 14.220 C 20.333 13.923,12.416 5.958,11.745 5.357 C 11.340 4.995,10.945 4.756,10.520 4.615 C 10.317 4.548,10.090 4.542,7.540 4.535 C 5.974 4.531,4.668 4.544,4.522 4.566 M10.111 6.617 C 10.390 6.760,18.954 15.346,19.074 15.603 C 19.188 15.844,19.188 16.156,19.074 16.397 C 18.950 16.660,14.659 20.952,14.397 21.074 C 14.156 21.188,13.844 21.188,13.603 21.074 C 13.463 21.009,12.342 19.913,8.827 16.404 C 6.161 13.743,4.189 11.744,4.127 11.640 L 4.020 11.460 4.020 9.380 C 4.020 7.462,4.026 7.285,4.093 7.111 C 4.185 6.871,4.466 6.617,4.694 6.566 C 4.786 6.545,5.989 6.527,7.391 6.524 L 9.923 6.520 10.111 6.617 " stroke="none" fill-rule="evenodd" fill="black"></path></svg>