<svg width="24" height="24" viewBox="0 0 24 24" fill="none" xmlns="http://www.w3.org/2000/svg"><path d="M3.749 1.044 C 2.963 1.122,2.401 1.372,1.890 1.870 C 1.491 2.260,1.236 2.731,1.094 3.340 C 1.025 3.639,1.020 3.890,1.020 7.160 C 1.020 10.420,1.025 10.678,1.093 10.920 C 1.229 11.406,1.447 11.790,1.832 12.220 C 2.418 12.874,11.071 21.484,11.432 21.772 C 12.293 22.459,13.075 22.760,14.000 22.760 C 14.925 22.760,15.707 22.459,16.568 21.772 C 17.000 21.427,21.427 17.000,21.772 16.568 C 22.459 15.707,22.760 14.925,22.760 14.000 C 22.760 13.075,22.460 12.294,21.772 11.432 C 21.386 10.948,12.202 1.774,11.875 1.545 C 11.570 1.332,11.256 1.185,10.905 1.091 C 10.689 1.033,10.276 1.025,7.380 1.017 C 5.576 1.012,3.942 1.024,3.749 1.044 M10.640 3.127 C 10.867 3.263,20.074 12.482,20.339 12.840 C 20.592 13.181,20.673 13.372,20.728 13.749 C 20.765 14.008,20.762 14.113,20.707 14.378 C 20.582 14.987,20.452 15.138,17.573 18.002 C 16.030 19.536,15.252 20.283,15.054 20.416 C 14.382 20.869,13.621 20.870,12.946 20.417 C 12.736 20.276,11.412 18.980,7.947 15.523 C 5.197 12.779,3.189 10.745,3.127 10.640 L 3.020 10.460 3.009 7.381 C 2.997 4.036,3.012 3.687,3.179 3.434 C 3.333 3.201,3.547 3.080,3.866 3.042 C 4.017 3.024,5.562 3.012,7.300 3.015 L 10.460 3.020 10.640 3.127 M7.516 6.577 C 6.466 6.979,6.167 8.277,6.945 9.055 C 7.528 9.638,8.472 9.638,9.055 9.055 C 9.781 8.330,9.577 7.126,8.650 6.657 C 8.455 6.558,8.370 6.541,8.042 6.532 C 7.789 6.525,7.611 6.540,7.516 6.577 " stroke="none" fill-rule="evenodd" fill="black"></path></svg>