<svg width="24" height="24" viewBox="0 0 24 24" fill="none" xmlns="http://www.w3.org/2000/svg"><path d="M5.934 1.039 C 5.423 1.096,4.918 1.308,4.500 1.642 C 4.088 1.970,1.623 4.480,1.460 4.736 C 1.258 5.053,1.094 5.519,1.040 5.926 C 1.010 6.151,1.000 6.990,1.010 8.480 C 1.028 10.956,1.020 10.877,1.320 11.500 C 1.430 11.729,1.576 11.934,1.832 12.220 C 2.418 12.874,11.071 21.484,11.432 21.772 C 12.293 22.459,13.075 22.760,14.000 22.760 C 14.925 22.760,15.707 22.459,16.568 21.772 C 17.000 21.427,21.427 17.000,21.772 16.568 C 22.459 15.707,22.760 14.925,22.760 14.000 C 22.760 13.075,22.460 12.294,21.772 11.432 C 21.386 10.948,12.202 1.774,11.875 1.545 C 11.568 1.331,11.253 1.184,10.905 1.092 C 10.696 1.037,10.333 1.026,8.440 1.018 C 7.219 1.012,6.091 1.022,5.934 1.039 M10.640 3.127 C 10.867 3.263,20.074 12.482,20.339 12.840 C 20.592 13.181,20.673 13.372,20.728 13.749 C 20.765 14.008,20.762 14.113,20.707 14.378 C 20.582 14.987,20.452 15.138,17.573 18.002 C 16.030 19.536,15.252 20.283,15.054 20.416 C 14.382 20.869,13.621 20.870,12.946 20.417 C 12.736 20.276,11.412 18.980,7.947 15.523 C 5.197 12.779,3.189 10.745,3.127 10.640 L 3.020 10.460 3.020 8.260 L 3.020 6.060 3.114 5.880 C 3.229 5.661,5.631 3.245,5.840 3.139 C 5.917 3.100,6.025 3.054,6.080 3.037 C 6.135 3.019,7.143 3.009,8.320 3.013 L 10.460 3.020 10.640 3.127 M7.516 6.577 C 6.466 6.979,6.167 8.277,6.945 9.055 C 7.528 9.638,8.472 9.638,9.055 9.055 C 9.781 8.330,9.577 7.126,8.650 6.657 C 8.455 6.558,8.370 6.541,8.042 6.532 C 7.789 6.525,7.611 6.540,7.516 6.577 " stroke="none" fill-rule="evenodd" fill="black"></path></svg>