<svg width="24" height="24" viewBox="0 0 24 24" fill="none" xmlns="http://www.w3.org/2000/svg"><path d="M11.695 1.057 C 11.466 1.129,11.256 1.299,11.128 1.516 C 11.024 1.693,11.020 1.724,11.007 2.385 L 10.994 3.069 10.758 3.094 C 9.665 3.208,8.136 3.774,7.120 4.440 C 5.723 5.357,4.668 6.544,3.940 8.020 C 3.509 8.894,3.230 9.764,3.108 10.620 L 3.056 10.980 2.398 11.002 C 2.033 11.015,1.690 11.046,1.627 11.072 C 1.026 11.326,0.817 12.065,1.198 12.591 C 1.263 12.681,1.403 12.805,1.508 12.867 C 1.693 12.976,1.724 12.981,2.378 13.000 L 3.056 13.020 3.108 13.380 C 3.317 14.835,3.993 16.377,4.960 17.604 C 5.286 18.016,5.924 18.660,6.341 18.997 C 7.556 19.976,9.148 20.681,10.620 20.892 L 10.980 20.944 11.000 21.625 C 11.020 22.298,11.022 22.309,11.141 22.503 C 11.543 23.156,12.457 23.156,12.859 22.503 C 12.978 22.309,12.980 22.298,13.000 21.625 L 13.020 20.944 13.380 20.892 C 14.851 20.681,16.445 19.975,17.657 18.998 C 19.365 17.620,20.588 15.497,20.892 13.380 L 20.944 13.020 21.622 13.000 C 22.276 12.981,22.307 12.976,22.492 12.867 C 23.210 12.445,23.141 11.397,22.373 11.072 C 22.310 11.046,21.967 11.015,21.602 11.002 L 20.944 10.980 20.892 10.620 C 20.681 9.151,19.975 7.555,19.001 6.347 C 18.448 5.661,17.658 4.951,16.880 4.440 C 15.869 3.777,14.331 3.208,13.242 3.094 L 13.006 3.069 12.993 2.385 C 12.980 1.724,12.976 1.693,12.872 1.516 C 12.628 1.101,12.150 0.915,11.695 1.057 M11.006 5.693 C 11.020 6.295,11.022 6.310,11.141 6.503 C 11.209 6.613,11.346 6.756,11.452 6.828 C 11.923 7.144,12.554 6.999,12.859 6.503 C 12.978 6.310,12.980 6.295,12.994 5.693 L 13.007 5.080 13.174 5.104 C 13.480 5.149,13.976 5.282,14.380 5.427 C 16.325 6.127,17.873 7.675,18.573 9.620 C 18.719 10.025,18.851 10.520,18.896 10.830 L 18.921 11.000 18.407 11.000 C 17.652 11.000,17.363 11.117,17.128 11.516 C 17.037 11.672,17.020 11.746,17.020 12.000 C 17.020 12.256,17.036 12.328,17.131 12.489 C 17.369 12.894,17.617 12.996,18.370 12.998 L 18.921 13.000 18.896 13.170 C 18.818 13.705,18.545 14.548,18.274 15.090 C 17.352 16.933,15.678 18.291,13.725 18.777 C 13.513 18.830,13.265 18.885,13.174 18.899 L 13.007 18.926 12.994 18.313 C 12.981 17.729,12.975 17.691,12.871 17.514 C 12.479 16.848,11.521 16.848,11.129 17.514 C 11.025 17.691,11.019 17.729,11.006 18.313 L 10.993 18.926 10.826 18.899 C 8.922 18.596,7.073 17.347,6.046 15.669 C 5.588 14.921,5.214 13.930,5.104 13.170 L 5.079 13.000 5.630 12.998 C 6.383 12.996,6.631 12.894,6.869 12.489 C 6.964 12.328,6.980 12.256,6.980 12.000 C 6.980 11.746,6.963 11.672,6.872 11.516 C 6.637 11.117,6.348 11.000,5.593 11.000 L 5.079 11.000 5.104 10.830 C 5.149 10.520,5.281 10.025,5.427 9.620 C 6.032 7.939,7.268 6.553,8.889 5.735 C 9.469 5.443,10.397 5.150,10.946 5.085 C 10.979 5.082,10.997 5.258,11.006 5.693 M11.358 8.061 C 10.230 8.237,9.143 8.974,8.569 9.953 C 7.320 12.083,8.233 14.785,10.512 15.704 C 12.558 16.528,14.877 15.538,15.704 13.488 C 16.090 12.530,16.090 11.469,15.705 10.516 C 15.172 9.197,14.001 8.269,12.605 8.058 C 12.144 7.989,11.816 7.990,11.358 8.061 M12.523 10.073 C 13.262 10.266,13.850 10.924,13.967 11.690 C 14.067 12.343,13.873 12.933,13.403 13.404 C 13.002 13.807,12.547 14.000,12.000 14.000 C 11.485 14.000,11.038 13.822,10.653 13.465 C 9.323 12.229,10.189 10.005,12.000 10.005 C 12.143 10.005,12.378 10.036,12.523 10.073 " stroke="none" fill-rule="evenodd" fill="black"></path></svg>