<svg width="24" height="24" viewBox="0 0 24 24" fill="none" xmlns="http://www.w3.org/2000/svg"><path d="M11.280 1.023 C 11.203 1.032,10.951 1.059,10.720 1.083 C 9.527 1.210,8.337 1.558,7.180 2.120 C 6.045 2.671,5.193 3.285,4.238 4.239 C 3.277 5.198,2.643 6.080,2.097 7.220 C 0.301 10.968,0.728 15.286,3.226 18.633 C 3.701 19.269,4.753 20.316,5.400 20.797 C 9.364 23.745,14.666 23.734,18.637 20.770 C 19.246 20.316,20.316 19.246,20.770 18.637 C 23.744 14.652,23.744 9.348,20.770 5.363 C 20.316 4.755,19.247 3.686,18.640 3.235 C 17.045 2.049,15.365 1.360,13.423 1.096 C 13.000 1.038,11.574 0.990,11.280 1.023 M11.008 4.693 L 11.020 6.306 11.141 6.503 C 11.543 7.156,12.457 7.156,12.859 6.503 L 12.980 6.306 12.992 4.688 L 13.003 3.069 13.240 3.094 C 14.335 3.208,15.864 3.774,16.880 4.440 C 17.947 5.140,18.860 6.053,19.560 7.120 C 20.227 8.137,20.792 9.665,20.906 10.761 L 20.931 11.000 19.412 11.000 C 17.761 11.000,17.657 11.011,17.382 11.221 C 17.302 11.282,17.187 11.415,17.128 11.516 C 17.037 11.672,17.020 11.746,17.020 12.000 C 17.020 12.256,17.036 12.328,17.131 12.489 C 17.192 12.592,17.304 12.725,17.381 12.783 C 17.653 12.991,17.702 12.996,19.376 12.998 L 20.931 13.000 20.906 13.239 C 20.792 14.335,20.227 15.863,19.560 16.880 C 19.038 17.676,18.297 18.493,17.600 19.043 C 16.352 20.027,14.751 20.716,13.252 20.914 L 13.003 20.946 12.992 19.323 L 12.980 17.700 12.871 17.514 C 12.479 16.848,11.521 16.848,11.129 17.514 L 11.020 17.700 11.008 19.323 L 10.997 20.946 10.748 20.914 C 9.232 20.714,7.609 20.011,6.370 19.019 C 5.670 18.458,4.957 17.668,4.440 16.880 C 3.773 15.863,3.208 14.335,3.094 13.239 L 3.069 13.000 4.624 12.998 C 6.298 12.996,6.347 12.991,6.619 12.783 C 6.696 12.725,6.808 12.592,6.869 12.489 C 6.964 12.328,6.980 12.256,6.980 12.000 C 6.980 11.746,6.963 11.672,6.872 11.516 C 6.813 11.415,6.698 11.282,6.618 11.221 C 6.343 11.011,6.239 11.000,4.588 11.000 L 3.069 11.000 3.094 10.761 C 3.208 9.665,3.773 8.137,4.440 7.120 C 5.140 6.053,6.053 5.140,7.120 4.440 C 7.944 3.900,9.191 3.386,10.120 3.205 C 10.351 3.160,10.576 3.115,10.620 3.106 C 10.664 3.097,10.767 3.087,10.848 3.085 L 10.997 3.080 11.008 4.693 " stroke="none" fill-rule="evenodd" fill="black"></path></svg>