<svg width="24" height="24" viewBox="0 0 24 24" fill="none" xmlns="http://www.w3.org/2000/svg"><path d="M11.280 1.026 C 9.617 1.179,8.507 1.476,7.180 2.120 C 6.045 2.671,5.193 3.285,4.238 4.239 C 3.277 5.198,2.643 6.080,2.097 7.220 C 0.301 10.968,0.728 15.286,3.226 18.633 C 3.701 19.269,4.753 20.316,5.400 20.797 C 9.364 23.745,14.666 23.734,18.637 20.770 C 19.246 20.316,20.316 19.246,20.770 18.637 C 22.045 16.929,22.785 14.989,22.962 12.891 C 23.029 12.106,23.004 11.741,22.868 11.509 C 22.482 10.851,21.519 10.850,21.134 11.507 C 21.040 11.668,21.025 11.747,20.995 12.253 C 20.932 13.327,20.813 13.998,20.534 14.840 C 19.907 16.739,18.639 18.387,16.927 19.532 C 16.138 20.060,14.876 20.588,13.908 20.797 C 11.266 21.366,8.479 20.708,6.370 19.019 C 4.857 17.807,3.722 16.029,3.267 14.160 C 3.081 13.397,3.023 12.888,3.023 12.000 C 3.023 10.507,3.280 9.379,3.920 8.060 C 4.971 5.891,6.877 4.221,9.160 3.466 C 10.002 3.187,10.673 3.068,11.747 3.005 C 12.258 2.975,12.331 2.961,12.498 2.863 C 13.248 2.424,13.119 1.304,12.290 1.055 C 12.124 1.005,11.652 0.991,11.280 1.026 M18.640 1.068 C 18.487 1.120,18.210 1.379,16.795 2.795 C 15.301 4.289,15.124 4.480,15.065 4.657 C 15.010 4.824,15.000 5.065,15.000 6.217 L 15.000 7.580 13.117 9.460 C 12.082 10.494,11.187 11.421,11.127 11.520 C 11.036 11.673,11.020 11.746,11.020 12.000 C 11.020 12.257,11.036 12.327,11.133 12.492 C 11.413 12.968,12.033 13.139,12.492 12.865 C 12.584 12.810,13.506 11.918,14.540 10.883 L 16.420 9.000 17.783 9.000 C 18.940 9.000,19.176 8.990,19.343 8.934 C 19.519 8.876,19.715 8.695,21.171 7.245 C 22.320 6.101,22.827 5.569,22.887 5.445 C 23.006 5.200,23.024 4.934,22.941 4.682 C 22.824 4.332,22.676 4.219,21.667 3.716 L 20.754 3.260 20.277 2.313 C 19.885 1.535,19.772 1.345,19.644 1.243 C 19.344 1.006,18.998 0.945,18.640 1.068 M18.947 4.132 C 19.059 4.358,19.199 4.600,19.257 4.669 C 19.318 4.742,19.550 4.890,19.811 5.023 C 20.058 5.148,20.268 5.258,20.278 5.267 C 20.288 5.276,19.910 5.669,19.439 6.141 L 18.581 7.000 17.790 7.000 L 17.000 7.000 17.000 6.210 L 17.000 5.421 17.850 4.570 C 18.317 4.103,18.709 3.720,18.721 3.720 C 18.732 3.720,18.834 3.905,18.947 4.132 M11.380 6.043 C 8.784 6.299,6.676 8.219,6.115 10.840 C 5.984 11.450,5.984 12.558,6.114 13.160 C 6.639 15.588,8.417 17.365,10.840 17.885 C 11.190 17.960,11.383 17.975,12.000 17.975 C 12.822 17.975,13.248 17.909,13.940 17.672 C 16.284 16.869,17.953 14.614,17.975 12.220 C 17.980 11.721,17.976 11.692,17.871 11.514 C 17.482 10.853,16.520 10.847,16.136 11.503 C 16.053 11.645,16.026 11.762,15.996 12.110 C 15.929 12.890,15.838 13.242,15.557 13.804 C 15.014 14.892,13.989 15.670,12.773 15.917 C 10.563 16.368,8.396 14.845,8.058 12.605 C 7.986 12.121,7.986 11.879,8.058 11.395 C 8.247 10.145,9.042 9.036,10.160 8.464 C 10.745 8.164,11.091 8.073,11.890 8.004 C 12.242 7.974,12.354 7.948,12.502 7.861 C 13.248 7.424,13.116 6.304,12.290 6.055 C 12.093 5.996,11.882 5.993,11.380 6.043 " stroke="none" fill-rule="evenodd" fill="black"></path></svg>