<svg width="24" height="24" viewBox="0 0 24 24" fill="none" xmlns="http://www.w3.org/2000/svg"><path d="M5.920 2.041 C 5.151 2.092,4.672 2.205,4.180 2.451 C 3.089 2.996,2.357 3.961,2.124 5.160 C 2.013 5.729,2.000 6.455,2.000 12.000 C 2.000 18.358,2.006 18.526,2.245 19.320 C 2.577 20.422,3.578 21.423,4.680 21.755 C 5.474 21.994,5.642 22.000,12.000 22.000 C 18.358 22.000,18.526 21.994,19.320 21.755 C 20.422 21.423,21.423 20.422,21.755 19.320 C 21.994 18.526,22.000 18.358,22.000 12.000 C 22.000 5.642,21.994 5.474,21.755 4.680 C 21.424 3.581,20.465 2.622,19.320 2.246 C 18.644 2.024,18.800 2.029,12.340 2.019 C 9.062 2.014,6.173 2.024,5.920 2.041 M18.492 4.091 C 18.894 4.188,19.109 4.309,19.400 4.600 C 19.696 4.895,19.814 5.109,19.912 5.528 C 19.975 5.797,19.980 6.313,19.980 12.000 C 19.980 17.687,19.975 18.203,19.912 18.472 C 19.814 18.891,19.696 19.104,19.400 19.401 C 19.101 19.701,18.820 19.851,18.418 19.928 C 18.010 20.005,5.990 20.005,5.582 19.927 C 5.170 19.850,4.898 19.704,4.600 19.403 C 4.303 19.104,4.186 18.890,4.088 18.472 C 4.025 18.203,4.020 17.687,4.020 12.000 C 4.020 6.313,4.025 5.797,4.088 5.528 C 4.175 5.155,4.294 4.918,4.520 4.667 C 4.883 4.262,5.282 4.091,5.980 4.039 C 6.200 4.023,9.044 4.013,12.300 4.018 C 17.643 4.024,18.247 4.032,18.492 4.091 M6.670 8.061 C 6.448 8.142,6.250 8.309,6.128 8.516 C 6.036 8.672,6.020 8.745,6.021 9.000 C 6.021 9.213,6.043 9.341,6.095 9.440 C 6.136 9.517,6.711 10.125,7.374 10.790 L 8.578 12.000 7.374 13.210 C 6.711 13.876,6.138 14.481,6.101 14.555 C 5.872 15.009,6.056 15.601,6.508 15.867 C 6.673 15.964,6.742 15.980,7.000 15.979 C 7.212 15.979,7.341 15.957,7.440 15.905 C 7.632 15.804,10.739 12.704,10.873 12.480 C 10.964 12.328,10.980 12.254,10.980 12.000 C 10.980 11.746,10.963 11.672,10.873 11.520 C 10.814 11.421,10.040 10.618,9.153 9.736 C 7.714 8.305,7.519 8.124,7.343 8.066 C 7.108 7.987,6.875 7.986,6.670 8.061 M12.695 14.057 C 12.466 14.129,12.256 14.299,12.128 14.516 C 12.037 14.672,12.020 14.746,12.020 15.000 C 12.020 15.256,12.036 15.328,12.131 15.489 C 12.256 15.702,12.449 15.864,12.670 15.943 C 12.889 16.021,17.111 16.021,17.330 15.943 C 17.551 15.864,17.744 15.702,17.869 15.489 C 17.964 15.328,17.980 15.256,17.980 15.000 C 17.980 14.746,17.963 14.672,17.872 14.516 C 17.740 14.293,17.533 14.128,17.290 14.055 C 17.033 13.978,12.943 13.979,12.695 14.057 " stroke="none" fill-rule="evenodd" fill="black"></path></svg>