<svg width="24" height="24" viewBox="0 0 24 24" fill="none" xmlns="http://www.w3.org/2000/svg"><path d="M11.280 1.023 C 11.203 1.032,10.951 1.059,10.720 1.083 C 9.527 1.210,8.337 1.558,7.180 2.120 C 6.045 2.671,5.193 3.285,4.238 4.239 C 3.277 5.198,2.643 6.080,2.097 7.220 C 0.301 10.968,0.728 15.286,3.226 18.633 C 3.701 19.269,4.753 20.316,5.400 20.797 C 9.364 23.745,14.666 23.734,18.637 20.770 C 19.246 20.316,20.316 19.246,20.770 18.637 C 23.744 14.652,23.744 9.348,20.770 5.363 C 20.316 4.755,19.247 3.686,18.640 3.235 C 17.045 2.049,15.365 1.360,13.423 1.096 C 13.000 1.038,11.574 0.990,11.280 1.023 M13.320 3.101 C 15.883 3.488,18.124 4.931,19.560 7.120 C 19.863 7.583,20.303 8.479,20.492 9.020 C 20.838 10.013,20.977 10.865,20.977 12.000 C 20.977 13.493,20.720 14.621,20.080 15.940 C 19.375 17.394,18.311 18.607,16.927 19.532 C 16.138 20.060,14.876 20.588,13.908 20.797 C 11.266 21.366,8.479 20.708,6.370 19.019 C 4.857 17.807,3.722 16.029,3.267 14.160 C 3.081 13.397,3.023 12.888,3.023 12.000 C 3.023 10.507,3.280 9.379,3.920 8.060 C 4.971 5.891,6.877 4.221,9.160 3.466 C 9.865 3.233,10.432 3.118,11.340 3.024 C 11.662 2.991,12.911 3.039,13.320 3.101 M6.670 8.061 C 6.448 8.142,6.250 8.309,6.128 8.516 C 6.036 8.672,6.020 8.745,6.021 9.000 C 6.021 9.213,6.043 9.341,6.095 9.440 C 6.136 9.517,6.711 10.125,7.374 10.790 L 8.578 12.000 7.374 13.210 C 6.711 13.876,6.138 14.481,6.101 14.555 C 5.872 15.009,6.056 15.601,6.508 15.867 C 6.673 15.964,6.742 15.980,7.000 15.979 C 7.212 15.979,7.341 15.957,7.440 15.905 C 7.632 15.804,10.739 12.704,10.873 12.480 C 10.964 12.328,10.980 12.254,10.980 12.000 C 10.980 11.746,10.963 11.672,10.873 11.520 C 10.814 11.421,10.040 10.618,9.153 9.736 C 7.714 8.305,7.519 8.124,7.343 8.066 C 7.108 7.987,6.875 7.986,6.670 8.061 M12.695 14.057 C 12.466 14.129,12.256 14.299,12.128 14.516 C 12.037 14.672,12.020 14.746,12.020 15.000 C 12.020 15.256,12.036 15.328,12.131 15.489 C 12.256 15.702,12.449 15.864,12.670 15.943 C 12.889 16.021,17.111 16.021,17.330 15.943 C 17.551 15.864,17.744 15.702,17.869 15.489 C 17.964 15.328,17.980 15.256,17.980 15.000 C 17.980 14.746,17.963 14.672,17.872 14.516 C 17.740 14.293,17.533 14.128,17.290 14.055 C 17.033 13.978,12.943 13.979,12.695 14.057 " stroke="none" fill-rule="evenodd" fill="black"></path></svg>