<svg width="24" height="24" viewBox="0 0 24 24" fill="none" xmlns="http://www.w3.org/2000/svg"><path d="M14.240 2.037 C 13.792 2.175,13.512 2.546,13.512 3.000 C 13.512 3.405,13.719 3.724,14.100 3.905 C 14.291 3.995,14.339 3.999,15.150 4.000 L 16.000 4.000 16.000 11.997 L 16.000 19.995 15.110 20.007 C 14.287 20.019,14.208 20.027,14.060 20.106 C 13.707 20.297,13.512 20.615,13.512 21.000 C 13.512 21.405,13.719 21.724,14.100 21.905 L 14.300 21.999 17.000 21.999 L 19.700 21.999 19.900 21.905 C 20.281 21.724,20.488 21.405,20.488 21.000 C 20.488 20.615,20.293 20.297,19.940 20.106 C 19.792 20.027,19.713 20.019,18.890 20.007 L 18.000 19.995 18.000 19.002 L 18.000 18.009 19.210 17.989 C 20.253 17.972,20.464 17.958,20.740 17.887 C 21.150 17.783,21.382 17.682,21.679 17.481 C 22.323 17.044,22.722 16.451,22.906 15.660 C 22.975 15.362,22.980 15.114,22.980 12.000 C 22.980 8.886,22.975 8.638,22.906 8.340 C 22.688 7.404,22.167 6.737,21.329 6.321 C 20.841 6.079,20.237 6.000,18.870 6.000 L 18.000 6.000 18.000 5.000 L 18.000 4.000 18.850 4.000 C 19.661 3.999,19.709 3.995,19.900 3.905 C 20.281 3.724,20.488 3.405,20.488 3.000 C 20.488 2.615,20.293 2.297,19.940 2.106 C 19.781 2.020,19.765 2.020,17.060 2.013 C 15.564 2.009,14.295 2.020,14.240 2.037 M3.749 6.045 C 2.967 6.120,2.402 6.371,1.890 6.870 C 1.491 7.260,1.236 7.731,1.094 8.340 C 1.025 8.638,1.020 8.886,1.020 12.020 C 1.020 15.379,1.020 15.380,1.111 15.735 C 1.225 16.184,1.379 16.505,1.650 16.858 C 2.031 17.355,2.586 17.713,3.244 17.888 L 3.580 17.977 8.350 17.990 C 11.554 17.999,13.171 17.989,13.274 17.962 C 13.498 17.901,13.739 17.711,13.867 17.492 C 13.964 17.327,13.980 17.257,13.980 17.000 C 13.980 16.746,13.963 16.672,13.872 16.516 C 13.761 16.328,13.572 16.158,13.373 16.070 C 13.285 16.031,12.188 16.015,8.500 16.000 L 3.740 15.980 3.550 15.886 C 3.325 15.776,3.137 15.562,3.069 15.340 C 2.995 15.100,2.999 8.890,3.072 8.646 C 3.138 8.431,3.415 8.145,3.626 8.075 C 3.746 8.035,4.828 8.019,8.540 8.002 L 13.300 7.980 13.492 7.867 C 14.248 7.423,14.123 6.306,13.290 6.055 C 13.139 6.010,12.316 6.001,8.604 6.005 C 6.127 6.008,3.942 6.026,3.749 6.045 M20.374 8.079 C 20.583 8.143,20.862 8.429,20.928 8.646 C 21.001 8.890,21.005 15.100,20.931 15.340 C 20.863 15.562,20.675 15.776,20.450 15.886 C 20.267 15.977,20.220 15.980,19.130 15.994 L 18.000 16.007 18.000 11.999 L 18.000 7.990 19.110 8.011 C 19.789 8.024,20.280 8.050,20.374 8.079 " stroke="none" fill-rule="evenodd" fill="black"></path></svg>