<svg width="24" height="24" viewBox="0 0 24 24" fill="none" xmlns="http://www.w3.org/2000/svg"><path d="M17.499 1.040 C 16.374 1.244,15.488 2.024,15.114 3.140 L 15.020 3.420 15.000 8.705 L 14.980 13.991 14.615 14.335 C 13.844 15.060,13.343 15.925,13.111 16.929 C 12.995 17.434,12.986 18.459,13.093 18.960 C 13.526 20.984,15.016 22.474,17.040 22.907 C 17.286 22.960,17.552 22.980,18.000 22.980 C 18.898 22.980,19.494 22.838,20.286 22.433 C 21.630 21.748,22.580 20.489,22.907 18.960 C 23.014 18.459,23.005 17.434,22.889 16.929 C 22.657 15.925,22.156 15.060,21.385 14.335 L 21.020 13.991 21.000 8.705 L 20.980 3.420 20.886 3.140 C 20.555 2.154,19.800 1.403,18.861 1.129 C 18.500 1.023,17.832 0.980,17.499 1.040 M8.695 3.057 C 8.466 3.129,8.256 3.299,8.128 3.516 L 8.020 3.700 8.008 5.135 L 7.996 6.570 7.268 5.852 C 6.655 5.247,6.509 5.123,6.343 5.067 C 5.865 4.905,5.383 5.083,5.128 5.516 C 5.037 5.672,5.020 5.746,5.020 6.000 C 5.020 6.254,5.036 6.327,5.127 6.480 C 5.186 6.579,5.857 7.281,6.617 8.040 L 8.000 9.420 8.000 10.210 L 8.000 11.000 7.212 11.000 L 6.423 11.000 4.982 9.566 C 3.702 8.293,3.518 8.124,3.343 8.066 C 2.863 7.906,2.382 8.084,2.128 8.516 C 2.036 8.672,2.020 8.745,2.021 9.000 C 2.021 9.213,2.043 9.340,2.096 9.440 C 2.136 9.517,2.486 9.900,2.873 10.290 L 3.577 11.000 2.735 11.000 C 1.812 11.000,1.634 11.029,1.382 11.221 C 1.302 11.282,1.187 11.415,1.128 11.516 C 1.037 11.672,1.020 11.746,1.020 12.000 C 1.020 12.256,1.036 12.328,1.131 12.489 C 1.192 12.592,1.304 12.725,1.381 12.783 C 1.635 12.977,1.753 12.996,2.699 12.998 L 3.577 13.000 2.873 13.710 C 2.486 14.101,2.136 14.483,2.096 14.560 C 2.043 14.660,2.021 14.787,2.021 15.000 C 2.020 15.258,2.036 15.327,2.133 15.492 C 2.413 15.968,3.033 16.139,3.492 15.865 C 3.584 15.810,4.281 15.143,5.040 14.383 L 6.420 13.000 7.210 13.000 L 8.000 13.000 8.000 13.790 L 8.000 14.580 6.617 15.960 C 5.857 16.719,5.186 17.421,5.127 17.520 C 5.036 17.673,5.020 17.746,5.020 18.000 C 5.020 18.257,5.036 18.327,5.133 18.492 C 5.263 18.714,5.502 18.901,5.736 18.965 C 5.939 19.019,6.267 18.989,6.445 18.899 C 6.519 18.861,6.899 18.515,7.288 18.129 L 7.996 17.427 8.008 18.867 L 8.020 20.306 8.141 20.503 C 8.543 21.156,9.457 21.156,9.859 20.503 L 9.980 20.306 9.992 18.830 C 10.001 17.685,10.015 17.362,10.052 17.393 C 10.136 17.462,10.492 17.505,10.695 17.470 C 11.369 17.354,11.715 16.508,11.320 15.943 C 11.257 15.853,10.935 15.510,10.603 15.181 L 10.000 14.581 10.000 13.791 L 10.000 13.000 11.090 12.998 C 12.262 12.996,12.357 12.983,12.619 12.783 C 12.696 12.725,12.808 12.592,12.869 12.489 C 12.964 12.328,12.980 12.256,12.980 12.000 C 12.980 11.746,12.963 11.672,12.872 11.516 C 12.813 11.415,12.698 11.282,12.618 11.221 C 12.356 11.022,12.203 11.000,11.054 11.000 L 10.000 11.000 10.000 10.210 L 10.000 9.420 11.383 8.040 C 12.143 7.281,12.814 6.579,12.873 6.480 C 12.964 6.327,12.980 6.254,12.980 6.000 C 12.980 5.746,12.963 5.672,12.872 5.516 C 12.617 5.083,12.135 4.905,11.657 5.067 C 11.491 5.123,11.345 5.247,10.732 5.852 L 10.004 6.570 9.992 5.135 L 9.980 3.700 9.872 3.516 C 9.628 3.101,9.150 2.915,8.695 3.057 M18.310 3.061 C 18.589 3.144,18.856 3.411,18.939 3.690 C 18.992 3.868,19.000 4.580,19.002 9.297 C 19.003 13.706,19.013 14.728,19.057 14.850 C 19.141 15.085,19.300 15.264,19.612 15.475 C 20.271 15.921,20.709 16.531,20.907 17.280 C 21.015 17.689,21.000 18.450,20.875 18.861 C 20.583 19.821,19.819 20.581,18.840 20.886 C 18.406 21.021,17.594 21.021,17.160 20.886 C 16.181 20.581,15.417 19.821,15.125 18.861 C 15.000 18.450,14.985 17.689,15.093 17.280 C 15.291 16.531,15.729 15.921,16.388 15.475 C 16.700 15.264,16.859 15.085,16.943 14.850 C 16.987 14.728,16.997 13.706,16.998 9.297 C 17.000 3.208,16.979 3.627,17.304 3.303 C 17.583 3.024,17.916 2.944,18.310 3.061 " stroke="none" fill-rule="evenodd" fill="black"></path></svg>