<svg width="24" height="24" viewBox="0 0 24 24" fill="none" xmlns="http://www.w3.org/2000/svg"><path d="M7.580 1.024 C 6.701 1.153,5.814 1.642,5.294 2.286 C 4.957 2.704,4.733 3.161,4.574 3.760 C 4.510 3.998,4.503 4.414,4.490 8.640 L 4.477 13.259 4.115 13.622 C 2.963 14.781,2.395 16.317,2.524 17.924 C 2.635 19.306,3.199 20.492,4.205 21.461 C 5.877 23.072,8.372 23.454,10.448 22.417 C 11.684 21.800,12.690 20.681,13.155 19.407 C 13.761 17.746,13.546 15.915,12.572 14.445 C 12.446 14.255,12.159 13.910,11.933 13.678 L 11.523 13.257 11.510 8.638 C 11.497 4.123,11.494 4.013,11.414 3.720 C 11.181 2.872,10.787 2.253,10.165 1.759 C 9.842 1.502,9.187 1.186,8.800 1.099 C 8.503 1.033,7.811 0.990,7.580 1.024 M14.695 2.057 C 14.466 2.129,14.256 2.299,14.128 2.516 C 14.037 2.672,14.020 2.746,14.020 3.000 C 14.020 3.256,14.036 3.328,14.131 3.489 C 14.256 3.702,14.449 3.864,14.670 3.943 C 14.891 4.022,21.109 4.022,21.330 3.943 C 21.551 3.864,21.744 3.702,21.869 3.489 C 21.964 3.328,21.980 3.256,21.980 3.000 C 21.980 2.746,21.963 2.672,21.872 2.516 C 21.740 2.293,21.533 2.128,21.290 2.055 C 21.030 1.977,14.945 1.979,14.695 2.057 M8.307 3.044 C 8.755 3.122,9.161 3.451,9.371 3.907 L 9.460 4.100 9.480 9.040 C 9.501 14.321,9.490 14.034,9.691 14.330 C 9.732 14.390,9.933 14.575,10.138 14.740 C 10.680 15.176,11.052 15.687,11.276 16.305 C 11.447 16.776,11.494 17.116,11.469 17.685 C 11.442 18.292,11.378 18.546,11.120 19.060 C 10.679 19.940,9.923 20.577,8.980 20.864 C 8.654 20.964,8.562 20.974,8.000 20.974 C 7.439 20.974,7.346 20.964,7.020 20.865 C 5.857 20.511,4.935 19.572,4.618 18.419 C 4.531 18.101,4.496 17.234,4.557 16.910 C 4.673 16.298,4.955 15.690,5.341 15.224 C 5.429 15.119,5.665 14.899,5.867 14.736 C 6.070 14.573,6.268 14.390,6.309 14.330 C 6.510 14.034,6.499 14.321,6.520 9.040 L 6.540 4.100 6.631 3.903 C 6.824 3.485,7.206 3.156,7.614 3.057 C 7.880 2.992,7.997 2.990,8.307 3.044 M14.695 6.057 C 14.466 6.129,14.256 6.299,14.128 6.516 C 14.037 6.672,14.020 6.746,14.020 7.000 C 14.020 7.256,14.036 7.328,14.131 7.489 C 14.256 7.702,14.449 7.864,14.670 7.943 C 14.891 8.022,21.109 8.022,21.330 7.943 C 21.551 7.864,21.744 7.702,21.869 7.489 C 21.964 7.328,21.980 7.256,21.980 7.000 C 21.980 6.746,21.963 6.672,21.872 6.516 C 21.740 6.293,21.533 6.128,21.290 6.055 C 21.030 5.977,14.945 5.979,14.695 6.057 M14.695 10.057 C 14.466 10.129,14.256 10.299,14.128 10.516 C 14.037 10.672,14.020 10.746,14.020 11.000 C 14.020 11.256,14.036 11.328,14.131 11.489 C 14.256 11.702,14.449 11.864,14.670 11.943 C 14.891 12.022,21.109 12.022,21.330 11.943 C 21.551 11.864,21.744 11.702,21.869 11.489 C 21.964 11.328,21.980 11.256,21.980 11.000 C 21.980 10.746,21.963 10.672,21.872 10.516 C 21.740 10.293,21.533 10.128,21.290 10.055 C 21.030 9.977,14.945 9.979,14.695 10.057 M7.392 15.597 C 7.068 15.701,6.825 15.854,6.565 16.118 C 5.681 17.016,5.865 18.514,6.943 19.198 C 7.553 19.585,8.447 19.585,9.057 19.198 C 10.306 18.405,10.306 16.595,9.057 15.802 C 8.618 15.523,7.899 15.435,7.392 15.597 " stroke="none" fill-rule="evenodd" fill="black"></path></svg>