<svg width="24" height="24" viewBox="0 0 24 24" fill="none" xmlns="http://www.w3.org/2000/svg"><path d="M17.499 1.040 C 16.374 1.244,15.488 2.024,15.114 3.140 L 15.020 3.420 15.000 8.705 L 14.980 13.991 14.615 14.335 C 13.844 15.060,13.343 15.925,13.111 16.929 C 12.995 17.434,12.986 18.459,13.093 18.960 C 13.526 20.984,15.016 22.474,17.040 22.907 C 17.286 22.960,17.552 22.980,18.000 22.980 C 18.898 22.980,19.494 22.838,20.286 22.433 C 21.630 21.748,22.580 20.489,22.907 18.960 C 23.014 18.459,23.005 17.434,22.889 16.929 C 22.657 15.925,22.156 15.060,21.385 14.335 L 21.020 13.991 21.000 8.705 L 20.980 3.420 20.886 3.140 C 20.555 2.154,19.800 1.403,18.861 1.129 C 18.500 1.023,17.832 0.980,17.499 1.040 M11.695 2.057 C 11.466 2.129,11.256 2.299,11.128 2.516 L 11.020 2.700 11.020 4.003 L 11.020 5.306 11.141 5.503 C 11.543 6.156,12.457 6.156,12.859 5.503 L 12.980 5.306 12.980 4.003 L 12.980 2.700 12.872 2.516 C 12.628 2.101,12.150 1.915,11.695 2.057 M18.310 3.061 C 18.589 3.144,18.856 3.411,18.939 3.690 C 18.992 3.868,19.000 4.580,19.002 9.297 C 19.003 13.706,19.013 14.728,19.057 14.850 C 19.141 15.085,19.300 15.264,19.612 15.475 C 20.271 15.921,20.709 16.531,20.907 17.280 C 21.015 17.689,21.000 18.450,20.875 18.861 C 20.583 19.821,19.819 20.581,18.840 20.886 C 18.406 21.021,17.594 21.021,17.160 20.886 C 16.181 20.581,15.417 19.821,15.125 18.861 C 15.000 18.450,14.985 17.689,15.093 17.280 C 15.291 16.531,15.729 15.921,16.388 15.475 C 16.700 15.264,16.859 15.085,16.943 14.850 C 16.987 14.728,16.997 13.706,16.998 9.297 C 17.000 3.208,16.979 3.627,17.304 3.303 C 17.583 3.024,17.916 2.944,18.310 3.061 M4.870 5.261 C 4.648 5.342,4.450 5.509,4.328 5.716 C 4.236 5.872,4.220 5.945,4.221 6.200 C 4.221 6.413,4.243 6.540,4.295 6.640 C 4.397 6.833,5.899 8.341,6.120 8.473 C 6.272 8.563,6.346 8.580,6.600 8.580 C 6.857 8.580,6.927 8.564,7.092 8.467 C 7.567 8.188,7.738 7.569,7.466 7.108 C 7.412 7.016,7.001 6.578,6.554 6.137 C 5.861 5.452,5.711 5.323,5.543 5.267 C 5.308 5.187,5.075 5.185,4.870 5.261 M11.440 8.026 C 11.385 8.034,11.205 8.060,11.040 8.085 C 10.352 8.186,9.574 8.532,8.913 9.030 C 7.653 9.978,6.945 11.412,6.943 13.020 C 6.942 13.840,7.093 14.464,7.485 15.261 C 7.919 16.145,8.762 17.010,9.553 17.384 C 10.068 17.628,10.624 17.443,10.892 16.940 C 10.956 16.821,10.978 16.709,10.978 16.500 C 10.978 16.055,10.847 15.864,10.298 15.507 C 9.370 14.903,8.835 13.776,8.959 12.690 C 9.084 11.602,9.727 10.719,10.726 10.265 C 11.108 10.091,11.310 10.044,11.862 10.003 C 12.245 9.975,12.346 9.952,12.497 9.864 C 13.247 9.424,13.118 8.304,12.290 8.055 C 12.123 8.005,11.685 7.990,11.440 8.026 M1.695 12.057 C 1.466 12.129,1.256 12.299,1.128 12.516 C 1.037 12.672,1.020 12.746,1.020 13.000 C 1.020 13.256,1.036 13.328,1.131 13.489 C 1.256 13.702,1.449 13.864,1.670 13.943 C 1.885 14.020,4.115 14.020,4.330 13.943 C 4.551 13.864,4.744 13.702,4.869 13.489 C 4.964 13.328,4.980 13.256,4.980 13.000 C 4.980 12.746,4.963 12.672,4.872 12.516 C 4.740 12.293,4.533 12.128,4.290 12.055 C 4.039 11.979,1.937 11.981,1.695 12.057 M6.240 17.469 C 6.096 17.520,5.898 17.692,5.246 18.336 C 4.799 18.778,4.388 19.216,4.334 19.308 C 4.062 19.769,4.233 20.388,4.708 20.667 C 4.873 20.764,4.943 20.780,5.200 20.780 C 5.454 20.780,5.528 20.763,5.680 20.673 C 5.901 20.541,7.403 19.033,7.505 18.840 C 7.557 18.740,7.579 18.613,7.579 18.400 C 7.580 18.145,7.564 18.072,7.472 17.916 C 7.217 17.482,6.718 17.302,6.240 17.469 " stroke="none" fill-rule="evenodd" fill="black"></path></svg>