<svg width="24" height="24" viewBox="0 0 24 24" fill="none" xmlns="http://www.w3.org/2000/svg"><path d="M6.360 1.043 C 5.421 1.112,4.737 1.357,4.114 1.848 C 3.385 2.423,2.964 3.096,2.705 4.100 C 2.592 4.542,1.829 9.380,1.641 10.852 C 1.492 12.019,1.541 12.843,1.800 13.511 C 2.186 14.509,3.079 15.382,4.038 15.699 C 4.786 15.946,5.405 16.000,7.488 16.000 L 8.995 16.000 9.010 18.070 C 9.024 20.078,9.027 20.149,9.114 20.440 C 9.470 21.628,10.402 22.557,11.560 22.880 C 11.997 23.001,12.599 23.029,12.899 22.942 C 13.384 22.801,13.726 22.561,13.970 22.190 C 14.046 22.075,14.905 20.186,15.879 17.994 L 17.649 14.008 19.035 13.989 C 20.262 13.972,20.456 13.961,20.740 13.888 C 21.154 13.782,21.382 13.682,21.690 13.473 C 22.324 13.044,22.722 12.449,22.906 11.660 C 22.975 11.360,22.980 11.102,22.980 7.500 C 22.980 3.898,22.975 3.640,22.906 3.340 C 22.688 2.404,22.167 1.737,21.329 1.321 C 21.019 1.168,20.706 1.091,20.180 1.042 C 19.664 0.993,7.022 0.994,6.360 1.043 M16.000 7.935 L 16.000 12.870 15.902 13.045 C 15.848 13.141,15.029 14.965,14.081 17.098 C 13.133 19.231,12.349 20.984,12.340 20.994 C 12.313 21.021,11.958 20.916,11.784 20.830 C 11.586 20.731,11.270 20.416,11.169 20.216 C 11.014 19.911,11.000 19.700,10.999 17.748 C 10.999 15.702,10.983 15.511,10.778 15.093 C 10.566 14.658,10.136 14.291,9.635 14.115 C 9.389 14.028,9.312 14.024,7.380 13.997 C 5.006 13.964,4.817 13.941,4.353 13.629 C 4.074 13.441,3.848 13.172,3.691 12.840 C 3.551 12.544,3.524 11.942,3.618 11.193 C 3.703 10.518,4.453 5.607,4.562 5.020 C 4.704 4.250,4.874 3.851,5.187 3.553 C 5.347 3.400,5.750 3.166,5.938 3.115 C 6.277 3.024,6.921 3.011,11.390 3.006 L 16.000 3.000 16.000 7.935 M20.374 3.079 C 20.583 3.143,20.862 3.429,20.928 3.646 C 21.001 3.891,21.005 11.099,20.931 11.340 C 20.863 11.562,20.675 11.776,20.450 11.886 C 20.267 11.977,20.220 11.980,19.130 11.994 L 18.000 12.007 18.000 7.499 L 18.000 2.990 19.110 3.011 C 19.789 3.024,20.280 3.050,20.374 3.079 " stroke="none" fill-rule="evenodd" fill="black"></path></svg>