<svg width="24" height="24" viewBox="0 0 24 24" fill="none" xmlns="http://www.w3.org/2000/svg"><path d="M11.164 1.043 C 10.918 1.092,10.530 1.284,10.334 1.455 C 10.243 1.534,10.106 1.694,10.030 1.810 C 9.954 1.925,9.094 3.814,8.120 6.007 L 6.350 9.994 4.905 10.009 C 3.503 10.024,3.450 10.028,3.139 10.124 C 2.175 10.421,1.419 11.181,1.114 12.160 L 1.020 12.460 1.020 16.500 L 1.020 20.540 1.114 20.840 C 1.422 21.827,2.173 22.578,3.160 22.886 L 3.460 22.980 10.740 22.980 C 17.641 22.980,18.036 22.976,18.320 22.907 C 19.758 22.559,20.915 21.445,21.278 20.060 C 21.324 19.884,21.616 18.102,21.926 16.100 C 22.411 12.973,22.491 12.392,22.492 11.980 C 22.497 10.919,22.064 9.900,21.294 9.157 C 20.625 8.512,19.883 8.151,19.001 8.042 C 18.810 8.018,17.866 8.000,16.833 8.000 L 15.005 8.000 14.990 5.930 C 14.976 3.922,14.973 3.851,14.886 3.560 C 14.483 2.215,13.361 1.228,12.027 1.043 C 11.669 0.994,11.416 0.994,11.164 1.043 M12.002 3.083 C 12.299 3.157,12.687 3.495,12.850 3.820 C 12.984 4.088,13.000 4.350,13.000 6.314 C 13.000 8.427,13.006 8.498,13.225 8.930 C 13.361 9.199,13.801 9.639,14.070 9.775 C 14.503 9.994,14.571 10.000,16.701 10.000 C 17.935 10.000,18.754 10.016,18.903 10.043 C 19.481 10.148,20.024 10.574,20.304 11.140 C 20.575 11.689,20.577 11.665,19.942 15.800 C 19.642 17.747,19.363 19.458,19.320 19.602 C 19.127 20.255,18.591 20.756,17.891 20.937 C 17.677 20.993,17.083 21.000,12.824 21.000 L 8.000 21.000 8.000 16.079 L 8.000 11.158 8.134 10.889 C 8.208 10.741,9.030 8.906,9.961 6.811 C 11.637 3.036,11.653 3.002,11.756 3.025 C 11.813 3.038,11.924 3.064,12.002 3.083 M6.000 16.502 L 6.000 21.005 4.850 20.992 L 3.700 20.980 3.516 20.872 C 3.415 20.813,3.284 20.700,3.225 20.623 C 2.992 20.317,3.000 20.469,3.000 16.522 C 3.000 12.414,2.985 12.621,3.304 12.303 C 3.582 12.024,3.680 12.006,4.930 12.003 L 6.000 12.000 6.000 16.502 " stroke="none" fill-rule="evenodd" fill="black"></path></svg>