<svg width="24" height="24" viewBox="0 0 24 24" fill="none" xmlns="http://www.w3.org/2000/svg"><path d="M4.920 3.041 C 4.152 3.092,3.672 3.205,3.180 3.451 C 2.089 3.996,1.357 4.961,1.124 6.160 C 1.015 6.718,1.000 7.439,1.000 12.000 C 1.000 17.284,1.010 17.540,1.245 18.320 C 1.577 19.422,2.578 20.423,3.680 20.755 C 4.485 20.998,4.567 21.000,12.000 21.000 C 19.433 21.000,19.515 20.998,20.320 20.755 C 21.422 20.423,22.423 19.422,22.755 18.320 C 22.990 17.540,23.000 17.284,23.000 12.000 C 23.000 6.716,22.990 6.460,22.755 5.680 C 22.424 4.581,21.465 3.622,20.320 3.246 C 19.635 3.021,19.900 3.028,12.340 3.019 C 8.512 3.014,5.173 3.024,4.920 3.041 M19.492 5.091 C 19.894 5.188,20.110 5.309,20.400 5.600 C 20.696 5.895,20.814 6.109,20.912 6.528 C 20.974 6.795,20.980 7.256,20.980 12.000 C 20.980 16.744,20.974 17.205,20.912 17.472 C 20.814 17.891,20.696 18.104,20.400 18.401 C 20.101 18.701,19.820 18.851,19.418 18.928 C 19.009 19.005,4.991 19.005,4.582 18.927 C 4.170 18.850,3.898 18.704,3.600 18.403 C 3.303 18.104,3.186 17.890,3.088 17.472 C 3.026 17.205,3.020 16.744,3.020 12.000 C 3.020 7.256,3.026 6.795,3.088 6.528 C 3.175 6.155,3.294 5.918,3.520 5.667 C 3.883 5.262,4.282 5.090,4.980 5.039 C 5.200 5.023,8.494 5.013,12.300 5.017 C 18.585 5.024,19.245 5.031,19.492 5.091 M7.695 6.057 C 7.466 6.129,7.256 6.299,7.128 6.516 C 7.020 6.699,7.020 6.703,7.020 7.503 L 7.020 8.306 7.141 8.503 C 7.543 9.156,8.457 9.156,8.859 8.503 L 8.980 8.306 8.980 7.503 C 8.980 6.703,8.980 6.699,8.872 6.516 C 8.628 6.101,8.150 5.915,7.695 6.057 M7.600 10.584 C 7.399 10.671,7.205 10.869,7.095 11.100 C 7.007 11.287,7.001 11.347,7.001 12.000 C 7.001 12.653,7.007 12.713,7.095 12.900 C 7.276 13.281,7.595 13.488,8.000 13.488 C 8.405 13.488,8.724 13.281,8.905 12.900 C 8.993 12.713,8.999 12.653,8.999 12.000 C 8.999 11.347,8.993 11.287,8.905 11.100 C 8.793 10.865,8.599 10.669,8.391 10.582 C 8.203 10.503,7.783 10.504,7.600 10.584 M7.695 15.057 C 7.466 15.129,7.256 15.299,7.128 15.516 C 7.020 15.699,7.020 15.703,7.020 16.503 L 7.020 17.306 7.141 17.503 C 7.543 18.156,8.457 18.156,8.859 17.503 L 8.980 17.306 8.980 16.503 C 8.980 15.703,8.980 15.699,8.872 15.516 C 8.628 15.101,8.150 14.915,7.695 15.057 " stroke="none" fill-rule="evenodd" fill="black"></path></svg>