<svg width="24" height="24" viewBox="0 0 24 24" fill="none" xmlns="http://www.w3.org/2000/svg"><path d="M3.749 3.045 C 2.771 3.139,2.037 3.557,1.527 4.310 C 1.319 4.617,1.219 4.845,1.111 5.260 C 1.036 5.549,1.027 5.726,1.010 7.115 C 0.991 8.837,0.993 8.859,1.276 9.173 C 1.475 9.394,1.673 9.470,2.170 9.517 C 2.865 9.583,3.296 9.780,3.758 10.242 C 4.045 10.529,4.233 10.818,4.370 11.183 C 4.446 11.388,4.458 11.499,4.458 12.000 C 4.458 12.501,4.446 12.612,4.370 12.817 C 4.140 13.432,3.659 13.974,3.110 14.235 C 2.740 14.411,2.526 14.465,2.060 14.503 C 1.667 14.534,1.464 14.619,1.276 14.827 C 0.993 15.141,0.991 15.163,1.010 16.885 C 1.027 18.296,1.035 18.447,1.115 18.756 C 1.283 19.408,1.643 19.967,2.142 20.350 C 2.495 20.621,2.816 20.775,3.265 20.889 L 3.620 20.980 11.980 20.980 C 19.988 20.980,20.353 20.977,20.660 20.906 C 21.451 20.722,22.044 20.323,22.481 19.679 C 22.682 19.383,22.782 19.151,22.888 18.740 C 22.963 18.452,22.973 18.269,22.989 16.886 C 23.010 15.164,23.007 15.142,22.724 14.827 C 22.536 14.619,22.333 14.534,21.940 14.503 C 21.474 14.465,21.260 14.411,20.890 14.235 C 20.341 13.974,19.860 13.432,19.630 12.817 C 19.554 12.612,19.542 12.501,19.542 12.000 C 19.542 11.499,19.554 11.388,19.630 11.183 C 19.767 10.818,19.955 10.529,20.242 10.242 C 20.704 9.780,21.135 9.583,21.830 9.517 C 22.327 9.470,22.525 9.394,22.724 9.173 C 23.007 8.858,23.010 8.836,22.989 7.114 C 22.973 5.731,22.963 5.548,22.888 5.260 C 22.782 4.846,22.682 4.617,22.473 4.310 C 22.184 3.882,21.811 3.560,21.329 3.321 C 21.019 3.168,20.706 3.091,20.180 3.042 C 19.643 2.991,4.277 2.994,3.749 3.045 M20.374 5.074 C 20.576 5.142,20.862 5.431,20.920 5.626 C 20.946 5.712,20.976 6.187,20.988 6.700 L 21.010 7.620 20.735 7.691 C 20.190 7.832,19.502 8.211,19.039 8.624 C 18.038 9.517,17.513 10.679,17.513 12.000 C 17.513 13.971,18.768 15.690,20.640 16.281 L 20.980 16.388 20.976 17.284 C 20.974 17.859,20.955 18.242,20.924 18.354 C 20.864 18.567,20.595 18.848,20.376 18.925 C 20.143 19.007,3.857 19.007,3.624 18.925 C 3.405 18.848,3.136 18.567,3.076 18.354 C 3.045 18.242,3.026 17.859,3.024 17.286 L 3.020 16.391 3.366 16.278 C 4.966 15.756,6.102 14.465,6.425 12.804 C 6.496 12.438,6.505 11.639,6.442 11.280 C 6.334 10.670,6.070 9.999,5.743 9.508 C 5.451 9.067,4.934 8.550,4.496 8.259 C 4.181 8.050,3.583 7.774,3.270 7.692 L 3.000 7.622 3.000 6.941 C 3.001 6.033,3.048 5.632,3.179 5.434 C 3.333 5.201,3.547 5.080,3.866 5.042 C 4.017 5.024,7.758 5.012,12.180 5.016 C 18.671 5.021,20.250 5.032,20.374 5.074 M9.695 6.057 C 9.466 6.129,9.256 6.299,9.128 6.516 C 9.020 6.699,9.020 6.703,9.020 7.503 L 9.020 8.306 9.141 8.503 C 9.543 9.156,10.457 9.156,10.859 8.503 L 10.980 8.306 10.980 7.503 C 10.980 6.703,10.980 6.699,10.872 6.516 C 10.628 6.101,10.150 5.915,9.695 6.057 M9.600 10.584 C 9.399 10.671,9.205 10.869,9.095 11.100 C 9.007 11.287,9.001 11.347,9.001 12.000 C 9.001 12.653,9.007 12.713,9.095 12.900 C 9.276 13.281,9.595 13.488,10.000 13.488 C 10.405 13.488,10.724 13.281,10.905 12.900 C 10.993 12.713,10.999 12.653,10.999 12.000 C 10.999 11.347,10.993 11.287,10.905 11.100 C 10.793 10.865,10.599 10.669,10.391 10.582 C 10.203 10.503,9.783 10.504,9.600 10.584 M9.695 15.057 C 9.466 15.129,9.256 15.299,9.128 15.516 C 9.020 15.699,9.020 15.703,9.020 16.503 L 9.020 17.306 9.141 17.503 C 9.543 18.156,10.457 18.156,10.859 17.503 L 10.980 17.306 10.980 16.503 C 10.980 15.703,10.980 15.699,10.872 15.516 C 10.628 15.101,10.150 14.915,9.695 15.057 " stroke="none" fill-rule="evenodd" fill="black"></path></svg>