<svg width="24" height="24" viewBox="0 0 24 24" fill="none" xmlns="http://www.w3.org/2000/svg"><path d="M6.380 6.043 C 3.784 6.299,1.681 8.215,1.114 10.840 C 0.984 11.446,0.984 12.554,1.114 13.160 C 1.638 15.587,3.401 17.350,5.840 17.887 L 6.260 17.980 12.000 17.980 L 17.740 17.980 18.160 17.887 C 19.384 17.618,20.342 17.107,21.195 16.269 C 22.068 15.412,22.620 14.397,22.885 13.160 C 22.960 12.810,22.975 12.617,22.975 12.000 C 22.975 11.383,22.960 11.190,22.885 10.840 C 22.626 9.631,22.109 8.660,21.269 7.805 C 20.258 6.775,19.009 6.180,17.564 6.039 C 17.100 5.994,6.840 5.997,6.380 6.043 M12.206 8.410 C 11.681 9.107,11.308 9.937,11.115 10.840 C 10.984 11.450,10.984 12.558,11.114 13.160 C 11.310 14.068,11.682 14.894,12.206 15.590 L 12.514 16.000 9.573 16.000 C 6.759 16.000,6.615 15.996,6.227 15.917 C 4.566 15.579,3.309 14.265,3.058 12.605 C 2.986 12.121,2.986 11.879,3.058 11.395 C 3.280 9.924,4.324 8.690,5.758 8.202 C 6.295 8.020,6.522 8.008,9.607 8.004 L 12.514 8.000 12.206 8.410 M17.605 8.058 C 19.074 8.280,20.310 9.324,20.797 10.755 C 20.897 11.050,21.000 11.680,21.000 12.000 C 21.000 12.322,20.897 12.951,20.796 13.245 C 20.321 14.632,19.195 15.628,17.773 15.917 C 15.563 16.368,13.396 14.845,13.058 12.605 C 12.986 12.121,12.986 11.879,13.058 11.395 C 13.314 9.698,14.675 8.324,16.358 8.061 C 16.816 7.990,17.144 7.989,17.605 8.058 " stroke="none" fill-rule="evenodd" fill="black"></path></svg>