<svg width="24" height="24" viewBox="0 0 24 24" fill="none" xmlns="http://www.w3.org/2000/svg"><path d="M7.540 5.025 C 6.532 5.111,5.691 5.335,4.910 5.726 C 2.838 6.762,1.448 8.666,1.074 10.980 C 1.008 11.393,1.008 12.607,1.074 13.020 C 1.575 16.119,3.910 18.448,7.000 18.927 C 7.495 19.004,16.504 19.004,17.000 18.927 C 20.086 18.449,22.426 16.116,22.926 13.020 C 22.954 12.844,22.977 12.385,22.977 12.000 C 22.977 11.056,22.876 10.462,22.573 9.620 C 21.794 7.457,19.946 5.780,17.720 5.217 C 16.965 5.027,17.051 5.030,12.240 5.020 C 9.743 5.015,7.628 5.018,7.540 5.025 M16.552 7.043 C 18.413 7.246,20.001 8.479,20.680 10.248 C 21.092 11.320,21.085 12.720,20.663 13.793 C 20.120 15.174,18.991 16.256,17.600 16.732 C 16.842 16.991,17.087 16.980,12.000 16.980 C 6.913 16.980,7.158 16.991,6.400 16.732 C 4.808 16.188,3.580 14.864,3.161 13.240 C 2.920 12.307,2.983 11.125,3.320 10.248 C 3.990 8.503,5.588 7.249,7.400 7.044 C 7.855 6.993,16.084 6.991,16.552 7.043 M7.440 8.545 C 5.952 8.831,4.819 9.939,4.559 11.364 C 4.499 11.692,4.499 12.308,4.559 12.636 C 4.813 14.027,5.972 15.186,7.364 15.441 C 7.717 15.506,8.362 15.498,8.710 15.425 C 10.055 15.142,11.142 14.055,11.425 12.710 C 11.498 12.362,11.506 11.717,11.441 11.364 C 11.206 10.085,10.222 9.006,8.953 8.637 C 8.731 8.572,8.524 8.549,8.100 8.539 C 7.792 8.532,7.495 8.535,7.440 8.545 M8.653 10.658 C 8.925 10.796,9.226 11.103,9.362 11.380 C 9.447 11.554,9.460 11.635,9.460 12.000 C 9.460 12.384,9.450 12.440,9.344 12.648 C 9.115 13.100,8.691 13.413,8.218 13.477 C 7.563 13.566,6.958 13.245,6.656 12.648 C 6.550 12.440,6.540 12.384,6.540 12.000 C 6.540 11.635,6.553 11.554,6.638 11.380 C 6.811 11.028,7.153 10.716,7.516 10.577 C 7.611 10.540,7.789 10.525,8.042 10.532 C 8.371 10.541,8.455 10.558,8.653 10.658 " stroke="none" fill-rule="evenodd" fill="black"></path></svg>