<svg width="24" height="24" viewBox="0 0 24 24" fill="none" xmlns="http://www.w3.org/2000/svg"><path d="M6.380 6.043 C 3.784 6.299,1.681 8.215,1.114 10.840 C 0.984 11.446,0.984 12.554,1.114 13.160 C 1.638 15.587,3.401 17.350,5.840 17.887 L 6.260 17.980 12.000 17.980 L 17.740 17.980 18.160 17.887 C 19.384 17.618,20.342 17.107,21.195 16.269 C 22.068 15.412,22.620 14.397,22.885 13.160 C 22.960 12.810,22.975 12.617,22.975 12.000 C 22.975 11.383,22.960 11.190,22.885 10.840 C 22.626 9.631,22.109 8.660,21.269 7.805 C 20.258 6.775,19.009 6.180,17.564 6.039 C 17.100 5.994,6.840 5.997,6.380 6.043 M7.605 8.058 C 9.074 8.280,10.310 9.324,10.797 10.755 C 10.897 11.050,11.000 11.680,11.000 12.000 C 11.000 12.322,10.897 12.951,10.796 13.245 C 10.321 14.632,9.195 15.628,7.773 15.917 C 5.563 16.368,3.396 14.845,3.058 12.605 C 2.986 12.121,2.986 11.879,3.058 11.395 C 3.314 9.698,4.675 8.324,6.358 8.061 C 6.816 7.990,7.144 7.989,7.605 8.058 M17.605 8.058 C 19.074 8.280,20.310 9.324,20.797 10.755 C 20.897 11.050,21.000 11.680,21.000 12.000 C 21.000 12.322,20.897 12.951,20.796 13.245 C 20.321 14.632,19.195 15.628,17.773 15.917 C 17.385 15.996,17.241 16.000,14.424 16.000 L 11.481 16.000 11.705 15.710 C 12.308 14.931,12.675 14.137,12.885 13.160 C 12.960 12.810,12.975 12.617,12.975 12.000 C 12.975 11.383,12.960 11.190,12.885 10.840 C 12.675 9.863,12.308 9.069,11.705 8.290 L 11.481 8.000 14.350 8.000 C 16.653 8.000,17.296 8.012,17.605 8.058 " stroke="none" fill-rule="evenodd" fill="black"></path></svg>