<svg width="24" height="24" viewBox="0 0 24 24" fill="none" xmlns="http://www.w3.org/2000/svg"><path d="M6.380 6.043 C 3.784 6.299,1.681 8.215,1.114 10.840 C 0.984 11.446,0.984 12.554,1.114 13.160 C 1.638 15.587,3.417 17.365,5.840 17.885 C 6.446 18.015,7.554 18.015,8.160 17.885 C 8.865 17.734,9.738 17.390,10.140 17.105 L 10.260 17.020 14.480 16.998 C 18.335 16.978,18.726 16.970,19.000 16.905 C 20.541 16.540,21.756 15.614,22.433 14.288 C 22.838 13.494,22.980 12.899,22.980 12.000 C 22.980 11.101,22.838 10.506,22.433 9.713 C 21.794 8.461,20.604 7.510,19.240 7.162 C 18.656 7.012,18.269 7.000,14.237 7.000 L 10.310 7.000 10.085 6.864 C 8.970 6.193,7.703 5.912,6.380 6.043 M7.605 8.058 C 9.074 8.280,10.310 9.324,10.797 10.755 C 10.897 11.050,11.000 11.680,11.000 12.000 C 11.000 12.322,10.897 12.951,10.796 13.245 C 10.321 14.632,9.195 15.628,7.773 15.917 C 5.563 16.368,3.396 14.845,3.058 12.605 C 2.986 12.121,2.986 11.879,3.058 11.395 C 3.314 9.698,4.675 8.324,6.358 8.061 C 6.816 7.990,7.144 7.989,7.605 8.058 M18.861 9.122 C 19.824 9.424,20.585 10.187,20.875 11.139 C 20.958 11.412,20.973 11.542,20.973 12.000 C 20.973 12.458,20.958 12.588,20.875 12.861 C 20.585 13.811,19.843 14.557,18.860 14.886 L 18.580 14.979 15.389 14.991 L 12.198 15.003 12.373 14.652 C 12.595 14.207,12.770 13.697,12.885 13.160 C 13.015 12.554,13.015 11.446,12.885 10.840 C 12.770 10.303,12.595 9.793,12.373 9.348 L 12.198 8.997 15.369 9.009 L 18.540 9.021 18.861 9.122 " stroke="none" fill-rule="evenodd" fill="black"></path></svg>