<svg width="24" height="24" viewBox="0 0 24 24" fill="none" xmlns="http://www.w3.org/2000/svg"><path d="M2.661 1.067 C 2.490 1.119,2.375 1.214,1.831 1.751 C 1.153 2.421,1.037 2.588,1.008 2.942 C 0.993 3.123,1.055 3.341,1.537 4.790 C 2.129 6.569,2.177 6.673,2.508 6.867 L 2.700 6.980 4.140 6.991 L 5.580 7.003 7.330 8.751 L 9.079 10.499 5.806 13.780 C 3.669 15.922,2.480 17.142,2.380 17.297 C 2.018 17.856,1.855 18.477,1.893 19.158 C 1.905 19.390,1.945 19.688,1.981 19.820 C 2.259 20.844,3.156 21.741,4.180 22.019 C 4.312 22.055,4.610 22.095,4.842 22.107 C 5.523 22.145,6.145 21.982,6.703 21.620 C 6.854 21.522,7.854 20.555,9.470 18.944 L 12.000 16.422 14.530 18.944 C 16.146 20.555,17.146 21.522,17.297 21.620 C 17.855 21.982,18.477 22.145,19.158 22.107 C 19.390 22.095,19.688 22.055,19.820 22.019 C 20.844 21.741,21.741 20.844,22.019 19.820 C 22.185 19.210,22.129 18.383,21.884 17.797 C 21.675 17.298,21.497 17.092,19.832 15.418 L 18.198 13.775 18.429 13.704 C 20.487 13.068,22.137 11.382,22.739 9.301 C 23.057 8.202,23.078 7.038,22.801 5.940 C 22.568 5.018,22.363 4.657,21.980 4.497 C 21.767 4.408,21.377 4.410,21.177 4.502 C 21.074 4.548,20.497 5.094,19.510 6.076 L 17.999 7.578 17.459 7.039 L 16.920 6.501 18.498 4.920 C 20.212 3.205,20.251 3.156,20.251 2.737 C 20.251 2.446,20.094 2.120,19.879 1.964 C 19.650 1.798,18.969 1.472,18.580 1.343 C 17.292 0.913,15.835 0.901,14.541 1.308 C 12.495 1.951,10.860 3.629,10.261 5.699 C 10.028 6.506,9.946 7.500,10.049 8.272 L 10.104 8.683 8.554 7.134 L 7.004 5.584 6.992 4.142 L 6.980 2.700 6.867 2.508 C 6.805 2.403,6.683 2.265,6.596 2.202 C 6.387 2.050,3.249 0.999,3.018 1.003 C 2.931 1.004,2.771 1.033,2.661 1.067 M17.084 3.045 C 17.269 3.069,17.427 3.096,17.437 3.105 C 17.446 3.113,16.969 3.610,16.376 4.210 C 15.513 5.084,15.272 5.351,15.164 5.555 C 14.990 5.886,14.921 6.154,14.921 6.500 C 14.921 6.984,15.057 7.346,15.401 7.780 C 15.687 8.141,16.682 9.097,16.954 9.273 C 17.581 9.678,18.422 9.676,19.053 9.268 C 19.191 9.179,19.676 8.737,20.150 8.267 C 21.104 7.323,21.033 7.344,20.957 8.027 C 20.699 10.345,18.632 12.105,16.305 11.988 C 16.060 11.976,15.644 11.920,15.380 11.863 C 14.830 11.746,14.566 11.736,14.204 11.822 C 13.621 11.959,13.791 11.805,9.520 16.062 C 5.918 19.653,5.563 19.995,5.383 20.055 C 4.833 20.237,4.260 20.004,4.000 19.495 C 3.871 19.243,3.860 18.787,3.977 18.540 C 4.028 18.431,5.309 17.120,7.961 14.460 C 11.738 10.671,11.874 10.530,12.015 10.240 C 12.266 9.723,12.283 9.436,12.118 8.530 C 12.007 7.923,11.983 7.472,12.038 7.002 C 12.329 4.496,14.600 2.715,17.084 3.045 M4.150 3.443 L 5.000 3.727 5.000 4.363 L 5.000 5.000 4.363 5.000 L 3.727 5.000 3.440 4.139 C 3.208 3.443,3.162 3.266,3.201 3.219 C 3.228 3.186,3.261 3.160,3.275 3.160 C 3.289 3.160,3.682 3.287,4.150 3.443 M15.140 13.861 L 15.500 13.926 17.706 16.128 C 19.263 17.684,19.939 18.385,20.006 18.516 C 20.142 18.782,20.139 19.223,20.000 19.495 C 19.723 20.038,19.056 20.270,18.519 20.009 C 18.390 19.946,17.660 19.241,15.880 17.461 L 13.421 15.000 14.040 14.380 C 14.431 13.989,14.681 13.767,14.719 13.778 C 14.753 13.788,14.942 13.825,15.140 13.861 " stroke="none" fill-rule="evenodd" fill="black"></path></svg>