<svg width="24" height="24" viewBox="0 0 24 24" fill="none" xmlns="http://www.w3.org/2000/svg"><path d="M7.695 1.057 C 7.466 1.129,7.256 1.299,7.128 1.516 C 7.037 1.672,7.020 1.746,7.020 2.000 C 7.020 2.256,7.036 2.328,7.131 2.489 C 7.192 2.592,7.304 2.725,7.381 2.783 C 7.654 2.991,7.700 2.996,9.410 2.998 L 11.000 3.000 11.000 3.495 L 11.000 3.991 8.870 4.011 C 6.605 4.032,6.251 4.058,5.680 4.246 C 4.534 4.622,3.576 5.579,3.245 6.680 C 3.016 7.439,3.000 7.788,3.000 12.000 C 3.000 15.579,3.018 16.298,3.124 16.840 C 3.357 18.043,4.093 19.011,5.192 19.561 L 5.517 19.723 5.012 20.739 C 4.539 21.690,4.507 21.769,4.507 21.987 C 4.507 22.416,4.765 22.784,5.174 22.940 C 5.527 23.075,5.974 22.956,6.236 22.659 C 6.306 22.579,6.646 21.948,6.992 21.257 L 7.619 20.000 12.000 20.000 L 16.381 20.000 17.008 21.257 C 17.354 21.948,17.694 22.579,17.764 22.659 C 18.365 23.343,19.492 22.905,19.493 21.987 C 19.493 21.769,19.461 21.690,18.988 20.739 L 18.483 19.723 18.808 19.561 C 19.907 19.011,20.643 18.043,20.876 16.840 C 20.982 16.298,21.000 15.579,21.000 12.000 C 21.000 7.788,20.984 7.439,20.755 6.680 C 20.424 5.581,19.464 4.621,18.320 4.246 C 17.749 4.058,17.395 4.032,15.130 4.011 L 13.000 3.991 13.000 3.495 L 13.000 3.000 14.590 2.998 C 16.300 2.996,16.346 2.991,16.619 2.783 C 16.696 2.725,16.808 2.592,16.869 2.489 C 16.964 2.328,16.980 2.256,16.980 2.000 C 16.980 1.746,16.963 1.672,16.872 1.516 C 16.740 1.293,16.533 1.128,16.290 1.055 C 16.029 0.976,7.946 0.979,7.695 1.057 M17.492 6.091 C 17.893 6.188,18.109 6.309,18.400 6.600 C 18.923 7.123,18.959 7.294,18.988 9.390 L 19.011 11.000 12.000 11.000 L 4.989 11.000 5.012 9.390 C 5.035 7.673,5.060 7.429,5.248 7.051 C 5.371 6.805,5.654 6.496,5.903 6.336 C 6.173 6.163,6.494 6.075,6.980 6.039 C 7.200 6.023,9.594 6.013,12.300 6.018 C 16.701 6.025,17.249 6.033,17.492 6.091 M18.988 14.610 C 18.959 16.706,18.923 16.877,18.400 17.401 C 18.101 17.701,17.820 17.851,17.418 17.928 C 17.011 18.004,6.989 18.004,6.582 17.927 C 6.170 17.850,5.898 17.704,5.600 17.403 C 5.076 16.874,5.041 16.706,5.012 14.610 L 4.989 13.000 12.000 13.000 L 19.011 13.000 18.988 14.610 M8.174 14.039 C 7.750 14.129,7.329 14.477,7.132 14.900 C 7.035 15.107,7.020 15.190,7.020 15.500 C 7.020 15.811,7.035 15.894,7.133 16.104 C 7.276 16.413,7.585 16.721,7.900 16.868 C 8.107 16.965,8.190 16.980,8.500 16.980 C 8.810 16.980,8.893 16.965,9.100 16.868 C 9.415 16.721,9.724 16.413,9.867 16.104 C 9.965 15.894,9.980 15.811,9.980 15.500 C 9.980 15.189,9.965 15.106,9.867 14.896 C 9.727 14.592,9.415 14.278,9.119 14.143 C 8.870 14.030,8.441 13.982,8.174 14.039 M15.174 14.039 C 14.750 14.129,14.329 14.477,14.132 14.900 C 14.035 15.107,14.020 15.190,14.020 15.500 C 14.020 15.811,14.035 15.894,14.133 16.104 C 14.276 16.413,14.585 16.721,14.900 16.868 C 15.107 16.965,15.190 16.980,15.500 16.980 C 15.810 16.980,15.893 16.965,16.100 16.868 C 16.415 16.721,16.724 16.413,16.867 16.104 C 16.965 15.894,16.980 15.811,16.980 15.500 C 16.980 15.189,16.965 15.106,16.867 14.896 C 16.727 14.592,16.415 14.278,16.119 14.143 C 15.870 14.030,15.441 13.982,15.174 14.039 M9.240 21.037 C 8.792 21.175,8.512 21.546,8.512 22.000 C 8.512 22.405,8.719 22.724,9.100 22.905 L 9.300 22.999 12.000 22.999 L 14.700 22.999 14.900 22.905 C 15.281 22.724,15.488 22.405,15.488 22.000 C 15.488 21.615,15.293 21.297,14.940 21.106 C 14.781 21.020,14.765 21.020,12.060 21.013 C 10.564 21.009,9.295 21.020,9.240 21.037 " stroke="none" fill-rule="evenodd" fill="black"></path></svg>