<svg width="24" height="24" viewBox="0 0 24 24" fill="none" xmlns="http://www.w3.org/2000/svg"><path d="M7.640 1.047 C 7.475 1.068,7.184 1.137,6.994 1.200 C 6.498 1.366,4.931 2.160,4.772 2.326 C 4.598 2.508,4.508 2.737,4.508 3.000 C 4.508 3.261,4.582 3.451,4.761 3.655 C 4.964 3.886,5.171 3.977,5.500 3.978 C 5.777 3.980,5.791 3.975,6.700 3.530 C 7.609 3.085,7.853 3.000,8.216 3.000 L 8.381 3.000 8.870 3.980 C 9.140 4.519,9.360 4.967,9.360 4.974 C 9.360 4.982,8.771 4.999,8.050 5.012 C 6.339 5.044,5.844 5.119,5.180 5.451 C 4.089 5.996,3.357 6.961,3.124 8.160 C 3.018 8.702,3.000 9.421,3.000 13.000 C 3.000 16.579,3.018 17.298,3.124 17.840 C 3.357 19.042,4.093 20.011,5.192 20.561 L 5.516 20.723 5.272 21.220 C 4.991 21.794,4.952 21.996,5.061 22.322 C 5.189 22.707,5.594 23.000,6.000 23.000 C 6.243 23.000,6.521 22.881,6.697 22.702 C 6.812 22.586,6.973 22.308,7.239 21.768 L 7.618 21.000 12.000 21.000 L 16.382 21.000 16.761 21.768 C 17.027 22.308,17.188 22.586,17.303 22.702 C 17.479 22.881,17.757 23.000,18.000 23.000 C 18.406 23.000,18.811 22.707,18.939 22.322 C 19.048 21.996,19.009 21.794,18.728 21.220 L 18.484 20.723 18.808 20.561 C 19.907 20.011,20.643 19.042,20.876 17.840 C 20.982 17.298,21.000 16.579,21.000 13.000 C 21.000 8.788,20.984 8.439,20.755 7.680 C 20.424 6.581,19.464 5.621,18.320 5.246 C 17.836 5.087,17.332 5.037,15.950 5.012 C 15.230 4.999,14.640 4.982,14.640 4.974 C 14.640 4.967,14.860 4.519,15.130 3.980 L 15.619 3.000 15.784 3.000 C 16.147 3.000,16.391 3.085,17.300 3.530 C 18.209 3.975,18.223 3.980,18.500 3.978 C 18.829 3.977,19.036 3.886,19.239 3.655 C 19.418 3.451,19.492 3.261,19.492 3.000 C 19.492 2.737,19.402 2.508,19.228 2.326 C 19.068 2.159,17.499 1.365,17.006 1.201 C 16.816 1.138,16.498 1.067,16.300 1.043 C 15.851 0.990,8.077 0.993,7.640 1.047 M13.360 3.020 C 13.360 3.031,13.140 3.481,12.870 4.020 L 12.381 5.000 12.000 5.000 L 11.619 5.000 11.130 4.020 C 10.860 3.481,10.640 3.031,10.640 3.020 C 10.640 3.009,11.252 3.000,12.000 3.000 C 12.748 3.000,13.360 3.009,13.360 3.020 M17.492 7.091 C 17.893 7.188,18.109 7.309,18.400 7.600 C 18.923 8.123,18.959 8.294,18.988 10.390 L 19.011 12.000 12.000 12.000 L 4.989 12.000 5.012 10.390 C 5.035 8.673,5.060 8.429,5.248 8.051 C 5.371 7.805,5.654 7.496,5.903 7.336 C 6.173 7.163,6.494 7.075,6.980 7.039 C 7.200 7.023,9.594 7.013,12.300 7.018 C 16.701 7.025,17.249 7.033,17.492 7.091 M18.988 15.610 C 18.959 17.706,18.923 17.877,18.400 18.401 C 18.101 18.701,17.820 18.851,17.418 18.928 C 17.011 19.004,6.989 19.004,6.582 18.927 C 6.170 18.850,5.898 18.704,5.600 18.403 C 5.076 17.874,5.041 17.706,5.012 15.610 L 4.989 14.000 12.000 14.000 L 19.011 14.000 18.988 15.610 M8.174 15.039 C 7.750 15.129,7.329 15.477,7.132 15.900 C 7.035 16.107,7.020 16.190,7.020 16.500 C 7.020 16.811,7.035 16.894,7.133 17.104 C 7.276 17.413,7.585 17.721,7.900 17.868 C 8.107 17.965,8.190 17.980,8.500 17.980 C 8.810 17.980,8.893 17.965,9.100 17.868 C 9.415 17.721,9.724 17.413,9.867 17.104 C 9.965 16.894,9.980 16.811,9.980 16.500 C 9.980 16.189,9.965 16.106,9.867 15.896 C 9.727 15.592,9.415 15.278,9.119 15.143 C 8.870 15.030,8.441 14.982,8.174 15.039 M15.174 15.039 C 14.750 15.129,14.329 15.477,14.132 15.900 C 14.035 16.107,14.020 16.190,14.020 16.500 C 14.020 16.811,14.035 16.894,14.133 17.104 C 14.276 17.413,14.585 17.721,14.900 17.868 C 15.107 17.965,15.190 17.980,15.500 17.980 C 15.810 17.980,15.893 17.965,16.100 17.868 C 16.415 17.721,16.724 17.413,16.867 17.104 C 16.965 16.894,16.980 16.811,16.980 16.500 C 16.980 16.189,16.965 16.106,16.867 15.896 C 16.727 15.592,16.415 15.278,16.119 15.143 C 15.870 15.030,15.441 14.982,15.174 15.039 " stroke="none" fill-rule="evenodd" fill="black"></path></svg>