<svg width="24" height="24" viewBox="0 0 24 24" fill="none" xmlns="http://www.w3.org/2000/svg"><path d="M3.686 2.039 C 2.865 2.166,2.233 2.765,2.061 3.581 C 1.976 3.978,1.976 6.022,2.061 6.419 C 2.147 6.827,2.298 7.104,2.597 7.403 C 2.913 7.719,3.194 7.864,3.658 7.952 L 4.000 8.017 4.000 12.007 L 4.000 15.996 3.850 16.019 C 3.241 16.111,2.956 16.244,2.597 16.599 C 2.075 17.117,2.001 17.415,2.001 19.000 C 2.001 20.584,2.075 20.881,2.597 21.403 C 3.119 21.925,3.416 21.999,5.000 21.999 C 6.582 21.999,6.873 21.926,7.403 21.401 C 7.719 21.087,7.864 20.808,7.952 20.342 L 8.017 20.000 12.000 20.000 L 15.983 20.000 16.048 20.342 C 16.136 20.806,16.281 21.087,16.597 21.403 C 17.119 21.925,17.416 21.999,19.000 21.999 C 20.582 21.999,20.876 21.925,21.401 21.401 C 21.925 20.876,21.999 20.582,21.999 19.000 C 21.999 17.418,21.926 17.124,21.401 16.599 C 21.045 16.244,20.761 16.112,20.150 16.019 L 20.000 15.996 20.000 12.007 L 20.000 8.017 20.342 7.952 C 20.798 7.866,21.085 7.717,21.401 7.401 C 21.699 7.102,21.855 6.818,21.940 6.419 C 22.024 6.022,22.024 3.978,21.939 3.581 C 21.791 2.881,21.332 2.364,20.635 2.112 C 20.387 2.023,20.341 2.020,19.000 2.020 C 17.659 2.020,17.613 2.023,17.365 2.112 C 17.022 2.236,16.739 2.423,16.512 2.676 C 16.263 2.952,16.127 3.241,16.048 3.658 L 15.983 4.000 12.000 4.000 L 8.017 4.000 7.952 3.658 C 7.809 2.903,7.353 2.368,6.635 2.114 C 6.394 2.029,6.312 2.024,5.140 2.015 C 4.458 2.010,3.804 2.021,3.686 2.039 M6.000 5.000 L 6.000 6.000 5.000 6.000 L 4.000 6.000 4.000 5.000 L 4.000 4.000 5.000 4.000 L 6.000 4.000 6.000 5.000 M20.000 5.000 L 20.000 6.000 19.000 6.000 L 18.000 6.000 18.000 5.000 L 18.000 4.000 19.000 4.000 L 20.000 4.000 20.000 5.000 M16.048 6.342 C 16.136 6.806,16.281 7.087,16.597 7.403 C 16.913 7.719,17.194 7.864,17.658 7.952 L 18.000 8.017 18.000 12.007 L 18.000 15.996 17.850 16.019 C 17.241 16.111,16.956 16.244,16.597 16.599 C 16.281 16.913,16.136 17.192,16.048 17.658 L 15.983 18.000 12.000 18.000 L 8.017 18.000 7.952 17.658 C 7.866 17.202,7.717 16.915,7.401 16.599 C 7.045 16.244,6.761 16.112,6.150 16.019 L 6.000 15.996 6.000 12.007 L 6.000 8.017 6.342 7.952 C 6.798 7.866,7.085 7.717,7.401 7.401 C 7.717 7.085,7.866 6.798,7.952 6.342 L 8.017 6.000 12.000 6.000 L 15.983 6.000 16.048 6.342 M6.000 19.000 L 6.000 20.000 5.000 20.000 L 4.000 20.000 4.000 19.000 L 4.000 18.000 5.000 18.000 L 6.000 18.000 6.000 19.000 M20.000 19.000 L 20.000 20.000 19.000 20.000 L 18.000 20.000 18.000 19.000 L 18.000 18.000 19.000 18.000 L 20.000 18.000 20.000 19.000 " stroke="none" fill-rule="evenodd" fill="black"></path></svg>