<svg width="24" height="24" viewBox="0 0 24 24" fill="none" xmlns="http://www.w3.org/2000/svg"><path d="M7.695 2.057 C 7.466 2.129,7.256 2.299,7.128 2.516 C 7.025 2.692,7.019 2.728,7.007 3.350 L 6.993 4.000 4.443 4.000 C 1.676 4.000,1.672 4.000,1.382 4.221 C 1.302 4.282,1.187 4.415,1.128 4.516 C 1.037 4.672,1.020 4.746,1.020 5.000 C 1.020 5.256,1.036 5.328,1.131 5.489 C 1.256 5.702,1.449 5.864,1.670 5.943 C 1.792 5.986,2.622 5.997,6.054 5.998 C 9.927 6.000,10.286 6.005,10.264 6.064 C 10.250 6.100,10.193 6.311,10.136 6.534 C 9.876 7.562,9.432 8.731,8.904 9.775 C 8.444 10.684,8.004 11.406,7.933 11.366 C 7.859 11.325,7.186 10.588,6.937 10.276 C 6.618 9.877,6.309 9.384,6.038 8.845 C 5.769 8.310,5.634 8.164,5.307 8.056 C 4.802 7.888,4.233 8.171,4.061 8.675 C 3.943 9.020,3.978 9.192,4.298 9.849 C 4.706 10.687,5.409 11.644,6.254 12.509 L 6.770 13.038 6.448 13.392 C 5.108 14.859,3.769 15.903,1.960 16.890 C 1.307 17.247,1.270 17.274,1.133 17.508 C 0.862 17.970,1.034 18.589,1.511 18.869 C 1.670 18.963,1.745 18.980,1.987 18.980 C 2.265 18.980,2.293 18.970,2.807 18.704 C 4.777 17.682,6.589 16.260,8.093 14.554 L 8.363 14.247 8.631 14.410 C 9.108 14.700,9.708 14.971,9.916 14.991 C 10.622 15.058,11.170 14.354,10.939 13.675 C 10.839 13.383,10.686 13.237,10.234 13.003 C 10.006 12.885,9.763 12.755,9.693 12.713 L 9.567 12.638 9.943 12.034 C 10.387 11.321,11.064 9.968,11.372 9.180 C 11.670 8.416,11.957 7.516,12.164 6.690 L 12.337 6.000 13.258 5.998 C 14.250 5.996,14.363 5.978,14.619 5.783 C 14.696 5.725,14.808 5.592,14.869 5.489 C 14.964 5.328,14.980 5.256,14.980 5.000 C 14.980 4.746,14.963 4.672,14.872 4.516 C 14.813 4.415,14.698 4.282,14.618 4.221 C 14.328 4.000,14.324 4.000,11.557 4.000 L 9.007 4.000 8.993 3.350 C 8.981 2.728,8.975 2.692,8.872 2.516 C 8.628 2.101,8.150 1.915,7.695 2.057 M16.091 9.216 C 15.666 9.355,15.356 9.636,15.109 10.110 C 14.844 10.615,10.092 20.579,10.041 20.736 C 9.929 21.078,10.082 21.556,10.375 21.779 C 10.821 22.119,11.481 22.037,11.792 21.603 C 11.851 21.520,12.269 20.675,12.720 19.726 L 13.540 18.001 16.500 18.001 L 19.460 18.001 20.280 19.726 C 20.731 20.675,21.149 21.520,21.208 21.603 C 21.445 21.935,21.911 22.076,22.321 21.940 C 22.828 21.771,23.120 21.189,22.945 20.695 C 22.886 20.528,18.178 10.666,17.911 10.149 C 17.579 9.507,17.153 9.198,16.567 9.174 C 16.380 9.166,16.194 9.182,16.091 9.216 M17.566 14.052 C 18.069 15.103,18.480 15.972,18.480 15.982 C 18.480 15.992,17.587 16.000,16.496 16.000 C 14.925 16.000,14.515 15.990,14.531 15.950 C 14.541 15.923,14.987 14.985,15.522 13.867 L 16.495 11.833 16.574 11.987 C 16.617 12.071,17.064 13.000,17.566 14.052 " stroke="none" fill-rule="evenodd" fill="black"></path></svg>