<svg width="24" height="24" viewBox="0 0 24 24" fill="none" xmlns="http://www.w3.org/2000/svg"><path d="M6.695 1.057 C 6.466 1.129,6.256 1.299,6.128 1.516 C 6.037 1.672,6.020 1.746,6.020 2.000 C 6.020 2.256,6.036 2.328,6.131 2.489 C 6.256 2.702,6.449 2.864,6.670 2.943 C 6.878 3.017,8.122 3.017,8.330 2.943 C 8.551 2.864,8.744 2.702,8.869 2.489 C 8.964 2.328,8.980 2.256,8.980 2.000 C 8.980 1.746,8.963 1.672,8.872 1.516 C 8.740 1.293,8.533 1.128,8.290 1.055 C 8.050 0.983,6.928 0.984,6.695 1.057 M1.695 4.057 C 1.051 4.258,0.799 5.040,1.198 5.591 C 1.263 5.681,1.403 5.805,1.508 5.867 L 1.700 5.980 5.910 6.000 L 10.120 6.020 9.696 6.660 C 9.300 7.257,9.212 7.360,8.387 8.189 L 7.503 9.078 6.521 8.105 C 5.671 7.262,5.514 7.124,5.343 7.066 C 4.864 6.905,4.382 7.084,4.128 7.516 C 4.037 7.672,4.020 7.746,4.020 8.000 C 4.020 8.254,4.036 8.328,4.127 8.480 C 4.186 8.579,4.650 9.074,5.157 9.579 L 6.080 10.499 4.624 11.959 C 3.824 12.763,3.135 13.483,3.095 13.560 C 3.043 13.659,3.021 13.788,3.021 14.000 C 3.020 14.258,3.036 14.327,3.133 14.492 C 3.263 14.714,3.502 14.901,3.736 14.965 C 3.939 15.019,4.267 14.989,4.445 14.899 C 4.519 14.862,5.237 14.176,6.041 13.376 L 7.501 11.920 8.421 12.843 C 8.926 13.350,9.421 13.814,9.520 13.873 C 9.672 13.964,9.746 13.980,10.000 13.980 C 10.257 13.980,10.327 13.964,10.492 13.867 C 10.714 13.737,10.901 13.498,10.965 13.264 C 11.019 13.061,10.989 12.733,10.899 12.555 C 10.862 12.481,10.401 11.988,9.876 11.459 L 8.921 10.499 9.841 9.579 L 10.761 8.660 11.647 7.330 L 12.533 6.000 13.356 5.998 C 14.243 5.996,14.368 5.975,14.619 5.783 C 14.696 5.725,14.808 5.592,14.869 5.489 C 14.964 5.328,14.980 5.256,14.980 5.000 C 14.980 4.746,14.963 4.672,14.872 4.516 C 14.740 4.293,14.533 4.128,14.290 4.055 C 14.028 3.976,1.947 3.978,1.695 4.057 M16.091 9.216 C 15.666 9.355,15.356 9.636,15.109 10.110 C 14.844 10.615,10.092 20.579,10.041 20.736 C 9.929 21.078,10.082 21.556,10.375 21.779 C 10.821 22.119,11.481 22.037,11.792 21.603 C 11.851 21.520,12.269 20.675,12.720 19.726 L 13.540 18.001 16.500 18.001 L 19.460 18.001 20.280 19.726 C 20.731 20.675,21.149 21.520,21.208 21.603 C 21.445 21.935,21.911 22.076,22.321 21.940 C 22.828 21.771,23.120 21.189,22.945 20.695 C 22.886 20.528,18.178 10.666,17.911 10.149 C 17.579 9.507,17.153 9.198,16.567 9.174 C 16.380 9.166,16.194 9.182,16.091 9.216 M17.566 14.052 C 18.069 15.103,18.480 15.972,18.480 15.982 C 18.480 15.992,17.587 16.000,16.496 16.000 C 14.925 16.000,14.515 15.990,14.531 15.950 C 14.541 15.923,14.987 14.985,15.522 13.867 L 16.495 11.833 16.574 11.987 C 16.617 12.071,17.064 13.000,17.566 14.052 " stroke="none" fill-rule="evenodd" fill="black"></path></svg>