<svg width="24" height="24" viewBox="0 0 24 24" fill="none" xmlns="http://www.w3.org/2000/svg"><path d="M9.749 1.045 C 8.771 1.139,8.037 1.557,7.527 2.310 C 7.162 2.848,7.044 3.300,7.012 4.290 L 6.989 5.000 4.941 5.000 C 2.718 5.000,2.666 5.004,2.382 5.221 C 2.302 5.282,2.187 5.415,2.128 5.516 C 2.037 5.672,2.020 5.746,2.020 6.000 C 2.020 6.256,2.036 6.328,2.131 6.489 C 2.256 6.702,2.449 6.864,2.670 6.943 C 2.768 6.978,3.023 6.997,3.410 6.998 L 4.000 7.000 4.000 12.870 C 4.000 19.368,4.005 19.524,4.245 20.320 C 4.577 21.422,5.578 22.423,6.680 22.755 C 7.439 22.984,7.788 23.000,12.000 23.000 C 16.212 23.000,16.561 22.984,17.320 22.755 C 18.422 22.423,19.423 21.422,19.755 20.320 C 19.995 19.524,20.000 19.368,20.000 12.870 L 20.000 7.000 20.590 6.998 C 20.977 6.997,21.232 6.978,21.330 6.943 C 21.551 6.864,21.744 6.702,21.869 6.489 C 21.964 6.328,21.980 6.256,21.980 6.000 C 21.980 5.746,21.963 5.672,21.872 5.516 C 21.813 5.415,21.698 5.282,21.618 5.221 C 21.334 5.004,21.282 5.000,19.060 5.000 L 17.012 5.000 16.988 4.290 C 16.954 3.296,16.837 2.846,16.473 2.310 C 16.184 1.882,15.811 1.560,15.329 1.321 C 15.019 1.168,14.706 1.091,14.180 1.042 C 13.665 0.993,10.261 0.995,9.749 1.045 M14.374 3.076 C 14.576 3.142,14.862 3.430,14.918 3.626 C 14.942 3.711,14.973 4.054,14.987 4.390 L 15.012 5.000 12.006 5.000 L 9.000 5.000 9.000 4.630 C 9.001 4.024,9.063 3.610,9.179 3.434 C 9.333 3.202,9.547 3.080,9.866 3.041 C 10.310 2.987,14.191 3.017,14.374 3.076 M17.989 13.110 C 17.974 19.767,17.984 19.476,17.752 19.952 C 17.626 20.211,17.190 20.638,16.918 20.768 C 16.477 20.980,16.468 20.980,12.000 20.980 C 7.539 20.980,7.527 20.979,7.082 20.771 C 6.812 20.643,6.377 20.217,6.248 19.952 C 6.016 19.476,6.026 19.767,6.011 13.110 L 5.996 7.000 12.000 7.000 L 18.004 7.000 17.989 13.110 M9.600 10.584 C 9.399 10.671,9.205 10.869,9.095 11.100 L 9.001 11.300 9.001 14.000 L 9.001 16.700 9.095 16.900 C 9.276 17.281,9.595 17.488,10.000 17.488 C 10.405 17.488,10.724 17.281,10.905 16.900 L 10.999 16.700 10.999 14.000 L 10.999 11.300 10.905 11.100 C 10.793 10.865,10.599 10.669,10.391 10.582 C 10.203 10.503,9.783 10.504,9.600 10.584 M13.600 10.584 C 13.399 10.671,13.205 10.869,13.095 11.100 L 13.001 11.300 13.001 14.000 L 13.001 16.700 13.095 16.900 C 13.276 17.281,13.595 17.488,14.000 17.488 C 14.405 17.488,14.724 17.281,14.905 16.900 L 14.999 16.700 14.999 14.000 L 14.999 11.300 14.905 11.100 C 14.793 10.865,14.599 10.669,14.391 10.582 C 14.203 10.503,13.783 10.504,13.600 10.584 " stroke="none" fill-rule="evenodd" fill="black"></path></svg>