<svg width="24" height="24" viewBox="0 0 24 24" fill="none" xmlns="http://www.w3.org/2000/svg"><path d="M8.695 2.057 C 8.466 2.129,8.256 2.299,8.128 2.516 C 8.037 2.672,8.020 2.746,8.020 3.000 C 8.020 3.256,8.036 3.328,8.131 3.489 C 8.256 3.702,8.449 3.864,8.670 3.943 C 8.891 4.022,15.109 4.022,15.330 3.943 C 15.551 3.864,15.744 3.702,15.869 3.489 C 15.964 3.328,15.980 3.256,15.980 3.000 C 15.980 2.746,15.963 2.672,15.872 2.516 C 15.740 2.293,15.533 2.128,15.290 2.055 C 15.030 1.977,8.945 1.979,8.695 2.057 M2.695 5.057 C 2.466 5.129,2.256 5.299,2.128 5.516 C 2.037 5.672,2.020 5.746,2.020 6.000 C 2.020 6.256,2.036 6.328,2.131 6.489 C 2.256 6.702,2.449 6.864,2.670 6.943 C 2.770 6.979,3.028 6.997,3.440 6.998 L 4.060 7.000 4.413 12.290 C 4.607 15.200,4.792 17.813,4.823 18.098 C 4.945 19.196,5.152 19.785,5.644 20.439 C 6.089 21.030,6.790 21.533,7.480 21.758 C 8.151 21.977,8.216 21.980,12.000 21.980 C 15.785 21.980,15.853 21.977,16.519 21.758 C 17.586 21.406,18.496 20.540,18.879 19.511 C 19.006 19.169,19.115 18.651,19.177 18.098 C 19.208 17.813,19.393 15.200,19.587 12.290 L 19.940 7.000 20.560 6.998 C 20.972 6.997,21.230 6.979,21.330 6.943 C 21.551 6.864,21.744 6.702,21.869 6.489 C 21.964 6.328,21.980 6.256,21.980 6.000 C 21.980 5.746,21.963 5.672,21.872 5.516 C 21.740 5.293,21.533 5.128,21.290 5.055 C 21.027 4.976,2.947 4.978,2.695 5.057 M17.920 7.056 C 17.920 7.217,17.233 17.366,17.197 17.740 C 17.104 18.697,16.987 19.015,16.580 19.420 C 16.313 19.685,16.026 19.843,15.660 19.926 C 15.308 20.005,8.692 20.005,8.340 19.926 C 7.974 19.843,7.687 19.685,7.420 19.420 C 7.013 19.015,6.896 18.697,6.803 17.740 C 6.767 17.370,6.080 7.215,6.080 7.054 C 6.080 7.009,7.048 7.000,12.000 7.000 C 17.061 7.000,17.920 7.008,17.920 7.056 M9.600 9.584 C 9.399 9.671,9.205 9.869,9.095 10.100 L 9.001 10.300 9.001 13.000 L 9.001 15.700 9.095 15.900 C 9.276 16.281,9.595 16.488,10.000 16.488 C 10.405 16.488,10.724 16.281,10.905 15.900 L 10.999 15.700 10.999 13.000 L 10.999 10.300 10.905 10.100 C 10.793 9.865,10.599 9.669,10.391 9.582 C 10.203 9.503,9.783 9.504,9.600 9.584 M13.600 9.584 C 13.399 9.671,13.205 9.869,13.095 10.100 L 13.001 10.300 13.001 13.000 L 13.001 15.700 13.095 15.900 C 13.276 16.281,13.595 16.488,14.000 16.488 C 14.405 16.488,14.724 16.281,14.905 15.900 L 14.999 15.700 14.999 13.000 L 14.999 10.300 14.905 10.100 C 14.793 9.865,14.599 9.669,14.391 9.582 C 14.203 9.503,13.783 9.504,13.600 9.584 " stroke="none" fill-rule="evenodd" fill="black"></path></svg>