<svg width="24" height="24" viewBox="0 0 24 24" fill="none" xmlns="http://www.w3.org/2000/svg"><path d="M14.695 6.057 C 14.466 6.129,14.256 6.299,14.128 6.516 C 14.037 6.672,14.020 6.746,14.020 7.000 C 14.020 7.256,14.036 7.328,14.131 7.489 C 14.256 7.702,14.449 7.864,14.670 7.943 C 14.789 7.985,15.317 7.997,17.200 7.998 L 19.580 8.000 16.291 11.289 L 13.002 14.578 11.131 12.717 C 10.044 11.635,9.172 10.800,9.050 10.723 C 8.430 10.335,7.571 10.334,6.950 10.723 C 6.678 10.893,1.274 16.273,1.127 16.520 C 1.037 16.672,1.020 16.746,1.020 17.000 C 1.020 17.257,1.036 17.327,1.133 17.492 C 1.263 17.714,1.502 17.901,1.736 17.965 C 1.938 18.019,2.266 17.989,2.445 17.899 C 2.519 17.862,3.799 16.615,5.290 15.127 L 7.999 12.422 9.850 14.267 C 11.070 15.483,11.784 16.165,11.947 16.269 C 12.583 16.678,13.415 16.678,14.053 16.270 C 14.225 16.160,15.321 15.093,17.649 12.768 L 20.998 9.424 21.009 11.865 L 21.020 14.306 21.141 14.503 C 21.543 15.156,22.457 15.156,22.859 14.503 L 22.980 14.306 22.980 10.503 L 22.980 6.700 22.872 6.516 C 22.740 6.293,22.533 6.128,22.290 6.055 C 22.030 5.977,14.945 5.979,14.695 6.057 " stroke="none" fill-rule="evenodd" fill="black"></path></svg>