<svg width="24" height="24" viewBox="0 0 24 24" fill="none" xmlns="http://www.w3.org/2000/svg"><path d="M1.670 6.061 C 1.448 6.142,1.250 6.309,1.128 6.516 C 1.037 6.672,1.020 6.746,1.020 7.000 C 1.020 7.254,1.036 7.328,1.127 7.480 C 1.287 7.748,6.638 13.072,6.947 13.270 C 7.584 13.678,8.417 13.678,9.053 13.269 C 9.216 13.165,9.931 12.483,11.151 11.266 L 13.001 9.421 16.291 12.711 L 19.580 16.000 17.236 16.000 C 14.693 16.000,14.670 16.002,14.382 16.221 C 14.302 16.282,14.187 16.415,14.128 16.516 C 14.037 16.672,14.020 16.746,14.020 17.000 C 14.020 17.256,14.036 17.328,14.131 17.489 C 14.256 17.702,14.449 17.864,14.670 17.943 C 14.891 18.022,22.109 18.022,22.330 17.943 C 22.551 17.864,22.744 17.702,22.869 17.489 L 22.980 17.300 22.980 13.500 L 22.980 9.700 22.871 9.514 C 22.479 8.848,21.521 8.848,21.129 9.514 L 21.020 9.700 21.009 12.138 L 20.998 14.576 17.629 11.215 C 15.544 9.135,14.180 7.804,14.050 7.723 C 13.428 7.334,12.569 7.335,11.950 7.723 C 11.828 7.800,10.956 8.635,9.870 9.716 L 7.999 11.577 5.270 8.854 C 2.790 6.380,2.522 6.125,2.343 6.065 C 2.107 5.987,1.874 5.986,1.670 6.061 " stroke="none" fill-rule="evenodd" fill="black"></path></svg>