<svg width="24" height="24" viewBox="0 0 24 24" fill="none" xmlns="http://www.w3.org/2000/svg"><path d="M3.749 2.045 C 2.967 2.120,2.402 2.371,1.890 2.870 C 1.491 3.260,1.236 3.731,1.094 4.340 C 1.024 4.643,1.020 4.924,1.020 9.520 L 1.020 14.380 1.111 14.735 C 1.160 14.931,1.254 15.201,1.319 15.335 C 1.662 16.048,2.357 16.637,3.094 16.842 C 3.255 16.886,3.337 16.929,3.331 16.965 C 3.326 16.995,3.269 17.173,3.203 17.361 C 3.041 17.822,2.985 18.217,3.013 18.700 C 3.114 20.475,4.525 21.886,6.300 21.987 C 6.984 22.026,7.625 21.876,8.240 21.531 C 8.709 21.268,9.268 20.709,9.531 20.240 C 10.086 19.250,10.146 18.132,9.701 17.070 C 9.673 17.004,9.798 17.000,12.000 17.000 C 14.202 17.000,14.327 17.004,14.299 17.070 C 13.809 18.240,13.943 19.532,14.660 20.540 C 15.536 21.771,17.120 22.288,18.588 21.821 C 19.604 21.498,20.497 20.606,20.820 19.591 C 21.089 18.744,21.049 17.902,20.701 17.070 C 20.675 17.008,20.698 17.000,20.906 16.999 C 21.227 16.998,21.654 16.902,21.919 16.771 C 22.203 16.630,22.630 16.203,22.771 15.919 C 22.984 15.489,22.999 15.317,22.999 13.195 C 23.000 12.068,22.983 11.160,22.960 11.035 C 22.938 10.917,22.855 10.685,22.775 10.520 C 22.639 10.240,22.536 10.127,21.205 8.795 C 19.351 6.941,19.462 7.001,17.855 7.000 L 17.009 7.000 16.989 5.790 C 16.968 4.506,16.933 4.236,16.724 3.750 C 16.542 3.325,16.132 2.829,15.737 2.558 C 15.275 2.240,14.875 2.107,14.180 2.042 C 13.648 1.991,4.274 1.994,3.749 2.045 M14.374 4.074 C 14.572 4.141,14.859 4.428,14.926 4.626 C 14.966 4.748,14.980 5.851,14.990 9.891 L 15.003 15.002 9.371 14.991 L 3.740 14.980 3.550 14.886 C 3.335 14.781,3.141 14.568,3.071 14.360 C 3.008 14.175,2.977 5.487,3.037 4.949 C 3.102 4.365,3.341 4.104,3.866 4.042 C 4.017 4.024,6.408 4.012,9.180 4.016 C 13.174 4.021,14.252 4.034,14.374 4.074 M19.790 10.210 L 21.000 11.420 21.000 13.210 L 21.000 15.000 19.000 15.000 L 17.000 15.000 17.000 12.000 L 17.000 9.000 17.790 9.000 L 18.580 9.000 19.790 10.210 M7.119 17.143 C 7.417 17.279,7.727 17.592,7.865 17.896 C 7.960 18.105,7.976 18.192,7.976 18.500 C 7.976 18.808,7.960 18.895,7.865 19.104 C 7.725 19.413,7.417 19.720,7.100 19.868 C 6.893 19.965,6.810 19.980,6.500 19.980 C 6.190 19.980,6.107 19.965,5.900 19.868 C 5.583 19.720,5.275 19.413,5.135 19.104 C 5.040 18.896,5.024 18.808,5.024 18.500 C 5.023 18.191,5.039 18.106,5.134 17.900 C 5.327 17.478,5.749 17.129,6.174 17.039 C 6.441 16.982,6.870 17.030,7.119 17.143 M18.119 17.143 C 18.417 17.279,18.727 17.592,18.865 17.896 C 18.960 18.105,18.976 18.192,18.976 18.500 C 18.976 18.808,18.960 18.895,18.865 19.104 C 18.725 19.413,18.417 19.720,18.100 19.868 C 17.893 19.965,17.810 19.980,17.500 19.980 C 17.190 19.980,17.107 19.965,16.900 19.868 C 16.583 19.720,16.275 19.413,16.135 19.104 C 16.040 18.896,16.024 18.808,16.024 18.500 C 16.023 18.191,16.039 18.106,16.134 17.900 C 16.327 17.478,16.749 17.129,17.174 17.039 C 17.441 16.982,17.870 17.030,18.119 17.143 " stroke="none" fill-rule="evenodd" fill="black"></path></svg>