<svg width="24" height="24" viewBox="0 0 24 24" fill="none" xmlns="http://www.w3.org/2000/svg"><path d="M3.749 3.045 C 2.967 3.120,2.402 3.371,1.890 3.870 C 1.491 4.260,1.236 4.731,1.094 5.340 C 1.024 5.643,1.020 5.926,1.020 10.600 L 1.020 15.540 1.114 15.840 C 1.298 16.430,1.607 16.890,2.109 17.323 C 2.322 17.507,2.826 17.796,3.025 17.848 C 3.085 17.863,3.117 17.914,3.138 18.025 C 3.154 18.110,3.222 18.315,3.290 18.480 C 3.713 19.514,4.490 20.292,5.512 20.704 C 6.231 20.994,7.023 21.070,7.757 20.921 C 9.127 20.641,10.230 19.723,10.711 18.460 C 10.778 18.284,10.843 18.108,10.855 18.070 C 10.876 18.004,10.991 18.000,12.705 18.010 L 14.532 18.020 14.600 18.300 C 14.889 19.489,15.755 20.438,16.900 20.820 C 18.866 21.476,20.965 20.271,21.420 18.224 C 21.486 17.931,21.486 17.931,21.653 17.882 C 22.180 17.728,22.668 17.243,22.888 16.657 C 22.975 16.425,22.978 16.373,22.991 14.351 C 23.000 13.018,22.990 12.201,22.963 12.051 C 22.939 11.924,22.855 11.685,22.775 11.520 C 22.636 11.233,22.527 11.116,20.205 8.795 C 17.887 6.477,17.767 6.363,17.480 6.224 C 17.083 6.031,16.859 6.001,15.854 6.000 C 14.917 6.000,14.960 6.013,14.960 5.727 C 14.959 5.536,14.828 4.992,14.724 4.750 C 14.542 4.325,14.132 3.829,13.737 3.558 C 13.275 3.240,12.875 3.107,12.180 3.042 C 11.650 2.992,4.272 2.994,3.749 3.045 M12.374 5.075 C 12.572 5.141,12.859 5.428,12.926 5.626 C 12.966 5.748,12.980 6.851,12.990 10.890 L 13.003 16.000 11.940 16.000 C 10.963 16.000,10.876 15.994,10.855 15.930 C 10.759 15.629,10.563 15.175,10.431 14.953 C 9.969 14.168,9.153 13.515,8.245 13.204 C 7.951 13.103,7.322 13.000,7.000 13.000 C 6.678 13.000,6.049 13.103,5.755 13.204 C 4.673 13.575,3.727 14.437,3.336 15.410 C 3.294 15.514,3.242 15.594,3.220 15.588 C 3.198 15.581,3.144 15.505,3.100 15.418 C 3.022 15.263,3.020 15.170,3.009 10.780 C 3.003 8.025,3.014 6.163,3.038 5.944 C 3.102 5.366,3.342 5.104,3.866 5.041 C 4.017 5.023,5.958 5.012,8.180 5.016 C 11.341 5.022,12.254 5.035,12.374 5.075 M18.790 10.210 L 21.000 12.420 21.000 14.056 L 21.000 15.691 20.897 15.540 C 20.430 14.852,19.588 14.276,18.780 14.093 C 18.352 13.997,17.648 13.997,17.220 14.093 C 16.792 14.190,16.155 14.504,15.794 14.794 C 15.529 15.008,15.165 15.411,15.047 15.620 C 15.014 15.680,15.002 14.716,15.001 11.850 L 15.000 8.000 15.790 8.000 L 16.580 8.000 18.790 10.210 M7.523 15.073 C 8.262 15.266,8.850 15.924,8.967 16.690 C 9.067 17.343,8.873 17.933,8.403 18.404 C 8.002 18.807,7.547 19.000,7.000 19.000 C 6.485 19.000,6.038 18.822,5.653 18.465 C 4.323 17.229,5.189 15.005,7.000 15.005 C 7.143 15.005,7.378 15.036,7.523 15.073 M18.344 16.053 C 19.388 16.272,19.837 17.579,19.161 18.433 C 18.987 18.655,18.699 18.859,18.462 18.930 C 18.253 18.992,17.747 18.992,17.538 18.930 C 17.301 18.859,17.013 18.655,16.839 18.433 C 16.290 17.740,16.460 16.715,17.202 16.239 C 17.407 16.107,17.732 16.009,17.980 16.004 C 18.046 16.003,18.210 16.025,18.344 16.053 " stroke="none" fill-rule="evenodd" fill="black"></path></svg>