<svg width="24" height="24" viewBox="0 0 24 24" fill="none" xmlns="http://www.w3.org/2000/svg"><path d="M4.920 2.041 C 4.152 2.092,3.672 2.205,3.180 2.451 C 2.089 2.996,1.357 3.961,1.124 5.160 C 1.018 5.702,1.000 6.421,1.000 10.000 C 1.000 13.579,1.018 14.298,1.124 14.840 C 1.311 15.806,1.822 16.623,2.599 17.199 C 3.191 17.638,3.854 17.876,4.676 17.944 L 5.000 17.972 5.001 19.056 C 5.002 20.578,5.080 20.886,5.597 21.403 C 5.896 21.702,6.173 21.853,6.581 21.939 C 6.999 22.028,17.001 22.028,17.419 21.940 C 17.818 21.855,18.102 21.699,18.401 21.401 C 18.921 20.881,18.998 20.576,18.999 19.056 L 19.000 17.972 19.324 17.944 C 20.330 17.861,21.082 17.534,21.772 16.883 C 22.341 16.346,22.720 15.644,22.876 14.840 C 22.982 14.298,23.000 13.579,23.000 10.000 C 23.000 5.788,22.984 5.439,22.755 4.680 C 22.424 3.581,21.465 2.622,20.320 2.246 C 19.635 2.021,19.900 2.028,12.340 2.019 C 8.512 2.014,5.173 2.024,4.920 2.041 M19.492 4.091 C 19.894 4.188,20.110 4.309,20.400 4.600 C 20.696 4.895,20.814 5.109,20.912 5.528 C 20.974 5.794,20.980 6.199,20.980 10.000 C 20.980 14.557,20.984 14.476,20.752 14.952 C 20.626 15.211,20.190 15.638,19.918 15.768 C 19.463 15.987,19.707 15.980,12.000 15.980 C 4.304 15.980,4.541 15.986,4.082 15.771 C 3.812 15.643,3.377 15.217,3.248 14.952 C 3.016 14.476,3.020 14.557,3.020 10.000 C 3.020 6.199,3.026 5.794,3.088 5.528 C 3.175 5.155,3.294 4.918,3.520 4.667 C 3.883 4.262,4.282 4.090,4.980 4.039 C 5.200 4.023,8.494 4.013,12.300 4.017 C 18.585 4.024,19.245 4.031,19.492 4.091 M17.000 19.000 L 17.000 20.000 12.000 20.000 L 7.000 20.000 7.000 19.000 L 7.000 18.000 12.000 18.000 L 17.000 18.000 17.000 19.000 " stroke="none" fill-rule="evenodd" fill="black"></path></svg>