<svg width="24" height="24" viewBox="0 0 24 24" fill="none" xmlns="http://www.w3.org/2000/svg"><path d="M4.920 2.041 C 4.152 2.092,3.672 2.205,3.180 2.451 C 2.089 2.996,1.357 3.961,1.124 5.160 C 1.018 5.702,1.000 6.421,1.000 10.000 C 1.000 14.212,1.016 14.561,1.245 15.320 C 1.577 16.422,2.583 17.428,3.680 17.754 C 4.357 17.956,4.542 17.970,6.913 17.996 L 9.126 18.020 7.682 19.174 C 6.023 20.501,6.020 20.504,6.020 21.000 C 6.020 21.257,6.036 21.327,6.133 21.492 C 6.263 21.714,6.502 21.901,6.736 21.965 C 6.950 22.022,7.290 21.986,7.458 21.887 C 7.531 21.844,8.583 21.014,9.795 20.044 L 12.000 18.279 14.205 20.044 C 15.417 21.014,16.475 21.847,16.555 21.894 C 16.783 22.029,17.238 22.017,17.489 21.869 C 17.838 21.663,18.029 21.291,17.988 20.894 C 17.946 20.490,17.887 20.429,16.318 19.174 L 14.874 18.020 17.087 17.996 C 19.458 17.970,19.643 17.956,20.320 17.754 C 21.417 17.428,22.423 16.422,22.755 15.320 C 22.984 14.561,23.000 14.212,23.000 10.000 C 23.000 5.788,22.984 5.439,22.755 4.680 C 22.424 3.581,21.465 2.622,20.320 2.246 C 19.635 2.021,19.900 2.028,12.340 2.019 C 8.512 2.014,5.173 2.024,4.920 2.041 M19.492 4.091 C 19.894 4.188,20.110 4.309,20.400 4.600 C 20.696 4.895,20.814 5.109,20.912 5.528 C 20.974 5.794,20.980 6.199,20.980 10.000 C 20.980 14.557,20.984 14.476,20.752 14.952 C 20.626 15.211,20.190 15.638,19.918 15.768 C 19.463 15.987,19.707 15.980,12.000 15.980 C 4.304 15.980,4.541 15.986,4.082 15.771 C 3.812 15.643,3.377 15.217,3.248 14.952 C 3.016 14.476,3.020 14.557,3.020 10.000 C 3.020 6.199,3.026 5.794,3.088 5.528 C 3.175 5.155,3.294 4.918,3.520 4.667 C 3.883 4.262,4.282 4.090,4.980 4.039 C 5.200 4.023,8.494 4.013,12.300 4.017 C 18.585 4.024,19.245 4.031,19.492 4.091 " stroke="none" fill-rule="evenodd" fill="black"></path></svg>