<svg width="24" height="24" viewBox="0 0 24 24" fill="none" xmlns="http://www.w3.org/2000/svg"><path d="M6.689 2.056 C 6.452 2.134,6.262 2.289,6.131 2.511 C 6.036 2.672,6.020 2.744,6.020 3.000 C 6.020 3.496,6.023 3.499,7.682 4.826 L 9.126 5.980 6.933 6.006 C 4.605 6.033,4.250 6.059,3.680 6.246 C 2.534 6.622,1.576 7.579,1.245 8.680 C 1.016 9.439,1.000 9.788,1.000 14.000 C 1.000 18.212,1.016 18.561,1.245 19.320 C 1.577 20.422,2.578 21.423,3.680 21.755 C 4.485 21.998,4.567 22.000,12.000 22.000 C 19.433 22.000,19.515 21.998,20.320 21.755 C 21.422 21.423,22.423 20.422,22.755 19.320 C 22.984 18.561,23.000 18.212,23.000 14.000 C 23.000 9.788,22.984 9.439,22.755 8.680 C 22.424 7.581,21.464 6.621,20.320 6.246 C 19.750 6.059,19.395 6.033,17.067 6.006 L 14.874 5.980 16.318 4.826 C 17.413 3.950,17.786 3.629,17.864 3.497 C 18.180 2.957,17.895 2.231,17.296 2.057 C 17.024 1.978,16.734 2.000,16.540 2.115 C 16.468 2.157,15.417 2.986,14.205 3.956 L 12.000 5.721 9.795 3.956 C 8.583 2.986,7.530 2.156,7.456 2.112 C 7.282 2.010,6.914 1.983,6.689 2.056 M19.492 8.091 C 19.894 8.188,20.110 8.309,20.400 8.600 C 20.696 8.895,20.814 9.109,20.912 9.528 C 20.974 9.794,20.980 10.199,20.980 14.000 C 20.980 18.557,20.984 18.476,20.752 18.952 C 20.626 19.211,20.190 19.638,19.918 19.768 C 19.463 19.987,19.707 19.980,12.000 19.980 C 4.304 19.980,4.541 19.986,4.082 19.771 C 3.812 19.643,3.377 19.217,3.248 18.952 C 3.016 18.476,3.020 18.557,3.020 14.000 C 3.020 10.199,3.026 9.794,3.088 9.528 C 3.175 9.155,3.294 8.918,3.520 8.667 C 3.883 8.262,4.282 8.090,4.980 8.039 C 5.200 8.023,8.494 8.013,12.300 8.017 C 18.585 8.024,19.245 8.031,19.492 8.091 " stroke="none" fill-rule="evenodd" fill="black"></path></svg>