<svg width="24" height="24" viewBox="0 0 24 24" fill="none" xmlns="http://www.w3.org/2000/svg"><path d="M5.665 3.044 C 4.412 3.176,3.440 4.005,3.113 5.220 C 3.038 5.499,3.027 5.652,3.024 6.423 L 3.020 7.306 3.141 7.503 C 3.542 8.154,4.457 8.156,4.857 7.507 C 4.975 7.315,4.976 7.306,5.007 6.518 C 5.027 6.000,5.057 5.676,5.093 5.591 C 5.178 5.388,5.344 5.215,5.551 5.113 C 5.739 5.021,5.752 5.020,7.490 5.006 L 9.240 4.992 9.240 11.996 L 9.240 19.000 8.566 19.000 C 7.823 19.000,7.623 19.037,7.382 19.221 C 7.302 19.282,7.187 19.415,7.128 19.516 C 7.037 19.672,7.020 19.746,7.020 20.000 C 7.020 20.256,7.036 20.328,7.131 20.489 C 7.256 20.702,7.449 20.864,7.670 20.943 C 7.892 21.022,16.108 21.022,16.330 20.943 C 16.551 20.864,16.744 20.702,16.869 20.489 C 16.964 20.328,16.980 20.256,16.980 20.000 C 16.980 19.746,16.963 19.672,16.872 19.516 C 16.813 19.415,16.698 19.282,16.618 19.221 C 16.377 19.037,16.177 19.000,15.434 19.000 L 14.760 19.000 14.760 11.996 L 14.760 4.992 16.510 5.006 C 18.255 5.020,18.261 5.020,18.440 5.114 C 18.678 5.238,18.769 5.326,18.874 5.537 C 18.951 5.691,18.965 5.807,18.993 6.513 C 19.024 7.306,19.025 7.315,19.143 7.507 C 19.543 8.156,20.458 8.154,20.859 7.503 L 20.980 7.306 20.976 6.423 C 20.973 5.649,20.962 5.501,20.886 5.222 C 20.652 4.366,20.136 3.726,19.371 3.343 C 19.015 3.165,18.742 3.089,18.280 3.041 C 17.816 2.993,6.127 2.995,5.665 3.044 M12.760 12.000 L 12.760 19.000 12.000 19.000 L 11.240 19.000 11.240 12.000 L 11.240 5.000 12.000 5.000 L 12.760 5.000 12.760 12.000 " stroke="none" fill-rule="evenodd" fill="black"></path></svg>