<svg width="24" height="24" viewBox="0 0 24 24" fill="none" xmlns="http://www.w3.org/2000/svg"><path d="M2.670 2.061 C 2.448 2.142,2.250 2.309,2.128 2.516 C 2.036 2.672,2.020 2.745,2.021 3.000 C 2.021 3.214,2.043 3.340,2.096 3.440 C 2.137 3.517,2.418 3.832,2.722 4.140 L 3.273 4.700 3.148 5.060 L 3.022 5.420 3.021 6.363 L 3.020 7.306 3.141 7.503 C 3.543 8.156,4.457 8.156,4.858 7.504 C 4.970 7.323,4.980 7.274,4.994 6.869 L 5.009 6.429 7.125 8.545 L 9.240 10.660 9.240 14.830 L 9.240 19.000 8.566 19.000 C 7.823 19.000,7.623 19.037,7.382 19.221 C 7.302 19.282,7.187 19.415,7.128 19.516 C 7.037 19.672,7.020 19.746,7.020 20.000 C 7.020 20.256,7.036 20.328,7.131 20.489 C 7.256 20.702,7.449 20.864,7.670 20.943 C 7.892 21.022,16.108 21.022,16.330 20.943 C 16.551 20.864,16.744 20.702,16.869 20.489 C 16.964 20.328,16.980 20.256,16.980 20.000 C 16.980 19.746,16.963 19.672,16.872 19.516 C 16.813 19.415,16.698 19.282,16.618 19.221 C 16.377 19.037,16.177 19.000,15.434 19.000 L 14.760 19.000 14.760 17.590 L 14.760 16.181 17.590 19.006 C 19.146 20.560,20.483 21.865,20.560 21.905 C 20.659 21.957,20.788 21.979,21.000 21.979 C 21.258 21.980,21.327 21.964,21.492 21.867 C 21.968 21.587,22.139 20.967,21.865 20.508 C 21.810 20.416,17.665 16.243,12.653 11.235 C 4.231 2.820,3.525 2.125,3.343 2.065 C 3.107 1.987,2.874 1.986,2.670 2.061 M9.240 3.037 C 8.947 3.126,8.688 3.354,8.578 3.618 C 8.493 3.821,8.493 4.179,8.578 4.382 C 8.661 4.582,8.883 4.811,9.079 4.900 C 9.209 4.958,9.235 4.992,9.257 5.128 C 9.416 6.122,10.744 6.312,11.157 5.400 C 11.202 5.301,11.239 5.170,11.239 5.110 L 11.240 5.000 12.000 5.000 L 12.760 5.000 12.761 6.610 C 12.762 8.143,12.766 8.229,12.843 8.400 C 13.000 8.746,13.283 8.950,13.660 8.988 C 14.062 9.030,14.444 8.812,14.653 8.423 C 14.738 8.264,14.740 8.216,14.752 6.626 L 14.763 4.992 16.512 5.006 C 18.254 5.020,18.261 5.020,18.440 5.114 C 18.678 5.238,18.769 5.326,18.874 5.537 C 18.951 5.691,18.965 5.807,18.993 6.513 C 19.024 7.306,19.025 7.315,19.143 7.507 C 19.543 8.156,20.458 8.154,20.859 7.503 L 20.980 7.306 20.976 6.423 C 20.973 5.649,20.962 5.501,20.886 5.222 C 20.652 4.366,20.136 3.726,19.371 3.343 C 19.015 3.165,18.742 3.089,18.280 3.041 C 17.834 2.994,9.392 2.991,9.240 3.037 M12.760 16.590 L 12.760 19.000 12.000 19.000 L 11.240 19.000 11.240 15.830 L 11.240 12.661 12.000 13.420 L 12.760 14.179 12.760 16.590 " stroke="none" fill-rule="evenodd" fill="black"></path></svg>