<svg width="24" height="24" viewBox="0 0 24 24" fill="none" xmlns="http://www.w3.org/2000/svg"><path d="M5.665 3.044 C 4.412 3.176,3.440 4.005,3.113 5.220 C 3.038 5.499,3.027 5.652,3.024 6.423 L 3.020 7.306 3.141 7.503 C 3.542 8.154,4.457 8.156,4.857 7.507 C 4.975 7.315,4.976 7.306,5.007 6.518 C 5.027 6.000,5.057 5.676,5.093 5.591 C 5.178 5.388,5.344 5.215,5.551 5.113 L 5.740 5.020 8.370 5.007 L 11.000 4.994 11.000 11.997 L 11.000 19.000 9.946 19.000 C 8.797 19.000,8.644 19.022,8.382 19.221 C 8.302 19.282,8.187 19.415,8.128 19.516 C 8.037 19.672,8.020 19.746,8.020 20.000 C 8.020 20.256,8.036 20.328,8.131 20.489 C 8.256 20.702,8.449 20.864,8.670 20.943 C 8.891 21.022,15.109 21.022,15.330 20.943 C 15.551 20.864,15.744 20.702,15.869 20.489 C 15.964 20.328,15.980 20.256,15.980 20.000 C 15.980 19.746,15.963 19.672,15.872 19.516 C 15.813 19.415,15.698 19.282,15.618 19.221 C 15.356 19.022,15.203 19.000,14.054 19.000 L 13.000 19.000 13.000 11.997 L 13.000 4.994 15.630 5.007 L 18.260 5.020 18.440 5.114 C 18.678 5.238,18.769 5.326,18.874 5.537 C 18.951 5.691,18.965 5.807,18.993 6.513 C 19.024 7.306,19.025 7.315,19.143 7.507 C 19.543 8.156,20.458 8.154,20.859 7.503 L 20.980 7.306 20.976 6.423 C 20.973 5.649,20.962 5.501,20.886 5.222 C 20.652 4.366,20.136 3.726,19.371 3.343 C 19.015 3.165,18.742 3.089,18.280 3.041 C 17.816 2.993,6.127 2.995,5.665 3.044 " stroke="none" fill-rule="evenodd" fill="black"></path></svg>