<svg width="24" height="24" viewBox="0 0 24 24" fill="none" xmlns="http://www.w3.org/2000/svg"><path d="M2.670 2.061 C 2.448 2.142,2.250 2.309,2.128 2.516 C 2.036 2.672,2.020 2.745,2.021 3.000 C 2.021 3.214,2.043 3.340,2.096 3.440 C 2.137 3.517,2.418 3.832,2.722 4.140 L 3.273 4.700 3.148 5.060 L 3.022 5.420 3.021 6.363 L 3.020 7.306 3.141 7.503 C 3.543 8.156,4.457 8.156,4.858 7.504 C 4.970 7.323,4.980 7.274,4.994 6.869 L 5.009 6.429 8.005 9.425 L 11.000 12.420 11.000 15.710 L 11.000 19.000 9.946 19.000 C 8.797 19.000,8.644 19.022,8.382 19.221 C 8.302 19.282,8.187 19.415,8.128 19.516 C 8.037 19.672,8.020 19.746,8.020 20.000 C 8.020 20.256,8.036 20.328,8.131 20.489 C 8.256 20.702,8.449 20.864,8.670 20.943 C 8.891 21.022,15.109 21.022,15.330 20.943 C 15.551 20.864,15.744 20.702,15.869 20.489 C 15.964 20.328,15.980 20.256,15.980 20.000 C 15.980 19.746,15.963 19.672,15.872 19.516 C 15.813 19.415,15.698 19.282,15.618 19.221 C 15.356 19.022,15.203 19.000,14.054 19.000 L 13.000 19.000 13.000 16.710 L 13.000 14.421 16.710 18.126 C 18.751 20.164,20.483 21.865,20.560 21.905 C 20.659 21.957,20.788 21.979,21.000 21.979 C 21.258 21.980,21.327 21.964,21.492 21.867 C 21.968 21.587,22.139 20.967,21.865 20.508 C 21.810 20.416,17.665 16.243,12.653 11.235 C 4.231 2.820,3.525 2.125,3.343 2.065 C 3.107 1.987,2.874 1.986,2.670 2.061 M9.240 3.037 C 8.794 3.173,8.512 3.546,8.512 4.000 C 8.512 4.405,8.719 4.724,9.100 4.905 C 9.291 4.995,9.339 4.999,10.150 5.000 L 11.000 5.000 11.000 5.850 C 11.001 6.661,11.005 6.709,11.095 6.900 C 11.276 7.281,11.595 7.488,12.000 7.488 C 12.405 7.488,12.724 7.281,12.905 6.900 C 12.995 6.709,12.999 6.661,13.000 5.847 L 13.000 4.994 15.630 5.007 L 18.260 5.020 18.440 5.114 C 18.678 5.238,18.769 5.326,18.874 5.537 C 18.951 5.691,18.965 5.807,18.993 6.513 C 19.024 7.306,19.025 7.315,19.143 7.507 C 19.543 8.156,20.458 8.154,20.859 7.503 L 20.980 7.306 20.976 6.423 C 20.973 5.649,20.962 5.501,20.886 5.222 C 20.652 4.366,20.136 3.726,19.371 3.343 C 19.015 3.165,18.742 3.089,18.280 3.041 C 17.834 2.994,9.392 2.991,9.240 3.037 " stroke="none" fill-rule="evenodd" fill="black"></path></svg>