<svg width="24" height="24" viewBox="0 0 24 24" fill="none" xmlns="http://www.w3.org/2000/svg"><path d="M11.064 1.044 C 8.949 1.218,6.927 2.016,5.190 3.361 C 4.684 3.753,3.624 4.836,3.230 5.363 C 2.223 6.711,1.542 8.220,1.221 9.815 C 0.993 10.949,1.000 11.325,1.259 11.871 C 1.429 12.230,1.798 12.614,2.125 12.775 C 2.587 13.000,2.545 12.999,6.950 12.999 L 11.000 13.000 11.000 16.350 C 11.000 18.493,11.016 19.794,11.043 19.960 C 11.104 20.339,11.299 20.896,11.492 21.240 C 11.713 21.635,12.351 22.284,12.743 22.515 C 13.832 23.154,15.168 23.154,16.257 22.515 C 16.649 22.284,17.287 21.635,17.508 21.240 C 17.965 20.424,18.129 19.356,17.866 18.907 C 17.568 18.399,16.880 18.256,16.405 18.605 C 16.149 18.794,16.044 19.009,15.995 19.443 C 15.925 20.074,15.725 20.449,15.307 20.737 C 14.520 21.277,13.486 20.932,13.111 20.004 L 13.020 19.780 13.009 16.390 L 12.997 13.000 17.049 12.999 C 21.455 12.999,21.413 13.001,21.875 12.775 C 22.195 12.618,22.569 12.231,22.735 11.884 C 22.927 11.485,22.982 11.128,22.923 10.665 C 22.680 8.743,21.946 6.938,20.770 5.363 C 20.376 4.836,19.316 3.753,18.810 3.361 C 16.562 1.620,13.865 0.813,11.064 1.044 M13.320 3.102 C 16.271 3.552,18.760 5.377,20.082 8.060 C 20.494 8.896,20.825 9.980,20.906 10.761 L 20.931 11.000 12.000 11.000 L 3.069 11.000 3.094 10.761 C 3.175 9.980,3.506 8.896,3.918 8.060 C 4.895 6.077,6.523 4.544,8.560 3.687 C 9.402 3.333,10.209 3.141,11.340 3.024 C 11.664 2.991,12.913 3.040,13.320 3.102 " stroke="none" fill-rule="evenodd" fill="black"></path></svg>