<svg width="24" height="24" viewBox="0 0 24 24" fill="none" xmlns="http://www.w3.org/2000/svg"><path d="M2.695 3.057 C 2.465 3.129,2.256 3.299,2.128 3.516 C 2.037 3.672,2.020 3.746,2.020 4.000 C 2.020 4.256,2.036 4.328,2.131 4.489 C 2.256 4.702,2.449 4.864,2.670 4.943 C 2.768 4.978,3.023 4.997,3.410 4.998 L 4.000 5.000 4.000 7.722 C 4.000 11.017,4.028 11.347,4.405 12.500 C 4.807 13.728,5.494 14.820,6.446 15.741 C 7.114 16.389,7.706 16.803,8.529 17.200 C 11.259 18.519,14.467 18.184,16.900 16.326 C 17.239 16.067,17.925 15.394,18.211 15.040 C 19.172 13.851,19.790 12.361,19.958 10.832 C 19.983 10.596,20.000 9.371,20.000 7.722 L 20.000 5.000 20.590 4.998 C 20.977 4.997,21.232 4.978,21.330 4.943 C 21.551 4.864,21.744 4.702,21.869 4.489 C 21.964 4.328,21.980 4.256,21.980 4.000 C 21.980 3.746,21.963 3.672,21.872 3.516 C 21.740 3.293,21.533 3.128,21.290 3.055 C 21.023 2.975,16.977 2.975,16.710 3.055 C 16.467 3.128,16.260 3.293,16.128 3.516 C 16.037 3.672,16.020 3.746,16.020 4.000 C 16.020 4.256,16.036 4.328,16.131 4.489 C 16.256 4.702,16.449 4.864,16.670 4.943 C 16.768 4.978,17.023 4.997,17.410 4.998 L 18.000 5.000 17.999 7.590 C 17.998 9.014,17.981 10.353,17.961 10.564 C 17.793 12.286,16.951 13.776,15.556 14.820 C 15.146 15.126,14.474 15.488,14.029 15.642 L 13.759 15.735 13.486 15.648 C 12.100 15.201,10.824 14.055,10.104 12.611 C 9.899 12.199,9.755 11.797,9.630 11.284 C 9.549 10.954,9.545 10.823,9.531 7.970 L 9.516 5.000 10.108 5.000 C 10.647 4.999,10.718 4.991,10.900 4.905 C 11.281 4.724,11.488 4.405,11.488 4.000 C 11.488 3.615,11.293 3.297,10.940 3.106 L 10.780 3.020 6.820 3.012 C 3.660 3.006,2.827 3.015,2.695 3.057 M7.493 7.870 C 7.509 10.157,7.525 10.813,7.573 11.100 C 7.743 12.121,7.979 12.857,8.404 13.684 C 8.704 14.268,8.980 14.669,9.558 15.357 L 9.740 15.573 9.284 15.340 C 7.685 14.523,6.491 12.974,6.141 11.264 C 6.021 10.674,6.002 10.183,6.001 7.590 L 6.000 5.000 6.736 5.000 L 7.472 5.000 7.493 7.870 M3.695 20.057 C 3.466 20.129,3.256 20.299,3.128 20.516 C 3.037 20.672,3.020 20.746,3.020 21.000 C 3.020 21.256,3.036 21.328,3.131 21.489 C 3.256 21.702,3.449 21.864,3.670 21.943 C 3.893 22.022,20.107 22.022,20.330 21.943 C 20.551 21.864,20.744 21.702,20.869 21.489 C 20.964 21.328,20.980 21.256,20.980 21.000 C 20.980 20.746,20.963 20.672,20.872 20.516 C 20.740 20.293,20.533 20.128,20.290 20.055 C 20.027 19.976,3.947 19.978,3.695 20.057 " stroke="none" fill-rule="evenodd" fill="black"></path></svg>