<svg width="24" height="24" viewBox="0 0 24 24" fill="none" xmlns="http://www.w3.org/2000/svg"><path d="M5.695 3.057 C 5.466 3.129,5.256 3.299,5.128 3.516 L 5.020 3.700 5.020 7.680 C 5.020 10.777,5.032 11.735,5.073 12.000 C 5.552 15.090,7.881 17.425,10.980 17.926 C 11.392 17.992,12.607 17.992,13.020 17.926 C 16.116 17.426,18.449 15.086,18.927 12.000 C 18.968 11.736,18.980 10.774,18.980 7.680 L 18.980 3.700 18.871 3.514 C 18.479 2.848,17.521 2.848,17.129 3.514 L 17.020 3.700 16.996 7.680 C 16.980 10.200,16.956 11.733,16.930 11.860 C 16.803 12.466,16.660 12.868,16.398 13.353 C 15.793 14.477,14.799 15.322,13.600 15.732 C 13.044 15.922,12.670 15.980,12.000 15.980 C 11.330 15.980,10.956 15.922,10.400 15.732 C 8.993 15.251,7.857 14.152,7.320 12.752 C 7.234 12.528,7.140 12.192,7.070 11.860 C 7.044 11.733,7.020 10.200,7.004 7.680 L 6.980 3.700 6.872 3.516 C 6.628 3.101,6.150 2.915,5.695 3.057 M3.695 20.057 C 3.466 20.129,3.256 20.299,3.128 20.516 C 3.037 20.672,3.020 20.746,3.020 21.000 C 3.020 21.256,3.036 21.328,3.131 21.489 C 3.256 21.702,3.449 21.864,3.670 21.943 C 3.893 22.022,20.107 22.022,20.330 21.943 C 20.551 21.864,20.744 21.702,20.869 21.489 C 20.964 21.328,20.980 21.256,20.980 21.000 C 20.980 20.746,20.963 20.672,20.872 20.516 C 20.740 20.293,20.533 20.128,20.290 20.055 C 20.027 19.976,3.947 19.978,3.695 20.057 " stroke="none" fill-rule="evenodd" fill="black"></path></svg>