<svg width="24" height="24" viewBox="0 0 24 24" fill="none" xmlns="http://www.w3.org/2000/svg"><path d="M5.920 2.041 C 5.151 2.092,4.672 2.205,4.180 2.451 C 3.089 2.996,2.357 3.961,2.124 5.160 C 2.013 5.729,2.000 6.455,2.000 12.000 C 2.000 18.358,2.006 18.526,2.245 19.320 C 2.577 20.422,3.578 21.423,4.680 21.755 C 5.474 21.994,5.642 22.000,12.000 22.000 C 18.358 22.000,18.526 21.994,19.320 21.755 C 20.422 21.423,21.423 20.422,21.755 19.320 C 21.994 18.526,22.000 18.358,22.000 12.000 C 22.000 5.642,21.994 5.474,21.755 4.680 C 21.424 3.581,20.465 2.622,19.320 2.246 C 18.644 2.024,18.800 2.029,12.340 2.019 C 9.062 2.014,6.173 2.024,5.920 2.041 M18.492 4.091 C 18.894 4.188,19.109 4.309,19.400 4.600 C 19.696 4.895,19.814 5.109,19.912 5.528 C 19.975 5.797,19.980 6.313,19.980 12.000 C 19.980 17.687,19.975 18.203,19.912 18.472 C 19.814 18.891,19.696 19.104,19.400 19.401 C 19.101 19.701,18.820 19.851,18.418 19.928 C 18.010 20.005,5.990 20.005,5.582 19.927 C 5.170 19.850,4.898 19.704,4.600 19.403 C 4.303 19.104,4.186 18.890,4.088 18.472 C 4.025 18.203,4.020 17.687,4.020 12.000 C 4.020 6.313,4.025 5.797,4.088 5.528 C 4.175 5.155,4.294 4.918,4.520 4.667 C 4.883 4.262,5.282 4.091,5.980 4.039 C 6.200 4.023,9.044 4.013,12.300 4.018 C 17.643 4.024,18.247 4.032,18.492 4.091 M8.240 6.035 C 7.941 6.133,7.694 6.350,7.572 6.620 C 7.507 6.765,7.499 6.948,7.488 8.560 C 7.471 10.901,7.521 11.422,7.833 12.188 C 8.619 14.121,10.657 15.273,12.700 14.941 C 14.485 14.651,15.914 13.346,16.360 11.601 C 16.494 11.076,16.526 10.442,16.512 8.560 C 16.499 6.588,16.502 6.612,16.228 6.326 C 16.015 6.104,15.819 6.022,15.500 6.022 C 15.181 6.022,14.985 6.104,14.772 6.326 C 14.495 6.615,14.503 6.550,14.477 8.920 C 14.461 10.499,14.441 11.102,14.404 11.220 C 14.209 11.825,13.664 12.468,13.120 12.734 C 12.405 13.084,11.595 13.084,10.880 12.734 C 10.326 12.463,9.799 11.842,9.597 11.220 C 9.558 11.101,9.539 10.515,9.523 8.920 C 9.502 6.975,9.493 6.765,9.428 6.620 C 9.337 6.417,9.145 6.216,8.943 6.112 C 8.771 6.024,8.399 5.983,8.240 6.035 M7.695 16.057 C 7.466 16.129,7.256 16.299,7.128 16.516 C 7.037 16.672,7.020 16.746,7.020 17.000 C 7.020 17.256,7.036 17.328,7.131 17.489 C 7.256 17.702,7.449 17.864,7.670 17.943 C 7.892 18.022,16.108 18.022,16.330 17.943 C 16.551 17.864,16.744 17.702,16.869 17.489 C 16.964 17.328,16.980 17.256,16.980 17.000 C 16.980 16.746,16.963 16.672,16.872 16.516 C 16.740 16.293,16.533 16.128,16.290 16.055 C 16.029 15.976,7.946 15.979,7.695 16.057 " stroke="none" fill-rule="evenodd" fill="black"></path></svg>