<svg width="24" height="24" viewBox="0 0 24 24" fill="none" xmlns="http://www.w3.org/2000/svg"><path d="M2.695 2.057 C 2.466 2.129,2.256 2.299,2.128 2.516 C 2.037 2.672,2.020 2.746,2.020 3.000 C 2.020 3.256,2.036 3.328,2.131 3.489 C 2.256 3.702,2.449 3.864,2.670 3.943 C 2.893 4.023,21.107 4.023,21.330 3.943 C 21.551 3.864,21.744 3.702,21.869 3.489 C 21.964 3.328,21.980 3.256,21.980 3.000 C 21.980 2.746,21.963 2.672,21.872 2.516 C 21.740 2.293,21.533 2.128,21.290 2.055 C 21.027 1.976,2.947 1.978,2.695 2.057 M11.660 6.066 C 11.473 6.123,11.256 6.330,8.347 9.233 C 6.572 11.005,5.188 12.417,5.127 12.520 C 5.036 12.672,5.020 12.746,5.020 13.000 C 5.020 13.257,5.036 13.327,5.133 13.492 C 5.263 13.714,5.502 13.901,5.736 13.965 C 5.939 14.019,6.267 13.989,6.445 13.899 C 6.519 13.862,7.574 12.840,8.789 11.627 L 10.999 9.422 11.009 15.364 L 11.020 21.306 11.141 21.503 C 11.209 21.613,11.346 21.756,11.452 21.828 C 11.923 22.144,12.554 21.999,12.859 21.503 L 12.980 21.306 12.991 15.364 L 13.001 9.422 15.211 11.627 C 16.426 12.840,17.481 13.862,17.555 13.899 C 18.010 14.128,18.601 13.944,18.867 13.492 C 18.964 13.327,18.980 13.257,18.980 13.000 C 18.980 12.746,18.964 12.672,18.873 12.520 C 18.812 12.417,17.428 11.005,15.653 9.233 C 12.633 6.220,12.534 6.125,12.323 6.063 C 12.059 5.986,11.922 5.987,11.660 6.066 " stroke="none" fill-rule="evenodd" fill="black"></path></svg>