<svg width="24" height="24" viewBox="0 0 24 24" fill="none" xmlns="http://www.w3.org/2000/svg"><path d="M11.640 2.068 C 11.485 2.121,11.093 2.495,8.847 4.735 C 7.368 6.209,6.188 7.418,6.127 7.520 C 6.036 7.672,6.020 7.746,6.020 8.000 C 6.020 8.257,6.036 8.327,6.133 8.492 C 6.263 8.714,6.502 8.901,6.736 8.965 C 6.939 9.019,7.267 8.989,7.445 8.899 C 7.519 8.862,8.349 8.065,9.289 7.127 L 10.999 5.422 11.009 10.364 L 11.020 15.306 11.141 15.503 C 11.209 15.613,11.346 15.756,11.452 15.828 C 11.923 16.144,12.554 15.999,12.859 15.503 L 12.980 15.306 12.991 10.364 L 13.001 5.422 14.711 7.127 C 15.651 8.065,16.483 8.865,16.560 8.905 C 16.659 8.957,16.788 8.979,17.000 8.979 C 17.258 8.980,17.327 8.964,17.492 8.867 C 17.968 8.587,18.138 7.968,17.866 7.508 C 17.811 7.416,16.590 6.168,15.153 4.735 C 12.783 2.372,12.522 2.124,12.343 2.065 C 12.102 1.986,11.878 1.986,11.640 2.068 M2.695 14.057 C 2.466 14.129,2.256 14.299,2.128 14.516 L 2.020 14.700 2.007 16.160 C 1.988 18.384,2.075 19.091,2.465 19.859 C 2.915 20.749,3.772 21.482,4.680 21.755 C 5.474 21.994,5.642 22.000,12.000 22.000 C 18.358 22.000,18.526 21.994,19.320 21.755 C 20.228 21.482,21.085 20.749,21.535 19.859 C 21.925 19.091,22.012 18.384,21.993 16.160 L 21.980 14.700 21.871 14.514 C 21.479 13.848,20.521 13.848,20.129 14.514 L 20.020 14.700 19.993 16.460 C 19.958 18.727,19.928 18.872,19.400 19.401 C 19.101 19.701,18.820 19.851,18.418 19.928 C 18.010 20.005,5.990 20.005,5.582 19.927 C 5.170 19.850,4.898 19.704,4.600 19.403 C 4.071 18.869,4.042 18.726,4.007 16.460 L 3.980 14.700 3.872 14.516 C 3.628 14.101,3.150 13.915,2.695 14.057 " stroke="none" fill-rule="evenodd" fill="black"></path></svg>