<svg width="24" height="24" viewBox="0 0 24 24" fill="none" xmlns="http://www.w3.org/2000/svg"><path d="M11.280 1.023 C 11.203 1.032,10.951 1.059,10.720 1.083 C 9.527 1.210,8.337 1.558,7.180 2.120 C 6.045 2.671,5.193 3.285,4.238 4.239 C 3.277 5.198,2.643 6.080,2.097 7.220 C 0.301 10.968,0.728 15.286,3.226 18.633 C 3.701 19.269,4.753 20.316,5.400 20.797 C 9.364 23.745,14.666 23.734,18.637 20.770 C 19.246 20.316,20.316 19.246,20.770 18.637 C 23.744 14.652,23.744 9.348,20.770 5.363 C 20.316 4.755,19.247 3.686,18.640 3.235 C 17.045 2.049,15.365 1.360,13.423 1.096 C 13.000 1.038,11.574 0.990,11.280 1.023 M13.320 3.101 C 15.883 3.488,18.124 4.931,19.560 7.120 C 19.863 7.583,20.303 8.479,20.492 9.020 C 20.838 10.013,20.977 10.865,20.977 12.000 C 20.977 13.493,20.720 14.621,20.080 15.940 C 19.375 17.394,18.311 18.607,16.927 19.532 C 16.138 20.060,14.876 20.588,13.908 20.797 C 11.266 21.366,8.479 20.708,6.370 19.019 C 4.857 17.807,3.722 16.029,3.267 14.160 C 3.081 13.397,3.023 12.888,3.023 12.000 C 3.023 10.507,3.280 9.379,3.920 8.060 C 4.971 5.891,6.877 4.221,9.160 3.466 C 9.865 3.233,10.432 3.118,11.340 3.024 C 11.662 2.991,12.911 3.039,13.320 3.101 M11.640 7.068 C 11.486 7.121,11.151 7.438,9.347 9.235 C 8.185 10.393,7.189 11.416,7.134 11.508 C 6.862 11.968,7.032 12.587,7.508 12.867 C 7.673 12.964,7.742 12.980,8.000 12.979 C 8.213 12.979,8.341 12.957,8.440 12.905 C 8.517 12.864,9.124 12.290,9.789 11.628 L 10.998 10.424 11.009 13.365 L 11.020 16.306 11.141 16.503 C 11.209 16.613,11.346 16.756,11.452 16.828 C 11.923 17.144,12.554 16.999,12.859 16.503 L 12.980 16.306 12.991 13.365 L 13.002 10.424 14.211 11.628 C 14.876 12.290,15.483 12.864,15.560 12.905 C 15.659 12.957,15.787 12.979,16.000 12.979 C 16.258 12.980,16.327 12.964,16.492 12.867 C 16.968 12.587,17.138 11.968,16.866 11.508 C 16.811 11.416,15.815 10.393,14.653 9.235 C 12.748 7.338,12.521 7.124,12.343 7.065 C 12.102 6.985,11.878 6.986,11.640 7.068 " stroke="none" fill-rule="evenodd" fill="black"></path></svg>