<svg width="24" height="24" viewBox="0 0 24 24" fill="none" xmlns="http://www.w3.org/2000/svg"><path d="M11.280 1.023 C 11.203 1.032,10.951 1.059,10.720 1.083 C 8.832 1.283,6.991 2.023,5.360 3.235 C 4.751 3.688,3.684 4.755,3.226 5.367 C 1.361 7.866,0.630 10.937,1.176 13.980 C 1.716 16.990,3.599 19.744,6.215 21.353 C 6.707 21.656,6.939 21.715,7.262 21.621 C 7.518 21.547,7.764 21.344,7.892 21.103 C 7.956 20.981,7.978 20.869,7.978 20.660 C 7.978 20.210,7.821 19.987,7.276 19.659 C 5.891 18.827,4.676 17.481,3.920 15.943 C 3.284 14.648,3.025 13.508,3.024 12.000 C 3.022 10.510,3.279 9.380,3.920 8.060 C 4.799 6.247,6.247 4.799,8.060 3.920 C 9.379 3.280,10.507 3.023,12.000 3.023 C 13.493 3.023,14.621 3.280,15.940 3.920 C 17.753 4.799,19.201 6.247,20.080 8.060 C 20.721 9.380,20.978 10.510,20.976 12.000 C 20.975 13.488,20.714 14.650,20.102 15.900 C 19.193 17.755,17.820 19.146,15.999 20.058 C 15.422 20.346,15.207 20.393,14.799 20.321 C 14.265 20.226,13.525 19.754,13.293 19.360 C 13.012 18.882,13.025 19.114,13.010 14.540 L 12.996 10.420 14.208 11.626 C 14.875 12.289,15.481 12.862,15.555 12.899 C 16.009 13.128,16.601 12.944,16.867 12.492 C 16.964 12.327,16.980 12.257,16.980 12.000 C 16.980 11.746,16.963 11.672,16.873 11.520 C 16.813 11.419,15.834 10.412,14.653 9.235 C 12.748 7.338,12.521 7.124,12.343 7.065 C 12.094 6.983,11.906 6.983,11.657 7.065 C 11.479 7.124,11.252 7.338,9.347 9.235 C 8.166 10.412,7.187 11.419,7.127 11.520 C 7.037 11.672,7.020 11.746,7.020 12.000 C 7.020 12.257,7.036 12.327,7.133 12.492 C 7.263 12.714,7.502 12.901,7.736 12.965 C 7.939 13.019,8.267 12.989,8.445 12.899 C 8.519 12.862,9.124 12.290,9.788 11.629 L 10.996 10.426 11.010 14.623 C 11.025 18.706,11.027 18.830,11.108 19.185 C 11.289 19.975,11.620 20.581,12.143 21.077 C 13.085 21.972,14.336 22.442,15.453 22.320 C 15.953 22.266,16.281 22.155,16.940 21.821 C 18.000 21.282,18.802 20.713,19.615 19.921 C 20.270 19.284,20.672 18.804,21.142 18.100 C 22.746 15.695,23.331 12.881,22.820 10.038 C 22.518 8.358,21.824 6.775,20.770 5.363 C 20.316 4.755,19.247 3.686,18.640 3.235 C 17.045 2.049,15.365 1.360,13.423 1.096 C 13.000 1.038,11.574 0.990,11.280 1.023 " stroke="none" fill-rule="evenodd" fill="black"></path></svg>