<svg width="24" height="24" viewBox="0 0 24 24" fill="none" xmlns="http://www.w3.org/2000/svg"><path d="M8.840 2.028 C 6.112 2.233,3.569 3.821,2.173 6.190 C 0.437 9.134,0.650 12.873,2.708 15.606 C 2.876 15.829,3.159 16.159,3.337 16.340 C 3.600 16.608,3.700 16.682,3.875 16.740 C 4.704 17.010,5.471 16.131,5.079 15.360 C 5.040 15.283,4.896 15.094,4.759 14.940 C 4.053 14.144,3.590 13.353,3.308 12.459 C 2.916 11.216,2.916 9.784,3.308 8.541 C 3.857 6.801,5.163 5.333,6.828 4.585 C 7.574 4.250,8.146 4.107,9.029 4.034 C 10.488 3.912,11.874 4.282,13.160 5.135 C 13.777 5.544,14.477 6.260,14.939 6.953 C 15.522 7.828,15.722 7.938,16.903 8.038 C 18.206 8.148,19.324 8.778,20.128 9.857 C 21.087 11.142,21.259 12.955,20.561 14.418 C 20.322 14.918,20.031 15.318,19.593 15.749 C 19.374 15.964,19.158 16.210,19.114 16.295 C 18.778 16.940,19.267 17.733,20.000 17.733 C 20.329 17.733,20.533 17.621,20.978 17.195 C 21.982 16.236,22.612 15.084,22.890 13.700 C 23.004 13.131,23.014 11.981,22.910 11.420 C 22.458 8.986,20.820 7.094,18.500 6.325 C 18.044 6.174,17.650 6.094,17.120 6.044 C 16.890 6.022,16.696 5.987,16.688 5.965 C 16.681 5.943,16.574 5.784,16.452 5.612 C 15.527 4.319,14.379 3.379,12.922 2.723 C 11.713 2.179,10.216 1.924,8.840 2.028 M11.660 11.066 C 11.475 11.122,11.303 11.284,9.347 13.233 C 8.185 14.392,7.189 15.416,7.134 15.508 C 6.862 15.968,7.032 16.587,7.508 16.867 C 7.673 16.964,7.742 16.980,8.000 16.979 C 8.213 16.979,8.341 16.957,8.440 16.905 C 8.517 16.864,9.124 16.289,9.789 15.627 L 10.998 14.423 11.009 17.865 L 11.020 21.306 11.141 21.503 C 11.543 22.156,12.457 22.156,12.859 21.503 L 12.980 21.306 12.991 17.865 L 13.002 14.423 14.211 15.627 C 14.876 16.289,15.483 16.864,15.560 16.905 C 15.659 16.957,15.787 16.979,16.000 16.979 C 16.258 16.980,16.327 16.964,16.492 16.867 C 16.968 16.587,17.138 15.968,16.866 15.508 C 16.811 15.416,15.815 14.392,14.653 13.234 C 12.621 11.208,12.532 11.125,12.323 11.064 C 12.059 10.986,11.922 10.987,11.660 11.066 " stroke="none" fill-rule="evenodd" fill="black"></path></svg>