<svg width="24" height="24" viewBox="0 0 24 24" fill="none" xmlns="http://www.w3.org/2000/svg"><path d="M6.686 1.041 C 6.070 1.132,5.487 1.551,5.222 2.093 C 5.008 2.529,5.001 2.637,5.001 5.520 L 5.000 8.180 4.810 8.256 C 4.333 8.449,3.831 8.860,3.527 9.310 C 3.320 9.614,3.220 9.841,3.109 10.260 C 3.025 10.575,3.023 10.646,3.009 14.600 C 2.993 19.193,3.006 19.525,3.245 20.320 C 3.575 21.421,4.578 22.423,5.680 22.755 C 6.460 22.990,6.716 23.000,12.000 23.000 C 17.284 23.000,17.540 22.990,18.320 22.755 C 19.422 22.423,20.425 21.421,20.755 20.320 C 20.994 19.524,21.007 19.193,20.991 14.600 C 20.976 10.650,20.975 10.574,20.891 10.260 C 20.780 9.841,20.680 9.614,20.473 9.310 C 20.169 8.860,19.667 8.449,19.190 8.256 L 19.000 8.180 18.999 5.520 C 18.999 2.637,18.992 2.529,18.778 2.093 C 18.567 1.660,18.141 1.295,17.635 1.112 L 17.380 1.020 12.140 1.014 C 9.258 1.011,6.804 1.023,6.686 1.041 M17.000 5.500 L 17.000 8.000 12.000 8.000 L 7.000 8.000 7.000 5.500 L 7.000 3.000 12.000 3.000 L 17.000 3.000 17.000 5.500 M9.695 4.057 C 9.466 4.129,9.256 4.299,9.128 4.516 C 9.020 4.699,9.020 4.703,9.020 5.503 L 9.020 6.306 9.141 6.503 C 9.543 7.156,10.457 7.156,10.859 6.503 L 10.980 6.306 10.980 5.503 C 10.980 4.703,10.980 4.699,10.872 4.516 C 10.628 4.101,10.150 3.915,9.695 4.057 M13.695 4.057 C 13.466 4.129,13.256 4.299,13.128 4.516 C 13.020 4.699,13.020 4.703,13.020 5.503 L 13.020 6.306 13.141 6.503 C 13.543 7.156,14.457 7.156,14.859 6.503 L 14.980 6.306 14.980 5.503 C 14.980 4.703,14.980 4.699,14.872 4.516 C 14.628 4.101,14.150 3.915,13.695 4.057 M18.374 10.074 C 18.586 10.145,18.863 10.432,18.928 10.646 C 18.969 10.785,18.980 11.664,18.980 15.000 C 18.979 19.555,18.983 19.478,18.752 19.952 C 18.626 20.211,18.190 20.638,17.918 20.768 C 17.471 20.983,17.547 20.980,12.000 20.980 C 6.462 20.980,6.533 20.983,6.082 20.771 C 5.812 20.643,5.377 20.217,5.248 19.952 C 5.026 19.495,5.028 19.548,5.011 15.275 C 4.993 11.006,5.004 10.699,5.179 10.434 C 5.333 10.202,5.547 10.080,5.866 10.042 C 6.017 10.024,8.858 10.012,12.180 10.016 C 17.006 10.021,18.251 10.033,18.374 10.074 " stroke="none" fill-rule="evenodd" fill="black"></path></svg>