<svg width="24" height="24" viewBox="0 0 24 24" fill="none" xmlns="http://www.w3.org/2000/svg"><path d="M18.670 2.061 C 18.448 2.142,18.250 2.309,18.128 2.516 C 18.036 2.672,18.020 2.745,18.021 3.000 C 18.021 3.213,18.043 3.340,18.096 3.440 C 18.136 3.517,18.486 3.900,18.873 4.290 L 19.577 5.000 17.735 5.000 C 15.735 5.000,15.663 5.007,15.382 5.221 C 15.302 5.282,15.187 5.415,15.128 5.516 C 15.037 5.672,15.020 5.746,15.020 6.000 C 15.020 6.256,15.036 6.328,15.131 6.489 C 15.256 6.702,15.449 6.864,15.670 6.943 C 15.787 6.985,16.234 6.997,17.699 6.998 L 19.577 7.000 18.873 7.710 C 18.486 8.101,18.139 8.481,18.101 8.555 C 17.872 9.008,18.056 9.601,18.508 9.867 C 18.673 9.964,18.742 9.980,19.000 9.979 C 19.212 9.979,19.341 9.957,19.440 9.905 C 19.632 9.804,22.739 6.704,22.873 6.480 C 22.964 6.328,22.980 6.254,22.980 6.000 C 22.980 5.746,22.963 5.672,22.873 5.520 C 22.814 5.421,22.040 4.618,21.153 3.736 C 19.714 2.305,19.519 2.124,19.343 2.066 C 19.108 1.987,18.875 1.986,18.670 2.061 M8.560 3.024 C 7.294 3.181,6.235 3.760,5.475 4.711 C 4.017 6.537,4.233 9.244,5.963 10.814 C 7.494 12.203,9.757 12.387,11.460 11.259 C 14.341 9.351,14.117 5.078,11.054 3.511 C 10.637 3.298,10.338 3.191,9.903 3.102 C 9.584 3.036,8.822 2.992,8.560 3.024 M9.720 5.102 C 10.103 5.216,10.404 5.404,10.742 5.740 C 11.264 6.259,11.479 6.771,11.479 7.500 C 11.479 8.226,11.265 8.737,10.742 9.264 C 10.501 9.506,10.345 9.624,10.120 9.734 C 9.600 9.989,9.029 10.059,8.460 9.940 C 7.577 9.755,6.786 8.984,6.580 8.110 C 6.505 7.790,6.505 7.210,6.580 6.890 C 6.793 5.989,7.620 5.206,8.534 5.041 C 8.816 4.990,9.453 5.023,9.720 5.102 M4.920 14.040 C 4.667 14.057,4.343 14.092,4.200 14.118 C 3.027 14.326,1.999 15.086,1.465 16.141 C 1.075 16.909,0.988 17.616,1.007 19.843 L 1.020 21.306 1.141 21.503 C 1.543 22.156,2.457 22.156,2.859 21.503 L 2.980 21.306 3.007 19.543 C 3.036 17.666,3.058 17.437,3.248 17.048 C 3.366 16.806,3.806 16.366,4.048 16.248 C 4.524 16.016,4.443 16.020,9.000 16.020 C 13.557 16.020,13.476 16.016,13.952 16.248 C 14.194 16.366,14.634 16.806,14.752 17.048 C 14.942 17.437,14.964 17.666,14.993 19.543 L 15.020 21.306 15.141 21.503 C 15.543 22.156,16.457 22.156,16.859 21.503 L 16.980 21.306 16.993 19.843 C 17.012 17.616,16.925 16.909,16.535 16.141 C 16.088 15.259,15.267 14.557,14.320 14.246 C 13.667 14.032,13.571 14.027,9.320 14.018 C 7.153 14.013,5.173 14.023,4.920 14.040 " stroke="none" fill-rule="evenodd" fill="black"></path></svg>