<svg width="24" height="24" viewBox="0 0 24 24" fill="none" xmlns="http://www.w3.org/2000/svg"><path d="M8.891 2.044 C 7.010 2.263,5.391 3.587,4.759 5.422 C 4.421 6.405,4.431 7.666,4.786 8.649 C 5.326 10.146,6.459 11.256,7.944 11.742 C 11.179 12.802,14.486 10.404,14.486 7.000 C 14.486 3.996,11.888 1.695,8.891 2.044 M15.270 2.322 C 14.644 2.476,14.323 3.185,14.620 3.760 C 14.723 3.959,14.918 4.115,15.320 4.322 C 15.929 4.635,16.387 5.088,16.673 5.660 C 16.856 6.028,16.920 6.257,16.967 6.717 C 16.991 6.950,17.026 7.205,17.045 7.284 C 17.096 7.495,17.290 7.739,17.508 7.867 C 17.673 7.964,17.743 7.980,18.000 7.980 C 18.257 7.980,18.327 7.964,18.492 7.867 C 18.714 7.737,18.901 7.498,18.965 7.264 C 19.021 7.060,18.988 6.412,18.901 6.000 C 18.707 5.074,18.284 4.268,17.626 3.571 C 17.204 3.124,16.778 2.811,16.225 2.540 C 15.757 2.311,15.528 2.258,15.270 2.322 M10.271 4.095 C 11.331 4.387,12.204 5.292,12.421 6.323 C 12.499 6.695,12.496 7.332,12.415 7.692 C 12.163 8.812,11.250 9.701,10.111 9.936 C 8.936 10.179,7.755 9.715,7.054 8.734 C 6.684 8.216,6.520 7.683,6.520 7.000 C 6.520 6.186,6.766 5.543,7.299 4.965 C 7.670 4.562,8.322 4.179,8.800 4.084 C 8.921 4.060,9.056 4.032,9.100 4.022 C 9.252 3.987,10.061 4.037,10.271 4.095 M19.980 10.638 C 19.730 10.692,19.407 10.831,19.184 10.980 C 19.072 11.055,17.357 12.742,15.374 14.728 C 11.499 18.609,11.616 18.480,11.483 19.020 C 11.356 19.533,11.000 21.394,11.001 21.538 C 11.002 21.837,11.253 22.239,11.526 22.382 C 11.584 22.413,11.716 22.457,11.819 22.480 C 11.987 22.517,12.145 22.494,13.307 22.261 C 14.313 22.060,14.667 21.973,14.873 21.876 C 15.123 21.759,15.374 21.517,18.786 18.110 C 21.593 15.307,22.465 14.413,22.577 14.225 C 23.338 12.942,22.742 11.272,21.331 10.734 C 21.109 10.649,20.977 10.628,20.600 10.617 C 20.347 10.610,20.068 10.619,19.980 10.638 M20.696 12.646 C 20.832 12.708,20.933 12.929,20.899 13.092 C 20.878 13.194,20.172 13.921,17.446 16.649 L 14.020 20.079 13.650 20.154 C 13.447 20.196,13.281 20.218,13.282 20.205 C 13.282 20.191,13.317 20.020,13.358 19.824 L 13.432 19.468 16.786 16.110 C 18.631 14.263,20.194 12.718,20.260 12.676 C 20.396 12.590,20.550 12.579,20.696 12.646 M5.860 14.042 C 4.946 14.094,4.339 14.242,3.725 14.563 C 2.745 15.075,1.995 15.834,1.523 16.788 C 1.117 17.612,0.982 18.548,1.007 20.363 L 1.020 21.307 1.141 21.503 C 1.543 22.156,2.457 22.156,2.859 21.503 L 2.980 21.306 3.007 20.036 C 3.037 18.680,3.089 18.201,3.249 17.826 C 3.542 17.142,3.985 16.666,4.631 16.342 C 5.232 16.040,5.695 16.003,8.880 15.999 C 10.695 15.997,11.212 15.985,11.330 15.943 C 11.551 15.864,11.744 15.702,11.869 15.489 C 11.964 15.328,11.980 15.256,11.980 15.000 C 11.980 14.746,11.963 14.672,11.872 14.516 C 11.813 14.415,11.698 14.282,11.618 14.221 C 11.329 14.001,11.311 13.999,8.744 14.006 C 7.444 14.009,6.146 14.025,5.860 14.042 " stroke="none" fill-rule="evenodd" fill="black"></path></svg>