<svg width="24" height="24" viewBox="0 0 24 24" fill="none" xmlns="http://www.w3.org/2000/svg"><path d="M8.891 2.044 C 7.010 2.263,5.391 3.587,4.759 5.422 C 4.421 6.405,4.431 7.666,4.786 8.649 C 5.326 10.146,6.459 11.256,7.944 11.742 C 11.179 12.802,14.486 10.404,14.486 7.000 C 14.486 3.996,11.888 1.695,8.891 2.044 M15.270 2.322 C 14.644 2.476,14.323 3.185,14.620 3.760 C 14.723 3.959,14.918 4.115,15.320 4.322 C 15.929 4.635,16.387 5.088,16.673 5.660 C 16.845 6.006,16.911 6.228,16.964 6.638 C 17.085 7.584,16.750 8.512,16.044 9.180 C 15.787 9.424,15.617 9.538,15.239 9.723 C 15.072 9.805,14.874 9.932,14.801 10.005 C 14.268 10.538,14.500 11.454,15.220 11.662 C 15.532 11.753,15.755 11.709,16.253 11.458 C 17.631 10.764,18.622 9.444,18.925 7.900 C 18.997 7.533,18.997 6.467,18.925 6.100 C 18.736 5.135,18.298 4.284,17.626 3.571 C 17.204 3.124,16.778 2.811,16.225 2.540 C 15.757 2.311,15.528 2.258,15.270 2.322 M10.271 4.095 C 11.331 4.387,12.204 5.292,12.421 6.323 C 12.499 6.695,12.496 7.332,12.415 7.692 C 12.163 8.812,11.250 9.701,10.111 9.936 C 8.936 10.179,7.755 9.715,7.054 8.734 C 6.684 8.216,6.520 7.683,6.520 7.000 C 6.520 6.186,6.766 5.543,7.299 4.965 C 7.670 4.562,8.322 4.179,8.800 4.084 C 8.921 4.060,9.056 4.032,9.100 4.022 C 9.252 3.987,10.061 4.037,10.271 4.095 M5.860 14.042 C 4.946 14.094,4.339 14.242,3.725 14.563 C 2.745 15.075,1.995 15.834,1.523 16.788 C 1.117 17.612,0.982 18.548,1.007 20.363 L 1.020 21.307 1.141 21.503 C 1.543 22.156,2.457 22.156,2.859 21.503 L 2.980 21.306 3.007 20.036 C 3.037 18.680,3.089 18.201,3.249 17.826 C 3.542 17.142,3.985 16.666,4.631 16.342 C 5.248 16.032,5.658 16.003,9.380 15.999 C 11.613 15.997,12.210 15.986,12.330 15.943 C 12.551 15.864,12.744 15.702,12.869 15.489 C 12.964 15.328,12.980 15.256,12.980 15.000 C 12.980 14.746,12.963 14.672,12.872 14.516 C 12.813 14.415,12.698 14.282,12.618 14.221 C 12.325 13.998,12.354 13.999,9.244 14.006 C 7.669 14.009,6.146 14.025,5.860 14.042 M18.695 14.057 C 18.466 14.129,18.256 14.299,18.128 14.516 L 18.020 14.700 18.009 16.635 L 17.997 18.571 17.269 17.852 C 16.655 17.247,16.509 17.123,16.343 17.067 C 15.865 16.905,15.383 17.083,15.128 17.516 C 15.037 17.672,15.020 17.746,15.020 18.000 C 15.020 18.254,15.036 18.328,15.127 18.480 C 15.261 18.704,18.368 21.804,18.560 21.905 C 18.754 22.007,19.246 22.007,19.440 21.905 C 19.632 21.804,22.739 18.704,22.873 18.480 C 22.964 18.328,22.980 18.254,22.980 18.000 C 22.980 17.746,22.963 17.672,22.872 17.516 C 22.617 17.083,22.135 16.905,21.657 17.067 C 21.491 17.123,21.345 17.247,20.731 17.852 L 20.003 18.571 19.991 16.635 L 19.980 14.700 19.872 14.516 C 19.628 14.101,19.150 13.915,18.695 14.057 " stroke="none" fill-rule="evenodd" fill="black"></path></svg>