<svg width="24" height="24" viewBox="0 0 24 24" fill="none" xmlns="http://www.w3.org/2000/svg"><path d="M9.365 2.046 C 7.606 2.230,5.999 3.335,5.125 4.963 C 4.422 6.272,4.316 7.957,4.845 9.407 C 5.403 10.937,6.697 12.188,8.265 12.713 C 10.184 13.356,12.321 12.878,13.775 11.481 C 14.793 10.503,15.366 9.309,15.475 7.934 C 15.607 6.273,15.009 4.708,13.795 3.539 C 12.611 2.398,11.044 1.870,9.365 2.046 M10.900 4.117 C 11.835 4.358,12.672 5.045,13.120 5.940 C 13.413 6.525,13.460 6.737,13.460 7.500 C 13.460 8.263,13.413 8.476,13.120 9.060 C 12.679 9.940,11.923 10.577,10.980 10.864 C 10.654 10.964,10.562 10.974,10.000 10.974 C 9.439 10.974,9.346 10.964,9.020 10.865 C 7.848 10.509,6.935 9.574,6.611 8.397 C 6.557 8.201,6.540 7.989,6.540 7.500 C 6.540 6.808,6.582 6.571,6.789 6.103 C 7.174 5.229,8.001 4.467,8.874 4.181 C 9.476 3.984,10.283 3.958,10.900 4.117 M5.540 14.546 C 4.726 14.643,4.324 14.756,3.732 15.055 C 3.242 15.302,2.841 15.595,2.442 15.999 C 1.735 16.712,1.260 17.626,1.092 18.595 C 1.040 18.892,1.024 19.247,1.022 20.143 L 1.020 21.306 1.141 21.503 C 1.543 22.156,2.457 22.156,2.859 21.503 L 2.980 21.306 3.006 20.203 C 3.037 18.940,3.077 18.676,3.316 18.185 C 3.604 17.594,4.067 17.128,4.670 16.825 C 5.255 16.531,5.041 16.546,8.820 16.522 C 11.981 16.502,12.231 16.495,12.380 16.428 C 12.736 16.268,12.999 15.873,12.999 15.500 C 12.999 15.255,12.864 14.951,12.675 14.772 C 12.396 14.507,12.583 14.519,8.951 14.526 C 7.141 14.529,5.606 14.538,5.540 14.546 M15.695 17.057 C 15.466 17.129,15.256 17.299,15.128 17.516 C 15.037 17.672,15.020 17.746,15.020 18.000 C 15.020 18.256,15.036 18.328,15.131 18.489 C 15.256 18.702,15.449 18.864,15.670 18.943 C 15.891 19.022,22.109 19.022,22.330 18.943 C 22.551 18.864,22.744 18.702,22.869 18.489 C 22.964 18.328,22.980 18.256,22.980 18.000 C 22.980 17.746,22.963 17.672,22.872 17.516 C 22.740 17.293,22.533 17.128,22.290 17.055 C 22.030 16.977,15.945 16.979,15.695 17.057 " stroke="none" fill-rule="evenodd" fill="black"></path></svg>