<svg width="24" height="24" viewBox="0 0 24 24" fill="none" xmlns="http://www.w3.org/2000/svg"><path d="M9.365 2.046 C 7.606 2.230,5.999 3.335,5.125 4.963 C 4.422 6.272,4.316 7.957,4.845 9.407 C 5.403 10.937,6.697 12.188,8.265 12.713 C 10.184 13.356,12.321 12.878,13.775 11.481 C 14.793 10.503,15.366 9.309,15.475 7.934 C 15.607 6.273,15.009 4.708,13.795 3.539 C 12.611 2.398,11.044 1.870,9.365 2.046 M10.900 4.117 C 11.835 4.358,12.672 5.045,13.120 5.940 C 13.413 6.525,13.460 6.737,13.460 7.500 C 13.460 8.263,13.413 8.476,13.120 9.060 C 12.679 9.940,11.923 10.577,10.980 10.864 C 10.654 10.964,10.562 10.974,10.000 10.974 C 9.439 10.974,9.346 10.964,9.020 10.865 C 7.848 10.509,6.935 9.574,6.611 8.397 C 6.557 8.201,6.540 7.989,6.540 7.500 C 6.540 6.808,6.582 6.571,6.789 6.103 C 7.174 5.229,8.001 4.467,8.874 4.181 C 9.476 3.984,10.283 3.958,10.900 4.117 M5.540 14.546 C 4.726 14.643,4.324 14.756,3.732 15.055 C 3.242 15.302,2.841 15.595,2.442 15.999 C 1.735 16.712,1.260 17.626,1.092 18.595 C 1.040 18.892,1.024 19.247,1.022 20.143 L 1.020 21.306 1.141 21.503 C 1.543 22.156,2.457 22.156,2.859 21.503 L 2.980 21.306 3.006 20.203 C 3.037 18.940,3.077 18.676,3.316 18.185 C 3.604 17.594,4.067 17.128,4.670 16.825 C 5.255 16.531,5.041 16.546,8.820 16.522 C 11.981 16.502,12.231 16.495,12.380 16.428 C 12.736 16.268,12.999 15.873,12.999 15.500 C 12.999 15.255,12.864 14.951,12.675 14.772 C 12.396 14.507,12.583 14.519,8.951 14.526 C 7.141 14.529,5.606 14.538,5.540 14.546 M21.640 15.068 C 21.488 15.121,21.196 15.394,19.731 16.853 L 18.002 18.575 17.271 17.855 C 16.655 17.247,16.509 17.123,16.343 17.067 C 15.865 16.905,15.383 17.083,15.128 17.516 C 15.036 17.672,15.020 17.745,15.021 18.000 C 15.021 18.213,15.043 18.341,15.095 18.440 C 15.197 18.633,17.297 20.740,17.520 20.873 C 17.673 20.964,17.745 20.980,18.000 20.979 C 18.212 20.979,18.341 20.957,18.440 20.905 C 18.632 20.805,22.739 16.705,22.873 16.480 C 22.964 16.328,22.980 16.254,22.980 16.000 C 22.980 15.746,22.963 15.672,22.872 15.516 C 22.617 15.083,22.121 14.903,21.640 15.068 " stroke="none" fill-rule="evenodd" fill="black"></path></svg>