<svg width="24" height="24" viewBox="0 0 24 24" fill="none" xmlns="http://www.w3.org/2000/svg"><path d="M8.860 2.047 C 7.632 2.185,6.479 2.751,5.579 3.659 C 3.483 5.771,3.480 9.201,5.573 11.333 C 7.170 12.960,9.501 13.436,11.624 12.570 C 12.899 12.049,14.049 10.899,14.570 9.624 C 15.316 7.797,15.073 5.798,13.915 4.237 C 12.740 2.652,10.830 1.825,8.860 2.047 M15.600 2.563 C 15.120 2.781,14.901 3.270,15.060 3.774 C 15.145 4.045,15.308 4.217,15.695 4.445 C 16.100 4.683,16.346 4.883,16.613 5.191 C 17.200 5.867,17.480 6.614,17.480 7.500 C 17.480 8.794,16.806 9.937,15.669 10.574 C 15.321 10.768,15.144 10.958,15.060 11.226 C 14.938 11.613,15.043 12.014,15.333 12.269 C 15.668 12.563,16.111 12.596,16.562 12.362 C 17.790 11.725,18.775 10.565,19.216 9.240 C 19.412 8.649,19.488 8.164,19.488 7.500 C 19.488 6.561,19.290 5.746,18.868 4.948 C 18.349 3.966,17.460 3.082,16.542 2.635 C 16.165 2.451,15.893 2.430,15.600 2.563 M10.405 4.115 C 11.375 4.366,12.232 5.094,12.678 6.046 C 12.906 6.532,12.978 6.881,12.978 7.500 C 12.978 8.119,12.906 8.468,12.678 8.954 C 12.223 9.925,11.401 10.617,10.360 10.905 C 9.993 11.007,9.007 11.007,8.640 10.905 C 7.622 10.623,6.820 9.960,6.342 9.005 C 6.095 8.513,6.028 8.191,6.028 7.500 C 6.028 7.017,6.044 6.840,6.111 6.595 C 6.467 5.286,7.615 4.251,8.942 4.042 C 9.297 3.986,10.050 4.024,10.405 4.115 M8.680 15.043 C 6.557 15.241,4.658 16.086,2.874 17.627 C 2.094 18.302,1.169 19.351,1.057 19.690 C 0.828 20.378,1.384 21.062,2.109 20.987 C 2.429 20.955,2.608 20.828,3.018 20.341 C 4.652 18.405,6.618 17.277,8.768 17.042 C 11.356 16.760,13.968 17.954,15.982 20.341 C 16.392 20.828,16.571 20.955,16.891 20.987 C 17.616 21.062,18.172 20.378,17.943 19.690 C 17.855 19.424,17.384 18.854,16.663 18.140 C 14.378 15.878,11.539 14.776,8.680 15.043 M17.773 15.796 C 17.291 15.918,16.962 16.379,17.012 16.861 C 17.055 17.279,17.240 17.499,17.771 17.766 C 18.976 18.370,20.088 19.263,20.993 20.353 C 21.379 20.817,21.573 20.955,21.888 20.987 C 22.447 21.044,22.931 20.657,22.988 20.107 C 23.022 19.774,22.930 19.558,22.560 19.109 C 21.643 17.999,20.601 17.093,19.453 16.409 C 18.566 15.881,18.105 15.713,17.773 15.796 " stroke="none" fill-rule="evenodd" fill="black"></path></svg>