<svg width="24" height="24" viewBox="0 0 24 24" fill="none" xmlns="http://www.w3.org/2000/svg"><path d="M4.920 1.041 C 4.152 1.092,3.672 1.205,3.180 1.451 C 2.089 1.996,1.357 2.961,1.124 4.160 C 1.012 4.738,1.000 5.470,1.000 12.000 C 1.000 19.433,1.002 19.515,1.245 20.320 C 1.588 21.461,2.646 22.486,3.800 22.795 C 4.499 22.983,4.359 22.980,12.000 22.980 C 19.641 22.980,19.501 22.983,20.200 22.795 C 21.354 22.485,22.412 21.461,22.755 20.320 C 22.998 19.515,23.000 19.433,23.000 12.000 C 23.000 4.567,22.998 4.485,22.755 3.680 C 22.424 2.581,21.465 1.622,20.320 1.246 C 19.635 1.021,19.900 1.028,12.340 1.019 C 8.512 1.014,5.173 1.024,4.920 1.041 M19.492 3.091 C 19.894 3.188,20.110 3.309,20.400 3.600 C 20.696 3.895,20.814 4.109,20.912 4.528 C 20.975 4.798,20.980 5.368,20.980 11.960 C 20.980 17.758,20.970 19.155,20.926 19.390 C 20.897 19.549,20.860 19.680,20.845 19.680 C 20.829 19.680,20.795 19.600,20.769 19.503 C 20.606 18.893,20.158 18.135,19.634 17.581 C 18.740 16.637,17.679 16.134,16.380 16.041 C 15.648 15.988,8.355 15.988,7.625 16.041 C 6.984 16.087,6.569 16.182,6.051 16.402 C 5.378 16.689,4.866 17.049,4.345 17.603 C 3.837 18.142,3.391 18.903,3.231 19.503 C 3.205 19.600,3.171 19.680,3.155 19.680 C 3.140 19.680,3.103 19.550,3.074 19.390 C 3.030 19.155,3.020 17.758,3.020 11.960 C 3.020 5.368,3.025 4.798,3.088 4.528 C 3.175 4.155,3.294 3.918,3.520 3.667 C 3.883 3.262,4.282 3.090,4.980 3.039 C 5.200 3.023,8.494 3.013,12.300 3.017 C 18.585 3.024,19.245 3.031,19.492 3.091 M11.100 4.586 C 9.789 4.823,8.565 5.635,7.822 6.761 C 7.150 7.780,6.870 9.071,7.061 10.262 C 7.599 13.603,11.169 15.457,14.213 13.977 C 15.037 13.576,15.807 12.864,16.294 12.053 C 17.267 10.432,17.221 8.343,16.178 6.761 C 15.424 5.618,14.200 4.815,12.860 4.583 C 12.414 4.505,11.539 4.507,11.100 4.586 M12.677 6.579 C 13.730 6.801,14.655 7.714,14.925 8.800 C 14.996 9.086,14.996 9.914,14.925 10.200 C 14.657 11.278,13.754 12.176,12.689 12.424 C 12.340 12.506,11.660 12.506,11.311 12.424 C 10.425 12.218,9.674 11.598,9.282 10.749 C 9.070 10.291,9.021 10.056,9.021 9.500 C 9.021 8.944,9.070 8.709,9.282 8.251 C 9.671 7.409,10.443 6.769,11.293 6.582 C 11.630 6.508,12.332 6.507,12.677 6.579 M16.804 18.109 C 17.112 18.206,17.489 18.387,17.729 18.554 C 17.921 18.688,18.343 19.114,18.475 19.307 C 18.737 19.692,18.941 20.274,18.971 20.727 C 18.984 20.930,18.977 20.957,18.903 20.977 C 18.794 21.006,5.206 21.006,5.097 20.977 C 5.023 20.957,5.016 20.930,5.029 20.727 C 5.061 20.251,5.264 19.687,5.554 19.271 C 5.688 19.079,6.114 18.657,6.307 18.526 C 6.695 18.260,7.164 18.090,7.640 18.041 C 7.805 18.024,9.875 18.014,12.240 18.018 C 16.459 18.026,16.545 18.028,16.804 18.109 " stroke="none" fill-rule="evenodd" fill="black"></path></svg>