<svg width="24" height="24" viewBox="0 0 24 24" fill="none" xmlns="http://www.w3.org/2000/svg"><path d="M18.640 2.069 C 18.488 2.121,18.208 2.381,16.847 3.735 C 15.960 4.618,15.186 5.421,15.127 5.520 C 15.037 5.672,15.020 5.746,15.020 6.000 C 15.020 6.254,15.036 6.328,15.127 6.480 C 15.261 6.704,18.371 9.807,18.555 9.899 C 19.009 10.128,19.601 9.944,19.867 9.492 C 19.964 9.327,19.980 9.258,19.979 9.000 C 19.979 8.787,19.957 8.660,19.904 8.560 C 19.864 8.483,19.514 8.101,19.127 7.710 L 18.423 7.000 20.301 6.998 C 21.766 6.997,22.213 6.985,22.330 6.943 C 22.551 6.864,22.744 6.702,22.869 6.489 C 22.964 6.328,22.980 6.256,22.980 6.000 C 22.980 5.746,22.963 5.672,22.872 5.516 C 22.813 5.415,22.698 5.282,22.618 5.221 C 22.337 5.007,22.265 5.000,20.265 5.000 L 18.423 5.000 19.127 4.290 C 19.514 3.900,19.864 3.517,19.904 3.440 C 19.957 3.340,19.979 3.213,19.979 3.000 C 19.980 2.745,19.964 2.672,19.872 2.516 C 19.617 2.083,19.121 1.902,18.640 2.069 M8.560 3.024 C 7.294 3.181,6.235 3.760,5.475 4.711 C 4.017 6.537,4.233 9.244,5.963 10.814 C 7.494 12.203,9.757 12.387,11.460 11.259 C 14.341 9.351,14.117 5.078,11.054 3.511 C 10.637 3.298,10.338 3.191,9.903 3.102 C 9.584 3.036,8.822 2.992,8.560 3.024 M9.720 5.102 C 10.103 5.216,10.404 5.404,10.742 5.740 C 11.264 6.259,11.479 6.771,11.479 7.500 C 11.479 8.226,11.265 8.737,10.742 9.264 C 10.501 9.506,10.345 9.624,10.120 9.734 C 9.600 9.989,9.029 10.059,8.460 9.940 C 7.577 9.755,6.786 8.984,6.580 8.110 C 6.505 7.790,6.505 7.210,6.580 6.890 C 6.793 5.989,7.620 5.206,8.534 5.041 C 8.816 4.990,9.453 5.023,9.720 5.102 M4.920 14.040 C 4.667 14.057,4.343 14.092,4.200 14.118 C 3.027 14.326,1.999 15.086,1.465 16.141 C 1.075 16.909,0.988 17.616,1.007 19.843 L 1.020 21.306 1.141 21.503 C 1.543 22.156,2.457 22.156,2.859 21.503 L 2.980 21.306 3.007 19.543 C 3.036 17.666,3.058 17.437,3.248 17.048 C 3.366 16.806,3.806 16.366,4.048 16.248 C 4.524 16.016,4.443 16.020,9.000 16.020 C 13.557 16.020,13.476 16.016,13.952 16.248 C 14.194 16.366,14.634 16.806,14.752 17.048 C 14.942 17.437,14.964 17.666,14.993 19.543 L 15.020 21.306 15.141 21.503 C 15.543 22.156,16.457 22.156,16.859 21.503 L 16.980 21.306 16.993 19.843 C 17.012 17.616,16.925 16.909,16.535 16.141 C 16.088 15.259,15.267 14.557,14.320 14.246 C 13.667 14.032,13.571 14.027,9.320 14.018 C 7.153 14.013,5.173 14.023,4.920 14.040 " stroke="none" fill-rule="evenodd" fill="black"></path></svg>