<svg width="24" height="24" viewBox="0 0 24 24" fill="none" xmlns="http://www.w3.org/2000/svg"><path d="M9.365 2.046 C 7.606 2.230,5.999 3.335,5.125 4.963 C 4.422 6.272,4.316 7.957,4.845 9.407 C 5.403 10.937,6.697 12.188,8.265 12.713 C 10.184 13.356,12.321 12.878,13.775 11.481 C 14.793 10.503,15.366 9.309,15.475 7.934 C 15.607 6.273,15.009 4.708,13.795 3.539 C 12.611 2.398,11.044 1.870,9.365 2.046 M10.900 4.117 C 11.835 4.358,12.672 5.045,13.120 5.940 C 13.413 6.525,13.460 6.737,13.460 7.500 C 13.460 8.263,13.413 8.476,13.120 9.060 C 12.679 9.940,11.923 10.577,10.980 10.864 C 10.654 10.964,10.562 10.974,10.000 10.974 C 9.439 10.974,9.346 10.964,9.020 10.865 C 7.848 10.509,6.935 9.574,6.611 8.397 C 6.557 8.201,6.540 7.989,6.540 7.500 C 6.540 6.808,6.582 6.571,6.789 6.103 C 7.174 5.229,8.001 4.467,8.874 4.181 C 9.476 3.984,10.283 3.958,10.900 4.117 M19.380 9.302 C 19.226 9.333,18.947 9.433,18.760 9.525 C 18.420 9.693,18.419 9.694,14.857 13.249 C 12.514 15.587,11.251 16.876,11.168 17.013 C 11.074 17.168,10.907 17.689,10.518 19.041 C 10.051 20.665,9.997 20.885,10.014 21.090 C 10.055 21.596,10.491 22.000,10.996 22.000 C 11.077 22.000,11.961 21.766,12.960 21.479 C 14.316 21.091,14.831 20.927,14.987 20.832 C 15.124 20.749,16.416 19.483,18.753 17.143 L 22.310 13.580 22.476 13.240 C 22.673 12.834,22.759 12.461,22.759 12.000 C 22.759 11.537,22.673 11.164,22.474 10.760 C 22.338 10.484,22.238 10.352,21.943 10.058 C 21.650 9.766,21.514 9.664,21.238 9.528 C 20.682 9.254,20.030 9.175,19.380 9.302 M20.410 11.359 C 20.703 11.560,20.828 11.926,20.720 12.265 C 20.680 12.391,20.040 13.052,17.333 15.763 L 13.995 19.106 13.254 19.316 C 12.847 19.432,12.504 19.517,12.493 19.507 C 12.483 19.496,12.568 19.154,12.684 18.746 L 12.894 18.005 16.217 14.684 C 18.291 12.612,19.593 11.340,19.680 11.301 C 19.882 11.211,20.235 11.239,20.410 11.359 M5.540 14.546 C 4.726 14.643,4.324 14.756,3.732 15.055 C 3.242 15.302,2.841 15.595,2.442 15.999 C 1.735 16.712,1.260 17.626,1.092 18.595 C 1.040 18.892,1.024 19.247,1.022 20.143 L 1.020 21.306 1.141 21.503 C 1.543 22.156,2.457 22.156,2.859 21.503 L 2.980 21.306 3.006 20.203 C 3.037 18.940,3.077 18.676,3.316 18.185 C 3.604 17.594,4.067 17.128,4.670 16.825 C 5.217 16.550,5.216 16.550,7.320 16.523 C 9.022 16.501,9.237 16.491,9.380 16.427 C 9.735 16.269,9.999 15.873,9.999 15.500 C 9.999 15.255,9.864 14.951,9.675 14.772 C 9.406 14.517,9.427 14.519,7.451 14.526 C 6.466 14.529,5.606 14.538,5.540 14.546 " stroke="none" fill-rule="evenodd" fill="black"></path></svg>