<svg width="24" height="24" viewBox="0 0 24 24" fill="none" xmlns="http://www.w3.org/2000/svg"><path d="M11.365 2.046 C 9.606 2.230,7.999 3.335,7.125 4.963 C 6.422 6.272,6.316 7.957,6.845 9.407 C 7.403 10.937,8.697 12.188,10.265 12.713 C 12.184 13.356,14.321 12.878,15.775 11.481 C 16.793 10.503,17.366 9.309,17.475 7.934 C 17.607 6.273,17.009 4.708,15.795 3.539 C 14.611 2.398,13.044 1.870,11.365 2.046 M12.900 4.117 C 13.835 4.358,14.672 5.045,15.120 5.940 C 15.413 6.525,15.460 6.737,15.460 7.500 C 15.460 8.263,15.413 8.476,15.120 9.060 C 14.679 9.940,13.923 10.577,12.980 10.864 C 12.654 10.964,12.562 10.974,12.000 10.974 C 11.439 10.974,11.346 10.964,11.020 10.865 C 9.848 10.509,8.935 9.574,8.611 8.397 C 8.557 8.201,8.540 7.989,8.540 7.500 C 8.540 6.808,8.582 6.571,8.789 6.103 C 9.174 5.229,10.001 4.467,10.874 4.181 C 11.476 3.984,12.283 3.958,12.900 4.117 M11.000 15.042 C 7.865 15.315,5.099 16.588,2.749 18.840 C 2.176 19.389,2.045 19.576,2.012 19.894 C 1.937 20.621,2.626 21.171,3.322 20.939 C 3.502 20.880,3.621 20.786,4.078 20.344 C 5.958 18.526,7.995 17.494,10.460 17.113 C 10.921 17.041,11.194 17.026,12.000 17.026 C 12.806 17.026,13.079 17.041,13.540 17.113 C 16.003 17.494,18.044 18.527,19.922 20.344 C 20.379 20.786,20.498 20.880,20.678 20.939 C 21.374 21.171,22.063 20.621,21.988 19.894 C 21.956 19.586,21.830 19.398,21.333 18.918 C 19.063 16.727,16.455 15.451,13.520 15.097 C 12.901 15.022,11.561 14.993,11.000 15.042 " stroke="none" fill-rule="evenodd" fill="black"></path></svg>