<svg width="24" height="24" viewBox="0 0 24 24" fill="none" xmlns="http://www.w3.org/2000/svg"><path d="M8.560 3.024 C 7.294 3.181,6.235 3.760,5.475 4.711 C 4.017 6.537,4.233 9.244,5.963 10.814 C 7.494 12.203,9.757 12.387,11.460 11.259 C 14.341 9.351,14.117 5.078,11.054 3.511 C 10.637 3.298,10.338 3.191,9.903 3.102 C 9.584 3.036,8.822 2.992,8.560 3.024 M16.240 3.035 C 15.784 3.184,15.512 3.546,15.512 4.003 C 15.512 4.394,15.584 4.493,16.616 5.520 C 17.135 6.037,17.560 6.478,17.560 6.500 C 17.560 6.522,17.135 6.963,16.616 7.480 C 15.954 8.139,15.648 8.472,15.592 8.595 C 15.493 8.811,15.487 9.164,15.578 9.382 C 15.723 9.730,16.126 10.000,16.500 9.999 C 16.868 9.998,16.986 9.911,18.030 8.869 L 19.000 7.901 19.970 8.869 C 21.014 9.911,21.132 9.998,21.500 9.999 C 21.874 10.000,22.277 9.730,22.422 9.382 C 22.513 9.164,22.507 8.811,22.408 8.595 C 22.352 8.472,22.046 8.139,21.384 7.480 C 20.865 6.963,20.440 6.522,20.440 6.500 C 20.440 6.478,20.865 6.037,21.384 5.520 C 22.416 4.493,22.488 4.394,22.488 4.003 C 22.488 3.615,22.293 3.296,21.940 3.108 C 21.729 2.995,21.284 2.989,21.080 3.095 C 21.003 3.135,20.503 3.602,19.970 4.134 L 19.000 5.099 18.030 4.134 C 17.497 3.602,16.999 3.137,16.924 3.100 C 16.768 3.022,16.389 2.986,16.240 3.035 M9.720 5.102 C 10.103 5.216,10.404 5.404,10.742 5.740 C 11.264 6.259,11.479 6.771,11.479 7.500 C 11.479 8.226,11.265 8.737,10.742 9.264 C 10.501 9.506,10.345 9.624,10.120 9.734 C 9.600 9.989,9.029 10.059,8.460 9.940 C 7.577 9.755,6.786 8.984,6.580 8.110 C 6.505 7.790,6.505 7.210,6.580 6.890 C 6.793 5.989,7.620 5.206,8.534 5.041 C 8.816 4.990,9.453 5.023,9.720 5.102 M4.920 14.040 C 4.667 14.057,4.343 14.092,4.200 14.118 C 3.027 14.326,1.999 15.086,1.465 16.141 C 1.075 16.909,0.988 17.616,1.007 19.843 L 1.020 21.306 1.141 21.503 C 1.543 22.156,2.457 22.156,2.859 21.503 L 2.980 21.306 3.007 19.543 C 3.036 17.666,3.058 17.437,3.248 17.048 C 3.366 16.806,3.806 16.366,4.048 16.248 C 4.524 16.016,4.443 16.020,9.000 16.020 C 13.557 16.020,13.476 16.016,13.952 16.248 C 14.194 16.366,14.634 16.806,14.752 17.048 C 14.942 17.437,14.964 17.666,14.993 19.543 L 15.020 21.306 15.141 21.503 C 15.543 22.156,16.457 22.156,16.859 21.503 L 16.980 21.306 16.993 19.843 C 17.012 17.616,16.925 16.909,16.535 16.141 C 16.088 15.259,15.267 14.557,14.320 14.246 C 13.667 14.032,13.571 14.027,9.320 14.018 C 7.153 14.013,5.173 14.023,4.920 14.040 " stroke="none" fill-rule="evenodd" fill="black"></path></svg>