<svg width="24" height="24" viewBox="0 0 24 24" fill="none" xmlns="http://www.w3.org/2000/svg"><path d="M9.365 2.046 C 7.606 2.230,5.999 3.335,5.125 4.963 C 4.422 6.272,4.316 7.957,4.845 9.407 C 5.403 10.937,6.697 12.188,8.265 12.713 C 10.184 13.356,12.321 12.878,13.775 11.481 C 14.793 10.503,15.366 9.309,15.475 7.934 C 15.607 6.273,15.009 4.708,13.795 3.539 C 12.611 2.398,11.044 1.870,9.365 2.046 M10.900 4.117 C 11.835 4.358,12.672 5.045,13.120 5.940 C 13.413 6.525,13.460 6.737,13.460 7.500 C 13.460 8.263,13.413 8.476,13.120 9.060 C 12.679 9.940,11.923 10.577,10.980 10.864 C 10.654 10.964,10.562 10.974,10.000 10.974 C 9.439 10.974,9.346 10.964,9.020 10.865 C 7.848 10.509,6.935 9.574,6.611 8.397 C 6.557 8.201,6.540 7.989,6.540 7.500 C 6.540 6.808,6.582 6.571,6.789 6.103 C 7.174 5.229,8.001 4.467,8.874 4.181 C 9.476 3.984,10.283 3.958,10.900 4.117 M18.640 14.069 C 18.488 14.121,18.208 14.381,16.847 15.735 C 15.960 16.618,15.186 17.421,15.127 17.520 C 15.037 17.672,15.020 17.746,15.020 18.000 C 15.020 18.257,15.036 18.327,15.133 18.492 C 15.263 18.714,15.502 18.901,15.736 18.965 C 15.939 19.019,16.267 18.989,16.445 18.899 C 16.519 18.861,16.899 18.514,17.289 18.128 L 17.997 17.426 18.009 19.366 L 18.020 21.306 18.141 21.503 C 18.543 22.156,19.457 22.156,19.859 21.503 L 19.980 21.306 19.991 19.366 L 20.003 17.426 20.711 18.128 C 21.101 18.514,21.483 18.864,21.560 18.904 C 21.660 18.957,21.787 18.979,22.000 18.979 C 22.258 18.980,22.327 18.964,22.492 18.867 C 22.968 18.587,23.138 17.968,22.866 17.508 C 22.811 17.416,22.040 16.618,21.153 15.736 C 19.714 14.305,19.519 14.124,19.343 14.066 C 19.102 13.985,18.878 13.986,18.640 14.069 M5.540 14.546 C 4.726 14.643,4.324 14.756,3.732 15.055 C 3.242 15.302,2.841 15.595,2.442 15.999 C 1.735 16.712,1.260 17.626,1.092 18.595 C 1.040 18.892,1.024 19.247,1.022 20.143 L 1.020 21.306 1.141 21.503 C 1.543 22.156,2.457 22.156,2.859 21.503 L 2.980 21.306 3.006 20.203 C 3.037 18.940,3.077 18.676,3.316 18.185 C 3.604 17.594,4.067 17.128,4.670 16.825 C 5.255 16.531,5.041 16.546,8.820 16.522 C 11.981 16.502,12.231 16.495,12.380 16.428 C 12.736 16.268,12.999 15.873,12.999 15.500 C 12.999 15.255,12.864 14.951,12.675 14.772 C 12.396 14.507,12.583 14.519,8.951 14.526 C 7.141 14.529,5.606 14.538,5.540 14.546 " stroke="none" fill-rule="evenodd" fill="black"></path></svg>