<svg width="24" height="24" viewBox="0 0 24 24" fill="none" xmlns="http://www.w3.org/2000/svg"><path d="M11.280 1.023 C 11.203 1.032,10.951 1.059,10.720 1.083 C 9.527 1.210,8.337 1.558,7.180 2.120 C 6.045 2.671,5.193 3.285,4.238 4.239 C 3.277 5.198,2.643 6.080,2.097 7.220 C 0.301 10.968,0.728 15.286,3.226 18.633 C 3.701 19.269,4.753 20.316,5.400 20.797 C 9.364 23.745,14.666 23.734,18.637 20.770 C 19.246 20.316,20.316 19.246,20.770 18.637 C 23.744 14.652,23.744 9.348,20.770 5.363 C 20.316 4.755,19.247 3.686,18.640 3.235 C 17.045 2.049,15.365 1.360,13.423 1.096 C 13.000 1.038,11.574 0.990,11.280 1.023 M13.320 3.101 C 15.883 3.488,18.124 4.931,19.560 7.120 C 19.863 7.583,20.303 8.479,20.492 9.020 C 20.838 10.013,20.977 10.865,20.977 12.000 C 20.977 12.888,20.919 13.397,20.733 14.160 C 20.446 15.341,19.820 16.625,19.092 17.532 L 18.873 17.805 18.506 17.450 C 17.755 16.724,16.859 16.257,15.860 16.072 C 15.644 16.032,14.760 16.020,12.000 16.020 C 9.240 16.020,8.356 16.032,8.140 16.072 C 7.141 16.257,6.245 16.724,5.494 17.450 L 5.127 17.805 4.908 17.532 C 4.180 16.625,3.554 15.341,3.267 14.160 C 3.081 13.397,3.023 12.888,3.023 12.000 C 3.023 10.507,3.280 9.379,3.920 8.060 C 4.971 5.891,6.877 4.221,9.160 3.466 C 9.865 3.233,10.432 3.118,11.340 3.024 C 11.662 2.991,12.911 3.039,13.320 3.101 M11.100 4.586 C 9.789 4.823,8.565 5.635,7.822 6.761 C 7.150 7.780,6.870 9.071,7.061 10.262 C 7.599 13.603,11.169 15.457,14.213 13.977 C 15.037 13.576,15.807 12.864,16.294 12.053 C 17.267 10.432,17.221 8.343,16.178 6.761 C 15.424 5.618,14.200 4.815,12.860 4.583 C 12.414 4.505,11.539 4.507,11.100 4.586 M12.677 6.579 C 13.730 6.801,14.655 7.714,14.925 8.800 C 14.996 9.086,14.996 9.914,14.925 10.200 C 14.657 11.278,13.754 12.176,12.689 12.424 C 12.340 12.506,11.660 12.506,11.311 12.424 C 10.425 12.218,9.674 11.598,9.282 10.749 C 9.070 10.291,9.021 10.056,9.021 9.500 C 9.021 8.944,9.070 8.709,9.282 8.251 C 9.671 7.409,10.443 6.769,11.293 6.582 C 11.630 6.508,12.332 6.507,12.677 6.579 M15.680 18.074 C 15.958 18.149,16.277 18.282,16.537 18.434 C 16.839 18.610,17.382 19.125,17.351 19.206 C 17.312 19.309,16.642 19.728,16.012 20.045 C 15.365 20.370,14.574 20.653,13.908 20.797 C 11.906 21.228,9.792 20.959,7.980 20.042 C 7.362 19.730,6.688 19.307,6.650 19.209 C 6.626 19.146,6.966 18.784,7.240 18.581 C 7.608 18.310,8.093 18.109,8.540 18.043 C 8.923 17.987,15.462 18.015,15.680 18.074 " stroke="none" fill-rule="evenodd" fill="black"></path></svg>