<svg width="24" height="24" viewBox="0 0 24 24" fill="none" xmlns="http://www.w3.org/2000/svg"><path d="M8.891 2.044 C 7.010 2.263,5.391 3.587,4.759 5.422 C 4.421 6.405,4.431 7.666,4.786 8.649 C 5.326 10.146,6.459 11.256,7.944 11.742 C 11.179 12.802,14.486 10.404,14.486 7.000 C 14.486 3.996,11.888 1.695,8.891 2.044 M15.270 2.322 C 14.644 2.476,14.323 3.185,14.620 3.760 C 14.723 3.959,14.918 4.115,15.320 4.322 C 15.929 4.635,16.387 5.088,16.673 5.660 C 16.845 6.006,16.911 6.228,16.964 6.638 C 17.085 7.584,16.750 8.512,16.044 9.180 C 15.787 9.424,15.617 9.538,15.239 9.723 C 15.072 9.805,14.874 9.932,14.801 10.005 C 14.268 10.538,14.500 11.454,15.220 11.662 C 15.532 11.753,15.755 11.709,16.253 11.458 C 17.631 10.764,18.622 9.444,18.925 7.900 C 18.997 7.533,18.997 6.467,18.925 6.100 C 18.736 5.135,18.298 4.284,17.626 3.571 C 17.204 3.124,16.778 2.811,16.225 2.540 C 15.757 2.311,15.528 2.258,15.270 2.322 M10.271 4.095 C 11.331 4.387,12.204 5.292,12.421 6.323 C 12.499 6.695,12.496 7.332,12.415 7.692 C 12.163 8.812,11.250 9.701,10.111 9.936 C 8.936 10.179,7.755 9.715,7.054 8.734 C 6.684 8.216,6.520 7.683,6.520 7.000 C 6.520 6.186,6.766 5.543,7.299 4.965 C 7.670 4.562,8.322 4.179,8.800 4.084 C 8.921 4.060,9.056 4.032,9.100 4.022 C 9.252 3.987,10.061 4.037,10.271 4.095 M5.860 14.042 C 4.946 14.094,4.339 14.242,3.725 14.563 C 2.745 15.075,1.995 15.834,1.523 16.788 C 1.117 17.612,0.982 18.548,1.007 20.363 L 1.020 21.307 1.141 21.503 C 1.543 22.156,2.457 22.156,2.859 21.503 L 2.980 21.306 3.007 20.036 C 3.037 18.680,3.089 18.201,3.249 17.826 C 3.542 17.142,3.985 16.666,4.631 16.342 C 5.248 16.032,5.658 16.003,9.380 15.999 C 11.613 15.997,12.210 15.986,12.330 15.943 C 12.551 15.864,12.744 15.702,12.869 15.489 C 12.964 15.328,12.980 15.256,12.980 15.000 C 12.980 14.746,12.963 14.672,12.872 14.516 C 12.813 14.415,12.698 14.282,12.618 14.221 C 12.325 13.998,12.354 13.999,9.244 14.006 C 7.669 14.009,6.146 14.025,5.860 14.042 M16.240 15.035 C 15.784 15.184,15.512 15.546,15.512 16.003 C 15.512 16.394,15.584 16.493,16.616 17.520 C 17.135 18.037,17.560 18.478,17.560 18.500 C 17.560 18.522,17.135 18.963,16.616 19.480 C 15.954 20.139,15.648 20.472,15.592 20.595 C 15.493 20.811,15.487 21.164,15.578 21.382 C 15.723 21.730,16.126 22.000,16.500 21.999 C 16.868 21.998,16.986 21.911,18.030 20.869 L 19.000 19.901 19.970 20.869 C 21.014 21.911,21.132 21.998,21.500 21.999 C 21.874 22.000,22.277 21.730,22.422 21.382 C 22.513 21.164,22.507 20.811,22.408 20.595 C 22.352 20.472,22.046 20.139,21.384 19.480 C 20.865 18.963,20.440 18.522,20.440 18.500 C 20.440 18.478,20.865 18.037,21.384 17.520 C 22.416 16.493,22.488 16.394,22.488 16.003 C 22.488 15.615,22.293 15.296,21.940 15.108 C 21.729 14.995,21.284 14.989,21.080 15.095 C 21.003 15.135,20.503 15.602,19.970 16.134 L 19.000 17.099 18.030 16.134 C 17.497 15.602,16.999 15.137,16.924 15.100 C 16.768 15.022,16.389 14.986,16.240 15.035 " stroke="none" fill-rule="evenodd" fill="black"></path></svg>