<svg width="24" height="24" viewBox="0 0 24 24" fill="none" xmlns="http://www.w3.org/2000/svg"><path d="M18.640 2.069 C 18.488 2.121,18.208 2.381,16.847 3.735 C 15.960 4.618,15.186 5.421,15.127 5.520 C 15.037 5.672,15.020 5.746,15.020 6.000 C 15.020 6.257,15.036 6.327,15.133 6.492 C 15.263 6.714,15.502 6.901,15.736 6.965 C 15.939 7.019,16.267 6.989,16.445 6.899 C 16.519 6.861,16.899 6.514,17.289 6.128 L 17.997 5.426 18.009 7.366 L 18.020 9.306 18.141 9.503 C 18.543 10.156,19.457 10.156,19.859 9.503 L 19.980 9.306 19.991 7.366 L 20.003 5.426 20.711 6.128 C 21.101 6.514,21.483 6.864,21.560 6.904 C 21.660 6.957,21.787 6.979,22.000 6.979 C 22.258 6.980,22.327 6.964,22.492 6.867 C 22.968 6.587,23.138 5.968,22.866 5.508 C 22.811 5.416,22.040 4.618,21.153 3.736 C 19.714 2.305,19.519 2.124,19.343 2.066 C 19.102 1.985,18.878 1.986,18.640 2.069 M8.560 3.024 C 7.294 3.181,6.235 3.760,5.475 4.711 C 4.017 6.537,4.233 9.244,5.963 10.814 C 7.494 12.203,9.757 12.387,11.460 11.259 C 14.341 9.351,14.117 5.078,11.054 3.511 C 10.637 3.298,10.338 3.191,9.903 3.102 C 9.584 3.036,8.822 2.992,8.560 3.024 M9.720 5.102 C 10.103 5.216,10.404 5.404,10.742 5.740 C 11.264 6.259,11.479 6.771,11.479 7.500 C 11.479 8.226,11.265 8.737,10.742 9.264 C 10.501 9.506,10.345 9.624,10.120 9.734 C 9.600 9.989,9.029 10.059,8.460 9.940 C 7.577 9.755,6.786 8.984,6.580 8.110 C 6.505 7.790,6.505 7.210,6.580 6.890 C 6.793 5.989,7.620 5.206,8.534 5.041 C 8.816 4.990,9.453 5.023,9.720 5.102 M4.920 14.040 C 4.667 14.057,4.343 14.092,4.200 14.118 C 3.027 14.326,1.999 15.086,1.465 16.141 C 1.075 16.909,0.988 17.616,1.007 19.843 L 1.020 21.306 1.141 21.503 C 1.543 22.156,2.457 22.156,2.859 21.503 L 2.980 21.306 3.007 19.543 C 3.036 17.666,3.058 17.437,3.248 17.048 C 3.366 16.806,3.806 16.366,4.048 16.248 C 4.524 16.016,4.443 16.020,9.000 16.020 C 13.557 16.020,13.476 16.016,13.952 16.248 C 14.194 16.366,14.634 16.806,14.752 17.048 C 14.942 17.437,14.964 17.666,14.993 19.543 L 15.020 21.306 15.141 21.503 C 15.543 22.156,16.457 22.156,16.859 21.503 L 16.980 21.306 16.993 19.843 C 17.012 17.616,16.925 16.909,16.535 16.141 C 16.088 15.259,15.267 14.557,14.320 14.246 C 13.667 14.032,13.571 14.027,9.320 14.018 C 7.153 14.013,5.173 14.023,4.920 14.040 " stroke="none" fill-rule="evenodd" fill="black"></path></svg>