<svg width="24" height="24" viewBox="0 0 24 24" fill="none" xmlns="http://www.w3.org/2000/svg"><path d="M8.860 2.047 C 7.632 2.185,6.479 2.751,5.579 3.659 C 3.483 5.771,3.480 9.201,5.573 11.333 C 7.170 12.960,9.501 13.436,11.624 12.570 C 12.899 12.049,14.049 10.899,14.570 9.624 C 15.316 7.797,15.073 5.798,13.915 4.237 C 12.740 2.652,10.830 1.825,8.860 2.047 M15.600 2.563 C 15.120 2.781,14.901 3.270,15.060 3.774 C 15.145 4.045,15.308 4.217,15.695 4.445 C 16.100 4.683,16.346 4.883,16.613 5.191 C 17.200 5.867,17.480 6.614,17.480 7.500 C 17.480 8.794,16.806 9.937,15.669 10.574 C 15.321 10.768,15.144 10.958,15.060 11.226 C 14.938 11.613,15.043 12.014,15.333 12.269 C 15.668 12.563,16.111 12.596,16.562 12.362 C 17.790 11.725,18.775 10.565,19.216 9.240 C 19.412 8.649,19.488 8.164,19.488 7.500 C 19.488 6.561,19.290 5.746,18.868 4.948 C 18.349 3.966,17.460 3.082,16.542 2.635 C 16.165 2.451,15.893 2.430,15.600 2.563 M10.405 4.115 C 11.375 4.366,12.232 5.094,12.678 6.046 C 12.906 6.532,12.978 6.881,12.978 7.500 C 12.978 8.119,12.906 8.468,12.678 8.954 C 12.223 9.925,11.401 10.617,10.360 10.905 C 9.993 11.007,9.007 11.007,8.640 10.905 C 7.622 10.623,6.820 9.960,6.342 9.005 C 6.095 8.513,6.028 8.191,6.028 7.500 C 6.028 7.017,6.044 6.840,6.111 6.595 C 6.467 5.286,7.615 4.251,8.942 4.042 C 9.297 3.986,10.050 4.024,10.405 4.115 M8.840 14.025 C 5.978 14.287,3.512 15.783,1.791 18.300 C 1.119 19.283,0.966 19.735,1.095 20.351 C 1.275 21.207,1.866 21.792,2.703 21.941 C 3.175 22.025,15.825 22.025,16.297 21.941 C 17.134 21.792,17.725 21.207,17.905 20.351 C 18.034 19.735,17.881 19.283,17.209 18.300 C 15.628 15.988,13.333 14.484,10.800 14.102 C 10.387 14.039,9.193 13.992,8.840 14.025 M17.643 14.907 C 17.289 15.036,17.000 15.455,17.000 15.840 C 17.000 16.067,17.116 16.353,17.275 16.516 C 17.355 16.599,17.564 16.744,17.740 16.839 C 18.479 17.240,18.970 17.616,19.602 18.267 C 20.069 18.747,20.279 19.010,20.661 19.589 L 20.919 19.980 20.570 20.003 C 20.178 20.030,19.980 20.110,19.772 20.326 C 19.598 20.508,19.512 20.732,19.512 21.003 C 19.512 21.422,19.768 21.785,20.174 21.940 C 20.329 21.999,20.441 22.007,20.850 21.989 C 21.541 21.959,21.850 21.846,22.250 21.474 C 22.790 20.971,23.038 20.188,22.864 19.534 C 22.782 19.224,22.641 18.945,22.333 18.480 C 21.334 16.972,20.075 15.803,18.650 15.058 C 18.224 14.836,17.950 14.795,17.643 14.907 M10.192 16.043 C 11.297 16.164,12.314 16.530,13.253 17.145 C 13.793 17.499,14.137 17.785,14.623 18.285 C 15.115 18.793,15.880 19.810,15.880 19.958 C 15.880 19.987,13.922 20.000,9.500 20.000 C 4.201 20.000,3.120 19.991,3.120 19.947 C 3.120 19.878,3.627 19.142,3.924 18.780 C 4.177 18.471,4.829 17.823,5.140 17.572 C 5.485 17.293,6.137 16.886,6.567 16.681 C 7.728 16.127,8.969 15.909,10.192 16.043 " stroke="none" fill-rule="evenodd" fill="black"></path></svg>