<svg width="24" height="24" viewBox="0 0 24 24" fill="none" xmlns="http://www.w3.org/2000/svg"><path d="M11.365 2.046 C 9.606 2.230,7.999 3.335,7.125 4.963 C 6.422 6.272,6.316 7.957,6.845 9.407 C 7.403 10.937,8.697 12.188,10.265 12.713 C 12.184 13.356,14.321 12.878,15.775 11.481 C 16.793 10.503,17.366 9.309,17.475 7.934 C 17.607 6.273,17.009 4.708,15.795 3.539 C 14.611 2.398,13.044 1.870,11.365 2.046 M12.900 4.117 C 13.835 4.358,14.672 5.045,15.120 5.940 C 15.413 6.525,15.460 6.737,15.460 7.500 C 15.460 8.263,15.413 8.476,15.120 9.060 C 14.679 9.940,13.923 10.577,12.980 10.864 C 12.654 10.964,12.562 10.974,12.000 10.974 C 11.439 10.974,11.346 10.964,11.020 10.865 C 9.848 10.509,8.935 9.574,8.611 8.397 C 8.557 8.201,8.540 7.989,8.540 7.500 C 8.540 6.809,8.582 6.575,8.788 6.103 C 9.167 5.235,10.001 4.467,10.874 4.181 C 11.476 3.984,12.283 3.958,12.900 4.117 M11.320 14.024 C 9.929 14.147,8.957 14.377,7.860 14.844 C 6.515 15.417,5.458 16.133,4.417 17.176 C 3.600 17.994,2.954 18.849,2.769 19.356 C 2.638 19.715,2.613 20.109,2.699 20.440 C 2.852 21.026,3.220 21.506,3.695 21.741 C 4.237 22.009,3.838 21.997,12.000 21.997 C 20.162 21.997,19.763 22.009,20.305 21.741 C 20.783 21.505,21.165 21.004,21.298 20.436 C 21.453 19.781,21.297 19.263,20.707 18.472 C 18.876 16.018,16.317 14.483,13.417 14.100 C 12.951 14.038,11.679 13.992,11.320 14.024 M13.300 16.101 C 14.789 16.326,16.238 16.963,17.440 17.921 C 17.904 18.291,18.638 19.053,19.018 19.560 L 19.332 19.980 15.666 19.990 C 13.650 19.996,10.350 19.996,8.334 19.990 L 4.668 19.980 4.982 19.560 C 5.576 18.767,6.450 17.942,7.240 17.429 C 8.483 16.621,9.762 16.183,11.340 16.024 C 11.675 15.990,12.878 16.038,13.300 16.101 " stroke="none" fill-rule="evenodd" fill="black"></path></svg>