<svg width="24" height="24" viewBox="0 0 24 24" fill="none" xmlns="http://www.w3.org/2000/svg"><path d="M8.891 2.044 C 7.010 2.263,5.391 3.587,4.759 5.422 C 4.421 6.405,4.431 7.666,4.786 8.649 C 5.326 10.146,6.459 11.256,7.944 11.742 C 11.179 12.802,14.486 10.404,14.486 7.000 C 14.486 3.996,11.888 1.695,8.891 2.044 M15.270 2.322 C 14.644 2.476,14.323 3.185,14.620 3.760 C 14.723 3.959,14.918 4.115,15.320 4.322 C 15.929 4.635,16.387 5.088,16.673 5.660 C 16.845 6.006,16.911 6.228,16.964 6.638 C 17.085 7.584,16.750 8.512,16.044 9.180 C 15.787 9.424,15.617 9.538,15.239 9.723 C 15.072 9.805,14.874 9.932,14.801 10.005 C 14.268 10.538,14.500 11.454,15.220 11.662 C 15.532 11.753,15.755 11.709,16.253 11.458 C 17.631 10.764,18.622 9.444,18.925 7.900 C 18.997 7.533,18.997 6.467,18.925 6.100 C 18.736 5.135,18.298 4.284,17.626 3.571 C 17.204 3.124,16.778 2.811,16.225 2.540 C 15.757 2.311,15.528 2.258,15.270 2.322 M10.271 4.095 C 11.331 4.387,12.204 5.292,12.421 6.323 C 12.499 6.695,12.496 7.332,12.415 7.692 C 12.163 8.812,11.250 9.701,10.111 9.936 C 8.936 10.179,7.755 9.715,7.054 8.734 C 6.684 8.216,6.520 7.683,6.520 7.000 C 6.520 6.186,6.766 5.543,7.299 4.965 C 7.670 4.562,8.322 4.179,8.800 4.084 C 8.921 4.060,9.056 4.032,9.100 4.022 C 9.252 3.987,10.061 4.037,10.271 4.095 M5.860 14.040 C 4.940 14.096,4.337 14.243,3.725 14.563 C 2.745 15.075,1.995 15.834,1.523 16.788 C 1.117 17.612,0.982 18.548,1.007 20.363 L 1.020 21.307 1.141 21.503 C 1.543 22.156,2.457 22.156,2.859 21.503 L 2.980 21.306 3.007 20.036 C 3.037 18.680,3.089 18.201,3.249 17.826 C 3.542 17.142,3.985 16.666,4.631 16.342 C 5.253 16.030,5.655 16.002,9.500 16.002 C 13.345 16.002,13.747 16.030,14.369 16.342 C 15.015 16.666,15.458 17.142,15.751 17.826 C 15.911 18.201,15.963 18.680,15.993 20.036 L 16.020 21.306 16.141 21.503 C 16.543 22.156,17.457 22.156,17.859 21.503 L 17.980 21.306 17.979 20.043 C 17.978 18.228,17.884 17.633,17.463 16.780 C 16.967 15.773,16.158 14.981,15.120 14.483 C 14.751 14.306,14.215 14.156,13.680 14.079 C 13.280 14.022,6.704 13.989,5.860 14.040 M18.735 14.164 C 18.497 14.233,18.229 14.449,18.122 14.659 C 17.974 14.949,17.977 15.347,18.129 15.606 C 18.268 15.841,18.426 15.974,18.668 16.060 C 19.220 16.253,19.402 16.334,19.637 16.487 C 20.242 16.883,20.694 17.503,20.903 18.226 C 20.959 18.418,20.975 18.718,20.995 19.883 L 21.020 21.307 21.141 21.503 C 21.543 22.156,22.457 22.156,22.859 21.503 L 22.980 21.306 22.980 19.823 C 22.980 18.523,22.971 18.298,22.905 18.000 C 22.682 16.985,22.267 16.228,21.521 15.477 C 20.892 14.843,20.203 14.431,19.396 14.204 C 19.075 14.114,18.934 14.106,18.735 14.164 " stroke="none" fill-rule="evenodd" fill="black"></path></svg>