<svg width="24" height="24" viewBox="0 0 24 24" fill="none" xmlns="http://www.w3.org/2000/svg"><path d="M11.365 2.046 C 9.606 2.230,7.999 3.335,7.125 4.963 C 6.422 6.272,6.316 7.957,6.845 9.407 C 7.403 10.937,8.697 12.188,10.265 12.713 C 12.184 13.356,14.321 12.878,15.775 11.481 C 16.793 10.503,17.366 9.309,17.475 7.934 C 17.607 6.273,17.009 4.708,15.795 3.539 C 14.611 2.398,13.044 1.870,11.365 2.046 M12.900 4.117 C 13.835 4.358,14.672 5.045,15.120 5.940 C 15.413 6.525,15.460 6.737,15.460 7.500 C 15.460 8.263,15.413 8.476,15.120 9.060 C 14.679 9.940,13.923 10.577,12.980 10.864 C 12.654 10.964,12.562 10.974,12.000 10.974 C 11.439 10.974,11.346 10.964,11.020 10.865 C 9.848 10.509,8.935 9.574,8.611 8.397 C 8.557 8.201,8.540 7.989,8.540 7.500 C 8.540 6.808,8.582 6.571,8.789 6.103 C 9.174 5.229,10.001 4.467,10.874 4.181 C 11.476 3.984,12.283 3.958,12.900 4.117 M7.540 14.545 C 6.693 14.652,6.325 14.755,5.732 15.055 C 5.242 15.302,4.841 15.595,4.442 15.999 C 3.735 16.712,3.260 17.626,3.092 18.595 C 3.040 18.892,3.024 19.247,3.022 20.143 L 3.020 21.306 3.141 21.503 C 3.543 22.156,4.457 22.156,4.859 21.503 L 4.980 21.306 5.006 20.203 C 5.037 18.940,5.077 18.676,5.316 18.185 C 5.604 17.594,6.067 17.128,6.671 16.824 C 7.272 16.522,6.931 16.540,12.000 16.540 C 17.054 16.540,16.731 16.523,17.309 16.814 C 17.930 17.128,18.395 17.592,18.684 18.185 C 18.923 18.676,18.963 18.940,18.994 20.203 L 19.020 21.306 19.141 21.503 C 19.543 22.156,20.457 22.156,20.859 21.503 L 20.980 21.306 20.980 20.183 C 20.980 18.914,20.942 18.559,20.739 17.936 C 20.494 17.185,20.112 16.558,19.558 15.999 C 18.862 15.296,17.963 14.803,17.026 14.612 C 16.735 14.553,16.216 14.545,12.180 14.538 C 9.694 14.534,7.606 14.537,7.540 14.545 " stroke="none" fill-rule="evenodd" fill="black"></path></svg>