<svg width="24" height="24" viewBox="0 0 24 24" fill="none" xmlns="http://www.w3.org/2000/svg"><path d="M3.840 2.037 C 3.461 2.152,3.328 2.301,3.012 2.960 C 1.981 5.113,1.303 7.635,1.072 10.180 C 1.007 10.904,1.007 13.096,1.072 13.820 C 1.226 15.513,1.540 17.053,2.047 18.600 C 2.492 19.956,3.153 21.469,3.410 21.717 C 3.817 22.111,4.477 22.077,4.847 21.644 C 5.171 21.265,5.159 20.926,4.790 20.119 C 3.819 17.993,3.299 16.036,3.075 13.660 C 3.013 13.004,3.013 10.980,3.075 10.320 C 3.296 7.981,3.824 5.996,4.790 3.881 C 5.081 3.244,5.128 3.016,5.037 2.689 C 4.908 2.227,4.301 1.897,3.840 2.037 M19.562 2.067 C 19.330 2.152,19.032 2.452,18.969 2.665 C 18.864 3.017,18.898 3.193,19.200 3.861 C 20.052 5.744,20.530 7.355,20.795 9.240 C 20.936 10.250,20.974 10.829,20.974 12.000 C 20.974 14.964,20.447 17.385,19.200 20.139 C 18.900 20.803,18.864 20.984,18.966 21.326 C 19.075 21.687,19.514 22.000,19.911 22.000 C 20.147 21.999,20.463 21.857,20.633 21.675 C 20.774 21.524,21.221 20.581,21.539 19.760 C 22.291 17.820,22.738 15.908,22.928 13.820 C 22.993 13.096,22.993 10.904,22.928 10.180 C 22.738 8.092,22.291 6.180,21.539 4.240 C 21.224 3.429,20.775 2.477,20.637 2.330 C 20.372 2.046,19.919 1.936,19.562 2.067 M8.365 7.686 C 8.158 7.745,7.827 8.101,7.762 8.331 C 7.701 8.552,7.724 8.896,7.813 9.065 C 7.907 9.244,8.123 9.444,8.320 9.536 C 8.481 9.610,8.590 9.621,9.349 9.633 L 10.199 9.647 10.277 9.913 C 10.320 10.060,10.493 10.661,10.661 11.250 L 10.966 12.319 9.713 13.786 C 8.303 15.436,8.318 15.422,7.749 15.488 C 7.249 15.545,7.129 15.588,6.918 15.786 C 6.510 16.167,6.489 16.739,6.867 17.160 C 7.101 17.419,7.292 17.493,7.728 17.489 C 8.591 17.482,9.394 17.132,10.006 16.496 C 10.152 16.344,10.546 15.896,10.881 15.500 C 11.216 15.104,11.521 14.748,11.557 14.709 C 11.620 14.642,11.636 14.678,11.819 15.329 C 12.046 16.137,12.145 16.379,12.365 16.671 C 12.540 16.903,12.910 17.197,13.176 17.314 C 13.540 17.475,13.748 17.500,14.720 17.500 C 15.624 17.500,15.667 17.496,15.850 17.406 C 16.101 17.283,16.308 17.035,16.387 16.761 C 16.507 16.351,16.338 15.917,15.958 15.660 L 15.780 15.540 14.892 15.520 C 14.381 15.508,13.987 15.483,13.965 15.460 C 13.925 15.419,13.200 12.926,13.200 12.831 C 13.200 12.786,14.800 10.880,15.459 10.140 C 15.779 9.781,15.979 9.678,16.448 9.635 C 16.877 9.596,17.091 9.507,17.288 9.288 C 17.707 8.823,17.600 8.113,17.061 7.781 C 16.870 7.663,16.854 7.660,16.363 7.663 C 15.786 7.666,15.498 7.735,14.973 7.999 C 14.498 8.238,14.213 8.505,13.340 9.532 C 12.900 10.050,12.534 10.467,12.527 10.460 C 12.519 10.453,12.415 10.109,12.295 9.696 C 12.034 8.797,11.916 8.562,11.559 8.225 C 11.274 7.955,10.986 7.792,10.635 7.698 C 10.383 7.631,8.590 7.621,8.365 7.686 " stroke="none" fill-rule="evenodd" fill="black"></path></svg>