<svg width="24" height="24" viewBox="0 0 24 24" fill="none" xmlns="http://www.w3.org/2000/svg"><path d="M1.670 1.061 C 1.448 1.142,1.250 1.309,1.128 1.516 C 1.037 1.672,1.020 1.746,1.020 2.000 C 1.020 2.254,1.036 2.328,1.127 2.480 C 1.186 2.579,1.648 3.072,2.154 3.576 L 3.073 4.492 2.847 4.639 C 1.916 5.242,1.304 6.140,1.082 7.228 C 1.002 7.622,1.000 7.748,1.000 12.000 C 1.000 16.256,1.002 16.378,1.083 16.773 C 1.311 17.892,1.985 18.851,2.956 19.436 C 3.285 19.635,3.810 19.832,4.243 19.921 C 4.619 19.997,4.801 20.000,9.491 20.000 C 14.772 20.000,14.689 20.003,15.326 19.776 C 15.886 19.578,16.504 19.176,16.908 18.749 L 17.113 18.532 19.226 20.649 C 20.389 21.813,21.421 22.813,21.520 22.873 C 21.673 22.964,21.746 22.980,22.000 22.980 C 22.257 22.980,22.327 22.964,22.492 22.867 C 22.968 22.587,23.139 21.967,22.865 21.508 C 22.810 21.416,18.215 16.793,12.653 11.235 C 3.300 1.889,2.525 1.125,2.343 1.065 C 2.107 0.987,1.874 0.986,1.670 1.061 M9.240 4.035 C 8.785 4.183,8.512 4.546,8.512 5.003 C 8.512 5.292,8.619 5.536,8.827 5.724 C 9.136 6.002,9.068 5.995,11.780 6.014 C 14.402 6.031,14.526 6.041,14.952 6.248 C 15.194 6.366,15.634 6.806,15.752 7.048 C 15.953 7.461,15.966 7.622,15.994 10.040 C 16.018 12.134,16.025 12.310,16.094 12.440 C 16.185 12.612,20.108 16.558,20.508 16.881 C 20.991 17.270,21.462 17.374,21.974 17.205 C 22.528 17.023,22.854 16.624,22.959 16.000 C 22.990 15.819,23.000 14.550,22.991 11.840 C 22.980 8.251,22.974 7.924,22.909 7.734 C 22.653 6.979,21.849 6.553,21.106 6.776 C 20.754 6.882,20.499 7.096,19.250 8.336 L 18.000 9.576 18.000 8.918 C 18.000 7.582,17.869 6.798,17.535 6.141 C 17.088 5.259,16.267 4.557,15.320 4.246 C 14.723 4.050,14.428 4.031,11.800 4.016 C 10.447 4.009,9.295 4.017,9.240 4.035 M10.157 11.577 L 15.694 17.114 15.417 17.390 C 15.126 17.680,14.848 17.843,14.475 17.942 C 14.146 18.029,4.844 18.028,4.508 17.940 C 3.823 17.762,3.249 17.194,3.073 16.523 C 3.011 16.283,3.004 15.895,3.002 12.028 C 3.000 7.324,2.992 7.469,3.265 7.014 C 3.519 6.589,3.911 6.260,4.337 6.113 C 4.448 6.074,4.558 6.042,4.580 6.041 C 4.602 6.041,7.112 8.532,10.157 11.577 M21.000 12.010 L 21.000 14.580 19.710 13.290 L 18.420 12.000 19.700 10.720 C 20.404 10.016,20.984 9.440,20.990 9.440 C 20.995 9.440,21.000 10.596,21.000 12.010 " stroke="none" fill-rule="evenodd" fill="black"></path></svg>