<svg width="24" height="24" viewBox="0 0 24 24" fill="none" xmlns="http://www.w3.org/2000/svg"><path d="M4.920 4.040 C 4.150 4.093,3.672 4.205,3.180 4.451 C 2.089 4.996,1.357 5.961,1.124 7.160 C 1.018 7.702,1.000 8.421,1.000 12.000 C 1.000 16.212,1.016 16.561,1.245 17.320 C 1.577 18.422,2.578 19.423,3.680 19.755 C 4.451 19.987,4.752 20.000,9.500 20.000 C 14.248 20.000,14.549 19.987,15.320 19.755 C 16.228 19.482,17.085 18.749,17.536 17.858 C 17.869 17.202,18.000 16.417,18.000 15.080 L 18.000 14.421 19.190 15.605 C 19.845 16.257,20.474 16.863,20.590 16.952 C 21.003 17.271,21.499 17.362,21.974 17.205 C 22.528 17.023,22.854 16.624,22.959 16.000 C 22.990 15.819,23.000 14.550,22.991 11.840 C 22.980 8.251,22.974 7.924,22.909 7.734 C 22.653 6.979,21.849 6.553,21.106 6.776 C 20.754 6.882,20.499 7.096,19.250 8.336 L 18.000 9.576 18.000 8.918 C 18.000 7.582,17.869 6.798,17.535 6.141 C 17.088 5.259,16.268 4.557,15.320 4.246 C 14.666 4.031,14.652 4.030,9.840 4.019 C 7.387 4.014,5.173 4.023,4.920 4.040 M14.492 6.092 C 14.893 6.187,15.109 6.308,15.400 6.600 C 15.696 6.895,15.814 7.109,15.912 7.528 C 15.974 7.794,15.980 8.199,15.980 12.000 C 15.980 16.557,15.984 16.476,15.752 16.952 C 15.626 17.211,15.190 17.638,14.918 17.768 C 14.474 17.981,14.507 17.980,9.500 17.980 C 4.501 17.980,4.530 17.981,4.082 17.771 C 3.812 17.643,3.377 17.217,3.248 16.952 C 3.016 16.476,3.020 16.557,3.020 12.000 C 3.020 8.199,3.026 7.794,3.088 7.528 C 3.175 7.155,3.294 6.918,3.520 6.667 C 3.883 6.262,4.281 6.091,4.980 6.039 C 5.200 6.023,7.369 6.013,9.800 6.018 C 13.729 6.025,14.250 6.034,14.492 6.092 M21.000 12.010 L 21.000 14.580 19.710 13.290 L 18.420 12.000 19.700 10.720 C 20.404 10.016,20.984 9.440,20.990 9.440 C 20.995 9.440,21.000 10.596,21.000 12.010 " stroke="none" fill-rule="evenodd" fill="black"></path></svg>