<svg width="24" height="24" viewBox="0 0 24 24" fill="none" xmlns="http://www.w3.org/2000/svg"><path d="M10.060 2.792 C 9.950 2.830,9.770 2.922,9.660 2.997 C 9.550 3.071,8.587 4.001,7.520 5.063 L 5.580 6.995 4.100 7.009 C 2.683 7.023,2.609 7.027,2.365 7.114 C 1.862 7.292,1.434 7.659,1.222 8.093 C 1.005 8.536,1.001 8.595,1.001 12.000 C 1.001 15.417,1.004 15.460,1.227 15.919 C 1.366 16.205,1.795 16.634,2.081 16.773 C 2.492 16.973,2.735 16.999,4.220 16.999 L 5.580 17.000 7.400 18.824 C 8.401 19.827,9.350 20.753,9.508 20.881 C 9.991 21.270,10.462 21.374,10.974 21.205 C 11.528 21.023,11.854 20.623,11.959 20.000 C 11.990 19.816,12.000 17.427,11.991 11.840 C 11.981 4.423,11.976 3.927,11.910 3.734 C 11.646 2.961,10.805 2.533,10.060 2.792 M10.000 12.008 L 10.000 18.576 8.390 16.974 C 6.886 15.477,6.760 15.362,6.480 15.225 C 6.315 15.144,6.072 15.061,5.940 15.039 C 5.808 15.018,5.093 15.000,4.350 15.000 L 3.000 15.000 3.000 12.000 L 3.000 9.000 4.375 9.000 C 5.131 9.000,5.846 8.982,5.965 8.960 C 6.083 8.938,6.315 8.854,6.480 8.774 C 6.761 8.638,6.881 8.527,8.380 7.035 C 9.260 6.158,9.985 5.441,9.990 5.441 C 9.995 5.440,10.000 8.396,10.000 12.008 M14.670 11.061 C 14.448 11.142,14.250 11.309,14.128 11.516 C 14.037 11.672,14.020 11.746,14.020 12.000 C 14.020 12.256,14.036 12.328,14.131 12.489 C 14.256 12.702,14.449 12.864,14.670 12.943 C 14.891 13.022,22.109 13.022,22.330 12.943 C 22.551 12.864,22.744 12.702,22.869 12.489 C 22.964 12.328,22.980 12.256,22.980 12.000 C 22.980 11.746,22.963 11.672,22.872 11.516 C 22.747 11.303,22.550 11.141,22.316 11.058 C 22.076 10.974,14.901 10.976,14.670 11.061 " stroke="none" fill-rule="evenodd" fill="black"></path></svg>