<svg width="24" height="24" viewBox="0 0 24 24" fill="none" xmlns="http://www.w3.org/2000/svg"><path d="M10.060 2.792 C 9.950 2.830,9.770 2.922,9.660 2.997 C 9.550 3.071,8.587 4.001,7.520 5.063 L 5.580 6.995 4.100 7.009 C 2.683 7.023,2.609 7.027,2.365 7.114 C 1.862 7.292,1.434 7.659,1.222 8.093 C 1.005 8.536,1.001 8.595,1.001 12.000 C 1.001 15.417,1.004 15.460,1.227 15.919 C 1.366 16.205,1.795 16.634,2.081 16.773 C 2.492 16.973,2.735 16.999,4.220 16.999 L 5.580 17.000 7.400 18.824 C 8.401 19.827,9.350 20.753,9.508 20.881 C 9.991 21.270,10.462 21.374,10.974 21.205 C 11.528 21.023,11.854 20.623,11.959 20.000 C 11.990 19.816,12.000 17.427,11.991 11.840 C 11.981 4.423,11.976 3.927,11.910 3.734 C 11.646 2.961,10.805 2.533,10.060 2.792 M10.000 12.008 L 10.000 18.576 8.390 16.974 C 6.886 15.477,6.760 15.362,6.480 15.225 C 6.315 15.144,6.072 15.061,5.940 15.039 C 5.808 15.018,5.093 15.000,4.350 15.000 L 3.000 15.000 3.000 12.000 L 3.000 9.000 4.375 9.000 C 5.131 9.000,5.846 8.982,5.965 8.960 C 6.083 8.938,6.315 8.854,6.480 8.774 C 6.761 8.638,6.881 8.527,8.380 7.035 C 9.260 6.158,9.985 5.441,9.990 5.441 C 9.995 5.440,10.000 8.396,10.000 12.008 M15.670 8.061 C 15.448 8.142,15.250 8.309,15.128 8.516 C 15.036 8.672,15.020 8.745,15.021 9.000 C 15.021 9.213,15.043 9.341,15.095 9.440 C 15.136 9.517,15.711 10.125,16.374 10.790 L 17.578 12.000 16.374 13.210 C 15.711 13.876,15.138 14.481,15.101 14.555 C 14.872 15.009,15.056 15.601,15.508 15.867 C 15.673 15.964,15.742 15.980,16.000 15.979 C 16.213 15.979,16.341 15.957,16.440 15.905 C 16.517 15.864,17.125 15.289,17.790 14.626 L 19.000 13.422 20.210 14.626 C 20.876 15.289,21.481 15.862,21.555 15.899 C 22.009 16.128,22.601 15.944,22.867 15.492 C 22.964 15.327,22.980 15.258,22.979 15.000 C 22.979 14.787,22.957 14.659,22.905 14.560 C 22.864 14.483,22.289 13.876,21.626 13.210 L 20.422 12.000 21.626 10.790 C 22.289 10.125,22.864 9.517,22.905 9.440 C 22.957 9.341,22.979 9.213,22.979 9.000 C 22.980 8.745,22.964 8.672,22.872 8.516 C 22.618 8.084,22.137 7.905,21.657 8.066 C 21.484 8.124,21.312 8.279,20.230 9.354 L 19.000 10.576 17.770 9.354 C 16.688 8.279,16.516 8.124,16.343 8.066 C 16.108 7.987,15.875 7.985,15.670 8.061 " stroke="none" fill-rule="evenodd" fill="black"></path></svg>