<svg width="24" height="24" viewBox="0 0 24 24" fill="none" xmlns="http://www.w3.org/2000/svg"><path d="M10.060 2.792 C 9.950 2.830,9.770 2.922,9.660 2.997 C 9.550 3.071,8.587 4.001,7.520 5.063 L 5.580 6.995 4.100 7.009 C 2.683 7.023,2.609 7.027,2.365 7.114 C 1.862 7.292,1.434 7.659,1.222 8.093 C 1.005 8.536,1.001 8.595,1.001 12.000 C 1.001 15.417,1.004 15.460,1.227 15.919 C 1.366 16.205,1.795 16.634,2.081 16.773 C 2.492 16.973,2.735 16.999,4.220 16.999 L 5.580 17.000 7.400 18.824 C 8.401 19.827,9.350 20.753,9.508 20.881 C 9.991 21.270,10.462 21.374,10.974 21.205 C 11.528 21.023,11.854 20.623,11.959 20.000 C 11.990 19.816,12.000 17.427,11.991 11.840 C 11.981 4.423,11.976 3.927,11.910 3.734 C 11.646 2.961,10.805 2.533,10.060 2.792 M19.430 4.055 C 19.005 4.213,18.759 4.567,18.761 5.016 C 18.762 5.264,18.840 5.444,19.149 5.906 C 20.090 7.313,20.678 8.891,20.907 10.620 C 21.042 11.644,20.980 13.200,20.762 14.253 C 20.484 15.597,19.917 16.946,19.149 18.094 C 18.843 18.552,18.762 18.736,18.761 18.975 C 18.758 19.677,19.373 20.142,20.045 19.946 C 20.326 19.864,20.485 19.707,20.866 19.131 C 22.244 17.049,22.999 14.525,22.999 12.000 C 22.999 9.474,22.240 6.937,20.865 4.869 C 20.701 4.622,20.519 4.370,20.461 4.310 C 20.220 4.056,19.743 3.938,19.430 4.055 M10.000 12.008 L 10.000 18.576 8.390 16.974 C 6.886 15.477,6.760 15.362,6.480 15.225 C 6.315 15.144,6.072 15.061,5.940 15.039 C 5.808 15.018,5.093 15.000,4.350 15.000 L 3.000 15.000 3.000 12.000 L 3.000 9.000 4.375 9.000 C 5.131 9.000,5.846 8.982,5.965 8.960 C 6.083 8.938,6.315 8.854,6.480 8.774 C 6.761 8.638,6.881 8.527,8.380 7.035 C 9.260 6.158,9.985 5.441,9.990 5.441 C 9.995 5.440,10.000 8.396,10.000 12.008 M15.480 7.035 C 15.154 7.142,14.873 7.411,14.798 7.688 C 14.772 7.782,14.760 7.973,14.771 8.111 C 14.788 8.330,14.819 8.407,15.012 8.711 C 15.699 9.795,15.976 10.741,15.976 12.000 C 15.976 13.259,15.699 14.205,15.012 15.289 C 14.819 15.593,14.788 15.670,14.771 15.889 C 14.745 16.219,14.811 16.448,14.992 16.649 C 15.385 17.085,16.038 17.113,16.426 16.711 C 16.638 16.492,16.911 16.060,17.179 15.523 C 18.276 13.321,18.273 10.673,17.171 8.461 C 16.777 7.670,16.481 7.266,16.183 7.112 C 16.011 7.024,15.639 6.983,15.480 7.035 " stroke="none" fill-rule="evenodd" fill="black"></path></svg>