<svg width="24" height="24" viewBox="0 0 24 24" fill="none" xmlns="http://www.w3.org/2000/svg"><path d="M12.594 2.774 C 12.218 2.913,12.014 3.096,10.079 5.025 L 8.099 7.000 6.759 7.001 C 5.807 7.002,5.331 7.019,5.113 7.058 C 4.354 7.193,3.749 7.776,3.555 8.560 C 3.474 8.883,3.474 15.117,3.555 15.440 C 3.750 16.230,4.395 16.840,5.160 16.959 C 5.303 16.981,6.023 17.000,6.759 17.000 L 8.098 17.000 10.099 18.996 C 12.426 21.317,12.351 21.258,13.000 21.259 C 13.336 21.260,13.409 21.246,13.632 21.144 C 13.948 20.997,14.241 20.688,14.358 20.377 C 14.404 20.254,14.459 19.988,14.480 19.787 C 14.532 19.294,14.532 4.706,14.480 4.213 C 14.407 3.522,14.160 3.123,13.648 2.871 C 13.425 2.761,13.331 2.738,13.061 2.730 C 12.865 2.724,12.683 2.741,12.594 2.774 M12.480 12.010 L 12.480 18.580 10.890 16.993 C 9.883 15.988,9.227 15.363,9.100 15.290 C 8.645 15.027,8.643 15.026,7.010 15.009 L 5.520 14.994 5.520 11.997 L 5.520 9.000 6.912 9.000 C 8.411 9.000,8.539 8.986,9.000 8.776 C 9.185 8.691,9.475 8.421,10.840 7.058 C 11.731 6.168,12.465 5.440,12.470 5.440 C 12.476 5.440,12.480 8.396,12.480 12.010 M17.938 7.051 C 17.561 7.203,17.348 7.447,17.271 7.813 C 17.208 8.112,17.264 8.319,17.506 8.693 C 17.925 9.341,18.243 10.109,18.388 10.826 C 18.489 11.328,18.489 12.672,18.388 13.174 C 18.244 13.886,17.929 14.650,17.511 15.301 C 17.311 15.613,17.240 15.791,17.240 15.979 C 17.240 16.755,18.104 17.252,18.756 16.851 C 19.139 16.615,19.747 15.551,20.099 14.500 C 20.702 12.697,20.599 10.497,19.833 8.800 C 19.447 7.946,19.040 7.324,18.752 7.147 C 18.535 7.013,18.144 6.967,17.938 7.051 " stroke="none" fill-rule="evenodd" fill="black"></path></svg>