<svg width="24" height="24" viewBox="0 0 24 24" fill="none" xmlns="http://www.w3.org/2000/svg"><path d="M4.499 2.043 C 3.383 2.230,2.461 3.048,2.114 4.160 L 2.020 4.460 2.020 12.000 L 2.020 19.540 2.114 19.840 C 2.422 20.827,3.173 21.578,4.160 21.886 L 4.460 21.980 12.000 21.980 L 19.540 21.980 19.840 21.886 C 20.827 21.578,21.578 20.827,21.886 19.840 L 21.980 19.540 21.980 14.000 L 21.980 8.460 21.886 8.160 C 21.581 7.182,20.832 6.428,19.861 6.121 L 19.540 6.020 12.120 6.000 L 4.700 5.980 4.516 5.872 C 3.935 5.530,3.833 4.774,4.303 4.303 C 4.629 3.977,4.122 4.000,11.037 3.998 C 16.064 3.997,17.207 3.987,17.330 3.943 C 17.551 3.864,17.744 3.702,17.869 3.489 C 17.964 3.328,17.980 3.256,17.980 3.000 C 17.980 2.746,17.963 2.672,17.872 2.516 C 17.740 2.293,17.533 2.128,17.290 2.055 C 17.138 2.009,16.055 2.001,10.904 2.005 C 7.492 2.007,4.609 2.025,4.499 2.043 M4.220 7.910 C 4.406 7.975,4.926 7.981,11.840 8.000 C 20.157 8.022,19.396 7.991,19.717 8.321 C 20.017 8.631,20.000 8.286,20.000 14.001 C 20.000 18.212,19.990 19.139,19.945 19.290 C 19.872 19.533,19.707 19.740,19.484 19.872 L 19.300 19.980 12.000 19.980 L 4.700 19.980 4.516 19.872 C 4.415 19.813,4.284 19.700,4.225 19.623 C 3.987 19.311,4.000 19.657,4.000 13.495 C 4.000 10.385,4.005 7.840,4.010 7.840 C 4.016 7.841,4.110 7.872,4.220 7.910 M15.949 12.617 C 14.674 13.141,14.699 14.917,15.987 15.399 C 16.618 15.635,17.378 15.384,17.754 14.817 C 17.923 14.561,17.978 14.361,17.978 14.000 C 17.978 13.639,17.923 13.439,17.754 13.183 C 17.371 12.605,16.581 12.357,15.949 12.617 " stroke="none" fill-rule="evenodd" fill="black"></path></svg>