<svg width="24" height="24" viewBox="0 0 24 24" fill="none" xmlns="http://www.w3.org/2000/svg"><path d="M3.749 3.045 C 2.967 3.120,2.402 3.371,1.890 3.870 C 1.491 4.260,1.236 4.731,1.094 5.340 C 1.024 5.645,1.020 5.962,1.020 12.020 L 1.020 18.380 1.111 18.735 C 1.225 19.184,1.379 19.505,1.650 19.858 C 2.038 20.363,2.594 20.719,3.265 20.889 L 3.620 20.980 11.980 20.980 C 19.988 20.980,20.353 20.977,20.660 20.906 C 21.459 20.720,22.041 20.327,22.486 19.671 C 22.685 19.378,22.807 19.084,22.906 18.660 C 22.976 18.355,22.980 18.039,22.980 12.000 C 22.980 5.961,22.976 5.645,22.906 5.340 C 22.688 4.404,22.167 3.737,21.329 3.321 C 21.019 3.168,20.706 3.091,20.180 3.042 C 19.643 2.991,4.277 2.994,3.749 3.045 M20.374 5.074 C 20.576 5.142,20.862 5.431,20.920 5.626 C 20.945 5.711,20.976 6.171,20.989 6.650 L 21.011 7.520 12.006 7.520 L 3.000 7.520 3.000 6.890 C 3.001 6.032,3.050 5.629,3.179 5.434 C 3.333 5.201,3.547 5.080,3.866 5.042 C 4.017 5.024,7.758 5.012,12.180 5.016 C 18.671 5.021,20.250 5.032,20.374 5.074 M21.000 10.518 L 21.000 11.515 19.090 11.529 L 17.180 11.543 16.823 11.653 C 16.248 11.831,16.023 11.958,14.484 12.968 C 13.666 13.505,13.688 13.500,12.000 13.500 C 10.312 13.500,10.334 13.505,9.516 12.968 C 7.977 11.958,7.752 11.831,7.177 11.653 L 6.820 11.543 4.910 11.529 L 3.000 11.515 3.000 10.518 L 3.000 9.520 12.000 9.520 L 21.000 9.520 21.000 10.518 M6.720 13.611 C 6.895 13.671,7.288 13.902,7.918 14.317 C 8.988 15.020,9.313 15.194,9.820 15.341 C 10.670 15.586,13.330 15.586,14.180 15.341 C 14.687 15.194,15.012 15.020,16.082 14.317 C 16.712 13.902,17.105 13.671,17.280 13.611 C 17.533 13.525,17.587 13.522,19.273 13.521 L 21.006 13.520 20.990 15.870 C 20.978 17.604,20.961 18.260,20.924 18.374 C 20.860 18.570,20.579 18.853,20.376 18.925 C 20.143 19.007,3.857 19.007,3.624 18.925 C 3.421 18.853,3.140 18.570,3.076 18.374 C 3.039 18.260,3.022 17.604,3.010 15.870 L 2.994 13.520 4.727 13.521 C 6.413 13.522,6.467 13.525,6.720 13.611 " stroke="none" fill-rule="evenodd" fill="black"></path></svg>