<svg width="24" height="24" viewBox="0 0 24 24" fill="none" xmlns="http://www.w3.org/2000/svg"><path d="M3.749 3.045 C 2.967 3.120,2.402 3.371,1.890 3.870 C 1.491 4.260,1.236 4.731,1.094 5.340 C 1.024 5.645,1.020 5.962,1.020 12.020 L 1.020 18.380 1.111 18.735 C 1.225 19.184,1.379 19.505,1.650 19.858 C 2.038 20.363,2.594 20.719,3.265 20.889 L 3.620 20.980 10.980 20.980 C 18.013 20.980,18.354 20.977,18.660 20.906 C 19.457 20.720,20.041 20.326,20.482 19.677 C 20.682 19.383,20.783 19.150,20.888 18.740 C 20.963 18.451,20.973 18.270,20.989 16.873 L 21.008 15.327 21.211 15.239 C 22.005 14.898,22.637 14.165,22.890 13.292 C 22.973 13.006,22.980 12.899,22.980 12.000 C 22.980 11.101,22.973 10.994,22.890 10.708 C 22.637 9.835,22.005 9.102,21.211 8.761 L 21.008 8.673 20.989 7.127 C 20.973 5.730,20.963 5.549,20.888 5.260 C 20.781 4.846,20.682 4.617,20.473 4.310 C 20.184 3.882,19.811 3.560,19.329 3.321 C 19.019 3.168,18.706 3.091,18.180 3.042 C 17.644 2.991,4.276 2.994,3.749 3.045 M18.374 5.074 C 18.574 5.142,18.861 5.430,18.922 5.626 C 18.954 5.728,18.977 6.245,18.989 7.147 L 19.008 8.514 17.694 8.530 C 16.294 8.547,16.271 8.550,15.745 8.778 C 15.194 9.017,14.611 9.583,14.316 10.168 C 14.059 10.677,14.020 10.919,14.020 12.000 C 14.020 12.899,14.027 13.006,14.110 13.292 C 14.415 14.342,15.205 15.116,16.262 15.400 C 16.542 15.475,16.726 15.489,17.794 15.509 L 19.008 15.532 18.989 16.876 C 18.977 17.758,18.954 18.273,18.922 18.374 C 18.861 18.569,18.580 18.853,18.376 18.925 C 18.143 19.007,3.857 19.007,3.624 18.925 C 3.422 18.854,3.140 18.571,3.074 18.374 C 3.008 18.177,2.973 6.518,3.037 5.945 C 3.102 5.365,3.342 5.104,3.866 5.042 C 4.017 5.024,7.308 5.012,11.180 5.016 C 16.839 5.021,18.250 5.032,18.374 5.074 M20.374 10.575 C 20.562 10.653,20.790 10.866,20.892 11.056 C 20.974 11.209,20.980 11.274,20.980 12.000 C 20.980 12.883,20.957 12.969,20.648 13.248 C 20.371 13.498,20.358 13.500,18.500 13.500 C 16.642 13.500,16.629 13.498,16.352 13.248 C 16.043 12.969,16.020 12.883,16.020 12.000 C 16.020 11.274,16.026 11.209,16.108 11.056 C 16.207 10.870,16.435 10.656,16.617 10.577 C 16.799 10.497,20.184 10.496,20.374 10.575 " stroke="none" fill-rule="evenodd" fill="black"></path></svg>