<svg width="24" height="24" viewBox="0 0 24 24" fill="none" xmlns="http://www.w3.org/2000/svg"><path d="M14.733 1.602 C 14.620 1.622,14.386 1.690,14.213 1.754 C 13.932 1.857,4.324 6.275,3.740 6.570 C 2.878 7.004,2.336 7.655,2.095 8.544 C 2.023 8.807,2.020 9.067,2.020 14.100 L 2.020 19.380 2.111 19.735 C 2.225 20.184,2.379 20.505,2.650 20.858 C 3.038 21.363,3.594 21.719,4.265 21.889 L 4.620 21.980 11.980 21.980 C 19.013 21.980,19.354 21.977,19.660 21.906 C 20.269 21.764,20.711 21.526,21.118 21.118 C 21.526 20.711,21.764 20.269,21.906 19.660 C 21.976 19.357,21.980 19.077,21.980 14.500 C 21.980 9.923,21.976 9.643,21.906 9.340 C 21.688 8.404,21.167 7.737,20.329 7.321 C 19.841 7.079,19.237 7.000,17.870 7.000 L 17.000 7.000 16.999 5.270 C 16.997 3.358,16.975 3.106,16.766 2.660 C 16.415 1.911,15.544 1.457,14.733 1.602 M15.000 5.322 L 15.000 7.000 11.293 7.000 C 9.255 7.000,7.594 6.993,7.603 6.984 C 7.625 6.963,14.342 3.863,14.679 3.718 C 14.822 3.657,14.952 3.615,14.969 3.626 C 14.986 3.636,15.000 4.400,15.000 5.322 M19.374 9.074 C 19.586 9.146,19.863 9.432,19.928 9.646 C 20.005 9.902,20.005 19.098,19.928 19.354 C 19.863 19.567,19.591 19.849,19.376 19.925 C 19.143 20.007,4.857 20.007,4.624 19.925 C 4.422 19.854,4.140 19.571,4.075 19.374 C 4.008 19.175,3.974 10.515,4.037 9.949 C 4.068 9.675,4.102 9.551,4.179 9.434 C 4.328 9.210,4.545 9.082,4.845 9.043 C 4.985 9.024,8.277 9.012,12.160 9.015 C 17.843 9.021,19.250 9.032,19.374 9.074 M16.174 13.039 C 15.750 13.129,15.329 13.477,15.132 13.900 C 15.035 14.107,15.020 14.190,15.020 14.500 C 15.020 14.811,15.035 14.894,15.133 15.104 C 15.276 15.413,15.585 15.721,15.900 15.868 C 16.107 15.965,16.190 15.980,16.500 15.980 C 16.810 15.980,16.893 15.965,17.100 15.868 C 17.415 15.721,17.724 15.413,17.867 15.104 C 17.965 14.894,17.980 14.811,17.980 14.500 C 17.980 14.189,17.965 14.106,17.867 13.896 C 17.727 13.592,17.415 13.278,17.119 13.143 C 16.870 13.030,16.441 12.982,16.174 13.039 " stroke="none" fill-rule="evenodd" fill="black"></path></svg>