<svg width="24" height="24" viewBox="0 0 24 24" fill="none" xmlns="http://www.w3.org/2000/svg"><path d="M7.764 1.579 C 7.623 1.611,7.362 1.710,7.184 1.798 C 6.390 2.192,5.817 2.894,5.598 3.740 C 5.493 4.142,5.484 4.782,5.576 5.172 C 5.611 5.322,5.640 5.462,5.640 5.482 C 5.640 5.503,5.527 5.520,5.390 5.521 C 4.332 5.524,3.527 6.187,3.359 7.193 C 3.304 7.523,3.377 7.950,3.659 8.945 L 3.916 9.850 2.881 11.581 C 2.311 12.533,1.787 13.426,1.717 13.566 C 1.330 14.333,1.194 15.217,1.343 16.006 C 1.480 16.729,2.358 19.297,2.678 19.909 C 3.284 21.067,4.418 21.820,5.763 21.958 C 6.318 22.015,17.682 22.015,18.237 21.958 C 19.262 21.853,20.208 21.370,20.838 20.631 C 21.307 20.080,21.499 19.657,22.115 17.813 C 22.724 15.990,22.804 15.532,22.661 14.715 C 22.529 13.962,22.441 13.784,21.056 11.480 L 20.082 9.860 20.341 8.942 C 20.621 7.949,20.691 7.542,20.640 7.200 C 20.491 6.202,19.671 5.524,18.610 5.521 C 18.473 5.520,18.360 5.503,18.360 5.482 C 18.360 5.462,18.389 5.322,18.424 5.172 C 18.516 4.782,18.507 4.142,18.402 3.740 C 18.181 2.885,17.584 2.166,16.772 1.775 C 16.343 1.568,16.000 1.509,15.380 1.533 C 14.612 1.562,14.105 1.725,13.477 2.142 C 13.097 2.395,12.507 3.002,12.240 3.414 C 12.119 3.601,12.011 3.754,12.000 3.754 C 11.989 3.754,11.881 3.601,11.760 3.414 C 11.493 3.002,10.903 2.395,10.523 2.142 C 10.181 1.915,9.745 1.712,9.400 1.621 C 9.040 1.526,8.107 1.502,7.764 1.579 M9.181 3.677 C 9.495 3.832,9.902 4.215,10.141 4.580 C 10.340 4.885,10.600 5.386,10.600 5.465 C 10.600 5.519,10.458 5.525,9.430 5.512 C 8.153 5.497,8.078 5.485,7.825 5.248 C 7.417 4.865,7.427 4.094,7.844 3.742 C 8.071 3.551,8.187 3.517,8.565 3.531 C 8.860 3.542,8.949 3.563,9.181 3.677 M15.891 3.574 C 16.670 3.900,16.675 5.081,15.900 5.427 C 15.761 5.489,15.587 5.500,14.570 5.512 C 13.542 5.525,13.400 5.519,13.400 5.465 C 13.400 5.432,13.468 5.273,13.551 5.112 C 13.984 4.277,14.456 3.787,15.017 3.593 C 15.260 3.509,15.712 3.499,15.891 3.574 M18.618 7.650 C 18.603 7.721,18.514 8.050,18.422 8.380 L 18.253 8.980 12.000 8.980 L 5.747 8.980 5.578 8.380 C 5.486 8.050,5.397 7.721,5.382 7.650 L 5.354 7.520 12.000 7.520 L 18.646 7.520 18.618 7.650 M19.370 12.570 C 19.888 13.433,20.383 14.276,20.471 14.442 C 20.684 14.847,20.753 15.223,20.686 15.614 C 20.621 15.992,19.796 18.469,19.601 18.874 C 19.338 19.416,18.944 19.758,18.411 19.905 C 18.152 19.977,17.873 19.980,12.000 19.980 C 6.127 19.980,5.848 19.977,5.589 19.905 C 5.272 19.818,4.923 19.603,4.707 19.363 C 4.463 19.092,4.268 18.631,3.800 17.217 C 3.291 15.680,3.242 15.458,3.318 15.037 C 3.385 14.660,3.505 14.435,4.650 12.530 L 5.569 11.000 11.999 11.000 L 18.429 11.000 19.370 12.570 " stroke="none" fill-rule="evenodd" fill="black"></path></svg>