<svg width="24" height="24" viewBox="0 0 24 24" fill="none" xmlns="http://www.w3.org/2000/svg"><path d="M10.760 3.544 C 7.169 3.852,4.007 5.106,1.300 7.296 C 0.636 7.834,0.335 8.139,0.263 8.349 C 0.135 8.726,0.201 9.076,0.453 9.350 C 0.667 9.584,0.911 9.693,1.209 9.691 C 1.519 9.688,1.694 9.593,2.200 9.155 C 3.961 7.630,6.070 6.528,8.304 5.964 C 9.616 5.633,10.427 5.540,12.000 5.540 C 13.329 5.540,13.712 5.569,14.680 5.746 C 17.334 6.229,19.762 7.391,21.800 9.155 C 22.307 9.593,22.481 9.688,22.791 9.691 C 23.089 9.693,23.333 9.584,23.547 9.350 C 23.789 9.086,23.860 8.755,23.752 8.385 C 23.634 7.980,22.135 6.755,20.740 5.925 C 18.677 4.696,16.542 3.956,14.140 3.637 C 13.625 3.568,13.250 3.550,12.220 3.540 C 11.516 3.534,10.859 3.536,10.760 3.544 M10.960 8.544 C 9.234 8.740,8.049 9.075,6.660 9.761 C 5.462 10.352,4.062 11.369,3.831 11.815 C 3.700 12.069,3.709 12.442,3.852 12.701 C 4.041 13.044,4.372 13.241,4.755 13.239 C 5.017 13.238,5.214 13.135,5.686 12.752 C 6.883 11.783,8.268 11.101,9.720 10.765 C 10.547 10.574,10.895 10.540,12.000 10.540 C 13.105 10.540,13.453 10.574,14.280 10.765 C 15.732 11.101,17.117 11.783,18.314 12.752 C 18.786 13.135,18.983 13.238,19.245 13.239 C 19.628 13.241,19.959 13.044,20.148 12.701 C 20.239 12.537,20.259 12.452,20.257 12.240 C 20.253 11.894,20.155 11.712,19.800 11.394 C 18.482 10.214,16.608 9.261,14.741 8.819 C 13.849 8.609,13.338 8.553,12.180 8.540 C 11.586 8.533,11.037 8.535,10.960 8.544 M11.000 13.579 C 9.954 13.735,9.027 14.090,8.140 14.673 C 7.597 15.031,7.382 15.251,7.300 15.535 C 7.216 15.822,7.250 16.053,7.414 16.328 C 7.591 16.622,7.845 16.773,8.197 16.793 C 8.525 16.812,8.633 16.769,9.085 16.446 C 9.976 15.809,10.885 15.520,12.000 15.520 C 13.076 15.520,13.902 15.771,14.800 16.371 C 15.314 16.715,15.431 16.766,15.709 16.766 C 16.382 16.766,16.838 16.117,16.637 15.445 C 16.563 15.199,16.400 15.034,15.910 14.708 C 14.968 14.083,14.078 13.740,12.980 13.580 C 12.496 13.509,11.472 13.509,11.000 13.579 M11.600 18.584 C 11.267 18.728,11.001 19.135,11.001 19.500 C 11.001 19.745,11.136 20.049,11.325 20.228 C 11.704 20.587,12.339 20.575,12.712 20.202 C 12.898 20.015,12.968 19.859,12.991 19.572 C 13.025 19.144,12.808 18.771,12.423 18.596 C 12.222 18.504,11.798 18.498,11.600 18.584 " stroke="none" fill-rule="evenodd" fill="black"></path></svg>