<svg width="24" height="24" viewBox="0 0 24 24" fill="none" xmlns="http://www.w3.org/2000/svg"><path d="M2.670 2.061 C 2.448 2.142,2.250 2.309,2.128 2.516 C 2.036 2.672,2.020 2.745,2.021 3.000 C 2.021 3.213,2.043 3.341,2.095 3.440 C 2.136 3.517,2.591 4.005,3.108 4.524 L 4.047 5.469 3.573 5.738 C 2.576 6.305,1.333 7.208,0.624 7.881 C 0.403 8.091,0.310 8.212,0.263 8.349 C 0.135 8.726,0.201 9.076,0.453 9.350 C 0.667 9.584,0.911 9.693,1.209 9.691 C 1.504 9.688,1.702 9.590,2.061 9.270 C 2.965 8.465,4.086 7.699,5.105 7.187 L 5.547 6.966 6.681 8.101 C 7.306 8.726,7.808 9.244,7.798 9.253 C 7.788 9.261,7.690 9.301,7.580 9.340 C 7.181 9.484,6.089 10.040,5.628 10.336 C 4.716 10.919,3.982 11.524,3.831 11.815 C 3.700 12.069,3.709 12.442,3.852 12.701 C 4.041 13.044,4.372 13.241,4.755 13.239 C 5.017 13.238,5.214 13.135,5.686 12.752 C 6.690 11.939,7.875 11.302,9.058 10.942 L 9.413 10.833 10.727 12.147 C 11.449 12.869,12.040 13.470,12.040 13.484 C 12.040 13.497,11.820 13.519,11.550 13.532 C 10.327 13.592,9.222 13.962,8.140 14.673 C 7.597 15.031,7.382 15.251,7.300 15.535 C 7.129 16.122,7.544 16.742,8.140 16.792 C 8.483 16.820,8.603 16.777,9.078 16.456 C 10.080 15.779,10.898 15.520,12.038 15.520 C 12.836 15.520,13.517 15.678,14.203 16.022 C 14.962 16.402,15.060 16.490,17.820 19.241 C 19.250 20.666,20.483 21.865,20.560 21.905 C 20.659 21.957,20.788 21.979,21.000 21.979 C 21.258 21.980,21.327 21.964,21.492 21.867 C 21.968 21.587,22.139 20.967,21.865 20.508 C 21.810 20.416,17.665 16.243,12.653 11.235 C 4.231 2.820,3.525 2.125,3.343 2.065 C 3.107 1.987,2.874 1.986,2.670 2.061 M10.449 3.577 C 9.830 3.639,9.617 3.725,9.411 3.994 C 9.075 4.435,9.164 5.080,9.606 5.400 C 9.891 5.606,9.977 5.618,10.800 5.560 C 11.689 5.498,13.114 5.525,13.837 5.619 C 16.746 5.994,19.381 7.142,21.639 9.016 C 22.093 9.393,22.296 9.493,22.603 9.491 C 23.325 9.484,23.795 8.701,23.466 8.052 C 23.388 7.899,23.259 7.763,22.932 7.492 C 21.775 6.534,20.806 5.902,19.540 5.279 C 17.762 4.405,16.118 3.908,14.106 3.637 C 13.320 3.531,11.254 3.497,10.449 3.577 M15.000 9.061 C 14.429 9.239,14.155 9.901,14.430 10.443 C 14.578 10.734,14.779 10.875,15.304 11.057 C 16.291 11.398,17.270 11.923,18.087 12.549 C 18.606 12.947,18.787 13.038,19.064 13.039 C 19.440 13.041,19.721 12.887,19.923 12.570 C 20.156 12.202,20.116 11.725,19.826 11.408 C 19.610 11.171,18.795 10.566,18.273 10.253 C 17.472 9.773,16.550 9.351,15.768 9.105 C 15.397 8.988,15.262 8.980,15.000 9.061 M11.600 18.584 C 11.267 18.728,11.001 19.135,11.001 19.500 C 11.001 19.745,11.136 20.049,11.325 20.228 C 11.704 20.587,12.339 20.575,12.712 20.202 C 12.898 20.015,12.968 19.859,12.991 19.572 C 13.025 19.144,12.808 18.771,12.423 18.596 C 12.222 18.504,11.798 18.498,11.600 18.584 " stroke="none" fill-rule="evenodd" fill="black"></path></svg>