<svg width="24" height="24" viewBox="0 0 24 24" fill="none" xmlns="http://www.w3.org/2000/svg"><path d="M16.060 4.040 C 14.833 4.133,13.991 4.328,11.660 5.059 C 9.748 5.659,9.066 5.829,8.136 5.939 C 6.703 6.107,5.728 5.952,3.856 5.258 C 3.244 5.031,3.111 4.995,2.939 5.009 C 2.211 5.068,1.791 5.818,2.124 6.465 C 2.270 6.747,2.446 6.861,3.144 7.125 C 6.272 8.307,8.039 8.298,11.900 7.079 C 14.458 6.272,15.060 6.127,16.247 6.037 C 16.682 6.003,16.973 6.003,17.367 6.037 C 18.252 6.111,18.775 6.243,20.090 6.725 C 20.529 6.886,20.904 7.000,20.993 7.000 C 21.527 7.000,22.000 6.531,22.000 6.000 C 22.000 5.760,21.881 5.479,21.703 5.301 C 21.566 5.163,21.434 5.097,20.880 4.886 C 19.698 4.436,18.788 4.185,17.973 4.084 C 17.484 4.023,16.558 4.002,16.060 4.040 M16.060 10.040 C 14.833 10.133,13.991 10.328,11.660 11.059 C 9.748 11.659,9.066 11.829,8.136 11.939 C 6.703 12.107,5.725 11.951,3.844 11.253 C 3.243 11.030,3.111 10.995,2.939 11.009 C 2.211 11.068,1.791 11.818,2.124 12.465 C 2.270 12.747,2.446 12.861,3.144 13.125 C 6.272 14.307,8.039 14.298,11.900 13.079 C 14.458 12.272,15.060 12.127,16.247 12.037 C 16.682 12.003,16.973 12.003,17.367 12.037 C 18.252 12.111,18.775 12.243,20.090 12.725 C 20.529 12.886,20.904 13.000,20.993 13.000 C 21.527 13.000,22.000 12.531,22.000 12.000 C 22.000 11.760,21.881 11.479,21.703 11.301 C 21.566 11.163,21.434 11.097,20.880 10.886 C 19.698 10.436,18.788 10.185,17.973 10.084 C 17.484 10.023,16.558 10.002,16.060 10.040 M16.060 16.040 C 14.833 16.133,13.991 16.328,11.660 17.059 C 9.748 17.659,9.066 17.829,8.136 17.939 C 6.703 18.107,5.728 17.952,3.856 17.258 C 3.244 17.031,3.111 16.995,2.939 17.009 C 2.211 17.068,1.791 17.818,2.124 18.465 C 2.270 18.747,2.446 18.861,3.144 19.125 C 6.272 20.307,8.039 20.298,11.900 19.079 C 14.458 18.272,15.060 18.127,16.247 18.037 C 16.682 18.003,16.973 18.003,17.367 18.037 C 18.252 18.111,18.775 18.243,20.090 18.725 C 20.529 18.886,20.904 19.000,20.993 19.000 C 21.527 19.000,22.000 18.531,22.000 18.000 C 22.000 17.760,21.881 17.479,21.703 17.301 C 21.566 17.163,21.434 17.097,20.880 16.886 C 19.698 16.436,18.788 16.185,17.973 16.084 C 17.484 16.023,16.558 16.002,16.060 16.040 " stroke="none" fill-rule="evenodd" fill="black"></path></svg>