<svg width="24" height="24" viewBox="0 0 24 24" fill="none" xmlns="http://www.w3.org/2000/svg"><path d="M10.440 3.058 C 9.821 3.191,9.366 3.433,8.933 3.859 C 8.579 4.207,8.521 4.327,8.520 4.702 C 8.520 5.295,9.117 5.771,9.699 5.640 C 9.950 5.584,10.020 5.545,10.272 5.315 C 10.484 5.122,10.766 5.000,11.000 5.000 C 11.518 5.000,12.000 5.483,12.000 6.001 C 12.000 6.331,11.784 6.696,11.484 6.872 L 11.300 6.980 6.520 7.000 C 2.816 7.015,1.715 7.031,1.627 7.070 C 1.428 7.158,1.239 7.328,1.128 7.516 C 1.037 7.672,1.020 7.746,1.020 8.000 C 1.020 8.257,1.036 8.327,1.133 8.492 C 1.261 8.710,1.502 8.901,1.724 8.961 C 1.825 8.988,3.509 8.998,6.728 8.991 L 11.580 8.980 11.860 8.886 C 12.851 8.553,13.583 7.815,13.886 6.840 C 14.021 6.406,14.021 5.594,13.886 5.160 C 13.581 4.179,12.810 3.407,11.861 3.129 C 11.455 3.010,10.812 2.978,10.440 3.058 M18.378 5.058 C 17.549 5.187,16.776 5.581,16.177 6.180 C 15.777 6.579,15.688 6.862,15.820 7.308 C 15.886 7.528,16.107 7.790,16.322 7.901 C 16.392 7.937,16.544 7.976,16.659 7.988 C 16.986 8.022,17.225 7.922,17.572 7.607 C 17.922 7.289,18.176 7.143,18.523 7.062 C 19.917 6.733,21.183 7.898,20.967 9.310 C 20.901 9.742,20.727 10.079,20.403 10.404 C 20.258 10.550,20.045 10.716,19.930 10.775 C 19.457 11.014,20.057 11.000,10.578 11.000 C 3.335 11.000,1.862 11.009,1.710 11.055 C 1.467 11.128,1.260 11.293,1.128 11.516 C 1.037 11.672,1.020 11.746,1.020 12.000 C 1.020 12.256,1.036 12.328,1.131 12.489 C 1.256 12.702,1.449 12.864,1.670 12.943 C 1.794 12.987,3.369 12.997,10.594 12.998 C 19.194 13.000,19.375 12.998,19.757 12.921 C 21.117 12.643,22.193 11.755,22.704 10.488 C 23.090 9.530,23.090 8.469,22.705 7.516 C 22.172 6.197,21.001 5.269,19.605 5.058 C 19.149 4.990,18.817 4.990,18.378 5.058 M1.695 15.057 C 1.465 15.129,1.256 15.299,1.128 15.516 C 1.037 15.672,1.020 15.746,1.020 16.000 C 1.020 16.256,1.036 16.328,1.131 16.489 C 1.256 16.702,1.449 16.864,1.670 16.943 C 1.793 16.987,2.936 16.997,7.963 16.998 C 14.878 17.000,14.371 16.977,14.697 17.303 C 14.970 17.577,15.057 17.919,14.945 18.290 C 14.829 18.674,14.502 18.947,14.107 18.988 C 13.802 19.019,13.541 18.923,13.255 18.672 C 12.960 18.414,12.802 18.348,12.491 18.351 C 11.812 18.359,11.375 18.976,11.564 19.658 C 11.618 19.850,11.998 20.260,12.340 20.493 C 13.408 21.221,14.927 21.148,15.891 20.321 C 16.391 19.893,16.702 19.430,16.886 18.840 C 17.021 18.406,17.021 17.594,16.886 17.160 C 16.582 16.183,15.832 15.428,14.861 15.121 L 14.540 15.020 8.200 15.012 C 3.082 15.006,1.828 15.015,1.695 15.057 " stroke="none" fill-rule="evenodd" fill="black"></path></svg>