<svg width="24" height="24" viewBox="0 0 24 24" fill="none" xmlns="http://www.w3.org/2000/svg"><path d="M8.378 2.058 C 7.549 2.187,6.776 2.581,6.177 3.180 C 5.777 3.579,5.688 3.862,5.820 4.308 C 5.886 4.528,6.107 4.790,6.322 4.901 C 6.392 4.937,6.544 4.976,6.659 4.988 C 6.986 5.022,7.225 4.922,7.572 4.607 C 7.922 4.289,8.176 4.143,8.523 4.062 C 9.917 3.733,11.183 4.898,10.967 6.310 C 10.901 6.742,10.727 7.079,10.403 7.404 C 10.258 7.550,10.045 7.716,9.930 7.775 C 9.474 8.006,9.586 8.000,5.578 8.000 C 1.578 8.000,1.679 7.995,1.382 8.221 C 1.302 8.282,1.187 8.415,1.128 8.516 C 1.037 8.672,1.020 8.746,1.020 9.000 C 1.020 9.256,1.036 9.328,1.131 9.489 C 1.256 9.702,1.449 9.864,1.670 9.943 C 1.791 9.986,2.546 9.997,5.594 9.998 C 9.205 10.000,9.384 9.997,9.757 9.921 C 11.117 9.643,12.193 8.755,12.704 7.488 C 13.090 6.530,13.090 5.469,12.705 4.516 C 12.172 3.197,11.001 2.269,9.605 2.058 C 9.149 1.990,8.817 1.990,8.378 2.058 M18.160 4.596 C 17.666 4.705,17.122 4.938,16.723 5.212 C 16.444 5.403,15.961 5.881,15.868 6.058 C 15.748 6.285,15.749 6.716,15.869 6.944 C 16.042 7.273,16.377 7.483,16.736 7.490 C 17.039 7.496,17.219 7.418,17.514 7.149 C 18.036 6.674,18.400 6.520,19.000 6.520 C 19.795 6.520,20.436 6.917,20.786 7.624 C 21.324 8.712,20.768 10.017,19.600 10.411 C 19.343 10.497,19.304 10.498,16.000 10.519 C 12.300 10.542,12.565 10.522,12.292 10.807 C 11.900 11.216,11.915 11.839,12.325 12.228 C 12.626 12.514,12.444 12.499,15.800 12.512 C 18.968 12.525,19.510 12.505,20.040 12.358 C 21.789 11.872,22.997 10.296,22.997 8.500 C 22.997 6.729,21.819 5.171,20.092 4.656 C 19.606 4.511,18.673 4.482,18.160 4.596 M1.695 14.057 C 1.466 14.129,1.256 14.299,1.128 14.516 C 1.037 14.672,1.020 14.746,1.020 15.000 C 1.020 15.256,1.036 15.328,1.131 15.489 C 1.256 15.702,1.449 15.864,1.670 15.943 C 1.792 15.987,2.871 15.997,7.540 16.001 C 12.810 16.004,13.281 16.010,13.523 16.073 C 14.262 16.266,14.850 16.924,14.967 17.690 C 15.067 18.343,14.873 18.933,14.403 19.404 C 14.002 19.807,13.547 20.000,13.000 20.000 C 12.457 20.000,12.030 19.820,11.576 19.399 C 11.232 19.080,10.972 18.973,10.635 19.013 C 10.020 19.086,9.613 19.735,9.818 20.316 C 9.899 20.545,10.051 20.733,10.385 21.017 C 11.339 21.829,12.577 22.161,13.757 21.921 C 15.384 21.589,16.589 20.384,16.921 18.757 C 17.070 18.024,16.994 17.230,16.705 16.516 C 16.172 15.197,15.001 14.269,13.605 14.058 C 13.066 13.977,1.954 13.976,1.695 14.057 " stroke="none" fill-rule="evenodd" fill="black"></path></svg>