<svg width="24" height="24" viewBox="0 0 24 24" fill="none" xmlns="http://www.w3.org/2000/svg"><path d="M5.920 2.041 C 5.151 2.092,4.672 2.205,4.180 2.451 C 3.089 2.996,2.357 3.961,2.124 5.160 C 2.013 5.729,2.000 6.455,2.000 12.000 C 2.000 18.358,2.006 18.526,2.245 19.320 C 2.577 20.422,3.578 21.423,4.680 21.755 C 5.474 21.994,5.642 22.000,12.000 22.000 C 18.358 22.000,18.526 21.994,19.320 21.755 C 20.422 21.423,21.423 20.422,21.755 19.320 C 21.994 18.526,22.000 18.358,22.000 12.000 C 22.000 5.642,21.994 5.474,21.755 4.680 C 21.424 3.581,20.465 2.622,19.320 2.246 C 18.644 2.024,18.800 2.029,12.340 2.019 C 9.062 2.014,6.173 2.024,5.920 2.041 M18.492 4.091 C 18.894 4.188,19.109 4.309,19.400 4.600 C 19.696 4.895,19.814 5.109,19.912 5.528 C 19.975 5.797,19.980 6.313,19.980 12.000 C 19.980 17.687,19.975 18.203,19.912 18.472 C 19.814 18.891,19.696 19.104,19.400 19.401 C 19.101 19.701,18.820 19.851,18.418 19.928 C 18.010 20.005,5.990 20.005,5.582 19.927 C 5.170 19.850,4.898 19.704,4.600 19.403 C 4.303 19.104,4.186 18.890,4.088 18.472 C 4.025 18.203,4.020 17.687,4.020 12.000 C 4.020 6.313,4.025 5.797,4.088 5.528 C 4.175 5.155,4.294 4.918,4.520 4.667 C 4.883 4.262,5.282 4.091,5.980 4.039 C 6.200 4.023,9.044 4.013,12.300 4.018 C 17.643 4.024,18.247 4.032,18.492 4.091 M8.670 8.061 C 8.448 8.142,8.250 8.309,8.128 8.516 C 8.036 8.672,8.020 8.745,8.021 9.000 C 8.021 9.213,8.043 9.341,8.095 9.440 C 8.136 9.517,8.711 10.125,9.374 10.790 L 10.578 12.000 9.374 13.210 C 8.711 13.876,8.138 14.481,8.101 14.555 C 7.872 15.009,8.056 15.601,8.508 15.867 C 8.673 15.964,8.742 15.980,9.000 15.979 C 9.213 15.979,9.341 15.957,9.440 15.905 C 9.517 15.864,10.125 15.289,10.790 14.626 L 12.000 13.422 13.210 14.626 C 13.876 15.289,14.481 15.862,14.555 15.899 C 15.009 16.128,15.601 15.944,15.867 15.492 C 15.964 15.327,15.980 15.258,15.979 15.000 C 15.979 14.787,15.957 14.659,15.905 14.560 C 15.864 14.483,15.289 13.876,14.626 13.210 L 13.422 12.000 14.626 10.790 C 15.289 10.125,15.864 9.517,15.905 9.440 C 15.957 9.341,15.979 9.213,15.979 9.000 C 15.980 8.745,15.964 8.672,15.872 8.516 C 15.618 8.084,15.137 7.905,14.657 8.066 C 14.484 8.124,14.312 8.279,13.230 9.354 L 12.000 10.576 10.770 9.354 C 9.688 8.279,9.516 8.124,9.343 8.066 C 9.108 7.987,8.875 7.985,8.670 8.061 " stroke="none" fill-rule="evenodd" fill="black"></path></svg>