<svg width="24" height="24" viewBox="0 0 24 24" fill="none" xmlns="http://www.w3.org/2000/svg"><path d="M6.695 6.057 C 6.466 6.129,6.256 6.299,6.128 6.516 C 6.036 6.672,6.020 6.745,6.021 7.000 C 6.021 7.212,6.043 7.341,6.095 7.440 C 6.135 7.517,7.161 8.574,8.374 9.790 L 10.579 12.000 8.374 14.210 C 7.161 15.425,6.135 16.483,6.095 16.560 C 6.043 16.659,6.021 16.788,6.021 17.000 C 6.020 17.258,6.036 17.327,6.133 17.492 C 6.263 17.714,6.502 17.901,6.736 17.965 C 6.939 18.019,7.267 17.989,7.445 17.899 C 7.519 17.862,8.575 16.839,9.790 15.626 L 12.000 13.421 14.210 15.626 C 15.425 16.839,16.483 17.865,16.560 17.905 C 16.659 17.957,16.788 17.979,17.000 17.979 C 17.258 17.980,17.327 17.964,17.492 17.867 C 17.714 17.737,17.901 17.498,17.965 17.264 C 18.019 17.061,17.989 16.733,17.899 16.555 C 17.862 16.481,16.839 15.425,15.626 14.210 L 13.421 12.000 15.626 9.790 C 16.839 8.574,17.865 7.517,17.905 7.440 C 17.957 7.341,17.979 7.212,17.979 7.000 C 17.980 6.745,17.964 6.672,17.872 6.516 C 17.740 6.293,17.533 6.128,17.290 6.055 C 17.055 5.984,16.943 5.986,16.677 6.064 C 16.468 6.125,16.378 6.209,14.230 8.353 L 12.000 10.578 9.770 8.353 C 7.622 6.209,7.532 6.125,7.323 6.064 C 7.066 5.988,6.919 5.987,6.695 6.057 " stroke="none" fill-rule="evenodd" fill="black"></path></svg>