<svg width="24" height="24" viewBox="0 0 24 24" fill="none" xmlns="http://www.w3.org/2000/svg"><path d="M9.120 4.040 C 6.445 4.117,4.773 4.248,4.013 4.441 C 2.839 4.739,1.926 5.586,1.534 6.739 C 1.255 7.558,1.002 10.088,1.001 12.060 C 1.001 14.031,1.255 16.568,1.535 17.381 C 1.858 18.324,2.646 19.131,3.586 19.483 C 4.577 19.853,6.477 19.992,11.060 20.028 C 14.596 20.055,16.921 19.991,18.660 19.818 C 19.738 19.710,20.216 19.598,20.740 19.328 C 21.588 18.891,22.232 18.123,22.501 17.226 C 22.574 16.985,22.731 16.008,22.821 15.240 C 23.054 13.248,23.055 10.828,22.822 8.780 C 22.721 7.894,22.568 7.004,22.461 6.683 C 22.109 5.626,21.212 4.761,20.140 4.445 C 19.595 4.284,18.275 4.160,16.240 4.080 C 14.791 4.023,10.560 3.999,9.120 4.040 M16.200 6.079 C 18.231 6.160,19.321 6.262,19.708 6.407 C 19.830 6.452,20.013 6.570,20.139 6.686 C 20.454 6.974,20.575 7.251,20.681 7.920 C 21.091 10.523,21.090 13.485,20.679 16.120 C 20.581 16.747,20.481 16.991,20.207 17.273 C 19.772 17.719,19.196 17.827,16.500 17.968 C 15.136 18.039,8.873 18.039,7.500 17.968 C 4.754 17.827,4.174 17.713,3.737 17.229 C 3.483 16.948,3.420 16.791,3.321 16.180 C 3.065 14.603,2.958 12.660,3.033 10.954 C 3.109 9.236,3.312 7.630,3.509 7.189 C 3.644 6.885,3.993 6.558,4.306 6.441 C 4.854 6.236,6.449 6.115,9.820 6.024 C 10.710 6.000,15.172 6.039,16.200 6.079 M9.690 7.523 C 9.429 7.626,9.065 7.954,8.942 8.196 C 8.764 8.550,8.760 8.640,8.761 12.012 C 8.761 14.539,8.773 15.268,8.814 15.446 C 9.016 16.304,9.922 16.790,10.740 16.479 C 11.031 16.368,10.687 16.580,13.500 14.779 C 16.100 13.114,16.266 12.987,16.441 12.538 C 16.566 12.214,16.567 11.789,16.444 11.470 C 16.267 11.017,16.163 10.937,13.547 9.255 C 12.223 8.403,11.023 7.651,10.880 7.583 C 10.535 7.420,10.019 7.394,9.690 7.523 M12.750 11.119 C 13.482 11.589,14.080 11.986,14.080 12.001 C 14.080 12.016,13.355 12.493,12.470 13.061 C 11.585 13.629,10.838 14.111,10.810 14.132 C 10.770 14.162,10.760 13.730,10.760 12.005 L 10.760 9.840 11.090 10.052 C 11.272 10.169,12.018 10.649,12.750 11.119 " stroke="none" fill-rule="evenodd" fill="black"></path></svg>