<svg width="24" height="24" viewBox="0 0 24 24" fill="none" xmlns="http://www.w3.org/2000/svg"><path d="M16.694 2.057 C 16.602 2.086,16.471 2.149,16.402 2.198 C 16.220 2.328,9.302 12.025,9.134 12.385 C 8.964 12.753,8.931 13.024,9.017 13.361 C 9.146 13.867,9.493 14.236,10.000 14.408 C 10.254 14.493,10.317 14.496,12.555 14.511 L 14.850 14.526 14.827 14.693 C 14.141 19.772,13.986 21.050,14.033 21.232 C 14.223 21.959,15.106 22.240,15.653 21.748 C 15.882 21.543,22.711 11.948,22.866 11.615 C 23.036 11.247,23.069 10.976,22.983 10.640 C 22.898 10.307,22.718 10.030,22.464 9.842 C 22.035 9.525,22.185 9.541,19.530 9.529 C 17.306 9.518,17.160 9.513,17.160 9.447 C 17.160 9.409,17.349 7.961,17.580 6.230 C 17.811 4.500,18.000 3.032,18.000 2.969 C 18.000 2.588,17.686 2.172,17.316 2.063 C 17.066 1.988,16.918 1.987,16.694 2.057 M3.600 5.584 C 3.267 5.728,3.001 6.135,3.001 6.500 C 3.001 6.886,3.304 7.318,3.665 7.445 C 3.893 7.526,9.107 7.526,9.335 7.445 C 9.696 7.318,9.999 6.886,9.999 6.500 C 9.999 6.130,9.730 5.723,9.391 5.582 C 9.170 5.490,3.814 5.491,3.600 5.584 M15.236 8.640 C 15.108 9.597,15.002 10.452,15.002 10.540 C 15.000 10.870,15.282 11.276,15.620 11.428 C 15.767 11.494,15.979 11.502,18.153 11.520 L 20.525 11.540 18.534 14.328 C 17.439 15.862,16.540 17.113,16.536 17.108 C 16.532 17.104,16.635 16.317,16.763 15.360 C 16.892 14.403,16.998 13.548,16.998 13.460 C 16.999 13.257,16.849 12.937,16.675 12.772 C 16.401 12.512,16.486 12.520,13.857 12.520 C 11.743 12.520,11.474 12.513,11.495 12.459 C 11.519 12.396,15.452 6.877,15.463 6.892 C 15.466 6.896,15.364 7.683,15.236 8.640 M1.695 11.056 C 1.465 11.129,1.256 11.299,1.128 11.516 C 1.037 11.672,1.020 11.746,1.020 12.000 C 1.020 12.256,1.036 12.328,1.131 12.489 C 1.256 12.702,1.449 12.864,1.670 12.943 C 1.789 12.985,2.326 12.997,4.260 12.998 L 6.700 12.999 6.900 12.905 C 7.281 12.724,7.488 12.405,7.488 12.000 C 7.488 11.615,7.293 11.297,6.940 11.106 C 6.781 11.021,6.758 11.020,4.320 11.012 C 2.387 11.006,1.825 11.015,1.695 11.056 M3.044 16.625 C 2.379 16.957,2.322 17.895,2.941 18.321 C 3.226 18.517,3.378 18.525,6.420 18.512 C 9.016 18.501,9.232 18.495,9.380 18.428 C 9.736 18.268,9.999 17.873,9.999 17.500 C 9.999 17.255,9.864 16.951,9.675 16.772 C 9.397 16.509,9.550 16.520,6.249 16.520 L 3.256 16.520 3.044 16.625 " stroke="none" fill-rule="evenodd" fill="black"></path></svg>