<svg width="24" height="24" viewBox="0 0 24 24" fill="none" xmlns="http://www.w3.org/2000/svg"><path d="M12.700 1.053 C 12.612 1.082,12.498 1.132,12.447 1.163 C 12.328 1.235,9.819 4.239,9.695 4.457 C 9.362 5.041,9.766 5.811,10.454 5.905 C 10.565 5.921,10.712 5.905,10.862 5.861 C 11.054 5.805,11.136 5.751,11.328 5.552 C 11.455 5.419,11.560 5.335,11.560 5.365 C 11.561 5.395,11.521 5.747,11.472 6.147 C 11.386 6.856,11.386 6.881,11.455 7.102 C 11.696 7.867,12.733 8.038,13.202 7.391 C 13.267 7.301,13.337 7.163,13.358 7.084 C 13.378 7.005,13.534 5.827,13.703 4.466 C 14.046 1.713,14.045 1.745,13.795 1.405 C 13.552 1.075,13.087 0.926,12.700 1.053 M2.670 2.061 C 2.448 2.142,2.250 2.309,2.128 2.516 C 2.036 2.672,2.020 2.745,2.021 3.000 C 2.021 3.212,2.043 3.341,2.095 3.440 C 2.135 3.517,3.175 4.589,4.406 5.823 L 6.645 8.066 4.780 10.303 C 3.754 11.533,2.855 12.648,2.782 12.780 C 2.434 13.408,2.524 14.087,3.017 14.554 C 3.503 15.013,3.358 14.998,7.442 14.999 L 10.865 15.000 10.425 18.522 C 10.027 21.706,9.989 22.063,10.034 22.232 C 10.211 22.913,10.958 23.204,11.551 22.824 C 11.622 22.778,12.666 21.557,13.871 20.112 L 16.060 17.484 18.240 19.658 C 19.439 20.853,20.483 21.865,20.560 21.905 C 20.659 21.957,20.788 21.979,21.000 21.979 C 21.258 21.980,21.327 21.964,21.492 21.867 C 21.968 21.587,22.139 20.967,21.865 20.508 C 21.810 20.416,17.665 16.243,12.653 11.235 C 4.231 2.820,3.525 2.125,3.343 2.065 C 3.107 1.987,2.874 1.986,2.670 2.061 M15.349 9.056 C 14.756 9.272,14.485 9.901,14.756 10.432 C 14.799 10.516,14.894 10.644,14.967 10.717 C 15.233 10.982,15.201 10.978,17.115 11.000 L 18.850 11.020 18.281 11.700 C 17.967 12.074,17.678 12.452,17.637 12.540 C 17.538 12.750,17.537 13.127,17.635 13.340 C 17.728 13.544,18.021 13.814,18.223 13.882 C 18.465 13.964,18.756 13.945,18.982 13.834 C 19.151 13.751,19.318 13.572,20.120 12.611 C 21.134 11.397,21.293 11.171,21.387 10.813 C 21.567 10.131,21.166 9.386,20.478 9.121 L 20.220 9.021 17.860 9.011 C 15.937 9.003,15.472 9.012,15.349 9.056 M9.960 12.990 C 9.080 12.996,7.638 12.996,6.755 12.990 L 5.150 12.980 6.605 11.232 L 8.060 9.484 9.810 11.232 L 11.560 12.980 9.960 12.990 M14.608 16.101 C 14.496 16.287,12.458 18.677,12.449 18.633 C 12.439 18.584,12.876 14.975,12.944 14.545 L 12.969 14.390 13.802 15.222 C 14.307 15.727,14.625 16.073,14.608 16.101 " stroke="none" fill-rule="evenodd" fill="black"></path></svg>