<svg width="24" height="24" viewBox="0 0 24 24" fill="none" xmlns="http://www.w3.org/2000/svg"><path d="M12.735 1.044 C 12.666 1.064,12.526 1.138,12.424 1.210 C 12.188 1.376,2.975 12.431,2.782 12.780 C 2.434 13.409,2.524 14.087,3.017 14.554 C 3.503 15.013,3.358 14.998,7.442 14.999 L 10.865 15.000 10.425 18.522 C 10.027 21.706,9.989 22.063,10.034 22.232 C 10.217 22.936,11.015 23.221,11.589 22.788 C 11.788 22.637,20.998 11.588,21.193 11.266 C 21.468 10.812,21.502 10.338,21.294 9.874 C 21.152 9.557,20.824 9.254,20.478 9.120 L 20.220 9.020 16.678 9.009 L 13.136 8.997 13.577 5.464 L 14.018 1.931 13.945 1.701 C 13.785 1.193,13.240 0.897,12.735 1.044 M11.278 7.697 C 11.078 9.292,10.999 10.052,11.017 10.177 C 11.054 10.422,11.258 10.712,11.497 10.859 L 11.694 10.980 15.272 11.000 L 18.850 11.020 15.655 14.854 C 13.898 16.963,12.455 18.663,12.449 18.633 C 12.442 18.602,12.565 17.560,12.722 16.318 C 12.903 14.881,12.998 13.989,12.984 13.866 C 12.947 13.533,12.705 13.218,12.373 13.070 C 12.286 13.032,11.428 13.015,8.705 13.000 L 5.150 12.980 8.344 9.147 C 10.101 7.039,11.544 5.333,11.552 5.355 C 11.559 5.378,11.436 6.432,11.278 7.697 " stroke="none" fill-rule="evenodd" fill="black"></path></svg>